G04*
G04 #@! TF.GenerationSoftware,Altium Limited,Altium Designer,24.3.1 (35)*
G04*
G04 Layer_Color=32896*
%FSAX25Y25*%
%MOIN*%
G70*
G04*
G04 #@! TF.SameCoordinates,FD1E8778-55F6-401F-AF26-4ACC28CE7946*
G04*
G04*
G04 #@! TF.FilePolarity,Positive*
G04*
G01*
G75*
%ADD11C,0.01000*%
%ADD14C,0.00800*%
%ADD37C,0.01500*%
%ADD38C,0.00100*%
G54D11*
X0067095Y0912891D02*
Y0906893D01*
X0071094D01*
X0074093Y0910891D02*
X0076092D01*
X0077092Y0909892D01*
Y0906893D01*
X0074093D01*
X0073093Y0907892D01*
X0074093Y0908892D01*
X0077092D01*
X0079091Y0910891D02*
Y0907892D01*
X0080091Y0906893D01*
X0083090D01*
Y0905893D01*
X0082090Y0904893D01*
X0081090D01*
X0083090Y0906893D02*
Y0910891D01*
X0088088Y0906893D02*
X0086089D01*
X0085089Y0907892D01*
Y0909892D01*
X0086089Y0910891D01*
X0088088D01*
X0089088Y0909892D01*
Y0908892D01*
X0085089D01*
X0091087Y0910891D02*
Y0906893D01*
Y0908892D01*
X0092087Y0909892D01*
X0093086Y0910891D01*
X0094086D01*
X0070094Y0798893D02*
Y0804891D01*
X0067095Y0801892D01*
X0071094D01*
X0067095Y0827891D02*
X0068095Y0828891D01*
X0070094D01*
X0071094Y0827891D01*
Y0826891D01*
X0070094Y0825892D01*
X0069094D01*
X0070094D01*
X0071094Y0824892D01*
Y0823892D01*
X0070094Y0822893D01*
X0068095D01*
X0067095Y0823892D01*
X0071094Y0846893D02*
X0067095D01*
X0071094Y0850891D01*
Y0851891D01*
X0070094Y0852891D01*
X0068095D01*
X0067095Y0851891D01*
Y0870893D02*
X0069094D01*
X0068095D01*
Y0876891D01*
X0067095Y0875891D01*
X0108086Y0906893D02*
Y0912891D01*
X0112085Y0906893D01*
Y0912891D01*
X0115084Y0910891D02*
X0117083D01*
X0118083Y0909892D01*
Y0906893D01*
X0115084D01*
X0114084Y0907892D01*
X0115084Y0908892D01*
X0118083D01*
X0120082Y0906893D02*
Y0910891D01*
X0121082D01*
X0122082Y0909892D01*
Y0906893D01*
Y0909892D01*
X0123081Y0910891D01*
X0124081Y0909892D01*
Y0906893D01*
X0129079D02*
X0127080D01*
X0126080Y0907892D01*
Y0909892D01*
X0127080Y0910891D01*
X0129079D01*
X0130079Y0909892D01*
Y0908892D01*
X0126080D01*
X0112085Y0780891D02*
X0108086D01*
Y0777892D01*
X0110086D01*
X0108086D01*
Y0774893D01*
X0114084D02*
X0116084D01*
X0115084D01*
Y0780891D01*
X0114084D01*
X0122082Y0774893D02*
X0120082D01*
X0119083Y0775892D01*
Y0777892D01*
X0120082Y0778891D01*
X0122082D01*
X0123081Y0777892D01*
Y0776892D01*
X0119083D01*
X0125081Y0778891D02*
X0129079Y0774893D01*
X0127080Y0776892D01*
X0129079Y0778891D01*
X0125081Y0774893D01*
X0137077Y0780891D02*
Y0774893D01*
X0140076D01*
X0141076Y0775892D01*
Y0776892D01*
X0140076Y0777892D01*
X0137077D01*
X0140076D01*
X0141076Y0778891D01*
Y0779891D01*
X0140076Y0780891D01*
X0137077D01*
X0144075Y0774893D02*
X0146074D01*
X0147074Y0775892D01*
Y0777892D01*
X0146074Y0778891D01*
X0144075D01*
X0143075Y0777892D01*
Y0775892D01*
X0144075Y0774893D01*
X0150073Y0779891D02*
Y0778891D01*
X0149073D01*
X0151072D01*
X0150073D01*
Y0775892D01*
X0151072Y0774893D01*
X0155071Y0779891D02*
Y0778891D01*
X0154071D01*
X0156071D01*
X0155071D01*
Y0775892D01*
X0156071Y0774893D01*
X0160069D02*
X0162069D01*
X0163068Y0775892D01*
Y0777892D01*
X0162069Y0778891D01*
X0160069D01*
X0159070Y0777892D01*
Y0775892D01*
X0160069Y0774893D01*
X0165068D02*
Y0778891D01*
X0166068D01*
X0167067Y0777892D01*
Y0774893D01*
Y0777892D01*
X0168067Y0778891D01*
X0169067Y0777892D01*
Y0774893D01*
X0180063Y0780891D02*
X0178064D01*
X0177064Y0779891D01*
Y0775892D01*
X0178064Y0774893D01*
X0180063D01*
X0181063Y0775892D01*
Y0779891D01*
X0180063Y0780891D01*
X0183062Y0778891D02*
X0185061Y0774893D01*
X0187061Y0778891D01*
X0192059Y0774893D02*
X0190060D01*
X0189060Y0775892D01*
Y0777892D01*
X0190060Y0778891D01*
X0192059D01*
X0193059Y0777892D01*
Y0776892D01*
X0189060D01*
X0195058Y0778891D02*
Y0774893D01*
Y0776892D01*
X0196058Y0777892D01*
X0197057Y0778891D01*
X0198057D01*
X0201056Y0774893D02*
X0203056D01*
X0202056D01*
Y0780891D01*
X0201056D01*
X0207054Y0778891D02*
X0209053D01*
X0210053Y0777892D01*
Y0774893D01*
X0207054D01*
X0206054Y0775892D01*
X0207054Y0776892D01*
X0210053D01*
X0212053Y0778891D02*
Y0775892D01*
X0213052Y0774893D01*
X0216051D01*
Y0773893D01*
X0215052Y0772893D01*
X0214052D01*
X0216051Y0774893D02*
Y0778891D01*
X0112085Y0792891D02*
X0108086D01*
Y0789892D01*
X0110086D01*
X0108086D01*
Y0786893D01*
X0114084D02*
X0116084D01*
X0115084D01*
Y0792891D01*
X0114084D01*
X0122082Y0786893D02*
X0120082D01*
X0119083Y0787892D01*
Y0789892D01*
X0120082Y0790891D01*
X0122082D01*
X0123081Y0789892D01*
Y0788892D01*
X0119083D01*
X0125081Y0790891D02*
X0129079Y0786893D01*
X0127080Y0788892D01*
X0129079Y0790891D01*
X0125081Y0786893D01*
X0137077Y0792891D02*
Y0786893D01*
X0140076D01*
X0141076Y0787892D01*
Y0788892D01*
X0140076Y0789892D01*
X0137077D01*
X0140076D01*
X0141076Y0790891D01*
Y0791891D01*
X0140076Y0792891D01*
X0137077D01*
X0144075Y0786893D02*
X0146074D01*
X0147074Y0787892D01*
Y0789892D01*
X0146074Y0790891D01*
X0144075D01*
X0143075Y0789892D01*
Y0787892D01*
X0144075Y0786893D01*
X0150073Y0791891D02*
Y0790891D01*
X0149073D01*
X0151072D01*
X0150073D01*
Y0787892D01*
X0151072Y0786893D01*
X0155071Y0791891D02*
Y0790891D01*
X0154071D01*
X0156071D01*
X0155071D01*
Y0787892D01*
X0156071Y0786893D01*
X0160069D02*
X0162069D01*
X0163068Y0787892D01*
Y0789892D01*
X0162069Y0790891D01*
X0160069D01*
X0159070Y0789892D01*
Y0787892D01*
X0160069Y0786893D01*
X0165068D02*
Y0790891D01*
X0166068D01*
X0167067Y0789892D01*
Y0786893D01*
Y0789892D01*
X0168067Y0790891D01*
X0169067Y0789892D01*
Y0786893D01*
X0181063Y0791891D02*
X0180063Y0792891D01*
X0178064D01*
X0177064Y0791891D01*
Y0787892D01*
X0178064Y0786893D01*
X0180063D01*
X0181063Y0787892D01*
X0184062Y0786893D02*
X0186061D01*
X0187061Y0787892D01*
Y0789892D01*
X0186061Y0790891D01*
X0184062D01*
X0183062Y0789892D01*
Y0787892D01*
X0184062Y0786893D01*
X0189060Y0790891D02*
X0191059Y0786893D01*
X0193059Y0790891D01*
X0198057Y0786893D02*
X0196058D01*
X0195058Y0787892D01*
Y0789892D01*
X0196058Y0790891D01*
X0198057D01*
X0199057Y0789892D01*
Y0788892D01*
X0195058D01*
X0201056Y0790891D02*
Y0786893D01*
Y0788892D01*
X0202056Y0789892D01*
X0203056Y0790891D01*
X0204055D01*
X0207054Y0786893D02*
X0209053D01*
X0208054D01*
Y0792891D01*
X0207054D01*
X0213052Y0790891D02*
X0215052D01*
X0216051Y0789892D01*
Y0786893D01*
X0213052D01*
X0212053Y0787892D01*
X0213052Y0788892D01*
X0216051D01*
X0218051Y0790891D02*
Y0787892D01*
X0219050Y0786893D01*
X0222049D01*
Y0785893D01*
X0221050Y0784893D01*
X0220050D01*
X0222049Y0786893D02*
Y0790891D01*
X0112085Y0803891D02*
X0111085Y0804891D01*
X0109086D01*
X0108086Y0803891D01*
Y0802891D01*
X0109086Y0801892D01*
X0111085D01*
X0112085Y0800892D01*
Y0799892D01*
X0111085Y0798893D01*
X0109086D01*
X0108086Y0799892D01*
X0114084Y0798893D02*
X0116084D01*
X0115084D01*
Y0802891D01*
X0114084D01*
X0121082Y0796893D02*
X0122082D01*
X0123081Y0797893D01*
Y0802891D01*
X0120082D01*
X0119083Y0801892D01*
Y0799892D01*
X0120082Y0798893D01*
X0123081D01*
X0125081D02*
Y0802891D01*
X0128080D01*
X0129079Y0801892D01*
Y0798893D01*
X0132078Y0802891D02*
X0134078D01*
X0135078Y0801892D01*
Y0798893D01*
X0132078D01*
X0131079Y0799892D01*
X0132078Y0800892D01*
X0135078D01*
X0137077Y0798893D02*
X0139076D01*
X0138076D01*
Y0804891D01*
X0137077D01*
X0148073D02*
Y0798893D01*
X0152072D01*
X0155071Y0802891D02*
X0157070D01*
X0158070Y0801892D01*
Y0798893D01*
X0155071D01*
X0154071Y0799892D01*
X0155071Y0800892D01*
X0158070D01*
X0160069Y0802891D02*
Y0799892D01*
X0161069Y0798893D01*
X0164068D01*
Y0797893D01*
X0163068Y0796893D01*
X0162069D01*
X0164068Y0798893D02*
Y0802891D01*
X0169067Y0798893D02*
X0167067D01*
X0166068Y0799892D01*
Y0801892D01*
X0167067Y0802891D01*
X0169067D01*
X0170066Y0801892D01*
Y0800892D01*
X0166068D01*
X0172065Y0802891D02*
Y0798893D01*
Y0800892D01*
X0173065Y0801892D01*
X0174065Y0802891D01*
X0175065D01*
X0187061Y0798893D02*
Y0804891D01*
X0184062Y0801892D01*
X0188060D01*
X0108086Y0816891D02*
Y0810893D01*
X0111085D01*
X0112085Y0811892D01*
Y0815891D01*
X0111085Y0816891D01*
X0108086D01*
X0114084Y0810893D02*
X0116084D01*
X0115084D01*
Y0814891D01*
X0114084D01*
X0122082Y0810893D02*
X0120082D01*
X0119083Y0811892D01*
Y0813892D01*
X0120082Y0814891D01*
X0122082D01*
X0123081Y0813892D01*
Y0812892D01*
X0119083D01*
X0125081Y0810893D02*
X0127080D01*
X0126080D01*
Y0816891D01*
X0125081D01*
X0133078Y0810893D02*
X0131079D01*
X0130079Y0811892D01*
Y0813892D01*
X0131079Y0814891D01*
X0133078D01*
X0134078Y0813892D01*
Y0812892D01*
X0130079D01*
X0140076Y0814891D02*
X0137077D01*
X0136077Y0813892D01*
Y0811892D01*
X0137077Y0810893D01*
X0140076D01*
X0143075Y0815891D02*
Y0814891D01*
X0142075D01*
X0144075D01*
X0143075D01*
Y0811892D01*
X0144075Y0810893D01*
X0147074Y0814891D02*
Y0810893D01*
Y0812892D01*
X0148073Y0813892D01*
X0149073Y0814891D01*
X0150073D01*
X0153072Y0810893D02*
X0155071D01*
X0154071D01*
Y0814891D01*
X0153072D01*
X0162069D02*
X0159070D01*
X0158070Y0813892D01*
Y0811892D01*
X0159070Y0810893D01*
X0162069D01*
X0168067D02*
X0164068D01*
X0168067Y0814891D01*
Y0815891D01*
X0167067Y0816891D01*
X0165068D01*
X0164068Y0815891D01*
X0112085Y0827891D02*
X0111085Y0828891D01*
X0109086D01*
X0108086Y0827891D01*
Y0826891D01*
X0109086Y0825892D01*
X0111085D01*
X0112085Y0824892D01*
Y0823892D01*
X0111085Y0822893D01*
X0109086D01*
X0108086Y0823892D01*
X0114084Y0822893D02*
X0116084D01*
X0115084D01*
Y0826891D01*
X0114084D01*
X0121082Y0820893D02*
X0122082D01*
X0123081Y0821893D01*
Y0826891D01*
X0120082D01*
X0119083Y0825892D01*
Y0823892D01*
X0120082Y0822893D01*
X0123081D01*
X0125081D02*
Y0826891D01*
X0128080D01*
X0129079Y0825892D01*
Y0822893D01*
X0132078Y0826891D02*
X0134078D01*
X0135078Y0825892D01*
Y0822893D01*
X0132078D01*
X0131079Y0823892D01*
X0132078Y0824892D01*
X0135078D01*
X0137077Y0822893D02*
X0139076D01*
X0138076D01*
Y0828891D01*
X0137077D01*
X0148073D02*
Y0822893D01*
X0152072D01*
X0155071Y0826891D02*
X0157070D01*
X0158070Y0825892D01*
Y0822893D01*
X0155071D01*
X0154071Y0823892D01*
X0155071Y0824892D01*
X0158070D01*
X0160069Y0826891D02*
Y0823892D01*
X0161069Y0822893D01*
X0164068D01*
Y0821893D01*
X0163068Y0820893D01*
X0162069D01*
X0164068Y0822893D02*
Y0826891D01*
X0169067Y0822893D02*
X0167067D01*
X0166068Y0823892D01*
Y0825892D01*
X0167067Y0826891D01*
X0169067D01*
X0170066Y0825892D01*
Y0824892D01*
X0166068D01*
X0172065Y0826891D02*
Y0822893D01*
Y0824892D01*
X0173065Y0825892D01*
X0174065Y0826891D01*
X0175065D01*
X0188060Y0822893D02*
X0184062D01*
X0188060Y0826891D01*
Y0827891D01*
X0187061Y0828891D01*
X0185061D01*
X0184062Y0827891D01*
X0108086Y0840891D02*
Y0834893D01*
X0111085D01*
X0112085Y0835892D01*
Y0839891D01*
X0111085Y0840891D01*
X0108086D01*
X0114084Y0834893D02*
X0116084D01*
X0115084D01*
Y0838891D01*
X0114084D01*
X0122082Y0834893D02*
X0120082D01*
X0119083Y0835892D01*
Y0837892D01*
X0120082Y0838891D01*
X0122082D01*
X0123081Y0837892D01*
Y0836892D01*
X0119083D01*
X0125081Y0834893D02*
X0127080D01*
X0126080D01*
Y0840891D01*
X0125081D01*
X0133078Y0834893D02*
X0131079D01*
X0130079Y0835892D01*
Y0837892D01*
X0131079Y0838891D01*
X0133078D01*
X0134078Y0837892D01*
Y0836892D01*
X0130079D01*
X0140076Y0838891D02*
X0137077D01*
X0136077Y0837892D01*
Y0835892D01*
X0137077Y0834893D01*
X0140076D01*
X0143075Y0839891D02*
Y0838891D01*
X0142075D01*
X0144075D01*
X0143075D01*
Y0835892D01*
X0144075Y0834893D01*
X0147074Y0838891D02*
Y0834893D01*
Y0836892D01*
X0148073Y0837892D01*
X0149073Y0838891D01*
X0150073D01*
X0153072Y0834893D02*
X0155071D01*
X0154071D01*
Y0838891D01*
X0153072D01*
X0162069D02*
X0159070D01*
X0158070Y0837892D01*
Y0835892D01*
X0159070Y0834893D01*
X0162069D01*
X0174065D02*
X0170066D01*
X0174065Y0838891D01*
Y0839891D01*
X0173065Y0840891D01*
X0171066D01*
X0170066Y0839891D01*
X0112085Y0851891D02*
X0111085Y0852891D01*
X0109086D01*
X0108086Y0851891D01*
Y0850891D01*
X0109086Y0849892D01*
X0111085D01*
X0112085Y0848892D01*
Y0847892D01*
X0111085Y0846893D01*
X0109086D01*
X0108086Y0847892D01*
X0114084Y0846893D02*
X0116084D01*
X0115084D01*
Y0850891D01*
X0114084D01*
X0121082Y0844893D02*
X0122082D01*
X0123081Y0845893D01*
Y0850891D01*
X0120082D01*
X0119083Y0849892D01*
Y0847892D01*
X0120082Y0846893D01*
X0123081D01*
X0125081D02*
Y0850891D01*
X0128080D01*
X0129079Y0849892D01*
Y0846893D01*
X0132078Y0850891D02*
X0134078D01*
X0135078Y0849892D01*
Y0846893D01*
X0132078D01*
X0131079Y0847892D01*
X0132078Y0848892D01*
X0135078D01*
X0137077Y0846893D02*
X0139076D01*
X0138076D01*
Y0852891D01*
X0137077D01*
X0148073D02*
Y0846893D01*
X0152072D01*
X0155071Y0850891D02*
X0157070D01*
X0158070Y0849892D01*
Y0846893D01*
X0155071D01*
X0154071Y0847892D01*
X0155071Y0848892D01*
X0158070D01*
X0160069Y0850891D02*
Y0847892D01*
X0161069Y0846893D01*
X0164068D01*
Y0845893D01*
X0163068Y0844893D01*
X0162069D01*
X0164068Y0846893D02*
Y0850891D01*
X0169067Y0846893D02*
X0167067D01*
X0166068Y0847892D01*
Y0849892D01*
X0167067Y0850891D01*
X0169067D01*
X0170066Y0849892D01*
Y0848892D01*
X0166068D01*
X0172065Y0850891D02*
Y0846893D01*
Y0848892D01*
X0173065Y0849892D01*
X0174065Y0850891D01*
X0175065D01*
X0184062Y0851891D02*
X0185061Y0852891D01*
X0187061D01*
X0188060Y0851891D01*
Y0850891D01*
X0187061Y0849892D01*
X0186061D01*
X0187061D01*
X0188060Y0848892D01*
Y0847892D01*
X0187061Y0846893D01*
X0185061D01*
X0184062Y0847892D01*
X0108086Y0864891D02*
Y0858893D01*
X0111085D01*
X0112085Y0859892D01*
Y0863891D01*
X0111085Y0864891D01*
X0108086D01*
X0114084Y0858893D02*
X0116084D01*
X0115084D01*
Y0862891D01*
X0114084D01*
X0122082Y0858893D02*
X0120082D01*
X0119083Y0859892D01*
Y0861892D01*
X0120082Y0862891D01*
X0122082D01*
X0123081Y0861892D01*
Y0860892D01*
X0119083D01*
X0125081Y0858893D02*
X0127080D01*
X0126080D01*
Y0864891D01*
X0125081D01*
X0133078Y0858893D02*
X0131079D01*
X0130079Y0859892D01*
Y0861892D01*
X0131079Y0862891D01*
X0133078D01*
X0134078Y0861892D01*
Y0860892D01*
X0130079D01*
X0140076Y0862891D02*
X0137077D01*
X0136077Y0861892D01*
Y0859892D01*
X0137077Y0858893D01*
X0140076D01*
X0143075Y0863891D02*
Y0862891D01*
X0142075D01*
X0144075D01*
X0143075D01*
Y0859892D01*
X0144075Y0858893D01*
X0147074Y0862891D02*
Y0858893D01*
Y0860892D01*
X0148073Y0861892D01*
X0149073Y0862891D01*
X0150073D01*
X0153072Y0858893D02*
X0155071D01*
X0154071D01*
Y0862891D01*
X0153072D01*
X0162069D02*
X0159070D01*
X0158070Y0861892D01*
Y0859892D01*
X0159070Y0858893D01*
X0162069D01*
X0170066D02*
X0172065D01*
X0171066D01*
Y0864891D01*
X0170066Y0863891D01*
X0112085Y0875891D02*
X0111085Y0876891D01*
X0109086D01*
X0108086Y0875891D01*
Y0874891D01*
X0109086Y0873892D01*
X0111085D01*
X0112085Y0872892D01*
Y0871892D01*
X0111085Y0870893D01*
X0109086D01*
X0108086Y0871892D01*
X0114084Y0870893D02*
X0116084D01*
X0115084D01*
Y0874891D01*
X0114084D01*
X0121082Y0868893D02*
X0122082D01*
X0123081Y0869893D01*
Y0874891D01*
X0120082D01*
X0119083Y0873892D01*
Y0871892D01*
X0120082Y0870893D01*
X0123081D01*
X0125081D02*
Y0874891D01*
X0128080D01*
X0129079Y0873892D01*
Y0870893D01*
X0132078Y0874891D02*
X0134078D01*
X0135078Y0873892D01*
Y0870893D01*
X0132078D01*
X0131079Y0871892D01*
X0132078Y0872892D01*
X0135078D01*
X0137077Y0870893D02*
X0139076D01*
X0138076D01*
Y0876891D01*
X0137077D01*
X0148073D02*
Y0870893D01*
X0152072D01*
X0155071Y0874891D02*
X0157070D01*
X0158070Y0873892D01*
Y0870893D01*
X0155071D01*
X0154071Y0871892D01*
X0155071Y0872892D01*
X0158070D01*
X0160069Y0874891D02*
Y0871892D01*
X0161069Y0870893D01*
X0164068D01*
Y0869893D01*
X0163068Y0868893D01*
X0162069D01*
X0164068Y0870893D02*
Y0874891D01*
X0169067Y0870893D02*
X0167067D01*
X0166068Y0871892D01*
Y0873892D01*
X0167067Y0874891D01*
X0169067D01*
X0170066Y0873892D01*
Y0872892D01*
X0166068D01*
X0172065Y0874891D02*
Y0870893D01*
Y0872892D01*
X0173065Y0873892D01*
X0174065Y0874891D01*
X0175065D01*
X0184062Y0870893D02*
X0186061D01*
X0185061D01*
Y0876891D01*
X0184062Y0875891D01*
X0112085Y0888891D02*
X0108086D01*
Y0885892D01*
X0110086D01*
X0108086D01*
Y0882893D01*
X0114084D02*
X0116084D01*
X0115084D01*
Y0888891D01*
X0114084D01*
X0122082Y0882893D02*
X0120082D01*
X0119083Y0883892D01*
Y0885892D01*
X0120082Y0886891D01*
X0122082D01*
X0123081Y0885892D01*
Y0884892D01*
X0119083D01*
X0125081Y0886891D02*
X0129079Y0882893D01*
X0127080Y0884892D01*
X0129079Y0886891D01*
X0125081Y0882893D01*
X0137077Y0888891D02*
X0141076D01*
X0139076D01*
Y0882893D01*
X0144075D02*
X0146074D01*
X0147074Y0883892D01*
Y0885892D01*
X0146074Y0886891D01*
X0144075D01*
X0143075Y0885892D01*
Y0883892D01*
X0144075Y0882893D01*
X0149073Y0880893D02*
Y0886891D01*
X0152072D01*
X0153072Y0885892D01*
Y0883892D01*
X0152072Y0882893D01*
X0149073D01*
X0165068Y0887891D02*
X0164068Y0888891D01*
X0162069D01*
X0161069Y0887891D01*
Y0883892D01*
X0162069Y0882893D01*
X0164068D01*
X0165068Y0883892D01*
X0168067Y0882893D02*
X0170066D01*
X0171066Y0883892D01*
Y0885892D01*
X0170066Y0886891D01*
X0168067D01*
X0167067Y0885892D01*
Y0883892D01*
X0168067Y0882893D01*
X0173065Y0886891D02*
X0175065Y0882893D01*
X0177064Y0886891D01*
X0182062Y0882893D02*
X0180063D01*
X0179063Y0883892D01*
Y0885892D01*
X0180063Y0886891D01*
X0182062D01*
X0183062Y0885892D01*
Y0884892D01*
X0179063D01*
X0185061Y0886891D02*
Y0882893D01*
Y0884892D01*
X0186061Y0885892D01*
X0187061Y0886891D01*
X0188060D01*
X0191059Y0882893D02*
X0193059D01*
X0192059D01*
Y0888891D01*
X0191059D01*
X0197057Y0886891D02*
X0199057D01*
X0200057Y0885892D01*
Y0882893D01*
X0197057D01*
X0196058Y0883892D01*
X0197057Y0884892D01*
X0200057D01*
X0202056Y0886891D02*
Y0883892D01*
X0203056Y0882893D01*
X0206054D01*
Y0881893D01*
X0205055Y0880893D01*
X0204055D01*
X0206054Y0882893D02*
Y0886891D01*
X0112085Y0900891D02*
X0108086D01*
Y0897892D01*
X0110086D01*
X0108086D01*
Y0894893D01*
X0114084D02*
X0116084D01*
X0115084D01*
Y0900891D01*
X0114084D01*
X0122082Y0894893D02*
X0120082D01*
X0119083Y0895892D01*
Y0897892D01*
X0120082Y0898891D01*
X0122082D01*
X0123081Y0897892D01*
Y0896892D01*
X0119083D01*
X0125081Y0898891D02*
X0129079Y0894893D01*
X0127080Y0896892D01*
X0129079Y0898891D01*
X0125081Y0894893D01*
X0137077Y0900891D02*
X0141076D01*
X0139076D01*
Y0894893D01*
X0144075D02*
X0146074D01*
X0147074Y0895892D01*
Y0897892D01*
X0146074Y0898891D01*
X0144075D01*
X0143075Y0897892D01*
Y0895892D01*
X0144075Y0894893D01*
X0149073Y0892893D02*
Y0898891D01*
X0152072D01*
X0153072Y0897892D01*
Y0895892D01*
X0152072Y0894893D01*
X0149073D01*
X0164068Y0900891D02*
X0162069D01*
X0161069Y0899891D01*
Y0895892D01*
X0162069Y0894893D01*
X0164068D01*
X0165068Y0895892D01*
Y0899891D01*
X0164068Y0900891D01*
X0167067Y0898891D02*
X0169067Y0894893D01*
X0171066Y0898891D01*
X0176064Y0894893D02*
X0174065D01*
X0173065Y0895892D01*
Y0897892D01*
X0174065Y0898891D01*
X0176064D01*
X0177064Y0897892D01*
Y0896892D01*
X0173065D01*
X0179063Y0898891D02*
Y0894893D01*
Y0896892D01*
X0180063Y0897892D01*
X0181063Y0898891D01*
X0182062D01*
X0185061Y0894893D02*
X0187061D01*
X0186061D01*
Y0900891D01*
X0185061D01*
X0191059Y0898891D02*
X0193059D01*
X0194058Y0897892D01*
Y0894893D01*
X0191059D01*
X0190060Y0895892D01*
X0191059Y0896892D01*
X0194058D01*
X0196058Y0898891D02*
Y0895892D01*
X0197057Y0894893D01*
X0200057D01*
Y0893893D01*
X0199057Y0892893D01*
X0198057D01*
X0200057Y0894893D02*
Y0898891D01*
X0236049Y0906893D02*
Y0912891D01*
X0238049Y0910891D01*
X0240048Y0912891D01*
Y0906893D01*
X0243047Y0910891D02*
X0245046D01*
X0246046Y0909892D01*
Y0906893D01*
X0243047D01*
X0242047Y0907892D01*
X0243047Y0908892D01*
X0246046D01*
X0249045Y0911891D02*
Y0910891D01*
X0248045D01*
X0250045D01*
X0249045D01*
Y0907892D01*
X0250045Y0906893D01*
X0256043D02*
X0254044D01*
X0253044Y0907892D01*
Y0909892D01*
X0254044Y0910891D01*
X0256043D01*
X0257043Y0909892D01*
Y0908892D01*
X0253044D01*
X0259042Y0910891D02*
Y0906893D01*
Y0908892D01*
X0260042Y0909892D01*
X0261041Y0910891D01*
X0262041D01*
X0265040Y0906893D02*
X0267039D01*
X0266040D01*
Y0910891D01*
X0265040D01*
X0271038D02*
X0273037D01*
X0274037Y0909892D01*
Y0906893D01*
X0271038D01*
X0270038Y0907892D01*
X0271038Y0908892D01*
X0274037D01*
X0276036Y0906893D02*
X0278036D01*
X0277036D01*
Y0912891D01*
X0276036D01*
X0236049Y0786893D02*
Y0792891D01*
X0239048D01*
X0240048Y0791891D01*
Y0789892D01*
X0239048Y0788892D01*
X0236049D01*
X0243047Y0786893D02*
X0245046D01*
X0246046Y0787892D01*
Y0789892D01*
X0245046Y0790891D01*
X0243047D01*
X0242047Y0789892D01*
Y0787892D01*
X0243047Y0786893D01*
X0248045D02*
X0250045D01*
X0249045D01*
Y0792891D01*
X0248045D01*
X0253044Y0790891D02*
Y0787892D01*
X0254044Y0786893D01*
X0257043D01*
Y0785893D01*
X0256043Y0784893D01*
X0255043D01*
X0257043Y0786893D02*
Y0790891D01*
X0259042Y0786893D02*
X0261041D01*
X0260042D01*
Y0790891D01*
X0259042D01*
X0264040Y0786893D02*
Y0790891D01*
X0265040D01*
X0266040Y0789892D01*
Y0786893D01*
Y0789892D01*
X0267039Y0790891D01*
X0268039Y0789892D01*
Y0786893D01*
X0270038D02*
X0272038D01*
X0271038D01*
Y0790891D01*
X0270038D01*
X0279035Y0792891D02*
Y0786893D01*
X0276036D01*
X0275037Y0787892D01*
Y0789892D01*
X0276036Y0790891D01*
X0279035D01*
X0284034Y0786893D02*
X0282034D01*
X0281035Y0787892D01*
Y0789892D01*
X0282034Y0790891D01*
X0284034D01*
X0285033Y0789892D01*
Y0788892D01*
X0281035D01*
X0240048Y0803891D02*
X0239048Y0804891D01*
X0237049D01*
X0236049Y0803891D01*
Y0799892D01*
X0237049Y0798893D01*
X0239048D01*
X0240048Y0799892D01*
X0246046Y0804891D02*
X0242047D01*
Y0801892D01*
X0244047D01*
X0242047D01*
Y0798893D01*
X0248045Y0801892D02*
X0252044D01*
X0254044Y0803891D02*
X0255043Y0804891D01*
X0257043D01*
X0258042Y0803891D01*
Y0799892D01*
X0257043Y0798893D01*
X0255043D01*
X0254044Y0799892D01*
Y0803891D01*
X0260042D02*
X0261041Y0804891D01*
X0263041D01*
X0264040Y0803891D01*
Y0799892D01*
X0263041Y0798893D01*
X0261041D01*
X0260042Y0799892D01*
Y0803891D01*
X0269039Y0798893D02*
Y0804891D01*
X0266040Y0801892D01*
X0270038D01*
X0240048Y0815891D02*
X0239048Y0816891D01*
X0237049D01*
X0236049Y0815891D01*
Y0811892D01*
X0237049Y0810893D01*
X0239048D01*
X0240048Y0811892D01*
X0246046Y0816891D02*
X0242047D01*
Y0813892D01*
X0244047D01*
X0242047D01*
Y0810893D01*
X0248045Y0813892D02*
X0252044D01*
X0254044Y0815891D02*
X0255043Y0816891D01*
X0257043D01*
X0258042Y0815891D01*
Y0811892D01*
X0257043Y0810893D01*
X0255043D01*
X0254044Y0811892D01*
Y0815891D01*
X0260042D02*
X0261041Y0816891D01*
X0263041D01*
X0264040Y0815891D01*
Y0811892D01*
X0263041Y0810893D01*
X0261041D01*
X0260042Y0811892D01*
Y0815891D01*
X0269039Y0810893D02*
Y0816891D01*
X0266040Y0813892D01*
X0270038D01*
X0240048Y0827891D02*
X0239048Y0828891D01*
X0237049D01*
X0236049Y0827891D01*
Y0823892D01*
X0237049Y0822893D01*
X0239048D01*
X0240048Y0823892D01*
X0246046Y0828891D02*
X0242047D01*
Y0825892D01*
X0244047D01*
X0242047D01*
Y0822893D01*
X0248045Y0825892D02*
X0252044D01*
X0254044Y0827891D02*
X0255043Y0828891D01*
X0257043D01*
X0258042Y0827891D01*
Y0823892D01*
X0257043Y0822893D01*
X0255043D01*
X0254044Y0823892D01*
Y0827891D01*
X0260042D02*
X0261041Y0828891D01*
X0263041D01*
X0264040Y0827891D01*
Y0823892D01*
X0263041Y0822893D01*
X0261041D01*
X0260042Y0823892D01*
Y0827891D01*
X0269039Y0822893D02*
Y0828891D01*
X0266040Y0825892D01*
X0270038D01*
X0236049Y0840891D02*
Y0834893D01*
X0239048D01*
X0240048Y0835892D01*
Y0839891D01*
X0239048Y0840891D01*
X0236049D01*
X0242047Y0834893D02*
X0244047D01*
X0243047D01*
Y0838891D01*
X0242047D01*
X0250045Y0834893D02*
X0248045D01*
X0247046Y0835892D01*
Y0837892D01*
X0248045Y0838891D01*
X0250045D01*
X0251045Y0837892D01*
Y0836892D01*
X0247046D01*
X0253044Y0834893D02*
X0255043D01*
X0254044D01*
Y0840891D01*
X0253044D01*
X0261041Y0834893D02*
X0259042D01*
X0258042Y0835892D01*
Y0837892D01*
X0259042Y0838891D01*
X0261041D01*
X0262041Y0837892D01*
Y0836892D01*
X0258042D01*
X0268039Y0838891D02*
X0265040D01*
X0264040Y0837892D01*
Y0835892D01*
X0265040Y0834893D01*
X0268039D01*
X0271038Y0839891D02*
Y0838891D01*
X0270038D01*
X0272038D01*
X0271038D01*
Y0835892D01*
X0272038Y0834893D01*
X0275037Y0838891D02*
Y0834893D01*
Y0836892D01*
X0276036Y0837892D01*
X0277036Y0838891D01*
X0278036D01*
X0281035Y0834893D02*
X0283034D01*
X0282034D01*
Y0838891D01*
X0281035D01*
X0290032D02*
X0287033D01*
X0286033Y0837892D01*
Y0835892D01*
X0287033Y0834893D01*
X0290032D01*
X0240048Y0851891D02*
X0239048Y0852891D01*
X0237049D01*
X0236049Y0851891D01*
Y0847892D01*
X0237049Y0846893D01*
X0239048D01*
X0240048Y0847892D01*
X0246046Y0852891D02*
X0242047D01*
Y0849892D01*
X0244047D01*
X0242047D01*
Y0846893D01*
X0248045Y0849892D02*
X0252044D01*
X0254044Y0851891D02*
X0255043Y0852891D01*
X0257043D01*
X0258042Y0851891D01*
Y0847892D01*
X0257043Y0846893D01*
X0255043D01*
X0254044Y0847892D01*
Y0851891D01*
X0260042D02*
X0261041Y0852891D01*
X0263041D01*
X0264040Y0851891D01*
Y0847892D01*
X0263041Y0846893D01*
X0261041D01*
X0260042Y0847892D01*
Y0851891D01*
X0269039Y0846893D02*
Y0852891D01*
X0266040Y0849892D01*
X0270038D01*
X0236049Y0864891D02*
Y0858893D01*
X0239048D01*
X0240048Y0859892D01*
Y0863891D01*
X0239048Y0864891D01*
X0236049D01*
X0242047Y0858893D02*
X0244047D01*
X0243047D01*
Y0862891D01*
X0242047D01*
X0250045Y0858893D02*
X0248045D01*
X0247046Y0859892D01*
Y0861892D01*
X0248045Y0862891D01*
X0250045D01*
X0251045Y0861892D01*
Y0860892D01*
X0247046D01*
X0253044Y0858893D02*
X0255043D01*
X0254044D01*
Y0864891D01*
X0253044D01*
X0261041Y0858893D02*
X0259042D01*
X0258042Y0859892D01*
Y0861892D01*
X0259042Y0862891D01*
X0261041D01*
X0262041Y0861892D01*
Y0860892D01*
X0258042D01*
X0268039Y0862891D02*
X0265040D01*
X0264040Y0861892D01*
Y0859892D01*
X0265040Y0858893D01*
X0268039D01*
X0271038Y0863891D02*
Y0862891D01*
X0270038D01*
X0272038D01*
X0271038D01*
Y0859892D01*
X0272038Y0858893D01*
X0275037Y0862891D02*
Y0858893D01*
Y0860892D01*
X0276036Y0861892D01*
X0277036Y0862891D01*
X0278036D01*
X0281035Y0858893D02*
X0283034D01*
X0282034D01*
Y0862891D01*
X0281035D01*
X0290032D02*
X0287033D01*
X0286033Y0861892D01*
Y0859892D01*
X0287033Y0858893D01*
X0290032D01*
X0240048Y0875891D02*
X0239048Y0876891D01*
X0237049D01*
X0236049Y0875891D01*
Y0871892D01*
X0237049Y0870893D01*
X0239048D01*
X0240048Y0871892D01*
X0246046Y0876891D02*
X0242047D01*
Y0873892D01*
X0244047D01*
X0242047D01*
Y0870893D01*
X0248045Y0873892D02*
X0252044D01*
X0254044Y0875891D02*
X0255043Y0876891D01*
X0257043D01*
X0258042Y0875891D01*
Y0871892D01*
X0257043Y0870893D01*
X0255043D01*
X0254044Y0871892D01*
Y0875891D01*
X0260042D02*
X0261041Y0876891D01*
X0263041D01*
X0264040Y0875891D01*
Y0871892D01*
X0263041Y0870893D01*
X0261041D01*
X0260042Y0871892D01*
Y0875891D01*
X0269039Y0870893D02*
Y0876891D01*
X0266040Y0873892D01*
X0270038D01*
X0236049Y0882893D02*
Y0888891D01*
X0239048D01*
X0240048Y0887891D01*
Y0885892D01*
X0239048Y0884892D01*
X0236049D01*
X0243047Y0882893D02*
X0245046D01*
X0246046Y0883892D01*
Y0885892D01*
X0245046Y0886891D01*
X0243047D01*
X0242047Y0885892D01*
Y0883892D01*
X0243047Y0882893D01*
X0248045D02*
X0250045D01*
X0249045D01*
Y0888891D01*
X0248045D01*
X0253044Y0886891D02*
Y0883892D01*
X0254044Y0882893D01*
X0257043D01*
Y0881893D01*
X0256043Y0880893D01*
X0255043D01*
X0257043Y0882893D02*
Y0886891D01*
X0259042Y0882893D02*
X0261041D01*
X0260042D01*
Y0886891D01*
X0259042D01*
X0264040Y0882893D02*
Y0886891D01*
X0265040D01*
X0266040Y0885892D01*
Y0882893D01*
Y0885892D01*
X0267039Y0886891D01*
X0268039Y0885892D01*
Y0882893D01*
X0270038D02*
X0272038D01*
X0271038D01*
Y0886891D01*
X0270038D01*
X0279035Y0888891D02*
Y0882893D01*
X0276036D01*
X0275037Y0883892D01*
Y0885892D01*
X0276036Y0886891D01*
X0279035D01*
X0284034Y0882893D02*
X0282034D01*
X0281035Y0883892D01*
Y0885892D01*
X0282034Y0886891D01*
X0284034D01*
X0285033Y0885892D01*
Y0884892D01*
X0281035D01*
X0304032Y0912891D02*
X0308031D01*
X0306031D01*
Y0906893D01*
X0310030Y0912891D02*
Y0906893D01*
Y0909892D01*
X0311030Y0910891D01*
X0313029D01*
X0314029Y0909892D01*
Y0906893D01*
X0316028D02*
X0318027D01*
X0317028D01*
Y0910891D01*
X0316028D01*
X0325025D02*
X0322026D01*
X0321026Y0909892D01*
Y0907892D01*
X0322026Y0906893D01*
X0325025D01*
X0327024D02*
Y0912891D01*
Y0908892D02*
X0330024Y0910891D01*
X0327024Y0908892D02*
X0330024Y0906893D01*
X0333022D02*
Y0910891D01*
X0336021D01*
X0337021Y0909892D01*
Y0906893D01*
X0342020D02*
X0340020D01*
X0339021Y0907892D01*
Y0909892D01*
X0340020Y0910891D01*
X0342020D01*
X0343019Y0909892D01*
Y0908892D01*
X0339021D01*
X0345019Y0906893D02*
X0348018D01*
X0349017Y0907892D01*
X0348018Y0908892D01*
X0346018D01*
X0345019Y0909892D01*
X0346018Y0910891D01*
X0349017D01*
X0351017Y0906893D02*
X0354016D01*
X0355015Y0907892D01*
X0354016Y0908892D01*
X0352016D01*
X0351017Y0909892D01*
X0352016Y0910891D01*
X0355015D01*
X0304032Y0786893D02*
X0306031D01*
X0305032D01*
Y0792891D01*
X0304032Y0791891D01*
X0309030Y0786893D02*
Y0787892D01*
X0310030D01*
Y0786893D01*
X0309030D01*
X0318027Y0792891D02*
X0314029D01*
Y0789892D01*
X0316028Y0790891D01*
X0317028D01*
X0318027Y0789892D01*
Y0787892D01*
X0317028Y0786893D01*
X0315028D01*
X0314029Y0787892D01*
X0320027Y0791891D02*
X0321026Y0792891D01*
X0323026D01*
X0324025Y0791891D01*
Y0787892D01*
X0323026Y0786893D01*
X0321026D01*
X0320027Y0787892D01*
Y0791891D01*
X0326025Y0786893D02*
Y0790891D01*
X0327024D01*
X0328024Y0789892D01*
Y0786893D01*
Y0789892D01*
X0329024Y0790891D01*
X0330024Y0789892D01*
Y0786893D01*
X0332023D02*
X0334022D01*
X0333022D01*
Y0790891D01*
X0332023D01*
X0337021Y0786893D02*
X0339020D01*
X0338021D01*
Y0792891D01*
X0337021D01*
X0304032Y0803891D02*
X0305032Y0804891D01*
X0307031D01*
X0308031Y0803891D01*
Y0799892D01*
X0307031Y0798893D01*
X0305032D01*
X0304032Y0799892D01*
Y0803891D01*
X0310030Y0798893D02*
Y0799892D01*
X0311030D01*
Y0798893D01*
X0310030D01*
X0315028Y0804891D02*
X0319027D01*
Y0803891D01*
X0315028Y0799892D01*
Y0798893D01*
X0321026Y0803891D02*
X0322026Y0804891D01*
X0324025D01*
X0325025Y0803891D01*
Y0799892D01*
X0324025Y0798893D01*
X0322026D01*
X0321026Y0799892D01*
Y0803891D01*
X0327024Y0798893D02*
Y0802891D01*
X0328024D01*
X0329024Y0801892D01*
Y0798893D01*
Y0801892D01*
X0330024Y0802891D01*
X0331023Y0801892D01*
Y0798893D01*
X0333022D02*
X0335022D01*
X0334022D01*
Y0802891D01*
X0333022D01*
X0338021Y0798893D02*
X0340020D01*
X0339021D01*
Y0804891D01*
X0338021D01*
X0304032Y0815891D02*
X0305032Y0816891D01*
X0307031D01*
X0308031Y0815891D01*
Y0811892D01*
X0307031Y0810893D01*
X0305032D01*
X0304032Y0811892D01*
Y0815891D01*
X0310030Y0810893D02*
Y0811892D01*
X0311030D01*
Y0810893D01*
X0310030D01*
X0319027Y0816891D02*
X0315028D01*
Y0813892D01*
X0317028Y0814891D01*
X0318027D01*
X0319027Y0813892D01*
Y0811892D01*
X0318027Y0810893D01*
X0316028D01*
X0315028Y0811892D01*
X0321026Y0815891D02*
X0322026Y0816891D01*
X0324025D01*
X0325025Y0815891D01*
Y0811892D01*
X0324025Y0810893D01*
X0322026D01*
X0321026Y0811892D01*
Y0815891D01*
X0327024Y0810893D02*
Y0814891D01*
X0328024D01*
X0329024Y0813892D01*
Y0810893D01*
Y0813892D01*
X0330024Y0814891D01*
X0331023Y0813892D01*
Y0810893D01*
X0333022D02*
X0335022D01*
X0334022D01*
Y0814891D01*
X0333022D01*
X0338021Y0810893D02*
X0340020D01*
X0339021D01*
Y0816891D01*
X0338021D01*
X0304032Y0827891D02*
X0305032Y0828891D01*
X0307031D01*
X0308031Y0827891D01*
Y0823892D01*
X0307031Y0822893D01*
X0305032D01*
X0304032Y0823892D01*
Y0827891D01*
X0310030Y0822893D02*
Y0823892D01*
X0311030D01*
Y0822893D01*
X0310030D01*
X0315028Y0828891D02*
X0319027D01*
Y0827891D01*
X0315028Y0823892D01*
Y0822893D01*
X0321026Y0827891D02*
X0322026Y0828891D01*
X0324025D01*
X0325025Y0827891D01*
Y0823892D01*
X0324025Y0822893D01*
X0322026D01*
X0321026Y0823892D01*
Y0827891D01*
X0327024Y0822893D02*
Y0826891D01*
X0328024D01*
X0329024Y0825892D01*
Y0822893D01*
Y0825892D01*
X0330024Y0826891D01*
X0331023Y0825892D01*
Y0822893D01*
X0333022D02*
X0335022D01*
X0334022D01*
Y0826891D01*
X0333022D01*
X0338021Y0822893D02*
X0340020D01*
X0339021D01*
Y0828891D01*
X0338021D01*
X0304032Y0839891D02*
X0305032Y0840891D01*
X0307031D01*
X0308031Y0839891D01*
Y0835892D01*
X0307031Y0834893D01*
X0305032D01*
X0304032Y0835892D01*
Y0839891D01*
X0310030Y0834893D02*
Y0835892D01*
X0311030D01*
Y0834893D01*
X0310030D01*
X0319027Y0840891D02*
X0315028D01*
Y0837892D01*
X0317028Y0838891D01*
X0318027D01*
X0319027Y0837892D01*
Y0835892D01*
X0318027Y0834893D01*
X0316028D01*
X0315028Y0835892D01*
X0321026Y0839891D02*
X0322026Y0840891D01*
X0324025D01*
X0325025Y0839891D01*
Y0835892D01*
X0324025Y0834893D01*
X0322026D01*
X0321026Y0835892D01*
Y0839891D01*
X0327024Y0834893D02*
Y0838891D01*
X0328024D01*
X0329024Y0837892D01*
Y0834893D01*
Y0837892D01*
X0330024Y0838891D01*
X0331023Y0837892D01*
Y0834893D01*
X0333022D02*
X0335022D01*
X0334022D01*
Y0838891D01*
X0333022D01*
X0338021Y0834893D02*
X0340020D01*
X0339021D01*
Y0840891D01*
X0338021D01*
X0304032Y0851891D02*
X0305032Y0852891D01*
X0307031D01*
X0308031Y0851891D01*
Y0847892D01*
X0307031Y0846893D01*
X0305032D01*
X0304032Y0847892D01*
Y0851891D01*
X0310030Y0846893D02*
Y0847892D01*
X0311030D01*
Y0846893D01*
X0310030D01*
X0315028Y0852891D02*
X0319027D01*
Y0851891D01*
X0315028Y0847892D01*
Y0846893D01*
X0321026Y0851891D02*
X0322026Y0852891D01*
X0324025D01*
X0325025Y0851891D01*
Y0847892D01*
X0324025Y0846893D01*
X0322026D01*
X0321026Y0847892D01*
Y0851891D01*
X0327024Y0846893D02*
Y0850891D01*
X0328024D01*
X0329024Y0849892D01*
Y0846893D01*
Y0849892D01*
X0330024Y0850891D01*
X0331023Y0849892D01*
Y0846893D01*
X0333022D02*
X0335022D01*
X0334022D01*
Y0850891D01*
X0333022D01*
X0338021Y0846893D02*
X0340020D01*
X0339021D01*
Y0852891D01*
X0338021D01*
X0304032Y0863891D02*
X0305032Y0864891D01*
X0307031D01*
X0308031Y0863891D01*
Y0859892D01*
X0307031Y0858893D01*
X0305032D01*
X0304032Y0859892D01*
Y0863891D01*
X0310030Y0858893D02*
Y0859892D01*
X0311030D01*
Y0858893D01*
X0310030D01*
X0319027Y0864891D02*
X0315028D01*
Y0861892D01*
X0317028Y0862891D01*
X0318027D01*
X0319027Y0861892D01*
Y0859892D01*
X0318027Y0858893D01*
X0316028D01*
X0315028Y0859892D01*
X0321026Y0863891D02*
X0322026Y0864891D01*
X0324025D01*
X0325025Y0863891D01*
Y0859892D01*
X0324025Y0858893D01*
X0322026D01*
X0321026Y0859892D01*
Y0863891D01*
X0327024Y0858893D02*
Y0862891D01*
X0328024D01*
X0329024Y0861892D01*
Y0858893D01*
Y0861892D01*
X0330024Y0862891D01*
X0331023Y0861892D01*
Y0858893D01*
X0333022D02*
X0335022D01*
X0334022D01*
Y0862891D01*
X0333022D01*
X0338021Y0858893D02*
X0340020D01*
X0339021D01*
Y0864891D01*
X0338021D01*
X0304032Y0875891D02*
X0305032Y0876891D01*
X0307031D01*
X0308031Y0875891D01*
Y0871892D01*
X0307031Y0870893D01*
X0305032D01*
X0304032Y0871892D01*
Y0875891D01*
X0310030Y0870893D02*
Y0871892D01*
X0311030D01*
Y0870893D01*
X0310030D01*
X0315028Y0876891D02*
X0319027D01*
Y0875891D01*
X0315028Y0871892D01*
Y0870893D01*
X0321026Y0875891D02*
X0322026Y0876891D01*
X0324025D01*
X0325025Y0875891D01*
Y0871892D01*
X0324025Y0870893D01*
X0322026D01*
X0321026Y0871892D01*
Y0875891D01*
X0327024Y0870893D02*
Y0874891D01*
X0328024D01*
X0329024Y0873892D01*
Y0870893D01*
Y0873892D01*
X0330024Y0874891D01*
X0331023Y0873892D01*
Y0870893D01*
X0333022D02*
X0335022D01*
X0334022D01*
Y0874891D01*
X0333022D01*
X0338021Y0870893D02*
X0340020D01*
X0339021D01*
Y0876891D01*
X0338021D01*
X0304032Y0882893D02*
X0306031D01*
X0305032D01*
Y0888891D01*
X0304032Y0887891D01*
X0309030Y0882893D02*
Y0883892D01*
X0310030D01*
Y0882893D01*
X0309030D01*
X0318027Y0888891D02*
X0314029D01*
Y0885892D01*
X0316028Y0886891D01*
X0317028D01*
X0318027Y0885892D01*
Y0883892D01*
X0317028Y0882893D01*
X0315028D01*
X0314029Y0883892D01*
X0320027Y0887891D02*
X0321026Y0888891D01*
X0323026D01*
X0324025Y0887891D01*
Y0883892D01*
X0323026Y0882893D01*
X0321026D01*
X0320027Y0883892D01*
Y0887891D01*
X0326025Y0882893D02*
Y0886891D01*
X0327024D01*
X0328024Y0885892D01*
Y0882893D01*
Y0885892D01*
X0329024Y0886891D01*
X0330024Y0885892D01*
Y0882893D01*
X0332023D02*
X0334022D01*
X0333022D01*
Y0886891D01*
X0332023D01*
X0337021Y0882893D02*
X0339020D01*
X0338021D01*
Y0888891D01*
X0337021D01*
X0373014Y0911891D02*
X0372014Y0912891D01*
X0370015D01*
X0369015Y0911891D01*
Y0907892D01*
X0370015Y0906893D01*
X0372014D01*
X0373014Y0907892D01*
X0376013Y0906893D02*
X0378012D01*
X0379012Y0907892D01*
Y0909892D01*
X0378012Y0910891D01*
X0376013D01*
X0375013Y0909892D01*
Y0907892D01*
X0376013Y0906893D01*
X0381012D02*
Y0910891D01*
X0384011D01*
X0385010Y0909892D01*
Y0906893D01*
X0387010D02*
X0390009D01*
X0391008Y0907892D01*
X0390009Y0908892D01*
X0388009D01*
X0387010Y0909892D01*
X0388009Y0910891D01*
X0391008D01*
X0394007Y0911891D02*
Y0910891D01*
X0393008D01*
X0395007D01*
X0394007D01*
Y0907892D01*
X0395007Y0906893D01*
X0399006Y0910891D02*
X0401005D01*
X0402005Y0909892D01*
Y0906893D01*
X0399006D01*
X0398006Y0907892D01*
X0399006Y0908892D01*
X0402005D01*
X0404004Y0906893D02*
Y0910891D01*
X0407003D01*
X0408003Y0909892D01*
Y0906893D01*
X0411002Y0911891D02*
Y0910891D01*
X0410002D01*
X0412002D01*
X0411002D01*
Y0907892D01*
X0412002Y0906893D01*
X0372014Y0786893D02*
Y0792891D01*
X0369015Y0789892D01*
X0373014D01*
X0372014Y0810893D02*
Y0816891D01*
X0369015Y0813892D01*
X0373014D01*
X0375013Y0810893D02*
Y0811892D01*
X0376013D01*
Y0810893D01*
X0375013D01*
X0380012Y0815891D02*
X0381012Y0816891D01*
X0383011D01*
X0384011Y0815891D01*
Y0814891D01*
X0383011Y0813892D01*
X0384011Y0812892D01*
Y0811892D01*
X0383011Y0810893D01*
X0381012D01*
X0380012Y0811892D01*
Y0812892D01*
X0381012Y0813892D01*
X0380012Y0814891D01*
Y0815891D01*
X0381012Y0813892D02*
X0383011D01*
X0372014Y0834893D02*
Y0840891D01*
X0369015Y0837892D01*
X0373014D01*
X0375013Y0834893D02*
Y0835892D01*
X0376013D01*
Y0834893D01*
X0375013D01*
X0384011D02*
X0380012D01*
X0384011Y0838891D01*
Y0839891D01*
X0383011Y0840891D01*
X0381012D01*
X0380012Y0839891D01*
X0372014Y0858893D02*
Y0864891D01*
X0369015Y0861892D01*
X0373014D01*
X0375013Y0858893D02*
Y0859892D01*
X0376013D01*
Y0858893D01*
X0375013D01*
X0384011D02*
X0380012D01*
X0384011Y0862891D01*
Y0863891D01*
X0383011Y0864891D01*
X0381012D01*
X0380012Y0863891D01*
X0372014Y0882893D02*
Y0888891D01*
X0369015Y0885892D01*
X0373014D01*
X0426002Y0912891D02*
Y0906893D01*
X0429001D01*
X0430000Y0907892D01*
Y0908892D01*
X0429001Y0909892D01*
X0426002D01*
X0429001D01*
X0430000Y0910891D01*
Y0911891D01*
X0429001Y0912891D01*
X0426002D01*
X0432999Y0906893D02*
X0434999D01*
X0435998Y0907892D01*
Y0909892D01*
X0434999Y0910891D01*
X0432999D01*
X0431999Y0909892D01*
Y0907892D01*
X0432999Y0906893D01*
X0438997Y0910891D02*
X0440997D01*
X0441996Y0909892D01*
Y0906893D01*
X0438997D01*
X0437998Y0907892D01*
X0438997Y0908892D01*
X0441996D01*
X0443996Y0910891D02*
Y0906893D01*
Y0908892D01*
X0444995Y0909892D01*
X0445995Y0910891D01*
X0446995D01*
X0453992Y0912891D02*
Y0906893D01*
X0450993D01*
X0449994Y0907892D01*
Y0909892D01*
X0450993Y0910891D01*
X0453992D01*
X0465988Y0911891D02*
X0464989Y0912891D01*
X0462990D01*
X0461990Y0911891D01*
Y0910891D01*
X0462990Y0909892D01*
X0464989D01*
X0465988Y0908892D01*
Y0907892D01*
X0464989Y0906893D01*
X0462990D01*
X0461990Y0907892D01*
X0468988Y0911891D02*
Y0910891D01*
X0467988D01*
X0469987D01*
X0468988D01*
Y0907892D01*
X0469987Y0906893D01*
X0473986Y0910891D02*
X0475985D01*
X0476985Y0909892D01*
Y0906893D01*
X0473986D01*
X0472986Y0907892D01*
X0473986Y0908892D01*
X0476985D01*
X0482983Y0910891D02*
X0479984D01*
X0478984Y0909892D01*
Y0907892D01*
X0479984Y0906893D01*
X0482983D01*
X0484982D02*
Y0912891D01*
Y0908892D02*
X0487981Y0910891D01*
X0484982Y0908892D02*
X0487981Y0906893D01*
X0505980Y0912891D02*
X0501981D01*
Y0909892D01*
X0503981D01*
X0501981D01*
Y0906893D01*
X0507979D02*
X0509979D01*
X0508979D01*
Y0912891D01*
X0507979D01*
X0515977Y0906893D02*
X0513977D01*
X0512978Y0907892D01*
Y0909892D01*
X0513977Y0910891D01*
X0515977D01*
X0516977Y0909892D01*
Y0908892D01*
X0512978D01*
X0518976Y0910891D02*
X0522975Y0906893D01*
X0520975Y0908892D01*
X0522975Y0910891D01*
X0518976Y0906893D01*
X0497200Y0080717D02*
Y0101050D01*
X0413200Y0080717D02*
Y0101050D01*
X0040000Y0080717D02*
X0700200D01*
X0040000Y0060383D02*
X0700000D01*
X0040000Y0040050D02*
X0440500D01*
X0040050Y0101050D02*
X0700200D01*
X0040050Y0040050D02*
Y0101050D01*
Y0040050D02*
X0197600D01*
X0040000D02*
Y0101050D01*
X0286500Y0040050D02*
Y0101050D01*
X0700200Y0040050D02*
Y0101050D01*
X0440500Y0040050D02*
X0700200D01*
X0559400Y0039400D02*
Y0059683D01*
G54D14*
X0567400Y0087833D02*
Y0093831D01*
X0571399Y0087833D01*
Y0093831D01*
X0574398Y0087833D02*
X0576397D01*
X0577397Y0088833D01*
Y0090832D01*
X0576397Y0091832D01*
X0574398D01*
X0573398Y0090832D01*
Y0088833D01*
X0574398Y0087833D01*
X0580396Y0092832D02*
Y0091832D01*
X0579396D01*
X0581395D01*
X0580396D01*
Y0088833D01*
X0581395Y0087833D01*
X0590393D02*
X0592392D01*
X0591392D01*
Y0091832D01*
X0590393D01*
X0595391Y0087833D02*
Y0091832D01*
X0598390D01*
X0599390Y0090832D01*
Y0087833D01*
X0607387Y0091832D02*
X0609386Y0087833D01*
X0611386Y0091832D01*
X0616384Y0087833D02*
X0614385D01*
X0613385Y0088833D01*
Y0090832D01*
X0614385Y0091832D01*
X0616384D01*
X0617384Y0090832D01*
Y0089833D01*
X0613385D01*
X0619383Y0091832D02*
Y0087833D01*
Y0089833D01*
X0620383Y0090832D01*
X0621383Y0091832D01*
X0622382D01*
X0625381Y0087833D02*
X0628380D01*
X0629380Y0088833D01*
X0628380Y0089833D01*
X0626381D01*
X0625381Y0090832D01*
X0626381Y0091832D01*
X0629380D01*
X0631379Y0087833D02*
X0633379D01*
X0632379D01*
Y0091832D01*
X0631379D01*
X0637377Y0087833D02*
X0639377D01*
X0640376Y0088833D01*
Y0090832D01*
X0639377Y0091832D01*
X0637377D01*
X0636378Y0090832D01*
Y0088833D01*
X0637377Y0087833D01*
X0642376D02*
Y0091832D01*
X0645375D01*
X0646374Y0090832D01*
Y0087833D01*
X0658371Y0091832D02*
X0655372D01*
X0654372Y0090832D01*
Y0088833D01*
X0655372Y0087833D01*
X0658371D01*
X0661370D02*
X0663369D01*
X0664369Y0088833D01*
Y0090832D01*
X0663369Y0091832D01*
X0661370D01*
X0660370Y0090832D01*
Y0088833D01*
X0661370Y0087833D01*
X0666368D02*
Y0091832D01*
X0669367D01*
X0670367Y0090832D01*
Y0087833D01*
X0673366Y0092832D02*
Y0091832D01*
X0672366D01*
X0674365D01*
X0673366D01*
Y0088833D01*
X0674365Y0087833D01*
X0677364Y0091832D02*
Y0087833D01*
Y0089833D01*
X0678364Y0090832D01*
X0679364Y0091832D01*
X0680364D01*
X0684362Y0087833D02*
X0686362D01*
X0687361Y0088833D01*
Y0090832D01*
X0686362Y0091832D01*
X0684362D01*
X0683362Y0090832D01*
Y0088833D01*
X0684362Y0087833D01*
X0689361D02*
X0691360D01*
X0690360D01*
Y0093831D01*
X0689361D01*
X0520799Y0092832D02*
X0519799Y0093831D01*
X0517800D01*
X0516800Y0092832D01*
Y0091832D01*
X0517800Y0090832D01*
X0519799D01*
X0520799Y0089833D01*
Y0088833D01*
X0519799Y0087833D01*
X0517800D01*
X0516800Y0088833D01*
X0522798Y0093831D02*
Y0089833D01*
X0524797Y0087833D01*
X0526797Y0089833D01*
Y0093831D01*
X0528796Y0087833D02*
Y0093831D01*
X0532795Y0087833D01*
Y0093831D01*
X0540792Y0087833D02*
Y0093831D01*
X0543791D01*
X0544791Y0092832D01*
Y0090832D01*
X0543791Y0089833D01*
X0540792D01*
X0542792D02*
X0544791Y0087833D01*
X0550789Y0093831D02*
X0546790D01*
Y0087833D01*
X0550789D01*
X0546790Y0090832D02*
X0548790D01*
X0552788Y0093831D02*
Y0089833D01*
X0554788Y0087833D01*
X0556787Y0089833D01*
Y0093831D01*
X0558786Y0091832D02*
X0559786D01*
Y0090832D01*
X0558786D01*
Y0091832D01*
Y0088833D02*
X0559786D01*
Y0087833D01*
X0558786D01*
Y0088833D01*
X0433000Y0087833D02*
Y0093831D01*
X0435999D01*
X0436999Y0092832D01*
Y0090832D01*
X0435999Y0089833D01*
X0433000D01*
X0434999D02*
X0436999Y0087833D01*
X0442997Y0093831D02*
X0438998D01*
Y0087833D01*
X0442997D01*
X0438998Y0090832D02*
X0440997D01*
X0444996Y0093831D02*
Y0089833D01*
X0446995Y0087833D01*
X0448995Y0089833D01*
Y0093831D01*
X0450994Y0091832D02*
X0451994D01*
Y0090832D01*
X0450994D01*
Y0091832D01*
Y0088833D02*
X0451994D01*
Y0087833D01*
X0450994D01*
Y0088833D01*
X0126900Y0052965D02*
X0130899D01*
Y0051965D01*
X0126900Y0047966D01*
Y0046966D01*
X0132898D02*
X0134897D01*
X0133898D01*
Y0052965D01*
X0132898Y0051965D01*
X0137896D02*
X0138896Y0052965D01*
X0140895D01*
X0141895Y0051965D01*
Y0047966D01*
X0140895Y0046966D01*
X0138896D01*
X0137896Y0047966D01*
Y0051965D01*
X0143895D02*
X0144894Y0052965D01*
X0146894D01*
X0147893Y0051965D01*
Y0047966D01*
X0146894Y0046966D01*
X0144894D01*
X0143895Y0047966D01*
Y0051965D01*
X0149893Y0049966D02*
X0153891D01*
X0155891Y0051965D02*
X0156890Y0052965D01*
X0158890D01*
X0159889Y0051965D01*
Y0047966D01*
X0158890Y0046966D01*
X0156890D01*
X0155891Y0047966D01*
Y0051965D01*
X0161889D02*
X0162888Y0052965D01*
X0164888D01*
X0165887Y0051965D01*
Y0047966D01*
X0164888Y0046966D01*
X0162888D01*
X0161889Y0047966D01*
Y0051965D01*
X0167887D02*
X0168886Y0052965D01*
X0170886D01*
X0171885Y0051965D01*
Y0047966D01*
X0170886Y0046966D01*
X0168886D01*
X0167887Y0047966D01*
Y0051965D01*
X0173885D02*
X0174884Y0052965D01*
X0176884D01*
X0177884Y0051965D01*
Y0047966D01*
X0176884Y0046966D01*
X0174884D01*
X0173885Y0047966D01*
Y0051965D01*
X0179883Y0046966D02*
X0181882D01*
X0180883D01*
Y0052965D01*
X0179883Y0051965D01*
X0194878Y0052965D02*
X0192879Y0051965D01*
X0190879Y0049966D01*
Y0047966D01*
X0191879Y0046966D01*
X0193878D01*
X0194878Y0047966D01*
Y0048966D01*
X0193878Y0049966D01*
X0190879D01*
X0199876Y0046966D02*
Y0052965D01*
X0196877Y0049966D01*
X0200876D01*
X0208874Y0046966D02*
Y0050965D01*
X0210873Y0052965D01*
X0212872Y0050965D01*
Y0046966D01*
Y0049966D01*
X0208874D01*
X0214872Y0050965D02*
Y0046966D01*
Y0048966D01*
X0215871Y0049966D01*
X0216871Y0050965D01*
X0217871D01*
X0220870D02*
Y0046966D01*
Y0048966D01*
X0221869Y0049966D01*
X0222869Y0050965D01*
X0223869D01*
X0227867D02*
X0229867D01*
X0230866Y0049966D01*
Y0046966D01*
X0227867D01*
X0226868Y0047966D01*
X0227867Y0048966D01*
X0230866D01*
X0232866Y0050965D02*
Y0047966D01*
X0233865Y0046966D01*
X0236864D01*
Y0045967D01*
X0235865Y0044967D01*
X0234865D01*
X0236864Y0046966D02*
Y0050965D01*
X0238864Y0046966D02*
X0241863D01*
X0242863Y0047966D01*
X0241863Y0048966D01*
X0239863D01*
X0238864Y0049966D01*
X0239863Y0050965D01*
X0242863D01*
X0254859Y0052965D02*
X0250860D01*
Y0049966D01*
X0252859D01*
X0250860D01*
Y0046966D01*
X0256858D02*
X0258857D01*
X0257858D01*
Y0052965D01*
X0256858D01*
X0264855Y0046966D02*
X0262856D01*
X0261856Y0047966D01*
Y0049966D01*
X0262856Y0050965D01*
X0264855D01*
X0265855Y0049966D01*
Y0048966D01*
X0261856D01*
X0267854Y0050965D02*
X0271853Y0046966D01*
X0269854Y0048966D01*
X0271853Y0050965D01*
X0267854Y0046966D01*
X0279851Y0052965D02*
Y0046966D01*
X0282850D01*
X0283849Y0047966D01*
Y0048966D01*
X0282850Y0049966D01*
X0279851D01*
X0282850D01*
X0283849Y0050965D01*
Y0051965D01*
X0282850Y0052965D01*
X0279851D01*
X0286848Y0046966D02*
X0288848D01*
X0289847Y0047966D01*
Y0049966D01*
X0288848Y0050965D01*
X0286848D01*
X0285849Y0049966D01*
Y0047966D01*
X0286848Y0046966D01*
X0292846Y0050965D02*
X0294846D01*
X0295845Y0049966D01*
Y0046966D01*
X0292846D01*
X0291847Y0047966D01*
X0292846Y0048966D01*
X0295845D01*
X0297845Y0050965D02*
Y0046966D01*
Y0048966D01*
X0298844Y0049966D01*
X0299844Y0050965D01*
X0300844D01*
X0307841Y0052965D02*
Y0046966D01*
X0304842D01*
X0303843Y0047966D01*
Y0049966D01*
X0304842Y0050965D01*
X0307841D01*
X0309841Y0046966D02*
Y0047966D01*
X0310841D01*
Y0046966D01*
X0309841D01*
X0318838Y0051965D02*
X0317838Y0052965D01*
X0315839D01*
X0314839Y0051965D01*
Y0047966D01*
X0315839Y0046966D01*
X0317838D01*
X0318838Y0047966D01*
Y0049966D01*
X0316839D01*
X0320837Y0046966D02*
Y0052965D01*
X0322837Y0050965D01*
X0324836Y0052965D01*
Y0046966D01*
X0326835D02*
X0328835D01*
X0327835D01*
Y0052965D01*
X0326835Y0051965D01*
X0335832Y0046966D02*
X0331834D01*
X0335832Y0050965D01*
Y0051965D01*
X0334833Y0052965D01*
X0332833D01*
X0331834Y0051965D01*
X0381150Y0046966D02*
X0383149D01*
X0382150D01*
Y0052965D01*
X0381150Y0051965D01*
X0390147Y0046966D02*
X0386148D01*
X0390147Y0050965D01*
Y0051965D01*
X0389147Y0052965D01*
X0387148D01*
X0386148Y0051965D01*
X0392146Y0046966D02*
X0396145Y0050965D01*
X0402143Y0046966D02*
X0398145D01*
X0402143Y0050965D01*
Y0051965D01*
X0401144Y0052965D01*
X0399144D01*
X0398145Y0051965D01*
X0404143D02*
X0405142Y0052965D01*
X0407142D01*
X0408141Y0051965D01*
Y0047966D01*
X0407142Y0046966D01*
X0405142D01*
X0404143Y0047966D01*
Y0051965D01*
X0410141Y0046966D02*
X0414139Y0050965D01*
X0420137Y0046966D02*
X0416139D01*
X0420137Y0050965D01*
Y0051965D01*
X0419138Y0052965D01*
X0417138D01*
X0416139Y0051965D01*
X0422137D02*
X0423136Y0052965D01*
X0425136D01*
X0426135Y0051965D01*
Y0047966D01*
X0425136Y0046966D01*
X0423136D01*
X0422137Y0047966D01*
Y0051965D01*
X0432133Y0046966D02*
X0428135D01*
X0432133Y0050965D01*
Y0051965D01*
X0431134Y0052965D01*
X0429135D01*
X0428135Y0051965D01*
X0437132Y0046966D02*
Y0052965D01*
X0434133Y0049966D01*
X0438132D01*
X0298199Y0051965D02*
X0297199Y0052965D01*
X0295200D01*
X0294200Y0051965D01*
Y0047966D01*
X0295200Y0046966D01*
X0297199D01*
X0298199Y0047966D01*
Y0049966D01*
X0296199D01*
X0304197Y0052965D02*
X0300198D01*
Y0046966D01*
X0304197D01*
X0300198Y0049966D02*
X0302197D01*
X0306196Y0046966D02*
Y0052965D01*
X0310195Y0046966D01*
Y0052965D01*
X0316193D02*
X0312194D01*
Y0046966D01*
X0316193D01*
X0312194Y0049966D02*
X0314194D01*
X0318192Y0046966D02*
Y0052965D01*
X0321191D01*
X0322191Y0051965D01*
Y0049966D01*
X0321191Y0048966D01*
X0318192D01*
X0320192D02*
X0322191Y0046966D01*
X0324190D02*
Y0050965D01*
X0326190Y0052965D01*
X0328189Y0050965D01*
Y0046966D01*
Y0049966D01*
X0324190D01*
X0330188Y0052965D02*
X0334187D01*
X0332188D01*
Y0046966D01*
X0340185Y0052965D02*
X0336186D01*
Y0046966D01*
X0340185D01*
X0336186Y0049966D02*
X0338186D01*
X0342184Y0052965D02*
Y0046966D01*
X0345183D01*
X0346183Y0047966D01*
Y0051965D01*
X0345183Y0052965D01*
X0342184D01*
X0372175Y0050965D02*
X0373175D01*
Y0049966D01*
X0372175D01*
Y0050965D01*
Y0047966D02*
X0373175D01*
Y0046966D01*
X0372175D01*
Y0047966D01*
X0046350Y0087833D02*
Y0091832D01*
X0048349Y0093831D01*
X0050349Y0091832D01*
Y0087833D01*
Y0090832D01*
X0046350D01*
X0052348Y0093831D02*
Y0087833D01*
X0056347D01*
X0058346Y0093831D02*
Y0087833D01*
X0062345D01*
X0070342D02*
Y0091832D01*
X0072342Y0093831D01*
X0074341Y0091832D01*
Y0087833D01*
Y0090832D01*
X0070342D01*
X0076340Y0087833D02*
Y0093831D01*
X0079339D01*
X0080339Y0092832D01*
Y0090832D01*
X0079339Y0089833D01*
X0076340D01*
X0078340D02*
X0080339Y0087833D01*
X0082338Y0093831D02*
X0086337D01*
X0084338D01*
Y0087833D01*
X0088336Y0093831D02*
Y0087833D01*
X0090336Y0089833D01*
X0092335Y0087833D01*
Y0093831D01*
X0097334D02*
X0095334D01*
X0094335Y0092832D01*
Y0088833D01*
X0095334Y0087833D01*
X0097334D01*
X0098333Y0088833D01*
Y0092832D01*
X0097334Y0093831D01*
X0100332Y0087833D02*
Y0093831D01*
X0103332D01*
X0104331Y0092832D01*
Y0090832D01*
X0103332Y0089833D01*
X0100332D01*
X0102332D02*
X0104331Y0087833D01*
X0106331Y0093831D02*
Y0087833D01*
Y0089833D01*
X0110329Y0093831D01*
X0107330Y0090832D01*
X0110329Y0087833D01*
X0118327Y0093831D02*
Y0089833D01*
X0120326Y0087833D01*
X0122325Y0089833D01*
Y0093831D01*
X0124325D02*
X0126324D01*
X0125324D01*
Y0087833D01*
X0124325D01*
X0126324D01*
X0133322Y0093831D02*
X0129323D01*
Y0087833D01*
X0133322D01*
X0129323Y0090832D02*
X0131323D01*
X0135321Y0093831D02*
Y0087833D01*
X0137321Y0089833D01*
X0139320Y0087833D01*
Y0093831D01*
X0145318D02*
X0141319D01*
Y0087833D01*
X0145318D01*
X0141319Y0090832D02*
X0143319D01*
X0147317Y0093831D02*
Y0087833D01*
X0150316D01*
X0151316Y0088833D01*
Y0092832D01*
X0150316Y0093831D01*
X0147317D01*
X0163312D02*
X0159313D01*
Y0090832D01*
X0161313D01*
X0159313D01*
Y0087833D01*
X0165312D02*
Y0093831D01*
X0168310D01*
X0169310Y0092832D01*
Y0090832D01*
X0168310Y0089833D01*
X0165312D01*
X0167311D02*
X0169310Y0087833D01*
X0174309Y0093831D02*
X0172309D01*
X0171310Y0092832D01*
Y0088833D01*
X0172309Y0087833D01*
X0174309D01*
X0175308Y0088833D01*
Y0092832D01*
X0174309Y0093831D01*
X0177308Y0087833D02*
Y0093831D01*
X0179307Y0091832D01*
X0181306Y0093831D01*
Y0087833D01*
X0189304Y0093831D02*
X0193303D01*
X0191303D01*
Y0087833D01*
X0198301Y0093831D02*
X0196301D01*
X0195302Y0092832D01*
Y0088833D01*
X0196301Y0087833D01*
X0198301D01*
X0199301Y0088833D01*
Y0092832D01*
X0198301Y0093831D01*
X0201300Y0087833D02*
Y0093831D01*
X0204299D01*
X0205299Y0092832D01*
Y0090832D01*
X0204299Y0089833D01*
X0201300D01*
X0217295Y0092832D02*
X0216295Y0093831D01*
X0214296D01*
X0213296Y0092832D01*
Y0091832D01*
X0214296Y0090832D01*
X0216295D01*
X0217295Y0089833D01*
Y0088833D01*
X0216295Y0087833D01*
X0214296D01*
X0213296Y0088833D01*
X0219294Y0093831D02*
X0221293D01*
X0220294D01*
Y0087833D01*
X0219294D01*
X0221293D01*
X0224292Y0093831D02*
Y0087833D01*
X0227291D01*
X0228291Y0088833D01*
Y0092832D01*
X0227291Y0093831D01*
X0224292D01*
X0234289D02*
X0230291D01*
Y0087833D01*
X0234289D01*
X0230291Y0090832D02*
X0232290D01*
X0462150Y0092832D02*
X0463150Y0093831D01*
X0465149D01*
X0466149Y0092832D01*
Y0088833D01*
X0465149Y0087833D01*
X0463150D01*
X0462150Y0088833D01*
Y0092832D01*
X0348550Y0093831D02*
X0352549D01*
Y0092832D01*
X0348550Y0088833D01*
Y0087833D01*
X0354548D02*
X0356547D01*
X0355548D01*
Y0093831D01*
X0354548Y0092832D01*
X0359546D02*
X0360546Y0093831D01*
X0362545D01*
X0363545Y0092832D01*
Y0088833D01*
X0362545Y0087833D01*
X0360546D01*
X0359546Y0088833D01*
Y0092832D01*
X0365545Y0090832D02*
X0369543D01*
X0371543Y0092832D02*
X0372542Y0093831D01*
X0374542D01*
X0375541Y0092832D01*
Y0088833D01*
X0374542Y0087833D01*
X0372542D01*
X0371543Y0088833D01*
Y0092832D01*
X0377541D02*
X0378540Y0093831D01*
X0380540D01*
X0381539Y0092832D01*
Y0088833D01*
X0380540Y0087833D01*
X0378540D01*
X0377541Y0088833D01*
Y0092832D01*
X0383539D02*
X0384538Y0093831D01*
X0386538D01*
X0387537Y0092832D01*
Y0088833D01*
X0386538Y0087833D01*
X0384538D01*
X0383539Y0088833D01*
Y0092832D01*
X0389537D02*
X0390536Y0093831D01*
X0392536D01*
X0393535Y0092832D01*
Y0088833D01*
X0392536Y0087833D01*
X0390536D01*
X0389537Y0088833D01*
Y0092832D01*
X0395535Y0087833D02*
X0397534D01*
X0396534D01*
Y0093831D01*
X0395535Y0092832D01*
X0294000Y0093831D02*
Y0087833D01*
X0296999D01*
X0297999Y0088833D01*
Y0089833D01*
X0296999Y0090832D01*
X0294000D01*
X0296999D01*
X0297999Y0091832D01*
Y0092832D01*
X0296999Y0093831D01*
X0294000D01*
X0302997D02*
X0300998D01*
X0299998Y0092832D01*
Y0088833D01*
X0300998Y0087833D01*
X0302997D01*
X0303997Y0088833D01*
Y0092832D01*
X0302997Y0093831D01*
X0305996Y0087833D02*
Y0091832D01*
X0307996Y0093831D01*
X0309995Y0091832D01*
Y0087833D01*
Y0090832D01*
X0305996D01*
X0311994Y0087833D02*
Y0093831D01*
X0314993D01*
X0315993Y0092832D01*
Y0090832D01*
X0314993Y0089833D01*
X0311994D01*
X0313994D02*
X0315993Y0087833D01*
X0317992Y0093831D02*
Y0087833D01*
X0320991D01*
X0321991Y0088833D01*
Y0092832D01*
X0320991Y0093831D01*
X0317992D01*
X0330988Y0087833D02*
Y0093831D01*
X0332987D02*
Y0087833D01*
X0329988Y0091832D02*
X0332987D01*
X0333987D01*
X0329988Y0089833D02*
X0333987D01*
X0335986Y0091832D02*
X0336986D01*
Y0090832D01*
X0335986D01*
Y0091832D01*
Y0088833D02*
X0336986D01*
Y0087833D01*
X0335986D01*
Y0088833D01*
X0046350Y0073549D02*
Y0067551D01*
X0050349D01*
X0052348D02*
Y0071549D01*
X0054347Y0073549D01*
X0056347Y0071549D01*
Y0067551D01*
Y0070550D01*
X0052348D01*
X0058346Y0073549D02*
Y0072549D01*
X0060346Y0070550D01*
X0062345Y0072549D01*
Y0073549D01*
X0060346Y0070550D02*
Y0067551D01*
X0068343Y0073549D02*
X0064344D01*
Y0067551D01*
X0068343D01*
X0064344Y0070550D02*
X0066343D01*
X0070342Y0067551D02*
Y0073549D01*
X0073341D01*
X0074341Y0072549D01*
Y0070550D01*
X0073341Y0069550D01*
X0070342D01*
X0072342D02*
X0074341Y0067551D01*
X0082338D02*
Y0073549D01*
X0086337Y0067551D01*
Y0073549D01*
X0088336Y0067551D02*
Y0071549D01*
X0090336Y0073549D01*
X0092335Y0071549D01*
Y0067551D01*
Y0070550D01*
X0088336D01*
X0094335Y0067551D02*
Y0073549D01*
X0096334Y0071549D01*
X0098333Y0073549D01*
Y0067551D01*
X0104331Y0073549D02*
X0100332D01*
Y0067551D01*
X0104331D01*
X0100332Y0070550D02*
X0102332D01*
X0112329Y0069550D02*
X0116327D01*
X0112329Y0071549D02*
X0116327D01*
X0046350Y0046966D02*
Y0052965D01*
X0049349D01*
X0050349Y0051965D01*
Y0049966D01*
X0049349Y0048966D01*
X0046350D01*
X0052348Y0052965D02*
Y0046966D01*
X0056347D01*
X0061345Y0052965D02*
X0059346D01*
X0058346Y0051965D01*
Y0047966D01*
X0059346Y0046966D01*
X0061345D01*
X0062345Y0047966D01*
Y0051965D01*
X0061345Y0052965D01*
X0064344D02*
X0068343D01*
X0066343D01*
Y0046966D01*
X0076340D02*
Y0052965D01*
X0080339Y0046966D01*
Y0052965D01*
X0082338Y0046966D02*
Y0050965D01*
X0084338Y0052965D01*
X0086337Y0050965D01*
Y0046966D01*
Y0049966D01*
X0082338D01*
X0088336Y0046966D02*
Y0052965D01*
X0090336Y0050965D01*
X0092335Y0052965D01*
Y0046966D01*
X0098333Y0052965D02*
X0094335D01*
Y0046966D01*
X0098333D01*
X0094335Y0049966D02*
X0096334D01*
X0106331Y0048966D02*
X0110329D01*
X0106331Y0050965D02*
X0110329D01*
X0454050Y0051965D02*
X0455050Y0052965D01*
X0457049D01*
X0458049Y0051965D01*
Y0050965D01*
X0457049Y0049966D01*
X0458049Y0048966D01*
Y0047966D01*
X0457049Y0046966D01*
X0455050D01*
X0454050Y0047966D01*
Y0048966D01*
X0455050Y0049966D01*
X0454050Y0050965D01*
Y0051965D01*
X0455050Y0049966D02*
X0457049D01*
X0460048Y0050965D02*
X0461048D01*
Y0049966D01*
X0460048D01*
Y0050965D01*
Y0047966D02*
X0461048D01*
Y0046966D01*
X0460048D01*
Y0047966D01*
X0465046Y0051965D02*
X0466046Y0052965D01*
X0468046D01*
X0469045Y0051965D01*
Y0047966D01*
X0468046Y0046966D01*
X0466046D01*
X0465046Y0047966D01*
Y0051965D01*
X0475043Y0052965D02*
X0473044Y0051965D01*
X0471044Y0049966D01*
Y0047966D01*
X0472044Y0046966D01*
X0474044D01*
X0475043Y0047966D01*
Y0048966D01*
X0474044Y0049966D01*
X0471044D01*
X0477043Y0050965D02*
X0478042D01*
Y0049966D01*
X0477043D01*
Y0050965D01*
Y0047966D02*
X0478042D01*
Y0046966D01*
X0477043D01*
Y0047966D01*
X0482041Y0051965D02*
X0483041Y0052965D01*
X0485040D01*
X0486040Y0051965D01*
Y0047966D01*
X0485040Y0046966D01*
X0483041D01*
X0482041Y0047966D01*
Y0051965D01*
X0491038Y0046966D02*
Y0052965D01*
X0488039Y0049966D01*
X0492038D01*
X0500035Y0046966D02*
Y0050965D01*
X0502035Y0052965D01*
X0504034Y0050965D01*
Y0046966D01*
Y0049966D01*
X0500035D01*
X0506033Y0046966D02*
Y0052965D01*
X0508033Y0050965D01*
X0510032Y0052965D01*
Y0046966D01*
X0604409Y0053922D02*
X0602409D01*
X0601409Y0052922D01*
Y0048923D01*
X0602409Y0047924D01*
X0604409D01*
X0605408Y0048923D01*
Y0052922D01*
X0604409Y0053922D01*
X0607408Y0045924D02*
Y0051922D01*
X0610407D01*
X0611406Y0050923D01*
Y0048923D01*
X0610407Y0047924D01*
X0607408D01*
X0616405D02*
X0614405D01*
X0613406Y0048923D01*
Y0050923D01*
X0614405Y0051922D01*
X0616405D01*
X0617404Y0050923D01*
Y0049923D01*
X0613406D01*
X0619404Y0047924D02*
Y0051922D01*
X0622403D01*
X0623402Y0050923D01*
Y0047924D01*
X0625402Y0053922D02*
Y0047924D01*
X0627401Y0049923D01*
X0629400Y0047924D01*
Y0053922D01*
X0632400Y0051922D02*
X0634399D01*
X0635398Y0050923D01*
Y0047924D01*
X0632400D01*
X0631400Y0048923D01*
X0632400Y0049923D01*
X0635398D01*
X0638398Y0052922D02*
Y0051922D01*
X0637398D01*
X0639397D01*
X0638398D01*
Y0048923D01*
X0639397Y0047924D01*
X0645395D02*
X0643396D01*
X0642396Y0048923D01*
Y0050923D01*
X0643396Y0051922D01*
X0645395D01*
X0646395Y0050923D01*
Y0049923D01*
X0642396D01*
X0648394Y0051922D02*
Y0047924D01*
Y0049923D01*
X0649394Y0050923D01*
X0650394Y0051922D01*
X0651393D01*
X0294000Y0073498D02*
X0297999D01*
X0295999D01*
Y0067500D01*
X0299998Y0073498D02*
X0301997D01*
X0300998D01*
Y0067500D01*
X0299998D01*
X0301997D01*
X0304996Y0073498D02*
Y0067500D01*
X0307996D01*
X0308995Y0068500D01*
Y0072498D01*
X0307996Y0073498D01*
X0304996D01*
X0317992Y0067500D02*
Y0073498D01*
X0319992D02*
Y0067500D01*
X0316993Y0071499D02*
X0319992D01*
X0320991D01*
X0316993Y0069499D02*
X0320991D01*
X0322991Y0071499D02*
X0323990D01*
Y0070499D01*
X0322991D01*
Y0071499D01*
Y0068500D02*
X0323990D01*
Y0067500D01*
X0322991D01*
Y0068500D01*
X0348550Y0067500D02*
Y0073498D01*
X0352549Y0067500D01*
Y0073498D01*
X0354548Y0067500D02*
X0358547Y0071499D01*
X0360546Y0067500D02*
Y0071499D01*
X0362545Y0073498D01*
X0364545Y0071499D01*
Y0067500D01*
Y0070499D01*
X0360546D01*
G54D37*
X0060095Y0903893D02*
X0545969D01*
X0060095Y0915893D02*
X0545969D01*
X0060095Y0771893D02*
Y0915893D01*
Y0771893D02*
X0101086D01*
X0060095Y0783893D02*
X0101086D01*
X0060095Y0795893D02*
X0101086D01*
X0060095Y0807893D02*
X0101086D01*
X0060095Y0819893D02*
X0101086D01*
X0060095Y0831893D02*
X0101086D01*
X0060095Y0843893D02*
X0101086D01*
X0060095Y0855893D02*
X0101086D01*
X0060095Y0867893D02*
X0101086D01*
X0060095Y0879893D02*
X0101086D01*
X0060095Y0891893D02*
X0101086D01*
Y0771893D02*
Y0915893D01*
Y0771893D02*
X0229049D01*
X0101086Y0783893D02*
X0229049D01*
X0101086Y0795893D02*
X0229049D01*
X0101086Y0807893D02*
X0229049D01*
X0101086Y0819893D02*
X0229049D01*
X0101086Y0831893D02*
X0229049D01*
X0101086Y0843893D02*
X0229049D01*
X0101086Y0855893D02*
X0229049D01*
X0101086Y0867893D02*
X0229049D01*
X0101086Y0879893D02*
X0229049D01*
X0101086Y0891893D02*
X0229049D01*
Y0771893D02*
Y0915893D01*
Y0771893D02*
X0297032D01*
X0229049Y0783893D02*
X0297032D01*
X0229049Y0795893D02*
X0297032D01*
X0229049Y0807893D02*
X0297032D01*
X0229049Y0819893D02*
X0297032D01*
X0229049Y0831893D02*
X0297032D01*
X0229049Y0843893D02*
X0297032D01*
X0229049Y0855893D02*
X0297032D01*
X0229049Y0867893D02*
X0297032D01*
X0229049Y0879893D02*
X0297032D01*
X0229049Y0891893D02*
X0297032D01*
Y0771893D02*
Y0915893D01*
Y0771893D02*
X0362015D01*
X0297032Y0783893D02*
X0362015D01*
X0297032Y0795893D02*
X0362015D01*
X0297032Y0807893D02*
X0362015D01*
X0297032Y0819893D02*
X0362015D01*
X0297032Y0831893D02*
X0362015D01*
X0297032Y0843893D02*
X0362015D01*
X0297032Y0855893D02*
X0362015D01*
X0297032Y0867893D02*
X0362015D01*
X0297032Y0879893D02*
X0362015D01*
X0297032Y0891893D02*
X0362015D01*
Y0771893D02*
Y0915893D01*
Y0771893D02*
X0419001D01*
X0362015Y0783893D02*
X0419001D01*
X0362015Y0795893D02*
X0419001D01*
X0362015Y0807893D02*
X0419001D01*
X0362015Y0819893D02*
X0419001D01*
X0362015Y0831893D02*
X0419001D01*
X0362015Y0843893D02*
X0419001D01*
X0362015Y0855893D02*
X0419001D01*
X0362015Y0867893D02*
X0419001D01*
X0362015Y0879893D02*
X0419001D01*
X0362015Y0891893D02*
X0419001D01*
Y0771893D02*
Y0915893D01*
Y0771893D02*
X0494981D01*
X0419001Y0783893D02*
X0494981D01*
X0419001Y0795893D02*
X0494981D01*
X0419001Y0807893D02*
X0494981D01*
X0419001Y0819893D02*
X0494981D01*
X0419001Y0831893D02*
X0494981D01*
X0419001Y0843893D02*
X0494981D01*
X0419001Y0855893D02*
X0494981D01*
X0419001Y0867893D02*
X0494981D01*
X0419001Y0879893D02*
X0494981D01*
X0419001Y0891893D02*
X0494981D01*
Y0771893D02*
Y0915893D01*
Y0771893D02*
X0545969D01*
X0494981Y0783893D02*
X0545969D01*
X0494981Y0795893D02*
X0545969D01*
X0494981Y0807893D02*
X0545969D01*
X0494981Y0819893D02*
X0545969D01*
X0494981Y0831893D02*
X0545969D01*
X0494981Y0843893D02*
X0545969D01*
X0494981Y0855893D02*
X0545969D01*
X0494981Y0867893D02*
X0545969D01*
X0494981Y0879893D02*
X0545969D01*
X0494981Y0891893D02*
X0545969D01*
Y0771893D02*
Y0915893D01*
G54D38*
X0488981Y0771893D02*
X0494981Y0777893D01*
X0482981Y0771893D02*
X0494981Y0783893D01*
X0476981Y0771893D02*
X0488981Y0783893D01*
X0470981Y0771893D02*
X0482981Y0783893D01*
X0464981Y0771893D02*
X0476981Y0783893D01*
X0458981Y0771893D02*
X0470981Y0783893D01*
X0452981Y0771893D02*
X0464981Y0783893D01*
X0446981Y0771893D02*
X0458981Y0783893D01*
X0440981Y0771893D02*
X0452981Y0783893D01*
X0434981Y0771893D02*
X0446981Y0783893D01*
X0428981Y0771893D02*
X0440981Y0783893D01*
X0422981Y0771893D02*
X0434981Y0783893D01*
X0419001Y0773913D02*
X0428981Y0783893D01*
X0419001Y0779913D02*
X0422981Y0783893D01*
X0488981Y0795893D02*
X0494981Y0801893D01*
X0482981Y0795893D02*
X0494981Y0807893D01*
X0476981Y0795893D02*
X0488981Y0807893D01*
X0470981Y0795893D02*
X0482981Y0807893D01*
X0464981Y0795893D02*
X0476981Y0807893D01*
X0458981Y0795893D02*
X0470981Y0807893D01*
X0452981Y0795893D02*
X0464981Y0807893D01*
X0446981Y0795893D02*
X0458981Y0807893D01*
X0440981Y0795893D02*
X0452981Y0807893D01*
X0434981Y0795893D02*
X0446981Y0807893D01*
X0428981Y0795893D02*
X0440981Y0807893D01*
X0422981Y0795893D02*
X0434981Y0807893D01*
X0419001Y0797913D02*
X0428981Y0807893D01*
X0419001Y0803913D02*
X0422981Y0807893D01*
X0488981D02*
X0494981Y0813893D01*
X0482981Y0807893D02*
X0494981Y0819893D01*
X0476981Y0807893D02*
X0488981Y0819893D01*
X0470981Y0807893D02*
X0482981Y0819893D01*
X0464981Y0807893D02*
X0476981Y0819893D01*
X0458981Y0807893D02*
X0470981Y0819893D01*
X0452981Y0807893D02*
X0464981Y0819893D01*
X0446981Y0807893D02*
X0458981Y0819893D01*
X0440981Y0807893D02*
X0452981Y0819893D01*
X0434981Y0807893D02*
X0446981Y0819893D01*
X0428981Y0807893D02*
X0440981Y0819893D01*
X0422981Y0807893D02*
X0434981Y0819893D01*
X0419001Y0809913D02*
X0428981Y0819893D01*
X0419001Y0815913D02*
X0422981Y0819893D01*
X0488981D02*
X0494981Y0825893D01*
X0482981Y0819893D02*
X0494981Y0831893D01*
X0476981Y0819893D02*
X0488981Y0831893D01*
X0470981Y0819893D02*
X0482981Y0831893D01*
X0464981Y0819893D02*
X0476981Y0831893D01*
X0458981Y0819893D02*
X0470981Y0831893D01*
X0452981Y0819893D02*
X0464981Y0831893D01*
X0446981Y0819893D02*
X0458981Y0831893D01*
X0440981Y0819893D02*
X0452981Y0831893D01*
X0434981Y0819893D02*
X0446981Y0831893D01*
X0428981Y0819893D02*
X0440981Y0831893D01*
X0422981Y0819893D02*
X0434981Y0831893D01*
X0419001Y0821913D02*
X0428981Y0831893D01*
X0419001Y0827913D02*
X0422981Y0831893D01*
X0488981D02*
X0494981Y0837893D01*
X0482981Y0831893D02*
X0494981Y0843893D01*
X0476981Y0831893D02*
X0488981Y0843893D01*
X0470981Y0831893D02*
X0482981Y0843893D01*
X0464981Y0831893D02*
X0476981Y0843893D01*
X0458981Y0831893D02*
X0470981Y0843893D01*
X0452981Y0831893D02*
X0464981Y0843893D01*
X0446981Y0831893D02*
X0458981Y0843893D01*
X0440981Y0831893D02*
X0452981Y0843893D01*
X0434981Y0831893D02*
X0446981Y0843893D01*
X0428981Y0831893D02*
X0440981Y0843893D01*
X0422981Y0831893D02*
X0434981Y0843893D01*
X0419001Y0833913D02*
X0428981Y0843893D01*
X0419001Y0839913D02*
X0422981Y0843893D01*
X0488981D02*
X0494981Y0849893D01*
X0482981Y0843893D02*
X0494981Y0855893D01*
X0476981Y0843893D02*
X0488981Y0855893D01*
X0470981Y0843893D02*
X0482981Y0855893D01*
X0464981Y0843893D02*
X0476981Y0855893D01*
X0458981Y0843893D02*
X0470981Y0855893D01*
X0452981Y0843893D02*
X0464981Y0855893D01*
X0446981Y0843893D02*
X0458981Y0855893D01*
X0440981Y0843893D02*
X0452981Y0855893D01*
X0434981Y0843893D02*
X0446981Y0855893D01*
X0428981Y0843893D02*
X0440981Y0855893D01*
X0422981Y0843893D02*
X0434981Y0855893D01*
X0419001Y0845913D02*
X0428981Y0855893D01*
X0419001Y0851913D02*
X0422981Y0855893D01*
X0488981D02*
X0494981Y0861893D01*
X0482981Y0855893D02*
X0494981Y0867893D01*
X0476981Y0855893D02*
X0488981Y0867893D01*
X0470981Y0855893D02*
X0482981Y0867893D01*
X0464981Y0855893D02*
X0476981Y0867893D01*
X0458981Y0855893D02*
X0470981Y0867893D01*
X0452981Y0855893D02*
X0464981Y0867893D01*
X0446981Y0855893D02*
X0458981Y0867893D01*
X0440981Y0855893D02*
X0452981Y0867893D01*
X0434981Y0855893D02*
X0446981Y0867893D01*
X0428981Y0855893D02*
X0440981Y0867893D01*
X0422981Y0855893D02*
X0434981Y0867893D01*
X0419001Y0857913D02*
X0428981Y0867893D01*
X0419001Y0863913D02*
X0422981Y0867893D01*
X0488981D02*
X0494981Y0873893D01*
X0482981Y0867893D02*
X0494981Y0879893D01*
X0476981Y0867893D02*
X0488981Y0879893D01*
X0470981Y0867893D02*
X0482981Y0879893D01*
X0464981Y0867893D02*
X0476981Y0879893D01*
X0458981Y0867893D02*
X0470981Y0879893D01*
X0452981Y0867893D02*
X0464981Y0879893D01*
X0446981Y0867893D02*
X0458981Y0879893D01*
X0440981Y0867893D02*
X0452981Y0879893D01*
X0434981Y0867893D02*
X0446981Y0879893D01*
X0428981Y0867893D02*
X0440981Y0879893D01*
X0422981Y0867893D02*
X0434981Y0879893D01*
X0419001Y0869913D02*
X0428981Y0879893D01*
X0419001Y0875913D02*
X0422981Y0879893D01*
X0488981D02*
X0494981Y0885893D01*
X0482981Y0879893D02*
X0494981Y0891893D01*
X0476981Y0879893D02*
X0488981Y0891893D01*
X0470981Y0879893D02*
X0482981Y0891893D01*
X0464981Y0879893D02*
X0476981Y0891893D01*
X0458981Y0879893D02*
X0470981Y0891893D01*
X0452981Y0879893D02*
X0464981Y0891893D01*
X0446981Y0879893D02*
X0458981Y0891893D01*
X0440981Y0879893D02*
X0452981Y0891893D01*
X0434981Y0879893D02*
X0446981Y0891893D01*
X0428981Y0879893D02*
X0440981Y0891893D01*
X0422981Y0879893D02*
X0434981Y0891893D01*
X0419001Y0881913D02*
X0428981Y0891893D01*
X0419001Y0887913D02*
X0422981Y0891893D01*
X0488981D02*
X0494981Y0897893D01*
X0482981Y0891893D02*
X0494981Y0903893D01*
X0476981Y0891893D02*
X0488981Y0903893D01*
X0470981Y0891893D02*
X0482981Y0903893D01*
X0464981Y0891893D02*
X0476981Y0903893D01*
X0458981Y0891893D02*
X0470981Y0903893D01*
X0452981Y0891893D02*
X0464981Y0903893D01*
X0446981Y0891893D02*
X0458981Y0903893D01*
X0440981Y0891893D02*
X0452981Y0903893D01*
X0434981Y0891893D02*
X0446981Y0903893D01*
X0428981Y0891893D02*
X0440981Y0903893D01*
X0422981Y0891893D02*
X0434981Y0903893D01*
X0419001Y0893913D02*
X0428981Y0903893D01*
X0419001Y0899913D02*
X0422981Y0903893D01*
X0494981Y0789893D02*
X0500981Y0783893D01*
X0494981Y0795893D02*
X0506981Y0783893D01*
X0500981Y0795893D02*
X0512981Y0783893D01*
X0506981Y0795893D02*
X0518981Y0783893D01*
X0512981Y0795893D02*
X0524981Y0783893D01*
X0518981Y0795893D02*
X0530981Y0783893D01*
X0524981Y0795893D02*
X0536981Y0783893D01*
X0530981Y0795893D02*
X0542981Y0783893D01*
X0536981Y0795893D02*
X0545969Y0786904D01*
X0542981Y0795893D02*
X0545969Y0792905D01*
X0494981Y0801893D02*
X0500981Y0795893D01*
X0494981Y0807893D02*
X0506981Y0795893D01*
X0500981Y0807893D02*
X0512981Y0795893D01*
X0506981Y0807893D02*
X0518981Y0795893D01*
X0512981Y0807893D02*
X0524981Y0795893D01*
X0518981Y0807893D02*
X0530981Y0795893D01*
X0524981Y0807893D02*
X0536981Y0795893D01*
X0530981Y0807893D02*
X0542981Y0795893D01*
X0536981Y0807893D02*
X0545969Y0798905D01*
X0542981Y0807893D02*
X0545969Y0804904D01*
X0494981Y0813893D02*
X0500981Y0807893D01*
X0494981Y0819893D02*
X0506981Y0807893D01*
X0500981Y0819893D02*
X0512981Y0807893D01*
X0506981Y0819893D02*
X0518981Y0807893D01*
X0512981Y0819893D02*
X0524981Y0807893D01*
X0518981Y0819893D02*
X0530981Y0807893D01*
X0524981Y0819893D02*
X0536981Y0807893D01*
X0530981Y0819893D02*
X0542981Y0807893D01*
X0536981Y0819893D02*
X0545969Y0810905D01*
X0542981Y0819893D02*
X0545969Y0816905D01*
X0494981Y0825893D02*
X0500981Y0819893D01*
X0494981Y0831893D02*
X0506981Y0819893D01*
X0500981Y0831893D02*
X0512981Y0819893D01*
X0506981Y0831893D02*
X0518981Y0819893D01*
X0512981Y0831893D02*
X0524981Y0819893D01*
X0518981Y0831893D02*
X0530981Y0819893D01*
X0524981Y0831893D02*
X0536981Y0819893D01*
X0530981Y0831893D02*
X0542981Y0819893D01*
X0536981Y0831893D02*
X0545969Y0822904D01*
X0542981Y0831893D02*
X0545969Y0828905D01*
X0494981Y0837893D02*
X0500981Y0831893D01*
X0494981Y0843893D02*
X0506981Y0831893D01*
X0500981Y0843893D02*
X0512981Y0831893D01*
X0506981Y0843893D02*
X0518981Y0831893D01*
X0512981Y0843893D02*
X0524981Y0831893D01*
X0518981Y0843893D02*
X0530981Y0831893D01*
X0524981Y0843893D02*
X0536981Y0831893D01*
X0530981Y0843893D02*
X0542981Y0831893D01*
X0536981Y0843893D02*
X0545969Y0834904D01*
X0542981Y0843893D02*
X0545969Y0840905D01*
X0494981Y0849893D02*
X0500981Y0843893D01*
X0494981Y0855893D02*
X0506981Y0843893D01*
X0500981Y0855893D02*
X0512981Y0843893D01*
X0506981Y0855893D02*
X0518981Y0843893D01*
X0512981Y0855893D02*
X0524981Y0843893D01*
X0518981Y0855893D02*
X0530981Y0843893D01*
X0524981Y0855893D02*
X0536981Y0843893D01*
X0530981Y0855893D02*
X0542981Y0843893D01*
X0536981Y0855893D02*
X0545969Y0846904D01*
X0542981Y0855893D02*
X0545969Y0852905D01*
X0494981Y0861893D02*
X0500981Y0855893D01*
X0494981Y0867893D02*
X0506981Y0855893D01*
X0500981Y0867893D02*
X0512981Y0855893D01*
X0506981Y0867893D02*
X0518981Y0855893D01*
X0512981Y0867893D02*
X0524981Y0855893D01*
X0518981Y0867893D02*
X0530981Y0855893D01*
X0524981Y0867893D02*
X0536981Y0855893D01*
X0530981Y0867893D02*
X0542981Y0855893D01*
X0536981Y0867893D02*
X0545969Y0858904D01*
X0542981Y0867893D02*
X0545969Y0864904D01*
X0494981Y0873893D02*
X0500981Y0867893D01*
X0494981Y0879893D02*
X0506981Y0867893D01*
X0500981Y0879893D02*
X0512981Y0867893D01*
X0506981Y0879893D02*
X0518981Y0867893D01*
X0512981Y0879893D02*
X0524981Y0867893D01*
X0518981Y0879893D02*
X0530981Y0867893D01*
X0524981Y0879893D02*
X0536981Y0867893D01*
X0530981Y0879893D02*
X0542981Y0867893D01*
X0536981Y0879893D02*
X0545969Y0870905D01*
X0542981Y0879893D02*
X0545969Y0876904D01*
X0494981Y0885893D02*
X0500981Y0879893D01*
X0494981Y0891893D02*
X0506981Y0879893D01*
X0500981Y0891893D02*
X0512981Y0879893D01*
X0506981Y0891893D02*
X0518981Y0879893D01*
X0512981Y0891893D02*
X0524981Y0879893D01*
X0518981Y0891893D02*
X0530981Y0879893D01*
X0524981Y0891893D02*
X0536981Y0879893D01*
X0530981Y0891893D02*
X0542981Y0879893D01*
X0536981Y0891893D02*
X0545969Y0882905D01*
X0542981Y0891893D02*
X0545969Y0888904D01*
M02*
