M48
;Layer_Color=9474304
;FILE_FORMAT=2:5
INCH,LZ
;TYPE=PLATED
T01F00S00C0.00600
T02F00S00C0.00787
T03F00S00C0.02500
T04F00S00C0.11900
;TYPE=NON_PLATED
T05F00S00C0.02756
T06F00S00C0.03543
%
T01
X0139344Y-0003129
X0139455Y0000456
X0144497Y-0001027
X0147052Y-0000901
X014948Y-0001027
X0159614Y000034
X0159581Y-0002997
X0169459Y-0002931
X0169393Y0000406
X0189359Y0015469
X0192559Y0015369
X0195059
X0197459
X0135834Y0014689
X0133951Y0014801
X0134841Y0041836
X0139596Y0038876
X0148755Y0038664
X0152006
X0125907Y0042072
X0122412Y0032532
X0119418Y0034603
X0115055Y0038635
X0105442Y0032835
X0095183Y0032115
X0095337Y0034338
X0095362Y0036549
X0095885Y0038632
X0095907Y0040651
X0095491Y0030047
X0095762Y0028102
X0096034Y0022733
X0094357Y0013601
X0092138Y0013969
X0085017Y0012682
X0079445Y0012024
X0079365Y0008382
X0075763Y0008808
X0075877Y0011784
X0076016Y0015234
X0076109Y0019009
X0075835Y0021745
X0075803Y0024533
X0075752Y002756
X0075841Y0031413
X0072419Y0033838
X0069435Y0033877
X0066304Y0033961
X0066438Y0031205
X0063219Y0030699
X006172Y0037093
X005732Y0037655
X0053784Y003716
X0050748Y0040319
X0047611Y0037365
X00475Y0033845
X0050746Y003392
X0050848Y003091
X0050684Y002779
X004768Y0027637
X0047664Y0030473
X0047694Y0024297
X0050076Y0024511
X0050304Y001801
Y0015066
X0047952Y0014993
X0047728Y0012291
X0050304Y0011973
X0050502Y0008728
X0047573Y0008936
X0049655Y0005384
X0049708Y0004253
X0052724Y0005339
X0052755Y0001545
X0060306Y0001129
X0060189Y-000104
X0064809Y-0001204
X0060887Y0005595
X0060341Y0008937
X0060123Y0011788
X0060275Y0015258
X0060029Y0018232
X0059926Y0024473
X0057226Y0033639
X0066077Y0040015
X0069485Y0040279
X0077434Y0037257
X0091317Y0033836
X0090188Y0031039
X0090159Y0028916
X008667Y002614
X0080795Y0022861
X0075467Y0005172
X0096754Y-0001517
X0106201Y-000005
X0109588Y-0001453
X0119635Y-000317
X0124908Y-0003152
X0124266Y0016708
X0119447Y001577
X0106405Y0016708
X0106936Y0014101
X0099547Y0012911
X0048077Y0019755
X0035185Y0019497
X0037409Y0006833
X004298Y0003996
X0034966Y-001511
X0033649Y-0013972
X0031367Y-0013939
X0032501Y-0015184
X0038567Y0032498
X0037837Y0041727
X0017963Y0040605
X0018038Y0038153
X0017985Y0035626
X0017904Y0032997
X0010765Y0033179
X001082Y0035564
X0010762Y0038079
X0010776Y0040536
X0010745Y0043186
X0010702Y0045585
X0010774Y0048215
X0010731Y0050643
X0010717Y0053128
X0010704Y0055648
X0010836Y005819
X0010802Y006059
X0010769Y0063079
X0010757Y0065557
X0010903Y006817
X0010791Y0070614
X0010836Y0073171
X0010791Y0075638
X0010791Y0078139
X0010779Y0080628
X0010791Y0083117
X001076Y0085772
X0010779Y0088186
Y0090619
X0010768Y0093209
X0010824Y0095564
X0010698Y0098262
X0010711Y0100712
X0010668Y0103111
X0010679Y0105588
X0010697Y0108169
X0010682Y0110655
X0017867Y0110621
X0017881Y0108135
X0017863Y0105554
X0017852Y0103077
X0017896Y0100678
X0017883Y0098228
X0017897Y0095742
X0017879Y0093161
X0017868Y0090684
X0017912Y0088285
X0017944Y0085738
X001802Y0083286
X0017966Y0080759
X0017886Y0078131
X0017886Y0075711
X00179Y0073225
X0017878Y0070688
X0017871Y0068167
X0017915Y0065768
X0017947Y0063221
X0018022Y0060769
X0017969Y0058242
X0017888Y0055614
X0017901Y0053094
X0017916Y0050608
X0017959Y0048181
X0017887Y004555
X001793Y0043152
X0035185Y005309
X0038986Y0052936
X0047668Y0052709
X0047533Y005581
X0050767Y0055863
Y0059019
X0047634Y0059108
X0047564Y0062303
X0047571Y0065303
X0050731Y0065452
X0050648Y0062364
X005739Y0062402
X0056855Y0065518
X0060029Y0055861
Y0052618
X0060121Y0048949
X006017Y0046165
X0062829Y0043381
X0066236Y0043278
X007596Y0043355
X0075879Y004642
X0078865Y0046445
X0078898Y0049477
X0075771Y004944
Y0052582
X0078978Y0052808
X0079106Y0055966
X0075994Y0056041
X0078901Y0059059
X0078968Y0062134
X0079064Y0065122
X0079034Y0068534
X0075821Y0068579
X0075809Y0065415
X0075834Y0062134
X0077854Y0071852
X0075859Y0076973
X0075932Y0079882
X0075842Y0083041
X0075878Y0086202
X0078735Y0085818
X0078743Y0087864
X0078508Y0089931
X0078389Y0092839
X0075771Y0092548
X0076016Y0095711
X0078831Y0096023
X0078544Y009934
X0075921Y0098913
X0075922Y0101919
X0078619Y0102471
X0079241Y0111405
X0079308Y0114507
X0079172Y0117499
X0079171Y0120789
X0079245Y0123937
X0079154Y0126768
X0078985Y0130267
X0075913Y0130256
X0075877Y0133367
X0078951Y0133385
X0079002Y0136529
X0075814Y0136493
X0075416Y0139326
X0078832Y0139692
X0088148Y0143529
X0091519Y0143565
X0100854Y0144307
X0104785Y0144468
X0109929Y0144396
X0119803Y014436
X0123942Y0144523
X0124429Y0128426
X012Y0128385
X0114968Y0128522
X0112621Y0121044
X0117612Y0121168
X0124233Y0124083
X0132893Y0120915
X0132304Y011462
X0128193Y0106335
X0125441Y0105534
X0122118Y0106787
X0120178Y0105973
X0116093Y0101157
X0110366Y0100493
X0104312Y0102205
X0104758Y0104382
X0104289Y0106336
X01048Y0108251
X0104282Y0110332
X0105294Y0111966
X0104839Y0115075
X010536Y0117942
X0113163Y0113921
X010628Y0106938
X0091328Y0107388
X0089751Y0108388
X0091133Y0111024
X0091201Y011294
X008937Y0112155
X0090143Y0116437
X0091422Y0103433
X0091439Y0100723
X0089936Y0098699
X0089739Y0096617
X0089814Y0094631
X0089772Y0092644
X0089797Y0090463
X008986Y0088366
X0089785Y0086275
X0089771Y0084391
X0091657Y0082954
X0096345Y008482
X0096326Y0086822
X0096374Y0088765
Y0090747
X0096384Y0092729
X0096365Y0094682
X0096394Y0096615
X0096345Y0098558
X0095764Y0100589
X0098622Y007933
X0100916Y0079892
X0114654Y0081787
X0116728Y0079891
X0120506Y0085307
X012215Y0084605
X0124092Y0084093
X01264Y0085215
X0124174Y007803
X012856Y0077511
X0132401Y0077261
X0131473Y0062637
X0131243Y0056342
X012918Y0056369
X0128829Y0054808
X0127305Y0054352
X0124939Y0054669
X0123273Y0054469
X0123305Y0056362
X012512Y0056531
X0125178Y0052574
X0123388Y0052388
X0123313Y005043
X0123184Y0048608
X0125149Y0048729
X0125293Y0046953
X0125325Y0044982
X0129075Y004475
X0128838Y0046455
X012939Y0048581
X012769Y0048609
X0128203Y005062
X0130724Y0050441
X0131117Y0048609
X0132796Y0048924
X0132777Y0050819
X0132845Y0054451
X0129179Y0052824
X012763Y0059177
X0121119Y0059365
X0121513Y0063774
X0119772Y006935
X0120606Y00545
X0120859Y0051421
X0120762Y0049877
X0120802Y0047732
X011779Y0046722
X0108641Y0045723
X0104934Y0046704
Y004873
X0104976Y0050713
X0104919Y0052625
X0105005Y0054693
X010514Y0056798
X0105155Y0058902
X010528Y0060849
X0091043Y0059282
X0090922Y0056556
X0092159Y005383
X009049Y0052677
X0090693Y0050121
X0091588Y0048298
X0090691Y0046563
X0096228Y0042727
X0078599Y0042732
X0050601Y0043363
X0047472Y0043277
X0047841Y0046684
X005087Y0046725
X0050606Y0049903
X0047472Y0049609
X0041286Y0063977
X0038057Y0063906
X0041235Y0081557
X0047531Y0082831
Y0079924
X0050936Y0079941
X005068Y0082831
Y008598
X005064Y0089178
X0047572Y0088938
X0047558Y0086131
X0047997Y009542
X0050757Y0095731
X0050769Y0098835
X005081Y0101957
X0047622Y0101981
X0047558Y0105144
X0050674Y0105049
X005359Y0108221
X0050797Y0111439
X0050617Y0114583
X0047709Y0114457
X0047684Y0117679
X0047646Y0120876
X0050617Y0120851
X0051039Y0118303
X0048032Y0123511
X0047856Y0126978
X0050683Y0127052
X005072Y0130344
X0047689Y0130279
X0047499Y0133262
X0047484Y0136555
X0050705Y0136501
X0050813Y0133505
X0052352Y0139934
X0052527Y0142691
X0048029Y0143127
X0048263Y0139703
X0042849Y013675
X0037448Y0135113
X0035622Y0134633
X0035556Y0136375
X0041015Y0142118
X0041581Y0127114
X0041157Y011316
X0047619Y0108303
X004767Y0098765
X0037348Y0099337
X0037591Y010319
X0037348Y0090618
X0059872Y0089466
Y0086315
Y0083139
Y0080006
X0052644Y0077117
X0048967Y0077054
X0059945Y0095681
X0062754Y0102038
X0063171Y010509
X006618Y01055
X0069056Y0105642
X0072477Y0106114
X0069447Y0111068
X0066269Y0111383
X0066302Y011459
X0063174Y011464
X0059981Y0117438
X0059842Y0120589
X0060077Y0123928
Y0127184
X006021Y0133546
X006012Y0136507
X0069723Y015223
X00698Y0153923
X0075392Y0153991
X0094684Y0153678
X0096291Y0153695
X0094906Y0130644
X0091763Y0130627
X0087948Y013061
X0075966Y0124065
X0075727Y0120898
X007574Y0117609
X0075896Y011449
X0058481Y0111333
X0066388Y0102251
X0078522Y0082513
X0078809Y0078776
X009061Y0062032
X0115101Y0092689
X0128031Y0042443
X0132733Y0046566
X0033393Y015803
X0031839Y0156832
X0030075Y0157829
X0028091Y0156933
X0139873Y0144344
X0144737Y0142463
X014734Y0144059
X0149788Y0142459
X0158964Y0142347
X0160052Y0144037
X016084Y0141235
X0169274Y0141459
X0169249Y0144016
X0170579Y0142778
X0170864Y0157808
X0169341Y0157907
X0176377Y0158179
X0181257Y0137451
X0180065Y011418
X0177794Y0102323
X0171712Y010263
X0169351Y010417
X0167313Y0104187
X0165423Y0104236
X0166296Y0101525
X0166291Y0096774
X0157563Y0097456
X0156142Y0097466
X0154606Y0090114
X0155606Y0086892
X0156085Y0083527
X015443Y0083517
X0151565Y0072511
X0151595Y0069509
X0146882Y0071094
X0139717Y0070528
X0137847Y0074276
X0137797Y0078495
X0134655Y0078822
X0137953Y0085417
X0138193Y008954
X0135395Y0092235
X0135323Y0094183
X0134093Y0102632
X0143245Y0103773
X0145545Y011205
X0138002Y0113094
X0133501Y0119142
X0139957Y0128651
X0149104Y0131889
X0159381Y0123071
X0183456Y010093
X019331Y0101647
X0193367Y0094469
X0193427Y0078356
X0193458Y0072713
X0193638Y0069187
X0192594Y0064679
X0193917Y0059105
X0193163Y0053876
X0191887Y0048494
X019276Y0042735
X018587Y0045044
X018298Y0044647
X018351Y0047517
X0184058Y0053462
X0183198Y0057032
X0177765Y0057282
X0177797Y0059101
X0177734Y0060868
X0187799Y0066935
X0188131Y0073242
X0187295Y0078405
X0178377Y0079053
X017865Y0082865
X0171435Y0074989
X0169787Y0075083
X0146174Y0063468
X0145603Y0058401
X0141175Y0058419
X01405Y0053548
X0140704Y0050765
X0137242Y0049739
X0137257Y0047706
X0134805Y0046775
X0134838Y0048916
X0134696Y0050839
X0136947Y0052216
X0134862Y005448
X0133254Y0056365
X0133702Y0059045
X0133216Y0044968
X0147704Y0049998
X0153738Y0053042
T02
X0121876Y0042194
X0124153Y0042032
X013035Y0041776
X0032771Y0090839
X0159625Y0047587
X015965Y0045344
X0161554Y0044455
T03
X0143563Y0041751
X0112021Y0060463
X0150976Y0054001
X0143866Y0046883
T04
X0213122Y0000002
X-000126
Y0142872
X0213122
T05
X0014348Y0122155
T06
X0014348Y0024124
M30
