G04*
G04 #@! TF.GenerationSoftware,Altium Limited,Altium Designer,24.3.1 (35)*
G04*
G04 Layer_Physical_Order=7*
G04 Layer_Color=8421504*
%FSAX25Y25*%
%MOIN*%
G70*
G04*
G04 #@! TF.SameCoordinates,9BAF8AC8-72E2-4161-A934-73288D8D8D4B*
G04*
G04*
G04 #@! TF.FilePolarity,Positive*
G04*
G01*
G75*
%ADD11C,0.01000*%
%ADD13C,0.00700*%
%ADD20C,0.00800*%
%ADD96C,0.04500*%
%ADD98C,0.01200*%
%ADD99C,0.01000*%
%ADD100C,0.01387*%
%ADD101C,0.03500*%
G36*
X0504606Y0429130D02*
X0504281Y0428912D01*
X0504060Y0428582D01*
X0503982Y0428192D01*
X0504060Y0427801D01*
X0504281Y0427471D01*
X0504612Y0427249D01*
X0505002Y0427172D01*
X0505392Y0427249D01*
X0505723Y0427471D01*
X0505730Y0427482D01*
X0505805Y0427371D01*
X0506135Y0427150D01*
X0506526Y0427073D01*
X0506916Y0427150D01*
X0507246Y0427371D01*
X0507468Y0427702D01*
X0507545Y0428092D01*
X0507468Y0428482D01*
X0507246Y0428813D01*
X0506916Y0429034D01*
X0506526Y0429112D01*
X0506135Y0429034D01*
X0505805Y0428813D01*
X0505797Y0428802D01*
X0505723Y0428912D01*
X0505401Y0429128D01*
X0515851Y0429096D01*
X0521869Y0423450D01*
X0521588Y0397751D01*
X0497173Y0398083D01*
X0490694Y0404506D01*
X0488680Y0406636D01*
X0488638Y0414751D01*
X0488599Y0414791D01*
X0488225Y0415183D01*
Y0415521D01*
X0488163Y0415834D01*
X0488093Y0415940D01*
X0487987Y0416098D01*
X0487987Y0416098D01*
X0485159Y0418926D01*
X0484894Y0419103D01*
X0484582Y0419165D01*
X0484582Y0419165D01*
X0484426D01*
X0483962Y0419651D01*
X0443677Y0419508D01*
X0439732Y0415990D01*
Y0415477D01*
X0439726Y0415473D01*
X0439505Y0415143D01*
X0439427Y0414752D01*
X0439505Y0414362D01*
X0439726Y0414032D01*
X0439732Y0414028D01*
Y0399975D01*
X0437019Y0397263D01*
X0436780Y0397024D01*
X0421358D01*
X0418899Y0399482D01*
X0418899Y0413621D01*
X0418139Y0414381D01*
X0417831Y0414689D01*
Y0415110D01*
Y0415111D01*
Y0415111D01*
X0417812Y0415204D01*
X0417769Y0415423D01*
X0417769Y0415423D01*
D01*
X0417768Y0415423D01*
X0417592Y0415687D01*
X0417592Y0415687D01*
X0416158Y0417121D01*
X0416028Y0417208D01*
X0415899Y0417296D01*
X0415896Y0417296D01*
X0415893Y0417298D01*
X0415740Y0417329D01*
X0415588Y0417360D01*
X0412800Y0417382D01*
X0412781Y0417379D01*
X0412762Y0417382D01*
X0412625Y0417349D01*
X0412487Y0417323D01*
X0412471Y0417312D01*
X0412453Y0417308D01*
X0412339Y0417226D01*
X0412221Y0417148D01*
X0412210Y0417132D01*
X0412195Y0417121D01*
X0410772Y0415585D01*
X0410697Y0415463D01*
X0410617Y0415343D01*
X0410614Y0415328D01*
X0410606Y0415314D01*
X0410583Y0415172D01*
X0410555Y0415031D01*
Y0414823D01*
X0409733Y0413902D01*
X0409733Y0267705D01*
X0411794Y0265644D01*
X0484626Y0265644D01*
X0492821Y0273839D01*
X0505826D01*
X0507270Y0272395D01*
X0507270Y0258804D01*
X0501917Y0253451D01*
X0361082Y0253451D01*
Y0254063D01*
X0330733D01*
X0327365Y0257463D01*
X0361082D01*
X0361082Y0425632D01*
X0324387D01*
X0327725Y0429032D01*
X0362712D01*
X0363128Y0429560D01*
X0504606Y0429130D01*
D02*
G37*
G36*
X0487410Y0415521D02*
Y0405606D01*
X0496377Y0396638D01*
X0529479D01*
Y0373350D01*
X0528979Y0372949D01*
X0528971Y0372951D01*
X0528581Y0372873D01*
X0528250Y0372652D01*
X0528029Y0372321D01*
X0527951Y0371931D01*
X0528029Y0371541D01*
X0528250Y0371210D01*
X0528581Y0370989D01*
X0528971Y0370912D01*
X0528979Y0370913D01*
X0529479Y0370513D01*
Y0366193D01*
X0529028Y0365773D01*
X0528638Y0365696D01*
X0528307Y0365474D01*
X0528086Y0365144D01*
X0528008Y0364754D01*
X0528086Y0364363D01*
X0528307Y0364033D01*
X0528638Y0363811D01*
X0529028Y0363734D01*
X0529479Y0363314D01*
Y0350091D01*
X0529088Y0349659D01*
X0528698Y0349582D01*
X0528367Y0349361D01*
X0528146Y0349030D01*
X0528068Y0348640D01*
X0528146Y0348249D01*
X0528367Y0347919D01*
X0528698Y0347698D01*
X0529088Y0347620D01*
X0529479Y0347188D01*
Y0344313D01*
X0529119Y0344017D01*
X0528729Y0343939D01*
X0528398Y0343718D01*
X0528177Y0343388D01*
X0528099Y0342997D01*
X0528177Y0342607D01*
X0528398Y0342276D01*
X0528729Y0342055D01*
X0529119Y0341978D01*
X0529479Y0341682D01*
Y0340639D01*
X0529299Y0340491D01*
X0528909Y0340413D01*
X0528578Y0340193D01*
X0528357Y0339862D01*
X0528279Y0339472D01*
X0528357Y0339081D01*
X0528578Y0338751D01*
X0528909Y0338529D01*
X0529299Y0338452D01*
X0529479Y0338304D01*
Y0335830D01*
X0528979Y0335678D01*
X0528976Y0335684D01*
X0528645Y0335905D01*
X0528255Y0335982D01*
X0527865Y0335905D01*
X0527534Y0335684D01*
X0527313Y0335353D01*
X0527235Y0334963D01*
X0527313Y0334573D01*
X0527534Y0334242D01*
X0527865Y0334021D01*
X0528255Y0333943D01*
X0528645Y0334021D01*
X0528976Y0334242D01*
X0528979Y0334247D01*
X0529479Y0334096D01*
Y0330388D01*
X0529188Y0330331D01*
X0528857Y0330110D01*
X0528636Y0329779D01*
X0528559Y0329389D01*
X0528636Y0328998D01*
X0528857Y0328668D01*
X0529188Y0328447D01*
X0529479Y0328389D01*
Y0325480D01*
X0528979Y0325148D01*
X0528824Y0325179D01*
X0528434Y0325102D01*
X0528103Y0324881D01*
X0527882Y0324550D01*
X0527804Y0324160D01*
X0527882Y0323770D01*
X0528103Y0323439D01*
X0528434Y0323218D01*
X0528824Y0323140D01*
X0528979Y0323171D01*
X0529479Y0322839D01*
Y0314070D01*
X0529473Y0314064D01*
X0528979Y0313849D01*
X0528812Y0313961D01*
X0528421Y0314039D01*
X0528031Y0313961D01*
X0527701Y0313740D01*
X0527480Y0313409D01*
X0527402Y0313019D01*
X0527480Y0312629D01*
X0527701Y0312298D01*
X0528031Y0312077D01*
X0528421Y0311999D01*
X0528812Y0312077D01*
X0528979Y0312189D01*
X0529473Y0311974D01*
X0529479Y0311968D01*
Y0286469D01*
X0528979Y0286317D01*
X0528941Y0286374D01*
X0528611Y0286595D01*
X0528220Y0286672D01*
X0527830Y0286595D01*
X0527499Y0286374D01*
X0527278Y0286043D01*
X0527201Y0285653D01*
X0527278Y0285263D01*
X0527499Y0284932D01*
X0527830Y0284711D01*
X0528220Y0284633D01*
X0528611Y0284711D01*
X0528941Y0284932D01*
X0528979Y0284989D01*
X0529479Y0284837D01*
Y0278794D01*
X0527031Y0276331D01*
X0508775Y0276333D01*
X0508700Y0282799D01*
X0508649Y0287526D01*
X0507692Y0288304D01*
X0496984Y0288304D01*
X0495734Y0287003D01*
X0495639Y0281470D01*
X0493429Y0279831D01*
X0493370Y0277281D01*
X0486410Y0270059D01*
X0485862Y0269978D01*
X0485532Y0270199D01*
X0485142Y0270276D01*
X0484751Y0270199D01*
X0484421Y0269978D01*
X0484199Y0269647D01*
X0484195Y0269622D01*
X0483685D01*
X0483655Y0269773D01*
X0483434Y0270104D01*
X0483103Y0270325D01*
X0482713Y0270402D01*
X0482323Y0270325D01*
X0481992Y0270104D01*
X0481771Y0269773D01*
X0481213Y0269484D01*
X0481127Y0269509D01*
X0481100Y0269647D01*
X0480879Y0269978D01*
X0480548Y0270199D01*
X0480158Y0270276D01*
X0479768Y0270199D01*
X0479437Y0269978D01*
X0479216Y0269647D01*
X0479138Y0269257D01*
X0478871Y0268932D01*
X0446249D01*
X0446192Y0269221D01*
X0445970Y0269552D01*
X0445640Y0269773D01*
X0445250Y0269850D01*
X0444859Y0269773D01*
X0444528Y0269552D01*
X0444308Y0269221D01*
X0444250Y0268932D01*
X0442613D01*
X0442461Y0269432D01*
X0442583Y0269513D01*
X0442804Y0269844D01*
X0442882Y0270234D01*
X0442804Y0270624D01*
X0442583Y0270955D01*
X0442252Y0271176D01*
X0441862Y0271254D01*
X0441472Y0271176D01*
X0441141Y0270955D01*
X0440920Y0270624D01*
X0440842Y0270234D01*
X0440920Y0269844D01*
X0441141Y0269513D01*
X0441263Y0269432D01*
X0441111Y0268932D01*
X0433402D01*
X0433358Y0269157D01*
X0433137Y0269488D01*
X0432806Y0269709D01*
X0432416Y0269786D01*
X0432025Y0269709D01*
X0431695Y0269488D01*
X0431474Y0269157D01*
X0431429Y0268932D01*
X0411371D01*
Y0274485D01*
X0411519Y0274514D01*
X0411850Y0274735D01*
X0412071Y0275066D01*
X0412148Y0275456D01*
X0412071Y0275846D01*
X0411850Y0276177D01*
X0411519Y0276398D01*
X0411371Y0276428D01*
Y0278029D01*
X0411424Y0278073D01*
X0411814Y0278151D01*
X0412145Y0278372D01*
X0412366Y0278702D01*
X0412443Y0279092D01*
X0412366Y0279483D01*
X0412145Y0279813D01*
X0411814Y0280034D01*
X0411424Y0280112D01*
X0411371Y0280156D01*
Y0280911D01*
X0411538Y0281049D01*
X0411929Y0281126D01*
X0412259Y0281347D01*
X0412480Y0281678D01*
X0412558Y0282068D01*
X0412480Y0282459D01*
X0412259Y0282789D01*
X0411929Y0283010D01*
X0411538Y0283088D01*
X0411371Y0283564D01*
Y0284247D01*
X0411677Y0284499D01*
X0412068Y0284576D01*
X0412398Y0284797D01*
X0412619Y0285128D01*
X0412697Y0285518D01*
X0412619Y0285908D01*
X0412398Y0286239D01*
X0412068Y0286460D01*
X0411677Y0286538D01*
X0411371Y0286789D01*
Y0287843D01*
X0411770Y0288273D01*
X0412160Y0288351D01*
X0412491Y0288572D01*
X0412712Y0288903D01*
X0412790Y0289293D01*
X0412712Y0289683D01*
X0412491Y0290014D01*
X0412160Y0290235D01*
X0411954Y0290276D01*
X0411656Y0290761D01*
X0411758Y0291061D01*
X0411886Y0291087D01*
X0412217Y0291308D01*
X0412438Y0291638D01*
X0412515Y0292028D01*
X0412438Y0292419D01*
X0412217Y0292750D01*
X0411886Y0292970D01*
X0411496Y0293048D01*
X0411371Y0293151D01*
Y0293721D01*
X0411465Y0293798D01*
X0411855Y0293875D01*
X0412185Y0294096D01*
X0412406Y0294427D01*
X0412484Y0294817D01*
X0412406Y0295208D01*
X0412185Y0295538D01*
X0411855Y0295759D01*
X0411465Y0295837D01*
X0411371Y0295914D01*
Y0296790D01*
X0411413Y0296825D01*
X0411803Y0296902D01*
X0412134Y0297123D01*
X0412355Y0297454D01*
X0412432Y0297844D01*
X0412355Y0298234D01*
X0412134Y0298565D01*
X0411803Y0298786D01*
X0411413Y0298864D01*
X0411371Y0298898D01*
Y0300570D01*
X0411502Y0300678D01*
X0411892Y0300755D01*
X0412223Y0300976D01*
X0412444Y0301307D01*
X0412521Y0301697D01*
X0412444Y0302087D01*
X0412223Y0302418D01*
X0411892Y0302639D01*
X0411502Y0302717D01*
X0411371Y0302824D01*
Y0312413D01*
X0411622Y0312619D01*
X0412012Y0312697D01*
X0412343Y0312918D01*
X0412564Y0313248D01*
X0412641Y0313639D01*
X0412564Y0314029D01*
X0412343Y0314360D01*
X0412012Y0314581D01*
X0411622Y0314658D01*
X0411371Y0314864D01*
Y0315545D01*
X0411541Y0315685D01*
X0411931Y0315762D01*
X0412261Y0315983D01*
X0412483Y0316314D01*
X0412560Y0316704D01*
X0412483Y0317094D01*
X0412261Y0317425D01*
X0411931Y0317646D01*
X0411541Y0317724D01*
X0411371Y0318200D01*
Y0318221D01*
X0411432Y0318704D01*
X0411822Y0318782D01*
X0412153Y0319003D01*
X0412374Y0319334D01*
X0412452Y0319724D01*
X0412374Y0320114D01*
X0412153Y0320445D01*
X0411822Y0320666D01*
X0411432Y0320744D01*
X0411371Y0320794D01*
Y0321796D01*
X0411432Y0321846D01*
X0411822Y0321924D01*
X0412153Y0322145D01*
X0412374Y0322476D01*
X0412452Y0322866D01*
X0412374Y0323256D01*
X0412153Y0323587D01*
X0411822Y0323808D01*
X0411432Y0323885D01*
X0411371Y0323936D01*
Y0325073D01*
X0411655Y0325306D01*
X0412045Y0325383D01*
X0412376Y0325604D01*
X0412597Y0325935D01*
X0412674Y0326325D01*
X0412597Y0326715D01*
X0412376Y0327046D01*
X0412045Y0327267D01*
X0411655Y0327345D01*
X0411371Y0327798D01*
Y0331297D01*
X0411495Y0331399D01*
X0411885Y0331476D01*
X0412216Y0331697D01*
X0412437Y0332028D01*
X0412515Y0332418D01*
X0412437Y0332808D01*
X0412216Y0333139D01*
X0411885Y0333360D01*
X0411495Y0333438D01*
X0411371Y0333540D01*
Y0334598D01*
X0411470Y0334679D01*
X0411860Y0334757D01*
X0412191Y0334978D01*
X0412412Y0335309D01*
X0412490Y0335699D01*
X0412412Y0336089D01*
X0412191Y0336420D01*
X0411860Y0336641D01*
X0411470Y0336719D01*
X0411371Y0336800D01*
Y0337752D01*
X0411482Y0337843D01*
X0411872Y0337921D01*
X0412203Y0338142D01*
X0412424Y0338473D01*
X0412502Y0338863D01*
X0412424Y0339253D01*
X0412203Y0339584D01*
X0411872Y0339805D01*
X0411482Y0339882D01*
X0411371Y0339974D01*
X0411371Y0346115D01*
X0411520Y0346237D01*
X0411910Y0346315D01*
X0412241Y0346536D01*
X0412462Y0346867D01*
X0412539Y0347257D01*
X0412462Y0347647D01*
X0412241Y0347978D01*
X0411910Y0348199D01*
X0411520Y0348276D01*
X0411371Y0348399D01*
Y0348964D01*
X0411593Y0349146D01*
X0411983Y0349224D01*
X0412314Y0349445D01*
X0412535Y0349776D01*
X0412613Y0350166D01*
X0412535Y0350556D01*
X0412314Y0350887D01*
X0411983Y0351108D01*
X0411593Y0351186D01*
X0411371Y0351651D01*
Y0352197D01*
X0411503Y0352306D01*
X0411893Y0352383D01*
X0412224Y0352605D01*
X0412445Y0352935D01*
X0412523Y0353326D01*
X0412445Y0353716D01*
X0412224Y0354046D01*
X0411893Y0354268D01*
X0411503Y0354345D01*
X0411371Y0354829D01*
Y0355328D01*
X0411540Y0355467D01*
X0411930Y0355544D01*
X0412260Y0355765D01*
X0412481Y0356096D01*
X0412559Y0356486D01*
X0412481Y0356876D01*
X0412260Y0357207D01*
X0411930Y0357428D01*
X0411540Y0357506D01*
X0411371Y0357982D01*
Y0361762D01*
X0411432Y0361812D01*
X0411822Y0361890D01*
X0412153Y0362111D01*
X0412374Y0362442D01*
X0412452Y0362832D01*
X0412374Y0363222D01*
X0412153Y0363553D01*
X0411822Y0363774D01*
X0411432Y0363852D01*
X0411371Y0363902D01*
Y0364724D01*
X0411677Y0364976D01*
X0412068Y0365053D01*
X0412398Y0365274D01*
X0412619Y0365605D01*
X0412697Y0365995D01*
X0412619Y0366385D01*
X0412398Y0366716D01*
X0412068Y0366937D01*
X0411677Y0367015D01*
X0411371Y0367463D01*
Y0368004D01*
X0411582Y0368177D01*
X0411972Y0368255D01*
X0412303Y0368476D01*
X0412524Y0368807D01*
X0412602Y0369197D01*
X0412524Y0369587D01*
X0412303Y0369918D01*
X0411972Y0370139D01*
X0411582Y0370216D01*
X0411371Y0370390D01*
Y0371009D01*
X0411584Y0371184D01*
X0411974Y0371261D01*
X0412304Y0371482D01*
X0412525Y0371813D01*
X0412603Y0372203D01*
X0412525Y0372593D01*
X0412304Y0372924D01*
X0411974Y0373145D01*
X0411584Y0373223D01*
X0411371Y0373690D01*
Y0380366D01*
Y0383601D01*
X0411557Y0383754D01*
X0411947Y0383832D01*
X0412278Y0384053D01*
X0412499Y0384384D01*
X0412576Y0384774D01*
X0412499Y0385164D01*
X0412278Y0385495D01*
X0411947Y0385716D01*
X0411557Y0385793D01*
X0411371Y0386266D01*
Y0386848D01*
X0411401Y0386873D01*
X0411791Y0386951D01*
X0412122Y0387172D01*
X0412343Y0387503D01*
X0412421Y0387893D01*
X0412343Y0388283D01*
X0412122Y0388614D01*
X0411791Y0388835D01*
X0411401Y0388913D01*
X0411371Y0388937D01*
Y0390148D01*
X0411389Y0390163D01*
X0411779Y0390240D01*
X0412110Y0390461D01*
X0412331Y0390792D01*
X0412408Y0391182D01*
X0412331Y0391572D01*
X0412110Y0391903D01*
X0411779Y0392124D01*
X0411389Y0392202D01*
X0411371Y0392216D01*
Y0393119D01*
X0411627Y0393329D01*
X0412017Y0393407D01*
X0412348Y0393628D01*
X0412569Y0393959D01*
X0412647Y0394349D01*
X0412569Y0394739D01*
X0412348Y0395070D01*
X0412017Y0395291D01*
X0411627Y0395369D01*
X0411371Y0395827D01*
Y0399354D01*
X0411574Y0399521D01*
X0411964Y0399598D01*
X0412295Y0399819D01*
X0412516Y0400150D01*
X0412594Y0400540D01*
X0412516Y0400930D01*
X0412295Y0401261D01*
X0411964Y0401482D01*
X0411574Y0401560D01*
X0411371Y0401727D01*
Y0402494D01*
X0411538Y0402631D01*
X0411928Y0402709D01*
X0412259Y0402930D01*
X0412480Y0403261D01*
X0412558Y0403651D01*
X0412480Y0404041D01*
X0412259Y0404372D01*
X0411928Y0404593D01*
X0411538Y0404670D01*
X0411371Y0404808D01*
Y0405672D01*
X0411475Y0405758D01*
X0411865Y0405835D01*
X0412196Y0406056D01*
X0412417Y0406387D01*
X0412495Y0406777D01*
X0412417Y0407167D01*
X0412196Y0407498D01*
X0411865Y0407719D01*
X0411475Y0407797D01*
X0411371Y0407882D01*
Y0408649D01*
X0411468Y0408668D01*
X0411799Y0408889D01*
X0412020Y0409220D01*
X0412097Y0409610D01*
X0412020Y0410001D01*
X0411799Y0410331D01*
X0411468Y0410552D01*
X0411371Y0410572D01*
Y0415031D01*
X0412793Y0416567D01*
X0415581Y0416544D01*
X0417015Y0415110D01*
X0417015Y0399694D01*
X0420502Y0396208D01*
X0438012D01*
X0441106Y0399301D01*
X0441106Y0413990D01*
X0441168Y0414032D01*
X0441389Y0414362D01*
X0441466Y0414752D01*
X0441389Y0415143D01*
X0441199Y0415426D01*
X0444122Y0418349D01*
X0484582D01*
X0487410Y0415521D01*
D02*
G37*
%LPC*%
G36*
X0431952Y0424998D02*
X0431562Y0424921D01*
X0431231Y0424700D01*
X0431143Y0424568D01*
X0431066Y0424683D01*
X0430735Y0424904D01*
X0430345Y0424982D01*
X0429955Y0424904D01*
X0429624Y0424683D01*
X0429403Y0424352D01*
X0429326Y0423962D01*
X0429403Y0423572D01*
X0429624Y0423241D01*
X0429955Y0423020D01*
X0430345Y0422943D01*
X0430735Y0423020D01*
X0431066Y0423241D01*
X0431154Y0423373D01*
X0431231Y0423258D01*
X0431562Y0423037D01*
X0431952Y0422959D01*
X0432342Y0423037D01*
X0432673Y0423258D01*
X0432894Y0423589D01*
X0432971Y0423979D01*
X0432894Y0424369D01*
X0432673Y0424700D01*
X0432342Y0424921D01*
X0431952Y0424998D01*
D02*
G37*
G36*
X0411053Y0425295D02*
X0410663Y0425217D01*
X0410332Y0424996D01*
X0410111Y0424665D01*
X0410034Y0424275D01*
X0410111Y0423885D01*
X0410332Y0423554D01*
X0410663Y0423333D01*
X0411053Y0423256D01*
X0411443Y0423333D01*
X0411774Y0423554D01*
X0411995Y0423885D01*
X0412073Y0424275D01*
X0411995Y0424665D01*
X0411774Y0424996D01*
X0411443Y0425217D01*
X0411053Y0425295D01*
D02*
G37*
G36*
X0405461Y0425227D02*
X0405071Y0425149D01*
X0404740Y0424928D01*
X0404519Y0424598D01*
X0404441Y0424207D01*
X0404519Y0423817D01*
X0404740Y0423487D01*
X0404890Y0423386D01*
X0404663Y0423235D01*
X0404442Y0422904D01*
X0404364Y0422514D01*
X0404442Y0422124D01*
X0404663Y0421793D01*
X0404994Y0421572D01*
X0405384Y0421494D01*
X0405774Y0421572D01*
X0406105Y0421793D01*
X0406326Y0422124D01*
X0406404Y0422514D01*
X0406326Y0422904D01*
X0406105Y0423235D01*
X0405955Y0423335D01*
X0406182Y0423487D01*
X0406403Y0423817D01*
X0406481Y0424207D01*
X0406403Y0424598D01*
X0406182Y0424928D01*
X0405851Y0425149D01*
X0405461Y0425227D01*
D02*
G37*
G36*
X0436515Y0415611D02*
X0436125Y0415533D01*
X0435794Y0415312D01*
X0435573Y0414981D01*
X0435496Y0414591D01*
X0435573Y0414201D01*
X0435794Y0413870D01*
X0436125Y0413649D01*
X0436515Y0413571D01*
X0436905Y0413649D01*
X0437236Y0413870D01*
X0437457Y0414201D01*
X0437535Y0414591D01*
X0437457Y0414981D01*
X0437236Y0415312D01*
X0436905Y0415533D01*
X0436515Y0415611D01*
D02*
G37*
G36*
X0427181Y0414869D02*
X0426791Y0414791D01*
X0426460Y0414570D01*
X0426239Y0414240D01*
X0426161Y0413849D01*
X0426239Y0413459D01*
X0426460Y0413128D01*
X0426791Y0412907D01*
X0427181Y0412830D01*
X0427571Y0412907D01*
X0427902Y0413128D01*
X0428123Y0413459D01*
X0428200Y0413849D01*
X0428123Y0414240D01*
X0427902Y0414570D01*
X0427571Y0414791D01*
X0427181Y0414869D01*
D02*
G37*
G36*
X0423809Y0414833D02*
X0423419Y0414755D01*
X0423088Y0414534D01*
X0422867Y0414203D01*
X0422789Y0413813D01*
X0422867Y0413423D01*
X0423088Y0413092D01*
X0423419Y0412871D01*
X0423809Y0412793D01*
X0424199Y0412871D01*
X0424530Y0413092D01*
X0424751Y0413423D01*
X0424828Y0413813D01*
X0424751Y0414203D01*
X0424530Y0414534D01*
X0424199Y0414755D01*
X0423809Y0414833D01*
D02*
G37*
G36*
X0383690Y0414526D02*
X0383263Y0414441D01*
X0382902Y0414200D01*
X0382660Y0413838D01*
X0382575Y0413411D01*
X0382660Y0412984D01*
X0382902Y0412623D01*
X0383263Y0412381D01*
X0383690Y0412296D01*
X0384117Y0412381D01*
X0384479Y0412623D01*
X0384720Y0412984D01*
X0384805Y0413411D01*
X0384720Y0413838D01*
X0384479Y0414200D01*
X0384117Y0414441D01*
X0383690Y0414526D01*
D02*
G37*
G36*
X0388189Y0414090D02*
X0387762Y0414005D01*
X0387400Y0413764D01*
X0387158Y0413402D01*
X0387074Y0412975D01*
X0387158Y0412548D01*
X0387400Y0412186D01*
X0387762Y0411945D01*
X0388189Y0411860D01*
X0388615Y0411945D01*
X0388977Y0412186D01*
X0389219Y0412548D01*
X0389304Y0412975D01*
X0389219Y0413402D01*
X0388977Y0413764D01*
X0388615Y0414005D01*
X0388189Y0414090D01*
D02*
G37*
G36*
X0376676Y0413421D02*
X0376286Y0413344D01*
X0375955Y0413123D01*
X0375734Y0412792D01*
X0375657Y0412402D01*
X0375734Y0412012D01*
X0375955Y0411681D01*
X0376286Y0411460D01*
X0376676Y0411382D01*
X0377066Y0411460D01*
X0377397Y0411681D01*
X0377618Y0412012D01*
X0377696Y0412402D01*
X0377618Y0412792D01*
X0377397Y0413123D01*
X0377066Y0413344D01*
X0376676Y0413421D01*
D02*
G37*
G36*
X0504910Y0415727D02*
X0504364Y0415619D01*
X0503901Y0415309D01*
X0503591Y0414846D01*
X0503483Y0414300D01*
X0503591Y0413754D01*
X0503901Y0413291D01*
X0504316Y0413013D01*
X0503926Y0412752D01*
X0503617Y0412289D01*
X0503508Y0411743D01*
X0503617Y0411196D01*
X0503926Y0410733D01*
X0504389Y0410424D01*
X0504935Y0410315D01*
X0505481Y0410424D01*
X0505945Y0410733D01*
X0506254Y0411196D01*
X0506345Y0411656D01*
X0506786Y0411743D01*
X0507249Y0412053D01*
X0507558Y0412516D01*
X0507667Y0413062D01*
X0507558Y0413608D01*
X0507249Y0414071D01*
X0506786Y0414381D01*
X0506302Y0414477D01*
X0506229Y0414846D01*
X0505919Y0415309D01*
X0505456Y0415619D01*
X0504910Y0415727D01*
D02*
G37*
G36*
X0495714Y0415749D02*
X0495167Y0415640D01*
X0494704Y0415331D01*
X0494395Y0414868D01*
X0494286Y0414322D01*
X0494349Y0414004D01*
X0494079Y0413950D01*
X0493616Y0413640D01*
X0493306Y0413177D01*
X0493198Y0412631D01*
X0493306Y0412085D01*
X0493616Y0411622D01*
X0494079Y0411312D01*
X0494625Y0411203D01*
X0495117Y0411301D01*
X0495182Y0410973D01*
X0495492Y0410510D01*
X0495955Y0410201D01*
X0496501Y0410092D01*
X0497047Y0410201D01*
X0497510Y0410510D01*
X0497820Y0410973D01*
X0497928Y0411519D01*
X0497820Y0412066D01*
X0497510Y0412529D01*
X0497047Y0412838D01*
X0496501Y0412947D01*
X0496009Y0412849D01*
X0495989Y0412949D01*
X0496260Y0413003D01*
X0496723Y0413312D01*
X0497032Y0413775D01*
X0497141Y0414322D01*
X0497032Y0414868D01*
X0496723Y0415331D01*
X0496260Y0415640D01*
X0495714Y0415749D01*
D02*
G37*
G36*
X0388014Y0411333D02*
X0387587Y0411248D01*
X0387225Y0411006D01*
X0386983Y0410645D01*
X0386898Y0410218D01*
X0386983Y0409791D01*
X0387225Y0409430D01*
X0387587Y0409188D01*
X0388014Y0409103D01*
X0388440Y0409188D01*
X0388802Y0409430D01*
X0389044Y0409791D01*
X0389129Y0410218D01*
X0389044Y0410645D01*
X0388802Y0411006D01*
X0388440Y0411248D01*
X0388014Y0411333D01*
D02*
G37*
G36*
X0383924Y0411102D02*
X0383497Y0411017D01*
X0383136Y0410776D01*
X0382894Y0410414D01*
X0382809Y0409987D01*
X0382894Y0409560D01*
X0383136Y0409199D01*
X0383497Y0408957D01*
X0383924Y0408872D01*
X0384351Y0408957D01*
X0384713Y0409199D01*
X0384954Y0409560D01*
X0385039Y0409987D01*
X0384954Y0410414D01*
X0384713Y0410776D01*
X0384351Y0411017D01*
X0383924Y0411102D01*
D02*
G37*
G36*
X0516919Y0408755D02*
X0516529Y0408677D01*
X0516198Y0408456D01*
X0515977Y0408125D01*
X0515899Y0407735D01*
X0515977Y0407345D01*
X0516198Y0407014D01*
X0516529Y0406793D01*
X0516919Y0406715D01*
X0517309Y0406793D01*
X0517640Y0407014D01*
X0517861Y0407345D01*
X0517938Y0407735D01*
X0517861Y0408125D01*
X0517640Y0408456D01*
X0517309Y0408677D01*
X0516919Y0408755D01*
D02*
G37*
G36*
X0378511Y0408053D02*
X0378120Y0407976D01*
X0377790Y0407755D01*
X0377569Y0407424D01*
X0377491Y0407034D01*
X0377569Y0406644D01*
X0377790Y0406313D01*
X0378120Y0406092D01*
X0378511Y0406014D01*
X0378901Y0406092D01*
X0379232Y0406313D01*
X0379453Y0406644D01*
X0379530Y0407034D01*
X0379453Y0407424D01*
X0379232Y0407755D01*
X0378901Y0407976D01*
X0378511Y0408053D01*
D02*
G37*
G36*
X0383146Y0407859D02*
X0382755Y0407781D01*
X0382425Y0407560D01*
X0382204Y0407229D01*
X0382126Y0406839D01*
X0382204Y0406449D01*
X0382425Y0406118D01*
X0382755Y0405897D01*
X0383146Y0405820D01*
X0383536Y0405897D01*
X0383867Y0406118D01*
X0384088Y0406449D01*
X0384165Y0406839D01*
X0384088Y0407229D01*
X0383867Y0407560D01*
X0383536Y0407781D01*
X0383146Y0407859D01*
D02*
G37*
G36*
X0386366Y0407805D02*
X0385976Y0407727D01*
X0385645Y0407506D01*
X0385424Y0407175D01*
X0385347Y0406785D01*
X0385424Y0406395D01*
X0385645Y0406064D01*
X0385976Y0405843D01*
X0386366Y0405765D01*
X0386756Y0405843D01*
X0387087Y0406064D01*
X0387308Y0406395D01*
X0387386Y0406785D01*
X0387308Y0407175D01*
X0387087Y0407506D01*
X0386756Y0407727D01*
X0386366Y0407805D01*
D02*
G37*
G36*
X0395781Y0407906D02*
X0395355Y0407822D01*
X0394993Y0407580D01*
X0394751Y0407218D01*
X0394666Y0406791D01*
X0394751Y0406365D01*
X0394993Y0406003D01*
X0395355Y0405761D01*
X0395781Y0405676D01*
X0396208Y0405761D01*
X0396570Y0406003D01*
X0396812Y0406365D01*
X0396897Y0406791D01*
X0396812Y0407218D01*
X0396570Y0407580D01*
X0396208Y0407822D01*
X0395781Y0407906D01*
D02*
G37*
G36*
X0371217Y0407678D02*
X0370827Y0407601D01*
X0370496Y0407380D01*
X0370275Y0407049D01*
X0370197Y0406659D01*
X0370275Y0406269D01*
X0370496Y0405938D01*
X0370754Y0405766D01*
X0370563Y0405638D01*
X0370342Y0405307D01*
X0370264Y0404917D01*
X0370342Y0404527D01*
X0370563Y0404196D01*
X0370893Y0403975D01*
X0371284Y0403898D01*
X0371674Y0403975D01*
X0372005Y0404196D01*
X0372226Y0404527D01*
X0372286Y0404830D01*
X0372389Y0404676D01*
X0372719Y0404455D01*
X0373110Y0404377D01*
X0373500Y0404455D01*
X0373831Y0404676D01*
X0374051Y0405007D01*
X0374129Y0405397D01*
X0374051Y0405787D01*
X0373831Y0406118D01*
X0373500Y0406339D01*
X0373110Y0406416D01*
X0372719Y0406339D01*
X0372389Y0406118D01*
X0372168Y0405787D01*
X0372107Y0405484D01*
X0372005Y0405638D01*
X0371747Y0405810D01*
X0371938Y0405938D01*
X0372159Y0406269D01*
X0372237Y0406659D01*
X0372159Y0407049D01*
X0371938Y0407380D01*
X0371607Y0407601D01*
X0371217Y0407678D01*
D02*
G37*
G36*
X0386474Y0404809D02*
X0386084Y0404731D01*
X0385753Y0404510D01*
X0385532Y0404179D01*
X0385455Y0403789D01*
X0385532Y0403399D01*
X0385753Y0403068D01*
X0386084Y0402847D01*
X0386474Y0402770D01*
X0386865Y0402847D01*
X0387195Y0403068D01*
X0387416Y0403399D01*
X0387494Y0403789D01*
X0387416Y0404179D01*
X0387195Y0404510D01*
X0386865Y0404731D01*
X0386474Y0404809D01*
D02*
G37*
G36*
X0395871Y0404945D02*
X0395444Y0404860D01*
X0395082Y0404618D01*
X0394841Y0404256D01*
X0394756Y0403830D01*
X0394841Y0403403D01*
X0395082Y0403041D01*
X0395444Y0402800D01*
X0395871Y0402715D01*
X0396297Y0402800D01*
X0396659Y0403041D01*
X0396901Y0403403D01*
X0396986Y0403830D01*
X0396901Y0404256D01*
X0396659Y0404618D01*
X0396297Y0404860D01*
X0395871Y0404945D01*
D02*
G37*
G36*
X0383160Y0404566D02*
X0382770Y0404488D01*
X0382439Y0404267D01*
X0382218Y0403936D01*
X0382140Y0403546D01*
X0382218Y0403156D01*
X0382439Y0402825D01*
X0382770Y0402604D01*
X0383160Y0402527D01*
X0383550Y0402604D01*
X0383881Y0402825D01*
X0384102Y0403156D01*
X0384180Y0403546D01*
X0384102Y0403936D01*
X0383881Y0404267D01*
X0383550Y0404488D01*
X0383160Y0404566D01*
D02*
G37*
G36*
X0430568Y0401948D02*
X0430177Y0401870D01*
X0429847Y0401649D01*
X0429626Y0401318D01*
X0429548Y0400928D01*
X0429626Y0400538D01*
X0429847Y0400207D01*
X0430177Y0399986D01*
X0430568Y0399908D01*
X0430958Y0399986D01*
X0431289Y0400207D01*
X0431510Y0400538D01*
X0431587Y0400928D01*
X0431510Y0401318D01*
X0431289Y0401649D01*
X0430958Y0401870D01*
X0430568Y0401948D01*
D02*
G37*
G36*
X0427424Y0401931D02*
X0427034Y0401853D01*
X0426704Y0401632D01*
X0426482Y0401301D01*
X0426405Y0400911D01*
X0426482Y0400521D01*
X0426704Y0400190D01*
X0427034Y0399969D01*
X0427424Y0399892D01*
X0427815Y0399969D01*
X0428145Y0400190D01*
X0428366Y0400521D01*
X0428444Y0400911D01*
X0428366Y0401301D01*
X0428145Y0401632D01*
X0427815Y0401853D01*
X0427424Y0401931D01*
D02*
G37*
G36*
X0423609Y0401914D02*
X0423219Y0401836D01*
X0422888Y0401615D01*
X0422667Y0401285D01*
X0422589Y0400894D01*
X0422667Y0400504D01*
X0422888Y0400173D01*
X0423219Y0399952D01*
X0423609Y0399875D01*
X0423999Y0399952D01*
X0424330Y0400173D01*
X0424551Y0400504D01*
X0424628Y0400894D01*
X0424551Y0401285D01*
X0424330Y0401615D01*
X0423999Y0401836D01*
X0423609Y0401914D01*
D02*
G37*
G36*
X0386381Y0401647D02*
X0385991Y0401570D01*
X0385661Y0401349D01*
X0385439Y0401018D01*
X0385362Y0400628D01*
X0385439Y0400238D01*
X0385661Y0399907D01*
X0385991Y0399686D01*
X0386381Y0399608D01*
X0386772Y0399686D01*
X0387102Y0399907D01*
X0387323Y0400238D01*
X0387401Y0400628D01*
X0387323Y0401018D01*
X0387102Y0401349D01*
X0386772Y0401570D01*
X0386381Y0401647D01*
D02*
G37*
G36*
X0383350Y0401582D02*
X0382960Y0401505D01*
X0382629Y0401284D01*
X0382408Y0400953D01*
X0382331Y0400563D01*
X0382408Y0400172D01*
X0382629Y0399842D01*
X0382960Y0399621D01*
X0383350Y0399543D01*
X0383740Y0399621D01*
X0384071Y0399842D01*
X0384292Y0400172D01*
X0384370Y0400563D01*
X0384292Y0400953D01*
X0384071Y0401284D01*
X0383740Y0401505D01*
X0383350Y0401582D01*
D02*
G37*
G36*
X0377242Y0398418D02*
X0376852Y0398341D01*
X0376521Y0398119D01*
X0376300Y0397789D01*
X0376223Y0397398D01*
X0376300Y0397008D01*
X0376521Y0396678D01*
X0376852Y0396457D01*
X0377242Y0396379D01*
X0377632Y0396457D01*
X0377963Y0396678D01*
X0378184Y0397008D01*
X0378262Y0397398D01*
X0378184Y0397789D01*
X0377963Y0398119D01*
X0377632Y0398341D01*
X0377242Y0398418D01*
D02*
G37*
G36*
X0395738Y0398583D02*
X0395311Y0398498D01*
X0394950Y0398257D01*
X0394708Y0397895D01*
X0394623Y0397468D01*
X0394708Y0397041D01*
X0394950Y0396680D01*
X0395311Y0396438D01*
X0395738Y0396353D01*
X0396165Y0396438D01*
X0396527Y0396680D01*
X0396768Y0397041D01*
X0396853Y0397468D01*
X0396768Y0397895D01*
X0396527Y0398257D01*
X0396165Y0398498D01*
X0395738Y0398583D01*
D02*
G37*
G36*
X0386344Y0398356D02*
X0385954Y0398278D01*
X0385623Y0398057D01*
X0385402Y0397726D01*
X0385325Y0397336D01*
X0385402Y0396946D01*
X0385623Y0396615D01*
X0385954Y0396394D01*
X0386344Y0396317D01*
X0386735Y0396394D01*
X0387065Y0396615D01*
X0387286Y0396946D01*
X0387364Y0397336D01*
X0387286Y0397726D01*
X0387065Y0398057D01*
X0386735Y0398278D01*
X0386344Y0398356D01*
D02*
G37*
G36*
X0383517Y0398282D02*
X0383127Y0398204D01*
X0382796Y0397983D01*
X0382575Y0397653D01*
X0382497Y0397263D01*
X0382575Y0396872D01*
X0382796Y0396542D01*
X0383127Y0396321D01*
X0383517Y0396243D01*
X0383907Y0396321D01*
X0384238Y0396542D01*
X0384459Y0396872D01*
X0384537Y0397263D01*
X0384459Y0397653D01*
X0384238Y0397983D01*
X0383907Y0398204D01*
X0383517Y0398282D01*
D02*
G37*
G36*
X0395738Y0395327D02*
X0395311Y0395242D01*
X0394950Y0395000D01*
X0394708Y0394638D01*
X0394623Y0394212D01*
X0394708Y0393785D01*
X0394950Y0393423D01*
X0395311Y0393181D01*
X0395738Y0393096D01*
X0396165Y0393181D01*
X0396527Y0393423D01*
X0396768Y0393785D01*
X0396853Y0394212D01*
X0396768Y0394638D01*
X0396527Y0395000D01*
X0396165Y0395242D01*
X0395738Y0395327D01*
D02*
G37*
G36*
X0383694Y0394815D02*
X0383303Y0394737D01*
X0382973Y0394516D01*
X0382752Y0394185D01*
X0382674Y0393795D01*
X0382752Y0393405D01*
X0382973Y0393074D01*
X0383303Y0392853D01*
X0383694Y0392776D01*
X0384084Y0392853D01*
X0384415Y0393074D01*
X0384636Y0393405D01*
X0384713Y0393795D01*
X0384636Y0394185D01*
X0384415Y0394516D01*
X0384084Y0394737D01*
X0383694Y0394815D01*
D02*
G37*
G36*
X0383308Y0392180D02*
X0382917Y0392102D01*
X0382587Y0391881D01*
X0382366Y0391550D01*
X0382288Y0391160D01*
X0382366Y0390770D01*
X0382587Y0390439D01*
X0382917Y0390218D01*
X0383308Y0390141D01*
X0383698Y0390218D01*
X0384029Y0390439D01*
X0384250Y0390770D01*
X0384327Y0391160D01*
X0384250Y0391550D01*
X0384029Y0391881D01*
X0383698Y0392102D01*
X0383308Y0392180D01*
D02*
G37*
G36*
X0386278Y0392155D02*
X0385888Y0392077D01*
X0385557Y0391856D01*
X0385336Y0391526D01*
X0385258Y0391135D01*
X0385336Y0390745D01*
X0385557Y0390414D01*
X0385888Y0390193D01*
X0386278Y0390116D01*
X0386668Y0390193D01*
X0386999Y0390414D01*
X0387220Y0390745D01*
X0387298Y0391135D01*
X0387220Y0391526D01*
X0386999Y0391856D01*
X0386668Y0392077D01*
X0386278Y0392155D01*
D02*
G37*
G36*
X0395503Y0391988D02*
X0395076Y0391903D01*
X0394714Y0391661D01*
X0394473Y0391299D01*
X0394388Y0390873D01*
X0394473Y0390446D01*
X0394714Y0390084D01*
X0395076Y0389842D01*
X0395503Y0389757D01*
X0395930Y0389842D01*
X0396291Y0390084D01*
X0396533Y0390446D01*
X0396618Y0390873D01*
X0396533Y0391299D01*
X0396291Y0391661D01*
X0395930Y0391903D01*
X0395503Y0391988D01*
D02*
G37*
G36*
X0386700Y0389607D02*
X0386310Y0389529D01*
X0385979Y0389308D01*
X0385758Y0388978D01*
X0385681Y0388587D01*
X0385758Y0388197D01*
X0385979Y0387866D01*
X0386310Y0387645D01*
X0386700Y0387568D01*
X0387091Y0387645D01*
X0387421Y0387866D01*
X0387642Y0388197D01*
X0387720Y0388587D01*
X0387642Y0388978D01*
X0387421Y0389308D01*
X0387091Y0389529D01*
X0386700Y0389607D01*
D02*
G37*
G36*
X0383345Y0388983D02*
X0382955Y0388905D01*
X0382624Y0388684D01*
X0382403Y0388353D01*
X0382325Y0387963D01*
X0382403Y0387573D01*
X0382624Y0387242D01*
X0382955Y0387021D01*
X0383345Y0386944D01*
X0383735Y0387021D01*
X0384066Y0387242D01*
X0384287Y0387573D01*
X0384365Y0387963D01*
X0384287Y0388353D01*
X0384066Y0388684D01*
X0383735Y0388905D01*
X0383345Y0388983D01*
D02*
G37*
G36*
X0395642Y0388837D02*
X0395216Y0388752D01*
X0394854Y0388510D01*
X0394612Y0388149D01*
X0394527Y0387722D01*
X0394612Y0387295D01*
X0394854Y0386933D01*
X0395216Y0386692D01*
X0395642Y0386607D01*
X0396069Y0386692D01*
X0396431Y0386933D01*
X0396673Y0387295D01*
X0396758Y0387722D01*
X0396673Y0388149D01*
X0396431Y0388510D01*
X0396069Y0388752D01*
X0395642Y0388837D01*
D02*
G37*
G36*
X0386278Y0385886D02*
X0385888Y0385808D01*
X0385557Y0385588D01*
X0385336Y0385257D01*
X0385258Y0384866D01*
X0385336Y0384476D01*
X0385557Y0384146D01*
X0385888Y0383925D01*
X0386278Y0383847D01*
X0386668Y0383925D01*
X0386999Y0384146D01*
X0387220Y0384476D01*
X0387298Y0384866D01*
X0387220Y0385257D01*
X0386999Y0385588D01*
X0386668Y0385808D01*
X0386278Y0385886D01*
D02*
G37*
G36*
X0398835Y0386039D02*
X0398408Y0385954D01*
X0398046Y0385713D01*
X0397804Y0385351D01*
X0397720Y0384924D01*
X0397804Y0384497D01*
X0398046Y0384136D01*
X0398408Y0383894D01*
X0398835Y0383809D01*
X0399261Y0383894D01*
X0399623Y0384136D01*
X0399865Y0384497D01*
X0399950Y0384924D01*
X0399865Y0385351D01*
X0399623Y0385713D01*
X0399261Y0385954D01*
X0398835Y0386039D01*
D02*
G37*
G36*
X0401964Y0385989D02*
X0401537Y0385904D01*
X0401175Y0385663D01*
X0400933Y0385301D01*
X0400848Y0384874D01*
X0400933Y0384447D01*
X0401175Y0384086D01*
X0401537Y0383844D01*
X0401964Y0383759D01*
X0402390Y0383844D01*
X0402752Y0384086D01*
X0402994Y0384447D01*
X0403079Y0384874D01*
X0402994Y0385301D01*
X0402752Y0385663D01*
X0402390Y0385904D01*
X0401964Y0385989D01*
D02*
G37*
G36*
X0383370Y0385760D02*
X0382980Y0385683D01*
X0382649Y0385462D01*
X0382428Y0385131D01*
X0382351Y0384741D01*
X0382428Y0384350D01*
X0382649Y0384020D01*
X0382980Y0383799D01*
X0383370Y0383721D01*
X0383760Y0383799D01*
X0384091Y0384020D01*
X0384312Y0384350D01*
X0384390Y0384741D01*
X0384312Y0385131D01*
X0384091Y0385462D01*
X0383760Y0385683D01*
X0383370Y0385760D01*
D02*
G37*
G36*
X0376818Y0384464D02*
X0376428Y0384386D01*
X0376097Y0384165D01*
X0375876Y0383835D01*
X0375798Y0383444D01*
X0375876Y0383054D01*
X0376097Y0382723D01*
X0376428Y0382502D01*
X0376818Y0382425D01*
X0377208Y0382502D01*
X0377539Y0382723D01*
X0377760Y0383054D01*
X0377837Y0383444D01*
X0377760Y0383835D01*
X0377539Y0384165D01*
X0377208Y0384386D01*
X0376818Y0384464D01*
D02*
G37*
G36*
X0386459Y0382838D02*
X0386032Y0382753D01*
X0385670Y0382511D01*
X0385428Y0382150D01*
X0385344Y0381723D01*
X0385428Y0381296D01*
X0385670Y0380935D01*
X0386032Y0380693D01*
X0386459Y0380608D01*
X0386885Y0380693D01*
X0387247Y0380935D01*
X0387489Y0381296D01*
X0387574Y0381723D01*
X0387489Y0382150D01*
X0387247Y0382511D01*
X0386885Y0382753D01*
X0386459Y0382838D01*
D02*
G37*
G36*
X0401931Y0382783D02*
X0401504Y0382698D01*
X0401142Y0382456D01*
X0400900Y0382094D01*
X0400815Y0381667D01*
X0400900Y0381241D01*
X0401142Y0380879D01*
X0401504Y0380637D01*
X0401931Y0380552D01*
X0402357Y0380637D01*
X0402719Y0380879D01*
X0402961Y0381241D01*
X0403046Y0381667D01*
X0402961Y0382094D01*
X0402719Y0382456D01*
X0402357Y0382698D01*
X0401931Y0382783D01*
D02*
G37*
G36*
X0394142Y0382732D02*
X0393716Y0382647D01*
X0393354Y0382405D01*
X0393112Y0382043D01*
X0393027Y0381617D01*
X0393112Y0381190D01*
X0393354Y0380828D01*
X0393716Y0380586D01*
X0394142Y0380502D01*
X0394569Y0380586D01*
X0394931Y0380828D01*
X0395173Y0381190D01*
X0395257Y0381617D01*
X0395173Y0382043D01*
X0394931Y0382405D01*
X0394569Y0382647D01*
X0394142Y0382732D01*
D02*
G37*
G36*
X0405108Y0382372D02*
X0404718Y0382294D01*
X0404387Y0382073D01*
X0404166Y0381743D01*
X0404088Y0381352D01*
X0404166Y0380962D01*
X0404387Y0380631D01*
X0404718Y0380410D01*
X0405108Y0380333D01*
X0405498Y0380410D01*
X0405829Y0380631D01*
X0406050Y0380962D01*
X0406128Y0381352D01*
X0406050Y0381743D01*
X0405829Y0382073D01*
X0405498Y0382294D01*
X0405108Y0382372D01*
D02*
G37*
G36*
X0383280Y0379607D02*
X0382890Y0379529D01*
X0382559Y0379308D01*
X0382338Y0378977D01*
X0382261Y0378587D01*
X0382338Y0378197D01*
X0382559Y0377866D01*
X0382890Y0377645D01*
X0383280Y0377568D01*
X0383671Y0377645D01*
X0384001Y0377866D01*
X0384222Y0378197D01*
X0384300Y0378587D01*
X0384222Y0378977D01*
X0384001Y0379308D01*
X0383671Y0379529D01*
X0383280Y0379607D01*
D02*
G37*
G36*
X0408138Y0377417D02*
X0407748Y0377340D01*
X0407417Y0377119D01*
X0407196Y0376788D01*
X0407118Y0376398D01*
X0407196Y0376008D01*
X0407417Y0375677D01*
X0407748Y0375456D01*
X0408138Y0375378D01*
X0408528Y0375456D01*
X0408859Y0375677D01*
X0409080Y0376008D01*
X0409157Y0376398D01*
X0409080Y0376788D01*
X0408859Y0377119D01*
X0408528Y0377340D01*
X0408138Y0377417D01*
D02*
G37*
G36*
X0404717Y0376945D02*
X0404327Y0376868D01*
X0403996Y0376647D01*
X0403775Y0376316D01*
X0403698Y0375926D01*
X0403775Y0375535D01*
X0403996Y0375205D01*
X0404327Y0374984D01*
X0404717Y0374906D01*
X0405107Y0374984D01*
X0405438Y0375205D01*
X0405659Y0375535D01*
X0405737Y0375926D01*
X0405659Y0376316D01*
X0405438Y0376647D01*
X0405107Y0376868D01*
X0404717Y0376945D01*
D02*
G37*
G36*
X0401841Y0376899D02*
X0401414Y0376814D01*
X0401052Y0376572D01*
X0400811Y0376211D01*
X0400726Y0375784D01*
X0400811Y0375357D01*
X0401052Y0374995D01*
X0401414Y0374754D01*
X0401841Y0374669D01*
X0402268Y0374754D01*
X0402630Y0374995D01*
X0402871Y0375357D01*
X0402956Y0375784D01*
X0402871Y0376211D01*
X0402630Y0376572D01*
X0402268Y0376814D01*
X0401841Y0376899D01*
D02*
G37*
G36*
X0383220Y0376448D02*
X0382829Y0376370D01*
X0382499Y0376149D01*
X0382278Y0375819D01*
X0382200Y0375429D01*
X0382278Y0375038D01*
X0382499Y0374708D01*
X0382829Y0374486D01*
X0383220Y0374409D01*
X0383610Y0374486D01*
X0383941Y0374708D01*
X0384162Y0375038D01*
X0384239Y0375429D01*
X0384162Y0375819D01*
X0383941Y0376149D01*
X0383610Y0376370D01*
X0383220Y0376448D01*
D02*
G37*
G36*
X0386335Y0376352D02*
X0385945Y0376275D01*
X0385614Y0376054D01*
X0385393Y0375723D01*
X0385315Y0375333D01*
X0385393Y0374942D01*
X0385614Y0374612D01*
X0385945Y0374391D01*
X0386335Y0374313D01*
X0386725Y0374391D01*
X0387056Y0374612D01*
X0387277Y0374942D01*
X0387354Y0375333D01*
X0387277Y0375723D01*
X0387056Y0376054D01*
X0386725Y0376275D01*
X0386335Y0376352D01*
D02*
G37*
G36*
X0398833Y0376489D02*
X0398406Y0376404D01*
X0398044Y0376163D01*
X0397802Y0375801D01*
X0397717Y0375374D01*
X0397802Y0374947D01*
X0398044Y0374586D01*
X0398406Y0374344D01*
X0398833Y0374259D01*
X0399259Y0374344D01*
X0399621Y0374586D01*
X0399863Y0374947D01*
X0399948Y0375374D01*
X0399863Y0375801D01*
X0399621Y0376163D01*
X0399259Y0376404D01*
X0398833Y0376489D01*
D02*
G37*
G36*
X0373252Y0374494D02*
X0372862Y0374416D01*
X0372531Y0374195D01*
X0372310Y0373865D01*
X0372232Y0373474D01*
X0372310Y0373084D01*
X0372531Y0372753D01*
X0372862Y0372532D01*
X0373252Y0372455D01*
X0373642Y0372532D01*
X0373973Y0372753D01*
X0374194Y0373084D01*
X0374271Y0373474D01*
X0374194Y0373865D01*
X0373973Y0374195D01*
X0373642Y0374416D01*
X0373252Y0374494D01*
D02*
G37*
G36*
X0402049Y0373651D02*
X0401622Y0373566D01*
X0401260Y0373324D01*
X0401018Y0372962D01*
X0400934Y0372535D01*
X0401018Y0372109D01*
X0401260Y0371747D01*
X0401622Y0371505D01*
X0402049Y0371420D01*
X0402476Y0371505D01*
X0402837Y0371747D01*
X0403079Y0372109D01*
X0403164Y0372535D01*
X0403079Y0372962D01*
X0402837Y0373324D01*
X0402476Y0373566D01*
X0402049Y0373651D01*
D02*
G37*
G36*
X0383284Y0373285D02*
X0382893Y0373207D01*
X0382563Y0372986D01*
X0382342Y0372655D01*
X0382264Y0372265D01*
X0382342Y0371875D01*
X0382563Y0371544D01*
X0382893Y0371323D01*
X0383284Y0371246D01*
X0383674Y0371323D01*
X0384004Y0371544D01*
X0384226Y0371875D01*
X0384303Y0372265D01*
X0384226Y0372655D01*
X0384004Y0372986D01*
X0383674Y0373207D01*
X0383284Y0373285D01*
D02*
G37*
G36*
X0386471Y0373261D02*
X0386081Y0373183D01*
X0385750Y0372962D01*
X0385529Y0372631D01*
X0385451Y0372241D01*
X0385529Y0371851D01*
X0385750Y0371520D01*
X0386081Y0371299D01*
X0386471Y0371222D01*
X0386861Y0371299D01*
X0387192Y0371520D01*
X0387413Y0371851D01*
X0387490Y0372241D01*
X0387413Y0372631D01*
X0387192Y0372962D01*
X0386861Y0373183D01*
X0386471Y0373261D01*
D02*
G37*
G36*
X0398416Y0373437D02*
X0397989Y0373352D01*
X0397627Y0373111D01*
X0397385Y0372749D01*
X0397301Y0372322D01*
X0397385Y0371895D01*
X0397627Y0371534D01*
X0397989Y0371292D01*
X0398416Y0371207D01*
X0398842Y0371292D01*
X0399204Y0371534D01*
X0399446Y0371895D01*
X0399531Y0372322D01*
X0399446Y0372749D01*
X0399204Y0373111D01*
X0398842Y0373352D01*
X0398416Y0373437D01*
D02*
G37*
G36*
X0386430Y0370139D02*
X0386040Y0370061D01*
X0385709Y0369840D01*
X0385488Y0369510D01*
X0385410Y0369119D01*
X0385488Y0368729D01*
X0385709Y0368398D01*
X0386040Y0368177D01*
X0386430Y0368100D01*
X0386820Y0368177D01*
X0387151Y0368398D01*
X0387372Y0368729D01*
X0387450Y0369119D01*
X0387372Y0369510D01*
X0387151Y0369840D01*
X0386820Y0370061D01*
X0386430Y0370139D01*
D02*
G37*
G36*
X0383331Y0370068D02*
X0382941Y0369991D01*
X0382610Y0369770D01*
X0382389Y0369439D01*
X0382311Y0369049D01*
X0382389Y0368658D01*
X0382610Y0368328D01*
X0382941Y0368107D01*
X0383331Y0368029D01*
X0383721Y0368107D01*
X0384052Y0368328D01*
X0384273Y0368658D01*
X0384350Y0369049D01*
X0384273Y0369439D01*
X0384052Y0369770D01*
X0383721Y0369991D01*
X0383331Y0370068D01*
D02*
G37*
G36*
X0386418Y0367034D02*
X0386028Y0366957D01*
X0385697Y0366736D01*
X0385476Y0366405D01*
X0385398Y0366015D01*
X0385476Y0365624D01*
X0385697Y0365294D01*
X0386028Y0365073D01*
X0386418Y0364995D01*
X0386808Y0365073D01*
X0387139Y0365294D01*
X0387360Y0365624D01*
X0387437Y0366015D01*
X0387360Y0366405D01*
X0387139Y0366736D01*
X0386808Y0366957D01*
X0386418Y0367034D01*
D02*
G37*
G36*
X0395607Y0367080D02*
X0395180Y0366995D01*
X0394818Y0366754D01*
X0394577Y0366392D01*
X0394492Y0365965D01*
X0394577Y0365538D01*
X0394818Y0365177D01*
X0395180Y0364935D01*
X0395607Y0364850D01*
X0396034Y0364935D01*
X0396395Y0365177D01*
X0396637Y0365538D01*
X0396722Y0365965D01*
X0396637Y0366392D01*
X0396395Y0366754D01*
X0396034Y0366995D01*
X0395607Y0367080D01*
D02*
G37*
G36*
X0383658Y0366723D02*
X0383268Y0366646D01*
X0382937Y0366425D01*
X0382716Y0366094D01*
X0382638Y0365704D01*
X0382716Y0365313D01*
X0382937Y0364983D01*
X0383268Y0364762D01*
X0383658Y0364684D01*
X0384048Y0364762D01*
X0384379Y0364983D01*
X0384600Y0365313D01*
X0384678Y0365704D01*
X0384600Y0366094D01*
X0384379Y0366425D01*
X0384048Y0366646D01*
X0383658Y0366723D01*
D02*
G37*
G36*
X0368432Y0362239D02*
X0368005Y0362154D01*
X0367643Y0361912D01*
X0367402Y0361550D01*
X0367317Y0361123D01*
X0367402Y0360697D01*
X0367643Y0360335D01*
X0368005Y0360093D01*
X0368432Y0360008D01*
X0368859Y0360093D01*
X0369220Y0360335D01*
X0369462Y0360697D01*
X0369547Y0361123D01*
X0369462Y0361550D01*
X0369220Y0361912D01*
X0368859Y0362154D01*
X0368432Y0362239D01*
D02*
G37*
G36*
X0373009Y0361922D02*
X0372619Y0361844D01*
X0372288Y0361623D01*
X0372067Y0361293D01*
X0371990Y0360902D01*
X0372067Y0360512D01*
X0372288Y0360181D01*
X0372619Y0359961D01*
X0373009Y0359883D01*
X0373400Y0359961D01*
X0373730Y0360181D01*
X0373951Y0360512D01*
X0374029Y0360902D01*
X0373951Y0361293D01*
X0373730Y0361623D01*
X0373400Y0361844D01*
X0373009Y0361922D01*
D02*
G37*
G36*
X0395533Y0360865D02*
X0395106Y0360780D01*
X0394744Y0360539D01*
X0394503Y0360177D01*
X0394418Y0359750D01*
X0394503Y0359323D01*
X0394744Y0358962D01*
X0395106Y0358720D01*
X0395533Y0358635D01*
X0395960Y0358720D01*
X0396322Y0358962D01*
X0396563Y0359323D01*
X0396648Y0359750D01*
X0396563Y0360177D01*
X0396322Y0360539D01*
X0395960Y0360780D01*
X0395533Y0360865D01*
D02*
G37*
G36*
X0386301Y0360481D02*
X0385911Y0360403D01*
X0385580Y0360182D01*
X0385359Y0359852D01*
X0385281Y0359462D01*
X0385359Y0359071D01*
X0385580Y0358741D01*
X0385911Y0358520D01*
X0386301Y0358442D01*
X0386691Y0358520D01*
X0387022Y0358741D01*
X0387243Y0359071D01*
X0387321Y0359462D01*
X0387243Y0359852D01*
X0387022Y0360182D01*
X0386691Y0360403D01*
X0386301Y0360481D01*
D02*
G37*
G36*
X0383233Y0360242D02*
X0382843Y0360164D01*
X0382512Y0359943D01*
X0382291Y0359612D01*
X0382213Y0359222D01*
X0382291Y0358832D01*
X0382512Y0358501D01*
X0382843Y0358280D01*
X0383233Y0358202D01*
X0383623Y0358280D01*
X0383954Y0358501D01*
X0384175Y0358832D01*
X0384252Y0359222D01*
X0384175Y0359612D01*
X0383954Y0359943D01*
X0383623Y0360164D01*
X0383233Y0360242D01*
D02*
G37*
G36*
X0395533Y0357715D02*
X0395106Y0357630D01*
X0394744Y0357388D01*
X0394503Y0357026D01*
X0394418Y0356599D01*
X0394503Y0356173D01*
X0394744Y0355811D01*
X0395106Y0355569D01*
X0395533Y0355484D01*
X0395960Y0355569D01*
X0396322Y0355811D01*
X0396563Y0356173D01*
X0396648Y0356599D01*
X0396563Y0357026D01*
X0396322Y0357388D01*
X0395960Y0357630D01*
X0395533Y0357715D01*
D02*
G37*
G36*
X0383220Y0357435D02*
X0382829Y0357357D01*
X0382499Y0357136D01*
X0382278Y0356805D01*
X0382200Y0356415D01*
X0382278Y0356025D01*
X0382499Y0355694D01*
X0382829Y0355473D01*
X0383220Y0355395D01*
X0383610Y0355473D01*
X0383941Y0355694D01*
X0384161Y0356025D01*
X0384239Y0356415D01*
X0384161Y0356805D01*
X0383941Y0357136D01*
X0383610Y0357357D01*
X0383220Y0357435D01*
D02*
G37*
G36*
X0386342Y0357284D02*
X0385951Y0357206D01*
X0385620Y0356985D01*
X0385400Y0356654D01*
X0385322Y0356264D01*
X0385400Y0355874D01*
X0385620Y0355543D01*
X0385951Y0355322D01*
X0386342Y0355244D01*
X0386732Y0355322D01*
X0387062Y0355543D01*
X0387283Y0355874D01*
X0387361Y0356264D01*
X0387283Y0356654D01*
X0387062Y0356985D01*
X0386732Y0357206D01*
X0386342Y0357284D01*
D02*
G37*
G36*
X0395533Y0354538D02*
X0395106Y0354454D01*
X0394744Y0354212D01*
X0394503Y0353850D01*
X0394418Y0353423D01*
X0394503Y0352997D01*
X0394744Y0352635D01*
X0395106Y0352393D01*
X0395533Y0352308D01*
X0395960Y0352393D01*
X0396322Y0352635D01*
X0396563Y0352997D01*
X0396648Y0353423D01*
X0396563Y0353850D01*
X0396322Y0354212D01*
X0395960Y0354454D01*
X0395533Y0354538D01*
D02*
G37*
G36*
X0383192Y0354134D02*
X0382802Y0354057D01*
X0382471Y0353836D01*
X0382250Y0353505D01*
X0382172Y0353115D01*
X0382250Y0352724D01*
X0382471Y0352394D01*
X0382802Y0352173D01*
X0383192Y0352095D01*
X0383582Y0352173D01*
X0383913Y0352394D01*
X0384134Y0352724D01*
X0384211Y0353115D01*
X0384134Y0353505D01*
X0383913Y0353836D01*
X0383582Y0354057D01*
X0383192Y0354134D01*
D02*
G37*
G36*
X0386342Y0354134D02*
X0385951Y0354057D01*
X0385620Y0353836D01*
X0385400Y0353505D01*
X0385322Y0353115D01*
X0385400Y0352724D01*
X0385620Y0352394D01*
X0385951Y0352173D01*
X0386342Y0352095D01*
X0386732Y0352173D01*
X0387062Y0352394D01*
X0387283Y0352724D01*
X0387361Y0353115D01*
X0387283Y0353505D01*
X0387062Y0353836D01*
X0386732Y0354057D01*
X0386342Y0354134D01*
D02*
G37*
G36*
X0376897Y0352861D02*
X0376506Y0352783D01*
X0376176Y0352562D01*
X0375955Y0352232D01*
X0375877Y0351841D01*
X0375955Y0351451D01*
X0376176Y0351120D01*
X0376506Y0350899D01*
X0376897Y0350822D01*
X0377287Y0350899D01*
X0377618Y0351120D01*
X0377839Y0351451D01*
X0377916Y0351841D01*
X0377839Y0352232D01*
X0377618Y0352562D01*
X0377287Y0352783D01*
X0376897Y0352861D01*
D02*
G37*
G36*
X0386597Y0351245D02*
X0386207Y0351167D01*
X0385877Y0350946D01*
X0385655Y0350616D01*
X0385578Y0350225D01*
X0385655Y0349835D01*
X0385877Y0349504D01*
X0386207Y0349283D01*
X0386597Y0349206D01*
X0386988Y0349283D01*
X0387318Y0349504D01*
X0387540Y0349835D01*
X0387617Y0350225D01*
X0387540Y0350616D01*
X0387318Y0350946D01*
X0386988Y0351167D01*
X0386597Y0351245D01*
D02*
G37*
G36*
X0383192Y0351228D02*
X0382802Y0351150D01*
X0382471Y0350929D01*
X0382250Y0350598D01*
X0382172Y0350208D01*
X0382250Y0349818D01*
X0382471Y0349487D01*
X0382802Y0349266D01*
X0383192Y0349189D01*
X0383582Y0349266D01*
X0383913Y0349487D01*
X0384134Y0349818D01*
X0384211Y0350208D01*
X0384134Y0350598D01*
X0383913Y0350929D01*
X0383582Y0351150D01*
X0383192Y0351228D01*
D02*
G37*
G36*
X0395533Y0351405D02*
X0395106Y0351320D01*
X0394744Y0351078D01*
X0394503Y0350716D01*
X0394418Y0350290D01*
X0394503Y0349863D01*
X0394744Y0349501D01*
X0395106Y0349259D01*
X0395533Y0349174D01*
X0395960Y0349259D01*
X0396322Y0349501D01*
X0396563Y0349863D01*
X0396648Y0350290D01*
X0396563Y0350716D01*
X0396322Y0351078D01*
X0395960Y0351320D01*
X0395533Y0351405D01*
D02*
G37*
G36*
X0388305Y0348420D02*
X0387915Y0348343D01*
X0387584Y0348122D01*
X0387363Y0347791D01*
X0387285Y0347401D01*
X0387363Y0347011D01*
X0387584Y0346680D01*
X0387915Y0346459D01*
X0388305Y0346381D01*
X0388695Y0346459D01*
X0389026Y0346680D01*
X0389247Y0347011D01*
X0389324Y0347401D01*
X0389247Y0347791D01*
X0389026Y0348122D01*
X0388695Y0348343D01*
X0388305Y0348420D01*
D02*
G37*
G36*
X0384628Y0348357D02*
X0384238Y0348280D01*
X0383907Y0348059D01*
X0383686Y0347728D01*
X0383609Y0347338D01*
X0383686Y0346948D01*
X0383907Y0346617D01*
X0384238Y0346396D01*
X0384628Y0346318D01*
X0385018Y0346396D01*
X0385349Y0346617D01*
X0385570Y0346948D01*
X0385648Y0347338D01*
X0385570Y0347728D01*
X0385349Y0348059D01*
X0385018Y0348280D01*
X0384628Y0348357D01*
D02*
G37*
G36*
X0386392Y0336755D02*
X0386002Y0336678D01*
X0385671Y0336457D01*
X0385450Y0336126D01*
X0385372Y0335736D01*
X0385450Y0335346D01*
X0385671Y0335015D01*
X0386002Y0334794D01*
X0386392Y0334716D01*
X0386782Y0334794D01*
X0387113Y0335015D01*
X0387334Y0335346D01*
X0387411Y0335736D01*
X0387334Y0336126D01*
X0387113Y0336457D01*
X0386782Y0336678D01*
X0386392Y0336755D01*
D02*
G37*
G36*
X0392516Y0336917D02*
X0392089Y0336832D01*
X0391727Y0336590D01*
X0391486Y0336228D01*
X0391401Y0335802D01*
X0391486Y0335375D01*
X0391727Y0335013D01*
X0392089Y0334771D01*
X0392516Y0334686D01*
X0392943Y0334771D01*
X0393304Y0335013D01*
X0393546Y0335375D01*
X0393631Y0335802D01*
X0393546Y0336228D01*
X0393304Y0336590D01*
X0392943Y0336832D01*
X0392516Y0336917D01*
D02*
G37*
G36*
X0383232Y0336607D02*
X0382842Y0336529D01*
X0382511Y0336308D01*
X0382290Y0335977D01*
X0382213Y0335587D01*
X0382290Y0335197D01*
X0382511Y0334866D01*
X0382842Y0334645D01*
X0383232Y0334567D01*
X0383622Y0334645D01*
X0383953Y0334866D01*
X0384174Y0335197D01*
X0384252Y0335587D01*
X0384174Y0335977D01*
X0383953Y0336308D01*
X0383622Y0336529D01*
X0383232Y0336607D01*
D02*
G37*
G36*
X0376947Y0335280D02*
X0376557Y0335203D01*
X0376226Y0334982D01*
X0376006Y0334651D01*
X0375928Y0334261D01*
X0376006Y0333871D01*
X0376226Y0333540D01*
X0376557Y0333319D01*
X0376947Y0333241D01*
X0377338Y0333319D01*
X0377668Y0333540D01*
X0377889Y0333871D01*
X0377967Y0334261D01*
X0377889Y0334651D01*
X0377668Y0334982D01*
X0377338Y0335203D01*
X0376947Y0335280D01*
D02*
G37*
G36*
X0373718Y0335210D02*
X0373328Y0335132D01*
X0372997Y0334911D01*
X0372776Y0334581D01*
X0372698Y0334190D01*
X0372776Y0333800D01*
X0372997Y0333470D01*
X0373328Y0333248D01*
X0373718Y0333171D01*
X0374108Y0333248D01*
X0374439Y0333470D01*
X0374660Y0333800D01*
X0374738Y0334190D01*
X0374660Y0334581D01*
X0374439Y0334911D01*
X0374108Y0335132D01*
X0373718Y0335210D01*
D02*
G37*
G36*
X0386309Y0333668D02*
X0385919Y0333590D01*
X0385588Y0333369D01*
X0385367Y0333038D01*
X0385289Y0332648D01*
X0385367Y0332258D01*
X0385588Y0331927D01*
X0385919Y0331706D01*
X0386309Y0331629D01*
X0386699Y0331706D01*
X0387030Y0331927D01*
X0387251Y0332258D01*
X0387328Y0332648D01*
X0387251Y0333038D01*
X0387030Y0333369D01*
X0386699Y0333590D01*
X0386309Y0333668D01*
D02*
G37*
G36*
X0393052Y0333801D02*
X0392625Y0333716D01*
X0392263Y0333474D01*
X0392021Y0333113D01*
X0391936Y0332686D01*
X0392021Y0332259D01*
X0392263Y0331897D01*
X0392625Y0331656D01*
X0393052Y0331571D01*
X0393478Y0331656D01*
X0393840Y0331897D01*
X0394082Y0332259D01*
X0394167Y0332686D01*
X0394082Y0333113D01*
X0393840Y0333474D01*
X0393478Y0333716D01*
X0393052Y0333801D01*
D02*
G37*
G36*
X0383225Y0333607D02*
X0382835Y0333529D01*
X0382504Y0333308D01*
X0382283Y0332977D01*
X0382205Y0332587D01*
X0382283Y0332197D01*
X0382504Y0331866D01*
X0382835Y0331645D01*
X0383225Y0331568D01*
X0383615Y0331645D01*
X0383946Y0331866D01*
X0384167Y0332197D01*
X0384244Y0332587D01*
X0384167Y0332977D01*
X0383946Y0333308D01*
X0383615Y0333529D01*
X0383225Y0333607D01*
D02*
G37*
G36*
X0383295Y0330412D02*
X0382905Y0330334D01*
X0382574Y0330113D01*
X0382353Y0329783D01*
X0382275Y0329392D01*
X0382353Y0329002D01*
X0382574Y0328672D01*
X0382905Y0328450D01*
X0383295Y0328373D01*
X0383685Y0328450D01*
X0384016Y0328672D01*
X0384237Y0329002D01*
X0384314Y0329392D01*
X0384237Y0329783D01*
X0384016Y0330113D01*
X0383685Y0330334D01*
X0383295Y0330412D01*
D02*
G37*
G36*
X0386428Y0330323D02*
X0386038Y0330245D01*
X0385707Y0330024D01*
X0385486Y0329693D01*
X0385409Y0329303D01*
X0385486Y0328913D01*
X0385707Y0328582D01*
X0386038Y0328361D01*
X0386428Y0328283D01*
X0386818Y0328361D01*
X0387149Y0328582D01*
X0387370Y0328913D01*
X0387448Y0329303D01*
X0387370Y0329693D01*
X0387149Y0330024D01*
X0386818Y0330245D01*
X0386428Y0330323D01*
D02*
G37*
G36*
Y0327167D02*
X0386038Y0327089D01*
X0385707Y0326868D01*
X0385486Y0326537D01*
X0385409Y0326147D01*
X0385486Y0325757D01*
X0385707Y0325426D01*
X0386038Y0325205D01*
X0386428Y0325128D01*
X0386818Y0325205D01*
X0387149Y0325426D01*
X0387370Y0325757D01*
X0387448Y0326147D01*
X0387370Y0326537D01*
X0387149Y0326868D01*
X0386818Y0327089D01*
X0386428Y0327167D01*
D02*
G37*
G36*
X0383194Y0327114D02*
X0382804Y0327036D01*
X0382473Y0326815D01*
X0382252Y0326484D01*
X0382174Y0326094D01*
X0382252Y0325704D01*
X0382473Y0325373D01*
X0382804Y0325152D01*
X0383194Y0325075D01*
X0383584Y0325152D01*
X0383915Y0325373D01*
X0384136Y0325704D01*
X0384214Y0326094D01*
X0384136Y0326484D01*
X0383915Y0326815D01*
X0383584Y0327036D01*
X0383194Y0327114D01*
D02*
G37*
G36*
X0395691Y0327260D02*
X0395264Y0327175D01*
X0394902Y0326933D01*
X0394660Y0326572D01*
X0394576Y0326145D01*
X0394660Y0325718D01*
X0394902Y0325356D01*
X0395264Y0325115D01*
X0395691Y0325030D01*
X0396117Y0325115D01*
X0396479Y0325356D01*
X0396721Y0325718D01*
X0396806Y0326145D01*
X0396721Y0326572D01*
X0396479Y0326933D01*
X0396117Y0327175D01*
X0395691Y0327260D01*
D02*
G37*
G36*
X0370847Y0324394D02*
X0370456Y0324316D01*
X0370126Y0324095D01*
X0369905Y0323764D01*
X0369827Y0323374D01*
X0369905Y0322984D01*
X0370126Y0322653D01*
X0370456Y0322432D01*
X0370847Y0322354D01*
X0371237Y0322432D01*
X0371568Y0322653D01*
X0371789Y0322984D01*
X0371866Y0323374D01*
X0371789Y0323764D01*
X0371568Y0324095D01*
X0371237Y0324316D01*
X0370847Y0324394D01*
D02*
G37*
G36*
X0374647Y0324240D02*
X0374257Y0324162D01*
X0373926Y0323941D01*
X0373705Y0323611D01*
X0373627Y0323220D01*
X0373705Y0322830D01*
X0373926Y0322499D01*
X0374257Y0322278D01*
X0374647Y0322201D01*
X0375037Y0322278D01*
X0375368Y0322499D01*
X0375589Y0322830D01*
X0375667Y0323220D01*
X0375589Y0323611D01*
X0375368Y0323941D01*
X0375037Y0324162D01*
X0374647Y0324240D01*
D02*
G37*
G36*
X0383329Y0324013D02*
X0382939Y0323935D01*
X0382608Y0323714D01*
X0382387Y0323383D01*
X0382309Y0322993D01*
X0382387Y0322603D01*
X0382608Y0322272D01*
X0382939Y0322051D01*
X0383329Y0321974D01*
X0383719Y0322051D01*
X0384050Y0322272D01*
X0384271Y0322603D01*
X0384348Y0322993D01*
X0384271Y0323383D01*
X0384050Y0323714D01*
X0383719Y0323935D01*
X0383329Y0324013D01*
D02*
G37*
G36*
X0395691Y0324017D02*
X0395264Y0323932D01*
X0394902Y0323690D01*
X0394660Y0323328D01*
X0394576Y0322902D01*
X0394660Y0322475D01*
X0394902Y0322113D01*
X0395264Y0321871D01*
X0395691Y0321786D01*
X0396117Y0321871D01*
X0396479Y0322113D01*
X0396721Y0322475D01*
X0396806Y0322902D01*
X0396721Y0323328D01*
X0396479Y0323690D01*
X0396117Y0323932D01*
X0395691Y0324017D01*
D02*
G37*
G36*
X0386267Y0321206D02*
X0385877Y0321129D01*
X0385546Y0320908D01*
X0385325Y0320577D01*
X0385247Y0320187D01*
X0385325Y0319797D01*
X0385546Y0319466D01*
X0385877Y0319245D01*
X0386267Y0319167D01*
X0386657Y0319245D01*
X0386988Y0319466D01*
X0387209Y0319797D01*
X0387286Y0320187D01*
X0387209Y0320577D01*
X0386988Y0320908D01*
X0386657Y0321129D01*
X0386267Y0321206D01*
D02*
G37*
G36*
X0383133Y0320913D02*
X0382743Y0320835D01*
X0382412Y0320614D01*
X0382191Y0320284D01*
X0382114Y0319893D01*
X0382191Y0319503D01*
X0382412Y0319173D01*
X0382743Y0318952D01*
X0383133Y0318874D01*
X0383523Y0318952D01*
X0383854Y0319173D01*
X0384075Y0319503D01*
X0384153Y0319893D01*
X0384075Y0320284D01*
X0383854Y0320614D01*
X0383523Y0320835D01*
X0383133Y0320913D01*
D02*
G37*
G36*
X0395782Y0320348D02*
X0395356Y0320263D01*
X0394994Y0320021D01*
X0394752Y0319659D01*
X0394667Y0319233D01*
X0394752Y0318806D01*
X0394994Y0318444D01*
X0395356Y0318202D01*
X0395782Y0318118D01*
X0396209Y0318202D01*
X0396571Y0318444D01*
X0396813Y0318806D01*
X0396898Y0319233D01*
X0396813Y0319659D01*
X0396571Y0320021D01*
X0396209Y0320263D01*
X0395782Y0320348D01*
D02*
G37*
G36*
X0386531Y0318028D02*
X0386141Y0317951D01*
X0385810Y0317730D01*
X0385590Y0317399D01*
X0385512Y0317009D01*
X0385590Y0316618D01*
X0385810Y0316288D01*
X0386141Y0316067D01*
X0386531Y0315989D01*
X0386922Y0316067D01*
X0387252Y0316288D01*
X0387474Y0316618D01*
X0387551Y0317009D01*
X0387474Y0317399D01*
X0387252Y0317730D01*
X0386922Y0317951D01*
X0386531Y0318028D01*
D02*
G37*
G36*
X0383503Y0317987D02*
X0383112Y0317910D01*
X0382782Y0317689D01*
X0382561Y0317358D01*
X0382483Y0316968D01*
X0382561Y0316578D01*
X0382782Y0316247D01*
X0383112Y0316026D01*
X0383503Y0315948D01*
X0383893Y0316026D01*
X0384224Y0316247D01*
X0384445Y0316578D01*
X0384522Y0316968D01*
X0384445Y0317358D01*
X0384224Y0317689D01*
X0383893Y0317910D01*
X0383503Y0317987D01*
D02*
G37*
G36*
X0395831Y0317565D02*
X0395404Y0317480D01*
X0395042Y0317238D01*
X0394801Y0316876D01*
X0394716Y0316449D01*
X0394801Y0316023D01*
X0395042Y0315661D01*
X0395404Y0315419D01*
X0395831Y0315334D01*
X0396257Y0315419D01*
X0396619Y0315661D01*
X0396861Y0316023D01*
X0396946Y0316449D01*
X0396861Y0316876D01*
X0396619Y0317238D01*
X0396257Y0317480D01*
X0395831Y0317565D01*
D02*
G37*
G36*
X0386262Y0314667D02*
X0385872Y0314589D01*
X0385542Y0314368D01*
X0385321Y0314037D01*
X0385243Y0313647D01*
X0385321Y0313257D01*
X0385542Y0312926D01*
X0385872Y0312705D01*
X0386262Y0312627D01*
X0386653Y0312705D01*
X0386983Y0312926D01*
X0387205Y0313257D01*
X0387282Y0313647D01*
X0387205Y0314037D01*
X0386983Y0314368D01*
X0386653Y0314589D01*
X0386262Y0314667D01*
D02*
G37*
G36*
X0398491Y0314780D02*
X0398064Y0314696D01*
X0397702Y0314454D01*
X0397460Y0314092D01*
X0397375Y0313665D01*
X0397460Y0313239D01*
X0397702Y0312877D01*
X0398064Y0312635D01*
X0398491Y0312550D01*
X0398917Y0312635D01*
X0399279Y0312877D01*
X0399521Y0313239D01*
X0399606Y0313665D01*
X0399521Y0314092D01*
X0399279Y0314454D01*
X0398917Y0314696D01*
X0398491Y0314780D01*
D02*
G37*
G36*
X0383133Y0314581D02*
X0382743Y0314504D01*
X0382412Y0314282D01*
X0382191Y0313952D01*
X0382114Y0313562D01*
X0382191Y0313171D01*
X0382412Y0312841D01*
X0382743Y0312619D01*
X0383133Y0312542D01*
X0383523Y0312619D01*
X0383854Y0312841D01*
X0384075Y0313171D01*
X0384153Y0313562D01*
X0384075Y0313952D01*
X0383854Y0314282D01*
X0383523Y0314504D01*
X0383133Y0314581D01*
D02*
G37*
G36*
X0401897Y0314677D02*
X0401471Y0314592D01*
X0401109Y0314351D01*
X0400867Y0313989D01*
X0400782Y0313562D01*
X0400867Y0313135D01*
X0401109Y0312773D01*
X0401471Y0312532D01*
X0401897Y0312447D01*
X0402324Y0312532D01*
X0402686Y0312773D01*
X0402927Y0313135D01*
X0403012Y0313562D01*
X0402927Y0313989D01*
X0402686Y0314351D01*
X0402324Y0314592D01*
X0401897Y0314677D01*
D02*
G37*
G36*
X0373499Y0313031D02*
X0373109Y0312953D01*
X0372778Y0312732D01*
X0372557Y0312402D01*
X0372479Y0312011D01*
X0372557Y0311621D01*
X0372778Y0311290D01*
X0373109Y0311069D01*
X0373499Y0310992D01*
X0373889Y0311069D01*
X0374220Y0311290D01*
X0374441Y0311621D01*
X0374518Y0312011D01*
X0374441Y0312402D01*
X0374220Y0312732D01*
X0373889Y0312953D01*
X0373499Y0313031D01*
D02*
G37*
G36*
X0386409Y0311623D02*
X0386019Y0311545D01*
X0385688Y0311324D01*
X0385467Y0310994D01*
X0385390Y0310603D01*
X0385467Y0310213D01*
X0385688Y0309882D01*
X0386019Y0309661D01*
X0386409Y0309584D01*
X0386799Y0309661D01*
X0387130Y0309882D01*
X0387351Y0310213D01*
X0387429Y0310603D01*
X0387351Y0310994D01*
X0387130Y0311324D01*
X0386799Y0311545D01*
X0386409Y0311623D01*
D02*
G37*
G36*
X0405146Y0311583D02*
X0404756Y0311505D01*
X0404425Y0311284D01*
X0404204Y0310953D01*
X0404127Y0310563D01*
X0404204Y0310173D01*
X0404425Y0309842D01*
X0404756Y0309621D01*
X0405146Y0309543D01*
X0405536Y0309621D01*
X0405867Y0309842D01*
X0406088Y0310173D01*
X0406166Y0310563D01*
X0406088Y0310953D01*
X0405867Y0311284D01*
X0405536Y0311505D01*
X0405146Y0311583D01*
D02*
G37*
G36*
X0401738Y0311415D02*
X0401311Y0311330D01*
X0400950Y0311088D01*
X0400708Y0310726D01*
X0400623Y0310299D01*
X0400708Y0309873D01*
X0400950Y0309511D01*
X0401311Y0309269D01*
X0401738Y0309184D01*
X0402165Y0309269D01*
X0402527Y0309511D01*
X0402769Y0309873D01*
X0402853Y0310299D01*
X0402769Y0310726D01*
X0402527Y0311088D01*
X0402165Y0311330D01*
X0401738Y0311415D01*
D02*
G37*
G36*
X0392982Y0309054D02*
X0392555Y0308969D01*
X0392193Y0308727D01*
X0391951Y0308366D01*
X0391866Y0307939D01*
X0391951Y0307512D01*
X0392193Y0307150D01*
X0392555Y0306909D01*
X0392982Y0306824D01*
X0393408Y0306909D01*
X0393770Y0307150D01*
X0394012Y0307512D01*
X0394097Y0307939D01*
X0394012Y0308366D01*
X0393770Y0308727D01*
X0393408Y0308969D01*
X0392982Y0309054D01*
D02*
G37*
G36*
X0383272Y0308764D02*
X0382845Y0308679D01*
X0382483Y0308437D01*
X0382241Y0308075D01*
X0382157Y0307649D01*
X0382241Y0307222D01*
X0382483Y0306860D01*
X0382845Y0306618D01*
X0383272Y0306534D01*
X0383698Y0306618D01*
X0384060Y0306860D01*
X0384302Y0307222D01*
X0384387Y0307649D01*
X0384302Y0308075D01*
X0384060Y0308437D01*
X0383698Y0308679D01*
X0383272Y0308764D01*
D02*
G37*
G36*
X0397381Y0308492D02*
X0396954Y0308407D01*
X0396593Y0308165D01*
X0396351Y0307803D01*
X0396266Y0307377D01*
X0396351Y0306950D01*
X0396593Y0306588D01*
X0396954Y0306346D01*
X0397381Y0306261D01*
X0397808Y0306346D01*
X0398170Y0306588D01*
X0398411Y0306950D01*
X0398496Y0307377D01*
X0398411Y0307803D01*
X0398170Y0308165D01*
X0397808Y0308407D01*
X0397381Y0308492D01*
D02*
G37*
G36*
X0386407Y0305223D02*
X0386017Y0305146D01*
X0385686Y0304925D01*
X0385465Y0304594D01*
X0385388Y0304204D01*
X0385465Y0303814D01*
X0385686Y0303483D01*
X0386017Y0303262D01*
X0386407Y0303184D01*
X0386797Y0303262D01*
X0387128Y0303483D01*
X0387349Y0303814D01*
X0387427Y0304204D01*
X0387349Y0304594D01*
X0387128Y0304925D01*
X0386797Y0305146D01*
X0386407Y0305223D01*
D02*
G37*
G36*
X0405096Y0305181D02*
X0404706Y0305103D01*
X0404375Y0304882D01*
X0404154Y0304551D01*
X0404076Y0304161D01*
X0404154Y0303771D01*
X0404375Y0303440D01*
X0404706Y0303219D01*
X0405096Y0303141D01*
X0405486Y0303219D01*
X0405817Y0303440D01*
X0406038Y0303771D01*
X0406116Y0304161D01*
X0406038Y0304551D01*
X0405817Y0304882D01*
X0405486Y0305103D01*
X0405096Y0305181D01*
D02*
G37*
G36*
X0401966Y0305360D02*
X0401539Y0305275D01*
X0401177Y0305033D01*
X0400936Y0304671D01*
X0400851Y0304244D01*
X0400936Y0303818D01*
X0401177Y0303456D01*
X0401539Y0303214D01*
X0401966Y0303129D01*
X0402392Y0303214D01*
X0402754Y0303456D01*
X0402996Y0303818D01*
X0403081Y0304244D01*
X0402996Y0304671D01*
X0402754Y0305033D01*
X0402392Y0305275D01*
X0401966Y0305360D01*
D02*
G37*
G36*
X0383161Y0305148D02*
X0382771Y0305071D01*
X0382440Y0304850D01*
X0382219Y0304519D01*
X0382141Y0304129D01*
X0382219Y0303738D01*
X0382440Y0303408D01*
X0382771Y0303187D01*
X0383161Y0303109D01*
X0383551Y0303187D01*
X0383882Y0303408D01*
X0384103Y0303738D01*
X0384180Y0304129D01*
X0384103Y0304519D01*
X0383882Y0304850D01*
X0383551Y0305071D01*
X0383161Y0305148D01*
D02*
G37*
G36*
X0408080Y0305142D02*
X0407690Y0305065D01*
X0407359Y0304843D01*
X0407138Y0304513D01*
X0407061Y0304122D01*
X0407138Y0303732D01*
X0407359Y0303401D01*
X0407690Y0303181D01*
X0408080Y0303103D01*
X0408470Y0303181D01*
X0408801Y0303401D01*
X0409022Y0303732D01*
X0409100Y0304122D01*
X0409022Y0304513D01*
X0408801Y0304843D01*
X0408470Y0305065D01*
X0408080Y0305142D01*
D02*
G37*
G36*
X0392887Y0305038D02*
X0392461Y0304953D01*
X0392099Y0304711D01*
X0391857Y0304349D01*
X0391772Y0303923D01*
X0391857Y0303496D01*
X0392099Y0303134D01*
X0392461Y0302892D01*
X0392887Y0302808D01*
X0393314Y0302892D01*
X0393676Y0303134D01*
X0393918Y0303496D01*
X0394003Y0303923D01*
X0393918Y0304349D01*
X0393676Y0304711D01*
X0393314Y0304953D01*
X0392887Y0305038D01*
D02*
G37*
G36*
X0374228Y0303801D02*
X0373838Y0303724D01*
X0373507Y0303502D01*
X0373286Y0303172D01*
X0373209Y0302782D01*
X0373286Y0302391D01*
X0373507Y0302061D01*
X0373838Y0301840D01*
X0374228Y0301762D01*
X0374619Y0301840D01*
X0374949Y0302061D01*
X0375170Y0302391D01*
X0375248Y0302782D01*
X0375170Y0303172D01*
X0374949Y0303502D01*
X0374619Y0303724D01*
X0374228Y0303801D01*
D02*
G37*
G36*
X0402099Y0302604D02*
X0401673Y0302519D01*
X0401311Y0302278D01*
X0401069Y0301916D01*
X0400984Y0301489D01*
X0401069Y0301062D01*
X0401311Y0300701D01*
X0401673Y0300459D01*
X0402099Y0300374D01*
X0402526Y0300459D01*
X0402888Y0300701D01*
X0403129Y0301062D01*
X0403214Y0301489D01*
X0403129Y0301916D01*
X0402888Y0302278D01*
X0402526Y0302519D01*
X0402099Y0302604D01*
D02*
G37*
G36*
X0386509Y0302214D02*
X0386119Y0302136D01*
X0385788Y0301915D01*
X0385567Y0301585D01*
X0385489Y0301194D01*
X0385567Y0300804D01*
X0385788Y0300473D01*
X0386119Y0300252D01*
X0386509Y0300175D01*
X0386899Y0300252D01*
X0387230Y0300473D01*
X0387451Y0300804D01*
X0387529Y0301194D01*
X0387451Y0301585D01*
X0387230Y0301915D01*
X0386899Y0302136D01*
X0386509Y0302214D01*
D02*
G37*
G36*
X0398880Y0302098D02*
X0398453Y0302014D01*
X0398092Y0301772D01*
X0397850Y0301410D01*
X0397765Y0300983D01*
X0397850Y0300557D01*
X0398092Y0300195D01*
X0398453Y0299953D01*
X0398880Y0299868D01*
X0399307Y0299953D01*
X0399669Y0300195D01*
X0399910Y0300557D01*
X0399995Y0300983D01*
X0399910Y0301410D01*
X0399669Y0301772D01*
X0399307Y0302014D01*
X0398880Y0302098D01*
D02*
G37*
G36*
X0383325Y0301776D02*
X0382935Y0301699D01*
X0382604Y0301478D01*
X0382383Y0301147D01*
X0382305Y0300757D01*
X0382383Y0300366D01*
X0382604Y0300036D01*
X0382935Y0299815D01*
X0383325Y0299737D01*
X0383715Y0299815D01*
X0384046Y0300036D01*
X0384267Y0300366D01*
X0384345Y0300757D01*
X0384267Y0301147D01*
X0384046Y0301478D01*
X0383715Y0301699D01*
X0383325Y0301776D01*
D02*
G37*
G36*
X0386345Y0299094D02*
X0385955Y0299016D01*
X0385624Y0298795D01*
X0385403Y0298464D01*
X0385325Y0298074D01*
X0385403Y0297684D01*
X0385624Y0297353D01*
X0385955Y0297132D01*
X0386345Y0297054D01*
X0386735Y0297132D01*
X0387066Y0297353D01*
X0387287Y0297684D01*
X0387365Y0298074D01*
X0387287Y0298464D01*
X0387066Y0298795D01*
X0386735Y0299016D01*
X0386345Y0299094D01*
D02*
G37*
G36*
X0383341Y0298941D02*
X0382951Y0298864D01*
X0382620Y0298642D01*
X0382399Y0298312D01*
X0382322Y0297921D01*
X0382399Y0297531D01*
X0382620Y0297200D01*
X0382951Y0296979D01*
X0383341Y0296902D01*
X0383731Y0296979D01*
X0384062Y0297200D01*
X0384283Y0297531D01*
X0384361Y0297921D01*
X0384283Y0298312D01*
X0384062Y0298642D01*
X0383731Y0298864D01*
X0383341Y0298941D01*
D02*
G37*
G36*
X0385737Y0295815D02*
X0385347Y0295737D01*
X0385016Y0295516D01*
X0384795Y0295186D01*
X0384717Y0294795D01*
X0384795Y0294405D01*
X0385016Y0294074D01*
X0385347Y0293853D01*
X0385737Y0293776D01*
X0386127Y0293853D01*
X0386458Y0294074D01*
X0386679Y0294405D01*
X0386756Y0294795D01*
X0386679Y0295186D01*
X0386458Y0295516D01*
X0386127Y0295737D01*
X0385737Y0295815D01*
D02*
G37*
G36*
X0395588Y0295872D02*
X0395161Y0295787D01*
X0394799Y0295546D01*
X0394557Y0295184D01*
X0394473Y0294757D01*
X0394557Y0294330D01*
X0394799Y0293969D01*
X0395161Y0293727D01*
X0395588Y0293642D01*
X0396014Y0293727D01*
X0396376Y0293969D01*
X0396618Y0294330D01*
X0396703Y0294757D01*
X0396618Y0295184D01*
X0396376Y0295546D01*
X0396014Y0295787D01*
X0395588Y0295872D01*
D02*
G37*
G36*
X0383355Y0295601D02*
X0382965Y0295523D01*
X0382634Y0295302D01*
X0382413Y0294971D01*
X0382335Y0294581D01*
X0382413Y0294191D01*
X0382634Y0293860D01*
X0382965Y0293639D01*
X0383355Y0293561D01*
X0383745Y0293639D01*
X0384076Y0293860D01*
X0384297Y0294191D01*
X0384374Y0294581D01*
X0384297Y0294971D01*
X0384076Y0295302D01*
X0383745Y0295523D01*
X0383355Y0295601D01*
D02*
G37*
G36*
X0383738Y0291058D02*
X0383348Y0290981D01*
X0383018Y0290760D01*
X0382797Y0290429D01*
X0382719Y0290039D01*
X0382797Y0289649D01*
X0383018Y0289318D01*
X0383348Y0289097D01*
X0383738Y0289019D01*
X0384129Y0289097D01*
X0384459Y0289318D01*
X0384681Y0289649D01*
X0384758Y0290039D01*
X0384681Y0290429D01*
X0384459Y0290760D01*
X0384129Y0290981D01*
X0383738Y0291058D01*
D02*
G37*
G36*
X0370847Y0290801D02*
X0370456Y0290723D01*
X0370126Y0290502D01*
X0369905Y0290171D01*
X0369827Y0289781D01*
X0369905Y0289391D01*
X0370126Y0289060D01*
X0370456Y0288839D01*
X0370847Y0288761D01*
X0371237Y0288839D01*
X0371568Y0289060D01*
X0371789Y0289391D01*
X0371866Y0289781D01*
X0371789Y0290171D01*
X0371568Y0290502D01*
X0371237Y0290723D01*
X0370847Y0290801D01*
D02*
G37*
G36*
X0395690Y0289631D02*
X0395263Y0289546D01*
X0394901Y0289305D01*
X0394660Y0288943D01*
X0394575Y0288516D01*
X0394660Y0288089D01*
X0394901Y0287728D01*
X0395263Y0287486D01*
X0395690Y0287401D01*
X0396117Y0287486D01*
X0396479Y0287728D01*
X0396720Y0288089D01*
X0396805Y0288516D01*
X0396720Y0288943D01*
X0396479Y0289305D01*
X0396117Y0289546D01*
X0395690Y0289631D01*
D02*
G37*
G36*
X0385965Y0289314D02*
X0385575Y0289236D01*
X0385244Y0289015D01*
X0385023Y0288684D01*
X0384946Y0288294D01*
X0385023Y0287904D01*
X0385244Y0287573D01*
X0385575Y0287352D01*
X0385965Y0287275D01*
X0386355Y0287352D01*
X0386686Y0287573D01*
X0386907Y0287904D01*
X0386985Y0288294D01*
X0386907Y0288684D01*
X0386686Y0289015D01*
X0386355Y0289236D01*
X0385965Y0289314D01*
D02*
G37*
G36*
X0395936Y0286657D02*
X0395509Y0286572D01*
X0395148Y0286330D01*
X0394906Y0285968D01*
X0394821Y0285542D01*
X0394906Y0285115D01*
X0395148Y0284753D01*
X0395509Y0284511D01*
X0395936Y0284426D01*
X0396363Y0284511D01*
X0396725Y0284753D01*
X0396966Y0285115D01*
X0397051Y0285542D01*
X0396966Y0285968D01*
X0396725Y0286330D01*
X0396363Y0286572D01*
X0395936Y0286657D01*
D02*
G37*
G36*
X0385965Y0286370D02*
X0385575Y0286292D01*
X0385244Y0286071D01*
X0385023Y0285740D01*
X0384946Y0285350D01*
X0385023Y0284960D01*
X0385244Y0284629D01*
X0385575Y0284408D01*
X0385965Y0284330D01*
X0386355Y0284408D01*
X0386686Y0284629D01*
X0386907Y0284960D01*
X0386985Y0285350D01*
X0386907Y0285740D01*
X0386686Y0286071D01*
X0386355Y0286292D01*
X0385965Y0286370D01*
D02*
G37*
G36*
X0383613Y0286297D02*
X0383223Y0286219D01*
X0382892Y0285998D01*
X0382671Y0285667D01*
X0382593Y0285277D01*
X0382671Y0284887D01*
X0382892Y0284556D01*
X0383223Y0284335D01*
X0383613Y0284258D01*
X0384003Y0284335D01*
X0384334Y0284556D01*
X0384555Y0284887D01*
X0384632Y0285277D01*
X0384555Y0285667D01*
X0384334Y0285998D01*
X0384003Y0286219D01*
X0383613Y0286297D01*
D02*
G37*
G36*
X0383390Y0283595D02*
X0382999Y0283517D01*
X0382669Y0283296D01*
X0382448Y0282965D01*
X0382370Y0282575D01*
X0382448Y0282185D01*
X0382669Y0281854D01*
X0382999Y0281633D01*
X0383390Y0281556D01*
X0383780Y0281633D01*
X0384111Y0281854D01*
X0384332Y0282185D01*
X0384409Y0282575D01*
X0384332Y0282965D01*
X0384111Y0283296D01*
X0383780Y0283517D01*
X0383390Y0283595D01*
D02*
G37*
G36*
X0385965Y0283277D02*
X0385575Y0283199D01*
X0385244Y0282978D01*
X0385023Y0282647D01*
X0384946Y0282257D01*
X0385023Y0281867D01*
X0385244Y0281536D01*
X0385575Y0281315D01*
X0385965Y0281238D01*
X0386355Y0281315D01*
X0386686Y0281536D01*
X0386907Y0281867D01*
X0386985Y0282257D01*
X0386907Y0282647D01*
X0386686Y0282978D01*
X0386355Y0283199D01*
X0385965Y0283277D01*
D02*
G37*
G36*
X0395784Y0283187D02*
X0395357Y0283102D01*
X0394996Y0282861D01*
X0394754Y0282499D01*
X0394669Y0282072D01*
X0394754Y0281646D01*
X0394996Y0281284D01*
X0395357Y0281042D01*
X0395784Y0280957D01*
X0396211Y0281042D01*
X0396573Y0281284D01*
X0396814Y0281646D01*
X0396899Y0282072D01*
X0396814Y0282499D01*
X0396573Y0282861D01*
X0396211Y0283102D01*
X0395784Y0283187D01*
D02*
G37*
G36*
X0383234Y0280239D02*
X0382844Y0280162D01*
X0382513Y0279941D01*
X0382292Y0279610D01*
X0382214Y0279220D01*
X0382292Y0278830D01*
X0382513Y0278499D01*
X0382844Y0278278D01*
X0383234Y0278200D01*
X0383624Y0278278D01*
X0383955Y0278499D01*
X0384176Y0278830D01*
X0384253Y0279220D01*
X0384176Y0279610D01*
X0383955Y0279941D01*
X0383624Y0280162D01*
X0383234Y0280239D01*
D02*
G37*
G36*
X0396003Y0280336D02*
X0395576Y0280252D01*
X0395214Y0280010D01*
X0394972Y0279648D01*
X0394887Y0279221D01*
X0394972Y0278795D01*
X0395214Y0278433D01*
X0395576Y0278191D01*
X0396003Y0278106D01*
X0396429Y0278191D01*
X0396791Y0278433D01*
X0397033Y0278795D01*
X0397118Y0279221D01*
X0397033Y0279648D01*
X0396791Y0280010D01*
X0396429Y0280252D01*
X0396003Y0280336D01*
D02*
G37*
G36*
X0386163Y0280031D02*
X0385773Y0279954D01*
X0385442Y0279733D01*
X0385221Y0279402D01*
X0385144Y0279012D01*
X0385221Y0278622D01*
X0385442Y0278291D01*
X0385773Y0278070D01*
X0386163Y0277992D01*
X0386554Y0278070D01*
X0386884Y0278291D01*
X0387105Y0278622D01*
X0387183Y0279012D01*
X0387105Y0279402D01*
X0386884Y0279733D01*
X0386554Y0279954D01*
X0386163Y0280031D01*
D02*
G37*
G36*
X0373070Y0278137D02*
X0372680Y0278059D01*
X0372349Y0277838D01*
X0372128Y0277507D01*
X0372051Y0277117D01*
X0372128Y0276727D01*
X0372349Y0276396D01*
X0372680Y0276175D01*
X0373070Y0276098D01*
X0373461Y0276175D01*
X0373791Y0276396D01*
X0374012Y0276727D01*
X0374090Y0277117D01*
X0374012Y0277507D01*
X0373791Y0277838D01*
X0373461Y0278059D01*
X0373070Y0278137D01*
D02*
G37*
G36*
X0388385Y0276643D02*
X0387995Y0276566D01*
X0387664Y0276344D01*
X0387443Y0276014D01*
X0387366Y0275624D01*
X0387443Y0275233D01*
X0387664Y0274903D01*
X0387995Y0274682D01*
X0388385Y0274604D01*
X0388775Y0274682D01*
X0389106Y0274903D01*
X0389327Y0275233D01*
X0389405Y0275624D01*
X0389327Y0276014D01*
X0389106Y0276344D01*
X0388775Y0276566D01*
X0388385Y0276643D01*
D02*
G37*
G36*
X0385316Y0276687D02*
X0384926Y0276610D01*
X0384595Y0276389D01*
X0384374Y0276058D01*
X0384297Y0275668D01*
X0384374Y0275277D01*
X0384518Y0275063D01*
X0384427Y0274928D01*
X0384349Y0274537D01*
X0384427Y0274147D01*
X0384648Y0273817D01*
X0384979Y0273596D01*
X0385369Y0273518D01*
X0385759Y0273596D01*
X0386090Y0273817D01*
X0386311Y0274147D01*
X0386388Y0274537D01*
X0386311Y0274928D01*
X0386168Y0275142D01*
X0386258Y0275277D01*
X0386336Y0275668D01*
X0386258Y0276058D01*
X0386037Y0276389D01*
X0385707Y0276610D01*
X0385316Y0276687D01*
D02*
G37*
G36*
X0378641Y0275299D02*
X0378251Y0275222D01*
X0377920Y0275001D01*
X0377699Y0274670D01*
X0377621Y0274280D01*
X0377699Y0273889D01*
X0377920Y0273559D01*
X0378251Y0273338D01*
X0378641Y0273260D01*
X0379031Y0273338D01*
X0379362Y0273559D01*
X0379583Y0273889D01*
X0379660Y0274280D01*
X0379583Y0274670D01*
X0379362Y0275001D01*
X0379031Y0275222D01*
X0378641Y0275299D01*
D02*
G37*
G36*
X0388416Y0272848D02*
X0388026Y0272771D01*
X0387695Y0272550D01*
X0387474Y0272219D01*
X0387397Y0271829D01*
X0387474Y0271439D01*
X0387695Y0271108D01*
X0388026Y0270887D01*
X0388416Y0270809D01*
X0388806Y0270887D01*
X0389137Y0271108D01*
X0389358Y0271439D01*
X0389436Y0271829D01*
X0389358Y0272219D01*
X0389137Y0272550D01*
X0388806Y0272771D01*
X0388416Y0272848D01*
D02*
G37*
G36*
X0505054Y0272117D02*
X0504508Y0272008D01*
X0504045Y0271699D01*
X0503735Y0271236D01*
X0503627Y0270690D01*
X0503735Y0270143D01*
X0504045Y0269680D01*
X0504508Y0269371D01*
X0505054Y0269262D01*
X0505601Y0269371D01*
X0506064Y0269680D01*
X0506373Y0270143D01*
X0506482Y0270690D01*
X0506373Y0271236D01*
X0506064Y0271699D01*
X0505601Y0272008D01*
X0505054Y0272117D01*
D02*
G37*
G36*
X0495275Y0272051D02*
X0494729Y0271942D01*
X0494266Y0271633D01*
X0493956Y0271170D01*
X0493848Y0270624D01*
X0493956Y0270077D01*
X0494266Y0269614D01*
X0494729Y0269305D01*
X0495275Y0269196D01*
X0495821Y0269305D01*
X0496284Y0269614D01*
X0496594Y0270077D01*
X0496702Y0270624D01*
X0496594Y0271170D01*
X0496284Y0271633D01*
X0495821Y0271942D01*
X0495275Y0272051D01*
D02*
G37*
G36*
X0505120Y0268780D02*
X0504574Y0268672D01*
X0504111Y0268362D01*
X0503802Y0267899D01*
X0503693Y0267353D01*
X0503802Y0266807D01*
X0504111Y0266343D01*
X0504574Y0266034D01*
X0505120Y0265925D01*
X0505667Y0266034D01*
X0506130Y0266343D01*
X0506439Y0266807D01*
X0506548Y0267353D01*
X0506439Y0267899D01*
X0506130Y0268362D01*
X0505667Y0268672D01*
X0505120Y0268780D01*
D02*
G37*
G36*
X0495242Y0268714D02*
X0494696Y0268605D01*
X0494233Y0268296D01*
X0493923Y0267833D01*
X0493815Y0267287D01*
X0493923Y0266740D01*
X0494233Y0266277D01*
X0494696Y0265968D01*
X0495242Y0265859D01*
X0495788Y0265968D01*
X0496251Y0266277D01*
X0496561Y0266740D01*
X0496669Y0267287D01*
X0496561Y0267833D01*
X0496251Y0268296D01*
X0495788Y0268605D01*
X0495242Y0268714D01*
D02*
G37*
G36*
X0459603Y0415827D02*
X0459213Y0415749D01*
X0458882Y0415528D01*
X0458661Y0415197D01*
X0458583Y0414807D01*
X0458661Y0414417D01*
X0458882Y0414086D01*
X0459213Y0413865D01*
X0459603Y0413787D01*
X0459993Y0413865D01*
X0460324Y0414086D01*
X0460545Y0414417D01*
X0460623Y0414807D01*
X0460545Y0415197D01*
X0460324Y0415528D01*
X0459993Y0415749D01*
X0459603Y0415827D01*
D02*
G37*
G36*
X0445591Y0415700D02*
X0445200Y0415622D01*
X0444870Y0415401D01*
X0444649Y0415070D01*
X0444571Y0414680D01*
X0444649Y0414290D01*
X0444870Y0413959D01*
X0445200Y0413738D01*
X0445591Y0413661D01*
X0445981Y0413738D01*
X0446312Y0413959D01*
X0446532Y0414290D01*
X0446610Y0414680D01*
X0446532Y0415070D01*
X0446312Y0415401D01*
X0445981Y0415622D01*
X0445591Y0415700D01*
D02*
G37*
G36*
X0455464Y0415664D02*
X0455074Y0415586D01*
X0454743Y0415365D01*
X0454522Y0415034D01*
X0454444Y0414644D01*
X0454522Y0414254D01*
X0454743Y0413923D01*
X0455074Y0413702D01*
X0455464Y0413625D01*
X0455854Y0413702D01*
X0456185Y0413923D01*
X0456406Y0414254D01*
X0456483Y0414644D01*
X0456406Y0415034D01*
X0456185Y0415365D01*
X0455854Y0415586D01*
X0455464Y0415664D01*
D02*
G37*
G36*
X0475534Y0415648D02*
X0475144Y0415570D01*
X0474813Y0415349D01*
X0474592Y0415019D01*
X0474514Y0414628D01*
X0474592Y0414238D01*
X0474813Y0413907D01*
X0475144Y0413686D01*
X0475534Y0413609D01*
X0475924Y0413686D01*
X0476255Y0413907D01*
X0476476Y0414238D01*
X0476553Y0414628D01*
X0476476Y0415019D01*
X0476255Y0415349D01*
X0475924Y0415570D01*
X0475534Y0415648D01*
D02*
G37*
G36*
X0483001Y0415363D02*
X0482611Y0415285D01*
X0482280Y0415064D01*
X0482059Y0414734D01*
X0481981Y0414343D01*
X0482059Y0413953D01*
X0482280Y0413623D01*
X0482611Y0413401D01*
X0483001Y0413324D01*
X0483391Y0413401D01*
X0483722Y0413623D01*
X0483943Y0413953D01*
X0484021Y0414343D01*
X0483943Y0414734D01*
X0483722Y0415064D01*
X0483391Y0415285D01*
X0483001Y0415363D01*
D02*
G37*
G36*
X0480398Y0413766D02*
X0480008Y0413689D01*
X0479677Y0413468D01*
X0479456Y0413137D01*
X0479379Y0412747D01*
X0479456Y0412356D01*
X0479677Y0412026D01*
X0480008Y0411805D01*
X0480398Y0411727D01*
X0480788Y0411805D01*
X0481119Y0412026D01*
X0481340Y0412356D01*
X0481418Y0412747D01*
X0481340Y0413137D01*
X0481119Y0413468D01*
X0480788Y0413689D01*
X0480398Y0413766D01*
D02*
G37*
G36*
X0485449Y0413763D02*
X0485059Y0413685D01*
X0484728Y0413464D01*
X0484507Y0413133D01*
X0484429Y0412743D01*
X0484507Y0412353D01*
X0484728Y0412022D01*
X0485059Y0411801D01*
X0485449Y0411724D01*
X0485839Y0411801D01*
X0486170Y0412022D01*
X0486391Y0412353D01*
X0486468Y0412743D01*
X0486391Y0413133D01*
X0486170Y0413464D01*
X0485839Y0413685D01*
X0485449Y0413763D01*
D02*
G37*
G36*
X0414493Y0410996D02*
X0414103Y0410918D01*
X0413772Y0410697D01*
X0413551Y0410366D01*
X0413474Y0409976D01*
X0413551Y0409586D01*
X0413772Y0409255D01*
X0414103Y0409034D01*
X0414493Y0408957D01*
X0414883Y0409034D01*
X0415214Y0409255D01*
X0415435Y0409586D01*
X0415513Y0409976D01*
X0415435Y0410366D01*
X0415214Y0410697D01*
X0414883Y0410918D01*
X0414493Y0410996D01*
D02*
G37*
G36*
X0414663Y0407832D02*
X0414273Y0407755D01*
X0413942Y0407534D01*
X0413721Y0407203D01*
X0413643Y0406813D01*
X0413721Y0406423D01*
X0413942Y0406092D01*
X0414273Y0405871D01*
X0414663Y0405793D01*
X0415053Y0405871D01*
X0415384Y0406092D01*
X0415605Y0406423D01*
X0415683Y0406813D01*
X0415605Y0407203D01*
X0415384Y0407534D01*
X0415053Y0407755D01*
X0414663Y0407832D01*
D02*
G37*
G36*
X0414612Y0404688D02*
X0414222Y0404611D01*
X0413891Y0404390D01*
X0413670Y0404059D01*
X0413592Y0403669D01*
X0413670Y0403278D01*
X0413891Y0402948D01*
X0414222Y0402727D01*
X0414612Y0402649D01*
X0415002Y0402727D01*
X0415333Y0402948D01*
X0415554Y0403278D01*
X0415631Y0403669D01*
X0415554Y0404059D01*
X0415333Y0404390D01*
X0415002Y0404611D01*
X0414612Y0404688D01*
D02*
G37*
G36*
X0484765Y0403193D02*
X0484375Y0403115D01*
X0484044Y0402894D01*
X0483823Y0402563D01*
X0483746Y0402173D01*
X0483823Y0401783D01*
X0484044Y0401452D01*
X0484375Y0401231D01*
X0484765Y0401153D01*
X0485155Y0401231D01*
X0485486Y0401452D01*
X0485707Y0401783D01*
X0485785Y0402173D01*
X0485707Y0402563D01*
X0485486Y0402894D01*
X0485155Y0403115D01*
X0484765Y0403193D01*
D02*
G37*
G36*
X0414646Y0401570D02*
X0414256Y0401493D01*
X0413925Y0401272D01*
X0413704Y0400941D01*
X0413626Y0400551D01*
X0413704Y0400160D01*
X0413925Y0399830D01*
X0414256Y0399609D01*
X0414646Y0399531D01*
X0415036Y0399609D01*
X0415367Y0399830D01*
X0415588Y0400160D01*
X0415665Y0400551D01*
X0415588Y0400941D01*
X0415367Y0401272D01*
X0415036Y0401493D01*
X0414646Y0401570D01*
D02*
G37*
G36*
X0475618Y0399954D02*
X0475228Y0399877D01*
X0474897Y0399656D01*
X0474676Y0399325D01*
X0474599Y0398935D01*
X0474676Y0398545D01*
X0474897Y0398214D01*
X0475228Y0397993D01*
X0475618Y0397915D01*
X0476009Y0397993D01*
X0476339Y0398214D01*
X0476560Y0398545D01*
X0476638Y0398935D01*
X0476560Y0399325D01*
X0476339Y0399656D01*
X0476009Y0399877D01*
X0475618Y0399954D01*
D02*
G37*
G36*
X0460090Y0399729D02*
X0459700Y0399652D01*
X0459369Y0399431D01*
X0459148Y0399100D01*
X0459070Y0398710D01*
X0459148Y0398320D01*
X0459369Y0397989D01*
X0459700Y0397768D01*
X0460090Y0397690D01*
X0460480Y0397768D01*
X0460811Y0397989D01*
X0461032Y0398320D01*
X0461110Y0398710D01*
X0461032Y0399100D01*
X0460811Y0399431D01*
X0460480Y0399652D01*
X0460090Y0399729D01*
D02*
G37*
G36*
X0455661Y0399689D02*
X0455271Y0399611D01*
X0454941Y0399391D01*
X0454719Y0399060D01*
X0454642Y0398670D01*
X0454719Y0398279D01*
X0454941Y0397949D01*
X0455271Y0397727D01*
X0455661Y0397650D01*
X0456052Y0397727D01*
X0456382Y0397949D01*
X0456603Y0398279D01*
X0456681Y0398670D01*
X0456603Y0399060D01*
X0456382Y0399391D01*
X0456052Y0399611D01*
X0455661Y0399689D01*
D02*
G37*
G36*
X0414816Y0398072D02*
X0414426Y0397994D01*
X0414095Y0397773D01*
X0413874Y0397442D01*
X0413796Y0397052D01*
X0413874Y0396662D01*
X0414095Y0396331D01*
X0414426Y0396110D01*
X0414816Y0396033D01*
X0415206Y0396110D01*
X0415537Y0396331D01*
X0415758Y0396662D01*
X0415835Y0397052D01*
X0415758Y0397442D01*
X0415537Y0397773D01*
X0415206Y0397994D01*
X0414816Y0398072D01*
D02*
G37*
G36*
X0459894Y0395387D02*
X0459504Y0395309D01*
X0459173Y0395088D01*
X0458952Y0394758D01*
X0458875Y0394367D01*
X0458952Y0393977D01*
X0459173Y0393646D01*
X0459504Y0393425D01*
X0459894Y0393348D01*
X0460284Y0393425D01*
X0460615Y0393646D01*
X0460836Y0393977D01*
X0460914Y0394367D01*
X0460836Y0394758D01*
X0460615Y0395088D01*
X0460284Y0395309D01*
X0459894Y0395387D01*
D02*
G37*
G36*
X0414906Y0395240D02*
X0414516Y0395163D01*
X0414185Y0394942D01*
X0413964Y0394611D01*
X0413886Y0394221D01*
X0413964Y0393831D01*
X0414185Y0393500D01*
X0414516Y0393279D01*
X0414906Y0393201D01*
X0415296Y0393279D01*
X0415627Y0393500D01*
X0415848Y0393831D01*
X0415925Y0394221D01*
X0415848Y0394611D01*
X0415627Y0394942D01*
X0415296Y0395163D01*
X0414906Y0395240D01*
D02*
G37*
G36*
X0495043Y0394375D02*
X0494653Y0394297D01*
X0494322Y0394076D01*
X0494101Y0393746D01*
X0494023Y0393355D01*
X0494101Y0392965D01*
X0494322Y0392635D01*
X0494653Y0392413D01*
X0495043Y0392336D01*
X0495433Y0392413D01*
X0495764Y0392635D01*
X0495985Y0392965D01*
X0496062Y0393355D01*
X0495985Y0393746D01*
X0495764Y0394076D01*
X0495433Y0394297D01*
X0495043Y0394375D01*
D02*
G37*
G36*
X0453273Y0392472D02*
X0452883Y0392394D01*
X0452552Y0392173D01*
X0452331Y0391842D01*
X0452253Y0391452D01*
X0452331Y0391062D01*
X0452552Y0390731D01*
X0452883Y0390510D01*
X0453273Y0390432D01*
X0453663Y0390510D01*
X0453994Y0390731D01*
X0454215Y0391062D01*
X0454293Y0391452D01*
X0454215Y0391842D01*
X0453994Y0392173D01*
X0453663Y0392394D01*
X0453273Y0392472D01*
D02*
G37*
G36*
X0448282Y0392348D02*
X0447892Y0392270D01*
X0447561Y0392049D01*
X0447340Y0391719D01*
X0447263Y0391328D01*
X0447340Y0390938D01*
X0447561Y0390607D01*
X0447892Y0390386D01*
X0448282Y0390309D01*
X0448672Y0390386D01*
X0449003Y0390607D01*
X0449224Y0390938D01*
X0449302Y0391328D01*
X0449224Y0391719D01*
X0449003Y0392049D01*
X0448672Y0392270D01*
X0448282Y0392348D01*
D02*
G37*
G36*
X0414832Y0392092D02*
X0414442Y0392015D01*
X0414112Y0391794D01*
X0413891Y0391463D01*
X0413813Y0391073D01*
X0413891Y0390683D01*
X0414112Y0390352D01*
X0414442Y0390131D01*
X0414832Y0390053D01*
X0415223Y0390131D01*
X0415553Y0390352D01*
X0415774Y0390683D01*
X0415852Y0391073D01*
X0415774Y0391463D01*
X0415553Y0391794D01*
X0415223Y0392015D01*
X0414832Y0392092D01*
D02*
G37*
G36*
X0468554Y0392218D02*
X0468164Y0392141D01*
X0467834Y0391920D01*
X0467613Y0391589D01*
X0467535Y0391199D01*
X0467613Y0390809D01*
X0467834Y0390478D01*
X0468164Y0390257D01*
X0468221Y0389816D01*
X0468143Y0389426D01*
X0468221Y0389036D01*
X0468442Y0388705D01*
X0468772Y0388484D01*
X0469163Y0388406D01*
X0469553Y0388484D01*
X0469883Y0388705D01*
X0470105Y0389036D01*
X0470182Y0389426D01*
X0470105Y0389816D01*
X0469883Y0390147D01*
X0469553Y0390368D01*
X0469496Y0390809D01*
X0469574Y0391199D01*
X0469496Y0391589D01*
X0469276Y0391920D01*
X0468945Y0392141D01*
X0468554Y0392218D01*
D02*
G37*
G36*
X0441021Y0389245D02*
X0440631Y0389168D01*
X0440301Y0388947D01*
X0440079Y0388616D01*
X0440002Y0388226D01*
X0440079Y0387836D01*
X0440301Y0387505D01*
X0440631Y0387284D01*
X0441021Y0387206D01*
X0441412Y0387284D01*
X0441742Y0387505D01*
X0441963Y0387836D01*
X0442041Y0388226D01*
X0441963Y0388616D01*
X0441742Y0388947D01*
X0441412Y0389168D01*
X0441021Y0389245D01*
D02*
G37*
G36*
X0414834Y0388802D02*
X0414443Y0388724D01*
X0414113Y0388504D01*
X0413892Y0388173D01*
X0413814Y0387783D01*
X0413892Y0387392D01*
X0414113Y0387062D01*
X0414443Y0386841D01*
X0414834Y0386763D01*
X0415224Y0386841D01*
X0415555Y0387062D01*
X0415776Y0387392D01*
X0415853Y0387783D01*
X0415776Y0388173D01*
X0415555Y0388504D01*
X0415224Y0388724D01*
X0414834Y0388802D01*
D02*
G37*
G36*
X0425804Y0387741D02*
X0425414Y0387663D01*
X0425083Y0387442D01*
X0424862Y0387111D01*
X0424785Y0386721D01*
X0424862Y0386331D01*
X0425083Y0386000D01*
X0425414Y0385779D01*
X0425804Y0385702D01*
X0426194Y0385779D01*
X0426525Y0386000D01*
X0426746Y0386331D01*
X0426824Y0386721D01*
X0426746Y0387111D01*
X0426525Y0387442D01*
X0426194Y0387663D01*
X0425804Y0387741D01*
D02*
G37*
G36*
X0440500Y0386379D02*
X0440110Y0386301D01*
X0439779Y0386080D01*
X0439558Y0385749D01*
X0439480Y0385359D01*
X0439558Y0384969D01*
X0439779Y0384638D01*
X0440110Y0384417D01*
X0440500Y0384340D01*
X0440890Y0384417D01*
X0441221Y0384638D01*
X0441442Y0384969D01*
X0441520Y0385359D01*
X0441442Y0385749D01*
X0441221Y0386080D01*
X0440890Y0386301D01*
X0440500Y0386379D01*
D02*
G37*
G36*
X0467965Y0385924D02*
X0467575Y0385846D01*
X0467244Y0385625D01*
X0467023Y0385294D01*
X0466945Y0384904D01*
X0467023Y0384514D01*
X0467244Y0384183D01*
X0467575Y0383962D01*
X0467965Y0383885D01*
X0468355Y0383962D01*
X0468686Y0384183D01*
X0468907Y0384514D01*
X0468984Y0384904D01*
X0468907Y0385294D01*
X0468686Y0385625D01*
X0468355Y0385846D01*
X0467965Y0385924D01*
D02*
G37*
G36*
X0414969Y0385810D02*
X0414579Y0385733D01*
X0414248Y0385512D01*
X0414027Y0385181D01*
X0413949Y0384791D01*
X0414027Y0384401D01*
X0414248Y0384070D01*
X0414579Y0383849D01*
X0414969Y0383771D01*
X0415359Y0383849D01*
X0415690Y0384070D01*
X0415911Y0384401D01*
X0415988Y0384791D01*
X0415911Y0385181D01*
X0415690Y0385512D01*
X0415359Y0385733D01*
X0414969Y0385810D01*
D02*
G37*
G36*
X0515726Y0385484D02*
X0515336Y0385406D01*
X0515005Y0385185D01*
X0514784Y0384854D01*
X0514707Y0384464D01*
X0514784Y0384074D01*
X0515005Y0383743D01*
X0515336Y0383522D01*
X0515726Y0383444D01*
X0516116Y0383522D01*
X0516447Y0383743D01*
X0516668Y0384074D01*
X0516746Y0384464D01*
X0516668Y0384854D01*
X0516447Y0385185D01*
X0516116Y0385406D01*
X0515726Y0385484D01*
D02*
G37*
G36*
X0426862Y0384243D02*
X0426472Y0384166D01*
X0426141Y0383945D01*
X0425920Y0383614D01*
X0425421Y0383381D01*
X0425031Y0383458D01*
X0424641Y0383381D01*
X0424310Y0383160D01*
X0424089Y0382829D01*
X0424011Y0382439D01*
X0424089Y0382049D01*
X0424310Y0381718D01*
X0424641Y0381497D01*
X0425031Y0381419D01*
X0425298Y0381472D01*
X0425543Y0381388D01*
X0425806Y0381153D01*
X0425852Y0380917D01*
X0426073Y0380587D01*
X0426404Y0380366D01*
X0426794Y0380288D01*
X0427184Y0380366D01*
X0427515Y0380587D01*
X0427736Y0380917D01*
X0427814Y0381308D01*
X0427736Y0381698D01*
X0427515Y0382029D01*
X0427583Y0382503D01*
X0427804Y0382833D01*
X0427881Y0383224D01*
X0427804Y0383614D01*
X0427583Y0383945D01*
X0427252Y0384166D01*
X0426862Y0384243D01*
D02*
G37*
G36*
X0448824Y0385225D02*
X0448434Y0385147D01*
X0448103Y0384926D01*
X0447882Y0384595D01*
X0447804Y0384205D01*
X0447882Y0383815D01*
X0448103Y0383484D01*
X0448434Y0383263D01*
X0448824Y0383185D01*
X0449214Y0383263D01*
X0449545Y0383484D01*
X0449766Y0383815D01*
X0449844Y0384205D01*
X0449766Y0384595D01*
X0449545Y0384926D01*
X0449214Y0385147D01*
X0448824Y0385225D01*
D02*
G37*
G36*
X0473663Y0384398D02*
X0473273Y0384320D01*
X0472942Y0384100D01*
X0472721Y0383769D01*
X0472644Y0383379D01*
X0472721Y0382988D01*
X0472942Y0382658D01*
X0473273Y0382436D01*
X0473663Y0382359D01*
X0474053Y0382436D01*
X0474384Y0382658D01*
X0474605Y0382988D01*
X0474683Y0383379D01*
X0474605Y0383769D01*
X0474384Y0384100D01*
X0474053Y0384320D01*
X0473663Y0384398D01*
D02*
G37*
G36*
X0481207Y0383354D02*
X0480817Y0383276D01*
X0480486Y0383055D01*
X0480265Y0382724D01*
X0480187Y0382334D01*
X0480265Y0381944D01*
X0480486Y0381613D01*
X0480817Y0381392D01*
X0481207Y0381315D01*
X0481597Y0381392D01*
X0481928Y0381613D01*
X0482149Y0381944D01*
X0482226Y0382334D01*
X0482149Y0382724D01*
X0481928Y0383055D01*
X0481597Y0383276D01*
X0481207Y0383354D01*
D02*
G37*
G36*
X0414902Y0382709D02*
X0414512Y0382631D01*
X0414181Y0382410D01*
X0413960Y0382079D01*
X0413883Y0381689D01*
X0413960Y0381299D01*
X0414181Y0380968D01*
X0414512Y0380747D01*
X0414902Y0380670D01*
X0415293Y0380747D01*
X0415623Y0380968D01*
X0415844Y0381299D01*
X0415922Y0381689D01*
X0415844Y0382079D01*
X0415623Y0382410D01*
X0415293Y0382631D01*
X0414902Y0382709D01*
D02*
G37*
G36*
X0457780Y0378091D02*
X0457390Y0378013D01*
X0457059Y0377792D01*
X0456838Y0377461D01*
X0456826Y0377402D01*
X0456270Y0377171D01*
X0456230Y0377199D01*
X0455840Y0377276D01*
X0455449Y0377199D01*
X0455119Y0376978D01*
X0454898Y0376647D01*
X0454820Y0376257D01*
X0454898Y0375866D01*
X0455119Y0375536D01*
X0455449Y0375315D01*
X0455840Y0375237D01*
X0456230Y0375315D01*
X0456561Y0375536D01*
X0456782Y0375866D01*
X0456793Y0375926D01*
X0457349Y0376156D01*
X0457390Y0376129D01*
X0457780Y0376051D01*
X0458170Y0376129D01*
X0458501Y0376350D01*
X0458722Y0376681D01*
X0458799Y0377071D01*
X0458722Y0377461D01*
X0458501Y0377792D01*
X0458170Y0378013D01*
X0457780Y0378091D01*
D02*
G37*
G36*
X0425412Y0379692D02*
X0425022Y0379614D01*
X0424691Y0379393D01*
X0424470Y0379062D01*
X0424393Y0378672D01*
X0424470Y0378282D01*
X0424691Y0377951D01*
X0425022Y0377730D01*
X0425412Y0377652D01*
X0425499Y0377670D01*
X0425836Y0377671D01*
X0426042Y0377307D01*
X0426047Y0377281D01*
X0426268Y0376951D01*
X0426599Y0376730D01*
X0426989Y0376652D01*
X0427380Y0376730D01*
X0427710Y0376951D01*
X0427931Y0377281D01*
X0428009Y0377672D01*
X0427931Y0378062D01*
X0427710Y0378393D01*
X0427380Y0378614D01*
X0426989Y0378691D01*
X0426902Y0378674D01*
X0426566Y0378673D01*
X0426359Y0379037D01*
X0426354Y0379062D01*
X0426133Y0379393D01*
X0425802Y0379614D01*
X0425412Y0379692D01*
D02*
G37*
G36*
X0440955Y0383270D02*
X0440564Y0383192D01*
X0440234Y0382971D01*
X0440013Y0382641D01*
X0439935Y0382250D01*
X0439963Y0382110D01*
X0439951Y0381816D01*
X0439606Y0381568D01*
X0439553Y0381558D01*
X0439223Y0381337D01*
X0439002Y0381006D01*
X0438924Y0380616D01*
X0439002Y0380226D01*
X0439223Y0379895D01*
X0439510Y0379703D01*
X0439573Y0379581D01*
X0439664Y0379142D01*
X0439520Y0378925D01*
X0439442Y0378535D01*
X0439520Y0378145D01*
X0439568Y0378073D01*
X0439561Y0377621D01*
X0439418Y0377467D01*
X0439229Y0377341D01*
X0439008Y0377010D01*
X0438931Y0376620D01*
X0439008Y0376230D01*
X0439229Y0375899D01*
X0439406Y0375781D01*
X0439559Y0375576D01*
X0439553Y0375169D01*
X0439478Y0375057D01*
X0439400Y0374666D01*
X0439478Y0374276D01*
X0439699Y0373945D01*
X0439583Y0373431D01*
X0439252Y0373210D01*
X0439031Y0372879D01*
X0438953Y0372489D01*
X0439031Y0372099D01*
X0439252Y0371768D01*
X0439583Y0371547D01*
X0439973Y0371469D01*
X0440363Y0371547D01*
X0440694Y0371768D01*
X0440915Y0372099D01*
X0440993Y0372489D01*
X0440915Y0372879D01*
X0440694Y0373210D01*
X0440810Y0373724D01*
X0441141Y0373945D01*
X0441362Y0374276D01*
X0441439Y0374666D01*
X0441362Y0375057D01*
X0441141Y0375387D01*
X0440964Y0375505D01*
X0440811Y0375711D01*
X0440816Y0376117D01*
X0440862Y0376185D01*
X0440921Y0376237D01*
X0441428Y0376362D01*
X0441551Y0376280D01*
X0441941Y0376202D01*
X0442332Y0376280D01*
X0442662Y0376501D01*
X0442883Y0376832D01*
X0442961Y0377222D01*
X0442883Y0377612D01*
X0442662Y0377943D01*
X0442332Y0378164D01*
X0441941Y0378241D01*
X0441932Y0378240D01*
X0441481Y0378535D01*
X0441404Y0378925D01*
X0441183Y0379256D01*
X0440896Y0379448D01*
X0440833Y0379570D01*
X0440741Y0380009D01*
X0440886Y0380226D01*
X0440963Y0380616D01*
X0440935Y0380756D01*
X0440947Y0381050D01*
X0441292Y0381298D01*
X0441345Y0381308D01*
X0441676Y0381529D01*
X0441897Y0381860D01*
X0441974Y0382250D01*
X0441897Y0382641D01*
X0441676Y0382971D01*
X0441345Y0383192D01*
X0440955Y0383270D01*
D02*
G37*
G36*
X0463854Y0377638D02*
X0463464Y0377561D01*
X0463133Y0377340D01*
X0462912Y0377009D01*
X0462834Y0376619D01*
X0462912Y0376229D01*
X0463133Y0375898D01*
X0463464Y0375677D01*
X0463854Y0375599D01*
X0464244Y0375677D01*
X0464575Y0375898D01*
X0464796Y0376229D01*
X0464873Y0376619D01*
X0464796Y0377009D01*
X0464575Y0377340D01*
X0464244Y0377561D01*
X0463854Y0377638D01*
D02*
G37*
G36*
X0461102Y0376837D02*
X0460712Y0376760D01*
X0460381Y0376539D01*
X0460160Y0376208D01*
X0460082Y0375818D01*
X0460160Y0375428D01*
X0460381Y0375097D01*
X0460712Y0374876D01*
X0461102Y0374798D01*
X0461492Y0374876D01*
X0461823Y0375097D01*
X0462044Y0375428D01*
X0462121Y0375818D01*
X0462044Y0376208D01*
X0461823Y0376539D01*
X0461492Y0376760D01*
X0461102Y0376837D01*
D02*
G37*
G36*
X0501084Y0375540D02*
X0500694Y0375462D01*
X0500363Y0375241D01*
X0500142Y0374910D01*
X0500065Y0374520D01*
X0500142Y0374130D01*
X0500363Y0373799D01*
X0500694Y0373578D01*
X0501084Y0373501D01*
X0501475Y0373578D01*
X0501805Y0373799D01*
X0502337Y0373695D01*
X0502584Y0373530D01*
X0502974Y0373452D01*
X0503365Y0373530D01*
X0503683Y0373742D01*
X0503695Y0373750D01*
X0504288Y0373737D01*
X0504291Y0373733D01*
X0504622Y0373512D01*
X0505012Y0373434D01*
X0505402Y0373512D01*
X0505733Y0373733D01*
X0505954Y0374063D01*
X0506032Y0374454D01*
X0505954Y0374844D01*
X0505733Y0375175D01*
X0505402Y0375396D01*
X0505012Y0375473D01*
X0504622Y0375396D01*
X0504303Y0375183D01*
X0504291Y0375175D01*
X0503698Y0375188D01*
X0503695Y0375192D01*
X0503365Y0375413D01*
X0502974Y0375491D01*
X0502584Y0375413D01*
X0502253Y0375192D01*
X0501722Y0375297D01*
X0501475Y0375462D01*
X0501084Y0375540D01*
D02*
G37*
G36*
X0478906Y0375077D02*
X0478516Y0374999D01*
X0478185Y0374778D01*
X0477964Y0374448D01*
X0477886Y0374057D01*
X0477964Y0373667D01*
X0478185Y0373337D01*
X0478516Y0373115D01*
X0478906Y0373038D01*
X0479296Y0373115D01*
X0479627Y0373337D01*
X0479848Y0373667D01*
X0479926Y0374057D01*
X0479848Y0374448D01*
X0479627Y0374778D01*
X0479296Y0374999D01*
X0478906Y0375077D01*
D02*
G37*
G36*
X0427083Y0374736D02*
X0426693Y0374659D01*
X0426362Y0374438D01*
X0426141Y0374107D01*
X0426063Y0373717D01*
X0426141Y0373326D01*
X0426362Y0372996D01*
X0426693Y0372775D01*
X0427083Y0372697D01*
X0427473Y0372775D01*
X0427804Y0372996D01*
X0428025Y0373326D01*
X0428102Y0373717D01*
X0428025Y0374107D01*
X0427804Y0374438D01*
X0427473Y0374659D01*
X0427083Y0374736D01*
D02*
G37*
G36*
X0469755Y0373936D02*
X0469364Y0373858D01*
X0469034Y0373637D01*
X0468813Y0373306D01*
X0468735Y0372916D01*
X0468813Y0372526D01*
X0469034Y0372195D01*
X0469364Y0371974D01*
X0469755Y0371897D01*
X0470145Y0371974D01*
X0470476Y0372195D01*
X0470697Y0372526D01*
X0470774Y0372916D01*
X0470697Y0373306D01*
X0470476Y0373637D01*
X0470145Y0373858D01*
X0469755Y0373936D01*
D02*
G37*
G36*
X0507374Y0373934D02*
X0506983Y0373856D01*
X0506653Y0373635D01*
X0506432Y0373304D01*
X0506354Y0372914D01*
X0506432Y0372524D01*
X0506653Y0372193D01*
X0506983Y0371972D01*
X0507374Y0371895D01*
X0507764Y0371972D01*
X0508095Y0372193D01*
X0508316Y0372524D01*
X0508393Y0372914D01*
X0508316Y0373304D01*
X0508095Y0373635D01*
X0507764Y0373856D01*
X0507374Y0373934D01*
D02*
G37*
G36*
X0414280Y0373775D02*
X0413890Y0373697D01*
X0413559Y0373476D01*
X0413339Y0373145D01*
X0413261Y0372755D01*
X0413339Y0372365D01*
X0413559Y0372034D01*
X0413890Y0371813D01*
X0414280Y0371735D01*
X0414671Y0371813D01*
X0415001Y0372034D01*
X0415222Y0372365D01*
X0415300Y0372755D01*
X0415222Y0373145D01*
X0415001Y0373476D01*
X0414671Y0373697D01*
X0414280Y0373775D01*
D02*
G37*
G36*
X0513455Y0373627D02*
X0513065Y0373549D01*
X0512735Y0373328D01*
X0512513Y0372997D01*
X0512436Y0372607D01*
X0512513Y0372217D01*
X0512735Y0371886D01*
X0513065Y0371665D01*
X0513455Y0371588D01*
X0513846Y0371665D01*
X0514177Y0371886D01*
X0514397Y0372217D01*
X0514475Y0372607D01*
X0514397Y0372997D01*
X0514177Y0373328D01*
X0513846Y0373549D01*
X0513455Y0373627D01*
D02*
G37*
G36*
X0501958Y0372828D02*
X0501567Y0372751D01*
X0501236Y0372530D01*
X0501016Y0372199D01*
X0500938Y0371809D01*
X0501016Y0371418D01*
X0501236Y0371088D01*
X0501567Y0370867D01*
X0501958Y0370789D01*
X0502348Y0370867D01*
X0502678Y0371088D01*
X0502900Y0371418D01*
X0502977Y0371809D01*
X0502900Y0372199D01*
X0502678Y0372530D01*
X0502348Y0372751D01*
X0501958Y0372828D01*
D02*
G37*
G36*
X0451754Y0372461D02*
X0451364Y0372383D01*
X0451033Y0372162D01*
X0450812Y0371831D01*
X0450734Y0371441D01*
X0450812Y0371051D01*
X0451033Y0370720D01*
X0451364Y0370499D01*
X0451754Y0370421D01*
X0452144Y0370499D01*
X0452475Y0370720D01*
X0452696Y0371051D01*
X0452773Y0371441D01*
X0452696Y0371831D01*
X0452475Y0372162D01*
X0452144Y0372383D01*
X0451754Y0372461D01*
D02*
G37*
G36*
X0427100Y0372026D02*
X0426710Y0371949D01*
X0426379Y0371728D01*
X0426158Y0371397D01*
X0426080Y0371007D01*
X0426158Y0370617D01*
X0426379Y0370286D01*
X0426710Y0370065D01*
X0427100Y0369987D01*
X0427490Y0370065D01*
X0427821Y0370286D01*
X0428042Y0370617D01*
X0428119Y0371007D01*
X0428042Y0371397D01*
X0427821Y0371728D01*
X0427490Y0371949D01*
X0427100Y0372026D01*
D02*
G37*
G36*
X0446027Y0371796D02*
X0445637Y0371719D01*
X0445306Y0371498D01*
X0445085Y0371167D01*
X0445008Y0370777D01*
X0445085Y0370387D01*
X0445306Y0370056D01*
X0445637Y0369835D01*
X0446027Y0369757D01*
X0446418Y0369835D01*
X0446748Y0370056D01*
X0446969Y0370387D01*
X0447047Y0370777D01*
X0446969Y0371167D01*
X0446748Y0371498D01*
X0446418Y0371719D01*
X0446027Y0371796D01*
D02*
G37*
G36*
X0414205Y0370643D02*
X0413815Y0370566D01*
X0413484Y0370345D01*
X0413263Y0370014D01*
X0413185Y0369624D01*
X0413263Y0369233D01*
X0413484Y0368903D01*
X0413815Y0368682D01*
X0414205Y0368604D01*
X0414595Y0368682D01*
X0414926Y0368903D01*
X0415147Y0369233D01*
X0415225Y0369624D01*
X0415147Y0370014D01*
X0414926Y0370345D01*
X0414595Y0370566D01*
X0414205Y0370643D01*
D02*
G37*
G36*
X0491803Y0368770D02*
X0491413Y0368692D01*
X0491082Y0368471D01*
X0490861Y0368140D01*
X0490784Y0367750D01*
X0490861Y0367360D01*
X0491082Y0367029D01*
X0491413Y0366808D01*
X0491803Y0366730D01*
X0492194Y0366808D01*
X0492507Y0367017D01*
X0492834Y0366798D01*
X0493224Y0366721D01*
X0493615Y0366798D01*
X0493946Y0367019D01*
X0494167Y0367350D01*
X0494244Y0367740D01*
X0494167Y0368130D01*
X0493946Y0368461D01*
X0493615Y0368682D01*
X0493224Y0368760D01*
X0492834Y0368682D01*
X0492521Y0368473D01*
X0492194Y0368692D01*
X0491803Y0368770D01*
D02*
G37*
G36*
X0501952Y0368077D02*
X0501562Y0368000D01*
X0501231Y0367779D01*
X0501010Y0367448D01*
X0500932Y0367058D01*
X0501010Y0366668D01*
X0501231Y0366337D01*
X0501562Y0366116D01*
X0501952Y0366038D01*
X0502342Y0366116D01*
X0502673Y0366337D01*
X0502894Y0366668D01*
X0502972Y0367058D01*
X0502894Y0367448D01*
X0502673Y0367779D01*
X0502342Y0368000D01*
X0501952Y0368077D01*
D02*
G37*
G36*
X0414493Y0367326D02*
X0414102Y0367249D01*
X0413771Y0367028D01*
X0413551Y0366697D01*
X0413473Y0366307D01*
X0413551Y0365917D01*
X0413771Y0365586D01*
X0414102Y0365365D01*
X0414493Y0365287D01*
X0414883Y0365365D01*
X0415213Y0365586D01*
X0415435Y0365917D01*
X0415512Y0366307D01*
X0415435Y0366697D01*
X0415213Y0367028D01*
X0414883Y0367249D01*
X0414493Y0367326D01*
D02*
G37*
G36*
X0414050Y0364142D02*
X0413660Y0364065D01*
X0413329Y0363844D01*
X0413108Y0363513D01*
X0413031Y0363123D01*
X0413108Y0362733D01*
X0413329Y0362402D01*
X0413660Y0362181D01*
X0414050Y0362103D01*
X0414440Y0362181D01*
X0414771Y0362402D01*
X0414992Y0362733D01*
X0415070Y0363123D01*
X0414992Y0363513D01*
X0414771Y0363844D01*
X0414440Y0364065D01*
X0414050Y0364142D01*
D02*
G37*
G36*
X0450762Y0363993D02*
X0450372Y0363915D01*
X0450041Y0363694D01*
X0449820Y0363364D01*
X0449743Y0362973D01*
X0449820Y0362583D01*
X0450041Y0362252D01*
X0450372Y0362032D01*
X0450762Y0361954D01*
X0451152Y0362032D01*
X0451483Y0362252D01*
X0451704Y0362583D01*
X0451782Y0362973D01*
X0451704Y0363364D01*
X0451483Y0363694D01*
X0451152Y0363915D01*
X0450762Y0363993D01*
D02*
G37*
G36*
X0470984Y0365487D02*
X0470594Y0365409D01*
X0470263Y0365189D01*
X0470042Y0364858D01*
X0469965Y0364468D01*
X0470042Y0364077D01*
X0470263Y0363747D01*
X0470335Y0363240D01*
X0470114Y0362909D01*
X0470037Y0362519D01*
X0470114Y0362129D01*
X0470335Y0361798D01*
X0470666Y0361577D01*
X0471056Y0361499D01*
X0471446Y0361577D01*
X0471777Y0361798D01*
X0471998Y0362129D01*
X0472076Y0362519D01*
X0471998Y0362909D01*
X0471777Y0363240D01*
X0471705Y0363747D01*
X0471926Y0364077D01*
X0472004Y0364468D01*
X0471926Y0364858D01*
X0471705Y0365189D01*
X0471375Y0365409D01*
X0470984Y0365487D01*
D02*
G37*
G36*
X0473854Y0360843D02*
X0473464Y0360766D01*
X0473133Y0360545D01*
X0472912Y0360214D01*
X0472834Y0359824D01*
X0472912Y0359434D01*
X0473133Y0359103D01*
X0473464Y0358882D01*
X0473854Y0358804D01*
X0474244Y0358882D01*
X0474575Y0359103D01*
X0474796Y0359434D01*
X0474874Y0359824D01*
X0474796Y0360214D01*
X0474575Y0360545D01*
X0474244Y0360766D01*
X0473854Y0360843D01*
D02*
G37*
G36*
X0491267Y0358196D02*
X0490877Y0358118D01*
X0490546Y0357897D01*
X0490325Y0357566D01*
X0490248Y0357176D01*
X0490325Y0356786D01*
X0490546Y0356455D01*
X0490877Y0356234D01*
X0491267Y0356156D01*
X0491657Y0356234D01*
X0491988Y0356455D01*
X0492209Y0356786D01*
X0492287Y0357176D01*
X0492209Y0357566D01*
X0491988Y0357897D01*
X0491657Y0358118D01*
X0491267Y0358196D01*
D02*
G37*
G36*
X0414169Y0361235D02*
X0413779Y0361157D01*
X0413448Y0360936D01*
X0413227Y0360605D01*
X0413149Y0360215D01*
X0413227Y0359825D01*
X0413448Y0359494D01*
X0413583Y0359404D01*
X0413674Y0358916D01*
X0413643Y0358809D01*
X0413462Y0358538D01*
X0413384Y0358148D01*
X0413462Y0357758D01*
X0413682Y0357429D01*
X0413683Y0357427D01*
X0413681Y0356827D01*
X0413675Y0356823D01*
X0413454Y0356493D01*
X0413377Y0356102D01*
X0413454Y0355712D01*
X0413675Y0355381D01*
X0414006Y0355160D01*
X0414396Y0355083D01*
X0414786Y0355160D01*
X0415117Y0355381D01*
X0415338Y0355712D01*
X0415416Y0356102D01*
X0415338Y0356493D01*
X0415119Y0356821D01*
X0415117Y0356823D01*
X0415119Y0357423D01*
X0415125Y0357427D01*
X0415346Y0357758D01*
X0415424Y0358148D01*
X0415346Y0358538D01*
X0415125Y0358869D01*
X0414990Y0358960D01*
X0414899Y0359447D01*
X0414930Y0359555D01*
X0415111Y0359825D01*
X0415189Y0360215D01*
X0415111Y0360605D01*
X0414890Y0360936D01*
X0414559Y0361157D01*
X0414169Y0361235D01*
D02*
G37*
G36*
X0473615Y0356720D02*
X0473224Y0356643D01*
X0472894Y0356422D01*
X0472673Y0356091D01*
X0472595Y0355701D01*
X0472673Y0355311D01*
X0472894Y0354980D01*
X0473224Y0354759D01*
X0473615Y0354681D01*
X0474005Y0354759D01*
X0474336Y0354980D01*
X0474557Y0355311D01*
X0474634Y0355701D01*
X0474557Y0356091D01*
X0474336Y0356422D01*
X0474005Y0356643D01*
X0473615Y0356720D01*
D02*
G37*
G36*
X0491746Y0354831D02*
X0491356Y0354753D01*
X0491025Y0354532D01*
X0490539Y0354705D01*
X0490482Y0354743D01*
X0490092Y0354821D01*
X0489702Y0354743D01*
X0489371Y0354522D01*
X0489150Y0354191D01*
X0489072Y0353801D01*
X0489150Y0353411D01*
X0489371Y0353080D01*
X0489702Y0352859D01*
X0490092Y0352782D01*
X0490482Y0352859D01*
X0490813Y0353080D01*
X0491299Y0352907D01*
X0491356Y0352869D01*
X0491746Y0352792D01*
X0492136Y0352869D01*
X0492467Y0353090D01*
X0492688Y0353421D01*
X0492766Y0353811D01*
X0492688Y0354201D01*
X0492467Y0354532D01*
X0492136Y0354753D01*
X0491746Y0354831D01*
D02*
G37*
G36*
X0462061Y0356518D02*
X0461671Y0356441D01*
X0461340Y0356220D01*
X0461119Y0355889D01*
X0461041Y0355499D01*
X0461119Y0355109D01*
X0461340Y0354778D01*
X0461671Y0354557D01*
X0462061Y0354479D01*
X0462451Y0354557D01*
X0462782Y0354778D01*
X0463003Y0355109D01*
X0463080Y0355499D01*
X0463003Y0355889D01*
X0462782Y0356220D01*
X0462451Y0356441D01*
X0462061Y0356518D01*
D02*
G37*
G36*
X0432006Y0369862D02*
X0431616Y0369784D01*
X0431285Y0369564D01*
X0431064Y0369233D01*
X0430987Y0368843D01*
X0431064Y0368452D01*
X0431285Y0368122D01*
X0431334Y0367620D01*
X0431113Y0367289D01*
X0431036Y0366899D01*
X0431113Y0366509D01*
X0431334Y0366178D01*
X0431305Y0365687D01*
X0431084Y0365356D01*
X0431006Y0364966D01*
X0431084Y0364576D01*
X0431305Y0364245D01*
X0431324Y0363734D01*
X0431103Y0363403D01*
X0431026Y0363013D01*
X0431103Y0362623D01*
X0431324Y0362292D01*
X0431315Y0361752D01*
X0431311Y0361746D01*
X0431094Y0361421D01*
X0431016Y0361031D01*
X0431094Y0360641D01*
X0431315Y0360310D01*
Y0359770D01*
X0431094Y0359439D01*
X0431016Y0359049D01*
X0431094Y0358659D01*
X0431315Y0358328D01*
X0431266Y0357826D01*
X0431045Y0357496D01*
X0430967Y0357106D01*
X0431045Y0356715D01*
X0431266Y0356385D01*
X0431285Y0355825D01*
X0431064Y0355494D01*
X0430987Y0355104D01*
X0431064Y0354714D01*
X0431285Y0354383D01*
X0431616Y0354162D01*
X0432006Y0354084D01*
X0432397Y0354162D01*
X0432727Y0354383D01*
X0432948Y0354714D01*
X0433026Y0355104D01*
X0432948Y0355494D01*
X0432727Y0355825D01*
X0432708Y0356385D01*
X0432929Y0356715D01*
X0433006Y0357106D01*
X0432929Y0357496D01*
X0432708Y0357826D01*
X0432757Y0358328D01*
X0432978Y0358659D01*
X0433055Y0359049D01*
X0432978Y0359439D01*
X0432757Y0359770D01*
Y0360310D01*
X0432978Y0360641D01*
X0433055Y0361031D01*
X0432978Y0361421D01*
X0432757Y0361752D01*
X0432766Y0362292D01*
X0432770Y0362298D01*
X0432987Y0362623D01*
X0433065Y0363013D01*
X0432987Y0363403D01*
X0432766Y0363734D01*
X0432747Y0364245D01*
X0432968Y0364576D01*
X0433045Y0364966D01*
X0432968Y0365356D01*
X0432747Y0365687D01*
X0432776Y0366178D01*
X0432997Y0366509D01*
X0433075Y0366899D01*
X0432997Y0367289D01*
X0432776Y0367620D01*
X0432727Y0368122D01*
X0432948Y0368452D01*
X0433026Y0368843D01*
X0432948Y0369233D01*
X0432727Y0369564D01*
X0432397Y0369784D01*
X0432006Y0369862D01*
D02*
G37*
G36*
X0425597Y0370003D02*
X0425207Y0369925D01*
X0424876Y0369704D01*
X0424655Y0369373D01*
X0424577Y0368983D01*
X0424655Y0368593D01*
X0424854Y0368295D01*
X0424873Y0368240D01*
X0424806Y0367707D01*
X0424679Y0367622D01*
X0424458Y0367291D01*
X0424381Y0366901D01*
X0424458Y0366511D01*
X0424679Y0366180D01*
X0424754Y0365636D01*
X0424533Y0365305D01*
X0424456Y0364915D01*
X0424533Y0364525D01*
X0424754Y0364194D01*
X0424712Y0363649D01*
X0424491Y0363318D01*
X0424413Y0362928D01*
X0424491Y0362538D01*
X0424712Y0362207D01*
X0424848Y0362117D01*
X0424861Y0361551D01*
X0424737Y0361468D01*
X0424516Y0361138D01*
X0424438Y0360747D01*
X0424516Y0360357D01*
X0424737Y0360026D01*
X0424809Y0359978D01*
X0424819Y0359384D01*
X0424800Y0359371D01*
X0424579Y0359040D01*
X0424501Y0358650D01*
X0424579Y0358260D01*
X0424800Y0357929D01*
X0424810Y0357923D01*
X0424799Y0357328D01*
X0424726Y0357280D01*
X0424505Y0356949D01*
X0424427Y0356559D01*
X0424505Y0356169D01*
X0424668Y0355923D01*
X0424726Y0355838D01*
X0424711Y0355396D01*
X0424490Y0355065D01*
X0424412Y0354675D01*
X0424490Y0354285D01*
X0424711Y0353954D01*
X0425041Y0353733D01*
X0425432Y0353656D01*
X0425822Y0353733D01*
X0426153Y0353954D01*
X0426374Y0354285D01*
X0426451Y0354675D01*
X0426374Y0355065D01*
X0426210Y0355310D01*
X0426153Y0355396D01*
X0426167Y0355838D01*
X0426389Y0356169D01*
X0426466Y0356559D01*
X0426389Y0356949D01*
X0426167Y0357280D01*
X0426158Y0357286D01*
X0426169Y0357880D01*
X0426242Y0357929D01*
X0426463Y0358260D01*
X0426540Y0358650D01*
X0426463Y0359040D01*
X0426242Y0359371D01*
X0426170Y0359419D01*
X0426159Y0360014D01*
X0426179Y0360026D01*
X0426400Y0360357D01*
X0426477Y0360747D01*
X0426400Y0361138D01*
X0426179Y0361468D01*
X0426043Y0361559D01*
X0426029Y0362124D01*
X0426154Y0362207D01*
X0426375Y0362538D01*
X0426453Y0362928D01*
X0426375Y0363318D01*
X0426154Y0363649D01*
X0426196Y0364194D01*
X0426417Y0364525D01*
X0426495Y0364915D01*
X0426417Y0365305D01*
X0426196Y0365636D01*
X0426121Y0366180D01*
X0426342Y0366511D01*
X0426420Y0366901D01*
X0426342Y0367291D01*
X0426143Y0367590D01*
X0426124Y0367644D01*
X0426191Y0368177D01*
X0426318Y0368262D01*
X0426539Y0368593D01*
X0426616Y0368983D01*
X0426539Y0369373D01*
X0426318Y0369704D01*
X0425987Y0369925D01*
X0425597Y0370003D01*
D02*
G37*
G36*
X0456167Y0356611D02*
X0455777Y0356533D01*
X0455446Y0356312D01*
X0455225Y0355982D01*
X0455147Y0355591D01*
X0455225Y0355201D01*
X0455446Y0354871D01*
X0455777Y0354649D01*
X0456167Y0354572D01*
X0456338Y0354606D01*
X0456716Y0354530D01*
X0456981Y0354331D01*
X0457090Y0354169D01*
X0457421Y0353947D01*
X0457811Y0353870D01*
X0458201Y0353947D01*
X0458297Y0354012D01*
X0458741Y0353991D01*
X0458898Y0353858D01*
X0459032Y0353656D01*
X0459363Y0353435D01*
X0459753Y0353358D01*
X0460143Y0353435D01*
X0460474Y0353656D01*
X0460695Y0353987D01*
X0460773Y0354377D01*
X0460695Y0354768D01*
X0460474Y0355098D01*
X0460143Y0355319D01*
X0459753Y0355397D01*
X0459363Y0355319D01*
X0459267Y0355255D01*
X0458823Y0355276D01*
X0458666Y0355409D01*
X0458532Y0355610D01*
X0458201Y0355832D01*
X0457811Y0355909D01*
X0457640Y0355875D01*
X0457261Y0355951D01*
X0456997Y0356150D01*
X0456888Y0356312D01*
X0456557Y0356533D01*
X0456167Y0356611D01*
D02*
G37*
G36*
X0514311Y0354169D02*
X0513921Y0354091D01*
X0513590Y0353870D01*
X0513369Y0353539D01*
X0513292Y0353149D01*
X0513369Y0352759D01*
X0513590Y0352428D01*
X0513921Y0352207D01*
X0514311Y0352130D01*
X0514701Y0352207D01*
X0515032Y0352428D01*
X0515253Y0352759D01*
X0515331Y0353149D01*
X0515253Y0353539D01*
X0515032Y0353870D01*
X0514701Y0354091D01*
X0514311Y0354169D01*
D02*
G37*
G36*
X0414183Y0353816D02*
X0413793Y0353739D01*
X0413462Y0353518D01*
X0413241Y0353187D01*
X0413163Y0352797D01*
X0413241Y0352407D01*
X0413462Y0352076D01*
X0413793Y0351855D01*
X0414183Y0351777D01*
X0414573Y0351855D01*
X0414904Y0352076D01*
X0415125Y0352407D01*
X0415203Y0352797D01*
X0415125Y0353187D01*
X0414904Y0353518D01*
X0414573Y0353739D01*
X0414183Y0353816D01*
D02*
G37*
G36*
X0436577Y0351196D02*
X0436187Y0351118D01*
X0435856Y0350897D01*
X0435635Y0350566D01*
X0435593Y0350354D01*
X0435076Y0350226D01*
X0435004Y0350335D01*
X0434673Y0350556D01*
X0434283Y0350633D01*
X0433893Y0350556D01*
X0433562Y0350335D01*
X0433341Y0350004D01*
X0433263Y0349614D01*
X0433341Y0349223D01*
X0433562Y0348893D01*
X0433893Y0348672D01*
X0434283Y0348594D01*
X0434673Y0348672D01*
X0435004Y0348893D01*
X0435225Y0349223D01*
X0435267Y0349436D01*
X0435783Y0349564D01*
X0435856Y0349455D01*
X0436187Y0349234D01*
X0436577Y0349156D01*
X0436967Y0349234D01*
X0437298Y0349455D01*
X0437519Y0349786D01*
X0437596Y0350176D01*
X0437519Y0350566D01*
X0437298Y0350897D01*
X0436967Y0351118D01*
X0436577Y0351196D01*
D02*
G37*
G36*
X0452390Y0351195D02*
X0452000Y0351117D01*
X0451669Y0350896D01*
X0451448Y0350565D01*
X0451370Y0350175D01*
X0451448Y0349785D01*
X0451669Y0349454D01*
X0452000Y0349233D01*
X0452390Y0349155D01*
X0452780Y0349233D01*
X0453111Y0349454D01*
X0453332Y0349785D01*
X0453409Y0350175D01*
X0453332Y0350565D01*
X0453111Y0350896D01*
X0452780Y0351117D01*
X0452390Y0351195D01*
D02*
G37*
G36*
X0514039Y0350357D02*
X0513649Y0350279D01*
X0513318Y0350058D01*
X0513097Y0349727D01*
X0513019Y0349337D01*
X0513097Y0348947D01*
X0513318Y0348616D01*
X0513649Y0348395D01*
X0514039Y0348318D01*
X0514429Y0348395D01*
X0514760Y0348616D01*
X0514981Y0348947D01*
X0515058Y0349337D01*
X0514981Y0349727D01*
X0514760Y0350058D01*
X0514429Y0350279D01*
X0514039Y0350357D01*
D02*
G37*
G36*
X0470316Y0350126D02*
X0469926Y0350048D01*
X0469595Y0349827D01*
X0469374Y0349496D01*
X0469297Y0349106D01*
X0469374Y0348716D01*
X0469595Y0348385D01*
X0469926Y0348164D01*
X0470316Y0348087D01*
X0470706Y0348164D01*
X0471037Y0348385D01*
X0471258Y0348716D01*
X0471336Y0349106D01*
X0471258Y0349496D01*
X0471037Y0349827D01*
X0470706Y0350048D01*
X0470316Y0350126D01*
D02*
G37*
G36*
X0414470Y0350079D02*
X0414080Y0350002D01*
X0413750Y0349781D01*
X0413528Y0349450D01*
X0413451Y0349060D01*
X0413528Y0348670D01*
X0413750Y0348339D01*
X0414080Y0348118D01*
X0414470Y0348040D01*
X0414861Y0348118D01*
X0415191Y0348339D01*
X0415412Y0348670D01*
X0415490Y0349060D01*
X0415412Y0349450D01*
X0415191Y0349781D01*
X0414861Y0350002D01*
X0414470Y0350079D01*
D02*
G37*
G36*
X0473458Y0349798D02*
X0473068Y0349721D01*
X0472738Y0349500D01*
X0472516Y0349169D01*
X0472439Y0348779D01*
X0472516Y0348389D01*
X0472738Y0348058D01*
X0473068Y0347837D01*
X0473458Y0347759D01*
X0473849Y0347837D01*
X0474179Y0348058D01*
X0474400Y0348389D01*
X0474478Y0348779D01*
X0474400Y0349169D01*
X0474179Y0349500D01*
X0473849Y0349721D01*
X0473458Y0349798D01*
D02*
G37*
G36*
X0522956Y0349709D02*
X0522566Y0349631D01*
X0522235Y0349410D01*
X0522014Y0349079D01*
X0521936Y0348689D01*
X0522014Y0348299D01*
X0522235Y0347968D01*
X0522566Y0347747D01*
X0522956Y0347670D01*
X0523346Y0347747D01*
X0523677Y0347968D01*
X0523898Y0348299D01*
X0523975Y0348689D01*
X0523898Y0349079D01*
X0523677Y0349410D01*
X0523346Y0349631D01*
X0522956Y0349709D01*
D02*
G37*
G36*
X0459835Y0349333D02*
X0459445Y0349255D01*
X0459114Y0349035D01*
X0458893Y0348704D01*
X0458815Y0348314D01*
X0458893Y0347923D01*
X0459114Y0347593D01*
X0459445Y0347372D01*
X0459835Y0347294D01*
X0460225Y0347372D01*
X0460556Y0347593D01*
X0460777Y0347923D01*
X0460854Y0348314D01*
X0460777Y0348704D01*
X0460556Y0349035D01*
X0460225Y0349255D01*
X0459835Y0349333D01*
D02*
G37*
G36*
X0464221Y0348815D02*
X0463831Y0348737D01*
X0463500Y0348516D01*
X0463279Y0348185D01*
X0463201Y0347795D01*
X0463279Y0347405D01*
X0463500Y0347074D01*
X0463831Y0346853D01*
X0464221Y0346775D01*
X0464611Y0346853D01*
X0464942Y0347074D01*
X0465163Y0347405D01*
X0465240Y0347795D01*
X0465163Y0348185D01*
X0464942Y0348516D01*
X0464611Y0348737D01*
X0464221Y0348815D01*
D02*
G37*
G36*
X0468063Y0348565D02*
X0467672Y0348487D01*
X0467342Y0348266D01*
X0467121Y0347935D01*
X0467043Y0347545D01*
X0467121Y0347155D01*
X0467342Y0346824D01*
X0467672Y0346603D01*
X0468063Y0346525D01*
X0468453Y0346603D01*
X0468784Y0346824D01*
X0469005Y0347155D01*
X0469082Y0347545D01*
X0469005Y0347935D01*
X0468784Y0348266D01*
X0468453Y0348487D01*
X0468063Y0348565D01*
D02*
G37*
G36*
X0505449Y0346386D02*
X0505058Y0346309D01*
X0504728Y0346088D01*
X0504507Y0345757D01*
X0504429Y0345367D01*
X0504507Y0344977D01*
X0504728Y0344646D01*
X0505058Y0344425D01*
X0505449Y0344347D01*
X0505839Y0344425D01*
X0506170Y0344646D01*
X0506606Y0344398D01*
X0506706Y0344332D01*
X0507096Y0344254D01*
X0507486Y0344332D01*
X0507817Y0344552D01*
X0508038Y0344883D01*
X0508116Y0345273D01*
X0508038Y0345664D01*
X0507817Y0345994D01*
X0507486Y0346215D01*
X0507096Y0346293D01*
X0506706Y0346215D01*
X0506375Y0345994D01*
X0505939Y0346242D01*
X0505839Y0346309D01*
X0505449Y0346386D01*
D02*
G37*
G36*
X0473508Y0345579D02*
X0473118Y0345502D01*
X0472787Y0345281D01*
X0472566Y0344950D01*
X0472488Y0344560D01*
X0472566Y0344169D01*
X0472787Y0343839D01*
X0473118Y0343618D01*
X0473508Y0343540D01*
X0473898Y0343618D01*
X0474229Y0343839D01*
X0474450Y0344169D01*
X0474527Y0344560D01*
X0474450Y0344950D01*
X0474229Y0345281D01*
X0473898Y0345502D01*
X0473508Y0345579D01*
D02*
G37*
G36*
X0523793Y0344546D02*
X0523402Y0344468D01*
X0523072Y0344247D01*
X0522851Y0343917D01*
X0522773Y0343526D01*
X0522851Y0343136D01*
X0523072Y0342805D01*
X0523402Y0342584D01*
X0523793Y0342507D01*
X0524183Y0342584D01*
X0524513Y0342805D01*
X0524734Y0343136D01*
X0524812Y0343526D01*
X0524734Y0343917D01*
X0524513Y0344247D01*
X0524183Y0344468D01*
X0523793Y0344546D01*
D02*
G37*
G36*
X0487227Y0343814D02*
X0486836Y0343737D01*
X0486506Y0343516D01*
X0486285Y0343185D01*
X0486207Y0342795D01*
X0486285Y0342405D01*
X0486506Y0342074D01*
X0486836Y0341853D01*
X0487227Y0341775D01*
X0487617Y0341853D01*
X0487948Y0342074D01*
X0488169Y0342405D01*
X0488246Y0342795D01*
X0488169Y0343185D01*
X0487948Y0343516D01*
X0487617Y0343737D01*
X0487227Y0343814D01*
D02*
G37*
G36*
X0482543Y0342398D02*
X0482153Y0342320D01*
X0481822Y0342099D01*
X0481601Y0341769D01*
X0481524Y0341378D01*
X0481601Y0340988D01*
X0481822Y0340657D01*
X0482153Y0340436D01*
X0482543Y0340359D01*
X0482934Y0340436D01*
X0483264Y0340657D01*
X0483485Y0340988D01*
X0483563Y0341378D01*
X0483485Y0341769D01*
X0483264Y0342099D01*
X0482934Y0342320D01*
X0482543Y0342398D01*
D02*
G37*
G36*
X0475379Y0341832D02*
X0474988Y0341754D01*
X0474657Y0341533D01*
X0474437Y0341203D01*
X0474359Y0340812D01*
X0474437Y0340422D01*
X0474657Y0340091D01*
X0474988Y0339871D01*
X0475379Y0339793D01*
X0475769Y0339871D01*
X0476099Y0340091D01*
X0476321Y0340422D01*
X0476398Y0340812D01*
X0476321Y0341203D01*
X0476099Y0341533D01*
X0475769Y0341754D01*
X0475379Y0341832D01*
D02*
G37*
G36*
X0487257Y0340813D02*
X0486867Y0340735D01*
X0486536Y0340514D01*
X0486315Y0340183D01*
X0486237Y0339793D01*
X0486315Y0339403D01*
X0486536Y0339072D01*
X0486867Y0338851D01*
X0487257Y0338774D01*
X0487647Y0338851D01*
X0487978Y0339072D01*
X0488199Y0339403D01*
X0488276Y0339793D01*
X0488199Y0340183D01*
X0487978Y0340514D01*
X0487647Y0340735D01*
X0487257Y0340813D01*
D02*
G37*
G36*
X0455433Y0340653D02*
X0455043Y0340576D01*
X0454712Y0340355D01*
X0454491Y0340024D01*
X0454413Y0339634D01*
X0454491Y0339244D01*
X0454712Y0338913D01*
X0455043Y0338692D01*
X0455433Y0338614D01*
X0455823Y0338692D01*
X0456154Y0338913D01*
X0456375Y0339244D01*
X0456453Y0339634D01*
X0456375Y0340024D01*
X0456154Y0340355D01*
X0455823Y0340576D01*
X0455433Y0340653D01*
D02*
G37*
G36*
X0414695Y0339838D02*
X0414305Y0339760D01*
X0413974Y0339539D01*
X0413753Y0339208D01*
X0413675Y0338818D01*
X0413753Y0338428D01*
X0413974Y0338097D01*
X0414305Y0337876D01*
X0414695Y0337799D01*
X0415085Y0337876D01*
X0415416Y0338097D01*
X0415637Y0338428D01*
X0415715Y0338818D01*
X0415637Y0339208D01*
X0415416Y0339539D01*
X0415085Y0339760D01*
X0414695Y0339838D01*
D02*
G37*
G36*
X0523460Y0338238D02*
X0523069Y0338160D01*
X0522739Y0337940D01*
X0522518Y0337609D01*
X0522440Y0337219D01*
X0522518Y0336828D01*
X0522739Y0336498D01*
X0523069Y0336277D01*
X0523460Y0336199D01*
X0523850Y0336277D01*
X0524181Y0336498D01*
X0524402Y0336828D01*
X0524479Y0337219D01*
X0524402Y0337609D01*
X0524181Y0337940D01*
X0523850Y0338160D01*
X0523460Y0338238D01*
D02*
G37*
G36*
X0414725Y0336425D02*
X0414335Y0336348D01*
X0414004Y0336127D01*
X0413783Y0335796D01*
X0413706Y0335406D01*
X0413783Y0335016D01*
X0414004Y0334685D01*
X0414335Y0334464D01*
X0414725Y0334386D01*
X0415115Y0334464D01*
X0415446Y0334685D01*
X0415667Y0335016D01*
X0415745Y0335406D01*
X0415667Y0335796D01*
X0415446Y0336127D01*
X0415115Y0336348D01*
X0414725Y0336425D01*
D02*
G37*
G36*
X0457175Y0335077D02*
X0456784Y0335000D01*
X0456454Y0334779D01*
X0456233Y0334448D01*
X0456155Y0334058D01*
X0456233Y0333668D01*
X0456454Y0333337D01*
X0456784Y0333116D01*
X0457175Y0333038D01*
X0457565Y0333116D01*
X0457896Y0333337D01*
X0458117Y0333668D01*
X0458194Y0334058D01*
X0458117Y0334448D01*
X0457896Y0334779D01*
X0457565Y0335000D01*
X0457175Y0335077D01*
D02*
G37*
G36*
X0481835Y0334772D02*
X0481445Y0334695D01*
X0481114Y0334473D01*
X0480893Y0334143D01*
X0480815Y0333752D01*
X0480893Y0333362D01*
X0481114Y0333032D01*
X0481445Y0332811D01*
X0481835Y0332733D01*
X0482225Y0332811D01*
X0482556Y0333032D01*
X0482777Y0333362D01*
X0482855Y0333752D01*
X0482777Y0334143D01*
X0482556Y0334473D01*
X0482225Y0334695D01*
X0481835Y0334772D01*
D02*
G37*
G36*
X0414629Y0333438D02*
X0414239Y0333360D01*
X0413908Y0333139D01*
X0413687Y0332808D01*
X0413609Y0332418D01*
X0413687Y0332028D01*
X0413908Y0331697D01*
X0414239Y0331476D01*
X0414629Y0331399D01*
X0415019Y0331476D01*
X0415350Y0331697D01*
X0415571Y0332028D01*
X0415648Y0332418D01*
X0415571Y0332808D01*
X0415350Y0333139D01*
X0415019Y0333360D01*
X0414629Y0333438D01*
D02*
G37*
G36*
X0426271Y0333335D02*
X0425881Y0333258D01*
X0425551Y0333037D01*
X0425329Y0332706D01*
X0425252Y0332316D01*
X0425329Y0331926D01*
X0425551Y0331595D01*
X0425881Y0331374D01*
X0426271Y0331296D01*
X0426662Y0331374D01*
X0426992Y0331595D01*
X0427213Y0331926D01*
X0427291Y0332316D01*
X0427213Y0332706D01*
X0426992Y0333037D01*
X0426662Y0333258D01*
X0426271Y0333335D01*
D02*
G37*
G36*
X0456780Y0330668D02*
X0456390Y0330591D01*
X0456059Y0330370D01*
X0455838Y0330039D01*
X0455760Y0329649D01*
X0455838Y0329259D01*
X0456059Y0328928D01*
X0456390Y0328707D01*
X0456780Y0328629D01*
X0457170Y0328707D01*
X0457501Y0328928D01*
X0457722Y0329259D01*
X0457799Y0329649D01*
X0457722Y0330039D01*
X0457501Y0330370D01*
X0457170Y0330591D01*
X0456780Y0330668D01*
D02*
G37*
G36*
X0426704Y0330586D02*
X0426314Y0330508D01*
X0425983Y0330287D01*
X0425762Y0329956D01*
X0425684Y0329566D01*
X0425762Y0329176D01*
X0425983Y0328845D01*
X0426314Y0328624D01*
X0426704Y0328546D01*
X0427094Y0328624D01*
X0427425Y0328845D01*
X0427646Y0329176D01*
X0427723Y0329566D01*
X0427646Y0329956D01*
X0427425Y0330287D01*
X0427094Y0330508D01*
X0426704Y0330586D01*
D02*
G37*
G36*
X0463291Y0330481D02*
X0462901Y0330403D01*
X0462570Y0330182D01*
X0462349Y0329851D01*
X0462271Y0329461D01*
X0462349Y0329071D01*
X0462570Y0328740D01*
X0462901Y0328519D01*
X0463291Y0328442D01*
X0463681Y0328519D01*
X0464012Y0328740D01*
X0464233Y0329071D01*
X0464311Y0329461D01*
X0464233Y0329851D01*
X0464012Y0330182D01*
X0463681Y0330403D01*
X0463291Y0330481D01*
D02*
G37*
G36*
X0414563Y0330363D02*
X0414173Y0330285D01*
X0413842Y0330064D01*
X0413621Y0329733D01*
X0413543Y0329343D01*
X0413621Y0328953D01*
X0413842Y0328622D01*
X0414173Y0328401D01*
X0414563Y0328324D01*
X0414953Y0328401D01*
X0415284Y0328622D01*
X0415505Y0328953D01*
X0415582Y0329343D01*
X0415505Y0329733D01*
X0415284Y0330064D01*
X0414953Y0330285D01*
X0414563Y0330363D01*
D02*
G37*
G36*
X0469363Y0330349D02*
X0468973Y0330271D01*
X0468642Y0330050D01*
X0468421Y0329719D01*
X0468343Y0329329D01*
X0468421Y0328939D01*
X0468642Y0328608D01*
X0468973Y0328387D01*
X0469363Y0328309D01*
X0469753Y0328387D01*
X0470084Y0328608D01*
X0470305Y0328939D01*
X0470382Y0329329D01*
X0470305Y0329719D01*
X0470084Y0330050D01*
X0469753Y0330271D01*
X0469363Y0330349D01*
D02*
G37*
G36*
X0447683Y0333420D02*
X0446991Y0333329D01*
X0446346Y0333062D01*
X0445792Y0332637D01*
X0445368Y0332084D01*
X0445101Y0331439D01*
X0445010Y0330747D01*
X0445101Y0330055D01*
X0445368Y0329411D01*
X0445792Y0328857D01*
X0446346Y0328432D01*
X0446991Y0328165D01*
X0447683Y0328074D01*
X0448374Y0328165D01*
X0449019Y0328432D01*
X0449573Y0328857D01*
X0449997Y0329411D01*
X0450264Y0330055D01*
X0450355Y0330747D01*
X0450264Y0331439D01*
X0449997Y0332084D01*
X0449573Y0332637D01*
X0449019Y0333062D01*
X0448374Y0333329D01*
X0447683Y0333420D01*
D02*
G37*
G36*
X0476836Y0329723D02*
X0476446Y0329645D01*
X0476115Y0329424D01*
X0475894Y0329093D01*
X0475816Y0328703D01*
X0475894Y0328313D01*
X0476115Y0327982D01*
X0476446Y0327761D01*
X0476836Y0327684D01*
X0477226Y0327761D01*
X0477557Y0327982D01*
X0477778Y0328313D01*
X0477855Y0328703D01*
X0477778Y0329093D01*
X0477557Y0329424D01*
X0477226Y0329645D01*
X0476836Y0329723D01*
D02*
G37*
G36*
X0481264Y0329705D02*
X0480873Y0329627D01*
X0480543Y0329406D01*
X0480322Y0329075D01*
X0480244Y0328685D01*
X0480322Y0328295D01*
X0480543Y0327964D01*
X0480873Y0327743D01*
X0481264Y0327665D01*
X0481654Y0327743D01*
X0481985Y0327964D01*
X0482206Y0328295D01*
X0482283Y0328685D01*
X0482206Y0329075D01*
X0481985Y0329406D01*
X0481654Y0329627D01*
X0481264Y0329705D01*
D02*
G37*
G36*
X0460782Y0327732D02*
X0460431Y0327663D01*
X0460133Y0327464D01*
X0460119Y0327442D01*
X0459644Y0327304D01*
X0459504Y0327370D01*
X0459318Y0327494D01*
X0458967Y0327564D01*
X0458615Y0327494D01*
X0458318Y0327295D01*
X0458119Y0326998D01*
X0458049Y0326646D01*
X0458119Y0326295D01*
X0458305Y0326016D01*
X0458318Y0325998D01*
X0458297Y0325410D01*
X0458286Y0325402D01*
X0458087Y0325104D01*
X0458017Y0324753D01*
X0458087Y0324402D01*
X0458286Y0324104D01*
X0458511Y0323954D01*
X0458552Y0323617D01*
X0458529Y0323406D01*
X0458401Y0323321D01*
X0458202Y0323023D01*
X0458132Y0322672D01*
X0458202Y0322321D01*
X0458401Y0322023D01*
X0458441Y0321996D01*
X0458408Y0321417D01*
X0458326Y0321362D01*
X0458127Y0321065D01*
X0458057Y0320714D01*
X0458127Y0320362D01*
X0458259Y0320164D01*
X0458322Y0320050D01*
X0458203Y0319545D01*
X0458196Y0319541D01*
X0457997Y0319243D01*
X0457927Y0318892D01*
X0457997Y0318541D01*
X0458196Y0318243D01*
X0458494Y0318044D01*
X0458845Y0317974D01*
X0459196Y0318044D01*
X0459494Y0318243D01*
X0459567Y0318353D01*
X0460109Y0318400D01*
X0460146Y0318387D01*
X0460162Y0318364D01*
X0460302Y0317897D01*
X0460225Y0317766D01*
X0460106Y0317588D01*
X0460036Y0317237D01*
X0460106Y0316886D01*
X0460305Y0316588D01*
X0460385Y0316535D01*
X0460402Y0315958D01*
X0460337Y0315915D01*
X0460138Y0315617D01*
X0460068Y0315266D01*
X0460138Y0314915D01*
X0460337Y0314617D01*
X0460635Y0314418D01*
X0460986Y0314348D01*
X0461337Y0314418D01*
X0461635Y0314617D01*
X0461834Y0314915D01*
X0461903Y0315266D01*
X0461834Y0315617D01*
X0461635Y0315915D01*
X0461555Y0315968D01*
X0461538Y0316545D01*
X0461603Y0316588D01*
X0461802Y0316886D01*
X0461872Y0317237D01*
X0461802Y0317588D01*
X0461603Y0317886D01*
X0461463Y0318353D01*
X0461540Y0318484D01*
X0461658Y0318661D01*
X0461728Y0319013D01*
X0461658Y0319364D01*
X0461459Y0319661D01*
X0461162Y0319861D01*
X0460811Y0319930D01*
X0460459Y0319861D01*
X0460162Y0319661D01*
X0459768Y0319860D01*
X0459623Y0320065D01*
X0459822Y0320362D01*
X0459892Y0320714D01*
X0459822Y0321065D01*
X0459623Y0321362D01*
X0459583Y0321389D01*
X0459617Y0321968D01*
X0459698Y0322023D01*
X0459706Y0322034D01*
X0460159Y0322198D01*
X0460320Y0322122D01*
X0460488Y0322010D01*
X0460839Y0321940D01*
X0461190Y0322010D01*
X0461488Y0322209D01*
X0461687Y0322507D01*
X0461756Y0322858D01*
X0461687Y0323209D01*
X0461488Y0323507D01*
X0461190Y0323706D01*
X0461134Y0324227D01*
X0461249Y0324304D01*
X0461448Y0324602D01*
X0461517Y0324953D01*
X0461448Y0325304D01*
X0461301Y0325524D01*
X0461257Y0325639D01*
X0461367Y0326124D01*
X0461431Y0326166D01*
X0461629Y0326464D01*
X0461699Y0326815D01*
X0461629Y0327166D01*
X0461431Y0327464D01*
X0461133Y0327663D01*
X0460782Y0327732D01*
D02*
G37*
G36*
X0513395Y0332172D02*
X0513005Y0332094D01*
X0512674Y0331873D01*
X0512453Y0331543D01*
X0512375Y0331152D01*
X0512453Y0330762D01*
X0512674Y0330432D01*
X0512590Y0329886D01*
X0512516Y0329776D01*
X0512438Y0329385D01*
X0512516Y0328995D01*
X0512737Y0328664D01*
Y0328308D01*
X0512706Y0328287D01*
X0512485Y0327956D01*
X0512407Y0327566D01*
X0512485Y0327176D01*
X0512706Y0326845D01*
X0513036Y0326624D01*
X0513426Y0326546D01*
X0513817Y0326624D01*
X0514148Y0326845D01*
X0514368Y0327176D01*
X0514446Y0327566D01*
X0514368Y0327956D01*
X0514148Y0328287D01*
Y0328643D01*
X0514179Y0328664D01*
X0514400Y0328995D01*
X0514478Y0329385D01*
X0514400Y0329776D01*
X0514179Y0330106D01*
X0514263Y0330652D01*
X0514337Y0330762D01*
X0514415Y0331152D01*
X0514337Y0331543D01*
X0514116Y0331873D01*
X0513785Y0332094D01*
X0513395Y0332172D01*
D02*
G37*
G36*
X0518859Y0328335D02*
X0518469Y0328258D01*
X0518138Y0328037D01*
X0517917Y0327706D01*
X0517839Y0327316D01*
X0517917Y0326926D01*
X0518138Y0326595D01*
X0518469Y0326374D01*
X0518859Y0326296D01*
X0519249Y0326374D01*
X0519580Y0326595D01*
X0519801Y0326926D01*
X0519878Y0327316D01*
X0519801Y0327706D01*
X0519580Y0328037D01*
X0519249Y0328258D01*
X0518859Y0328335D01*
D02*
G37*
G36*
X0426584Y0327859D02*
X0426194Y0327782D01*
X0425863Y0327561D01*
X0425642Y0327230D01*
X0425564Y0326840D01*
X0425642Y0326450D01*
X0425863Y0326119D01*
X0426194Y0325898D01*
X0426584Y0325820D01*
X0426974Y0325898D01*
X0427305Y0326119D01*
X0427526Y0326450D01*
X0427603Y0326840D01*
X0427526Y0327230D01*
X0427305Y0327561D01*
X0426974Y0327782D01*
X0426584Y0327859D01*
D02*
G37*
G36*
X0464841Y0327571D02*
X0464490Y0327501D01*
X0464192Y0327302D01*
X0463993Y0327004D01*
X0463923Y0326653D01*
X0463993Y0326302D01*
X0464131Y0325958D01*
X0463841Y0325741D01*
X0463642Y0325443D01*
X0463147Y0325518D01*
X0462967Y0325553D01*
X0462615Y0325483D01*
X0462318Y0325285D01*
X0462119Y0324987D01*
X0462049Y0324636D01*
X0462119Y0324285D01*
X0462318Y0323987D01*
X0462615Y0323788D01*
X0462967Y0323718D01*
X0463318Y0323788D01*
X0463616Y0323987D01*
X0463629Y0324008D01*
X0463744Y0323987D01*
X0463989Y0323465D01*
X0463987Y0323433D01*
X0463923Y0323108D01*
X0463992Y0322756D01*
X0464191Y0322459D01*
X0464489Y0322260D01*
X0464840Y0322190D01*
X0465191Y0322260D01*
X0465489Y0322459D01*
X0465688Y0322756D01*
X0465758Y0323108D01*
X0465688Y0323459D01*
X0465489Y0323757D01*
X0465250Y0323916D01*
X0465146Y0324376D01*
X0465139Y0324443D01*
X0465338Y0324741D01*
X0465407Y0325092D01*
X0465338Y0325443D01*
X0465200Y0325786D01*
X0465490Y0326004D01*
X0465689Y0326302D01*
X0465759Y0326653D01*
X0465689Y0327004D01*
X0465490Y0327302D01*
X0465192Y0327501D01*
X0464841Y0327571D01*
D02*
G37*
G36*
X0414767Y0327270D02*
X0414377Y0327192D01*
X0414046Y0326971D01*
X0413825Y0326640D01*
X0413748Y0326250D01*
X0413825Y0325860D01*
X0414046Y0325529D01*
X0414377Y0325308D01*
X0414767Y0325231D01*
X0415157Y0325308D01*
X0415488Y0325529D01*
X0415709Y0325860D01*
X0415787Y0326250D01*
X0415709Y0326640D01*
X0415488Y0326971D01*
X0415157Y0327192D01*
X0414767Y0327270D01*
D02*
G37*
G36*
X0427821Y0325133D02*
X0427430Y0325056D01*
X0427100Y0324835D01*
X0426879Y0324504D01*
X0426839Y0324306D01*
X0426661Y0324065D01*
X0426325Y0323946D01*
X0426151Y0323980D01*
X0425761Y0323903D01*
X0425430Y0323682D01*
X0425209Y0323351D01*
X0425132Y0322961D01*
X0425209Y0322571D01*
X0425430Y0322240D01*
X0425761Y0322019D01*
X0426151Y0321941D01*
X0426542Y0322019D01*
X0426872Y0322240D01*
X0427093Y0322571D01*
X0427133Y0322769D01*
X0427311Y0323010D01*
X0427647Y0323129D01*
X0427821Y0323094D01*
X0428211Y0323172D01*
X0428542Y0323393D01*
X0428762Y0323724D01*
X0428840Y0324114D01*
X0428762Y0324504D01*
X0428542Y0324835D01*
X0428211Y0325056D01*
X0427821Y0325133D01*
D02*
G37*
G36*
X0456267Y0325702D02*
X0455916Y0325632D01*
X0455619Y0325433D01*
X0455420Y0325135D01*
X0455350Y0324784D01*
X0455420Y0324433D01*
X0455619Y0324135D01*
X0455916Y0323936D01*
X0456267Y0323866D01*
X0456619Y0323936D01*
X0456916Y0324135D01*
X0457115Y0324433D01*
X0457185Y0324784D01*
X0457115Y0325135D01*
X0456916Y0325433D01*
X0456619Y0325632D01*
X0456267Y0325702D01*
D02*
G37*
G36*
X0468915Y0327567D02*
X0468564Y0327497D01*
X0468266Y0327298D01*
X0468068Y0327001D01*
X0467998Y0326649D01*
X0468068Y0326298D01*
X0468199Y0326102D01*
X0468170Y0325766D01*
X0468073Y0325528D01*
X0467857Y0325384D01*
X0467658Y0325086D01*
X0467589Y0324735D01*
X0467658Y0324384D01*
X0467857Y0324086D01*
X0468155Y0323887D01*
X0468506Y0323818D01*
X0468857Y0323887D01*
X0469155Y0324086D01*
X0469243Y0324219D01*
X0469774Y0324234D01*
X0469802Y0324224D01*
X0469875Y0324115D01*
X0470172Y0323916D01*
X0470524Y0323847D01*
X0470875Y0323916D01*
X0471172Y0324115D01*
X0471371Y0324413D01*
X0471441Y0324764D01*
X0471371Y0325115D01*
X0471172Y0325413D01*
X0470875Y0325612D01*
X0470524Y0325682D01*
X0470172Y0325612D01*
X0469928Y0325449D01*
X0469599Y0325520D01*
X0469512Y0325554D01*
X0469471Y0325939D01*
X0469564Y0326001D01*
X0469763Y0326298D01*
X0469833Y0326649D01*
X0469763Y0327001D01*
X0469564Y0327298D01*
X0469267Y0327497D01*
X0468915Y0327567D01*
D02*
G37*
G36*
X0476161Y0324749D02*
X0475810Y0324680D01*
X0475512Y0324481D01*
X0475313Y0324183D01*
X0475243Y0323832D01*
X0475313Y0323481D01*
X0475512Y0323183D01*
X0475810Y0322984D01*
X0476161Y0322914D01*
X0476512Y0322984D01*
X0476810Y0323183D01*
X0477009Y0323481D01*
X0477079Y0323832D01*
X0477009Y0324183D01*
X0476810Y0324481D01*
X0476512Y0324680D01*
X0476161Y0324749D01*
D02*
G37*
G36*
X0519719Y0324766D02*
X0519329Y0324688D01*
X0518998Y0324467D01*
X0518777Y0324137D01*
X0518699Y0323746D01*
X0518777Y0323356D01*
X0518998Y0323025D01*
X0519329Y0322804D01*
X0519719Y0322727D01*
X0520109Y0322804D01*
X0520440Y0323025D01*
X0520661Y0323356D01*
X0520739Y0323746D01*
X0520661Y0324137D01*
X0520440Y0324467D01*
X0520109Y0324688D01*
X0519719Y0324766D01*
D02*
G37*
G36*
X0414640Y0324112D02*
X0414249Y0324034D01*
X0413919Y0323813D01*
X0413697Y0323482D01*
X0413620Y0323092D01*
X0413697Y0322702D01*
X0413919Y0322371D01*
X0414249Y0322150D01*
X0414640Y0322073D01*
X0415030Y0322150D01*
X0415360Y0322371D01*
X0415582Y0322702D01*
X0415659Y0323092D01*
X0415582Y0323482D01*
X0415360Y0323813D01*
X0415030Y0324034D01*
X0414640Y0324112D01*
D02*
G37*
G36*
X0470357Y0322041D02*
X0470006Y0321971D01*
X0469709Y0321772D01*
X0469692Y0321747D01*
X0469092Y0321745D01*
X0469087Y0321752D01*
X0468789Y0321951D01*
X0468438Y0322021D01*
X0468087Y0321951D01*
X0467790Y0321752D01*
X0467591Y0321455D01*
X0467521Y0321104D01*
X0467591Y0320752D01*
X0467790Y0320455D01*
X0467796Y0320450D01*
X0467806Y0319943D01*
X0467402Y0319634D01*
X0467160Y0319720D01*
X0467129Y0319741D01*
X0466778Y0319810D01*
X0466427Y0319741D01*
X0466129Y0319542D01*
X0465930Y0319244D01*
X0465861Y0318893D01*
X0465930Y0318542D01*
X0466129Y0318244D01*
X0466427Y0318045D01*
X0466778Y0317975D01*
X0467129Y0318045D01*
X0467427Y0318244D01*
X0467434Y0318254D01*
X0467737Y0318502D01*
X0468075Y0318381D01*
X0468106Y0318361D01*
X0468457Y0318291D01*
X0468808Y0318361D01*
X0469105Y0318560D01*
X0469197Y0318697D01*
X0469242Y0318712D01*
X0469722Y0318708D01*
X0469753Y0318697D01*
X0469850Y0318551D01*
X0470066Y0318407D01*
X0470097Y0318097D01*
X0470049Y0317863D01*
X0469818Y0317708D01*
X0469660Y0317471D01*
X0469361Y0317406D01*
X0469107Y0317403D01*
X0469043Y0317499D01*
X0468746Y0317698D01*
X0468395Y0317767D01*
X0468043Y0317698D01*
X0467746Y0317499D01*
X0467547Y0317201D01*
X0467477Y0316850D01*
X0467547Y0316498D01*
X0467746Y0316201D01*
X0468043Y0316002D01*
X0468029Y0315603D01*
X0467959Y0315252D01*
X0468029Y0314900D01*
X0468228Y0314603D01*
X0468526Y0314404D01*
X0468877Y0314334D01*
X0469228Y0314404D01*
X0469526Y0314603D01*
X0469725Y0314900D01*
X0469795Y0315252D01*
X0469725Y0315603D01*
X0469526Y0315900D01*
X0469418Y0315973D01*
X0469439Y0316108D01*
X0469499Y0316156D01*
X0469975Y0316305D01*
X0470115Y0316211D01*
X0470467Y0316141D01*
X0470818Y0316211D01*
X0471115Y0316410D01*
X0471314Y0316708D01*
X0471384Y0317059D01*
X0471314Y0317410D01*
X0471115Y0317708D01*
X0470899Y0317852D01*
X0470869Y0318161D01*
X0470917Y0318396D01*
X0471148Y0318551D01*
X0471347Y0318849D01*
X0471417Y0319200D01*
X0471347Y0319551D01*
X0471148Y0319849D01*
X0471059Y0319908D01*
X0471007Y0320464D01*
X0471018Y0320491D01*
X0471205Y0320772D01*
X0471275Y0321123D01*
X0471205Y0321474D01*
X0471006Y0321772D01*
X0470709Y0321971D01*
X0470357Y0322041D01*
D02*
G37*
G36*
X0472608Y0323417D02*
X0472257Y0323347D01*
X0471959Y0323148D01*
X0471760Y0322851D01*
X0471690Y0322500D01*
X0471760Y0322148D01*
X0471959Y0321851D01*
X0472257Y0321652D01*
X0472608Y0321582D01*
X0472959Y0321652D01*
X0473257Y0321851D01*
X0473456Y0322148D01*
X0473526Y0322500D01*
X0473456Y0322851D01*
X0473257Y0323148D01*
X0472959Y0323347D01*
X0472608Y0323417D01*
D02*
G37*
G36*
X0476365Y0321966D02*
X0476014Y0321896D01*
X0475716Y0321697D01*
X0475517Y0321400D01*
X0475447Y0321049D01*
X0475517Y0320697D01*
X0475716Y0320400D01*
X0476014Y0320201D01*
X0476365Y0320131D01*
X0476716Y0320201D01*
X0477014Y0320400D01*
X0477213Y0320697D01*
X0477283Y0321049D01*
X0477213Y0321400D01*
X0477014Y0321697D01*
X0476716Y0321896D01*
X0476365Y0321966D01*
D02*
G37*
G36*
X0414560Y0320781D02*
X0414169Y0320703D01*
X0413839Y0320482D01*
X0413618Y0320151D01*
X0413540Y0319761D01*
X0413618Y0319371D01*
X0413839Y0319040D01*
X0414169Y0318819D01*
X0414560Y0318741D01*
X0414950Y0318819D01*
X0415280Y0319040D01*
X0415502Y0319371D01*
X0415579Y0319761D01*
X0415502Y0320151D01*
X0415280Y0320482D01*
X0414950Y0320703D01*
X0414560Y0320781D01*
D02*
G37*
G36*
X0463864Y0321822D02*
X0463513Y0321752D01*
X0463215Y0321553D01*
X0463016Y0321255D01*
X0462946Y0320904D01*
X0463016Y0320553D01*
X0463215Y0320255D01*
X0463066Y0319754D01*
X0463001Y0319741D01*
X0462703Y0319542D01*
X0462504Y0319244D01*
X0462434Y0318893D01*
X0462504Y0318542D01*
X0462703Y0318244D01*
X0463001Y0318045D01*
X0463352Y0317975D01*
X0463703Y0318045D01*
X0464001Y0318244D01*
X0464199Y0318542D01*
X0464269Y0318893D01*
X0464199Y0319244D01*
X0464001Y0319542D01*
X0464150Y0320043D01*
X0464215Y0320056D01*
X0464513Y0320255D01*
X0464712Y0320553D01*
X0464782Y0320904D01*
X0464712Y0321255D01*
X0464513Y0321553D01*
X0464215Y0321752D01*
X0463864Y0321822D01*
D02*
G37*
G36*
X0527548Y0319797D02*
X0527158Y0319720D01*
X0526827Y0319499D01*
X0526606Y0319168D01*
X0526528Y0318778D01*
X0526606Y0318388D01*
X0526827Y0318057D01*
X0527158Y0317836D01*
X0527548Y0317758D01*
X0527938Y0317836D01*
X0528269Y0318057D01*
X0528490Y0318388D01*
X0528567Y0318778D01*
X0528490Y0319168D01*
X0528269Y0319499D01*
X0527938Y0319720D01*
X0527548Y0319797D01*
D02*
G37*
G36*
X0456521Y0322623D02*
X0456169Y0322553D01*
X0455872Y0322354D01*
X0455673Y0322057D01*
X0455603Y0321706D01*
X0455673Y0321354D01*
X0455872Y0321057D01*
X0455641Y0320610D01*
X0455575Y0320512D01*
X0455506Y0320161D01*
X0455575Y0319810D01*
X0455774Y0319512D01*
X0456012Y0319353D01*
X0456058Y0319130D01*
X0456033Y0318811D01*
X0455814Y0318665D01*
X0455615Y0318367D01*
X0455545Y0318016D01*
X0455615Y0317665D01*
X0455814Y0317367D01*
X0456112Y0317168D01*
X0456463Y0317098D01*
X0456814Y0317168D01*
X0457112Y0317367D01*
X0457311Y0317665D01*
X0457381Y0318016D01*
X0457311Y0318367D01*
X0457112Y0318665D01*
X0456874Y0318824D01*
X0456828Y0319047D01*
X0456853Y0319366D01*
X0457072Y0319512D01*
X0457271Y0319810D01*
X0457341Y0320161D01*
X0457271Y0320512D01*
X0457072Y0320810D01*
X0457303Y0321257D01*
X0457368Y0321354D01*
X0457438Y0321706D01*
X0457368Y0322057D01*
X0457169Y0322354D01*
X0456872Y0322553D01*
X0456521Y0322623D01*
D02*
G37*
G36*
X0472903Y0320940D02*
X0472552Y0320871D01*
X0472254Y0320672D01*
X0472055Y0320374D01*
X0471986Y0320023D01*
X0472055Y0319672D01*
X0472254Y0319374D01*
X0472397Y0319279D01*
X0472402Y0319265D01*
X0472410Y0318761D01*
X0472397Y0318723D01*
X0472270Y0318638D01*
X0472071Y0318341D01*
X0472001Y0317990D01*
X0472071Y0317638D01*
X0472270Y0317341D01*
X0472567Y0317142D01*
X0472919Y0317072D01*
X0473270Y0317142D01*
X0473567Y0317341D01*
X0473766Y0317638D01*
X0473836Y0317990D01*
X0473766Y0318341D01*
X0473567Y0318638D01*
X0473425Y0318734D01*
X0473420Y0318747D01*
X0473412Y0319251D01*
X0473425Y0319289D01*
X0473552Y0319374D01*
X0473751Y0319672D01*
X0473821Y0320023D01*
X0473751Y0320374D01*
X0473552Y0320672D01*
X0473254Y0320871D01*
X0472903Y0320940D01*
D02*
G37*
G36*
X0519171Y0318821D02*
X0518781Y0318743D01*
X0518450Y0318522D01*
X0518229Y0318192D01*
X0518152Y0317801D01*
X0518229Y0317411D01*
X0518450Y0317080D01*
X0518781Y0316859D01*
X0519171Y0316782D01*
X0519561Y0316859D01*
X0519892Y0317080D01*
X0520113Y0317411D01*
X0520191Y0317801D01*
X0520113Y0318192D01*
X0519892Y0318522D01*
X0519561Y0318743D01*
X0519171Y0318821D01*
D02*
G37*
G36*
X0453451Y0318026D02*
X0453061Y0317948D01*
X0452730Y0317727D01*
X0452509Y0317396D01*
X0452432Y0317006D01*
X0452509Y0316616D01*
X0452730Y0316285D01*
X0453061Y0316064D01*
X0453451Y0315986D01*
X0453841Y0316064D01*
X0454172Y0316285D01*
X0454393Y0316616D01*
X0454471Y0317006D01*
X0454393Y0317396D01*
X0454172Y0317727D01*
X0453841Y0317948D01*
X0453451Y0318026D01*
D02*
G37*
G36*
X0440942Y0332153D02*
X0440552Y0332075D01*
X0440221Y0331854D01*
X0440000Y0331524D01*
X0439922Y0331134D01*
X0440000Y0330743D01*
X0440221Y0330413D01*
X0440095Y0329907D01*
X0439874Y0329576D01*
X0439796Y0329186D01*
X0439874Y0328796D01*
X0440095Y0328465D01*
X0440132Y0328440D01*
Y0327838D01*
X0440080Y0327803D01*
X0439859Y0327472D01*
X0439781Y0327082D01*
X0439859Y0326692D01*
X0440080Y0326361D01*
X0440092Y0326354D01*
X0440059Y0325774D01*
X0439945Y0325698D01*
X0439724Y0325367D01*
X0439646Y0324977D01*
X0439702Y0324696D01*
X0439724Y0324587D01*
X0439935Y0324271D01*
X0439945Y0324255D01*
X0439921Y0323671D01*
X0439859Y0323630D01*
X0439639Y0323299D01*
X0439561Y0322909D01*
X0439639Y0322518D01*
X0439837Y0322221D01*
X0439859Y0322188D01*
X0439917Y0321718D01*
X0439696Y0321387D01*
X0439618Y0320997D01*
X0439696Y0320607D01*
X0439917Y0320276D01*
X0439874Y0319735D01*
X0439653Y0319404D01*
X0439575Y0319014D01*
X0439653Y0318624D01*
X0439874Y0318293D01*
Y0317709D01*
X0439653Y0317378D01*
X0439575Y0316988D01*
X0439653Y0316598D01*
X0439874Y0316267D01*
X0440204Y0316046D01*
X0440595Y0315969D01*
X0440985Y0316046D01*
X0441316Y0316267D01*
X0441537Y0316598D01*
X0441614Y0316988D01*
X0441537Y0317378D01*
X0441316Y0317709D01*
Y0318293D01*
X0441537Y0318624D01*
X0441614Y0319014D01*
X0441537Y0319404D01*
X0441316Y0319735D01*
X0441358Y0320276D01*
X0441579Y0320607D01*
X0441657Y0320997D01*
X0441579Y0321387D01*
X0441381Y0321685D01*
X0441358Y0321718D01*
X0441301Y0322188D01*
X0441522Y0322518D01*
X0441600Y0322909D01*
X0441544Y0323190D01*
X0441522Y0323299D01*
X0441311Y0323615D01*
X0441301Y0323631D01*
X0441325Y0324215D01*
X0441387Y0324256D01*
X0441608Y0324587D01*
X0441686Y0324977D01*
X0441608Y0325367D01*
X0441387Y0325698D01*
X0441375Y0325706D01*
X0441408Y0326285D01*
X0441522Y0326361D01*
X0441743Y0326692D01*
X0441820Y0327082D01*
X0441743Y0327472D01*
X0441522Y0327803D01*
X0441484Y0327828D01*
Y0328430D01*
X0441537Y0328465D01*
X0441758Y0328796D01*
X0441835Y0329186D01*
X0441758Y0329576D01*
X0441537Y0329907D01*
X0441663Y0330413D01*
X0441884Y0330743D01*
X0441961Y0331134D01*
X0441884Y0331524D01*
X0441663Y0331854D01*
X0441332Y0332075D01*
X0440942Y0332153D01*
D02*
G37*
G36*
X0426354Y0321425D02*
X0425964Y0321347D01*
X0425633Y0321126D01*
X0425412Y0320795D01*
X0425335Y0320405D01*
X0425412Y0320015D01*
X0425633Y0319684D01*
X0425964Y0319463D01*
X0426025Y0319451D01*
X0426303Y0318979D01*
X0426293Y0318902D01*
X0426229Y0318582D01*
X0426280Y0318324D01*
X0426302Y0318186D01*
X0425973Y0317792D01*
X0425962Y0317789D01*
X0425631Y0317568D01*
X0425410Y0317238D01*
X0425332Y0316847D01*
X0425410Y0316457D01*
X0425631Y0316126D01*
X0425962Y0315905D01*
X0426352Y0315828D01*
X0426742Y0315905D01*
X0427073Y0316126D01*
X0427294Y0316457D01*
X0427372Y0316847D01*
X0427320Y0317106D01*
X0427299Y0317243D01*
X0427628Y0317638D01*
X0427639Y0317640D01*
X0427970Y0317861D01*
X0428191Y0318192D01*
X0428268Y0318582D01*
X0428191Y0318972D01*
X0427970Y0319303D01*
X0427639Y0319524D01*
X0427578Y0319536D01*
X0427301Y0320008D01*
X0427310Y0320085D01*
X0427374Y0320405D01*
X0427296Y0320795D01*
X0427075Y0321126D01*
X0426745Y0321347D01*
X0426354Y0321425D01*
D02*
G37*
G36*
X0414527Y0317749D02*
X0414136Y0317671D01*
X0413805Y0317450D01*
X0413585Y0317120D01*
X0413507Y0316729D01*
X0413585Y0316339D01*
X0413805Y0316008D01*
X0414136Y0315787D01*
X0414527Y0315710D01*
X0414917Y0315787D01*
X0415247Y0316008D01*
X0415468Y0316339D01*
X0415546Y0316729D01*
X0415468Y0317120D01*
X0415247Y0317450D01*
X0414917Y0317671D01*
X0414527Y0317749D01*
D02*
G37*
G36*
X0444302Y0317026D02*
X0443912Y0316949D01*
X0443581Y0316728D01*
X0443360Y0316397D01*
X0443282Y0316007D01*
X0443360Y0315617D01*
X0443581Y0315286D01*
X0443912Y0315065D01*
X0444302Y0314987D01*
X0444692Y0315065D01*
X0445023Y0315286D01*
X0445244Y0315617D01*
X0445321Y0316007D01*
X0445244Y0316397D01*
X0445023Y0316728D01*
X0444692Y0316949D01*
X0444302Y0317026D01*
D02*
G37*
G36*
X0521531Y0316348D02*
X0521141Y0316270D01*
X0520810Y0316049D01*
X0520589Y0315718D01*
X0520511Y0315328D01*
X0520589Y0314938D01*
X0520810Y0314607D01*
X0521141Y0314386D01*
X0521531Y0314308D01*
X0521921Y0314386D01*
X0522252Y0314607D01*
X0522473Y0314938D01*
X0522550Y0315328D01*
X0522473Y0315718D01*
X0522252Y0316049D01*
X0521921Y0316270D01*
X0521531Y0316348D01*
D02*
G37*
G36*
X0464499Y0317656D02*
X0464148Y0317587D01*
X0463850Y0317388D01*
X0463651Y0317090D01*
X0463581Y0316739D01*
X0463651Y0316388D01*
X0463834Y0316114D01*
X0464065Y0315720D01*
X0463946Y0315470D01*
X0463889Y0315385D01*
X0463819Y0315034D01*
X0463889Y0314682D01*
X0464087Y0314385D01*
X0464385Y0314186D01*
X0464736Y0314116D01*
X0465088Y0314186D01*
X0465385Y0314385D01*
X0465584Y0314682D01*
X0465654Y0315034D01*
X0465584Y0315385D01*
X0465401Y0315658D01*
X0465170Y0316053D01*
X0465289Y0316302D01*
X0465346Y0316388D01*
X0465416Y0316739D01*
X0465346Y0317090D01*
X0465147Y0317388D01*
X0464850Y0317587D01*
X0464499Y0317656D01*
D02*
G37*
G36*
X0518641Y0315950D02*
X0518251Y0315873D01*
X0517920Y0315652D01*
X0517699Y0315321D01*
X0517621Y0314931D01*
X0517699Y0314541D01*
X0517920Y0314210D01*
X0518251Y0313989D01*
X0518641Y0313911D01*
X0519031Y0313989D01*
X0519362Y0314210D01*
X0519583Y0314541D01*
X0519661Y0314931D01*
X0519583Y0315321D01*
X0519362Y0315652D01*
X0519031Y0315873D01*
X0518641Y0315950D01*
D02*
G37*
G36*
X0495286Y0318986D02*
X0494859Y0318901D01*
X0494497Y0318659D01*
X0494255Y0318297D01*
X0494171Y0317871D01*
X0494255Y0317444D01*
X0494497Y0317082D01*
X0494558Y0317042D01*
Y0316440D01*
X0494522Y0316417D01*
X0494280Y0316055D01*
X0494196Y0315628D01*
X0494280Y0315202D01*
X0494522Y0314840D01*
X0494884Y0314598D01*
X0495311Y0314513D01*
X0495738Y0314598D01*
X0496185Y0314312D01*
X0496426Y0313950D01*
X0496788Y0313709D01*
X0497215Y0313624D01*
X0497642Y0313709D01*
X0498003Y0313950D01*
X0498245Y0314312D01*
X0498330Y0314739D01*
X0498245Y0315166D01*
X0498003Y0315527D01*
X0497642Y0315769D01*
X0497215Y0315854D01*
X0496788Y0315769D01*
X0496341Y0316055D01*
X0496099Y0316417D01*
X0496039Y0316457D01*
Y0317058D01*
X0496074Y0317082D01*
X0496316Y0317444D01*
X0496401Y0317871D01*
X0496316Y0318297D01*
X0496074Y0318659D01*
X0495713Y0318901D01*
X0495286Y0318986D01*
D02*
G37*
G36*
X0463692Y0313645D02*
X0463341Y0313575D01*
X0463043Y0313376D01*
X0462844Y0313078D01*
X0462827Y0312993D01*
X0462296Y0312887D01*
X0462218Y0313005D01*
X0461920Y0313204D01*
X0461569Y0313274D01*
X0461217Y0313204D01*
X0461162Y0313167D01*
X0460603Y0313105D01*
X0460241Y0313346D01*
X0459814Y0313431D01*
X0459387Y0313346D01*
X0459025Y0313105D01*
X0459007Y0313078D01*
X0458999Y0313074D01*
X0458429Y0313112D01*
X0458326Y0313266D01*
X0457964Y0313508D01*
X0457537Y0313593D01*
X0457111Y0313508D01*
X0456749Y0313266D01*
X0456507Y0312905D01*
X0456422Y0312478D01*
X0456507Y0312051D01*
X0456749Y0311689D01*
X0457111Y0311448D01*
X0457537Y0311363D01*
X0457964Y0311448D01*
X0458326Y0311689D01*
X0458344Y0311716D01*
X0458353Y0311720D01*
X0458922Y0311682D01*
X0459025Y0311528D01*
X0459387Y0311286D01*
X0459814Y0311201D01*
X0460241Y0311286D01*
X0460603Y0311528D01*
X0461199Y0311521D01*
X0461217Y0311508D01*
X0461569Y0311439D01*
X0461920Y0311508D01*
X0462218Y0311707D01*
X0462416Y0312005D01*
X0462433Y0312090D01*
X0462964Y0312196D01*
X0463043Y0312078D01*
X0463341Y0311879D01*
X0463692Y0311809D01*
X0464043Y0311879D01*
X0464341Y0312078D01*
X0464411Y0312183D01*
X0464783Y0312088D01*
X0464903Y0312021D01*
X0464981Y0311633D01*
X0465223Y0311271D01*
X0465584Y0311029D01*
X0466011Y0310944D01*
X0466438Y0311029D01*
X0466799Y0311271D01*
X0467041Y0311633D01*
X0467126Y0312059D01*
X0467041Y0312486D01*
X0466799Y0312848D01*
X0466438Y0313090D01*
X0466011Y0313175D01*
X0465584Y0313090D01*
X0465223Y0312848D01*
X0465094Y0312656D01*
X0464843Y0312693D01*
X0464594Y0312807D01*
X0464539Y0313078D01*
X0464341Y0313376D01*
X0464043Y0313575D01*
X0463692Y0313645D01*
D02*
G37*
G36*
X0414260Y0314036D02*
X0413870Y0313958D01*
X0413539Y0313737D01*
X0413318Y0313406D01*
X0413240Y0313016D01*
X0413318Y0312626D01*
X0413539Y0312295D01*
X0413870Y0312074D01*
X0414260Y0311996D01*
X0414650Y0312074D01*
X0414981Y0312295D01*
X0415202Y0312626D01*
X0415280Y0313016D01*
X0415202Y0313406D01*
X0414981Y0313737D01*
X0414650Y0313958D01*
X0414260Y0314036D01*
D02*
G37*
G36*
X0470503Y0313038D02*
X0470151Y0312968D01*
X0469854Y0312769D01*
X0469655Y0312471D01*
X0469585Y0312120D01*
X0469655Y0311769D01*
X0469854Y0311471D01*
X0470151Y0311272D01*
X0470503Y0311203D01*
X0470854Y0311272D01*
X0471151Y0311471D01*
X0471350Y0311769D01*
X0471420Y0312120D01*
X0471350Y0312471D01*
X0471151Y0312769D01*
X0470854Y0312968D01*
X0470503Y0313038D01*
D02*
G37*
G36*
X0479528Y0319840D02*
X0478836Y0319749D01*
X0478191Y0319482D01*
X0477638Y0319057D01*
X0477213Y0318504D01*
X0476946Y0317859D01*
X0476855Y0317167D01*
X0476946Y0316476D01*
X0477213Y0315831D01*
X0477638Y0315278D01*
X0478052Y0314959D01*
X0478044Y0314509D01*
X0477996Y0314395D01*
X0477888Y0314350D01*
X0477334Y0313925D01*
X0476910Y0313372D01*
X0476643Y0312727D01*
X0476551Y0312035D01*
X0476643Y0311344D01*
X0476910Y0310699D01*
X0477334Y0310145D01*
X0477888Y0309721D01*
X0478533Y0309454D01*
X0479224Y0309363D01*
X0479916Y0309454D01*
X0480561Y0309721D01*
X0481114Y0310145D01*
X0481539Y0310699D01*
X0481806Y0311344D01*
X0481897Y0312035D01*
X0481806Y0312727D01*
X0481539Y0313372D01*
X0481114Y0313925D01*
X0480700Y0314244D01*
X0480708Y0314694D01*
X0480756Y0314808D01*
X0480864Y0314853D01*
X0481418Y0315278D01*
X0481842Y0315831D01*
X0482109Y0316476D01*
X0482200Y0317167D01*
X0482109Y0317859D01*
X0481842Y0318504D01*
X0481418Y0319057D01*
X0480864Y0319482D01*
X0480219Y0319749D01*
X0479528Y0319840D01*
D02*
G37*
G36*
X0475257Y0310180D02*
X0474867Y0310102D01*
X0474536Y0309881D01*
X0474315Y0309550D01*
X0474237Y0309160D01*
X0474315Y0308770D01*
X0474536Y0308439D01*
X0474867Y0308218D01*
X0475257Y0308141D01*
X0475647Y0308218D01*
X0475978Y0308439D01*
X0476199Y0308770D01*
X0476277Y0309160D01*
X0476199Y0309550D01*
X0475978Y0309881D01*
X0475647Y0310102D01*
X0475257Y0310180D01*
D02*
G37*
G36*
X0487667Y0309968D02*
X0487277Y0309890D01*
X0486946Y0309669D01*
X0486725Y0309339D01*
X0486648Y0308948D01*
X0486725Y0308558D01*
X0486946Y0308227D01*
X0487277Y0308006D01*
X0487667Y0307929D01*
X0488058Y0308006D01*
X0488388Y0308227D01*
X0488609Y0308558D01*
X0488687Y0308948D01*
X0488609Y0309339D01*
X0488388Y0309669D01*
X0488058Y0309890D01*
X0487667Y0309968D01*
D02*
G37*
G36*
X0484416D02*
X0484026Y0309890D01*
X0483695Y0309669D01*
X0483474Y0309339D01*
X0483396Y0308948D01*
X0483474Y0308558D01*
X0483695Y0308227D01*
X0484026Y0308006D01*
X0484416Y0307929D01*
X0484806Y0308006D01*
X0485137Y0308227D01*
X0485358Y0308558D01*
X0485436Y0308948D01*
X0485358Y0309339D01*
X0485137Y0309669D01*
X0484806Y0309890D01*
X0484416Y0309968D01*
D02*
G37*
G36*
X0450716Y0309939D02*
X0450326Y0309861D01*
X0449995Y0309640D01*
X0449774Y0309310D01*
X0449696Y0308920D01*
X0449774Y0308529D01*
X0449995Y0308198D01*
X0450326Y0307978D01*
X0450716Y0307900D01*
X0451106Y0307978D01*
X0451437Y0308198D01*
X0451658Y0308529D01*
X0451735Y0308920D01*
X0451658Y0309310D01*
X0451437Y0309640D01*
X0451106Y0309861D01*
X0450716Y0309939D01*
D02*
G37*
G36*
X0413096Y0308561D02*
X0412706Y0308483D01*
X0412375Y0308262D01*
X0412154Y0307932D01*
X0412076Y0307541D01*
X0412154Y0307151D01*
X0412375Y0306821D01*
X0412706Y0306599D01*
X0413096Y0306522D01*
X0413486Y0306599D01*
X0413817Y0306821D01*
X0414038Y0307151D01*
X0414115Y0307541D01*
X0414038Y0307932D01*
X0413817Y0308262D01*
X0413486Y0308483D01*
X0413096Y0308561D01*
D02*
G37*
G36*
X0455080Y0305906D02*
X0454689Y0305829D01*
X0454358Y0305608D01*
X0454138Y0305277D01*
X0454060Y0304887D01*
X0454138Y0304497D01*
X0454358Y0304166D01*
X0454689Y0303945D01*
X0455080Y0303867D01*
X0455470Y0303945D01*
X0455800Y0304166D01*
X0456021Y0304497D01*
X0456099Y0304887D01*
X0456021Y0305277D01*
X0455800Y0305608D01*
X0455470Y0305829D01*
X0455080Y0305906D01*
D02*
G37*
G36*
X0441103Y0304139D02*
X0440713Y0304061D01*
X0440382Y0303840D01*
X0440162Y0303509D01*
X0440084Y0303119D01*
X0440162Y0302729D01*
X0440382Y0302398D01*
X0440713Y0302177D01*
X0441103Y0302099D01*
X0441494Y0302177D01*
X0441824Y0302398D01*
X0442045Y0302729D01*
X0442123Y0303119D01*
X0442045Y0303509D01*
X0441824Y0303840D01*
X0441494Y0304061D01*
X0441103Y0304139D01*
D02*
G37*
G36*
X0458074Y0303835D02*
X0457683Y0303758D01*
X0457353Y0303537D01*
X0457132Y0303206D01*
X0457054Y0302816D01*
X0457132Y0302426D01*
X0457353Y0302095D01*
X0457683Y0301874D01*
X0458074Y0301796D01*
X0458464Y0301874D01*
X0458795Y0302095D01*
X0459016Y0302426D01*
X0459093Y0302816D01*
X0459016Y0303206D01*
X0458795Y0303537D01*
X0458464Y0303758D01*
X0458074Y0303835D01*
D02*
G37*
G36*
X0425849Y0302343D02*
X0425459Y0302265D01*
X0425128Y0302044D01*
X0424907Y0301713D01*
X0424829Y0301323D01*
X0424907Y0300933D01*
X0425128Y0300602D01*
X0425185Y0300564D01*
X0425173Y0299970D01*
X0425099Y0299921D01*
X0424878Y0299590D01*
X0424801Y0299200D01*
X0424878Y0298810D01*
X0425099Y0298479D01*
X0425430Y0298258D01*
X0425820Y0298180D01*
X0426210Y0298258D01*
X0426541Y0298479D01*
X0426762Y0298810D01*
X0426840Y0299200D01*
X0426762Y0299590D01*
X0426541Y0299921D01*
X0426484Y0299959D01*
X0426496Y0300553D01*
X0426570Y0300602D01*
X0426791Y0300933D01*
X0426868Y0301323D01*
X0426791Y0301713D01*
X0426570Y0302044D01*
X0426239Y0302265D01*
X0425849Y0302343D01*
D02*
G37*
G36*
X0431889Y0314031D02*
X0431499Y0313953D01*
X0431168Y0313732D01*
X0430947Y0313402D01*
X0430869Y0313012D01*
X0430947Y0312621D01*
X0431112Y0312374D01*
X0431138Y0312178D01*
X0431032Y0311780D01*
X0430847Y0311656D01*
X0430626Y0311326D01*
X0430548Y0310935D01*
X0430626Y0310545D01*
X0430847Y0310214D01*
X0430826Y0309637D01*
X0430605Y0309306D01*
X0430527Y0308916D01*
X0430605Y0308525D01*
X0430750Y0308308D01*
X0430652Y0307861D01*
X0430593Y0307749D01*
X0430302Y0307554D01*
X0430081Y0307223D01*
X0430003Y0306833D01*
X0430081Y0306443D01*
X0430302Y0306112D01*
X0430449Y0306014D01*
X0430460Y0305982D01*
X0430448Y0305457D01*
X0430277Y0305343D01*
X0430056Y0305012D01*
X0429979Y0304622D01*
X0430056Y0304232D01*
X0430277Y0303901D01*
X0430376Y0303836D01*
X0430401Y0303677D01*
X0430337Y0303263D01*
X0430123Y0303120D01*
X0429902Y0302789D01*
X0429824Y0302399D01*
X0429902Y0302009D01*
X0430123Y0301678D01*
X0430296Y0301563D01*
X0430404Y0301155D01*
X0430373Y0300964D01*
X0430211Y0300721D01*
X0430133Y0300331D01*
X0430211Y0299940D01*
X0430432Y0299610D01*
X0430493Y0299569D01*
X0430677Y0299163D01*
X0430594Y0298946D01*
X0430481Y0298776D01*
X0430403Y0298386D01*
X0430481Y0297995D01*
X0430702Y0297665D01*
X0431033Y0297444D01*
X0431423Y0297366D01*
X0431813Y0297444D01*
X0432144Y0297665D01*
X0432365Y0297995D01*
X0432442Y0298386D01*
X0432365Y0298776D01*
X0432144Y0299107D01*
X0432082Y0299148D01*
X0431899Y0299554D01*
X0431981Y0299771D01*
X0432094Y0299940D01*
X0432172Y0300331D01*
X0432094Y0300721D01*
X0431874Y0301052D01*
X0431700Y0301167D01*
X0431592Y0301575D01*
X0431624Y0301766D01*
X0431786Y0302009D01*
X0431863Y0302399D01*
X0431786Y0302789D01*
X0431565Y0303120D01*
X0431466Y0303186D01*
X0431441Y0303344D01*
X0431505Y0303758D01*
X0431719Y0303901D01*
X0431940Y0304232D01*
X0432018Y0304622D01*
X0431940Y0305012D01*
X0431719Y0305343D01*
X0431572Y0305442D01*
X0431561Y0305473D01*
X0431573Y0305998D01*
X0431744Y0306112D01*
X0431965Y0306443D01*
X0432043Y0306833D01*
X0431965Y0307223D01*
X0431820Y0307441D01*
X0431918Y0307888D01*
X0431976Y0308000D01*
X0432267Y0308195D01*
X0432488Y0308525D01*
X0432566Y0308916D01*
X0432488Y0309306D01*
X0432267Y0309637D01*
X0432289Y0310214D01*
X0432510Y0310545D01*
X0432587Y0310935D01*
X0432510Y0311326D01*
X0432345Y0311573D01*
X0432319Y0311769D01*
X0432425Y0312167D01*
X0432610Y0312291D01*
X0432831Y0312621D01*
X0432909Y0313012D01*
X0432831Y0313402D01*
X0432610Y0313732D01*
X0432279Y0313953D01*
X0431889Y0314031D01*
D02*
G37*
G36*
X0459927Y0288012D02*
X0459537Y0287934D01*
X0459206Y0287713D01*
X0458985Y0287383D01*
X0458908Y0286992D01*
X0458985Y0286602D01*
X0459206Y0286271D01*
X0459537Y0286050D01*
X0459927Y0285973D01*
X0460317Y0286050D01*
X0460648Y0286271D01*
X0460869Y0286602D01*
X0460947Y0286992D01*
X0460869Y0287383D01*
X0460648Y0287713D01*
X0460317Y0287934D01*
X0459927Y0288012D01*
D02*
G37*
G36*
X0442066D02*
X0441676Y0287934D01*
X0441345Y0287713D01*
X0441124Y0287383D01*
X0441046Y0286992D01*
X0441124Y0286602D01*
X0441345Y0286271D01*
X0441676Y0286050D01*
X0442066Y0285973D01*
X0442456Y0286050D01*
X0442787Y0286271D01*
X0443008Y0286602D01*
X0443085Y0286992D01*
X0443008Y0287383D01*
X0442787Y0287713D01*
X0442456Y0287934D01*
X0442066Y0288012D01*
D02*
G37*
G36*
X0455108Y0287074D02*
X0454718Y0286996D01*
X0454388Y0286775D01*
X0454167Y0286445D01*
X0454089Y0286054D01*
X0454167Y0285664D01*
X0454388Y0285333D01*
X0454718Y0285112D01*
X0455108Y0285035D01*
X0455499Y0285112D01*
X0455829Y0285333D01*
X0456050Y0285664D01*
X0456128Y0286054D01*
X0456050Y0286445D01*
X0455829Y0286775D01*
X0455499Y0286996D01*
X0455108Y0287074D01*
D02*
G37*
G36*
X0525020Y0286772D02*
X0524630Y0286695D01*
X0524299Y0286474D01*
X0524078Y0286143D01*
X0524001Y0285753D01*
X0524078Y0285363D01*
X0524299Y0285032D01*
X0524630Y0284811D01*
X0525020Y0284733D01*
X0525411Y0284811D01*
X0525741Y0285032D01*
X0525962Y0285363D01*
X0526040Y0285753D01*
X0525962Y0286143D01*
X0525741Y0286474D01*
X0525411Y0286695D01*
X0525020Y0286772D01*
D02*
G37*
G36*
X0469613Y0286105D02*
X0469222Y0286027D01*
X0468892Y0285806D01*
X0468671Y0285475D01*
X0468593Y0285085D01*
X0468671Y0284695D01*
X0468892Y0284364D01*
X0469222Y0284143D01*
X0469613Y0284066D01*
X0470003Y0284143D01*
X0470334Y0284364D01*
X0470774Y0284252D01*
X0471105Y0284031D01*
X0471495Y0283954D01*
X0471885Y0284031D01*
X0472216Y0284252D01*
X0472437Y0284583D01*
X0472514Y0284973D01*
X0472437Y0285363D01*
X0472216Y0285694D01*
X0471885Y0285915D01*
X0471495Y0285993D01*
X0471105Y0285915D01*
X0470774Y0285694D01*
X0470334Y0285806D01*
X0470003Y0286027D01*
X0469613Y0286105D01*
D02*
G37*
G36*
X0442598Y0285404D02*
X0442207Y0285327D01*
X0441877Y0285106D01*
X0441656Y0284775D01*
X0441578Y0284385D01*
X0441656Y0283994D01*
X0441877Y0283664D01*
X0442207Y0283443D01*
X0442598Y0283365D01*
X0442988Y0283443D01*
X0443319Y0283664D01*
X0443540Y0283994D01*
X0443617Y0284385D01*
X0443540Y0284775D01*
X0443319Y0285106D01*
X0442988Y0285327D01*
X0442598Y0285404D01*
D02*
G37*
G36*
X0427800Y0285272D02*
X0427409Y0285195D01*
X0427078Y0284974D01*
X0426858Y0284643D01*
X0426780Y0284253D01*
X0426858Y0283862D01*
X0427078Y0283532D01*
X0427409Y0283311D01*
X0427800Y0283233D01*
X0428190Y0283311D01*
X0428520Y0283532D01*
X0428550Y0283577D01*
X0429076Y0283495D01*
X0429297Y0283164D01*
X0429628Y0282943D01*
X0430018Y0282866D01*
X0430409Y0282943D01*
X0430739Y0283164D01*
X0430960Y0283495D01*
X0431038Y0283885D01*
X0430960Y0284276D01*
X0430739Y0284606D01*
X0430409Y0284827D01*
X0430018Y0284905D01*
X0429628Y0284827D01*
X0429297Y0284606D01*
X0429268Y0284561D01*
X0428742Y0284643D01*
X0428520Y0284974D01*
X0428190Y0285195D01*
X0427800Y0285272D01*
D02*
G37*
G36*
X0435208Y0284215D02*
X0434818Y0284137D01*
X0434487Y0283916D01*
X0434266Y0283585D01*
X0434189Y0283195D01*
X0434266Y0282805D01*
X0434487Y0282474D01*
X0434818Y0282253D01*
X0435208Y0282176D01*
X0435598Y0282253D01*
X0435929Y0282474D01*
X0436150Y0282805D01*
X0436228Y0283195D01*
X0436150Y0283585D01*
X0435929Y0283916D01*
X0435598Y0284137D01*
X0435208Y0284215D01*
D02*
G37*
G36*
X0415106Y0283327D02*
X0414716Y0283250D01*
X0414385Y0283029D01*
X0414164Y0282698D01*
X0414087Y0282308D01*
X0414164Y0281918D01*
X0414385Y0281587D01*
X0414716Y0281366D01*
X0415106Y0281288D01*
X0415496Y0281366D01*
X0415827Y0281587D01*
X0416048Y0281918D01*
X0416126Y0282308D01*
X0416048Y0282698D01*
X0415827Y0283029D01*
X0415496Y0283250D01*
X0415106Y0283327D01*
D02*
G37*
G36*
X0415026Y0279686D02*
X0414636Y0279608D01*
X0414305Y0279387D01*
X0414084Y0279056D01*
X0414006Y0278666D01*
X0414084Y0278276D01*
X0414305Y0277945D01*
X0414636Y0277724D01*
X0415026Y0277646D01*
X0415416Y0277724D01*
X0415747Y0277945D01*
X0415968Y0278276D01*
X0416046Y0278666D01*
X0415968Y0279056D01*
X0415747Y0279387D01*
X0415416Y0279608D01*
X0415026Y0279686D01*
D02*
G37*
G36*
X0475116Y0271760D02*
X0474726Y0271682D01*
X0474395Y0271461D01*
X0474174Y0271130D01*
X0474096Y0270740D01*
X0474174Y0270350D01*
X0474395Y0270019D01*
X0474726Y0269798D01*
X0475116Y0269721D01*
X0475506Y0269798D01*
X0475837Y0270019D01*
X0476058Y0270350D01*
X0476135Y0270740D01*
X0476058Y0271130D01*
X0475837Y0271461D01*
X0475506Y0271682D01*
X0475116Y0271760D01*
D02*
G37*
%LPD*%
G54D11*
X0497200Y0080717D02*
Y0101050D01*
X0413200Y0080717D02*
Y0101050D01*
X0040000Y0080717D02*
X0700200D01*
X0040000Y0060383D02*
X0700000D01*
X0040000Y0040050D02*
X0440500D01*
X0040050Y0101050D02*
X0700200D01*
X0040050Y0040050D02*
Y0101050D01*
Y0040050D02*
X0197600D01*
X0040000D02*
Y0101050D01*
X0286500Y0040050D02*
Y0101050D01*
X0700200Y0040050D02*
Y0101050D01*
X0440500Y0040050D02*
X0700200D01*
X0559400Y0039400D02*
Y0059683D01*
G54D13*
X0437233Y0153699D02*
X0436020Y0154913D01*
X0433593D01*
X0432379Y0153699D01*
Y0148845D01*
X0433593Y0147632D01*
X0436020D01*
X0437233Y0148845D01*
Y0151272D01*
X0434806D01*
X0439661Y0147632D02*
Y0154913D01*
X0444515Y0147632D01*
Y0154913D01*
X0446942D02*
Y0147632D01*
X0450582D01*
X0451796Y0148845D01*
Y0153699D01*
X0450582Y0154913D01*
X0446942D01*
X0457863Y0147632D02*
Y0154913D01*
X0454223Y0151272D01*
X0459077D01*
G54D20*
X0567400Y0087833D02*
Y0093831D01*
X0571399Y0087833D01*
Y0093831D01*
X0574398Y0087833D02*
X0576397D01*
X0577397Y0088833D01*
Y0090832D01*
X0576397Y0091832D01*
X0574398D01*
X0573398Y0090832D01*
Y0088833D01*
X0574398Y0087833D01*
X0580396Y0092832D02*
Y0091832D01*
X0579396D01*
X0581395D01*
X0580396D01*
Y0088833D01*
X0581395Y0087833D01*
X0590393D02*
X0592392D01*
X0591392D01*
Y0091832D01*
X0590393D01*
X0595391Y0087833D02*
Y0091832D01*
X0598390D01*
X0599390Y0090832D01*
Y0087833D01*
X0607387Y0091832D02*
X0609386Y0087833D01*
X0611386Y0091832D01*
X0616384Y0087833D02*
X0614385D01*
X0613385Y0088833D01*
Y0090832D01*
X0614385Y0091832D01*
X0616384D01*
X0617384Y0090832D01*
Y0089833D01*
X0613385D01*
X0619383Y0091832D02*
Y0087833D01*
Y0089833D01*
X0620383Y0090832D01*
X0621383Y0091832D01*
X0622382D01*
X0625381Y0087833D02*
X0628380D01*
X0629380Y0088833D01*
X0628380Y0089833D01*
X0626381D01*
X0625381Y0090832D01*
X0626381Y0091832D01*
X0629380D01*
X0631379Y0087833D02*
X0633379D01*
X0632379D01*
Y0091832D01*
X0631379D01*
X0637377Y0087833D02*
X0639377D01*
X0640376Y0088833D01*
Y0090832D01*
X0639377Y0091832D01*
X0637377D01*
X0636378Y0090832D01*
Y0088833D01*
X0637377Y0087833D01*
X0642376D02*
Y0091832D01*
X0645375D01*
X0646374Y0090832D01*
Y0087833D01*
X0658371Y0091832D02*
X0655372D01*
X0654372Y0090832D01*
Y0088833D01*
X0655372Y0087833D01*
X0658371D01*
X0661370D02*
X0663369D01*
X0664369Y0088833D01*
Y0090832D01*
X0663369Y0091832D01*
X0661370D01*
X0660370Y0090832D01*
Y0088833D01*
X0661370Y0087833D01*
X0666368D02*
Y0091832D01*
X0669367D01*
X0670367Y0090832D01*
Y0087833D01*
X0673366Y0092832D02*
Y0091832D01*
X0672366D01*
X0674365D01*
X0673366D01*
Y0088833D01*
X0674365Y0087833D01*
X0677364Y0091832D02*
Y0087833D01*
Y0089833D01*
X0678364Y0090832D01*
X0679364Y0091832D01*
X0680364D01*
X0684362Y0087833D02*
X0686362D01*
X0687361Y0088833D01*
Y0090832D01*
X0686362Y0091832D01*
X0684362D01*
X0683362Y0090832D01*
Y0088833D01*
X0684362Y0087833D01*
X0689361D02*
X0691360D01*
X0690360D01*
Y0093831D01*
X0689361D01*
X0520799Y0092832D02*
X0519799Y0093831D01*
X0517800D01*
X0516800Y0092832D01*
Y0091832D01*
X0517800Y0090832D01*
X0519799D01*
X0520799Y0089833D01*
Y0088833D01*
X0519799Y0087833D01*
X0517800D01*
X0516800Y0088833D01*
X0522798Y0093831D02*
Y0089833D01*
X0524797Y0087833D01*
X0526797Y0089833D01*
Y0093831D01*
X0528796Y0087833D02*
Y0093831D01*
X0532795Y0087833D01*
Y0093831D01*
X0540792Y0087833D02*
Y0093831D01*
X0543791D01*
X0544791Y0092832D01*
Y0090832D01*
X0543791Y0089833D01*
X0540792D01*
X0542792D02*
X0544791Y0087833D01*
X0550789Y0093831D02*
X0546790D01*
Y0087833D01*
X0550789D01*
X0546790Y0090832D02*
X0548790D01*
X0552788Y0093831D02*
Y0089833D01*
X0554788Y0087833D01*
X0556787Y0089833D01*
Y0093831D01*
X0558786Y0091832D02*
X0559786D01*
Y0090832D01*
X0558786D01*
Y0091832D01*
Y0088833D02*
X0559786D01*
Y0087833D01*
X0558786D01*
Y0088833D01*
X0433000Y0087833D02*
Y0093831D01*
X0435999D01*
X0436999Y0092832D01*
Y0090832D01*
X0435999Y0089833D01*
X0433000D01*
X0434999D02*
X0436999Y0087833D01*
X0442997Y0093831D02*
X0438998D01*
Y0087833D01*
X0442997D01*
X0438998Y0090832D02*
X0440997D01*
X0444996Y0093831D02*
Y0089833D01*
X0446995Y0087833D01*
X0448995Y0089833D01*
Y0093831D01*
X0450994Y0091832D02*
X0451994D01*
Y0090832D01*
X0450994D01*
Y0091832D01*
Y0088833D02*
X0451994D01*
Y0087833D01*
X0450994D01*
Y0088833D01*
X0126900Y0052965D02*
X0130899D01*
Y0051965D01*
X0126900Y0047966D01*
Y0046966D01*
X0132898D02*
X0134897D01*
X0133898D01*
Y0052965D01*
X0132898Y0051965D01*
X0137896D02*
X0138896Y0052965D01*
X0140895D01*
X0141895Y0051965D01*
Y0047966D01*
X0140895Y0046966D01*
X0138896D01*
X0137896Y0047966D01*
Y0051965D01*
X0143895D02*
X0144894Y0052965D01*
X0146894D01*
X0147893Y0051965D01*
Y0047966D01*
X0146894Y0046966D01*
X0144894D01*
X0143895Y0047966D01*
Y0051965D01*
X0149893Y0049966D02*
X0153891D01*
X0155891Y0051965D02*
X0156890Y0052965D01*
X0158890D01*
X0159889Y0051965D01*
Y0047966D01*
X0158890Y0046966D01*
X0156890D01*
X0155891Y0047966D01*
Y0051965D01*
X0161889D02*
X0162888Y0052965D01*
X0164888D01*
X0165887Y0051965D01*
Y0047966D01*
X0164888Y0046966D01*
X0162888D01*
X0161889Y0047966D01*
Y0051965D01*
X0167887D02*
X0168886Y0052965D01*
X0170886D01*
X0171885Y0051965D01*
Y0047966D01*
X0170886Y0046966D01*
X0168886D01*
X0167887Y0047966D01*
Y0051965D01*
X0173885D02*
X0174884Y0052965D01*
X0176884D01*
X0177884Y0051965D01*
Y0047966D01*
X0176884Y0046966D01*
X0174884D01*
X0173885Y0047966D01*
Y0051965D01*
X0179883D02*
X0180883Y0052965D01*
X0182882D01*
X0183882Y0051965D01*
Y0050965D01*
X0182882Y0049966D01*
X0181882D01*
X0182882D01*
X0183882Y0048966D01*
Y0047966D01*
X0182882Y0046966D01*
X0180883D01*
X0179883Y0047966D01*
X0191879Y0052965D02*
Y0047966D01*
X0192879Y0046966D01*
X0194878D01*
X0195878Y0047966D01*
Y0052965D01*
X0201876Y0051965D02*
X0200876Y0052965D01*
X0198877D01*
X0197877Y0051965D01*
Y0050965D01*
X0198877Y0049966D01*
X0200876D01*
X0201876Y0048966D01*
Y0047966D01*
X0200876Y0046966D01*
X0198877D01*
X0197877Y0047966D01*
X0203875Y0052965D02*
X0207874D01*
X0205874D01*
Y0046966D01*
X0209873Y0050965D02*
X0213872Y0046966D01*
X0211873Y0048966D01*
X0213872Y0050965D01*
X0209873Y0046966D01*
X0221869Y0052965D02*
Y0046966D01*
X0224868D01*
X0225868Y0047966D01*
Y0048966D01*
X0224868Y0049966D01*
X0221869D01*
X0224868D01*
X0225868Y0050965D01*
Y0051965D01*
X0224868Y0052965D01*
X0221869D01*
X0228867Y0046966D02*
X0230866D01*
X0231866Y0047966D01*
Y0049966D01*
X0230866Y0050965D01*
X0228867D01*
X0227867Y0049966D01*
Y0047966D01*
X0228867Y0046966D01*
X0234865Y0050965D02*
X0236864D01*
X0237864Y0049966D01*
Y0046966D01*
X0234865D01*
X0233865Y0047966D01*
X0234865Y0048966D01*
X0237864D01*
X0239863Y0050965D02*
Y0046966D01*
Y0048966D01*
X0240863Y0049966D01*
X0241863Y0050965D01*
X0242863D01*
X0249860Y0052965D02*
Y0046966D01*
X0246861D01*
X0245862Y0047966D01*
Y0049966D01*
X0246861Y0050965D01*
X0249860D01*
X0257858Y0052965D02*
Y0048966D01*
X0259857Y0046966D01*
X0261856Y0048966D01*
Y0052965D01*
X0263856Y0046966D02*
Y0047966D01*
X0264855D01*
Y0046966D01*
X0263856D01*
X0268854Y0051965D02*
X0269854Y0052965D01*
X0271853D01*
X0272853Y0051965D01*
Y0047966D01*
X0271853Y0046966D01*
X0269854D01*
X0268854Y0047966D01*
Y0051965D01*
X0274852Y0046966D02*
Y0047966D01*
X0275852D01*
Y0046966D01*
X0274852D01*
X0282850D02*
Y0052965D01*
X0279851Y0049966D01*
X0283849D01*
X0285849Y0046966D02*
Y0047966D01*
X0286848D01*
Y0046966D01*
X0285849D01*
X0290847D02*
X0292846D01*
X0291847D01*
Y0052965D01*
X0290847Y0051965D01*
X0295845Y0046966D02*
Y0047966D01*
X0296845D01*
Y0046966D01*
X0295845D01*
X0304842Y0051965D02*
X0303843Y0052965D01*
X0301843D01*
X0300844Y0051965D01*
Y0047966D01*
X0301843Y0046966D01*
X0303843D01*
X0304842Y0047966D01*
Y0049966D01*
X0302843D01*
X0310841Y0052965D02*
X0308841Y0051965D01*
X0306842Y0049966D01*
Y0047966D01*
X0307841Y0046966D01*
X0309841D01*
X0310841Y0047966D01*
Y0048966D01*
X0309841Y0049966D01*
X0306842D01*
X0381150Y0046966D02*
X0383149D01*
X0382150D01*
Y0052965D01*
X0381150Y0051965D01*
X0386148Y0046966D02*
X0390147Y0050965D01*
X0396145Y0046966D02*
X0392146D01*
X0396145Y0050965D01*
Y0051965D01*
X0395146Y0052965D01*
X0393146D01*
X0392146Y0051965D01*
X0398145D02*
X0399144Y0052965D01*
X0401144D01*
X0402143Y0051965D01*
Y0050965D01*
X0401144Y0049966D01*
X0402143Y0048966D01*
Y0047966D01*
X0401144Y0046966D01*
X0399144D01*
X0398145Y0047966D01*
Y0048966D01*
X0399144Y0049966D01*
X0398145Y0050965D01*
Y0051965D01*
X0399144Y0049966D02*
X0401144D01*
X0404143Y0046966D02*
X0408141Y0050965D01*
X0414139Y0046966D02*
X0410141D01*
X0414139Y0050965D01*
Y0051965D01*
X0413140Y0052965D01*
X0411140D01*
X0410141Y0051965D01*
X0416139D02*
X0417138Y0052965D01*
X0419138D01*
X0420137Y0051965D01*
Y0047966D01*
X0419138Y0046966D01*
X0417138D01*
X0416139Y0047966D01*
Y0051965D01*
X0426135Y0046966D02*
X0422137D01*
X0426135Y0050965D01*
Y0051965D01*
X0425136Y0052965D01*
X0423136D01*
X0422137Y0051965D01*
X0432133Y0052965D02*
X0428135D01*
Y0049966D01*
X0430134Y0050965D01*
X0431134D01*
X0432133Y0049966D01*
Y0047966D01*
X0431134Y0046966D01*
X0429135D01*
X0428135Y0047966D01*
X0298199Y0051965D02*
X0297199Y0052965D01*
X0295200D01*
X0294200Y0051965D01*
Y0047966D01*
X0295200Y0046966D01*
X0297199D01*
X0298199Y0047966D01*
Y0049966D01*
X0296199D01*
X0304197Y0052965D02*
X0300198D01*
Y0046966D01*
X0304197D01*
X0300198Y0049966D02*
X0302197D01*
X0306196Y0046966D02*
Y0052965D01*
X0310195Y0046966D01*
Y0052965D01*
X0316193D02*
X0312194D01*
Y0046966D01*
X0316193D01*
X0312194Y0049966D02*
X0314194D01*
X0318192Y0046966D02*
Y0052965D01*
X0321191D01*
X0322191Y0051965D01*
Y0049966D01*
X0321191Y0048966D01*
X0318192D01*
X0320192D02*
X0322191Y0046966D01*
X0324190D02*
Y0050965D01*
X0326190Y0052965D01*
X0328189Y0050965D01*
Y0046966D01*
Y0049966D01*
X0324190D01*
X0330188Y0052965D02*
X0334187D01*
X0332188D01*
Y0046966D01*
X0340185Y0052965D02*
X0336186D01*
Y0046966D01*
X0340185D01*
X0336186Y0049966D02*
X0338186D01*
X0342184Y0052965D02*
Y0046966D01*
X0345183D01*
X0346183Y0047966D01*
Y0051965D01*
X0345183Y0052965D01*
X0342184D01*
X0372175Y0050965D02*
X0373175D01*
Y0049966D01*
X0372175D01*
Y0050965D01*
Y0047966D02*
X0373175D01*
Y0046966D01*
X0372175D01*
Y0047966D01*
X0041778Y0083375D02*
Y0087374D01*
X0043777Y0089373D01*
X0045777Y0087374D01*
Y0083375D01*
Y0086374D01*
X0041778D01*
X0047776Y0089373D02*
Y0083375D01*
X0051775D01*
X0053774Y0089373D02*
Y0083375D01*
X0057773D01*
X0065770D02*
Y0087374D01*
X0067769Y0089373D01*
X0069769Y0087374D01*
Y0083375D01*
Y0086374D01*
X0065770D01*
X0071768Y0083375D02*
Y0089373D01*
X0074767D01*
X0075767Y0088373D01*
Y0086374D01*
X0074767Y0085374D01*
X0071768D01*
X0073768D02*
X0075767Y0083375D01*
X0077766Y0089373D02*
X0081765D01*
X0079766D01*
Y0083375D01*
X0083764Y0089373D02*
Y0083375D01*
X0085764Y0085374D01*
X0087763Y0083375D01*
Y0089373D01*
X0092761D02*
X0090762D01*
X0089762Y0088373D01*
Y0084374D01*
X0090762Y0083375D01*
X0092761D01*
X0093761Y0084374D01*
Y0088373D01*
X0092761Y0089373D01*
X0095760Y0083375D02*
Y0089373D01*
X0098759D01*
X0099759Y0088373D01*
Y0086374D01*
X0098759Y0085374D01*
X0095760D01*
X0097760D02*
X0099759Y0083375D01*
X0101759Y0089373D02*
Y0083375D01*
Y0085374D01*
X0105757Y0089373D01*
X0102758Y0086374D01*
X0105757Y0083375D01*
X0113755Y0089373D02*
Y0085374D01*
X0115754Y0083375D01*
X0117753Y0085374D01*
Y0089373D01*
X0119753D02*
X0121752D01*
X0120752D01*
Y0083375D01*
X0119753D01*
X0121752D01*
X0128750Y0089373D02*
X0124751D01*
Y0083375D01*
X0128750D01*
X0124751Y0086374D02*
X0126750D01*
X0130749Y0089373D02*
Y0083375D01*
X0132748Y0085374D01*
X0134748Y0083375D01*
Y0089373D01*
X0140746D02*
X0136747D01*
Y0083375D01*
X0140746D01*
X0136747Y0086374D02*
X0138747D01*
X0142745Y0089373D02*
Y0083375D01*
X0145744D01*
X0146744Y0084374D01*
Y0088373D01*
X0145744Y0089373D01*
X0142745D01*
X0158740D02*
X0154741D01*
Y0086374D01*
X0156741D01*
X0154741D01*
Y0083375D01*
X0160739D02*
Y0089373D01*
X0163738D01*
X0164738Y0088373D01*
Y0086374D01*
X0163738Y0085374D01*
X0160739D01*
X0162739D02*
X0164738Y0083375D01*
X0169737Y0089373D02*
X0167737D01*
X0166737Y0088373D01*
Y0084374D01*
X0167737Y0083375D01*
X0169737D01*
X0170736Y0084374D01*
Y0088373D01*
X0169737Y0089373D01*
X0172736Y0083375D02*
Y0089373D01*
X0174735Y0087374D01*
X0176734Y0089373D01*
Y0083375D01*
X0184732Y0089373D02*
X0188730D01*
X0186731D01*
Y0083375D01*
X0193729Y0089373D02*
X0191729D01*
X0190730Y0088373D01*
Y0084374D01*
X0191729Y0083375D01*
X0193729D01*
X0194728Y0084374D01*
Y0088373D01*
X0193729Y0089373D01*
X0196728Y0083375D02*
Y0089373D01*
X0199727D01*
X0200727Y0088373D01*
Y0086374D01*
X0199727Y0085374D01*
X0196728D01*
X0212723Y0088373D02*
X0211723Y0089373D01*
X0209723D01*
X0208724Y0088373D01*
Y0087374D01*
X0209723Y0086374D01*
X0211723D01*
X0212723Y0085374D01*
Y0084374D01*
X0211723Y0083375D01*
X0209723D01*
X0208724Y0084374D01*
X0214722Y0089373D02*
X0216721D01*
X0215722D01*
Y0083375D01*
X0214722D01*
X0216721D01*
X0219720Y0089373D02*
Y0083375D01*
X0222719D01*
X0223719Y0084374D01*
Y0088373D01*
X0222719Y0089373D01*
X0219720D01*
X0229717D02*
X0225718D01*
Y0083375D01*
X0229717D01*
X0225718Y0086374D02*
X0227718D01*
X0462150Y0092832D02*
X0463150Y0093831D01*
X0465149D01*
X0466149Y0092832D01*
Y0088833D01*
X0465149Y0087833D01*
X0463150D01*
X0462150Y0088833D01*
Y0092832D01*
X0348550Y0093831D02*
X0352549D01*
Y0092832D01*
X0348550Y0088833D01*
Y0087833D01*
X0354548D02*
X0356547D01*
X0355548D01*
Y0093831D01*
X0354548Y0092832D01*
X0359546D02*
X0360546Y0093831D01*
X0362545D01*
X0363545Y0092832D01*
Y0088833D01*
X0362545Y0087833D01*
X0360546D01*
X0359546Y0088833D01*
Y0092832D01*
X0365545D02*
X0366544Y0093831D01*
X0368544D01*
X0369543Y0092832D01*
Y0088833D01*
X0368544Y0087833D01*
X0366544D01*
X0365545Y0088833D01*
Y0092832D01*
X0371543Y0090832D02*
X0375541D01*
X0377541Y0092832D02*
X0378540Y0093831D01*
X0380540D01*
X0381539Y0092832D01*
Y0088833D01*
X0380540Y0087833D01*
X0378540D01*
X0377541Y0088833D01*
Y0092832D01*
X0383539D02*
X0384538Y0093831D01*
X0386538D01*
X0387537Y0092832D01*
Y0088833D01*
X0386538Y0087833D01*
X0384538D01*
X0383539Y0088833D01*
Y0092832D01*
X0389537D02*
X0390536Y0093831D01*
X0392536D01*
X0393535Y0092832D01*
Y0088833D01*
X0392536Y0087833D01*
X0390536D01*
X0389537Y0088833D01*
Y0092832D01*
X0395535D02*
X0396534Y0093831D01*
X0398534D01*
X0399534Y0092832D01*
Y0088833D01*
X0398534Y0087833D01*
X0396534D01*
X0395535Y0088833D01*
Y0092832D01*
X0401533D02*
X0402532Y0093831D01*
X0404532D01*
X0405532Y0092832D01*
Y0091832D01*
X0404532Y0090832D01*
X0403532D01*
X0404532D01*
X0405532Y0089833D01*
Y0088833D01*
X0404532Y0087833D01*
X0402532D01*
X0401533Y0088833D01*
X0294000Y0093831D02*
Y0087833D01*
X0296999D01*
X0297999Y0088833D01*
Y0089833D01*
X0296999Y0090832D01*
X0294000D01*
X0296999D01*
X0297999Y0091832D01*
Y0092832D01*
X0296999Y0093831D01*
X0294000D01*
X0302997D02*
X0300998D01*
X0299998Y0092832D01*
Y0088833D01*
X0300998Y0087833D01*
X0302997D01*
X0303997Y0088833D01*
Y0092832D01*
X0302997Y0093831D01*
X0305996Y0087833D02*
Y0091832D01*
X0307996Y0093831D01*
X0309995Y0091832D01*
Y0087833D01*
Y0090832D01*
X0305996D01*
X0311994Y0087833D02*
Y0093831D01*
X0314993D01*
X0315993Y0092832D01*
Y0090832D01*
X0314993Y0089833D01*
X0311994D01*
X0313994D02*
X0315993Y0087833D01*
X0317992Y0093831D02*
Y0087833D01*
X0320991D01*
X0321991Y0088833D01*
Y0092832D01*
X0320991Y0093831D01*
X0317992D01*
X0330988Y0087833D02*
Y0093831D01*
X0332987D02*
Y0087833D01*
X0329988Y0091832D02*
X0332987D01*
X0333987D01*
X0329988Y0089833D02*
X0333987D01*
X0335986Y0091832D02*
X0336986D01*
Y0090832D01*
X0335986D01*
Y0091832D01*
Y0088833D02*
X0336986D01*
Y0087833D01*
X0335986D01*
Y0088833D01*
X0046350Y0073549D02*
Y0067551D01*
X0050349D01*
X0052348D02*
Y0071549D01*
X0054347Y0073549D01*
X0056347Y0071549D01*
Y0067551D01*
Y0070550D01*
X0052348D01*
X0058346Y0073549D02*
Y0072549D01*
X0060346Y0070550D01*
X0062345Y0072549D01*
Y0073549D01*
X0060346Y0070550D02*
Y0067551D01*
X0068343Y0073549D02*
X0064344D01*
Y0067551D01*
X0068343D01*
X0064344Y0070550D02*
X0066343D01*
X0070342Y0067551D02*
Y0073549D01*
X0073341D01*
X0074341Y0072549D01*
Y0070550D01*
X0073341Y0069550D01*
X0070342D01*
X0072342D02*
X0074341Y0067551D01*
X0082338D02*
Y0073549D01*
X0086337Y0067551D01*
Y0073549D01*
X0088336Y0067551D02*
Y0071549D01*
X0090336Y0073549D01*
X0092335Y0071549D01*
Y0067551D01*
Y0070550D01*
X0088336D01*
X0094335Y0067551D02*
Y0073549D01*
X0096334Y0071549D01*
X0098333Y0073549D01*
Y0067551D01*
X0104331Y0073549D02*
X0100332D01*
Y0067551D01*
X0104331D01*
X0100332Y0070550D02*
X0102332D01*
X0112329Y0069550D02*
X0116327D01*
X0112329Y0071549D02*
X0116327D01*
X0046350Y0046966D02*
Y0052965D01*
X0049349D01*
X0050349Y0051965D01*
Y0049966D01*
X0049349Y0048966D01*
X0046350D01*
X0052348Y0052965D02*
Y0046966D01*
X0056347D01*
X0061345Y0052965D02*
X0059346D01*
X0058346Y0051965D01*
Y0047966D01*
X0059346Y0046966D01*
X0061345D01*
X0062345Y0047966D01*
Y0051965D01*
X0061345Y0052965D01*
X0064344D02*
X0068343D01*
X0066343D01*
Y0046966D01*
X0076340D02*
Y0052965D01*
X0080339Y0046966D01*
Y0052965D01*
X0082338Y0046966D02*
Y0050965D01*
X0084338Y0052965D01*
X0086337Y0050965D01*
Y0046966D01*
Y0049966D01*
X0082338D01*
X0088336Y0046966D02*
Y0052965D01*
X0090336Y0050965D01*
X0092335Y0052965D01*
Y0046966D01*
X0098333Y0052965D02*
X0094335D01*
Y0046966D01*
X0098333D01*
X0094335Y0049966D02*
X0096334D01*
X0106331Y0048966D02*
X0110329D01*
X0106331Y0050965D02*
X0110329D01*
X0454050Y0046966D02*
X0456049D01*
X0455050D01*
Y0052965D01*
X0454050Y0051965D01*
X0463047Y0046966D02*
X0459048D01*
X0463047Y0050965D01*
Y0051965D01*
X0462047Y0052965D01*
X0460048D01*
X0459048Y0051965D01*
X0465046Y0050965D02*
X0466046D01*
Y0049966D01*
X0465046D01*
Y0050965D01*
Y0047966D02*
X0466046D01*
Y0046966D01*
X0465046D01*
Y0047966D01*
X0470045Y0051965D02*
X0471044Y0052965D01*
X0473044D01*
X0474044Y0051965D01*
Y0050965D01*
X0473044Y0049966D01*
X0472044D01*
X0473044D01*
X0474044Y0048966D01*
Y0047966D01*
X0473044Y0046966D01*
X0471044D01*
X0470045Y0047966D01*
X0476043Y0046966D02*
X0478042D01*
X0477043D01*
Y0052965D01*
X0476043Y0051965D01*
X0481041Y0050965D02*
X0482041D01*
Y0049966D01*
X0481041D01*
Y0050965D01*
Y0047966D02*
X0482041D01*
Y0046966D01*
X0481041D01*
Y0047966D01*
X0486040Y0051965D02*
X0487039Y0052965D01*
X0489039D01*
X0490038Y0051965D01*
Y0050965D01*
X0489039Y0049966D01*
X0488039D01*
X0489039D01*
X0490038Y0048966D01*
Y0047966D01*
X0489039Y0046966D01*
X0487039D01*
X0486040Y0047966D01*
X0492038Y0051965D02*
X0493037Y0052965D01*
X0495037D01*
X0496036Y0051965D01*
Y0050965D01*
X0495037Y0049966D01*
X0496036Y0048966D01*
Y0047966D01*
X0495037Y0046966D01*
X0493037D01*
X0492038Y0047966D01*
Y0048966D01*
X0493037Y0049966D01*
X0492038Y0050965D01*
Y0051965D01*
X0493037Y0049966D02*
X0495037D01*
X0504034Y0046966D02*
Y0052965D01*
X0507033D01*
X0508033Y0051965D01*
Y0049966D01*
X0507033Y0048966D01*
X0504034D01*
X0510032Y0046966D02*
Y0052965D01*
X0512031Y0050965D01*
X0514031Y0052965D01*
Y0046966D01*
X0604409Y0053922D02*
X0602409D01*
X0601409Y0052922D01*
Y0048923D01*
X0602409Y0047924D01*
X0604409D01*
X0605408Y0048923D01*
Y0052922D01*
X0604409Y0053922D01*
X0607408Y0045924D02*
Y0051922D01*
X0610407D01*
X0611406Y0050923D01*
Y0048923D01*
X0610407Y0047924D01*
X0607408D01*
X0616405D02*
X0614405D01*
X0613406Y0048923D01*
Y0050923D01*
X0614405Y0051922D01*
X0616405D01*
X0617404Y0050923D01*
Y0049923D01*
X0613406D01*
X0619404Y0047924D02*
Y0051922D01*
X0622403D01*
X0623402Y0050923D01*
Y0047924D01*
X0625402Y0053922D02*
Y0047924D01*
X0627401Y0049923D01*
X0629400Y0047924D01*
Y0053922D01*
X0632400Y0051922D02*
X0634399D01*
X0635398Y0050923D01*
Y0047924D01*
X0632400D01*
X0631400Y0048923D01*
X0632400Y0049923D01*
X0635398D01*
X0638398Y0052922D02*
Y0051922D01*
X0637398D01*
X0639397D01*
X0638398D01*
Y0048923D01*
X0639397Y0047924D01*
X0645395D02*
X0643396D01*
X0642396Y0048923D01*
Y0050923D01*
X0643396Y0051922D01*
X0645395D01*
X0646395Y0050923D01*
Y0049923D01*
X0642396D01*
X0648394Y0051922D02*
Y0047924D01*
Y0049923D01*
X0649394Y0050923D01*
X0650394Y0051922D01*
X0651393D01*
X0294000Y0073498D02*
X0297999D01*
X0295999D01*
Y0067500D01*
X0299998Y0073498D02*
X0301997D01*
X0300998D01*
Y0067500D01*
X0299998D01*
X0301997D01*
X0304996Y0073498D02*
Y0067500D01*
X0307996D01*
X0308995Y0068500D01*
Y0072498D01*
X0307996Y0073498D01*
X0304996D01*
X0317992Y0067500D02*
Y0073498D01*
X0319992D02*
Y0067500D01*
X0316993Y0071499D02*
X0319992D01*
X0320991D01*
X0316993Y0069499D02*
X0320991D01*
X0322991Y0071499D02*
X0323990D01*
Y0070499D01*
X0322991D01*
Y0071499D01*
Y0068500D02*
X0323990D01*
Y0067500D01*
X0322991D01*
Y0068500D01*
X0348550Y0067500D02*
Y0073498D01*
X0352549Y0067500D01*
Y0073498D01*
X0354548Y0067500D02*
X0358547Y0071499D01*
X0360546Y0067500D02*
Y0071499D01*
X0362545Y0073498D01*
X0364545Y0071499D01*
Y0067500D01*
Y0070499D01*
X0360546D01*
G54D96*
X0486637Y0324285D02*
D03*
G54D98*
X0489399Y0323326D02*
D03*
X0483365Y0320282D02*
D03*
X0422331Y0296424D02*
D03*
X0467134Y0332921D02*
D03*
X0416456Y0293145D02*
D03*
X0426978Y0304120D02*
D03*
X0450315Y0352070D02*
D03*
X0413515Y0342136D02*
D03*
X0512038Y0428463D02*
D03*
X0519117Y0371214D02*
D03*
X0420678Y0282966D02*
D03*
X0427318Y0353238D02*
D03*
X0490267Y0360398D02*
D03*
X0450629Y0398806D02*
D03*
X0373009Y0369621D02*
D03*
X0431695Y0293017D02*
D03*
X0389446Y0307444D02*
D03*
X0431426Y0370873D02*
D03*
G54D99*
X0465051Y0318865D02*
D03*
X0466386Y0320725D02*
D03*
X0466904Y0326626D02*
D03*
G54D100*
X0370627Y0255174D02*
D03*
X0368163Y0255100D02*
D03*
X0369054Y0428314D02*
D03*
X0367029Y0256345D02*
D03*
X0363752Y0427217D02*
D03*
X0365736Y0428113D02*
D03*
X0369310Y0256312D02*
D03*
X0367500Y0427116D02*
D03*
X0389251Y0378505D02*
D03*
X0400470Y0269079D02*
D03*
X0396549Y0275879D02*
D03*
X0395850Y0269244D02*
D03*
X0395967Y0271413D02*
D03*
G54D101*
X0351674Y0427322D02*
X0361149Y0427280D01*
X0359081Y0427322D02*
X0361149Y0427280D01*
X0358745Y0255759D02*
X0358761Y0255742D01*
X0359079D02*
X0359081Y0255740D01*
X0362472D02*
X0362490Y0255721D01*
X0355717Y0255759D02*
X0358745D01*
X0358761Y0255742D02*
X0359079D01*
X0359081Y0255740D02*
X0362472D01*
M02*
