G04*
G04 #@! TF.GenerationSoftware,Altium Limited,Altium Designer,24.3.1 (35)*
G04*
G04 Layer_Physical_Order=4*
G04 Layer_Color=16776960*
%FSAX25Y25*%
%MOIN*%
G70*
G04*
G04 #@! TF.SameCoordinates,9BAF8AC8-72E2-4161-A934-73288D8D8D4B*
G04*
G04*
G04 #@! TF.FilePolarity,Positive*
G04*
G01*
G75*
%ADD11C,0.01000*%
%ADD13C,0.00700*%
%ADD14C,0.00600*%
%ADD20C,0.00800*%
%ADD98C,0.01200*%
%ADD99C,0.01000*%
%ADD100C,0.01387*%
G36*
X0465841Y0394928D02*
X0485395Y0375686D01*
X0485590Y0352136D01*
X0487957Y0350306D01*
X0493481Y0350306D01*
X0495408Y0352924D01*
X0496140Y0390397D01*
X0498398Y0394444D01*
X0502217Y0394558D01*
X0511278D01*
X0530852Y0374984D01*
X0530852Y0316621D01*
X0528552Y0314013D01*
X0528421Y0314039D01*
X0528031Y0313961D01*
X0527701Y0313740D01*
X0527480Y0313409D01*
X0527402Y0313019D01*
X0527452Y0312766D01*
X0522789Y0307477D01*
X0514139Y0307477D01*
X0468771Y0307646D01*
X0433767Y0272643D01*
X0399896D01*
X0397382Y0275157D01*
X0397579Y0275452D01*
X0397664Y0275879D01*
X0397579Y0276306D01*
X0397337Y0276667D01*
X0396975Y0276909D01*
X0396549Y0276994D01*
X0396122Y0276909D01*
X0395827Y0276712D01*
X0394426Y0278112D01*
Y0283490D01*
X0395472Y0284536D01*
X0395509Y0284511D01*
X0395936Y0284426D01*
X0396363Y0284511D01*
X0396725Y0284753D01*
X0396966Y0285115D01*
X0397051Y0285542D01*
X0396986Y0285869D01*
X0397235D01*
X0410728Y0285869D01*
X0410658Y0285518D01*
X0410735Y0285128D01*
X0410956Y0284797D01*
X0411287Y0284576D01*
X0411677Y0284499D01*
X0412068Y0284576D01*
X0412398Y0284797D01*
X0412619Y0285128D01*
X0412697Y0285518D01*
X0412619Y0285908D01*
X0412523Y0286053D01*
Y0286125D01*
X0414527Y0288128D01*
Y0290475D01*
X0413213Y0291788D01*
X0412467D01*
X0412515Y0292028D01*
X0412438Y0292419D01*
X0412217Y0292750D01*
X0411886Y0292970D01*
X0411496Y0293048D01*
X0411105Y0292970D01*
X0410775Y0292750D01*
X0410554Y0292419D01*
X0410476Y0292028D01*
X0410524Y0291788D01*
X0396530D01*
X0394426Y0293891D01*
Y0299827D01*
X0399868Y0305268D01*
X0401529D01*
X0401177Y0305033D01*
X0400936Y0304671D01*
X0400851Y0304244D01*
X0400936Y0303818D01*
X0401177Y0303456D01*
X0401539Y0303214D01*
X0401966Y0303129D01*
X0402392Y0303214D01*
X0402754Y0303456D01*
X0402996Y0303818D01*
X0403081Y0304244D01*
X0402996Y0304671D01*
X0402754Y0305033D01*
X0402403Y0305268D01*
X0404273D01*
X0407599Y0308593D01*
Y0311347D01*
X0406661Y0312285D01*
X0404694D01*
X0402188Y0309604D01*
X0399079D01*
X0394957Y0313727D01*
Y0318500D01*
X0394994Y0318444D01*
X0395356Y0318202D01*
X0395782Y0318118D01*
X0396209Y0318202D01*
X0396571Y0318444D01*
X0396813Y0318806D01*
X0396898Y0319233D01*
X0396813Y0319659D01*
X0396571Y0320021D01*
X0396209Y0320263D01*
X0395782Y0320348D01*
X0395356Y0320263D01*
X0394994Y0320021D01*
X0394957Y0319965D01*
Y0320650D01*
X0396248Y0321941D01*
X0396299Y0321992D01*
X0396479Y0322113D01*
X0396600Y0322294D01*
X0398199Y0323893D01*
X0414038D01*
X0413919Y0323813D01*
X0413697Y0323482D01*
X0413620Y0323092D01*
X0413697Y0322702D01*
X0413919Y0322371D01*
X0414249Y0322150D01*
X0414640Y0322073D01*
X0415030Y0322150D01*
X0415360Y0322371D01*
X0415582Y0322702D01*
X0415659Y0323092D01*
X0415582Y0323482D01*
X0415360Y0323813D01*
X0415241Y0323893D01*
X0416898D01*
X0417379Y0324373D01*
Y0327754D01*
X0415561Y0329572D01*
X0415541Y0329551D01*
X0415505Y0329733D01*
X0415284Y0330064D01*
X0414953Y0330285D01*
X0414563Y0330363D01*
X0414173Y0330285D01*
X0413842Y0330064D01*
X0413621Y0329733D01*
X0413562Y0329438D01*
X0406925D01*
X0392625Y0343738D01*
X0392709Y0353562D01*
X0395737Y0355525D01*
X0395960Y0355569D01*
X0396322Y0355811D01*
X0396431Y0355975D01*
X0398611Y0357388D01*
X0411089D01*
X0410818Y0357207D01*
X0410598Y0356876D01*
X0410520Y0356486D01*
X0410598Y0356096D01*
X0410818Y0355765D01*
X0411149Y0355544D01*
X0411540Y0355467D01*
X0411930Y0355544D01*
X0412260Y0355765D01*
X0412481Y0356096D01*
X0412559Y0356486D01*
X0412481Y0356876D01*
X0412260Y0357207D01*
X0411990Y0357388D01*
X0413741D01*
X0414014Y0357206D01*
X0414404Y0357128D01*
X0414794Y0357206D01*
X0415067Y0357388D01*
X0416369D01*
X0418861Y0359880D01*
Y0361942D01*
X0416460Y0364343D01*
X0416367Y0364250D01*
X0395708D01*
X0394324Y0365634D01*
Y0376620D01*
X0395836Y0378132D01*
Y0384231D01*
X0394426Y0385641D01*
Y0388236D01*
X0396240Y0390050D01*
X0396291Y0390084D01*
X0396326Y0390136D01*
X0397561Y0391371D01*
X0402188D01*
X0403161Y0390397D01*
Y0380667D01*
X0404087Y0379741D01*
X0407386D01*
X0408954Y0381308D01*
Y0388938D01*
X0409145D01*
X0410668Y0390461D01*
X0410998Y0390240D01*
X0411389Y0390163D01*
X0411779Y0390240D01*
X0412110Y0390461D01*
X0412331Y0390792D01*
X0412404Y0391160D01*
X0413830D01*
X0413813Y0391073D01*
X0413891Y0390683D01*
X0414112Y0390352D01*
X0414442Y0390131D01*
X0414832Y0390053D01*
X0415223Y0390131D01*
X0415553Y0390352D01*
X0415774Y0390683D01*
X0415852Y0391073D01*
X0415835Y0391160D01*
X0416460D01*
X0420227Y0394928D01*
X0465841Y0394928D01*
D02*
G37*
G36*
X0494435Y0383876D02*
X0494179Y0367588D01*
X0493807Y0367058D01*
X0491647D01*
X0491091Y0367491D01*
X0491358Y0379254D01*
X0456312Y0414074D01*
X0456312Y0414078D01*
X0456464Y0414445D01*
Y0414843D01*
X0456312Y0415211D01*
X0456030Y0415492D01*
X0455663Y0415644D01*
X0455265D01*
X0454897Y0415492D01*
X0454891Y0415485D01*
X0454678Y0415696D01*
X0440781D01*
X0440646Y0415753D01*
X0440248D01*
X0440112Y0415696D01*
X0387326D01*
X0385389Y0413759D01*
X0385464Y0413683D01*
Y0407221D01*
X0385366Y0406984D01*
Y0406586D01*
X0385464Y0406349D01*
Y0401027D01*
X0385381Y0400827D01*
Y0400429D01*
X0385464Y0400228D01*
Y0397825D01*
X0385344Y0397535D01*
Y0397137D01*
X0385464Y0396847D01*
Y0391736D01*
X0385430Y0391702D01*
X0385278Y0391334D01*
Y0390936D01*
X0385430Y0390569D01*
X0385464Y0390535D01*
Y0385467D01*
X0385430Y0385433D01*
X0385278Y0385065D01*
Y0384668D01*
X0385430Y0384300D01*
X0385464Y0384266D01*
Y0382181D01*
X0385365Y0381941D01*
Y0381505D01*
X0385464Y0381265D01*
Y0375844D01*
X0385335Y0375532D01*
Y0375134D01*
X0385464Y0374821D01*
Y0369402D01*
X0385430Y0369318D01*
Y0368920D01*
X0385464Y0368837D01*
Y0366326D01*
X0385418Y0366214D01*
Y0365816D01*
X0385464Y0365703D01*
Y0360039D01*
X0385453Y0360028D01*
X0385301Y0359661D01*
Y0359263D01*
X0385453Y0358895D01*
X0385464Y0358884D01*
Y0356760D01*
X0385342Y0356463D01*
Y0356065D01*
X0385464Y0355768D01*
Y0353610D01*
X0385342Y0353313D01*
Y0352916D01*
X0385464Y0352619D01*
Y0336110D01*
X0385392Y0335935D01*
Y0335537D01*
X0385464Y0335362D01*
Y0333218D01*
X0385461Y0333215D01*
X0385309Y0332847D01*
Y0332449D01*
X0385461Y0332082D01*
X0385464Y0332078D01*
Y0329589D01*
X0385428Y0329502D01*
Y0329104D01*
X0385464Y0329016D01*
Y0326434D01*
X0385428Y0326346D01*
Y0325948D01*
X0385464Y0325861D01*
Y0320798D01*
X0385419Y0320753D01*
X0385267Y0320386D01*
Y0319988D01*
X0385419Y0319620D01*
X0385464Y0319575D01*
Y0314263D01*
X0385415Y0314213D01*
X0385262Y0313846D01*
Y0313448D01*
X0385415Y0313081D01*
X0385464Y0313031D01*
Y0310935D01*
X0385409Y0310802D01*
Y0310404D01*
X0385464Y0310271D01*
Y0307728D01*
X0382797Y0305060D01*
X0382594Y0304976D01*
X0382313Y0304695D01*
X0382229Y0304493D01*
X0381703Y0303967D01*
Y0279694D01*
X0382234Y0279173D01*
Y0279021D01*
X0382386Y0278653D01*
X0382667Y0278372D01*
X0383035Y0278220D01*
X0383207D01*
X0384692Y0276765D01*
X0385581Y0276676D01*
X0386327Y0275916D01*
X0386394Y0274234D01*
X0385925Y0273765D01*
X0384797Y0273725D01*
X0383925Y0274470D01*
X0384035Y0275094D01*
X0378418Y0280712D01*
Y0406034D01*
X0378710D01*
X0379077Y0406186D01*
X0379358Y0406467D01*
X0379511Y0406835D01*
Y0407233D01*
X0379358Y0407600D01*
X0379077Y0407882D01*
X0378710Y0408034D01*
X0378418D01*
Y0412742D01*
X0384214Y0418538D01*
X0459773D01*
X0494435Y0383876D01*
D02*
G37*
G36*
X0410811Y0402938D02*
X0410817Y0402930D01*
X0410825Y0402924D01*
X0411627Y0402123D01*
X0411677Y0402173D01*
X0422823D01*
X0422974Y0401673D01*
X0422888Y0401615D01*
X0422667Y0401285D01*
X0422589Y0400894D01*
X0422667Y0400504D01*
X0422888Y0400173D01*
X0423219Y0399952D01*
X0423609Y0399875D01*
X0423999Y0399952D01*
X0424330Y0400173D01*
X0424551Y0400504D01*
X0424628Y0400894D01*
X0424551Y0401285D01*
X0424330Y0401615D01*
X0424244Y0401673D01*
X0424395Y0402173D01*
X0426613D01*
X0426765Y0401673D01*
X0426704Y0401632D01*
X0426482Y0401301D01*
X0426405Y0400911D01*
X0426482Y0400521D01*
X0426704Y0400190D01*
X0427034Y0399969D01*
X0427424Y0399892D01*
X0427815Y0399969D01*
X0428145Y0400190D01*
X0428366Y0400521D01*
X0428444Y0400911D01*
X0428366Y0401301D01*
X0428145Y0401632D01*
X0428084Y0401673D01*
X0428236Y0402173D01*
X0429731D01*
X0429883Y0401673D01*
X0429847Y0401649D01*
X0429626Y0401318D01*
X0429548Y0400928D01*
X0429626Y0400538D01*
X0429847Y0400207D01*
X0430177Y0399986D01*
X0430568Y0399908D01*
X0430958Y0399986D01*
X0431289Y0400207D01*
X0431510Y0400538D01*
X0431587Y0400928D01*
X0431510Y0401318D01*
X0431289Y0401649D01*
X0431253Y0401673D01*
X0431404Y0402173D01*
X0466253D01*
X0490267Y0378158D01*
Y0366877D01*
X0493224Y0363920D01*
X0493224Y0353357D01*
X0492085Y0352217D01*
X0489127D01*
X0486637Y0354707D01*
X0486637Y0375114D01*
X0486212Y0375539D01*
X0486211Y0375692D01*
X0486211Y0375692D01*
X0486211Y0375692D01*
Y0375692D01*
X0486183Y0375825D01*
X0486146Y0376004D01*
X0486146Y0376004D01*
X0486146Y0376004D01*
X0486060Y0376131D01*
X0485967Y0376267D01*
X0481331Y0380829D01*
X0481493Y0381371D01*
X0481597Y0381392D01*
X0481928Y0381613D01*
X0482149Y0381944D01*
X0482226Y0382334D01*
X0482149Y0382724D01*
X0481928Y0383055D01*
X0481597Y0383276D01*
X0481207Y0383354D01*
X0480817Y0383276D01*
X0480486Y0383055D01*
X0480265Y0382724D01*
X0480241Y0382604D01*
X0479698Y0382437D01*
X0466413Y0395509D01*
X0466283Y0395595D01*
X0466153Y0395682D01*
X0466150Y0395682D01*
X0466147Y0395684D01*
X0466048Y0395703D01*
X0465911Y0395840D01*
X0419861D01*
X0416460Y0392439D01*
X0416116Y0392783D01*
X0415768Y0392435D01*
X0410521D01*
X0407386Y0389300D01*
Y0381964D01*
X0405979Y0380556D01*
X0404545D01*
X0404102Y0380999D01*
Y0391182D01*
X0403287Y0391998D01*
X0402689D01*
X0402500Y0392124D01*
X0402188Y0392186D01*
X0402188Y0392186D01*
X0397561D01*
X0397249Y0392124D01*
X0397244Y0392121D01*
X0396796Y0391998D01*
Y0391998D01*
X0396378Y0391653D01*
X0396291Y0391661D01*
X0395930Y0391903D01*
X0395503Y0391988D01*
X0395076Y0391903D01*
X0394714Y0391661D01*
X0394473Y0391299D01*
X0394388Y0390873D01*
X0394473Y0390446D01*
X0394714Y0390084D01*
X0394743Y0389798D01*
X0393692Y0388747D01*
Y0388578D01*
X0393673Y0388548D01*
X0393611Y0388236D01*
X0393611Y0388236D01*
Y0385641D01*
X0393673Y0385329D01*
X0393692Y0385299D01*
Y0384718D01*
X0395021Y0383390D01*
Y0378527D01*
X0393692Y0377199D01*
Y0377114D01*
X0393571Y0376932D01*
X0393509Y0376620D01*
X0393509Y0376620D01*
Y0365634D01*
X0393571Y0365321D01*
X0393692Y0365140D01*
Y0364343D01*
X0395127Y0362909D01*
X0410350D01*
X0410413Y0362832D01*
X0410490Y0362442D01*
X0410711Y0362111D01*
X0411042Y0361890D01*
X0411432Y0361812D01*
X0411822Y0361890D01*
X0412153Y0362111D01*
X0412374Y0362442D01*
X0412452Y0362832D01*
X0412515Y0362909D01*
X0413073D01*
X0413108Y0362733D01*
X0413329Y0362402D01*
X0413660Y0362181D01*
X0414050Y0362103D01*
X0414440Y0362181D01*
X0414771Y0362402D01*
X0414992Y0362733D01*
X0415027Y0362909D01*
X0415561D01*
X0416900Y0361570D01*
Y0359926D01*
X0415766Y0358792D01*
X0415130Y0358862D01*
X0415125Y0358869D01*
X0414794Y0359090D01*
X0414404Y0359168D01*
X0414014Y0359090D01*
X0413683Y0358869D01*
X0413462Y0358538D01*
X0413450Y0358476D01*
X0398697D01*
X0396976Y0357308D01*
X0396327Y0357380D01*
X0396322Y0357388D01*
X0395960Y0357630D01*
X0395533Y0357715D01*
X0395106Y0357630D01*
X0394744Y0357388D01*
X0394503Y0357026D01*
X0394418Y0356599D01*
X0394503Y0356173D01*
X0394527Y0356137D01*
X0394426Y0355647D01*
X0392265Y0354246D01*
X0392206Y0354189D01*
X0392137Y0354144D01*
X0392093Y0354079D01*
X0392037Y0354024D01*
X0392005Y0353949D01*
X0391958Y0353880D01*
X0391942Y0353804D01*
X0391911Y0353732D01*
X0391910Y0353649D01*
X0391893Y0353569D01*
X0391809Y0343745D01*
X0391810Y0343741D01*
X0391809Y0343738D01*
X0391840Y0343585D01*
X0391869Y0343432D01*
X0391871Y0343429D01*
X0391871Y0343426D01*
X0391958Y0343297D01*
X0392012Y0343214D01*
Y0342879D01*
X0401971Y0333239D01*
X0406348Y0328861D01*
X0406613Y0328684D01*
X0406691Y0328669D01*
X0407147Y0328227D01*
X0414334Y0328167D01*
X0415619Y0327209D01*
Y0325763D01*
X0414506Y0324650D01*
X0414332D01*
X0414272Y0324662D01*
X0414197Y0324693D01*
X0414117D01*
X0414038Y0324709D01*
X0398199D01*
X0397887Y0324647D01*
X0397623Y0324470D01*
X0397623Y0324470D01*
X0396810Y0323657D01*
X0396479Y0323690D01*
X0396117Y0323932D01*
X0395691Y0324017D01*
X0395264Y0323932D01*
X0394902Y0323690D01*
X0394660Y0323328D01*
X0394576Y0322902D01*
X0394660Y0322475D01*
X0394902Y0322113D01*
X0394935Y0321782D01*
X0394380Y0321227D01*
X0394203Y0320963D01*
X0394163Y0320760D01*
X0393692Y0320311D01*
Y0314386D01*
X0394141Y0313937D01*
Y0313727D01*
X0394203Y0313415D01*
X0394380Y0313150D01*
X0394380Y0313150D01*
X0398502Y0309028D01*
X0398767Y0308851D01*
X0399079Y0308789D01*
X0399079Y0308789D01*
X0402188D01*
X0402202Y0308791D01*
X0402215Y0308789D01*
X0402327Y0308815D01*
X0402891D01*
X0404102Y0310027D01*
X0404102Y0310458D01*
X0405047Y0311469D01*
X0406015D01*
X0406545Y0310938D01*
Y0309299D01*
X0406557Y0309288D01*
X0403352Y0306084D01*
X0402403D01*
X0402324Y0306068D01*
X0402244D01*
X0402169Y0306037D01*
X0402091Y0306021D01*
X0402024Y0305977D01*
X0401966Y0305953D01*
X0401908Y0305977D01*
X0401841Y0306021D01*
X0401762Y0306037D01*
X0401688Y0306068D01*
X0401608D01*
X0401529Y0306084D01*
X0399868D01*
X0399868Y0306084D01*
X0399555Y0306021D01*
X0399291Y0305845D01*
X0399291Y0305845D01*
X0398714Y0305268D01*
X0396161D01*
X0393692Y0302800D01*
Y0300168D01*
X0393673Y0300139D01*
X0393611Y0299827D01*
X0393611Y0299827D01*
Y0293891D01*
X0393611Y0293891D01*
X0393673Y0293579D01*
X0393692Y0293549D01*
Y0292526D01*
X0396138Y0290080D01*
X0412339Y0290080D01*
X0413016Y0289402D01*
X0413016Y0288331D01*
X0411301Y0286615D01*
X0411050D01*
X0411040Y0286622D01*
X0410961Y0286638D01*
X0410887Y0286669D01*
X0410806D01*
X0410728Y0286684D01*
X0396986Y0286684D01*
X0396907Y0286669D01*
X0396827D01*
X0396753Y0286638D01*
X0396674Y0286622D01*
X0396664Y0286615D01*
X0396515D01*
X0396428Y0286528D01*
X0396363Y0286572D01*
X0395936Y0286657D01*
X0395509Y0286572D01*
X0395148Y0286330D01*
X0394906Y0285968D01*
X0394821Y0285542D01*
X0394905Y0285119D01*
X0394896Y0285113D01*
X0393850Y0284067D01*
X0393673Y0283803D01*
X0393611Y0283490D01*
X0393611Y0283490D01*
Y0278112D01*
X0393611Y0278112D01*
X0393673Y0277800D01*
X0393692Y0277771D01*
Y0276910D01*
X0390895Y0274308D01*
X0388060Y0274252D01*
X0387294Y0275018D01*
Y0297720D01*
X0387365Y0298074D01*
X0387294Y0298428D01*
Y0300569D01*
X0387451Y0300804D01*
X0387529Y0301194D01*
X0387451Y0301585D01*
X0387294Y0301819D01*
Y0303731D01*
X0387349Y0303814D01*
X0387427Y0304204D01*
X0387349Y0304594D01*
X0387294Y0304676D01*
Y0310128D01*
X0387351Y0310213D01*
X0387429Y0310603D01*
X0387351Y0310994D01*
X0387294Y0311079D01*
Y0316350D01*
X0387474Y0316618D01*
X0387551Y0317009D01*
X0387474Y0317399D01*
X0387294Y0317667D01*
Y0325643D01*
X0387370Y0325757D01*
X0387448Y0326147D01*
X0387370Y0326537D01*
X0387294Y0326651D01*
Y0328799D01*
X0387370Y0328913D01*
X0387448Y0329303D01*
X0387370Y0329693D01*
X0387294Y0329807D01*
Y0332476D01*
X0387328Y0332648D01*
X0387294Y0332821D01*
Y0335286D01*
X0387334Y0335346D01*
X0387411Y0335736D01*
X0387334Y0336126D01*
X0387294Y0336185D01*
Y0349488D01*
X0387318Y0349504D01*
X0387540Y0349835D01*
X0387617Y0350225D01*
X0387540Y0350616D01*
X0387318Y0350946D01*
X0387294Y0350962D01*
Y0352778D01*
X0387361Y0353115D01*
X0387294Y0353451D01*
Y0355927D01*
X0387361Y0356264D01*
X0387294Y0356601D01*
Y0359328D01*
X0387321Y0359462D01*
X0387294Y0359595D01*
Y0365526D01*
X0387360Y0365624D01*
X0387437Y0366015D01*
X0387360Y0366405D01*
X0387294Y0366503D01*
Y0368613D01*
X0387372Y0368729D01*
X0387450Y0369119D01*
X0387372Y0369510D01*
X0387294Y0369626D01*
Y0371673D01*
X0387413Y0371851D01*
X0387490Y0372241D01*
X0387413Y0372631D01*
X0387294Y0372809D01*
Y0375029D01*
X0387354Y0375333D01*
X0387294Y0375637D01*
Y0381005D01*
X0387489Y0381296D01*
X0387574Y0381723D01*
X0387489Y0382150D01*
X0387294Y0382441D01*
Y0384849D01*
X0387298Y0384866D01*
X0387294Y0384884D01*
Y0387781D01*
X0387421Y0387866D01*
X0387642Y0388197D01*
X0387720Y0388587D01*
X0387642Y0388978D01*
X0387421Y0389308D01*
X0387294Y0389393D01*
Y0391118D01*
X0387298Y0391135D01*
X0387294Y0391153D01*
Y0396985D01*
X0387364Y0397336D01*
X0387294Y0397687D01*
Y0400194D01*
X0387323Y0400238D01*
X0387401Y0400628D01*
X0387323Y0401018D01*
X0387294Y0401062D01*
Y0403216D01*
X0387416Y0403399D01*
X0387494Y0403789D01*
X0387416Y0404179D01*
X0387294Y0404362D01*
Y0406374D01*
X0387308Y0406395D01*
X0387386Y0406785D01*
X0387308Y0407175D01*
X0387294Y0407196D01*
Y0409512D01*
X0386744Y0410062D01*
Y0412807D01*
X0387589Y0413653D01*
X0400097D01*
X0410811Y0402938D01*
D02*
G37*
%LPC*%
G36*
X0448282Y0392348D02*
X0447892Y0392270D01*
X0447561Y0392049D01*
X0447340Y0391719D01*
X0447263Y0391328D01*
X0447340Y0390938D01*
X0447561Y0390607D01*
X0447892Y0390386D01*
X0448282Y0390309D01*
X0448672Y0390386D01*
X0449003Y0390607D01*
X0449224Y0390938D01*
X0449302Y0391328D01*
X0449224Y0391719D01*
X0449003Y0392049D01*
X0448672Y0392270D01*
X0448282Y0392348D01*
D02*
G37*
G36*
X0469163Y0390446D02*
X0468772Y0390368D01*
X0468442Y0390147D01*
X0468221Y0389816D01*
X0468143Y0389426D01*
X0468221Y0389036D01*
X0468442Y0388705D01*
X0468772Y0388484D01*
X0469163Y0388406D01*
X0469553Y0388484D01*
X0469883Y0388705D01*
X0470105Y0389036D01*
X0470182Y0389426D01*
X0470105Y0389816D01*
X0469883Y0390147D01*
X0469553Y0390368D01*
X0469163Y0390446D01*
D02*
G37*
G36*
X0441021Y0389245D02*
X0440631Y0389168D01*
X0440301Y0388947D01*
X0440079Y0388616D01*
X0440002Y0388226D01*
X0440079Y0387836D01*
X0440301Y0387505D01*
X0440631Y0387284D01*
X0441021Y0387206D01*
X0441412Y0387284D01*
X0441742Y0387505D01*
X0441963Y0387836D01*
X0442041Y0388226D01*
X0441963Y0388616D01*
X0441742Y0388947D01*
X0441412Y0389168D01*
X0441021Y0389245D01*
D02*
G37*
G36*
X0411401Y0388913D02*
X0411011Y0388835D01*
X0410680Y0388614D01*
X0410459Y0388283D01*
X0410382Y0387893D01*
X0410459Y0387503D01*
X0410680Y0387172D01*
X0411011Y0386951D01*
X0411401Y0386873D01*
X0411791Y0386951D01*
X0412122Y0387172D01*
X0412343Y0387503D01*
X0412421Y0387893D01*
X0412343Y0388283D01*
X0412122Y0388614D01*
X0411791Y0388835D01*
X0411401Y0388913D01*
D02*
G37*
G36*
X0414834Y0388802D02*
X0414443Y0388724D01*
X0414113Y0388504D01*
X0413892Y0388173D01*
X0413814Y0387783D01*
X0413892Y0387392D01*
X0414113Y0387062D01*
X0414443Y0386841D01*
X0414834Y0386763D01*
X0415224Y0386841D01*
X0415555Y0387062D01*
X0415776Y0387392D01*
X0415853Y0387783D01*
X0415776Y0388173D01*
X0415555Y0388504D01*
X0415224Y0388724D01*
X0414834Y0388802D01*
D02*
G37*
G36*
X0425804Y0387741D02*
X0425414Y0387663D01*
X0425083Y0387442D01*
X0424862Y0387111D01*
X0424785Y0386721D01*
X0424862Y0386331D01*
X0425083Y0386000D01*
X0425414Y0385779D01*
X0425804Y0385702D01*
X0426194Y0385779D01*
X0426525Y0386000D01*
X0426746Y0386331D01*
X0426824Y0386721D01*
X0426746Y0387111D01*
X0426525Y0387442D01*
X0426194Y0387663D01*
X0425804Y0387741D01*
D02*
G37*
G36*
X0440500Y0386379D02*
X0440110Y0386301D01*
X0439779Y0386080D01*
X0439558Y0385749D01*
X0439480Y0385359D01*
X0439558Y0384969D01*
X0439779Y0384638D01*
X0440110Y0384417D01*
X0440500Y0384340D01*
X0440890Y0384417D01*
X0441221Y0384638D01*
X0441442Y0384969D01*
X0441520Y0385359D01*
X0441442Y0385749D01*
X0441221Y0386080D01*
X0440890Y0386301D01*
X0440500Y0386379D01*
D02*
G37*
G36*
X0467965Y0385924D02*
X0467575Y0385846D01*
X0467244Y0385625D01*
X0467023Y0385294D01*
X0466945Y0384904D01*
X0467023Y0384514D01*
X0467244Y0384183D01*
X0467575Y0383962D01*
X0467965Y0383885D01*
X0468355Y0383962D01*
X0468686Y0384183D01*
X0468907Y0384514D01*
X0468984Y0384904D01*
X0468907Y0385294D01*
X0468686Y0385625D01*
X0468355Y0385846D01*
X0467965Y0385924D01*
D02*
G37*
G36*
X0398835Y0386039D02*
X0398408Y0385954D01*
X0398046Y0385713D01*
X0397804Y0385351D01*
X0397720Y0384924D01*
X0397804Y0384497D01*
X0398046Y0384136D01*
X0398408Y0383894D01*
X0398835Y0383809D01*
X0399261Y0383894D01*
X0399623Y0384136D01*
X0399865Y0384497D01*
X0399950Y0384924D01*
X0399865Y0385351D01*
X0399623Y0385713D01*
X0399261Y0385954D01*
X0398835Y0386039D01*
D02*
G37*
G36*
X0414969Y0385810D02*
X0414579Y0385733D01*
X0414248Y0385512D01*
X0414027Y0385181D01*
X0413949Y0384791D01*
X0414027Y0384401D01*
X0414248Y0384070D01*
X0414579Y0383849D01*
X0414969Y0383771D01*
X0415359Y0383849D01*
X0415690Y0384070D01*
X0415911Y0384401D01*
X0415988Y0384791D01*
X0415911Y0385181D01*
X0415690Y0385512D01*
X0415359Y0385733D01*
X0414969Y0385810D01*
D02*
G37*
G36*
X0401964Y0385989D02*
X0401537Y0385904D01*
X0401175Y0385663D01*
X0400933Y0385301D01*
X0400848Y0384874D01*
X0400933Y0384447D01*
X0401175Y0384086D01*
X0401537Y0383844D01*
X0401964Y0383759D01*
X0402390Y0383844D01*
X0402752Y0384086D01*
X0402994Y0384447D01*
X0403079Y0384874D01*
X0402994Y0385301D01*
X0402752Y0385663D01*
X0402390Y0385904D01*
X0401964Y0385989D01*
D02*
G37*
G36*
X0411557Y0385793D02*
X0411167Y0385716D01*
X0410836Y0385495D01*
X0410615Y0385164D01*
X0410537Y0384774D01*
X0410615Y0384384D01*
X0410836Y0384053D01*
X0411167Y0383832D01*
X0411557Y0383754D01*
X0411947Y0383832D01*
X0412278Y0384053D01*
X0412499Y0384384D01*
X0412576Y0384774D01*
X0412499Y0385164D01*
X0412278Y0385495D01*
X0411947Y0385716D01*
X0411557Y0385793D01*
D02*
G37*
G36*
X0515726Y0385484D02*
X0515336Y0385406D01*
X0515005Y0385185D01*
X0514784Y0384854D01*
X0514707Y0384464D01*
X0514784Y0384074D01*
X0515005Y0383743D01*
X0515336Y0383522D01*
X0515726Y0383444D01*
X0516116Y0383522D01*
X0516447Y0383743D01*
X0516668Y0384074D01*
X0516746Y0384464D01*
X0516668Y0384854D01*
X0516447Y0385185D01*
X0516116Y0385406D01*
X0515726Y0385484D01*
D02*
G37*
G36*
X0448824Y0385225D02*
X0448434Y0385147D01*
X0448103Y0384926D01*
X0447882Y0384595D01*
X0447804Y0384205D01*
X0447882Y0383815D01*
X0448103Y0383484D01*
X0448434Y0383263D01*
X0448824Y0383185D01*
X0449214Y0383263D01*
X0449545Y0383484D01*
X0449766Y0383815D01*
X0449844Y0384205D01*
X0449766Y0384595D01*
X0449545Y0384926D01*
X0449214Y0385147D01*
X0448824Y0385225D01*
D02*
G37*
G36*
X0426862Y0384243D02*
X0426472Y0384166D01*
X0426141Y0383945D01*
X0425920Y0383614D01*
X0425842Y0383224D01*
X0425899Y0382940D01*
X0425752Y0383160D01*
X0425421Y0383381D01*
X0425031Y0383458D01*
X0424641Y0383381D01*
X0424310Y0383160D01*
X0424089Y0382829D01*
X0424011Y0382439D01*
X0424089Y0382049D01*
X0424310Y0381718D01*
X0424641Y0381497D01*
X0425031Y0381419D01*
X0425421Y0381497D01*
X0425752Y0381718D01*
X0425973Y0382049D01*
X0426051Y0382439D01*
X0425994Y0382722D01*
X0426141Y0382503D01*
X0426472Y0382282D01*
X0426518Y0382272D01*
X0426404Y0382250D01*
X0426073Y0382029D01*
X0425852Y0381698D01*
X0425775Y0381308D01*
X0425852Y0380917D01*
X0426073Y0380587D01*
X0426404Y0380366D01*
X0426794Y0380288D01*
X0427184Y0380366D01*
X0427515Y0380587D01*
X0427736Y0380917D01*
X0427814Y0381308D01*
X0427736Y0381698D01*
X0427515Y0382029D01*
X0427184Y0382250D01*
X0427138Y0382259D01*
X0427252Y0382282D01*
X0427583Y0382503D01*
X0427804Y0382833D01*
X0427881Y0383224D01*
X0427804Y0383614D01*
X0427583Y0383945D01*
X0427252Y0384166D01*
X0426862Y0384243D01*
D02*
G37*
G36*
X0440955Y0383270D02*
X0440564Y0383192D01*
X0440234Y0382971D01*
X0440013Y0382641D01*
X0439935Y0382250D01*
X0440013Y0381860D01*
X0440196Y0381585D01*
X0439944Y0381635D01*
X0439553Y0381558D01*
X0439223Y0381337D01*
X0439002Y0381006D01*
X0438924Y0380616D01*
X0439002Y0380226D01*
X0439223Y0379895D01*
X0439553Y0379674D01*
X0439944Y0379596D01*
X0440334Y0379674D01*
X0440665Y0379895D01*
X0440886Y0380226D01*
X0440963Y0380616D01*
X0440886Y0381006D01*
X0440702Y0381281D01*
X0440955Y0381231D01*
X0441345Y0381308D01*
X0441676Y0381529D01*
X0441897Y0381860D01*
X0441974Y0382250D01*
X0441897Y0382641D01*
X0441676Y0382971D01*
X0441345Y0383192D01*
X0440955Y0383270D01*
D02*
G37*
G36*
X0414902Y0382709D02*
X0414512Y0382631D01*
X0414181Y0382410D01*
X0413960Y0382079D01*
X0413883Y0381689D01*
X0413960Y0381299D01*
X0414181Y0380968D01*
X0414512Y0380747D01*
X0414902Y0380670D01*
X0415293Y0380747D01*
X0415623Y0380968D01*
X0415844Y0381299D01*
X0415922Y0381689D01*
X0415844Y0382079D01*
X0415623Y0382410D01*
X0415293Y0382631D01*
X0414902Y0382709D01*
D02*
G37*
G36*
X0440462Y0379555D02*
X0440072Y0379477D01*
X0439741Y0379256D01*
X0439520Y0378925D01*
X0439442Y0378535D01*
X0439520Y0378145D01*
X0439741Y0377814D01*
X0440025Y0377625D01*
X0439950Y0377640D01*
X0439560Y0377562D01*
X0439229Y0377341D01*
X0439008Y0377010D01*
X0438931Y0376620D01*
X0439008Y0376230D01*
X0439229Y0375899D01*
X0439560Y0375678D01*
X0439950Y0375600D01*
X0440340Y0375678D01*
X0440671Y0375899D01*
X0440892Y0376230D01*
X0440970Y0376620D01*
X0440892Y0377010D01*
X0440671Y0377341D01*
X0440387Y0377531D01*
X0440462Y0377516D01*
X0440852Y0377593D01*
X0441183Y0377814D01*
X0441404Y0378145D01*
X0441481Y0378535D01*
X0441404Y0378925D01*
X0441183Y0379256D01*
X0440852Y0379477D01*
X0440462Y0379555D01*
D02*
G37*
G36*
X0425412Y0379692D02*
X0425022Y0379614D01*
X0424691Y0379393D01*
X0424470Y0379062D01*
X0424393Y0378672D01*
X0424470Y0378282D01*
X0424691Y0377951D01*
X0425022Y0377730D01*
X0425412Y0377652D01*
X0425802Y0377730D01*
X0426009Y0377868D01*
X0425970Y0377672D01*
X0426047Y0377281D01*
X0426268Y0376951D01*
X0426599Y0376730D01*
X0426989Y0376652D01*
X0427380Y0376730D01*
X0427710Y0376951D01*
X0427931Y0377281D01*
X0428009Y0377672D01*
X0427931Y0378062D01*
X0427710Y0378393D01*
X0427380Y0378614D01*
X0426989Y0378691D01*
X0426599Y0378614D01*
X0426393Y0378476D01*
X0426432Y0378672D01*
X0426354Y0379062D01*
X0426133Y0379393D01*
X0425802Y0379614D01*
X0425412Y0379692D01*
D02*
G37*
G36*
X0457780Y0378091D02*
X0457390Y0378013D01*
X0457059Y0377792D01*
X0456838Y0377461D01*
X0456760Y0377071D01*
X0456838Y0376681D01*
X0457059Y0376350D01*
X0457390Y0376129D01*
X0457780Y0376051D01*
X0458170Y0376129D01*
X0458501Y0376350D01*
X0458722Y0376681D01*
X0458799Y0377071D01*
X0458722Y0377461D01*
X0458501Y0377792D01*
X0458170Y0378013D01*
X0457780Y0378091D01*
D02*
G37*
G36*
X0408138Y0377417D02*
X0407748Y0377340D01*
X0407417Y0377119D01*
X0407196Y0376788D01*
X0407118Y0376398D01*
X0407196Y0376008D01*
X0407417Y0375677D01*
X0407748Y0375456D01*
X0408138Y0375378D01*
X0408528Y0375456D01*
X0408859Y0375677D01*
X0409080Y0376008D01*
X0409157Y0376398D01*
X0409080Y0376788D01*
X0408859Y0377119D01*
X0408528Y0377340D01*
X0408138Y0377417D01*
D02*
G37*
G36*
X0455840Y0377276D02*
X0455449Y0377199D01*
X0455119Y0376978D01*
X0454898Y0376647D01*
X0454820Y0376257D01*
X0454898Y0375866D01*
X0455119Y0375536D01*
X0455449Y0375315D01*
X0455840Y0375237D01*
X0456230Y0375315D01*
X0456561Y0375536D01*
X0456782Y0375866D01*
X0456859Y0376257D01*
X0456782Y0376647D01*
X0456561Y0376978D01*
X0456230Y0377199D01*
X0455840Y0377276D01*
D02*
G37*
G36*
X0404717Y0376945D02*
X0404327Y0376868D01*
X0403996Y0376647D01*
X0403775Y0376316D01*
X0403698Y0375926D01*
X0403775Y0375535D01*
X0403996Y0375205D01*
X0404327Y0374984D01*
X0404717Y0374906D01*
X0405107Y0374984D01*
X0405438Y0375205D01*
X0405659Y0375535D01*
X0405737Y0375926D01*
X0405659Y0376316D01*
X0405438Y0376647D01*
X0405107Y0376868D01*
X0404717Y0376945D01*
D02*
G37*
G36*
X0401841Y0376899D02*
X0401414Y0376814D01*
X0401052Y0376572D01*
X0400811Y0376211D01*
X0400726Y0375784D01*
X0400811Y0375357D01*
X0401052Y0374995D01*
X0401414Y0374754D01*
X0401841Y0374669D01*
X0402268Y0374754D01*
X0402630Y0374995D01*
X0402871Y0375357D01*
X0402956Y0375784D01*
X0402871Y0376211D01*
X0402630Y0376572D01*
X0402268Y0376814D01*
X0401841Y0376899D01*
D02*
G37*
G36*
X0398833Y0376489D02*
X0398406Y0376404D01*
X0398044Y0376163D01*
X0397802Y0375801D01*
X0397717Y0375374D01*
X0397802Y0374947D01*
X0398044Y0374586D01*
X0398406Y0374344D01*
X0398833Y0374259D01*
X0399259Y0374344D01*
X0399621Y0374586D01*
X0399863Y0374947D01*
X0399948Y0375374D01*
X0399863Y0375801D01*
X0399621Y0376163D01*
X0399259Y0376404D01*
X0398833Y0376489D01*
D02*
G37*
G36*
X0440420Y0375686D02*
X0440029Y0375608D01*
X0439699Y0375387D01*
X0439478Y0375057D01*
X0439400Y0374666D01*
X0439478Y0374276D01*
X0439699Y0373945D01*
X0440029Y0373724D01*
X0440420Y0373647D01*
X0440810Y0373724D01*
X0441141Y0373945D01*
X0441362Y0374276D01*
X0441439Y0374666D01*
X0441362Y0375057D01*
X0441141Y0375387D01*
X0440810Y0375608D01*
X0440420Y0375686D01*
D02*
G37*
G36*
X0501084Y0375540D02*
X0500694Y0375462D01*
X0500363Y0375241D01*
X0500142Y0374910D01*
X0500065Y0374520D01*
X0500142Y0374130D01*
X0500363Y0373799D01*
X0500694Y0373578D01*
X0501084Y0373501D01*
X0501475Y0373578D01*
X0501805Y0373799D01*
X0502023Y0374126D01*
X0502032Y0374081D01*
X0502253Y0373750D01*
X0502584Y0373530D01*
X0502974Y0373452D01*
X0503365Y0373530D01*
X0503695Y0373750D01*
X0503916Y0374081D01*
X0503994Y0374471D01*
X0503916Y0374862D01*
X0503695Y0375192D01*
X0503365Y0375413D01*
X0502974Y0375491D01*
X0502584Y0375413D01*
X0502253Y0375192D01*
X0502035Y0374866D01*
X0502026Y0374910D01*
X0501805Y0375241D01*
X0501475Y0375462D01*
X0501084Y0375540D01*
D02*
G37*
G36*
X0505012Y0375473D02*
X0504622Y0375396D01*
X0504291Y0375175D01*
X0504070Y0374844D01*
X0503992Y0374454D01*
X0504070Y0374063D01*
X0504291Y0373733D01*
X0504622Y0373512D01*
X0505012Y0373434D01*
X0505402Y0373512D01*
X0505733Y0373733D01*
X0505954Y0374063D01*
X0506032Y0374454D01*
X0505954Y0374844D01*
X0505733Y0375175D01*
X0505402Y0375396D01*
X0505012Y0375473D01*
D02*
G37*
G36*
X0427083Y0374736D02*
X0426693Y0374659D01*
X0426362Y0374438D01*
X0426141Y0374107D01*
X0426063Y0373717D01*
X0426141Y0373326D01*
X0426362Y0372996D01*
X0426693Y0372775D01*
X0427083Y0372697D01*
X0427473Y0372775D01*
X0427804Y0372996D01*
X0428025Y0373326D01*
X0428102Y0373717D01*
X0428025Y0374107D01*
X0427804Y0374438D01*
X0427473Y0374659D01*
X0427083Y0374736D01*
D02*
G37*
G36*
X0469755Y0373936D02*
X0469364Y0373858D01*
X0469034Y0373637D01*
X0468813Y0373306D01*
X0468735Y0372916D01*
X0468813Y0372526D01*
X0469034Y0372195D01*
X0469364Y0371974D01*
X0469755Y0371897D01*
X0470145Y0371974D01*
X0470476Y0372195D01*
X0470697Y0372526D01*
X0470774Y0372916D01*
X0470697Y0373306D01*
X0470476Y0373637D01*
X0470145Y0373858D01*
X0469755Y0373936D01*
D02*
G37*
G36*
X0414280Y0373775D02*
X0413890Y0373697D01*
X0413559Y0373476D01*
X0413339Y0373145D01*
X0413261Y0372755D01*
X0413339Y0372365D01*
X0413559Y0372034D01*
X0413890Y0371813D01*
X0414280Y0371735D01*
X0414671Y0371813D01*
X0415001Y0372034D01*
X0415222Y0372365D01*
X0415300Y0372755D01*
X0415222Y0373145D01*
X0415001Y0373476D01*
X0414671Y0373697D01*
X0414280Y0373775D01*
D02*
G37*
G36*
X0513455Y0373627D02*
X0513065Y0373549D01*
X0512735Y0373328D01*
X0512513Y0372997D01*
X0512436Y0372607D01*
X0512513Y0372217D01*
X0512735Y0371886D01*
X0513065Y0371665D01*
X0513455Y0371588D01*
X0513846Y0371665D01*
X0514177Y0371886D01*
X0514397Y0372217D01*
X0514475Y0372607D01*
X0514397Y0372997D01*
X0514177Y0373328D01*
X0513846Y0373549D01*
X0513455Y0373627D01*
D02*
G37*
G36*
X0439973Y0373509D02*
X0439583Y0373431D01*
X0439252Y0373210D01*
X0439031Y0372879D01*
X0438953Y0372489D01*
X0439031Y0372099D01*
X0439252Y0371768D01*
X0439583Y0371547D01*
X0439973Y0371469D01*
X0440363Y0371547D01*
X0440694Y0371768D01*
X0440915Y0372099D01*
X0440993Y0372489D01*
X0440915Y0372879D01*
X0440694Y0373210D01*
X0440363Y0373431D01*
X0439973Y0373509D01*
D02*
G37*
G36*
X0402049Y0373651D02*
X0401622Y0373566D01*
X0401260Y0373324D01*
X0401018Y0372962D01*
X0400934Y0372535D01*
X0401018Y0372109D01*
X0401260Y0371747D01*
X0401622Y0371505D01*
X0402049Y0371420D01*
X0402476Y0371505D01*
X0402837Y0371747D01*
X0403079Y0372109D01*
X0403164Y0372535D01*
X0403079Y0372962D01*
X0402837Y0373324D01*
X0402476Y0373566D01*
X0402049Y0373651D01*
D02*
G37*
G36*
X0398416Y0373437D02*
X0397989Y0373352D01*
X0397627Y0373111D01*
X0397385Y0372749D01*
X0397301Y0372322D01*
X0397385Y0371895D01*
X0397627Y0371534D01*
X0397989Y0371292D01*
X0398416Y0371207D01*
X0398842Y0371292D01*
X0399204Y0371534D01*
X0399446Y0371895D01*
X0399531Y0372322D01*
X0399446Y0372749D01*
X0399204Y0373111D01*
X0398842Y0373352D01*
X0398416Y0373437D01*
D02*
G37*
G36*
X0411584Y0373223D02*
X0411193Y0373145D01*
X0410862Y0372924D01*
X0410641Y0372593D01*
X0410564Y0372203D01*
X0410641Y0371813D01*
X0410862Y0371482D01*
X0411193Y0371261D01*
X0411584Y0371184D01*
X0411974Y0371261D01*
X0412304Y0371482D01*
X0412525Y0371813D01*
X0412603Y0372203D01*
X0412525Y0372593D01*
X0412304Y0372924D01*
X0411974Y0373145D01*
X0411584Y0373223D01*
D02*
G37*
G36*
X0528971Y0372951D02*
X0528581Y0372873D01*
X0528250Y0372652D01*
X0528029Y0372321D01*
X0527951Y0371931D01*
X0528029Y0371541D01*
X0528250Y0371210D01*
X0528581Y0370989D01*
X0528971Y0370912D01*
X0529361Y0370989D01*
X0529692Y0371210D01*
X0529913Y0371541D01*
X0529990Y0371931D01*
X0529913Y0372321D01*
X0529692Y0372652D01*
X0529361Y0372873D01*
X0528971Y0372951D01*
D02*
G37*
G36*
X0501958Y0372828D02*
X0501567Y0372751D01*
X0501236Y0372530D01*
X0501016Y0372199D01*
X0500938Y0371809D01*
X0501016Y0371418D01*
X0501236Y0371088D01*
X0501567Y0370867D01*
X0501958Y0370789D01*
X0502348Y0370867D01*
X0502678Y0371088D01*
X0502900Y0371418D01*
X0502977Y0371809D01*
X0502900Y0372199D01*
X0502678Y0372530D01*
X0502348Y0372751D01*
X0501958Y0372828D01*
D02*
G37*
G36*
X0451754Y0372461D02*
X0451364Y0372383D01*
X0451033Y0372162D01*
X0450812Y0371831D01*
X0450734Y0371441D01*
X0450812Y0371051D01*
X0451033Y0370720D01*
X0451364Y0370499D01*
X0451754Y0370421D01*
X0452144Y0370499D01*
X0452475Y0370720D01*
X0452696Y0371051D01*
X0452773Y0371441D01*
X0452696Y0371831D01*
X0452475Y0372162D01*
X0452144Y0372383D01*
X0451754Y0372461D01*
D02*
G37*
G36*
X0519117Y0372233D02*
X0518727Y0372156D01*
X0518396Y0371935D01*
X0518175Y0371604D01*
X0518098Y0371214D01*
X0518175Y0370824D01*
X0518396Y0370493D01*
X0518727Y0370272D01*
X0519117Y0370194D01*
X0519507Y0370272D01*
X0519838Y0370493D01*
X0520059Y0370824D01*
X0520137Y0371214D01*
X0520059Y0371604D01*
X0519838Y0371935D01*
X0519507Y0372156D01*
X0519117Y0372233D01*
D02*
G37*
G36*
X0427100Y0372026D02*
X0426710Y0371949D01*
X0426379Y0371728D01*
X0426158Y0371397D01*
X0426080Y0371007D01*
X0426158Y0370617D01*
X0426379Y0370286D01*
X0426710Y0370065D01*
X0427100Y0369987D01*
X0427490Y0370065D01*
X0427821Y0370286D01*
X0428042Y0370617D01*
X0428119Y0371007D01*
X0428042Y0371397D01*
X0427821Y0371728D01*
X0427490Y0371949D01*
X0427100Y0372026D01*
D02*
G37*
G36*
X0431426Y0371893D02*
X0431035Y0371815D01*
X0430705Y0371594D01*
X0430483Y0371263D01*
X0430406Y0370873D01*
X0430483Y0370483D01*
X0430705Y0370152D01*
X0431035Y0369931D01*
X0431426Y0369853D01*
X0431816Y0369931D01*
X0432147Y0370152D01*
X0432368Y0370483D01*
X0432445Y0370873D01*
X0432368Y0371263D01*
X0432147Y0371594D01*
X0431816Y0371815D01*
X0431426Y0371893D01*
D02*
G37*
G36*
X0446027Y0371796D02*
X0445637Y0371719D01*
X0445306Y0371498D01*
X0445085Y0371167D01*
X0445008Y0370777D01*
X0445085Y0370387D01*
X0445306Y0370056D01*
X0445637Y0369835D01*
X0446027Y0369757D01*
X0446418Y0369835D01*
X0446748Y0370056D01*
X0446969Y0370387D01*
X0447047Y0370777D01*
X0446969Y0371167D01*
X0446748Y0371498D01*
X0446418Y0371719D01*
X0446027Y0371796D01*
D02*
G37*
G36*
X0414205Y0370643D02*
X0413815Y0370566D01*
X0413484Y0370345D01*
X0413263Y0370014D01*
X0413185Y0369624D01*
X0413263Y0369233D01*
X0413484Y0368903D01*
X0413815Y0368682D01*
X0414205Y0368604D01*
X0414595Y0368682D01*
X0414926Y0368903D01*
X0415147Y0369233D01*
X0415225Y0369624D01*
X0415147Y0370014D01*
X0414926Y0370345D01*
X0414595Y0370566D01*
X0414205Y0370643D01*
D02*
G37*
G36*
X0411582Y0370216D02*
X0411192Y0370139D01*
X0410861Y0369918D01*
X0410640Y0369587D01*
X0410563Y0369197D01*
X0410640Y0368807D01*
X0410861Y0368476D01*
X0411192Y0368255D01*
X0411582Y0368177D01*
X0411972Y0368255D01*
X0412303Y0368476D01*
X0412524Y0368807D01*
X0412602Y0369197D01*
X0412524Y0369587D01*
X0412303Y0369918D01*
X0411972Y0370139D01*
X0411582Y0370216D01*
D02*
G37*
G36*
X0425597Y0370003D02*
X0425207Y0369925D01*
X0424876Y0369704D01*
X0424655Y0369373D01*
X0424577Y0368983D01*
X0424655Y0368593D01*
X0424876Y0368262D01*
X0425207Y0368041D01*
X0425597Y0367963D01*
X0425987Y0368041D01*
X0426318Y0368262D01*
X0426539Y0368593D01*
X0426616Y0368983D01*
X0426539Y0369373D01*
X0426318Y0369704D01*
X0425987Y0369925D01*
X0425597Y0370003D01*
D02*
G37*
G36*
X0501952Y0368077D02*
X0501562Y0368000D01*
X0501231Y0367779D01*
X0501010Y0367448D01*
X0500932Y0367058D01*
X0501010Y0366668D01*
X0501231Y0366337D01*
X0501562Y0366116D01*
X0501952Y0366038D01*
X0502342Y0366116D01*
X0502673Y0366337D01*
X0502894Y0366668D01*
X0502972Y0367058D01*
X0502894Y0367448D01*
X0502673Y0367779D01*
X0502342Y0368000D01*
X0501952Y0368077D01*
D02*
G37*
G36*
X0414493Y0367326D02*
X0414102Y0367249D01*
X0413771Y0367028D01*
X0413551Y0366697D01*
X0413473Y0366307D01*
X0413551Y0365917D01*
X0413771Y0365586D01*
X0414102Y0365365D01*
X0414493Y0365287D01*
X0414883Y0365365D01*
X0415213Y0365586D01*
X0415435Y0365917D01*
X0415512Y0366307D01*
X0415435Y0366697D01*
X0415213Y0367028D01*
X0414883Y0367249D01*
X0414493Y0367326D01*
D02*
G37*
G36*
X0411677Y0367015D02*
X0411287Y0366937D01*
X0410956Y0366716D01*
X0410735Y0366385D01*
X0410658Y0365995D01*
X0410735Y0365605D01*
X0410956Y0365274D01*
X0411287Y0365053D01*
X0411677Y0364976D01*
X0412068Y0365053D01*
X0412398Y0365274D01*
X0412619Y0365605D01*
X0412697Y0365995D01*
X0412619Y0366385D01*
X0412398Y0366716D01*
X0412068Y0366937D01*
X0411677Y0367015D01*
D02*
G37*
G36*
X0529028Y0365773D02*
X0528638Y0365696D01*
X0528307Y0365474D01*
X0528086Y0365144D01*
X0528008Y0364754D01*
X0528086Y0364363D01*
X0528307Y0364033D01*
X0528638Y0363811D01*
X0529028Y0363734D01*
X0529418Y0363811D01*
X0529749Y0364033D01*
X0529970Y0364363D01*
X0530047Y0364754D01*
X0529970Y0365144D01*
X0529749Y0365474D01*
X0529418Y0365696D01*
X0529028Y0365773D01*
D02*
G37*
G36*
X0450762Y0363993D02*
X0450372Y0363915D01*
X0450041Y0363694D01*
X0449820Y0363364D01*
X0449743Y0362973D01*
X0449820Y0362583D01*
X0450041Y0362252D01*
X0450372Y0362032D01*
X0450762Y0361954D01*
X0451152Y0362032D01*
X0451483Y0362252D01*
X0451704Y0362583D01*
X0451782Y0362973D01*
X0451704Y0363364D01*
X0451483Y0363694D01*
X0451152Y0363915D01*
X0450762Y0363993D01*
D02*
G37*
G36*
X0425400Y0367921D02*
X0425010Y0367843D01*
X0424679Y0367622D01*
X0424458Y0367291D01*
X0424381Y0366901D01*
X0424458Y0366511D01*
X0424679Y0366180D01*
X0425010Y0365959D01*
X0425304Y0365901D01*
X0425085Y0365857D01*
X0424754Y0365636D01*
X0424533Y0365305D01*
X0424456Y0364915D01*
X0424533Y0364525D01*
X0424754Y0364194D01*
X0425085Y0363973D01*
X0425323Y0363926D01*
X0425043Y0363870D01*
X0424712Y0363649D01*
X0424491Y0363318D01*
X0424413Y0362928D01*
X0424491Y0362538D01*
X0424712Y0362207D01*
X0425043Y0361986D01*
X0425433Y0361909D01*
X0425823Y0361986D01*
X0426154Y0362207D01*
X0426375Y0362538D01*
X0426453Y0362928D01*
X0426375Y0363318D01*
X0426154Y0363649D01*
X0425823Y0363870D01*
X0425586Y0363918D01*
X0425866Y0363973D01*
X0426196Y0364194D01*
X0426417Y0364525D01*
X0426495Y0364915D01*
X0426417Y0365305D01*
X0426196Y0365636D01*
X0425866Y0365857D01*
X0425572Y0365916D01*
X0425790Y0365959D01*
X0426121Y0366180D01*
X0426342Y0366511D01*
X0426420Y0366901D01*
X0426342Y0367291D01*
X0426121Y0367622D01*
X0425790Y0367843D01*
X0425400Y0367921D01*
D02*
G37*
G36*
X0470984Y0365487D02*
X0470594Y0365409D01*
X0470263Y0365189D01*
X0470042Y0364858D01*
X0469965Y0364468D01*
X0470042Y0364077D01*
X0470263Y0363747D01*
X0470594Y0363526D01*
X0470792Y0363486D01*
X0470666Y0363461D01*
X0470335Y0363240D01*
X0470114Y0362909D01*
X0470037Y0362519D01*
X0470114Y0362129D01*
X0470335Y0361798D01*
X0470666Y0361577D01*
X0471056Y0361499D01*
X0471446Y0361577D01*
X0471777Y0361798D01*
X0471998Y0362129D01*
X0472076Y0362519D01*
X0471998Y0362909D01*
X0471777Y0363240D01*
X0471446Y0363461D01*
X0471248Y0363500D01*
X0471375Y0363526D01*
X0471705Y0363747D01*
X0471926Y0364077D01*
X0472004Y0364468D01*
X0471926Y0364858D01*
X0471705Y0365189D01*
X0471375Y0365409D01*
X0470984Y0365487D01*
D02*
G37*
G36*
X0425458Y0361767D02*
X0425068Y0361689D01*
X0424737Y0361468D01*
X0424516Y0361138D01*
X0424438Y0360747D01*
X0424516Y0360357D01*
X0424737Y0360026D01*
X0425068Y0359805D01*
X0425458Y0359728D01*
X0425848Y0359805D01*
X0426179Y0360026D01*
X0426400Y0360357D01*
X0426477Y0360747D01*
X0426400Y0361138D01*
X0426179Y0361468D01*
X0425848Y0361689D01*
X0425458Y0361767D01*
D02*
G37*
G36*
X0473854Y0360843D02*
X0473464Y0360766D01*
X0473133Y0360545D01*
X0472912Y0360214D01*
X0472834Y0359824D01*
X0472912Y0359434D01*
X0473133Y0359103D01*
X0473464Y0358882D01*
X0473854Y0358804D01*
X0474244Y0358882D01*
X0474575Y0359103D01*
X0474796Y0359434D01*
X0474874Y0359824D01*
X0474796Y0360214D01*
X0474575Y0360545D01*
X0474244Y0360766D01*
X0473854Y0360843D01*
D02*
G37*
G36*
X0425521Y0359669D02*
X0425131Y0359592D01*
X0424800Y0359371D01*
X0424579Y0359040D01*
X0424501Y0358650D01*
X0424579Y0358260D01*
X0424800Y0357929D01*
X0425131Y0357708D01*
X0425521Y0357630D01*
X0425911Y0357708D01*
X0426242Y0357929D01*
X0426463Y0358260D01*
X0426540Y0358650D01*
X0426463Y0359040D01*
X0426242Y0359371D01*
X0425911Y0359592D01*
X0425521Y0359669D01*
D02*
G37*
G36*
X0414396Y0357122D02*
X0414006Y0357044D01*
X0413675Y0356823D01*
X0413454Y0356493D01*
X0413377Y0356102D01*
X0413454Y0355712D01*
X0413675Y0355381D01*
X0414006Y0355160D01*
X0414396Y0355083D01*
X0414786Y0355160D01*
X0415117Y0355381D01*
X0415338Y0355712D01*
X0415416Y0356102D01*
X0415338Y0356493D01*
X0415117Y0356823D01*
X0414786Y0357044D01*
X0414396Y0357122D01*
D02*
G37*
G36*
X0462061Y0356518D02*
X0461671Y0356441D01*
X0461340Y0356220D01*
X0461119Y0355889D01*
X0461041Y0355499D01*
X0461119Y0355109D01*
X0461340Y0354778D01*
X0461671Y0354557D01*
X0462061Y0354479D01*
X0462451Y0354557D01*
X0462782Y0354778D01*
X0463003Y0355109D01*
X0463080Y0355499D01*
X0463003Y0355889D01*
X0462782Y0356220D01*
X0462451Y0356441D01*
X0462061Y0356518D01*
D02*
G37*
G36*
X0432006Y0369862D02*
X0431616Y0369784D01*
X0431285Y0369564D01*
X0431064Y0369233D01*
X0430987Y0368843D01*
X0431064Y0368452D01*
X0431285Y0368122D01*
X0431616Y0367900D01*
X0431789Y0367866D01*
X0431665Y0367841D01*
X0431334Y0367620D01*
X0431113Y0367289D01*
X0431036Y0366899D01*
X0431113Y0366509D01*
X0431334Y0366178D01*
X0431665Y0365957D01*
X0431775Y0365936D01*
X0431636Y0365908D01*
X0431305Y0365687D01*
X0431084Y0365356D01*
X0431006Y0364966D01*
X0431084Y0364576D01*
X0431305Y0364245D01*
X0431636Y0364024D01*
X0431819Y0363987D01*
X0431655Y0363955D01*
X0431324Y0363734D01*
X0431103Y0363403D01*
X0431026Y0363013D01*
X0431103Y0362623D01*
X0431324Y0362292D01*
X0431655Y0362071D01*
X0431897Y0362023D01*
X0431645Y0361973D01*
X0431315Y0361752D01*
X0431094Y0361421D01*
X0431016Y0361031D01*
X0431094Y0360641D01*
X0431315Y0360310D01*
X0431645Y0360089D01*
X0431892Y0360040D01*
X0431645Y0359991D01*
X0431315Y0359770D01*
X0431094Y0359439D01*
X0431016Y0359049D01*
X0431094Y0358659D01*
X0431315Y0358328D01*
X0431645Y0358107D01*
X0431770Y0358082D01*
X0431597Y0358048D01*
X0431266Y0357826D01*
X0431045Y0357496D01*
X0430967Y0357106D01*
X0431045Y0356715D01*
X0431266Y0356385D01*
X0431597Y0356164D01*
X0431903Y0356103D01*
X0431616Y0356046D01*
X0431285Y0355825D01*
X0431064Y0355494D01*
X0430987Y0355104D01*
X0431064Y0354714D01*
X0431285Y0354383D01*
X0431616Y0354162D01*
X0432006Y0354084D01*
X0432397Y0354162D01*
X0432727Y0354383D01*
X0432948Y0354714D01*
X0433026Y0355104D01*
X0432948Y0355494D01*
X0432727Y0355825D01*
X0432397Y0356046D01*
X0432091Y0356107D01*
X0432377Y0356164D01*
X0432708Y0356385D01*
X0432929Y0356715D01*
X0433006Y0357106D01*
X0432929Y0357496D01*
X0432708Y0357826D01*
X0432377Y0358048D01*
X0432253Y0358072D01*
X0432426Y0358107D01*
X0432757Y0358328D01*
X0432978Y0358659D01*
X0433055Y0359049D01*
X0432978Y0359439D01*
X0432757Y0359770D01*
X0432426Y0359991D01*
X0432179Y0360040D01*
X0432426Y0360089D01*
X0432757Y0360310D01*
X0432978Y0360641D01*
X0433055Y0361031D01*
X0432978Y0361421D01*
X0432757Y0361752D01*
X0432426Y0361973D01*
X0432184Y0362021D01*
X0432436Y0362071D01*
X0432766Y0362292D01*
X0432987Y0362623D01*
X0433065Y0363013D01*
X0432987Y0363403D01*
X0432766Y0363734D01*
X0432436Y0363955D01*
X0432252Y0363991D01*
X0432416Y0364024D01*
X0432747Y0364245D01*
X0432968Y0364576D01*
X0433045Y0364966D01*
X0432968Y0365356D01*
X0432747Y0365687D01*
X0432416Y0365908D01*
X0432306Y0365930D01*
X0432445Y0365957D01*
X0432776Y0366178D01*
X0432997Y0366509D01*
X0433075Y0366899D01*
X0432997Y0367289D01*
X0432776Y0367620D01*
X0432445Y0367841D01*
X0432272Y0367876D01*
X0432397Y0367900D01*
X0432727Y0368122D01*
X0432948Y0368452D01*
X0433026Y0368843D01*
X0432948Y0369233D01*
X0432727Y0369564D01*
X0432397Y0369784D01*
X0432006Y0369862D01*
D02*
G37*
G36*
X0456167Y0356611D02*
X0455777Y0356533D01*
X0455446Y0356312D01*
X0455225Y0355982D01*
X0455147Y0355591D01*
X0455225Y0355201D01*
X0455446Y0354871D01*
X0455777Y0354649D01*
X0456167Y0354572D01*
X0456557Y0354649D01*
X0456806Y0354816D01*
X0456869Y0354499D01*
X0457090Y0354169D01*
X0457421Y0353947D01*
X0457811Y0353870D01*
X0458201Y0353947D01*
X0458532Y0354169D01*
X0458753Y0354499D01*
X0458830Y0354889D01*
X0458753Y0355280D01*
X0458532Y0355610D01*
X0458201Y0355832D01*
X0457811Y0355909D01*
X0457421Y0355832D01*
X0457172Y0355665D01*
X0457109Y0355982D01*
X0456888Y0356312D01*
X0456557Y0356533D01*
X0456167Y0356611D01*
D02*
G37*
G36*
X0425447Y0357578D02*
X0425056Y0357501D01*
X0424726Y0357280D01*
X0424505Y0356949D01*
X0424427Y0356559D01*
X0424505Y0356169D01*
X0424726Y0355838D01*
X0425052Y0355619D01*
X0425041Y0355617D01*
X0424711Y0355396D01*
X0424490Y0355065D01*
X0424412Y0354675D01*
X0424490Y0354285D01*
X0424711Y0353954D01*
X0425041Y0353733D01*
X0425432Y0353656D01*
X0425822Y0353733D01*
X0426153Y0353954D01*
X0426374Y0354285D01*
X0426451Y0354675D01*
X0426374Y0355065D01*
X0426153Y0355396D01*
X0425826Y0355614D01*
X0425837Y0355617D01*
X0426167Y0355838D01*
X0426389Y0356169D01*
X0426466Y0356559D01*
X0426389Y0356949D01*
X0426167Y0357280D01*
X0425837Y0357501D01*
X0425447Y0357578D01*
D02*
G37*
G36*
X0411503Y0354345D02*
X0411113Y0354268D01*
X0410782Y0354046D01*
X0410561Y0353716D01*
X0410483Y0353326D01*
X0410561Y0352935D01*
X0410782Y0352605D01*
X0411113Y0352383D01*
X0411503Y0352306D01*
X0411893Y0352383D01*
X0412224Y0352605D01*
X0412445Y0352935D01*
X0412523Y0353326D01*
X0412445Y0353716D01*
X0412224Y0354046D01*
X0411893Y0354268D01*
X0411503Y0354345D01*
D02*
G37*
G36*
X0427318Y0354258D02*
X0426928Y0354180D01*
X0426597Y0353959D01*
X0426376Y0353628D01*
X0426298Y0353238D01*
X0426376Y0352848D01*
X0426597Y0352517D01*
X0426928Y0352296D01*
X0427318Y0352219D01*
X0427708Y0352296D01*
X0428039Y0352517D01*
X0428260Y0352848D01*
X0428338Y0353238D01*
X0428260Y0353628D01*
X0428039Y0353959D01*
X0427708Y0354180D01*
X0427318Y0354258D01*
D02*
G37*
G36*
X0414183Y0353816D02*
X0413793Y0353739D01*
X0413462Y0353518D01*
X0413241Y0353187D01*
X0413163Y0352797D01*
X0413241Y0352407D01*
X0413462Y0352076D01*
X0413793Y0351855D01*
X0414183Y0351777D01*
X0414573Y0351855D01*
X0414904Y0352076D01*
X0415125Y0352407D01*
X0415203Y0352797D01*
X0415125Y0353187D01*
X0414904Y0353518D01*
X0414573Y0353739D01*
X0414183Y0353816D01*
D02*
G37*
G36*
X0450315Y0353090D02*
X0449925Y0353012D01*
X0449594Y0352792D01*
X0449373Y0352461D01*
X0449296Y0352070D01*
X0449373Y0351680D01*
X0449594Y0351350D01*
X0449925Y0351129D01*
X0450315Y0351051D01*
X0450705Y0351129D01*
X0451036Y0351350D01*
X0451257Y0351680D01*
X0451335Y0352070D01*
X0451257Y0352461D01*
X0451036Y0352792D01*
X0450705Y0353012D01*
X0450315Y0353090D01*
D02*
G37*
G36*
X0436577Y0351196D02*
X0436187Y0351118D01*
X0435856Y0350897D01*
X0435635Y0350566D01*
X0435557Y0350176D01*
X0435635Y0349786D01*
X0435856Y0349455D01*
X0436187Y0349234D01*
X0436577Y0349156D01*
X0436967Y0349234D01*
X0437298Y0349455D01*
X0437519Y0349786D01*
X0437596Y0350176D01*
X0437519Y0350566D01*
X0437298Y0350897D01*
X0436967Y0351118D01*
X0436577Y0351196D01*
D02*
G37*
G36*
X0411593Y0351186D02*
X0411203Y0351108D01*
X0410872Y0350887D01*
X0410651Y0350556D01*
X0410573Y0350166D01*
X0410651Y0349776D01*
X0410872Y0349445D01*
X0411203Y0349224D01*
X0411593Y0349146D01*
X0411983Y0349224D01*
X0412314Y0349445D01*
X0412535Y0349776D01*
X0412613Y0350166D01*
X0412535Y0350556D01*
X0412314Y0350887D01*
X0411983Y0351108D01*
X0411593Y0351186D01*
D02*
G37*
G36*
X0434283Y0350633D02*
X0433893Y0350556D01*
X0433562Y0350335D01*
X0433341Y0350004D01*
X0433263Y0349614D01*
X0433341Y0349223D01*
X0433562Y0348893D01*
X0433893Y0348672D01*
X0434283Y0348594D01*
X0434673Y0348672D01*
X0435004Y0348893D01*
X0435225Y0349223D01*
X0435302Y0349614D01*
X0435225Y0350004D01*
X0435004Y0350335D01*
X0434673Y0350556D01*
X0434283Y0350633D01*
D02*
G37*
G36*
X0514039Y0350357D02*
X0513649Y0350279D01*
X0513318Y0350058D01*
X0513097Y0349727D01*
X0513019Y0349337D01*
X0513097Y0348947D01*
X0513318Y0348616D01*
X0513649Y0348395D01*
X0514039Y0348318D01*
X0514429Y0348395D01*
X0514760Y0348616D01*
X0514981Y0348947D01*
X0515058Y0349337D01*
X0514981Y0349727D01*
X0514760Y0350058D01*
X0514429Y0350279D01*
X0514039Y0350357D01*
D02*
G37*
G36*
X0414470Y0350079D02*
X0414080Y0350002D01*
X0413750Y0349781D01*
X0413528Y0349450D01*
X0413451Y0349060D01*
X0413528Y0348670D01*
X0413750Y0348339D01*
X0414080Y0348118D01*
X0414470Y0348040D01*
X0414861Y0348118D01*
X0415191Y0348339D01*
X0415412Y0348670D01*
X0415490Y0349060D01*
X0415412Y0349450D01*
X0415191Y0349781D01*
X0414861Y0350002D01*
X0414470Y0350079D01*
D02*
G37*
G36*
X0473458Y0349798D02*
X0473068Y0349721D01*
X0472738Y0349500D01*
X0472516Y0349169D01*
X0472439Y0348779D01*
X0472516Y0348389D01*
X0472738Y0348058D01*
X0473068Y0347837D01*
X0473458Y0347759D01*
X0473849Y0347837D01*
X0474179Y0348058D01*
X0474400Y0348389D01*
X0474478Y0348779D01*
X0474400Y0349169D01*
X0474179Y0349500D01*
X0473849Y0349721D01*
X0473458Y0349798D01*
D02*
G37*
G36*
X0529088Y0349659D02*
X0528698Y0349582D01*
X0528367Y0349361D01*
X0528146Y0349030D01*
X0528068Y0348640D01*
X0528146Y0348249D01*
X0528367Y0347919D01*
X0528698Y0347698D01*
X0529088Y0347620D01*
X0529478Y0347698D01*
X0529809Y0347919D01*
X0530030Y0348249D01*
X0530108Y0348640D01*
X0530030Y0349030D01*
X0529809Y0349361D01*
X0529478Y0349582D01*
X0529088Y0349659D01*
D02*
G37*
G36*
X0459835Y0349333D02*
X0459445Y0349255D01*
X0459114Y0349035D01*
X0458893Y0348704D01*
X0458815Y0348314D01*
X0458893Y0347923D01*
X0459114Y0347593D01*
X0459445Y0347372D01*
X0459835Y0347294D01*
X0460225Y0347372D01*
X0460556Y0347593D01*
X0460777Y0347923D01*
X0460854Y0348314D01*
X0460777Y0348704D01*
X0460556Y0349035D01*
X0460225Y0349255D01*
X0459835Y0349333D01*
D02*
G37*
G36*
X0464221Y0348815D02*
X0463831Y0348737D01*
X0463500Y0348516D01*
X0463279Y0348185D01*
X0463201Y0347795D01*
X0463279Y0347405D01*
X0463500Y0347074D01*
X0463831Y0346853D01*
X0464221Y0346775D01*
X0464611Y0346853D01*
X0464942Y0347074D01*
X0465163Y0347405D01*
X0465240Y0347795D01*
X0465163Y0348185D01*
X0464942Y0348516D01*
X0464611Y0348737D01*
X0464221Y0348815D01*
D02*
G37*
G36*
X0411520Y0348276D02*
X0411130Y0348199D01*
X0410799Y0347978D01*
X0410578Y0347647D01*
X0410500Y0347257D01*
X0410578Y0346867D01*
X0410799Y0346536D01*
X0411130Y0346315D01*
X0411520Y0346237D01*
X0411910Y0346315D01*
X0412241Y0346536D01*
X0412462Y0346867D01*
X0412539Y0347257D01*
X0412462Y0347647D01*
X0412241Y0347978D01*
X0411910Y0348199D01*
X0411520Y0348276D01*
D02*
G37*
G36*
X0505449Y0346386D02*
X0505058Y0346309D01*
X0504728Y0346088D01*
X0504507Y0345757D01*
X0504429Y0345367D01*
X0504507Y0344977D01*
X0504728Y0344646D01*
X0505058Y0344425D01*
X0505449Y0344347D01*
X0505839Y0344425D01*
X0506170Y0344646D01*
X0506241Y0344753D01*
X0506375Y0344552D01*
X0506706Y0344332D01*
X0507096Y0344254D01*
X0507486Y0344332D01*
X0507817Y0344552D01*
X0508038Y0344883D01*
X0508116Y0345273D01*
X0508038Y0345664D01*
X0507817Y0345994D01*
X0507486Y0346215D01*
X0507096Y0346293D01*
X0506706Y0346215D01*
X0506375Y0345994D01*
X0506303Y0345887D01*
X0506170Y0346088D01*
X0505839Y0346309D01*
X0505449Y0346386D01*
D02*
G37*
G36*
X0473508Y0345579D02*
X0473118Y0345502D01*
X0472787Y0345281D01*
X0472566Y0344950D01*
X0472488Y0344560D01*
X0472566Y0344169D01*
X0472787Y0343839D01*
X0473118Y0343618D01*
X0473508Y0343540D01*
X0473898Y0343618D01*
X0474229Y0343839D01*
X0474450Y0344169D01*
X0474527Y0344560D01*
X0474450Y0344950D01*
X0474229Y0345281D01*
X0473898Y0345502D01*
X0473508Y0345579D01*
D02*
G37*
G36*
X0523793Y0344546D02*
X0523402Y0344468D01*
X0523072Y0344247D01*
X0522851Y0343917D01*
X0522773Y0343526D01*
X0522851Y0343136D01*
X0523072Y0342805D01*
X0523402Y0342584D01*
X0523793Y0342507D01*
X0524183Y0342584D01*
X0524513Y0342805D01*
X0524734Y0343136D01*
X0524812Y0343526D01*
X0524734Y0343917D01*
X0524513Y0344247D01*
X0524183Y0344468D01*
X0523793Y0344546D01*
D02*
G37*
G36*
X0487227Y0343814D02*
X0486836Y0343737D01*
X0486506Y0343516D01*
X0486285Y0343185D01*
X0486207Y0342795D01*
X0486285Y0342405D01*
X0486506Y0342074D01*
X0486836Y0341853D01*
X0487227Y0341775D01*
X0487617Y0341853D01*
X0487948Y0342074D01*
X0488169Y0342405D01*
X0488246Y0342795D01*
X0488169Y0343185D01*
X0487948Y0343516D01*
X0487617Y0343737D01*
X0487227Y0343814D01*
D02*
G37*
G36*
X0413515Y0343156D02*
X0413125Y0343078D01*
X0412794Y0342857D01*
X0412573Y0342526D01*
X0412496Y0342136D01*
X0412573Y0341746D01*
X0412794Y0341415D01*
X0413125Y0341194D01*
X0413515Y0341116D01*
X0413905Y0341194D01*
X0414236Y0341415D01*
X0414457Y0341746D01*
X0414535Y0342136D01*
X0414457Y0342526D01*
X0414236Y0342857D01*
X0413905Y0343078D01*
X0413515Y0343156D01*
D02*
G37*
G36*
X0475379Y0341832D02*
X0474988Y0341754D01*
X0474657Y0341533D01*
X0474437Y0341203D01*
X0474359Y0340812D01*
X0474437Y0340422D01*
X0474657Y0340091D01*
X0474988Y0339871D01*
X0475379Y0339793D01*
X0475769Y0339871D01*
X0476099Y0340091D01*
X0476321Y0340422D01*
X0476398Y0340812D01*
X0476321Y0341203D01*
X0476099Y0341533D01*
X0475769Y0341754D01*
X0475379Y0341832D01*
D02*
G37*
G36*
X0487257Y0340813D02*
X0486867Y0340735D01*
X0486536Y0340514D01*
X0486315Y0340183D01*
X0486237Y0339793D01*
X0486315Y0339403D01*
X0486536Y0339072D01*
X0486867Y0338851D01*
X0487257Y0338774D01*
X0487647Y0338851D01*
X0487978Y0339072D01*
X0488199Y0339403D01*
X0488276Y0339793D01*
X0488199Y0340183D01*
X0487978Y0340514D01*
X0487647Y0340735D01*
X0487257Y0340813D01*
D02*
G37*
G36*
X0529299Y0340491D02*
X0528909Y0340413D01*
X0528578Y0340193D01*
X0528357Y0339862D01*
X0528279Y0339472D01*
X0528357Y0339081D01*
X0528578Y0338751D01*
X0528909Y0338529D01*
X0529299Y0338452D01*
X0529689Y0338529D01*
X0530020Y0338751D01*
X0530241Y0339081D01*
X0530319Y0339472D01*
X0530241Y0339862D01*
X0530020Y0340193D01*
X0529689Y0340413D01*
X0529299Y0340491D01*
D02*
G37*
G36*
X0411482Y0339882D02*
X0411092Y0339805D01*
X0410761Y0339584D01*
X0410540Y0339253D01*
X0410462Y0338863D01*
X0410540Y0338473D01*
X0410761Y0338142D01*
X0411092Y0337921D01*
X0411482Y0337843D01*
X0411872Y0337921D01*
X0412203Y0338142D01*
X0412424Y0338473D01*
X0412502Y0338863D01*
X0412424Y0339253D01*
X0412203Y0339584D01*
X0411872Y0339805D01*
X0411482Y0339882D01*
D02*
G37*
G36*
X0414695Y0339838D02*
X0414305Y0339760D01*
X0413974Y0339539D01*
X0413753Y0339208D01*
X0413675Y0338818D01*
X0413753Y0338428D01*
X0413974Y0338097D01*
X0414305Y0337876D01*
X0414695Y0337799D01*
X0415085Y0337876D01*
X0415416Y0338097D01*
X0415637Y0338428D01*
X0415715Y0338818D01*
X0415637Y0339208D01*
X0415416Y0339539D01*
X0415085Y0339760D01*
X0414695Y0339838D01*
D02*
G37*
G36*
X0523460Y0338238D02*
X0523069Y0338160D01*
X0522739Y0337940D01*
X0522518Y0337609D01*
X0522440Y0337219D01*
X0522518Y0336828D01*
X0522739Y0336498D01*
X0523069Y0336277D01*
X0523460Y0336199D01*
X0523850Y0336277D01*
X0524181Y0336498D01*
X0524402Y0336828D01*
X0524479Y0337219D01*
X0524402Y0337609D01*
X0524181Y0337940D01*
X0523850Y0338160D01*
X0523460Y0338238D01*
D02*
G37*
G36*
X0411470Y0336719D02*
X0411080Y0336641D01*
X0410749Y0336420D01*
X0410528Y0336089D01*
X0410451Y0335699D01*
X0410528Y0335309D01*
X0410749Y0334978D01*
X0411080Y0334757D01*
X0411470Y0334679D01*
X0411860Y0334757D01*
X0412191Y0334978D01*
X0412412Y0335309D01*
X0412490Y0335699D01*
X0412412Y0336089D01*
X0412191Y0336420D01*
X0411860Y0336641D01*
X0411470Y0336719D01*
D02*
G37*
G36*
X0513204Y0334622D02*
X0513204Y0334622D01*
X0511054D01*
X0511054Y0334622D01*
X0510742Y0334560D01*
X0510477Y0334383D01*
X0510477Y0334383D01*
X0509503Y0333408D01*
X0509326Y0333144D01*
X0509264Y0332832D01*
X0509264Y0332831D01*
Y0325430D01*
X0505055Y0321221D01*
X0495232D01*
X0495232Y0321221D01*
X0494919Y0321159D01*
X0494655Y0320982D01*
X0493132Y0319459D01*
X0493132Y0319459D01*
X0492955Y0319194D01*
X0492893Y0318882D01*
X0492893Y0318882D01*
Y0315560D01*
X0492911Y0315470D01*
X0492914Y0315378D01*
X0492942Y0315315D01*
X0492955Y0315248D01*
X0493006Y0315171D01*
X0493044Y0315087D01*
X0494422Y0313149D01*
X0494472Y0313102D01*
X0494510Y0313045D01*
X0494587Y0312994D01*
X0494654Y0312930D01*
X0494718Y0312906D01*
X0494775Y0312868D01*
X0494865Y0312850D01*
X0494951Y0312817D01*
X0495020Y0312819D01*
X0495087Y0312806D01*
X0502512D01*
X0502512Y0312806D01*
X0502824Y0312868D01*
X0503089Y0313045D01*
X0503089Y0313045D01*
X0515169Y0325125D01*
X0515346Y0325389D01*
X0515408Y0325701D01*
X0515408Y0325702D01*
X0515408Y0332418D01*
X0515346Y0332730D01*
X0515275Y0332836D01*
X0515169Y0332995D01*
X0515169Y0332995D01*
X0513781Y0334383D01*
X0513781Y0334383D01*
X0513622Y0334489D01*
X0513516Y0334560D01*
X0513204Y0334622D01*
D02*
G37*
G36*
X0414725Y0336425D02*
X0414335Y0336348D01*
X0414004Y0336127D01*
X0413783Y0335796D01*
X0413706Y0335406D01*
X0413783Y0335016D01*
X0414004Y0334685D01*
X0414335Y0334464D01*
X0414725Y0334386D01*
X0415115Y0334464D01*
X0415446Y0334685D01*
X0415667Y0335016D01*
X0415745Y0335406D01*
X0415667Y0335796D01*
X0415446Y0336127D01*
X0415115Y0336348D01*
X0414725Y0336425D01*
D02*
G37*
G36*
X0528255Y0335982D02*
X0527865Y0335905D01*
X0527534Y0335684D01*
X0527313Y0335353D01*
X0527235Y0334963D01*
X0527313Y0334573D01*
X0527534Y0334242D01*
X0527865Y0334021D01*
X0528255Y0333943D01*
X0528645Y0334021D01*
X0528976Y0334242D01*
X0529197Y0334573D01*
X0529274Y0334963D01*
X0529197Y0335353D01*
X0528976Y0335684D01*
X0528645Y0335905D01*
X0528255Y0335982D01*
D02*
G37*
G36*
X0481835Y0334772D02*
X0481445Y0334695D01*
X0481114Y0334473D01*
X0480893Y0334143D01*
X0480815Y0333752D01*
X0480893Y0333362D01*
X0481114Y0333032D01*
X0481445Y0332811D01*
X0481835Y0332733D01*
X0482225Y0332811D01*
X0482556Y0333032D01*
X0482777Y0333362D01*
X0482855Y0333752D01*
X0482777Y0334143D01*
X0482556Y0334473D01*
X0482225Y0334695D01*
X0481835Y0334772D01*
D02*
G37*
G36*
X0467134Y0333941D02*
X0466744Y0333863D01*
X0466413Y0333642D01*
X0466192Y0333311D01*
X0466115Y0332921D01*
X0466192Y0332531D01*
X0466413Y0332200D01*
X0466744Y0331979D01*
X0467134Y0331902D01*
X0467524Y0331979D01*
X0467855Y0332200D01*
X0468076Y0332531D01*
X0468154Y0332921D01*
X0468076Y0333311D01*
X0467855Y0333642D01*
X0467524Y0333863D01*
X0467134Y0333941D01*
D02*
G37*
G36*
X0414629Y0333438D02*
X0414239Y0333360D01*
X0413908Y0333139D01*
X0413687Y0332808D01*
X0413609Y0332418D01*
X0413687Y0332028D01*
X0413908Y0331697D01*
X0414239Y0331476D01*
X0414629Y0331399D01*
X0415019Y0331476D01*
X0415350Y0331697D01*
X0415571Y0332028D01*
X0415648Y0332418D01*
X0415571Y0332808D01*
X0415350Y0333139D01*
X0415019Y0333360D01*
X0414629Y0333438D01*
D02*
G37*
G36*
X0411495D02*
X0411105Y0333360D01*
X0410774Y0333139D01*
X0410553Y0332808D01*
X0410475Y0332418D01*
X0410553Y0332028D01*
X0410774Y0331697D01*
X0411105Y0331476D01*
X0411495Y0331399D01*
X0411885Y0331476D01*
X0412216Y0331697D01*
X0412437Y0332028D01*
X0412515Y0332418D01*
X0412437Y0332808D01*
X0412216Y0333139D01*
X0411885Y0333360D01*
X0411495Y0333438D01*
D02*
G37*
G36*
X0426271Y0333335D02*
X0425881Y0333258D01*
X0425551Y0333037D01*
X0425329Y0332706D01*
X0425252Y0332316D01*
X0425329Y0331926D01*
X0425551Y0331595D01*
X0425881Y0331374D01*
X0426271Y0331296D01*
X0426662Y0331374D01*
X0426992Y0331595D01*
X0427213Y0331926D01*
X0427291Y0332316D01*
X0427213Y0332706D01*
X0426992Y0333037D01*
X0426662Y0333258D01*
X0426271Y0333335D01*
D02*
G37*
G36*
X0456780Y0330668D02*
X0456390Y0330591D01*
X0456059Y0330370D01*
X0455838Y0330039D01*
X0455760Y0329649D01*
X0455838Y0329259D01*
X0456059Y0328928D01*
X0456390Y0328707D01*
X0456780Y0328629D01*
X0457170Y0328707D01*
X0457501Y0328928D01*
X0457722Y0329259D01*
X0457799Y0329649D01*
X0457722Y0330039D01*
X0457501Y0330370D01*
X0457170Y0330591D01*
X0456780Y0330668D01*
D02*
G37*
G36*
X0426704Y0330586D02*
X0426314Y0330508D01*
X0425983Y0330287D01*
X0425762Y0329956D01*
X0425684Y0329566D01*
X0425762Y0329176D01*
X0425983Y0328845D01*
X0426314Y0328624D01*
X0426704Y0328546D01*
X0427094Y0328624D01*
X0427425Y0328845D01*
X0427646Y0329176D01*
X0427723Y0329566D01*
X0427646Y0329956D01*
X0427425Y0330287D01*
X0427094Y0330508D01*
X0426704Y0330586D01*
D02*
G37*
G36*
X0463291Y0330481D02*
X0462901Y0330403D01*
X0462570Y0330182D01*
X0462349Y0329851D01*
X0462271Y0329461D01*
X0462349Y0329071D01*
X0462570Y0328740D01*
X0462901Y0328519D01*
X0463291Y0328442D01*
X0463681Y0328519D01*
X0464012Y0328740D01*
X0464233Y0329071D01*
X0464311Y0329461D01*
X0464233Y0329851D01*
X0464012Y0330182D01*
X0463681Y0330403D01*
X0463291Y0330481D01*
D02*
G37*
G36*
X0529578Y0330408D02*
X0529188Y0330331D01*
X0528857Y0330110D01*
X0528636Y0329779D01*
X0528559Y0329389D01*
X0528636Y0328998D01*
X0528857Y0328668D01*
X0529188Y0328447D01*
X0529578Y0328369D01*
X0529969Y0328447D01*
X0530299Y0328668D01*
X0530520Y0328998D01*
X0530598Y0329389D01*
X0530520Y0329779D01*
X0530299Y0330110D01*
X0529969Y0330331D01*
X0529578Y0330408D01*
D02*
G37*
G36*
X0469363Y0330349D02*
X0468973Y0330271D01*
X0468642Y0330050D01*
X0468421Y0329719D01*
X0468343Y0329329D01*
X0468421Y0328939D01*
X0468642Y0328608D01*
X0468973Y0328387D01*
X0469363Y0328309D01*
X0469753Y0328387D01*
X0470084Y0328608D01*
X0470305Y0328939D01*
X0470382Y0329329D01*
X0470305Y0329719D01*
X0470084Y0330050D01*
X0469753Y0330271D01*
X0469363Y0330349D01*
D02*
G37*
G36*
X0440942Y0332153D02*
X0440552Y0332075D01*
X0440221Y0331854D01*
X0440000Y0331524D01*
X0439922Y0331134D01*
X0440000Y0330743D01*
X0440221Y0330413D01*
X0440552Y0330191D01*
X0440649Y0330172D01*
X0440426Y0330128D01*
X0440095Y0329907D01*
X0439874Y0329576D01*
X0439796Y0329186D01*
X0439874Y0328796D01*
X0440095Y0328465D01*
X0440426Y0328244D01*
X0440816Y0328166D01*
X0441206Y0328244D01*
X0441537Y0328465D01*
X0441758Y0328796D01*
X0441835Y0329186D01*
X0441758Y0329576D01*
X0441537Y0329907D01*
X0441206Y0330128D01*
X0441108Y0330147D01*
X0441332Y0330191D01*
X0441663Y0330413D01*
X0441884Y0330743D01*
X0441961Y0331134D01*
X0441884Y0331524D01*
X0441663Y0331854D01*
X0441332Y0332075D01*
X0440942Y0332153D01*
D02*
G37*
G36*
X0447683Y0333420D02*
X0446991Y0333329D01*
X0446346Y0333062D01*
X0445792Y0332637D01*
X0445368Y0332084D01*
X0445101Y0331439D01*
X0445010Y0330747D01*
X0445101Y0330055D01*
X0445368Y0329411D01*
X0445792Y0328857D01*
X0446346Y0328432D01*
X0446991Y0328165D01*
X0447683Y0328074D01*
X0448374Y0328165D01*
X0449019Y0328432D01*
X0449573Y0328857D01*
X0449997Y0329411D01*
X0450264Y0330055D01*
X0450355Y0330747D01*
X0450264Y0331439D01*
X0449997Y0332084D01*
X0449573Y0332637D01*
X0449019Y0333062D01*
X0448374Y0333329D01*
X0447683Y0333420D01*
D02*
G37*
G36*
X0476836Y0329723D02*
X0476446Y0329645D01*
X0476115Y0329424D01*
X0475894Y0329093D01*
X0475816Y0328703D01*
X0475894Y0328313D01*
X0476115Y0327982D01*
X0476446Y0327761D01*
X0476836Y0327684D01*
X0477226Y0327761D01*
X0477557Y0327982D01*
X0477778Y0328313D01*
X0477855Y0328703D01*
X0477778Y0329093D01*
X0477557Y0329424D01*
X0477226Y0329645D01*
X0476836Y0329723D01*
D02*
G37*
G36*
X0440801Y0328102D02*
X0440411Y0328024D01*
X0440080Y0327803D01*
X0439859Y0327472D01*
X0439781Y0327082D01*
X0439859Y0326692D01*
X0440080Y0326361D01*
X0440411Y0326140D01*
X0440801Y0326063D01*
X0441191Y0326140D01*
X0441522Y0326361D01*
X0441743Y0326692D01*
X0441820Y0327082D01*
X0441743Y0327472D01*
X0441522Y0327803D01*
X0441191Y0328024D01*
X0440801Y0328102D01*
D02*
G37*
G36*
X0460782Y0327732D02*
X0460431Y0327663D01*
X0460133Y0327464D01*
X0459934Y0327166D01*
X0459864Y0326815D01*
X0459934Y0326464D01*
X0460133Y0326166D01*
X0460431Y0325967D01*
X0460782Y0325897D01*
X0461133Y0325967D01*
X0461431Y0326166D01*
X0461629Y0326464D01*
X0461699Y0326815D01*
X0461629Y0327166D01*
X0461431Y0327464D01*
X0461133Y0327663D01*
X0460782Y0327732D01*
D02*
G37*
G36*
X0426584Y0327859D02*
X0426194Y0327782D01*
X0425863Y0327561D01*
X0425642Y0327230D01*
X0425564Y0326840D01*
X0425642Y0326450D01*
X0425863Y0326119D01*
X0426194Y0325898D01*
X0426584Y0325820D01*
X0426974Y0325898D01*
X0427305Y0326119D01*
X0427526Y0326450D01*
X0427603Y0326840D01*
X0427526Y0327230D01*
X0427305Y0327561D01*
X0426974Y0327782D01*
X0426584Y0327859D01*
D02*
G37*
G36*
X0458967Y0327564D02*
X0458615Y0327494D01*
X0458318Y0327295D01*
X0458119Y0326998D01*
X0458049Y0326646D01*
X0458119Y0326295D01*
X0458318Y0325998D01*
X0458615Y0325799D01*
X0458967Y0325729D01*
X0459318Y0325799D01*
X0459616Y0325998D01*
X0459815Y0326295D01*
X0459884Y0326646D01*
X0459815Y0326998D01*
X0459616Y0327295D01*
X0459318Y0327494D01*
X0458967Y0327564D01*
D02*
G37*
G36*
X0466904Y0327544D02*
X0466553Y0327474D01*
X0466255Y0327275D01*
X0466056Y0326977D01*
X0465986Y0326626D01*
X0466056Y0326275D01*
X0466255Y0325977D01*
X0466553Y0325778D01*
X0466904Y0325708D01*
X0467255Y0325778D01*
X0467553Y0325977D01*
X0467752Y0326275D01*
X0467822Y0326626D01*
X0467752Y0326977D01*
X0467553Y0327275D01*
X0467255Y0327474D01*
X0466904Y0327544D01*
D02*
G37*
G36*
X0464490Y0326009D02*
X0464139Y0325939D01*
X0463841Y0325741D01*
X0463642Y0325443D01*
X0463611Y0325288D01*
X0463318Y0325483D01*
X0462967Y0325553D01*
X0462615Y0325483D01*
X0462318Y0325285D01*
X0462119Y0324987D01*
X0462049Y0324636D01*
X0462119Y0324285D01*
X0462318Y0323987D01*
X0462615Y0323788D01*
X0462967Y0323718D01*
X0463318Y0323788D01*
X0463616Y0323987D01*
X0463814Y0324285D01*
X0463845Y0324440D01*
X0464139Y0324244D01*
X0464490Y0324174D01*
X0464841Y0324244D01*
X0465139Y0324443D01*
X0465338Y0324741D01*
X0465407Y0325092D01*
X0465338Y0325443D01*
X0465139Y0325741D01*
X0464841Y0325939D01*
X0464490Y0326009D01*
D02*
G37*
G36*
X0460600Y0325870D02*
X0460249Y0325800D01*
X0459951Y0325602D01*
X0459752Y0325304D01*
X0459728Y0325185D01*
X0459583Y0325402D01*
X0459285Y0325601D01*
X0458934Y0325671D01*
X0458583Y0325601D01*
X0458286Y0325402D01*
X0458087Y0325104D01*
X0458017Y0324753D01*
X0458087Y0324402D01*
X0458286Y0324104D01*
X0458583Y0323905D01*
X0458934Y0323835D01*
X0459285Y0323905D01*
X0459583Y0324104D01*
X0459782Y0324402D01*
X0459806Y0324521D01*
X0459951Y0324304D01*
X0460249Y0324105D01*
X0460600Y0324035D01*
X0460951Y0324105D01*
X0461249Y0324304D01*
X0461448Y0324602D01*
X0461517Y0324953D01*
X0461448Y0325304D01*
X0461249Y0325602D01*
X0460951Y0325800D01*
X0460600Y0325870D01*
D02*
G37*
G36*
X0440666Y0325997D02*
X0440276Y0325919D01*
X0439945Y0325698D01*
X0439724Y0325367D01*
X0439646Y0324977D01*
X0439724Y0324587D01*
X0439945Y0324256D01*
X0440276Y0324035D01*
X0440666Y0323958D01*
X0441056Y0324035D01*
X0441387Y0324256D01*
X0441608Y0324587D01*
X0441686Y0324977D01*
X0441608Y0325367D01*
X0441387Y0325698D01*
X0441056Y0325919D01*
X0440666Y0325997D01*
D02*
G37*
G36*
X0456267Y0325702D02*
X0455916Y0325632D01*
X0455619Y0325433D01*
X0455420Y0325135D01*
X0455350Y0324784D01*
X0455420Y0324433D01*
X0455619Y0324135D01*
X0455916Y0323936D01*
X0456267Y0323866D01*
X0456619Y0323936D01*
X0456916Y0324135D01*
X0457115Y0324433D01*
X0457185Y0324784D01*
X0457115Y0325135D01*
X0456916Y0325433D01*
X0456619Y0325632D01*
X0456267Y0325702D01*
D02*
G37*
G36*
X0470524Y0325682D02*
X0470172Y0325612D01*
X0469875Y0325413D01*
X0469676Y0325115D01*
X0469606Y0324764D01*
X0469676Y0324413D01*
X0469875Y0324115D01*
X0470172Y0323916D01*
X0470524Y0323847D01*
X0470875Y0323916D01*
X0471172Y0324115D01*
X0471371Y0324413D01*
X0471441Y0324764D01*
X0471371Y0325115D01*
X0471172Y0325413D01*
X0470875Y0325612D01*
X0470524Y0325682D01*
D02*
G37*
G36*
X0468506Y0325653D02*
X0468155Y0325583D01*
X0467857Y0325384D01*
X0467658Y0325086D01*
X0467589Y0324735D01*
X0467658Y0324384D01*
X0467857Y0324086D01*
X0468155Y0323887D01*
X0468506Y0323818D01*
X0468857Y0323887D01*
X0469155Y0324086D01*
X0469354Y0324384D01*
X0469424Y0324735D01*
X0469354Y0325086D01*
X0469155Y0325384D01*
X0468857Y0325583D01*
X0468506Y0325653D01*
D02*
G37*
G36*
X0528824Y0325179D02*
X0528434Y0325102D01*
X0528103Y0324881D01*
X0527882Y0324550D01*
X0527804Y0324160D01*
X0527882Y0323770D01*
X0528103Y0323439D01*
X0528434Y0323218D01*
X0528824Y0323140D01*
X0529214Y0323218D01*
X0529545Y0323439D01*
X0529766Y0323770D01*
X0529844Y0324160D01*
X0529766Y0324550D01*
X0529545Y0324881D01*
X0529214Y0325102D01*
X0528824Y0325179D01*
D02*
G37*
G36*
X0427821Y0325133D02*
X0427430Y0325056D01*
X0427100Y0324835D01*
X0426879Y0324504D01*
X0426801Y0324114D01*
X0426879Y0323724D01*
X0427100Y0323393D01*
X0427430Y0323172D01*
X0427821Y0323094D01*
X0428211Y0323172D01*
X0428542Y0323393D01*
X0428762Y0323724D01*
X0428840Y0324114D01*
X0428762Y0324504D01*
X0428542Y0324835D01*
X0428211Y0325056D01*
X0427821Y0325133D01*
D02*
G37*
G36*
X0476161Y0324749D02*
X0475810Y0324680D01*
X0475512Y0324481D01*
X0475313Y0324183D01*
X0475243Y0323832D01*
X0475313Y0323481D01*
X0475512Y0323183D01*
X0475810Y0322984D01*
X0476161Y0322914D01*
X0476512Y0322984D01*
X0476810Y0323183D01*
X0477009Y0323481D01*
X0477079Y0323832D01*
X0477009Y0324183D01*
X0476810Y0324481D01*
X0476512Y0324680D01*
X0476161Y0324749D01*
D02*
G37*
G36*
X0460839Y0323776D02*
X0460488Y0323706D01*
X0460190Y0323507D01*
X0459991Y0323209D01*
X0459926Y0322881D01*
X0459897Y0323023D01*
X0459698Y0323321D01*
X0459401Y0323520D01*
X0459050Y0323590D01*
X0458699Y0323520D01*
X0458401Y0323321D01*
X0458202Y0323023D01*
X0458132Y0322672D01*
X0458202Y0322321D01*
X0458401Y0322023D01*
X0458699Y0321824D01*
X0459050Y0321754D01*
X0459401Y0321824D01*
X0459698Y0322023D01*
X0459897Y0322321D01*
X0459963Y0322649D01*
X0459991Y0322507D01*
X0460190Y0322209D01*
X0460488Y0322010D01*
X0460839Y0321940D01*
X0461190Y0322010D01*
X0461488Y0322209D01*
X0461687Y0322507D01*
X0461756Y0322858D01*
X0461687Y0323209D01*
X0461488Y0323507D01*
X0461190Y0323706D01*
X0460839Y0323776D01*
D02*
G37*
G36*
X0519719Y0324766D02*
X0519329Y0324688D01*
X0518998Y0324467D01*
X0518777Y0324137D01*
X0518699Y0323746D01*
X0518777Y0323356D01*
X0518998Y0323025D01*
X0519329Y0322804D01*
X0519719Y0322727D01*
X0520109Y0322804D01*
X0520440Y0323025D01*
X0520661Y0323356D01*
X0520739Y0323746D01*
X0520661Y0324137D01*
X0520440Y0324467D01*
X0520109Y0324688D01*
X0519719Y0324766D01*
D02*
G37*
G36*
X0486637Y0326958D02*
X0485945Y0326867D01*
X0485300Y0326600D01*
X0484747Y0326175D01*
X0484322Y0325622D01*
X0484055Y0324977D01*
X0483964Y0324285D01*
X0484055Y0323593D01*
X0484322Y0322949D01*
X0484747Y0322395D01*
X0485300Y0321971D01*
X0485945Y0321704D01*
X0486637Y0321612D01*
X0487329Y0321704D01*
X0487973Y0321971D01*
X0488527Y0322395D01*
X0488685Y0322601D01*
X0489009Y0322384D01*
X0489399Y0322307D01*
X0489790Y0322384D01*
X0490120Y0322605D01*
X0490341Y0322936D01*
X0490419Y0323326D01*
X0490341Y0323716D01*
X0490120Y0324047D01*
X0489790Y0324268D01*
X0489399Y0324346D01*
X0489304Y0324327D01*
X0489219Y0324977D01*
X0488952Y0325622D01*
X0488527Y0326175D01*
X0487973Y0326600D01*
X0487329Y0326867D01*
X0486637Y0326958D01*
D02*
G37*
G36*
X0464840Y0324025D02*
X0464489Y0323955D01*
X0464191Y0323757D01*
X0463992Y0323459D01*
X0463923Y0323108D01*
X0463992Y0322756D01*
X0464191Y0322459D01*
X0464489Y0322260D01*
X0464840Y0322190D01*
X0465191Y0322260D01*
X0465489Y0322459D01*
X0465688Y0322756D01*
X0465758Y0323108D01*
X0465688Y0323459D01*
X0465489Y0323757D01*
X0465191Y0323955D01*
X0464840Y0324025D01*
D02*
G37*
G36*
X0426151Y0323980D02*
X0425761Y0323903D01*
X0425430Y0323682D01*
X0425209Y0323351D01*
X0425132Y0322961D01*
X0425209Y0322571D01*
X0425430Y0322240D01*
X0425761Y0322019D01*
X0426151Y0321941D01*
X0426542Y0322019D01*
X0426872Y0322240D01*
X0427093Y0322571D01*
X0427171Y0322961D01*
X0427093Y0323351D01*
X0426872Y0323682D01*
X0426542Y0323903D01*
X0426151Y0323980D01*
D02*
G37*
G36*
X0411432Y0323885D02*
X0411042Y0323808D01*
X0410711Y0323587D01*
X0410490Y0323256D01*
X0410413Y0322866D01*
X0410490Y0322476D01*
X0410711Y0322145D01*
X0411042Y0321924D01*
X0411432Y0321846D01*
X0411822Y0321924D01*
X0412153Y0322145D01*
X0412374Y0322476D01*
X0412452Y0322866D01*
X0412374Y0323256D01*
X0412153Y0323587D01*
X0411822Y0323808D01*
X0411432Y0323885D01*
D02*
G37*
G36*
X0472608Y0323417D02*
X0472257Y0323347D01*
X0471959Y0323148D01*
X0471760Y0322851D01*
X0471690Y0322500D01*
X0471760Y0322148D01*
X0471959Y0321851D01*
X0472257Y0321652D01*
X0472608Y0321582D01*
X0472959Y0321652D01*
X0473257Y0321851D01*
X0473456Y0322148D01*
X0473526Y0322500D01*
X0473456Y0322851D01*
X0473257Y0323148D01*
X0472959Y0323347D01*
X0472608Y0323417D01*
D02*
G37*
G36*
X0470357Y0322041D02*
X0470006Y0321971D01*
X0469709Y0321772D01*
X0469510Y0321474D01*
X0469440Y0321123D01*
X0469510Y0320772D01*
X0469709Y0320474D01*
X0470006Y0320275D01*
X0470357Y0320205D01*
X0470709Y0320275D01*
X0471006Y0320474D01*
X0471205Y0320772D01*
X0471275Y0321123D01*
X0471205Y0321474D01*
X0471006Y0321772D01*
X0470709Y0321971D01*
X0470357Y0322041D01*
D02*
G37*
G36*
X0468438Y0322021D02*
X0468087Y0321951D01*
X0467790Y0321752D01*
X0467591Y0321455D01*
X0467521Y0321104D01*
X0467591Y0320752D01*
X0467790Y0320455D01*
X0468087Y0320256D01*
X0468438Y0320186D01*
X0468789Y0320256D01*
X0469087Y0320455D01*
X0469286Y0320752D01*
X0469356Y0321104D01*
X0469286Y0321455D01*
X0469087Y0321752D01*
X0468789Y0321951D01*
X0468438Y0322021D01*
D02*
G37*
G36*
X0476365Y0321966D02*
X0476014Y0321896D01*
X0475716Y0321697D01*
X0475517Y0321400D01*
X0475447Y0321049D01*
X0475517Y0320697D01*
X0475716Y0320400D01*
X0476014Y0320201D01*
X0476365Y0320131D01*
X0476716Y0320201D01*
X0477014Y0320400D01*
X0477213Y0320697D01*
X0477283Y0321049D01*
X0477213Y0321400D01*
X0477014Y0321697D01*
X0476716Y0321896D01*
X0476365Y0321966D01*
D02*
G37*
G36*
X0466386Y0321643D02*
X0466034Y0321573D01*
X0465737Y0321374D01*
X0465538Y0321077D01*
X0465468Y0320725D01*
X0465538Y0320374D01*
X0465737Y0320077D01*
X0466034Y0319878D01*
X0466386Y0319808D01*
X0466737Y0319878D01*
X0467034Y0320077D01*
X0467233Y0320374D01*
X0467303Y0320725D01*
X0467233Y0321077D01*
X0467034Y0321374D01*
X0466737Y0321573D01*
X0466386Y0321643D01*
D02*
G37*
G36*
X0458975Y0321631D02*
X0458623Y0321561D01*
X0458326Y0321362D01*
X0458127Y0321065D01*
X0458057Y0320714D01*
X0458127Y0320362D01*
X0458326Y0320065D01*
X0458623Y0319866D01*
X0458975Y0319796D01*
X0459326Y0319866D01*
X0459623Y0320065D01*
X0459822Y0320362D01*
X0459892Y0320714D01*
X0459822Y0321065D01*
X0459623Y0321362D01*
X0459326Y0321561D01*
X0458975Y0321631D01*
D02*
G37*
G36*
X0426354Y0321425D02*
X0425964Y0321347D01*
X0425633Y0321126D01*
X0425412Y0320795D01*
X0425335Y0320405D01*
X0425412Y0320015D01*
X0425633Y0319684D01*
X0425964Y0319463D01*
X0426354Y0319385D01*
X0426745Y0319463D01*
X0427075Y0319684D01*
X0427296Y0320015D01*
X0427374Y0320405D01*
X0427296Y0320795D01*
X0427075Y0321126D01*
X0426745Y0321347D01*
X0426354Y0321425D01*
D02*
G37*
G36*
X0468457Y0320126D02*
X0468106Y0320056D01*
X0467808Y0319857D01*
X0467609Y0319560D01*
X0467564Y0319336D01*
X0467427Y0319542D01*
X0467129Y0319741D01*
X0466778Y0319810D01*
X0466427Y0319741D01*
X0466129Y0319542D01*
X0465930Y0319244D01*
X0465912Y0319151D01*
X0465899Y0319217D01*
X0465700Y0319514D01*
X0465402Y0319713D01*
X0465051Y0319783D01*
X0464700Y0319713D01*
X0464402Y0319514D01*
X0464203Y0319217D01*
X0464133Y0318865D01*
X0464203Y0318514D01*
X0464402Y0318217D01*
X0464700Y0318018D01*
X0465051Y0317948D01*
X0465402Y0318018D01*
X0465700Y0318217D01*
X0465899Y0318514D01*
X0465917Y0318607D01*
X0465930Y0318542D01*
X0466129Y0318244D01*
X0466427Y0318045D01*
X0466778Y0317975D01*
X0467129Y0318045D01*
X0467427Y0318244D01*
X0467626Y0318542D01*
X0467670Y0318765D01*
X0467808Y0318560D01*
X0468106Y0318361D01*
X0468457Y0318291D01*
X0468808Y0318361D01*
X0469105Y0318560D01*
X0469305Y0318857D01*
X0469374Y0319208D01*
X0469305Y0319560D01*
X0469105Y0319857D01*
X0468808Y0320056D01*
X0468457Y0320126D01*
D02*
G37*
G36*
X0483365Y0321302D02*
X0482975Y0321224D01*
X0482644Y0321003D01*
X0482423Y0320673D01*
X0482345Y0320282D01*
X0482423Y0319892D01*
X0482644Y0319561D01*
X0482975Y0319340D01*
X0483365Y0319263D01*
X0483755Y0319340D01*
X0484086Y0319561D01*
X0484307Y0319892D01*
X0484384Y0320282D01*
X0484307Y0320673D01*
X0484086Y0321003D01*
X0483755Y0321224D01*
X0483365Y0321302D01*
D02*
G37*
G36*
X0456521Y0322623D02*
X0456169Y0322553D01*
X0455872Y0322354D01*
X0455673Y0322057D01*
X0455603Y0321706D01*
X0455673Y0321354D01*
X0455872Y0321057D01*
X0456008Y0320966D01*
X0455774Y0320810D01*
X0455575Y0320512D01*
X0455506Y0320161D01*
X0455575Y0319810D01*
X0455774Y0319512D01*
X0456072Y0319313D01*
X0456423Y0319243D01*
X0456774Y0319313D01*
X0457072Y0319512D01*
X0457271Y0319810D01*
X0457341Y0320161D01*
X0457271Y0320512D01*
X0457072Y0320810D01*
X0456936Y0320901D01*
X0457169Y0321057D01*
X0457368Y0321354D01*
X0457438Y0321706D01*
X0457368Y0322057D01*
X0457169Y0322354D01*
X0456872Y0322553D01*
X0456521Y0322623D01*
D02*
G37*
G36*
X0472903Y0320940D02*
X0472552Y0320871D01*
X0472254Y0320672D01*
X0472055Y0320374D01*
X0471986Y0320023D01*
X0472055Y0319672D01*
X0472254Y0319374D01*
X0472552Y0319175D01*
X0472903Y0319105D01*
X0473254Y0319175D01*
X0473552Y0319374D01*
X0473751Y0319672D01*
X0473821Y0320023D01*
X0473751Y0320374D01*
X0473552Y0320672D01*
X0473254Y0320871D01*
X0472903Y0320940D01*
D02*
G37*
G36*
X0414560Y0320781D02*
X0414169Y0320703D01*
X0413839Y0320482D01*
X0413618Y0320151D01*
X0413540Y0319761D01*
X0413618Y0319371D01*
X0413839Y0319040D01*
X0414169Y0318819D01*
X0414560Y0318741D01*
X0414950Y0318819D01*
X0415280Y0319040D01*
X0415502Y0319371D01*
X0415579Y0319761D01*
X0415502Y0320151D01*
X0415280Y0320482D01*
X0414950Y0320703D01*
X0414560Y0320781D01*
D02*
G37*
G36*
X0411432Y0320744D02*
X0411042Y0320666D01*
X0410711Y0320445D01*
X0410490Y0320114D01*
X0410413Y0319724D01*
X0410490Y0319334D01*
X0410711Y0319003D01*
X0411042Y0318782D01*
X0411432Y0318704D01*
X0411822Y0318782D01*
X0412153Y0319003D01*
X0412374Y0319334D01*
X0412452Y0319724D01*
X0412374Y0320114D01*
X0412153Y0320445D01*
X0411822Y0320666D01*
X0411432Y0320744D01*
D02*
G37*
G36*
X0470499Y0320117D02*
X0470148Y0320048D01*
X0469850Y0319849D01*
X0469651Y0319551D01*
X0469582Y0319200D01*
X0469651Y0318849D01*
X0469850Y0318551D01*
X0470148Y0318352D01*
X0470499Y0318282D01*
X0470850Y0318352D01*
X0471148Y0318551D01*
X0471347Y0318849D01*
X0471417Y0319200D01*
X0471347Y0319551D01*
X0471148Y0319849D01*
X0470850Y0320048D01*
X0470499Y0320117D01*
D02*
G37*
G36*
X0458845Y0319810D02*
X0458494Y0319740D01*
X0458196Y0319541D01*
X0457997Y0319243D01*
X0457927Y0318892D01*
X0457997Y0318541D01*
X0458196Y0318243D01*
X0458494Y0318044D01*
X0458845Y0317974D01*
X0459196Y0318044D01*
X0459494Y0318243D01*
X0459693Y0318541D01*
X0459762Y0318892D01*
X0459693Y0319243D01*
X0459494Y0319541D01*
X0459196Y0319740D01*
X0458845Y0319810D01*
D02*
G37*
G36*
X0427249Y0319602D02*
X0426859Y0319524D01*
X0426528Y0319303D01*
X0426307Y0318972D01*
X0426229Y0318582D01*
X0426307Y0318192D01*
X0426528Y0317861D01*
X0426590Y0317820D01*
X0426352Y0317867D01*
X0425962Y0317789D01*
X0425631Y0317568D01*
X0425410Y0317238D01*
X0425332Y0316847D01*
X0425410Y0316457D01*
X0425631Y0316126D01*
X0425962Y0315905D01*
X0426352Y0315828D01*
X0426742Y0315905D01*
X0427073Y0316126D01*
X0427294Y0316457D01*
X0427372Y0316847D01*
X0427294Y0317238D01*
X0427073Y0317568D01*
X0427011Y0317610D01*
X0427249Y0317563D01*
X0427639Y0317640D01*
X0427970Y0317861D01*
X0428191Y0318192D01*
X0428268Y0318582D01*
X0428191Y0318972D01*
X0427970Y0319303D01*
X0427639Y0319524D01*
X0427249Y0319602D01*
D02*
G37*
G36*
X0527548Y0319797D02*
X0527158Y0319720D01*
X0526827Y0319499D01*
X0526606Y0319168D01*
X0526528Y0318778D01*
X0526606Y0318388D01*
X0526827Y0318057D01*
X0527158Y0317836D01*
X0527548Y0317758D01*
X0527938Y0317836D01*
X0528269Y0318057D01*
X0528490Y0318388D01*
X0528567Y0318778D01*
X0528490Y0319168D01*
X0528269Y0319499D01*
X0527938Y0319720D01*
X0527548Y0319797D01*
D02*
G37*
G36*
X0456463Y0318933D02*
X0456112Y0318864D01*
X0455814Y0318665D01*
X0455615Y0318367D01*
X0455545Y0318016D01*
X0455615Y0317665D01*
X0455814Y0317367D01*
X0456112Y0317168D01*
X0456463Y0317098D01*
X0456814Y0317168D01*
X0457112Y0317367D01*
X0457311Y0317665D01*
X0457381Y0318016D01*
X0457311Y0318367D01*
X0457112Y0318665D01*
X0456814Y0318864D01*
X0456463Y0318933D01*
D02*
G37*
G36*
X0472919Y0318907D02*
X0472567Y0318837D01*
X0472270Y0318638D01*
X0472071Y0318341D01*
X0472001Y0317990D01*
X0472071Y0317638D01*
X0472270Y0317341D01*
X0472567Y0317142D01*
X0472919Y0317072D01*
X0473270Y0317142D01*
X0473567Y0317341D01*
X0473766Y0317638D01*
X0473836Y0317990D01*
X0473766Y0318341D01*
X0473567Y0318638D01*
X0473270Y0318837D01*
X0472919Y0318907D01*
D02*
G37*
G36*
X0460811Y0319930D02*
X0460459Y0319861D01*
X0460162Y0319661D01*
X0459963Y0319364D01*
X0459893Y0319013D01*
X0459963Y0318661D01*
X0460162Y0318364D01*
X0460459Y0318165D01*
X0460732Y0318111D01*
X0460603Y0318085D01*
X0460305Y0317886D01*
X0460106Y0317588D01*
X0460036Y0317237D01*
X0460106Y0316886D01*
X0460305Y0316588D01*
X0460603Y0316390D01*
X0460954Y0316320D01*
X0461305Y0316390D01*
X0461603Y0316588D01*
X0461802Y0316886D01*
X0461872Y0317237D01*
X0461802Y0317588D01*
X0461603Y0317886D01*
X0461305Y0318085D01*
X0461033Y0318139D01*
X0461162Y0318165D01*
X0461459Y0318364D01*
X0461658Y0318661D01*
X0461728Y0319013D01*
X0461658Y0319364D01*
X0461459Y0319661D01*
X0461162Y0319861D01*
X0460811Y0319930D01*
D02*
G37*
G36*
X0470467Y0317977D02*
X0470115Y0317907D01*
X0469818Y0317708D01*
X0469619Y0317410D01*
X0469549Y0317059D01*
X0469619Y0316708D01*
X0469818Y0316410D01*
X0470115Y0316211D01*
X0470467Y0316141D01*
X0470818Y0316211D01*
X0471115Y0316410D01*
X0471314Y0316708D01*
X0471384Y0317059D01*
X0471314Y0317410D01*
X0471115Y0317708D01*
X0470818Y0317907D01*
X0470467Y0317977D01*
D02*
G37*
G36*
X0453451Y0318026D02*
X0453061Y0317948D01*
X0452730Y0317727D01*
X0452509Y0317396D01*
X0452432Y0317006D01*
X0452509Y0316616D01*
X0452730Y0316285D01*
X0453061Y0316064D01*
X0453451Y0315986D01*
X0453841Y0316064D01*
X0454172Y0316285D01*
X0454393Y0316616D01*
X0454471Y0317006D01*
X0454393Y0317396D01*
X0454172Y0317727D01*
X0453841Y0317948D01*
X0453451Y0318026D01*
D02*
G37*
G36*
X0440580Y0323928D02*
X0440190Y0323851D01*
X0439859Y0323630D01*
X0439639Y0323299D01*
X0439561Y0322909D01*
X0439639Y0322518D01*
X0439859Y0322188D01*
X0440190Y0321967D01*
X0440288Y0321947D01*
X0440247Y0321939D01*
X0439917Y0321718D01*
X0439696Y0321387D01*
X0439618Y0320997D01*
X0439696Y0320607D01*
X0439917Y0320276D01*
X0440247Y0320055D01*
X0440475Y0320010D01*
X0440204Y0319956D01*
X0439874Y0319735D01*
X0439653Y0319404D01*
X0439575Y0319014D01*
X0439653Y0318624D01*
X0439874Y0318293D01*
X0440204Y0318072D01*
X0440561Y0318001D01*
X0440204Y0317930D01*
X0439874Y0317709D01*
X0439653Y0317378D01*
X0439575Y0316988D01*
X0439653Y0316598D01*
X0439874Y0316267D01*
X0440204Y0316046D01*
X0440595Y0315969D01*
X0440985Y0316046D01*
X0441316Y0316267D01*
X0441537Y0316598D01*
X0441614Y0316988D01*
X0441537Y0317378D01*
X0441316Y0317709D01*
X0440985Y0317930D01*
X0440628Y0318001D01*
X0440985Y0318072D01*
X0441316Y0318293D01*
X0441537Y0318624D01*
X0441614Y0319014D01*
X0441537Y0319404D01*
X0441316Y0319735D01*
X0440985Y0319956D01*
X0440757Y0320001D01*
X0441028Y0320055D01*
X0441358Y0320276D01*
X0441579Y0320607D01*
X0441657Y0320997D01*
X0441579Y0321387D01*
X0441358Y0321718D01*
X0441028Y0321939D01*
X0440930Y0321958D01*
X0440971Y0321967D01*
X0441301Y0322188D01*
X0441522Y0322518D01*
X0441600Y0322909D01*
X0441522Y0323299D01*
X0441301Y0323630D01*
X0440971Y0323851D01*
X0440580Y0323928D01*
D02*
G37*
G36*
X0414527Y0317749D02*
X0414136Y0317671D01*
X0413805Y0317450D01*
X0413585Y0317120D01*
X0413507Y0316729D01*
X0413585Y0316339D01*
X0413805Y0316008D01*
X0414136Y0315787D01*
X0414527Y0315710D01*
X0414917Y0315787D01*
X0415247Y0316008D01*
X0415468Y0316339D01*
X0415546Y0316729D01*
X0415468Y0317120D01*
X0415247Y0317450D01*
X0414917Y0317671D01*
X0414527Y0317749D01*
D02*
G37*
G36*
X0411541Y0317724D02*
X0411150Y0317646D01*
X0410819Y0317425D01*
X0410599Y0317094D01*
X0410521Y0316704D01*
X0410599Y0316314D01*
X0410819Y0315983D01*
X0411150Y0315762D01*
X0411541Y0315685D01*
X0411931Y0315762D01*
X0412261Y0315983D01*
X0412483Y0316314D01*
X0412560Y0316704D01*
X0412483Y0317094D01*
X0412261Y0317425D01*
X0411931Y0317646D01*
X0411541Y0317724D01*
D02*
G37*
G36*
X0460986Y0316184D02*
X0460635Y0316114D01*
X0460337Y0315915D01*
X0460138Y0315617D01*
X0460068Y0315266D01*
X0460138Y0314915D01*
X0460337Y0314617D01*
X0460635Y0314418D01*
X0460986Y0314348D01*
X0461337Y0314418D01*
X0461635Y0314617D01*
X0461834Y0314915D01*
X0461903Y0315266D01*
X0461834Y0315617D01*
X0461635Y0315915D01*
X0461337Y0316114D01*
X0460986Y0316184D01*
D02*
G37*
G36*
X0468395Y0317767D02*
X0468043Y0317698D01*
X0467746Y0317499D01*
X0467547Y0317201D01*
X0467477Y0316850D01*
X0467547Y0316498D01*
X0467746Y0316201D01*
X0468043Y0316002D01*
X0468303Y0315950D01*
X0468228Y0315900D01*
X0468029Y0315603D01*
X0467959Y0315252D01*
X0468029Y0314900D01*
X0468228Y0314603D01*
X0468526Y0314404D01*
X0468877Y0314334D01*
X0469228Y0314404D01*
X0469526Y0314603D01*
X0469725Y0314900D01*
X0469795Y0315252D01*
X0469725Y0315603D01*
X0469526Y0315900D01*
X0469228Y0316099D01*
X0468969Y0316151D01*
X0469043Y0316201D01*
X0469242Y0316498D01*
X0469312Y0316850D01*
X0469242Y0317201D01*
X0469043Y0317499D01*
X0468746Y0317698D01*
X0468395Y0317767D01*
D02*
G37*
G36*
X0521531Y0316348D02*
X0521141Y0316270D01*
X0520810Y0316049D01*
X0520589Y0315718D01*
X0520511Y0315328D01*
X0520589Y0314938D01*
X0520810Y0314607D01*
X0521141Y0314386D01*
X0521531Y0314308D01*
X0521921Y0314386D01*
X0522252Y0314607D01*
X0522473Y0314938D01*
X0522550Y0315328D01*
X0522473Y0315718D01*
X0522252Y0316049D01*
X0521921Y0316270D01*
X0521531Y0316348D01*
D02*
G37*
G36*
X0464499Y0317656D02*
X0464148Y0317587D01*
X0463850Y0317388D01*
X0463651Y0317090D01*
X0463581Y0316739D01*
X0463651Y0316388D01*
X0463850Y0316090D01*
X0464148Y0315891D01*
X0464342Y0315852D01*
X0464087Y0315682D01*
X0463889Y0315385D01*
X0463819Y0315034D01*
X0463889Y0314682D01*
X0464087Y0314385D01*
X0464385Y0314186D01*
X0464736Y0314116D01*
X0465088Y0314186D01*
X0465385Y0314385D01*
X0465584Y0314682D01*
X0465654Y0315034D01*
X0465584Y0315385D01*
X0465385Y0315682D01*
X0465088Y0315881D01*
X0464893Y0315920D01*
X0465147Y0316090D01*
X0465346Y0316388D01*
X0465416Y0316739D01*
X0465346Y0317090D01*
X0465147Y0317388D01*
X0464850Y0317587D01*
X0464499Y0317656D01*
D02*
G37*
G36*
X0411622Y0314658D02*
X0411232Y0314581D01*
X0410901Y0314360D01*
X0410680Y0314029D01*
X0410602Y0313639D01*
X0410680Y0313248D01*
X0410901Y0312918D01*
X0411232Y0312697D01*
X0411622Y0312619D01*
X0412012Y0312697D01*
X0412343Y0312918D01*
X0412564Y0313248D01*
X0412641Y0313639D01*
X0412564Y0314029D01*
X0412343Y0314360D01*
X0412012Y0314581D01*
X0411622Y0314658D01*
D02*
G37*
G36*
X0398491Y0314780D02*
X0398064Y0314696D01*
X0397702Y0314454D01*
X0397460Y0314092D01*
X0397375Y0313665D01*
X0397460Y0313239D01*
X0397702Y0312877D01*
X0398064Y0312635D01*
X0398491Y0312550D01*
X0398917Y0312635D01*
X0399279Y0312877D01*
X0399521Y0313239D01*
X0399606Y0313665D01*
X0399521Y0314092D01*
X0399279Y0314454D01*
X0398917Y0314696D01*
X0398491Y0314780D01*
D02*
G37*
G36*
X0401897Y0314677D02*
X0401471Y0314592D01*
X0401109Y0314351D01*
X0400867Y0313989D01*
X0400782Y0313562D01*
X0400867Y0313135D01*
X0401109Y0312773D01*
X0401471Y0312532D01*
X0401897Y0312447D01*
X0402324Y0312532D01*
X0402686Y0312773D01*
X0402927Y0313135D01*
X0403012Y0313562D01*
X0402927Y0313989D01*
X0402686Y0314351D01*
X0402324Y0314592D01*
X0401897Y0314677D01*
D02*
G37*
G36*
X0414260Y0314036D02*
X0413870Y0313958D01*
X0413539Y0313737D01*
X0413318Y0313406D01*
X0413240Y0313016D01*
X0413318Y0312626D01*
X0413539Y0312295D01*
X0413870Y0312074D01*
X0414260Y0311996D01*
X0414650Y0312074D01*
X0414981Y0312295D01*
X0415202Y0312626D01*
X0415280Y0313016D01*
X0415202Y0313406D01*
X0414981Y0313737D01*
X0414650Y0313958D01*
X0414260Y0314036D01*
D02*
G37*
G36*
X0431889Y0314031D02*
X0431499Y0313953D01*
X0431168Y0313732D01*
X0430947Y0313402D01*
X0430869Y0313012D01*
X0430947Y0312621D01*
X0431168Y0312291D01*
X0431499Y0312070D01*
X0431889Y0311992D01*
X0432279Y0312070D01*
X0432610Y0312291D01*
X0432831Y0312621D01*
X0432909Y0313012D01*
X0432831Y0313402D01*
X0432610Y0313732D01*
X0432279Y0313953D01*
X0431889Y0314031D01*
D02*
G37*
G36*
X0463692Y0313645D02*
X0463341Y0313575D01*
X0463043Y0313376D01*
X0462844Y0313078D01*
X0462774Y0312727D01*
X0462844Y0312376D01*
X0463043Y0312078D01*
X0463341Y0311879D01*
X0463692Y0311809D01*
X0464043Y0311879D01*
X0464341Y0312078D01*
X0464539Y0312376D01*
X0464609Y0312727D01*
X0464539Y0313078D01*
X0464341Y0313376D01*
X0464043Y0313575D01*
X0463692Y0313645D01*
D02*
G37*
G36*
X0459814Y0313431D02*
X0459387Y0313346D01*
X0459025Y0313105D01*
X0458784Y0312743D01*
X0458699Y0312316D01*
X0458784Y0311889D01*
X0459025Y0311528D01*
X0459387Y0311286D01*
X0459814Y0311201D01*
X0460241Y0311286D01*
X0460603Y0311528D01*
X0460821Y0311855D01*
X0460920Y0311707D01*
X0461217Y0311508D01*
X0461569Y0311439D01*
X0461920Y0311508D01*
X0462218Y0311707D01*
X0462416Y0312005D01*
X0462486Y0312356D01*
X0462416Y0312707D01*
X0462218Y0313005D01*
X0461920Y0313204D01*
X0461569Y0313274D01*
X0461217Y0313204D01*
X0460920Y0313005D01*
X0460794Y0312818D01*
X0460603Y0313105D01*
X0460241Y0313346D01*
X0459814Y0313431D01*
D02*
G37*
G36*
X0457537Y0313593D02*
X0457111Y0313508D01*
X0456749Y0313266D01*
X0456507Y0312905D01*
X0456422Y0312478D01*
X0456507Y0312051D01*
X0456749Y0311689D01*
X0457111Y0311448D01*
X0457537Y0311363D01*
X0457964Y0311448D01*
X0458326Y0311689D01*
X0458568Y0312051D01*
X0458652Y0312478D01*
X0458568Y0312905D01*
X0458326Y0313266D01*
X0457964Y0313508D01*
X0457537Y0313593D01*
D02*
G37*
G36*
X0470503Y0313038D02*
X0470151Y0312968D01*
X0469854Y0312769D01*
X0469655Y0312471D01*
X0469585Y0312120D01*
X0469655Y0311769D01*
X0469854Y0311471D01*
X0470151Y0311272D01*
X0470503Y0311203D01*
X0470854Y0311272D01*
X0471151Y0311471D01*
X0471350Y0311769D01*
X0471420Y0312120D01*
X0471350Y0312471D01*
X0471151Y0312769D01*
X0470854Y0312968D01*
X0470503Y0313038D01*
D02*
G37*
G36*
X0466011Y0313175D02*
X0465584Y0313090D01*
X0465223Y0312848D01*
X0464981Y0312486D01*
X0464896Y0312059D01*
X0464981Y0311633D01*
X0465223Y0311271D01*
X0465584Y0311029D01*
X0466011Y0310944D01*
X0466438Y0311029D01*
X0466799Y0311271D01*
X0467041Y0311633D01*
X0467126Y0312059D01*
X0467041Y0312486D01*
X0466799Y0312848D01*
X0466438Y0313090D01*
X0466011Y0313175D01*
D02*
G37*
G36*
X0479528Y0319840D02*
X0478836Y0319749D01*
X0478191Y0319482D01*
X0477638Y0319057D01*
X0477213Y0318504D01*
X0476946Y0317859D01*
X0476855Y0317167D01*
X0476946Y0316476D01*
X0477213Y0315831D01*
X0477638Y0315278D01*
X0478191Y0314853D01*
X0478705Y0314640D01*
X0478533Y0314617D01*
X0477888Y0314350D01*
X0477334Y0313925D01*
X0476910Y0313372D01*
X0476643Y0312727D01*
X0476551Y0312035D01*
X0476643Y0311344D01*
X0476910Y0310699D01*
X0477334Y0310145D01*
X0477888Y0309721D01*
X0478533Y0309454D01*
X0479224Y0309363D01*
X0479916Y0309454D01*
X0480561Y0309721D01*
X0481114Y0310145D01*
X0481539Y0310699D01*
X0481806Y0311344D01*
X0481897Y0312035D01*
X0481806Y0312727D01*
X0481539Y0313372D01*
X0481114Y0313925D01*
X0480561Y0314350D01*
X0480047Y0314563D01*
X0480219Y0314586D01*
X0480864Y0314853D01*
X0481418Y0315278D01*
X0481842Y0315831D01*
X0482109Y0316476D01*
X0482200Y0317167D01*
X0482109Y0317859D01*
X0481842Y0318504D01*
X0481418Y0319057D01*
X0480864Y0319482D01*
X0480219Y0319749D01*
X0479528Y0319840D01*
D02*
G37*
G36*
X0475257Y0310180D02*
X0474867Y0310102D01*
X0474536Y0309881D01*
X0474315Y0309550D01*
X0474237Y0309160D01*
X0474315Y0308770D01*
X0474536Y0308439D01*
X0474867Y0308218D01*
X0475257Y0308141D01*
X0475647Y0308218D01*
X0475978Y0308439D01*
X0476199Y0308770D01*
X0476277Y0309160D01*
X0476199Y0309550D01*
X0475978Y0309881D01*
X0475647Y0310102D01*
X0475257Y0310180D01*
D02*
G37*
G36*
X0487667Y0309968D02*
X0487277Y0309890D01*
X0486946Y0309669D01*
X0486725Y0309339D01*
X0486648Y0308948D01*
X0486725Y0308558D01*
X0486946Y0308227D01*
X0487277Y0308006D01*
X0487667Y0307929D01*
X0488058Y0308006D01*
X0488388Y0308227D01*
X0488609Y0308558D01*
X0488687Y0308948D01*
X0488609Y0309339D01*
X0488388Y0309669D01*
X0488058Y0309890D01*
X0487667Y0309968D01*
D02*
G37*
G36*
X0484416D02*
X0484026Y0309890D01*
X0483695Y0309669D01*
X0483474Y0309339D01*
X0483396Y0308948D01*
X0483474Y0308558D01*
X0483695Y0308227D01*
X0484026Y0308006D01*
X0484416Y0307929D01*
X0484806Y0308006D01*
X0485137Y0308227D01*
X0485358Y0308558D01*
X0485436Y0308948D01*
X0485358Y0309339D01*
X0485137Y0309669D01*
X0484806Y0309890D01*
X0484416Y0309968D01*
D02*
G37*
G36*
X0450716Y0309939D02*
X0450326Y0309861D01*
X0449995Y0309640D01*
X0449774Y0309310D01*
X0449696Y0308920D01*
X0449774Y0308529D01*
X0449995Y0308198D01*
X0450326Y0307978D01*
X0450716Y0307900D01*
X0451106Y0307978D01*
X0451437Y0308198D01*
X0451658Y0308529D01*
X0451735Y0308920D01*
X0451658Y0309310D01*
X0451437Y0309640D01*
X0451106Y0309861D01*
X0450716Y0309939D01*
D02*
G37*
G36*
X0431568Y0311955D02*
X0431178Y0311877D01*
X0430847Y0311656D01*
X0430626Y0311326D01*
X0430548Y0310935D01*
X0430626Y0310545D01*
X0430847Y0310214D01*
X0431178Y0309993D01*
X0431508Y0309928D01*
X0431156Y0309858D01*
X0430826Y0309637D01*
X0430605Y0309306D01*
X0430527Y0308916D01*
X0430605Y0308525D01*
X0430826Y0308195D01*
X0431156Y0307974D01*
X0431546Y0307896D01*
X0431937Y0307974D01*
X0432267Y0308195D01*
X0432488Y0308525D01*
X0432566Y0308916D01*
X0432488Y0309306D01*
X0432267Y0309637D01*
X0431937Y0309858D01*
X0431606Y0309923D01*
X0431958Y0309993D01*
X0432289Y0310214D01*
X0432510Y0310545D01*
X0432587Y0310935D01*
X0432510Y0311326D01*
X0432289Y0311656D01*
X0431958Y0311877D01*
X0431568Y0311955D01*
D02*
G37*
G36*
X0413096Y0308561D02*
X0412706Y0308483D01*
X0412375Y0308262D01*
X0412154Y0307932D01*
X0412076Y0307541D01*
X0412154Y0307151D01*
X0412375Y0306821D01*
X0412706Y0306599D01*
X0413096Y0306522D01*
X0413486Y0306599D01*
X0413817Y0306821D01*
X0414038Y0307151D01*
X0414115Y0307541D01*
X0414038Y0307932D01*
X0413817Y0308262D01*
X0413486Y0308483D01*
X0413096Y0308561D01*
D02*
G37*
G36*
X0431023Y0307853D02*
X0430633Y0307775D01*
X0430302Y0307554D01*
X0430081Y0307223D01*
X0430003Y0306833D01*
X0430081Y0306443D01*
X0430302Y0306112D01*
X0430633Y0305891D01*
X0431023Y0305814D01*
X0431413Y0305891D01*
X0431744Y0306112D01*
X0431965Y0306443D01*
X0432043Y0306833D01*
X0431965Y0307223D01*
X0431744Y0307554D01*
X0431413Y0307775D01*
X0431023Y0307853D01*
D02*
G37*
G36*
X0455080Y0305906D02*
X0454689Y0305829D01*
X0454358Y0305608D01*
X0454138Y0305277D01*
X0454060Y0304887D01*
X0454138Y0304497D01*
X0454358Y0304166D01*
X0454689Y0303945D01*
X0455080Y0303867D01*
X0455470Y0303945D01*
X0455800Y0304166D01*
X0456021Y0304497D01*
X0456099Y0304887D01*
X0456021Y0305277D01*
X0455800Y0305608D01*
X0455470Y0305829D01*
X0455080Y0305906D01*
D02*
G37*
G36*
X0430998Y0305642D02*
X0430608Y0305564D01*
X0430277Y0305343D01*
X0430056Y0305012D01*
X0429979Y0304622D01*
X0430056Y0304232D01*
X0430277Y0303901D01*
X0430608Y0303680D01*
X0430998Y0303603D01*
X0431388Y0303680D01*
X0431719Y0303901D01*
X0431940Y0304232D01*
X0432018Y0304622D01*
X0431940Y0305012D01*
X0431719Y0305343D01*
X0431388Y0305564D01*
X0430998Y0305642D01*
D02*
G37*
G36*
X0405096Y0305181D02*
X0404706Y0305103D01*
X0404375Y0304882D01*
X0404154Y0304551D01*
X0404076Y0304161D01*
X0404154Y0303771D01*
X0404375Y0303440D01*
X0404706Y0303219D01*
X0405096Y0303141D01*
X0405486Y0303219D01*
X0405817Y0303440D01*
X0406038Y0303771D01*
X0406116Y0304161D01*
X0406038Y0304551D01*
X0405817Y0304882D01*
X0405486Y0305103D01*
X0405096Y0305181D01*
D02*
G37*
G36*
X0408080Y0305142D02*
X0407690Y0305065D01*
X0407359Y0304843D01*
X0407138Y0304513D01*
X0407061Y0304122D01*
X0407138Y0303732D01*
X0407359Y0303401D01*
X0407690Y0303181D01*
X0408080Y0303103D01*
X0408470Y0303181D01*
X0408801Y0303401D01*
X0409022Y0303732D01*
X0409100Y0304122D01*
X0409022Y0304513D01*
X0408801Y0304843D01*
X0408470Y0305065D01*
X0408080Y0305142D01*
D02*
G37*
G36*
X0426978Y0305139D02*
X0426588Y0305062D01*
X0426257Y0304841D01*
X0426036Y0304510D01*
X0425959Y0304120D01*
X0426036Y0303730D01*
X0426257Y0303399D01*
X0426588Y0303178D01*
X0426978Y0303100D01*
X0427368Y0303178D01*
X0427699Y0303399D01*
X0427920Y0303730D01*
X0427998Y0304120D01*
X0427920Y0304510D01*
X0427699Y0304841D01*
X0427368Y0305062D01*
X0426978Y0305139D01*
D02*
G37*
G36*
X0441103Y0304139D02*
X0440713Y0304061D01*
X0440382Y0303840D01*
X0440162Y0303509D01*
X0440084Y0303119D01*
X0440162Y0302729D01*
X0440382Y0302398D01*
X0440713Y0302177D01*
X0441103Y0302099D01*
X0441494Y0302177D01*
X0441824Y0302398D01*
X0442045Y0302729D01*
X0442123Y0303119D01*
X0442045Y0303509D01*
X0441824Y0303840D01*
X0441494Y0304061D01*
X0441103Y0304139D01*
D02*
G37*
G36*
X0458074Y0303835D02*
X0457683Y0303758D01*
X0457353Y0303537D01*
X0457132Y0303206D01*
X0457054Y0302816D01*
X0457132Y0302426D01*
X0457353Y0302095D01*
X0457683Y0301874D01*
X0458074Y0301796D01*
X0458464Y0301874D01*
X0458795Y0302095D01*
X0459016Y0302426D01*
X0459093Y0302816D01*
X0459016Y0303206D01*
X0458795Y0303537D01*
X0458464Y0303758D01*
X0458074Y0303835D01*
D02*
G37*
G36*
X0430844Y0303419D02*
X0430454Y0303341D01*
X0430123Y0303120D01*
X0429902Y0302789D01*
X0429824Y0302399D01*
X0429902Y0302009D01*
X0430123Y0301678D01*
X0430454Y0301457D01*
X0430844Y0301380D01*
X0431234Y0301457D01*
X0431565Y0301678D01*
X0431786Y0302009D01*
X0431863Y0302399D01*
X0431786Y0302789D01*
X0431565Y0303120D01*
X0431234Y0303341D01*
X0430844Y0303419D01*
D02*
G37*
G36*
X0411502Y0302717D02*
X0411111Y0302639D01*
X0410781Y0302418D01*
X0410560Y0302087D01*
X0410482Y0301697D01*
X0410560Y0301307D01*
X0410781Y0300976D01*
X0411111Y0300755D01*
X0411502Y0300678D01*
X0411892Y0300755D01*
X0412223Y0300976D01*
X0412444Y0301307D01*
X0412521Y0301697D01*
X0412444Y0302087D01*
X0412223Y0302418D01*
X0411892Y0302639D01*
X0411502Y0302717D01*
D02*
G37*
G36*
X0402099Y0302604D02*
X0401673Y0302519D01*
X0401311Y0302278D01*
X0401069Y0301916D01*
X0400984Y0301489D01*
X0401069Y0301062D01*
X0401311Y0300701D01*
X0401673Y0300459D01*
X0402099Y0300374D01*
X0402526Y0300459D01*
X0402888Y0300701D01*
X0403129Y0301062D01*
X0403214Y0301489D01*
X0403129Y0301916D01*
X0402888Y0302278D01*
X0402526Y0302519D01*
X0402099Y0302604D01*
D02*
G37*
G36*
X0425849Y0302343D02*
X0425459Y0302265D01*
X0425128Y0302044D01*
X0424907Y0301713D01*
X0424829Y0301323D01*
X0424907Y0300933D01*
X0425128Y0300602D01*
X0425459Y0300381D01*
X0425849Y0300303D01*
X0426239Y0300381D01*
X0426570Y0300602D01*
X0426791Y0300933D01*
X0426868Y0301323D01*
X0426791Y0301713D01*
X0426570Y0302044D01*
X0426239Y0302265D01*
X0425849Y0302343D01*
D02*
G37*
G36*
X0398880Y0302098D02*
X0398453Y0302014D01*
X0398092Y0301772D01*
X0397850Y0301410D01*
X0397765Y0300983D01*
X0397850Y0300557D01*
X0398092Y0300195D01*
X0398453Y0299953D01*
X0398880Y0299868D01*
X0399307Y0299953D01*
X0399669Y0300195D01*
X0399910Y0300557D01*
X0399995Y0300983D01*
X0399910Y0301410D01*
X0399669Y0301772D01*
X0399307Y0302014D01*
X0398880Y0302098D01*
D02*
G37*
G36*
X0425820Y0300219D02*
X0425430Y0300142D01*
X0425099Y0299921D01*
X0424878Y0299590D01*
X0424801Y0299200D01*
X0424878Y0298810D01*
X0425099Y0298479D01*
X0425430Y0298258D01*
X0425820Y0298180D01*
X0426210Y0298258D01*
X0426541Y0298479D01*
X0426762Y0298810D01*
X0426840Y0299200D01*
X0426762Y0299590D01*
X0426541Y0299921D01*
X0426210Y0300142D01*
X0425820Y0300219D01*
D02*
G37*
G36*
X0431153Y0301350D02*
X0430762Y0301273D01*
X0430432Y0301052D01*
X0430211Y0300721D01*
X0430133Y0300331D01*
X0430211Y0299940D01*
X0430432Y0299610D01*
X0430762Y0299389D01*
X0431051Y0299331D01*
X0431033Y0299328D01*
X0430702Y0299107D01*
X0430481Y0298776D01*
X0430403Y0298386D01*
X0430481Y0297995D01*
X0430702Y0297665D01*
X0431033Y0297444D01*
X0431423Y0297366D01*
X0431813Y0297444D01*
X0432144Y0297665D01*
X0432365Y0297995D01*
X0432442Y0298386D01*
X0432365Y0298776D01*
X0432144Y0299107D01*
X0431813Y0299328D01*
X0431524Y0299385D01*
X0431543Y0299389D01*
X0431874Y0299610D01*
X0432094Y0299940D01*
X0432172Y0300331D01*
X0432094Y0300721D01*
X0431874Y0301052D01*
X0431543Y0301273D01*
X0431153Y0301350D01*
D02*
G37*
G36*
X0411413Y0298864D02*
X0411023Y0298786D01*
X0410692Y0298565D01*
X0410471Y0298234D01*
X0410393Y0297844D01*
X0410471Y0297454D01*
X0410692Y0297123D01*
X0411023Y0296902D01*
X0411413Y0296825D01*
X0411803Y0296902D01*
X0412134Y0297123D01*
X0412355Y0297454D01*
X0412432Y0297844D01*
X0412355Y0298234D01*
X0412134Y0298565D01*
X0411803Y0298786D01*
X0411413Y0298864D01*
D02*
G37*
G36*
X0422331Y0297444D02*
X0421941Y0297366D01*
X0421610Y0297145D01*
X0421389Y0296814D01*
X0421311Y0296424D01*
X0421389Y0296034D01*
X0421610Y0295703D01*
X0421941Y0295482D01*
X0422331Y0295405D01*
X0422721Y0295482D01*
X0423052Y0295703D01*
X0423273Y0296034D01*
X0423350Y0296424D01*
X0423273Y0296814D01*
X0423052Y0297145D01*
X0422721Y0297366D01*
X0422331Y0297444D01*
D02*
G37*
G36*
X0411465Y0295837D02*
X0411074Y0295759D01*
X0410744Y0295538D01*
X0410523Y0295208D01*
X0410445Y0294817D01*
X0410523Y0294427D01*
X0410744Y0294096D01*
X0411074Y0293875D01*
X0411465Y0293798D01*
X0411855Y0293875D01*
X0412185Y0294096D01*
X0412406Y0294427D01*
X0412484Y0294817D01*
X0412406Y0295208D01*
X0412185Y0295538D01*
X0411855Y0295759D01*
X0411465Y0295837D01*
D02*
G37*
G36*
X0416456Y0294164D02*
X0416066Y0294087D01*
X0415735Y0293866D01*
X0415514Y0293535D01*
X0415436Y0293145D01*
X0415514Y0292754D01*
X0415735Y0292424D01*
X0416066Y0292203D01*
X0416456Y0292125D01*
X0416846Y0292203D01*
X0417177Y0292424D01*
X0417398Y0292754D01*
X0417475Y0293145D01*
X0417398Y0293535D01*
X0417177Y0293866D01*
X0416846Y0294087D01*
X0416456Y0294164D01*
D02*
G37*
G36*
X0431695Y0294036D02*
X0431305Y0293959D01*
X0430974Y0293738D01*
X0430753Y0293407D01*
X0430676Y0293017D01*
X0430753Y0292627D01*
X0430974Y0292296D01*
X0431305Y0292075D01*
X0431695Y0291997D01*
X0432086Y0292075D01*
X0432416Y0292296D01*
X0432637Y0292627D01*
X0432715Y0293017D01*
X0432637Y0293407D01*
X0432416Y0293738D01*
X0432086Y0293959D01*
X0431695Y0294036D01*
D02*
G37*
G36*
X0442066Y0288012D02*
X0441676Y0287934D01*
X0441345Y0287713D01*
X0441124Y0287383D01*
X0441046Y0286992D01*
X0441124Y0286602D01*
X0441345Y0286271D01*
X0441676Y0286050D01*
X0442066Y0285973D01*
X0442456Y0286050D01*
X0442787Y0286271D01*
X0443008Y0286602D01*
X0443085Y0286992D01*
X0443008Y0287383D01*
X0442787Y0287713D01*
X0442456Y0287934D01*
X0442066Y0288012D01*
D02*
G37*
G36*
X0435208Y0284215D02*
X0434818Y0284137D01*
X0434487Y0283916D01*
X0434266Y0283585D01*
X0434189Y0283195D01*
X0434266Y0282805D01*
X0434487Y0282474D01*
X0434818Y0282253D01*
X0435208Y0282176D01*
X0435598Y0282253D01*
X0435929Y0282474D01*
X0436150Y0282805D01*
X0436228Y0283195D01*
X0436150Y0283585D01*
X0435929Y0283916D01*
X0435598Y0284137D01*
X0435208Y0284215D01*
D02*
G37*
G36*
X0420678Y0283986D02*
X0420288Y0283908D01*
X0419957Y0283687D01*
X0419736Y0283357D01*
X0419659Y0282966D01*
X0419736Y0282576D01*
X0419957Y0282245D01*
X0420288Y0282024D01*
X0420678Y0281947D01*
X0421068Y0282024D01*
X0421399Y0282245D01*
X0421620Y0282576D01*
X0421698Y0282966D01*
X0421620Y0283357D01*
X0421399Y0283687D01*
X0421068Y0283908D01*
X0420678Y0283986D01*
D02*
G37*
G36*
X0415106Y0283327D02*
X0414716Y0283250D01*
X0414385Y0283029D01*
X0414164Y0282698D01*
X0414087Y0282308D01*
X0414164Y0281918D01*
X0414385Y0281587D01*
X0414716Y0281366D01*
X0415106Y0281288D01*
X0415496Y0281366D01*
X0415827Y0281587D01*
X0416048Y0281918D01*
X0416126Y0282308D01*
X0416048Y0282698D01*
X0415827Y0283029D01*
X0415496Y0283250D01*
X0415106Y0283327D01*
D02*
G37*
G36*
X0411538Y0283088D02*
X0411148Y0283010D01*
X0410817Y0282789D01*
X0410596Y0282459D01*
X0410519Y0282068D01*
X0410596Y0281678D01*
X0410817Y0281347D01*
X0411148Y0281126D01*
X0411538Y0281049D01*
X0411929Y0281126D01*
X0412259Y0281347D01*
X0412480Y0281678D01*
X0412558Y0282068D01*
X0412480Y0282459D01*
X0412259Y0282789D01*
X0411929Y0283010D01*
X0411538Y0283088D01*
D02*
G37*
G36*
X0411424Y0280112D02*
X0411034Y0280034D01*
X0410703Y0279813D01*
X0410482Y0279483D01*
X0410404Y0279092D01*
X0410482Y0278702D01*
X0410703Y0278372D01*
X0411034Y0278151D01*
X0411424Y0278073D01*
X0411814Y0278151D01*
X0412145Y0278372D01*
X0412366Y0278702D01*
X0412443Y0279092D01*
X0412366Y0279483D01*
X0412145Y0279813D01*
X0411814Y0280034D01*
X0411424Y0280112D01*
D02*
G37*
G36*
X0415026Y0279686D02*
X0414636Y0279608D01*
X0414305Y0279387D01*
X0414084Y0279056D01*
X0414006Y0278666D01*
X0414084Y0278276D01*
X0414305Y0277945D01*
X0414636Y0277724D01*
X0415026Y0277646D01*
X0415416Y0277724D01*
X0415747Y0277945D01*
X0415968Y0278276D01*
X0416046Y0278666D01*
X0415968Y0279056D01*
X0415747Y0279387D01*
X0415416Y0279608D01*
X0415026Y0279686D01*
D02*
G37*
G36*
X0411129Y0276476D02*
X0410739Y0276398D01*
X0410408Y0276177D01*
X0410187Y0275846D01*
X0410109Y0275456D01*
X0410187Y0275066D01*
X0410408Y0274735D01*
X0410739Y0274514D01*
X0411129Y0274436D01*
X0411519Y0274514D01*
X0411850Y0274735D01*
X0412071Y0275066D01*
X0412148Y0275456D01*
X0412071Y0275846D01*
X0411850Y0276177D01*
X0411519Y0276398D01*
X0411129Y0276476D01*
D02*
G37*
%LPD*%
G36*
X0514592Y0332418D02*
X0514592Y0325701D01*
X0502512Y0313621D01*
X0495087D01*
X0493709Y0315560D01*
Y0318882D01*
X0495232Y0320405D01*
X0505393D01*
X0510079Y0325092D01*
Y0332832D01*
X0511054Y0333806D01*
X0513204D01*
X0514592Y0332418D01*
D02*
G37*
%LPC*%
G36*
X0459802Y0415807D02*
X0459404D01*
X0459037Y0415655D01*
X0458755Y0415373D01*
X0458603Y0415006D01*
Y0414608D01*
X0458755Y0414241D01*
X0459037Y0413959D01*
X0459404Y0413807D01*
X0459802D01*
X0460170Y0413959D01*
X0460451Y0414241D01*
X0460603Y0414608D01*
Y0415006D01*
X0460451Y0415373D01*
X0460170Y0415655D01*
X0459802Y0415807D01*
D02*
G37*
G36*
X0383345Y0407839D02*
X0382947D01*
X0382579Y0407687D01*
X0382298Y0407406D01*
X0382146Y0407038D01*
Y0406640D01*
X0382298Y0406273D01*
X0382579Y0405991D01*
X0382947Y0405839D01*
X0383345D01*
X0383712Y0405991D01*
X0383993Y0406273D01*
X0384146Y0406640D01*
Y0407038D01*
X0383993Y0407406D01*
X0383712Y0407687D01*
X0383345Y0407839D01*
D02*
G37*
G36*
X0383359Y0404546D02*
X0382961D01*
X0382593Y0404394D01*
X0382312Y0404113D01*
X0382160Y0403745D01*
Y0403347D01*
X0382312Y0402980D01*
X0382593Y0402698D01*
X0382961Y0402546D01*
X0383359D01*
X0383726Y0402698D01*
X0384008Y0402980D01*
X0384160Y0403347D01*
Y0403745D01*
X0384008Y0404113D01*
X0383726Y0404394D01*
X0383359Y0404546D01*
D02*
G37*
G36*
X0383549Y0401563D02*
X0383151D01*
X0382784Y0401410D01*
X0382503Y0401129D01*
X0382350Y0400762D01*
Y0400364D01*
X0382503Y0399996D01*
X0382784Y0399715D01*
X0383151Y0399563D01*
X0383549D01*
X0383917Y0399715D01*
X0384198Y0399996D01*
X0384350Y0400364D01*
Y0400762D01*
X0384198Y0401129D01*
X0383917Y0401410D01*
X0383549Y0401563D01*
D02*
G37*
G36*
X0475817Y0399935D02*
X0475419D01*
X0475052Y0399782D01*
X0474771Y0399501D01*
X0474618Y0399134D01*
Y0398736D01*
X0474771Y0398368D01*
X0475052Y0398087D01*
X0475419Y0397935D01*
X0475817D01*
X0476185Y0398087D01*
X0476466Y0398368D01*
X0476618Y0398736D01*
Y0399134D01*
X0476466Y0399501D01*
X0476185Y0399782D01*
X0475817Y0399935D01*
D02*
G37*
G36*
X0383716Y0398263D02*
X0383318D01*
X0382950Y0398110D01*
X0382669Y0397829D01*
X0382517Y0397461D01*
Y0397063D01*
X0382669Y0396696D01*
X0382950Y0396415D01*
X0383318Y0396263D01*
X0383716D01*
X0384083Y0396415D01*
X0384365Y0396696D01*
X0384517Y0397063D01*
Y0397461D01*
X0384365Y0397829D01*
X0384083Y0398110D01*
X0383716Y0398263D01*
D02*
G37*
G36*
X0383892Y0394795D02*
X0383495D01*
X0383127Y0394643D01*
X0382846Y0394362D01*
X0382694Y0393994D01*
Y0393597D01*
X0382846Y0393229D01*
X0383127Y0392948D01*
X0383495Y0392795D01*
X0383892D01*
X0384260Y0392948D01*
X0384541Y0393229D01*
X0384694Y0393597D01*
Y0393994D01*
X0384541Y0394362D01*
X0384260Y0394643D01*
X0383892Y0394795D01*
D02*
G37*
G36*
X0383506Y0392160D02*
X0383109D01*
X0382741Y0392008D01*
X0382460Y0391727D01*
X0382308Y0391359D01*
Y0390961D01*
X0382460Y0390594D01*
X0382741Y0390313D01*
X0383109Y0390160D01*
X0383506D01*
X0383874Y0390313D01*
X0384155Y0390594D01*
X0384308Y0390961D01*
Y0391359D01*
X0384155Y0391727D01*
X0383874Y0392008D01*
X0383506Y0392160D01*
D02*
G37*
G36*
X0383544Y0388963D02*
X0383146D01*
X0382779Y0388811D01*
X0382497Y0388530D01*
X0382345Y0388162D01*
Y0387764D01*
X0382497Y0387397D01*
X0382779Y0387116D01*
X0383146Y0386963D01*
X0383544D01*
X0383911Y0387116D01*
X0384193Y0387397D01*
X0384345Y0387764D01*
Y0388162D01*
X0384193Y0388530D01*
X0383911Y0388811D01*
X0383544Y0388963D01*
D02*
G37*
G36*
X0383569Y0385741D02*
X0383171D01*
X0382804Y0385588D01*
X0382522Y0385307D01*
X0382370Y0384940D01*
Y0384542D01*
X0382522Y0384174D01*
X0382804Y0383893D01*
X0383171Y0383741D01*
X0383569D01*
X0383937Y0383893D01*
X0384218Y0384174D01*
X0384370Y0384542D01*
Y0384940D01*
X0384218Y0385307D01*
X0383937Y0385588D01*
X0383569Y0385741D01*
D02*
G37*
G36*
X0383419Y0376429D02*
X0383021D01*
X0382653Y0376276D01*
X0382372Y0375995D01*
X0382220Y0375627D01*
Y0375230D01*
X0382372Y0374862D01*
X0382653Y0374581D01*
X0383021Y0374429D01*
X0383419D01*
X0383786Y0374581D01*
X0384067Y0374862D01*
X0384220Y0375230D01*
Y0375627D01*
X0384067Y0375995D01*
X0383786Y0376276D01*
X0383419Y0376429D01*
D02*
G37*
G36*
X0383483Y0373265D02*
X0383085D01*
X0382717Y0373113D01*
X0382436Y0372832D01*
X0382284Y0372464D01*
Y0372066D01*
X0382436Y0371699D01*
X0382717Y0371417D01*
X0383085Y0371265D01*
X0383483D01*
X0383850Y0371417D01*
X0384131Y0371699D01*
X0384284Y0372066D01*
Y0372464D01*
X0384131Y0372832D01*
X0383850Y0373113D01*
X0383483Y0373265D01*
D02*
G37*
G36*
X0383530Y0370049D02*
X0383132D01*
X0382764Y0369896D01*
X0382483Y0369615D01*
X0382331Y0369248D01*
Y0368850D01*
X0382483Y0368482D01*
X0382764Y0368201D01*
X0383132Y0368049D01*
X0383530D01*
X0383897Y0368201D01*
X0384178Y0368482D01*
X0384331Y0368850D01*
Y0369248D01*
X0384178Y0369615D01*
X0383897Y0369896D01*
X0383530Y0370049D01*
D02*
G37*
G36*
X0383857Y0366704D02*
X0383459D01*
X0383092Y0366551D01*
X0382810Y0366270D01*
X0382658Y0365902D01*
Y0365505D01*
X0382810Y0365137D01*
X0383092Y0364856D01*
X0383459Y0364704D01*
X0383857D01*
X0384225Y0364856D01*
X0384506Y0365137D01*
X0384658Y0365505D01*
Y0365902D01*
X0384506Y0366270D01*
X0384225Y0366551D01*
X0383857Y0366704D01*
D02*
G37*
G36*
X0383432Y0360222D02*
X0383034D01*
X0382666Y0360070D01*
X0382385Y0359788D01*
X0382233Y0359421D01*
Y0359023D01*
X0382385Y0358656D01*
X0382666Y0358374D01*
X0383034Y0358222D01*
X0383432D01*
X0383799Y0358374D01*
X0384081Y0358656D01*
X0384233Y0359023D01*
Y0359421D01*
X0384081Y0359788D01*
X0383799Y0360070D01*
X0383432Y0360222D01*
D02*
G37*
G36*
X0383418Y0357415D02*
X0383021D01*
X0382653Y0357263D01*
X0382372Y0356981D01*
X0382220Y0356614D01*
Y0356216D01*
X0382372Y0355849D01*
X0382653Y0355567D01*
X0383021Y0355415D01*
X0383418D01*
X0383786Y0355567D01*
X0384067Y0355849D01*
X0384220Y0356216D01*
Y0356614D01*
X0384067Y0356981D01*
X0383786Y0357263D01*
X0383418Y0357415D01*
D02*
G37*
G36*
X0383391Y0354115D02*
X0382993D01*
X0382625Y0353962D01*
X0382344Y0353681D01*
X0382192Y0353313D01*
Y0352916D01*
X0382344Y0352548D01*
X0382625Y0352267D01*
X0382993Y0352115D01*
X0383391D01*
X0383758Y0352267D01*
X0384040Y0352548D01*
X0384192Y0352916D01*
Y0353313D01*
X0384040Y0353681D01*
X0383758Y0353962D01*
X0383391Y0354115D01*
D02*
G37*
G36*
Y0351208D02*
X0382993D01*
X0382625Y0351056D01*
X0382344Y0350775D01*
X0382192Y0350407D01*
Y0350009D01*
X0382344Y0349642D01*
X0382625Y0349360D01*
X0382993Y0349208D01*
X0383391D01*
X0383758Y0349360D01*
X0384040Y0349642D01*
X0384192Y0350009D01*
Y0350407D01*
X0384040Y0350775D01*
X0383758Y0351056D01*
X0383391Y0351208D01*
D02*
G37*
G36*
X0383431Y0336587D02*
X0383033D01*
X0382666Y0336435D01*
X0382384Y0336154D01*
X0382232Y0335786D01*
Y0335388D01*
X0382384Y0335021D01*
X0382666Y0334739D01*
X0383033Y0334587D01*
X0383431D01*
X0383799Y0334739D01*
X0384080Y0335021D01*
X0384232Y0335388D01*
Y0335786D01*
X0384080Y0336154D01*
X0383799Y0336435D01*
X0383431Y0336587D01*
D02*
G37*
G36*
X0383424Y0333587D02*
X0383026D01*
X0382658Y0333435D01*
X0382377Y0333154D01*
X0382225Y0332786D01*
Y0332388D01*
X0382377Y0332021D01*
X0382658Y0331739D01*
X0383026Y0331587D01*
X0383424D01*
X0383791Y0331739D01*
X0384073Y0332021D01*
X0384225Y0332388D01*
Y0332786D01*
X0384073Y0333154D01*
X0383791Y0333435D01*
X0383424Y0333587D01*
D02*
G37*
G36*
X0383494Y0330392D02*
X0383096D01*
X0382728Y0330240D01*
X0382447Y0329959D01*
X0382295Y0329591D01*
Y0329193D01*
X0382447Y0328826D01*
X0382728Y0328545D01*
X0383096Y0328392D01*
X0383494D01*
X0383861Y0328545D01*
X0384142Y0328826D01*
X0384295Y0329193D01*
Y0329591D01*
X0384142Y0329959D01*
X0383861Y0330240D01*
X0383494Y0330392D01*
D02*
G37*
G36*
X0383393Y0327094D02*
X0382995D01*
X0382628Y0326942D01*
X0382346Y0326661D01*
X0382194Y0326293D01*
Y0325895D01*
X0382346Y0325528D01*
X0382628Y0325246D01*
X0382995Y0325094D01*
X0383393D01*
X0383760Y0325246D01*
X0384042Y0325528D01*
X0384194Y0325895D01*
Y0326293D01*
X0384042Y0326661D01*
X0383760Y0326942D01*
X0383393Y0327094D01*
D02*
G37*
G36*
X0383528Y0323993D02*
X0383130D01*
X0382762Y0323841D01*
X0382481Y0323560D01*
X0382329Y0323192D01*
Y0322794D01*
X0382481Y0322427D01*
X0382762Y0322145D01*
X0383130Y0321993D01*
X0383528D01*
X0383895Y0322145D01*
X0384176Y0322427D01*
X0384329Y0322794D01*
Y0323192D01*
X0384176Y0323560D01*
X0383895Y0323841D01*
X0383528Y0323993D01*
D02*
G37*
G36*
X0383332Y0320893D02*
X0382934D01*
X0382567Y0320741D01*
X0382285Y0320460D01*
X0382133Y0320092D01*
Y0319694D01*
X0382285Y0319327D01*
X0382567Y0319046D01*
X0382934Y0318893D01*
X0383332D01*
X0383700Y0319046D01*
X0383981Y0319327D01*
X0384133Y0319694D01*
Y0320092D01*
X0383981Y0320460D01*
X0383700Y0320741D01*
X0383332Y0320893D01*
D02*
G37*
G36*
X0383701Y0317968D02*
X0383304D01*
X0382936Y0317816D01*
X0382655Y0317534D01*
X0382503Y0317167D01*
Y0316769D01*
X0382655Y0316401D01*
X0382936Y0316120D01*
X0383304Y0315968D01*
X0383701D01*
X0384069Y0316120D01*
X0384350Y0316401D01*
X0384503Y0316769D01*
Y0317167D01*
X0384350Y0317534D01*
X0384069Y0317816D01*
X0383701Y0317968D01*
D02*
G37*
G36*
X0383332Y0314562D02*
X0382934D01*
X0382567Y0314409D01*
X0382285Y0314128D01*
X0382133Y0313760D01*
Y0313363D01*
X0382285Y0312995D01*
X0382567Y0312714D01*
X0382934Y0312561D01*
X0383332D01*
X0383700Y0312714D01*
X0383981Y0312995D01*
X0384133Y0313363D01*
Y0313760D01*
X0383981Y0314128D01*
X0383700Y0314409D01*
X0383332Y0314562D01*
D02*
G37*
G36*
X0395781Y0407906D02*
X0395355Y0407822D01*
X0394993Y0407580D01*
X0394751Y0407218D01*
X0394666Y0406791D01*
X0394751Y0406365D01*
X0394993Y0406003D01*
X0395355Y0405761D01*
X0395781Y0405676D01*
X0396208Y0405761D01*
X0396570Y0406003D01*
X0396812Y0406365D01*
X0396897Y0406791D01*
X0396812Y0407218D01*
X0396570Y0407580D01*
X0396208Y0407822D01*
X0395781Y0407906D01*
D02*
G37*
G36*
X0395871Y0404945D02*
X0395444Y0404860D01*
X0395082Y0404618D01*
X0394841Y0404256D01*
X0394756Y0403830D01*
X0394841Y0403403D01*
X0395082Y0403041D01*
X0395444Y0402800D01*
X0395871Y0402715D01*
X0396297Y0402800D01*
X0396659Y0403041D01*
X0396901Y0403403D01*
X0396986Y0403830D01*
X0396901Y0404256D01*
X0396659Y0404618D01*
X0396297Y0404860D01*
X0395871Y0404945D01*
D02*
G37*
G36*
X0414646Y0401570D02*
X0414256Y0401493D01*
X0413925Y0401272D01*
X0413704Y0400941D01*
X0413626Y0400551D01*
X0413704Y0400160D01*
X0413925Y0399830D01*
X0414256Y0399609D01*
X0414646Y0399531D01*
X0415036Y0399609D01*
X0415367Y0399830D01*
X0415588Y0400160D01*
X0415665Y0400551D01*
X0415588Y0400941D01*
X0415367Y0401272D01*
X0415036Y0401493D01*
X0414646Y0401570D01*
D02*
G37*
G36*
X0411574Y0401560D02*
X0411184Y0401482D01*
X0410853Y0401261D01*
X0410632Y0400930D01*
X0410555Y0400540D01*
X0410632Y0400150D01*
X0410853Y0399819D01*
X0411184Y0399598D01*
X0411574Y0399521D01*
X0411964Y0399598D01*
X0412295Y0399819D01*
X0412516Y0400150D01*
X0412594Y0400540D01*
X0412516Y0400930D01*
X0412295Y0401261D01*
X0411964Y0401482D01*
X0411574Y0401560D01*
D02*
G37*
G36*
X0450629Y0399826D02*
X0450239Y0399748D01*
X0449908Y0399527D01*
X0449687Y0399196D01*
X0449610Y0398806D01*
X0449687Y0398416D01*
X0449908Y0398085D01*
X0450239Y0397864D01*
X0450629Y0397786D01*
X0451020Y0397864D01*
X0451350Y0398085D01*
X0451571Y0398416D01*
X0451649Y0398806D01*
X0451571Y0399196D01*
X0451350Y0399527D01*
X0451020Y0399748D01*
X0450629Y0399826D01*
D02*
G37*
G36*
X0460090Y0399729D02*
X0459700Y0399652D01*
X0459369Y0399431D01*
X0459148Y0399100D01*
X0459070Y0398710D01*
X0459148Y0398320D01*
X0459369Y0397989D01*
X0459700Y0397768D01*
X0460090Y0397690D01*
X0460480Y0397768D01*
X0460811Y0397989D01*
X0461032Y0398320D01*
X0461110Y0398710D01*
X0461032Y0399100D01*
X0460811Y0399431D01*
X0460480Y0399652D01*
X0460090Y0399729D01*
D02*
G37*
G36*
X0455661Y0399689D02*
X0455271Y0399611D01*
X0454941Y0399391D01*
X0454719Y0399060D01*
X0454642Y0398670D01*
X0454719Y0398279D01*
X0454941Y0397949D01*
X0455271Y0397727D01*
X0455661Y0397650D01*
X0456052Y0397727D01*
X0456382Y0397949D01*
X0456603Y0398279D01*
X0456681Y0398670D01*
X0456603Y0399060D01*
X0456382Y0399391D01*
X0456052Y0399611D01*
X0455661Y0399689D01*
D02*
G37*
G36*
X0395738Y0398583D02*
X0395311Y0398498D01*
X0394950Y0398257D01*
X0394708Y0397895D01*
X0394623Y0397468D01*
X0394708Y0397041D01*
X0394950Y0396680D01*
X0395311Y0396438D01*
X0395738Y0396353D01*
X0396165Y0396438D01*
X0396527Y0396680D01*
X0396768Y0397041D01*
X0396853Y0397468D01*
X0396768Y0397895D01*
X0396527Y0398257D01*
X0396165Y0398498D01*
X0395738Y0398583D01*
D02*
G37*
G36*
X0411627Y0395369D02*
X0411237Y0395291D01*
X0410906Y0395070D01*
X0410685Y0394739D01*
X0410608Y0394349D01*
X0410685Y0393959D01*
X0410906Y0393628D01*
X0411237Y0393407D01*
X0411627Y0393329D01*
X0412017Y0393407D01*
X0412348Y0393628D01*
X0412569Y0393959D01*
X0412647Y0394349D01*
X0412569Y0394739D01*
X0412348Y0395070D01*
X0412017Y0395291D01*
X0411627Y0395369D01*
D02*
G37*
G36*
X0414906Y0395240D02*
X0414516Y0395163D01*
X0414185Y0394942D01*
X0413964Y0394611D01*
X0413886Y0394221D01*
X0413964Y0393831D01*
X0414185Y0393500D01*
X0414516Y0393279D01*
X0414906Y0393201D01*
X0415296Y0393279D01*
X0415627Y0393500D01*
X0415848Y0393831D01*
X0415925Y0394221D01*
X0415848Y0394611D01*
X0415627Y0394942D01*
X0415296Y0395163D01*
X0414906Y0395240D01*
D02*
G37*
G36*
X0395738Y0395327D02*
X0395311Y0395242D01*
X0394950Y0395000D01*
X0394708Y0394638D01*
X0394623Y0394212D01*
X0394708Y0393785D01*
X0394950Y0393423D01*
X0395311Y0393181D01*
X0395738Y0393096D01*
X0396165Y0393181D01*
X0396527Y0393423D01*
X0396768Y0393785D01*
X0396853Y0394212D01*
X0396768Y0394638D01*
X0396527Y0395000D01*
X0396165Y0395242D01*
X0395738Y0395327D01*
D02*
G37*
G36*
X0389251Y0379620D02*
X0388824Y0379535D01*
X0388462Y0379293D01*
X0388221Y0378932D01*
X0388136Y0378505D01*
X0388221Y0378078D01*
X0388462Y0377716D01*
X0388824Y0377475D01*
X0389251Y0377390D01*
X0389678Y0377475D01*
X0390039Y0377716D01*
X0390281Y0378078D01*
X0390366Y0378505D01*
X0390281Y0378932D01*
X0390039Y0379293D01*
X0389678Y0379535D01*
X0389251Y0379620D01*
D02*
G37*
G36*
X0490267Y0361418D02*
X0489877Y0361340D01*
X0489546Y0361119D01*
X0489325Y0360788D01*
X0489248Y0360398D01*
X0489325Y0360008D01*
X0489546Y0359677D01*
X0489877Y0359456D01*
X0490267Y0359378D01*
X0490658Y0359456D01*
X0490988Y0359677D01*
X0491209Y0360008D01*
X0491287Y0360398D01*
X0491209Y0360788D01*
X0490988Y0361119D01*
X0490658Y0361340D01*
X0490267Y0361418D01*
D02*
G37*
G36*
X0395533Y0360865D02*
X0395106Y0360780D01*
X0394744Y0360539D01*
X0394503Y0360177D01*
X0394418Y0359750D01*
X0394503Y0359323D01*
X0394744Y0358962D01*
X0395106Y0358720D01*
X0395533Y0358635D01*
X0395960Y0358720D01*
X0396322Y0358962D01*
X0396563Y0359323D01*
X0396648Y0359750D01*
X0396563Y0360177D01*
X0396322Y0360539D01*
X0395960Y0360780D01*
X0395533Y0360865D01*
D02*
G37*
G36*
X0392516Y0336917D02*
X0392089Y0336832D01*
X0391727Y0336590D01*
X0391486Y0336228D01*
X0391401Y0335802D01*
X0391486Y0335375D01*
X0391727Y0335013D01*
X0392089Y0334771D01*
X0392516Y0334686D01*
X0392943Y0334771D01*
X0393304Y0335013D01*
X0393546Y0335375D01*
X0393631Y0335802D01*
X0393546Y0336228D01*
X0393304Y0336590D01*
X0392943Y0336832D01*
X0392516Y0336917D01*
D02*
G37*
G36*
X0393052Y0333801D02*
X0392625Y0333716D01*
X0392263Y0333474D01*
X0392021Y0333113D01*
X0391936Y0332686D01*
X0392021Y0332259D01*
X0392263Y0331897D01*
X0392625Y0331656D01*
X0393052Y0331571D01*
X0393478Y0331656D01*
X0393840Y0331897D01*
X0394082Y0332259D01*
X0394167Y0332686D01*
X0394082Y0333113D01*
X0393840Y0333474D01*
X0393478Y0333716D01*
X0393052Y0333801D01*
D02*
G37*
G36*
X0411655Y0327345D02*
X0411265Y0327267D01*
X0410934Y0327046D01*
X0410713Y0326715D01*
X0410635Y0326325D01*
X0410713Y0325935D01*
X0410934Y0325604D01*
X0411265Y0325383D01*
X0411655Y0325306D01*
X0412045Y0325383D01*
X0412376Y0325604D01*
X0412597Y0325935D01*
X0412674Y0326325D01*
X0412597Y0326715D01*
X0412376Y0327046D01*
X0412045Y0327267D01*
X0411655Y0327345D01*
D02*
G37*
G36*
X0395691Y0327260D02*
X0395264Y0327175D01*
X0394902Y0326933D01*
X0394660Y0326572D01*
X0394576Y0326145D01*
X0394660Y0325718D01*
X0394902Y0325356D01*
X0395264Y0325115D01*
X0395691Y0325030D01*
X0396117Y0325115D01*
X0396479Y0325356D01*
X0396721Y0325718D01*
X0396806Y0326145D01*
X0396721Y0326572D01*
X0396479Y0326933D01*
X0396117Y0327175D01*
X0395691Y0327260D01*
D02*
G37*
G36*
X0389446Y0308464D02*
X0389055Y0308386D01*
X0388725Y0308165D01*
X0388504Y0307834D01*
X0388426Y0307444D01*
X0388504Y0307054D01*
X0388725Y0306723D01*
X0389055Y0306502D01*
X0389446Y0306424D01*
X0389836Y0306502D01*
X0390167Y0306723D01*
X0390388Y0307054D01*
X0390465Y0307444D01*
X0390388Y0307834D01*
X0390167Y0308165D01*
X0389836Y0308386D01*
X0389446Y0308464D01*
D02*
G37*
G36*
X0397381Y0308492D02*
X0396954Y0308407D01*
X0396593Y0308165D01*
X0396351Y0307803D01*
X0396266Y0307377D01*
X0396351Y0306950D01*
X0396593Y0306588D01*
X0396954Y0306346D01*
X0397381Y0306261D01*
X0397808Y0306346D01*
X0398170Y0306588D01*
X0398411Y0306950D01*
X0398496Y0307377D01*
X0398411Y0307803D01*
X0398170Y0308165D01*
X0397808Y0308407D01*
X0397381Y0308492D01*
D02*
G37*
G36*
X0395690Y0289631D02*
X0395263Y0289546D01*
X0394901Y0289305D01*
X0394660Y0288943D01*
X0394575Y0288516D01*
X0394660Y0288089D01*
X0394901Y0287728D01*
X0395263Y0287486D01*
X0395690Y0287401D01*
X0396117Y0287486D01*
X0396479Y0287728D01*
X0396720Y0288089D01*
X0396805Y0288516D01*
X0396720Y0288943D01*
X0396479Y0289305D01*
X0396117Y0289546D01*
X0395690Y0289631D01*
D02*
G37*
%LPD*%
G54D11*
X0497200Y0080717D02*
Y0101050D01*
X0413200Y0080717D02*
Y0101050D01*
X0040000Y0080717D02*
X0700200D01*
X0040000Y0060383D02*
X0700000D01*
X0040000Y0040050D02*
X0440500D01*
X0040050Y0101050D02*
X0700200D01*
X0040050Y0040050D02*
Y0101050D01*
Y0040050D02*
X0197600D01*
X0040000D02*
Y0101050D01*
X0286500Y0040050D02*
Y0101050D01*
X0700200Y0040050D02*
Y0101050D01*
X0440500Y0040050D02*
X0700200D01*
X0559400Y0039400D02*
Y0059683D01*
G54D13*
X0429134Y0163999D02*
X0427920Y0165213D01*
X0425493D01*
X0424279Y0163999D01*
Y0159145D01*
X0425493Y0157931D01*
X0427920D01*
X0429134Y0159145D01*
Y0161572D01*
X0426707D01*
X0431561Y0157931D02*
Y0165213D01*
X0436415Y0157931D01*
Y0165213D01*
X0438842D02*
Y0157931D01*
X0442482D01*
X0443696Y0159145D01*
Y0163999D01*
X0442482Y0165213D01*
X0438842D01*
X0446123Y0157931D02*
X0450977Y0162786D01*
X0453404Y0157931D02*
Y0165213D01*
X0457044D01*
X0458258Y0163999D01*
Y0161572D01*
X0457044Y0160359D01*
X0453404D01*
X0460685Y0165213D02*
Y0157931D01*
X0463112Y0160359D01*
X0465539Y0157931D01*
Y0165213D01*
X0467966Y0157931D02*
Y0165213D01*
X0471607D01*
X0472820Y0163999D01*
Y0161572D01*
X0471607Y0160359D01*
X0467966D01*
X0470393D02*
X0472820Y0157931D01*
X0475247D02*
X0477674D01*
X0476461D01*
Y0165213D01*
X0475247Y0163999D01*
G54D14*
X0501084Y0394212D02*
Y0416627D01*
X0491579Y0426131D02*
X0501084Y0416627D01*
X0428979Y0426131D02*
X0491579D01*
X0427123Y0424275D02*
X0428979Y0426131D01*
X0411053Y0424275D02*
X0427123D01*
X0499754Y0392353D02*
X0499777Y0392329D01*
G54D20*
X0567400Y0087833D02*
Y0093831D01*
X0571399Y0087833D01*
Y0093831D01*
X0574398Y0087833D02*
X0576397D01*
X0577397Y0088833D01*
Y0090832D01*
X0576397Y0091832D01*
X0574398D01*
X0573398Y0090832D01*
Y0088833D01*
X0574398Y0087833D01*
X0580396Y0092832D02*
Y0091832D01*
X0579396D01*
X0581395D01*
X0580396D01*
Y0088833D01*
X0581395Y0087833D01*
X0590393D02*
X0592392D01*
X0591392D01*
Y0091832D01*
X0590393D01*
X0595391Y0087833D02*
Y0091832D01*
X0598390D01*
X0599390Y0090832D01*
Y0087833D01*
X0607387Y0091832D02*
X0609386Y0087833D01*
X0611386Y0091832D01*
X0616384Y0087833D02*
X0614385D01*
X0613385Y0088833D01*
Y0090832D01*
X0614385Y0091832D01*
X0616384D01*
X0617384Y0090832D01*
Y0089833D01*
X0613385D01*
X0619383Y0091832D02*
Y0087833D01*
Y0089833D01*
X0620383Y0090832D01*
X0621383Y0091832D01*
X0622382D01*
X0625381Y0087833D02*
X0628380D01*
X0629380Y0088833D01*
X0628380Y0089833D01*
X0626381D01*
X0625381Y0090832D01*
X0626381Y0091832D01*
X0629380D01*
X0631379Y0087833D02*
X0633379D01*
X0632379D01*
Y0091832D01*
X0631379D01*
X0637377Y0087833D02*
X0639377D01*
X0640376Y0088833D01*
Y0090832D01*
X0639377Y0091832D01*
X0637377D01*
X0636378Y0090832D01*
Y0088833D01*
X0637377Y0087833D01*
X0642376D02*
Y0091832D01*
X0645375D01*
X0646374Y0090832D01*
Y0087833D01*
X0658371Y0091832D02*
X0655372D01*
X0654372Y0090832D01*
Y0088833D01*
X0655372Y0087833D01*
X0658371D01*
X0661370D02*
X0663369D01*
X0664369Y0088833D01*
Y0090832D01*
X0663369Y0091832D01*
X0661370D01*
X0660370Y0090832D01*
Y0088833D01*
X0661370Y0087833D01*
X0666368D02*
Y0091832D01*
X0669367D01*
X0670367Y0090832D01*
Y0087833D01*
X0673366Y0092832D02*
Y0091832D01*
X0672366D01*
X0674365D01*
X0673366D01*
Y0088833D01*
X0674365Y0087833D01*
X0677364Y0091832D02*
Y0087833D01*
Y0089833D01*
X0678364Y0090832D01*
X0679364Y0091832D01*
X0680364D01*
X0684362Y0087833D02*
X0686362D01*
X0687361Y0088833D01*
Y0090832D01*
X0686362Y0091832D01*
X0684362D01*
X0683362Y0090832D01*
Y0088833D01*
X0684362Y0087833D01*
X0689361D02*
X0691360D01*
X0690360D01*
Y0093831D01*
X0689361D01*
X0520799Y0092832D02*
X0519799Y0093831D01*
X0517800D01*
X0516800Y0092832D01*
Y0091832D01*
X0517800Y0090832D01*
X0519799D01*
X0520799Y0089833D01*
Y0088833D01*
X0519799Y0087833D01*
X0517800D01*
X0516800Y0088833D01*
X0522798Y0093831D02*
Y0089833D01*
X0524797Y0087833D01*
X0526797Y0089833D01*
Y0093831D01*
X0528796Y0087833D02*
Y0093831D01*
X0532795Y0087833D01*
Y0093831D01*
X0540792Y0087833D02*
Y0093831D01*
X0543791D01*
X0544791Y0092832D01*
Y0090832D01*
X0543791Y0089833D01*
X0540792D01*
X0542792D02*
X0544791Y0087833D01*
X0550789Y0093831D02*
X0546790D01*
Y0087833D01*
X0550789D01*
X0546790Y0090832D02*
X0548790D01*
X0552788Y0093831D02*
Y0089833D01*
X0554788Y0087833D01*
X0556787Y0089833D01*
Y0093831D01*
X0558786Y0091832D02*
X0559786D01*
Y0090832D01*
X0558786D01*
Y0091832D01*
Y0088833D02*
X0559786D01*
Y0087833D01*
X0558786D01*
Y0088833D01*
X0433000Y0087833D02*
Y0093831D01*
X0435999D01*
X0436999Y0092832D01*
Y0090832D01*
X0435999Y0089833D01*
X0433000D01*
X0434999D02*
X0436999Y0087833D01*
X0442997Y0093831D02*
X0438998D01*
Y0087833D01*
X0442997D01*
X0438998Y0090832D02*
X0440997D01*
X0444996Y0093831D02*
Y0089833D01*
X0446995Y0087833D01*
X0448995Y0089833D01*
Y0093831D01*
X0450994Y0091832D02*
X0451994D01*
Y0090832D01*
X0450994D01*
Y0091832D01*
Y0088833D02*
X0451994D01*
Y0087833D01*
X0450994D01*
Y0088833D01*
X0126900Y0052965D02*
X0130899D01*
Y0051965D01*
X0126900Y0047966D01*
Y0046966D01*
X0132898D02*
X0134897D01*
X0133898D01*
Y0052965D01*
X0132898Y0051965D01*
X0137896D02*
X0138896Y0052965D01*
X0140895D01*
X0141895Y0051965D01*
Y0047966D01*
X0140895Y0046966D01*
X0138896D01*
X0137896Y0047966D01*
Y0051965D01*
X0143895D02*
X0144894Y0052965D01*
X0146894D01*
X0147893Y0051965D01*
Y0047966D01*
X0146894Y0046966D01*
X0144894D01*
X0143895Y0047966D01*
Y0051965D01*
X0149893Y0049966D02*
X0153891D01*
X0155891Y0051965D02*
X0156890Y0052965D01*
X0158890D01*
X0159889Y0051965D01*
Y0047966D01*
X0158890Y0046966D01*
X0156890D01*
X0155891Y0047966D01*
Y0051965D01*
X0161889D02*
X0162888Y0052965D01*
X0164888D01*
X0165887Y0051965D01*
Y0047966D01*
X0164888Y0046966D01*
X0162888D01*
X0161889Y0047966D01*
Y0051965D01*
X0167887D02*
X0168886Y0052965D01*
X0170886D01*
X0171885Y0051965D01*
Y0047966D01*
X0170886Y0046966D01*
X0168886D01*
X0167887Y0047966D01*
Y0051965D01*
X0173885D02*
X0174884Y0052965D01*
X0176884D01*
X0177884Y0051965D01*
Y0047966D01*
X0176884Y0046966D01*
X0174884D01*
X0173885Y0047966D01*
Y0051965D01*
X0179883D02*
X0180883Y0052965D01*
X0182882D01*
X0183882Y0051965D01*
Y0050965D01*
X0182882Y0049966D01*
X0181882D01*
X0182882D01*
X0183882Y0048966D01*
Y0047966D01*
X0182882Y0046966D01*
X0180883D01*
X0179883Y0047966D01*
X0191879Y0052965D02*
Y0047966D01*
X0192879Y0046966D01*
X0194878D01*
X0195878Y0047966D01*
Y0052965D01*
X0201876Y0051965D02*
X0200876Y0052965D01*
X0198877D01*
X0197877Y0051965D01*
Y0050965D01*
X0198877Y0049966D01*
X0200876D01*
X0201876Y0048966D01*
Y0047966D01*
X0200876Y0046966D01*
X0198877D01*
X0197877Y0047966D01*
X0203875Y0052965D02*
X0207874D01*
X0205874D01*
Y0046966D01*
X0209873Y0050965D02*
X0213872Y0046966D01*
X0211873Y0048966D01*
X0213872Y0050965D01*
X0209873Y0046966D01*
X0221869Y0052965D02*
Y0046966D01*
X0224868D01*
X0225868Y0047966D01*
Y0048966D01*
X0224868Y0049966D01*
X0221869D01*
X0224868D01*
X0225868Y0050965D01*
Y0051965D01*
X0224868Y0052965D01*
X0221869D01*
X0228867Y0046966D02*
X0230866D01*
X0231866Y0047966D01*
Y0049966D01*
X0230866Y0050965D01*
X0228867D01*
X0227867Y0049966D01*
Y0047966D01*
X0228867Y0046966D01*
X0234865Y0050965D02*
X0236864D01*
X0237864Y0049966D01*
Y0046966D01*
X0234865D01*
X0233865Y0047966D01*
X0234865Y0048966D01*
X0237864D01*
X0239863Y0050965D02*
Y0046966D01*
Y0048966D01*
X0240863Y0049966D01*
X0241863Y0050965D01*
X0242863D01*
X0249860Y0052965D02*
Y0046966D01*
X0246861D01*
X0245862Y0047966D01*
Y0049966D01*
X0246861Y0050965D01*
X0249860D01*
X0257858Y0052965D02*
Y0048966D01*
X0259857Y0046966D01*
X0261856Y0048966D01*
Y0052965D01*
X0263856Y0046966D02*
Y0047966D01*
X0264855D01*
Y0046966D01*
X0263856D01*
X0268854Y0051965D02*
X0269854Y0052965D01*
X0271853D01*
X0272853Y0051965D01*
Y0047966D01*
X0271853Y0046966D01*
X0269854D01*
X0268854Y0047966D01*
Y0051965D01*
X0274852Y0046966D02*
Y0047966D01*
X0275852D01*
Y0046966D01*
X0274852D01*
X0282850D02*
Y0052965D01*
X0279851Y0049966D01*
X0283849D01*
X0285849Y0046966D02*
Y0047966D01*
X0286848D01*
Y0046966D01*
X0285849D01*
X0290847D02*
X0292846D01*
X0291847D01*
Y0052965D01*
X0290847Y0051965D01*
X0295845Y0046966D02*
Y0047966D01*
X0296845D01*
Y0046966D01*
X0295845D01*
X0304842Y0051965D02*
X0303843Y0052965D01*
X0301843D01*
X0300844Y0051965D01*
Y0047966D01*
X0301843Y0046966D01*
X0303843D01*
X0304842Y0047966D01*
Y0049966D01*
X0302843D01*
X0306842Y0051965D02*
X0307841Y0052965D01*
X0309841D01*
X0310841Y0051965D01*
Y0050965D01*
X0309841Y0049966D01*
X0308841D01*
X0309841D01*
X0310841Y0048966D01*
Y0047966D01*
X0309841Y0046966D01*
X0307841D01*
X0306842Y0047966D01*
X0381150Y0046966D02*
X0383149D01*
X0382150D01*
Y0052965D01*
X0381150Y0051965D01*
X0386148Y0046966D02*
X0390147Y0050965D01*
X0396145Y0046966D02*
X0392146D01*
X0396145Y0050965D01*
Y0051965D01*
X0395146Y0052965D01*
X0393146D01*
X0392146Y0051965D01*
X0398145D02*
X0399144Y0052965D01*
X0401144D01*
X0402143Y0051965D01*
Y0050965D01*
X0401144Y0049966D01*
X0402143Y0048966D01*
Y0047966D01*
X0401144Y0046966D01*
X0399144D01*
X0398145Y0047966D01*
Y0048966D01*
X0399144Y0049966D01*
X0398145Y0050965D01*
Y0051965D01*
X0399144Y0049966D02*
X0401144D01*
X0404143Y0046966D02*
X0408141Y0050965D01*
X0414139Y0046966D02*
X0410141D01*
X0414139Y0050965D01*
Y0051965D01*
X0413140Y0052965D01*
X0411140D01*
X0410141Y0051965D01*
X0416139D02*
X0417138Y0052965D01*
X0419138D01*
X0420137Y0051965D01*
Y0047966D01*
X0419138Y0046966D01*
X0417138D01*
X0416139Y0047966D01*
Y0051965D01*
X0426135Y0046966D02*
X0422137D01*
X0426135Y0050965D01*
Y0051965D01*
X0425136Y0052965D01*
X0423136D01*
X0422137Y0051965D01*
X0432133Y0052965D02*
X0428135D01*
Y0049966D01*
X0430134Y0050965D01*
X0431134D01*
X0432133Y0049966D01*
Y0047966D01*
X0431134Y0046966D01*
X0429135D01*
X0428135Y0047966D01*
X0298199Y0051965D02*
X0297199Y0052965D01*
X0295200D01*
X0294200Y0051965D01*
Y0047966D01*
X0295200Y0046966D01*
X0297199D01*
X0298199Y0047966D01*
Y0049966D01*
X0296199D01*
X0304197Y0052965D02*
X0300198D01*
Y0046966D01*
X0304197D01*
X0300198Y0049966D02*
X0302197D01*
X0306196Y0046966D02*
Y0052965D01*
X0310195Y0046966D01*
Y0052965D01*
X0316193D02*
X0312194D01*
Y0046966D01*
X0316193D01*
X0312194Y0049966D02*
X0314194D01*
X0318192Y0046966D02*
Y0052965D01*
X0321191D01*
X0322191Y0051965D01*
Y0049966D01*
X0321191Y0048966D01*
X0318192D01*
X0320192D02*
X0322191Y0046966D01*
X0324190D02*
Y0050965D01*
X0326190Y0052965D01*
X0328189Y0050965D01*
Y0046966D01*
Y0049966D01*
X0324190D01*
X0330188Y0052965D02*
X0334187D01*
X0332188D01*
Y0046966D01*
X0340185Y0052965D02*
X0336186D01*
Y0046966D01*
X0340185D01*
X0336186Y0049966D02*
X0338186D01*
X0342184Y0052965D02*
Y0046966D01*
X0345183D01*
X0346183Y0047966D01*
Y0051965D01*
X0345183Y0052965D01*
X0342184D01*
X0372175Y0050965D02*
X0373175D01*
Y0049966D01*
X0372175D01*
Y0050965D01*
Y0047966D02*
X0373175D01*
Y0046966D01*
X0372175D01*
Y0047966D01*
X0041778Y0083375D02*
Y0087374D01*
X0043777Y0089373D01*
X0045777Y0087374D01*
Y0083375D01*
Y0086374D01*
X0041778D01*
X0047776Y0089373D02*
Y0083375D01*
X0051775D01*
X0053774Y0089373D02*
Y0083375D01*
X0057773D01*
X0065770D02*
Y0087374D01*
X0067769Y0089373D01*
X0069769Y0087374D01*
Y0083375D01*
Y0086374D01*
X0065770D01*
X0071768Y0083375D02*
Y0089373D01*
X0074767D01*
X0075767Y0088373D01*
Y0086374D01*
X0074767Y0085374D01*
X0071768D01*
X0073768D02*
X0075767Y0083375D01*
X0077766Y0089373D02*
X0081765D01*
X0079766D01*
Y0083375D01*
X0083764Y0089373D02*
Y0083375D01*
X0085764Y0085374D01*
X0087763Y0083375D01*
Y0089373D01*
X0092761D02*
X0090762D01*
X0089762Y0088373D01*
Y0084374D01*
X0090762Y0083375D01*
X0092761D01*
X0093761Y0084374D01*
Y0088373D01*
X0092761Y0089373D01*
X0095760Y0083375D02*
Y0089373D01*
X0098759D01*
X0099759Y0088373D01*
Y0086374D01*
X0098759Y0085374D01*
X0095760D01*
X0097760D02*
X0099759Y0083375D01*
X0101759Y0089373D02*
Y0083375D01*
Y0085374D01*
X0105757Y0089373D01*
X0102758Y0086374D01*
X0105757Y0083375D01*
X0113755Y0089373D02*
Y0085374D01*
X0115754Y0083375D01*
X0117753Y0085374D01*
Y0089373D01*
X0119753D02*
X0121752D01*
X0120752D01*
Y0083375D01*
X0119753D01*
X0121752D01*
X0128750Y0089373D02*
X0124751D01*
Y0083375D01*
X0128750D01*
X0124751Y0086374D02*
X0126750D01*
X0130749Y0089373D02*
Y0083375D01*
X0132748Y0085374D01*
X0134748Y0083375D01*
Y0089373D01*
X0140746D02*
X0136747D01*
Y0083375D01*
X0140746D01*
X0136747Y0086374D02*
X0138747D01*
X0142745Y0089373D02*
Y0083375D01*
X0145744D01*
X0146744Y0084374D01*
Y0088373D01*
X0145744Y0089373D01*
X0142745D01*
X0158740D02*
X0154741D01*
Y0086374D01*
X0156741D01*
X0154741D01*
Y0083375D01*
X0160739D02*
Y0089373D01*
X0163738D01*
X0164738Y0088373D01*
Y0086374D01*
X0163738Y0085374D01*
X0160739D01*
X0162739D02*
X0164738Y0083375D01*
X0169737Y0089373D02*
X0167737D01*
X0166737Y0088373D01*
Y0084374D01*
X0167737Y0083375D01*
X0169737D01*
X0170736Y0084374D01*
Y0088373D01*
X0169737Y0089373D01*
X0172736Y0083375D02*
Y0089373D01*
X0174735Y0087374D01*
X0176734Y0089373D01*
Y0083375D01*
X0184732Y0089373D02*
X0188730D01*
X0186731D01*
Y0083375D01*
X0193729Y0089373D02*
X0191729D01*
X0190730Y0088373D01*
Y0084374D01*
X0191729Y0083375D01*
X0193729D01*
X0194728Y0084374D01*
Y0088373D01*
X0193729Y0089373D01*
X0196728Y0083375D02*
Y0089373D01*
X0199727D01*
X0200727Y0088373D01*
Y0086374D01*
X0199727Y0085374D01*
X0196728D01*
X0212723Y0088373D02*
X0211723Y0089373D01*
X0209723D01*
X0208724Y0088373D01*
Y0087374D01*
X0209723Y0086374D01*
X0211723D01*
X0212723Y0085374D01*
Y0084374D01*
X0211723Y0083375D01*
X0209723D01*
X0208724Y0084374D01*
X0214722Y0089373D02*
X0216721D01*
X0215722D01*
Y0083375D01*
X0214722D01*
X0216721D01*
X0219720Y0089373D02*
Y0083375D01*
X0222719D01*
X0223719Y0084374D01*
Y0088373D01*
X0222719Y0089373D01*
X0219720D01*
X0229717D02*
X0225718D01*
Y0083375D01*
X0229717D01*
X0225718Y0086374D02*
X0227718D01*
X0462150Y0092832D02*
X0463150Y0093831D01*
X0465149D01*
X0466149Y0092832D01*
Y0088833D01*
X0465149Y0087833D01*
X0463150D01*
X0462150Y0088833D01*
Y0092832D01*
X0348550Y0093831D02*
X0352549D01*
Y0092832D01*
X0348550Y0088833D01*
Y0087833D01*
X0354548D02*
X0356547D01*
X0355548D01*
Y0093831D01*
X0354548Y0092832D01*
X0359546D02*
X0360546Y0093831D01*
X0362545D01*
X0363545Y0092832D01*
Y0088833D01*
X0362545Y0087833D01*
X0360546D01*
X0359546Y0088833D01*
Y0092832D01*
X0365545D02*
X0366544Y0093831D01*
X0368544D01*
X0369543Y0092832D01*
Y0088833D01*
X0368544Y0087833D01*
X0366544D01*
X0365545Y0088833D01*
Y0092832D01*
X0371543Y0090832D02*
X0375541D01*
X0377541Y0092832D02*
X0378540Y0093831D01*
X0380540D01*
X0381539Y0092832D01*
Y0088833D01*
X0380540Y0087833D01*
X0378540D01*
X0377541Y0088833D01*
Y0092832D01*
X0383539D02*
X0384538Y0093831D01*
X0386538D01*
X0387537Y0092832D01*
Y0088833D01*
X0386538Y0087833D01*
X0384538D01*
X0383539Y0088833D01*
Y0092832D01*
X0389537D02*
X0390536Y0093831D01*
X0392536D01*
X0393535Y0092832D01*
Y0088833D01*
X0392536Y0087833D01*
X0390536D01*
X0389537Y0088833D01*
Y0092832D01*
X0395535D02*
X0396534Y0093831D01*
X0398534D01*
X0399534Y0092832D01*
Y0088833D01*
X0398534Y0087833D01*
X0396534D01*
X0395535Y0088833D01*
Y0092832D01*
X0401533D02*
X0402532Y0093831D01*
X0404532D01*
X0405532Y0092832D01*
Y0091832D01*
X0404532Y0090832D01*
X0403532D01*
X0404532D01*
X0405532Y0089833D01*
Y0088833D01*
X0404532Y0087833D01*
X0402532D01*
X0401533Y0088833D01*
X0294000Y0093831D02*
Y0087833D01*
X0296999D01*
X0297999Y0088833D01*
Y0089833D01*
X0296999Y0090832D01*
X0294000D01*
X0296999D01*
X0297999Y0091832D01*
Y0092832D01*
X0296999Y0093831D01*
X0294000D01*
X0302997D02*
X0300998D01*
X0299998Y0092832D01*
Y0088833D01*
X0300998Y0087833D01*
X0302997D01*
X0303997Y0088833D01*
Y0092832D01*
X0302997Y0093831D01*
X0305996Y0087833D02*
Y0091832D01*
X0307996Y0093831D01*
X0309995Y0091832D01*
Y0087833D01*
Y0090832D01*
X0305996D01*
X0311994Y0087833D02*
Y0093831D01*
X0314993D01*
X0315993Y0092832D01*
Y0090832D01*
X0314993Y0089833D01*
X0311994D01*
X0313994D02*
X0315993Y0087833D01*
X0317992Y0093831D02*
Y0087833D01*
X0320991D01*
X0321991Y0088833D01*
Y0092832D01*
X0320991Y0093831D01*
X0317992D01*
X0330988Y0087833D02*
Y0093831D01*
X0332987D02*
Y0087833D01*
X0329988Y0091832D02*
X0332987D01*
X0333987D01*
X0329988Y0089833D02*
X0333987D01*
X0335986Y0091832D02*
X0336986D01*
Y0090832D01*
X0335986D01*
Y0091832D01*
Y0088833D02*
X0336986D01*
Y0087833D01*
X0335986D01*
Y0088833D01*
X0046350Y0073549D02*
Y0067551D01*
X0050349D01*
X0052348D02*
Y0071549D01*
X0054347Y0073549D01*
X0056347Y0071549D01*
Y0067551D01*
Y0070550D01*
X0052348D01*
X0058346Y0073549D02*
Y0072549D01*
X0060346Y0070550D01*
X0062345Y0072549D01*
Y0073549D01*
X0060346Y0070550D02*
Y0067551D01*
X0068343Y0073549D02*
X0064344D01*
Y0067551D01*
X0068343D01*
X0064344Y0070550D02*
X0066343D01*
X0070342Y0067551D02*
Y0073549D01*
X0073341D01*
X0074341Y0072549D01*
Y0070550D01*
X0073341Y0069550D01*
X0070342D01*
X0072342D02*
X0074341Y0067551D01*
X0082338D02*
Y0073549D01*
X0086337Y0067551D01*
Y0073549D01*
X0088336Y0067551D02*
Y0071549D01*
X0090336Y0073549D01*
X0092335Y0071549D01*
Y0067551D01*
Y0070550D01*
X0088336D01*
X0094335Y0067551D02*
Y0073549D01*
X0096334Y0071549D01*
X0098333Y0073549D01*
Y0067551D01*
X0104331Y0073549D02*
X0100332D01*
Y0067551D01*
X0104331D01*
X0100332Y0070550D02*
X0102332D01*
X0112329Y0069550D02*
X0116327D01*
X0112329Y0071549D02*
X0116327D01*
X0046350Y0046966D02*
Y0052965D01*
X0049349D01*
X0050349Y0051965D01*
Y0049966D01*
X0049349Y0048966D01*
X0046350D01*
X0052348Y0052965D02*
Y0046966D01*
X0056347D01*
X0061345Y0052965D02*
X0059346D01*
X0058346Y0051965D01*
Y0047966D01*
X0059346Y0046966D01*
X0061345D01*
X0062345Y0047966D01*
Y0051965D01*
X0061345Y0052965D01*
X0064344D02*
X0068343D01*
X0066343D01*
Y0046966D01*
X0076340D02*
Y0052965D01*
X0080339Y0046966D01*
Y0052965D01*
X0082338Y0046966D02*
Y0050965D01*
X0084338Y0052965D01*
X0086337Y0050965D01*
Y0046966D01*
Y0049966D01*
X0082338D01*
X0088336Y0046966D02*
Y0052965D01*
X0090336Y0050965D01*
X0092335Y0052965D01*
Y0046966D01*
X0098333Y0052965D02*
X0094335D01*
Y0046966D01*
X0098333D01*
X0094335Y0049966D02*
X0096334D01*
X0106331Y0048966D02*
X0110329D01*
X0106331Y0050965D02*
X0110329D01*
X0454050Y0046966D02*
X0456049D01*
X0455050D01*
Y0052965D01*
X0454050Y0051965D01*
X0463047Y0046966D02*
X0459048D01*
X0463047Y0050965D01*
Y0051965D01*
X0462047Y0052965D01*
X0460048D01*
X0459048Y0051965D01*
X0465046Y0050965D02*
X0466046D01*
Y0049966D01*
X0465046D01*
Y0050965D01*
Y0047966D02*
X0466046D01*
Y0046966D01*
X0465046D01*
Y0047966D01*
X0470045Y0051965D02*
X0471044Y0052965D01*
X0473044D01*
X0474044Y0051965D01*
Y0050965D01*
X0473044Y0049966D01*
X0472044D01*
X0473044D01*
X0474044Y0048966D01*
Y0047966D01*
X0473044Y0046966D01*
X0471044D01*
X0470045Y0047966D01*
X0476043Y0046966D02*
X0478042D01*
X0477043D01*
Y0052965D01*
X0476043Y0051965D01*
X0481041Y0050965D02*
X0482041D01*
Y0049966D01*
X0481041D01*
Y0050965D01*
Y0047966D02*
X0482041D01*
Y0046966D01*
X0481041D01*
Y0047966D01*
X0486040Y0051965D02*
X0487039Y0052965D01*
X0489039D01*
X0490038Y0051965D01*
Y0050965D01*
X0489039Y0049966D01*
X0488039D01*
X0489039D01*
X0490038Y0048966D01*
Y0047966D01*
X0489039Y0046966D01*
X0487039D01*
X0486040Y0047966D01*
X0492038Y0051965D02*
X0493037Y0052965D01*
X0495037D01*
X0496036Y0051965D01*
Y0050965D01*
X0495037Y0049966D01*
X0496036Y0048966D01*
Y0047966D01*
X0495037Y0046966D01*
X0493037D01*
X0492038Y0047966D01*
Y0048966D01*
X0493037Y0049966D01*
X0492038Y0050965D01*
Y0051965D01*
X0493037Y0049966D02*
X0495037D01*
X0504034Y0046966D02*
Y0052965D01*
X0507033D01*
X0508033Y0051965D01*
Y0049966D01*
X0507033Y0048966D01*
X0504034D01*
X0510032Y0046966D02*
Y0052965D01*
X0512031Y0050965D01*
X0514031Y0052965D01*
Y0046966D01*
X0604409Y0053922D02*
X0602409D01*
X0601409Y0052922D01*
Y0048923D01*
X0602409Y0047924D01*
X0604409D01*
X0605408Y0048923D01*
Y0052922D01*
X0604409Y0053922D01*
X0607408Y0045924D02*
Y0051922D01*
X0610407D01*
X0611406Y0050923D01*
Y0048923D01*
X0610407Y0047924D01*
X0607408D01*
X0616405D02*
X0614405D01*
X0613406Y0048923D01*
Y0050923D01*
X0614405Y0051922D01*
X0616405D01*
X0617404Y0050923D01*
Y0049923D01*
X0613406D01*
X0619404Y0047924D02*
Y0051922D01*
X0622403D01*
X0623402Y0050923D01*
Y0047924D01*
X0625402Y0053922D02*
Y0047924D01*
X0627401Y0049923D01*
X0629400Y0047924D01*
Y0053922D01*
X0632400Y0051922D02*
X0634399D01*
X0635398Y0050923D01*
Y0047924D01*
X0632400D01*
X0631400Y0048923D01*
X0632400Y0049923D01*
X0635398D01*
X0638398Y0052922D02*
Y0051922D01*
X0637398D01*
X0639397D01*
X0638398D01*
Y0048923D01*
X0639397Y0047924D01*
X0645395D02*
X0643396D01*
X0642396Y0048923D01*
Y0050923D01*
X0643396Y0051922D01*
X0645395D01*
X0646395Y0050923D01*
Y0049923D01*
X0642396D01*
X0648394Y0051922D02*
Y0047924D01*
Y0049923D01*
X0649394Y0050923D01*
X0650394Y0051922D01*
X0651393D01*
X0294000Y0073498D02*
X0297999D01*
X0295999D01*
Y0067500D01*
X0299998Y0073498D02*
X0301997D01*
X0300998D01*
Y0067500D01*
X0299998D01*
X0301997D01*
X0304996Y0073498D02*
Y0067500D01*
X0307996D01*
X0308995Y0068500D01*
Y0072498D01*
X0307996Y0073498D01*
X0304996D01*
X0317992Y0067500D02*
Y0073498D01*
X0319992D02*
Y0067500D01*
X0316993Y0071499D02*
X0319992D01*
X0320991D01*
X0316993Y0069499D02*
X0320991D01*
X0322991Y0071499D02*
X0323990D01*
Y0070499D01*
X0322991D01*
Y0071499D01*
Y0068500D02*
X0323990D01*
Y0067500D01*
X0322991D01*
Y0068500D01*
X0348550Y0067500D02*
Y0073498D01*
X0352549Y0067500D01*
Y0073498D01*
X0354548Y0067500D02*
X0358547Y0071499D01*
X0360546Y0067500D02*
Y0071499D01*
X0362545Y0073498D01*
X0364545Y0071499D01*
Y0067500D01*
Y0070499D01*
X0360546D01*
G54D98*
X0519171Y0317801D02*
D03*
X0518641Y0314931D02*
D03*
X0507374Y0372914D02*
D03*
X0513426Y0327566D02*
D03*
X0513458Y0329385D02*
D03*
X0529119Y0342997D02*
D03*
X0452390Y0350175D02*
D03*
X0491267Y0357176D02*
D03*
X0522956Y0348689D02*
D03*
X0481264Y0328685D02*
D03*
X0478906Y0374057D02*
D03*
X0444302Y0316007D02*
D03*
X0442598Y0284385D02*
D03*
X0459894Y0394367D02*
D03*
X0453273Y0391452D02*
D03*
X0493224Y0367740D02*
D03*
X0491803Y0367750D02*
D03*
X0411053Y0424275D02*
D03*
X0482543Y0341378D02*
D03*
X0463854Y0376619D02*
D03*
X0441941Y0377222D02*
D03*
X0411770Y0289293D02*
D03*
X0385369Y0274537D02*
D03*
X0388385Y0275624D02*
D03*
X0385316Y0275668D02*
D03*
X0461102Y0375818D02*
D03*
X0473615Y0355701D02*
D03*
X0430018Y0283885D02*
D03*
X0427800Y0284253D02*
D03*
X0457175Y0334058D02*
D03*
X0468063Y0347545D02*
D03*
X0518859Y0327316D02*
D03*
X0470316Y0349106D02*
D03*
X0468554Y0391199D02*
D03*
X0455433Y0339634D02*
D03*
X0414767Y0326250D02*
D03*
X0459753Y0354377D02*
D03*
X0414169Y0360215D02*
D03*
X0490092Y0353801D02*
D03*
X0491746Y0353811D02*
D03*
X0384628Y0347338D02*
D03*
X0405108Y0381352D02*
D03*
X0383280Y0378587D02*
D03*
X0473663Y0383379D02*
D03*
X0513395Y0331152D02*
D03*
X0514311Y0353149D02*
D03*
X0388305Y0347401D02*
D03*
X0405146Y0310563D02*
D03*
X0414816Y0397052D02*
D03*
G54D99*
X0468915Y0326649D02*
D03*
X0464841Y0326653D02*
D03*
X0463352Y0318893D02*
D03*
X0463864Y0320904D02*
D03*
G54D100*
X0495286Y0317871D02*
D03*
X0497215Y0314739D02*
D03*
X0495311Y0315628D02*
D03*
X0401738Y0310299D02*
D03*
X0395784Y0282072D02*
D03*
X0396003Y0279221D02*
D03*
X0401931Y0381667D02*
D03*
X0395607Y0365965D02*
D03*
X0395588Y0294757D02*
D03*
X0394142Y0381617D02*
D03*
X0392887Y0303923D02*
D03*
X0388014Y0410218D02*
D03*
X0392982Y0307939D02*
D03*
X0388189Y0412975D02*
D03*
X0383272Y0307649D02*
D03*
X0383690Y0413411D02*
D03*
X0383924Y0409987D02*
D03*
X0395533Y0353423D02*
D03*
Y0350290D02*
D03*
X0395831Y0316449D02*
D03*
X0395642Y0387722D02*
D03*
M02*
