G04*
G04 #@! TF.GenerationSoftware,Altium Limited,Altium Designer,24.3.1 (35)*
G04*
G04 Layer_Color=128*
%FSAX25Y25*%
%MOIN*%
G70*
G04*
G04 #@! TF.SameCoordinates,9BAF8AC8-72E2-4161-A934-73288D8D8D4B*
G04*
G04*
G04 #@! TF.FilePolarity,Positive*
G04*
G01*
G75*
%ADD11C,0.01000*%
%ADD16C,0.00500*%
%ADD20C,0.00800*%
G54D11*
X0497200Y0080717D02*
Y0101050D01*
X0413200Y0080717D02*
Y0101050D01*
X0040000Y0080717D02*
X0700200D01*
X0040000Y0060383D02*
X0700000D01*
X0040000Y0040050D02*
X0440500D01*
X0040050Y0101050D02*
X0700200D01*
X0040050Y0040050D02*
Y0101050D01*
Y0040050D02*
X0197600D01*
X0040000D02*
Y0101050D01*
X0286500Y0040050D02*
Y0101050D01*
X0700200Y0040050D02*
Y0101050D01*
X0440500Y0040050D02*
X0700200D01*
X0559400Y0039400D02*
Y0059683D01*
G54D16*
X0542833Y0270286D02*
X0554733D01*
X0548783Y0264336D02*
Y0276236D01*
X0328451Y0270286D02*
X0340351D01*
X0334401Y0264336D02*
Y0276236D01*
X0328451Y0413156D02*
X0340351D01*
X0334401Y0407206D02*
Y0419106D01*
X0348238Y0294408D02*
X0351781D01*
X0350010Y0292636D02*
Y0296179D01*
X0348632Y0392439D02*
X0351388D01*
X0350010Y0391061D02*
Y0393817D01*
X0446432Y0330747D02*
X0448933D01*
X0447683Y0329497D02*
Y0331997D01*
X0485387Y0324285D02*
X0487887D01*
X0486637Y0323035D02*
Y0325535D01*
X0478277Y0317167D02*
X0480778D01*
X0479528Y0315917D02*
Y0318418D01*
X0477974Y0312035D02*
X0480474D01*
X0479224Y0310785D02*
Y0313285D01*
X0542833Y0413156D02*
X0554733D01*
X0548783Y0407206D02*
Y0419106D01*
X0346063Y0315869D02*
X0346663D01*
X0346363Y0315569D02*
Y0316169D01*
X0346107Y0313470D02*
X0346707D01*
X0346407Y0313170D02*
Y0313770D01*
X0346123Y0308363D02*
X0346723D01*
X0346423Y0308063D02*
Y0308663D01*
X0346126Y0303463D02*
X0346726D01*
X0346426Y0303163D02*
Y0303763D01*
X0346138Y0310820D02*
X0346738D01*
X0346438Y0310520D02*
Y0311120D01*
X0346181Y0305848D02*
X0346781D01*
X0346481Y0305548D02*
Y0306148D01*
X0353248Y0315834D02*
X0353848D01*
X0353548Y0315534D02*
Y0316135D01*
X0353265Y0303281D02*
X0353865D01*
X0353565Y0302981D02*
Y0303581D01*
X0353291Y0313436D02*
X0353891D01*
X0353591Y0313136D02*
Y0313736D01*
X0353324Y0310889D02*
X0353924D01*
X0353624Y0310589D02*
Y0311189D01*
X0353346Y0305910D02*
X0353946D01*
X0353646Y0305610D02*
Y0306210D01*
X0353399Y0308437D02*
X0353999D01*
X0353699Y0308137D02*
Y0308737D01*
X0346065Y0325932D02*
X0346665D01*
X0346365Y0325632D02*
Y0326232D01*
X0346078Y0323413D02*
X0346678D01*
X0346378Y0323113D02*
Y0323713D01*
X0346092Y0320927D02*
X0346692D01*
X0346392Y0320627D02*
Y0321227D01*
X0346118Y0335841D02*
X0346718D01*
X0346418Y0335541D02*
Y0336141D01*
X0346130Y0333363D02*
X0346730D01*
X0346430Y0333063D02*
Y0333663D01*
X0346136Y0318499D02*
X0346736D01*
X0346436Y0318199D02*
Y0318799D01*
X0346152Y0340898D02*
X0346752D01*
X0346452Y0340599D02*
Y0341198D01*
X0346163Y0330874D02*
X0346763D01*
X0346463Y0330574D02*
Y0331174D01*
X0346197Y0343455D02*
X0346797D01*
X0346497Y0343155D02*
Y0343755D01*
X0346197Y0328474D02*
X0346797D01*
X0346497Y0328174D02*
Y0328774D01*
X0346264Y0338454D02*
X0346864D01*
X0346564Y0338154D02*
Y0338754D01*
X0353233Y0338451D02*
X0353833D01*
X0353533Y0338151D02*
Y0338751D01*
X0353239Y0340972D02*
X0353839D01*
X0353539Y0340672D02*
Y0341272D01*
X0353250Y0325898D02*
X0353850D01*
X0353550Y0325598D02*
Y0326198D01*
X0353262Y0323378D02*
X0353863D01*
X0353562Y0323078D02*
Y0323678D01*
X0353276Y0336052D02*
X0353876D01*
X0353576Y0335752D02*
Y0336352D01*
X0353277Y0320893D02*
X0353877D01*
X0353577Y0320593D02*
Y0321193D01*
X0353308Y0333505D02*
X0353908D01*
X0353608Y0333205D02*
Y0333805D01*
X0353320Y0318465D02*
X0353920D01*
X0353620Y0318165D02*
Y0318765D01*
X0353330Y0328527D02*
X0353930D01*
X0353630Y0328227D02*
Y0328827D01*
X0353384Y0331053D02*
X0353984D01*
X0353684Y0330753D02*
Y0331353D01*
X0346059Y0368546D02*
X0346659D01*
X0346359Y0368246D02*
Y0368846D01*
X0346072Y0370996D02*
X0346672D01*
X0346372Y0370696D02*
Y0371296D01*
X0346121Y0356056D02*
X0346721D01*
X0346421Y0355756D02*
Y0356356D01*
X0346129Y0363493D02*
X0346729D01*
X0346429Y0363193D02*
Y0363793D01*
X0346141Y0360903D02*
X0346741D01*
X0346441Y0360603D02*
Y0361203D01*
X0346141Y0358470D02*
X0346741D01*
X0346441Y0358170D02*
Y0358770D01*
X0346141Y0350912D02*
X0346741D01*
X0346441Y0350612D02*
Y0351212D01*
X0346152Y0345922D02*
X0346752D01*
X0346452Y0345622D02*
Y0346222D01*
X0346152Y0353401D02*
X0346752D01*
X0346452Y0353101D02*
Y0353701D01*
X0346152Y0348423D02*
X0346752D01*
X0346452Y0348123D02*
Y0348723D01*
X0346185Y0365848D02*
X0346785D01*
X0346485Y0365548D02*
Y0366148D01*
X0353230Y0360968D02*
X0353830D01*
X0353530Y0360668D02*
Y0361268D01*
X0353240Y0363445D02*
X0353840D01*
X0353540Y0363145D02*
Y0363745D01*
X0353244Y0368512D02*
X0353844D01*
X0353544Y0368212D02*
Y0368812D01*
X0353247Y0348415D02*
X0353847D01*
X0353547Y0348115D02*
Y0348715D01*
X0353247Y0345995D02*
X0353847D01*
X0353547Y0345695D02*
Y0346295D01*
X0353257Y0370962D02*
X0353857D01*
X0353557Y0370662D02*
Y0371262D01*
X0353258Y0366026D02*
X0353858D01*
X0353558Y0365726D02*
Y0366326D01*
X0353261Y0343509D02*
X0353861D01*
X0353561Y0343209D02*
Y0343809D01*
X0353273Y0358569D02*
X0353873D01*
X0353573Y0358269D02*
Y0358869D01*
X0353306Y0356022D02*
X0353906D01*
X0353606Y0355722D02*
Y0356322D01*
X0353327Y0351043D02*
X0353927D01*
X0353627Y0350743D02*
Y0351343D01*
X0353381Y0353570D02*
X0353981D01*
X0353681Y0353270D02*
Y0353870D01*
X0346029Y0373395D02*
X0346629D01*
X0346329Y0373095D02*
Y0373695D01*
X0346040Y0375872D02*
X0346640D01*
X0346340Y0375572D02*
Y0376172D01*
X0346043Y0380939D02*
X0346643D01*
X0346343Y0380639D02*
Y0381239D01*
X0346058Y0378453D02*
X0346658D01*
X0346358Y0378153D02*
Y0378753D01*
X0353214Y0373361D02*
X0353814D01*
X0353514Y0373061D02*
Y0373661D01*
X0353224Y0375838D02*
X0353824D01*
X0353524Y0375538D02*
Y0376138D01*
X0353228Y0380905D02*
X0353828D01*
X0353528Y0380605D02*
Y0381205D01*
X0353242Y0378419D02*
X0353842D01*
X0353542Y0378119D02*
Y0378719D01*
X0527248Y0318778D02*
X0527848D01*
X0527548Y0318478D02*
Y0319078D01*
X0518871Y0317801D02*
X0519471D01*
X0519171Y0317501D02*
Y0318101D01*
X0518341Y0314931D02*
X0518941D01*
X0518641Y0314631D02*
Y0315231D01*
X0528121Y0313019D02*
X0528721D01*
X0528421Y0312719D02*
Y0313319D01*
X0527955Y0334963D02*
X0528555D01*
X0528255Y0334663D02*
Y0335263D01*
X0507074Y0372914D02*
X0507674D01*
X0507374Y0372614D02*
Y0373214D01*
X0513127Y0327566D02*
X0513727D01*
X0513426Y0327266D02*
Y0327866D01*
X0513158Y0329385D02*
X0513758D01*
X0513458Y0329085D02*
Y0329685D01*
X0515426Y0384464D02*
X0516026D01*
X0515726Y0384164D02*
Y0384764D01*
X0530420Y0285653D02*
X0531020D01*
X0530720Y0285353D02*
Y0285953D01*
X0528819Y0342997D02*
X0529419D01*
X0529119Y0342697D02*
Y0343297D01*
X0528999Y0339472D02*
X0529599D01*
X0529299Y0339172D02*
Y0339772D01*
X0529278Y0329389D02*
X0529878D01*
X0529578Y0329089D02*
Y0329689D01*
X0528524Y0324160D02*
X0529124D01*
X0528824Y0323860D02*
Y0324460D01*
X0532820Y0285653D02*
X0533420D01*
X0533120Y0285353D02*
Y0285953D01*
X0527920Y0285653D02*
X0528520D01*
X0528220Y0285353D02*
Y0285953D01*
X0524720Y0285753D02*
X0525320D01*
X0525020Y0285453D02*
Y0286053D01*
X0489099Y0323326D02*
X0489699D01*
X0489399Y0323026D02*
Y0323626D01*
X0483065Y0320282D02*
X0483665D01*
X0483365Y0319982D02*
Y0320582D01*
X0464751Y0318865D02*
X0465351D01*
X0465051Y0318565D02*
Y0319165D01*
X0466086Y0320725D02*
X0466686D01*
X0466386Y0320426D02*
Y0321025D01*
X0452090Y0350175D02*
X0452690D01*
X0452390Y0349875D02*
Y0350475D01*
X0455968Y0324784D02*
X0456567D01*
X0456267Y0324484D02*
Y0325084D01*
X0460300Y0324953D02*
X0460900D01*
X0460600Y0324653D02*
Y0325253D01*
X0490967Y0357176D02*
X0491567D01*
X0491267Y0356876D02*
Y0357476D01*
X0468094Y0316850D02*
X0468694D01*
X0468395Y0316550D02*
Y0317150D01*
X0457774Y0302816D02*
X0458374D01*
X0458074Y0302516D02*
Y0303116D01*
X0470199Y0319200D02*
X0470799D01*
X0470499Y0318900D02*
Y0319500D01*
X0470166Y0317059D02*
X0470766D01*
X0470467Y0316759D02*
Y0317359D01*
X0475861Y0323832D02*
X0476461D01*
X0476161Y0323532D02*
Y0324132D01*
X0522656Y0348689D02*
X0523256D01*
X0522956Y0348389D02*
Y0348989D01*
X0523492Y0343526D02*
X0524092D01*
X0523793Y0343226D02*
Y0343826D01*
X0456480Y0329649D02*
X0457080D01*
X0456780Y0329349D02*
Y0329949D01*
X0440803Y0303119D02*
X0441403D01*
X0441103Y0302819D02*
Y0303419D01*
X0450416Y0308920D02*
X0451016D01*
X0450716Y0308619D02*
Y0309220D01*
X0480964Y0328685D02*
X0481564D01*
X0481264Y0328385D02*
Y0328985D01*
X0478606Y0374057D02*
X0479206D01*
X0478906Y0373757D02*
Y0374357D01*
X0444002Y0316007D02*
X0444602D01*
X0444302Y0315707D02*
Y0316307D01*
X0442298Y0284385D02*
X0442898D01*
X0442598Y0284085D02*
Y0284685D01*
X0460686Y0315266D02*
X0461286D01*
X0460986Y0314966D02*
Y0315566D01*
X0444949Y0268831D02*
X0445549D01*
X0445250Y0268531D02*
Y0269131D01*
X0425504Y0386721D02*
X0426104D01*
X0425804Y0386421D02*
Y0387021D01*
X0410778Y0409610D02*
X0411378D01*
X0411078Y0409310D02*
Y0409910D01*
X0457144Y0312478D02*
X0457931D01*
X0457537Y0312084D02*
Y0312872D01*
X0422031Y0296424D02*
X0422631D01*
X0422331Y0296124D02*
Y0296724D01*
X0423309Y0400894D02*
X0423909D01*
X0423609Y0400594D02*
Y0401194D01*
X0427124Y0400911D02*
X0427724D01*
X0427424Y0400611D02*
Y0401211D01*
X0459594Y0394367D02*
X0460194D01*
X0459894Y0394067D02*
Y0394667D01*
X0452973Y0391452D02*
X0453573D01*
X0453273Y0391152D02*
Y0391752D01*
X0447982Y0391328D02*
X0448582D01*
X0448282Y0391028D02*
Y0391628D01*
X0486957Y0339793D02*
X0487557D01*
X0487257Y0339493D02*
Y0340093D01*
X0492924Y0367740D02*
X0493525D01*
X0493224Y0367440D02*
Y0368040D01*
X0491503Y0367750D02*
X0492103D01*
X0491803Y0367450D02*
Y0368050D01*
X0513156Y0372607D02*
X0513756D01*
X0513455Y0372307D02*
Y0372907D01*
X0502674Y0374471D02*
X0503274D01*
X0502974Y0374171D02*
Y0374771D01*
X0500784Y0374520D02*
X0501384D01*
X0501084Y0374220D02*
Y0374820D01*
X0481535Y0333752D02*
X0482135D01*
X0481835Y0333453D02*
Y0334052D01*
X0425146Y0356559D02*
X0425746D01*
X0425447Y0356259D02*
Y0356859D01*
X0425132Y0354675D02*
X0425732D01*
X0425432Y0354375D02*
Y0354975D01*
X0425221Y0358650D02*
X0425821D01*
X0425521Y0358350D02*
Y0358950D01*
X0425158Y0360747D02*
X0425758D01*
X0425458Y0360447D02*
Y0361047D01*
X0425297Y0368983D02*
X0425897D01*
X0425597Y0368683D02*
Y0369283D01*
X0426800Y0371007D02*
X0427400D01*
X0427100Y0370707D02*
Y0371307D01*
X0431706Y0368843D02*
X0432306D01*
X0432006Y0368543D02*
Y0369143D01*
X0431726Y0364966D02*
X0432326D01*
X0432026Y0364666D02*
Y0365266D01*
X0431755Y0366899D02*
X0432355D01*
X0432055Y0366599D02*
Y0367199D01*
X0431736Y0361031D02*
X0432336D01*
X0432036Y0360731D02*
Y0361331D01*
X0431745Y0363013D02*
X0432345D01*
X0432045Y0362713D02*
Y0363313D01*
X0431736Y0359049D02*
X0432336D01*
X0432036Y0358749D02*
Y0359349D01*
X0431687Y0357106D02*
X0432287D01*
X0431987Y0356806D02*
Y0357406D01*
X0431706Y0355104D02*
X0432306D01*
X0432006Y0354804D02*
Y0355404D01*
X0425100Y0366901D02*
X0425700D01*
X0425400Y0366601D02*
Y0367201D01*
X0425133Y0362928D02*
X0425733D01*
X0425433Y0362628D02*
Y0363228D01*
X0425175Y0364915D02*
X0425775D01*
X0425475Y0364615D02*
Y0365215D01*
X0414170Y0349060D02*
X0414770D01*
X0414470Y0348760D02*
Y0349360D01*
X0413883Y0352797D02*
X0414483D01*
X0414183Y0352497D02*
Y0353097D01*
X0414096Y0356102D02*
X0414696D01*
X0414396Y0355802D02*
Y0356402D01*
X0414104Y0358148D02*
X0414704D01*
X0414404Y0357848D02*
Y0358448D01*
X0413750Y0363123D02*
X0414350D01*
X0414050Y0362823D02*
Y0363423D01*
X0414192Y0366307D02*
X0414792D01*
X0414493Y0366007D02*
Y0366607D01*
X0413905Y0369624D02*
X0414505D01*
X0414205Y0369324D02*
Y0369924D01*
X0413980Y0372755D02*
X0414580D01*
X0414280Y0372455D02*
Y0373055D01*
X0410753Y0424275D02*
X0411353D01*
X0411053Y0423975D02*
Y0424575D01*
X0405084Y0422514D02*
X0405684D01*
X0405384Y0422214D02*
Y0422814D01*
X0405161Y0424207D02*
X0405761D01*
X0405461Y0423908D02*
Y0424508D01*
X0482243Y0341378D02*
X0482843D01*
X0482543Y0341078D02*
Y0341678D01*
X0475318Y0398935D02*
X0475918D01*
X0475618Y0398635D02*
Y0399235D01*
X0474706Y0267155D02*
X0475306D01*
X0475005Y0266855D02*
Y0267455D01*
X0474816Y0270740D02*
X0475416D01*
X0475116Y0270440D02*
Y0271040D01*
X0471195Y0284973D02*
X0471795D01*
X0471495Y0284673D02*
Y0285273D01*
X0469313Y0285085D02*
X0469913D01*
X0469613Y0284785D02*
Y0285385D01*
X0459627Y0286992D02*
X0460227D01*
X0459927Y0286692D02*
Y0287292D01*
X0454808Y0286054D02*
X0455408D01*
X0455108Y0285754D02*
Y0286354D01*
X0441562Y0270234D02*
X0442162D01*
X0441862Y0269934D02*
Y0270534D01*
X0474957Y0309160D02*
X0475557D01*
X0475257Y0308860D02*
Y0309460D01*
X0504754Y0270690D02*
X0505354D01*
X0505054Y0270390D02*
Y0270990D01*
X0504820Y0267353D02*
X0505420D01*
X0505120Y0267053D02*
Y0267653D01*
X0494942Y0267287D02*
X0495542D01*
X0495242Y0266987D02*
Y0267587D01*
X0494975Y0270624D02*
X0495575D01*
X0495275Y0270324D02*
Y0270924D01*
X0482413Y0269383D02*
X0483013D01*
X0482713Y0269083D02*
Y0269683D01*
X0484841Y0269257D02*
X0485441D01*
X0485142Y0268957D02*
Y0269557D01*
X0479858Y0269257D02*
X0480458D01*
X0480158Y0268957D02*
Y0269557D01*
X0504712Y0374454D02*
X0505312D01*
X0505012Y0374154D02*
Y0374754D01*
X0448524Y0384205D02*
X0449124D01*
X0448824Y0383905D02*
Y0384505D01*
X0467665Y0384904D02*
X0468265D01*
X0467965Y0384604D02*
Y0385204D01*
X0516619Y0407735D02*
X0517219D01*
X0516919Y0407435D02*
Y0408035D01*
X0470202Y0312120D02*
X0470802D01*
X0470503Y0311820D02*
Y0312420D01*
X0468138Y0321104D02*
X0468738D01*
X0468438Y0320804D02*
Y0321404D01*
X0461269Y0312356D02*
X0461869D01*
X0461569Y0312056D02*
Y0312656D01*
X0454779Y0304887D02*
X0455379D01*
X0455080Y0304587D02*
Y0305187D01*
X0468157Y0319208D02*
X0468757D01*
X0468457Y0318908D02*
Y0319508D01*
X0463554Y0376619D02*
X0464154D01*
X0463854Y0376319D02*
Y0376919D01*
X0468862Y0389426D02*
X0469462D01*
X0469163Y0389126D02*
Y0389726D01*
X0434908Y0283195D02*
X0435508D01*
X0435208Y0282895D02*
Y0283495D01*
X0453151Y0317006D02*
X0453751D01*
X0453451Y0316706D02*
Y0317306D01*
X0505940Y0413062D02*
X0506540D01*
X0506240Y0412762D02*
Y0413362D01*
X0504635Y0411743D02*
X0505235D01*
X0504935Y0411443D02*
Y0412043D01*
X0455361Y0398670D02*
X0455961D01*
X0455661Y0398370D02*
Y0398970D01*
X0454996Y0267114D02*
X0455596D01*
X0455296Y0266814D02*
Y0267414D01*
X0460269Y0267132D02*
X0460869D01*
X0460569Y0266832D02*
Y0267432D01*
X0386159Y0381723D02*
X0386759D01*
X0386459Y0381423D02*
Y0382023D01*
X0370327Y0255174D02*
X0370927D01*
X0370627Y0254874D02*
Y0255474D01*
X0367863Y0255100D02*
X0368463D01*
X0368163Y0254800D02*
Y0255400D01*
X0368754Y0428314D02*
X0369354D01*
X0369054Y0428014D02*
Y0428614D01*
X0366729Y0256345D02*
X0367329D01*
X0367029Y0256045D02*
Y0256645D01*
X0363452Y0427217D02*
X0364052D01*
X0363752Y0426917D02*
Y0427517D01*
X0365436Y0428113D02*
X0366036D01*
X0365736Y0427813D02*
Y0428413D01*
X0369010Y0256312D02*
X0369610D01*
X0369310Y0256012D02*
Y0256612D01*
X0367200Y0427116D02*
X0367800D01*
X0367500Y0426816D02*
Y0427416D01*
X0523160Y0337219D02*
X0523760D01*
X0523460Y0336919D02*
Y0337519D01*
X0528671Y0371931D02*
X0529271D01*
X0528971Y0371631D02*
Y0372231D01*
X0528728Y0364754D02*
X0529328D01*
X0529028Y0364454D02*
Y0365054D01*
X0504610Y0414300D02*
X0505210D01*
X0504910Y0414000D02*
Y0414600D01*
X0458750Y0322672D02*
X0459350D01*
X0459050Y0322372D02*
Y0322972D01*
X0464190Y0325092D02*
X0464790D01*
X0464490Y0324792D02*
Y0325392D01*
X0462667Y0324636D02*
X0463267D01*
X0462967Y0324336D02*
Y0324936D01*
X0468577Y0315252D02*
X0469177D01*
X0468877Y0314952D02*
Y0315552D01*
X0464436Y0315034D02*
X0465036D01*
X0464736Y0314734D02*
Y0315334D01*
X0466478Y0318893D02*
X0467078D01*
X0466778Y0318593D02*
Y0319193D01*
X0464199Y0316739D02*
X0464799D01*
X0464499Y0316439D02*
Y0317039D01*
X0459420Y0312316D02*
X0460208D01*
X0459814Y0311923D02*
Y0312710D01*
X0470057Y0321123D02*
X0470657D01*
X0470357Y0320823D02*
Y0321423D01*
X0472308Y0322500D02*
X0472908D01*
X0472608Y0322200D02*
Y0322800D01*
X0466834Y0332921D02*
X0467434D01*
X0467134Y0332621D02*
Y0333221D01*
X0466604Y0326626D02*
X0467204D01*
X0466904Y0326326D02*
Y0326926D01*
X0464540Y0323108D02*
X0465140D01*
X0464840Y0322808D02*
Y0323408D01*
X0468615Y0326649D02*
X0469215D01*
X0468915Y0326349D02*
Y0326950D01*
X0460510Y0319013D02*
X0461110D01*
X0460811Y0318713D02*
Y0319313D01*
X0458545Y0318892D02*
X0459145D01*
X0458845Y0318592D02*
Y0319192D01*
X0458674Y0320714D02*
X0459274D01*
X0458975Y0320414D02*
Y0321014D01*
X0460539Y0322858D02*
X0461139D01*
X0460839Y0322558D02*
Y0323158D01*
X0460482Y0326815D02*
X0461082D01*
X0460782Y0326515D02*
Y0327115D01*
X0464541Y0326653D02*
X0465141D01*
X0464841Y0326353D02*
Y0326953D01*
X0460654Y0317237D02*
X0461254D01*
X0460954Y0316937D02*
Y0317537D01*
X0456163Y0318016D02*
X0456763D01*
X0456463Y0317716D02*
Y0318316D01*
X0472603Y0320023D02*
X0473203D01*
X0472903Y0319723D02*
Y0320323D01*
X0472618Y0317990D02*
X0473218D01*
X0472919Y0317690D02*
Y0318290D01*
X0456220Y0321706D02*
X0456820D01*
X0456521Y0321406D02*
Y0322006D01*
X0456123Y0320161D02*
X0456723D01*
X0456423Y0319861D02*
Y0320461D01*
X0463052Y0318893D02*
X0463652D01*
X0463352Y0318593D02*
Y0319193D01*
X0463564Y0320904D02*
X0464164D01*
X0463864Y0320604D02*
Y0321204D01*
X0388951Y0378505D02*
X0389551D01*
X0389251Y0378205D02*
Y0378805D01*
X0441641Y0377222D02*
X0442241D01*
X0441941Y0376922D02*
Y0377522D01*
X0426949Y0318582D02*
X0427549D01*
X0427249Y0318282D02*
Y0318882D01*
X0426054Y0320405D02*
X0426654D01*
X0426354Y0320105D02*
Y0320705D01*
X0410829Y0275456D02*
X0411429D01*
X0411129Y0275156D02*
Y0275756D01*
X0411355Y0326325D02*
X0411955D01*
X0411655Y0326025D02*
Y0326625D01*
X0440501Y0327082D02*
X0441101D01*
X0440801Y0326782D02*
Y0327382D01*
X0440516Y0329186D02*
X0441116D01*
X0440816Y0328886D02*
Y0329486D01*
X0440642Y0331134D02*
X0441242D01*
X0440942Y0330834D02*
Y0331434D01*
X0431268Y0310935D02*
X0431868D01*
X0431568Y0310635D02*
Y0311235D01*
X0431247Y0308916D02*
X0431847D01*
X0431546Y0308616D02*
Y0309216D01*
X0430698Y0304622D02*
X0431298D01*
X0430998Y0304322D02*
Y0304922D01*
X0430853Y0300331D02*
X0431453D01*
X0431153Y0300031D02*
Y0300631D01*
X0431123Y0298386D02*
X0431723D01*
X0431423Y0298086D02*
Y0298686D01*
X0430544Y0302399D02*
X0431144D01*
X0430844Y0302099D02*
Y0302699D01*
X0425520Y0299200D02*
X0426120D01*
X0425820Y0298900D02*
Y0299500D01*
X0425549Y0301323D02*
X0426149D01*
X0425849Y0301023D02*
Y0301623D01*
X0411470Y0289293D02*
X0412070D01*
X0411770Y0288993D02*
Y0289593D01*
X0411196Y0292028D02*
X0411796D01*
X0411496Y0291728D02*
Y0292329D01*
X0414726Y0278666D02*
X0415326D01*
X0415026Y0278366D02*
Y0278966D01*
X0414806Y0282308D02*
X0415406D01*
X0415106Y0282008D02*
Y0282608D01*
X0411170Y0335699D02*
X0411770D01*
X0411470Y0335399D02*
Y0335999D01*
X0436277Y0350176D02*
X0436877D01*
X0436577Y0349876D02*
Y0350476D01*
X0432116Y0268767D02*
X0432716D01*
X0432416Y0268467D02*
Y0269067D01*
X0433983Y0349614D02*
X0434583D01*
X0434283Y0349314D02*
Y0349914D01*
X0480907Y0382334D02*
X0481507D01*
X0481207Y0382034D02*
Y0382634D01*
X0436215Y0414591D02*
X0436815D01*
X0436515Y0414291D02*
Y0414891D01*
X0400170Y0269079D02*
X0400770D01*
X0400470Y0268779D02*
Y0269379D01*
X0385069Y0274537D02*
X0385669D01*
X0385369Y0274237D02*
Y0274837D01*
X0388116Y0271829D02*
X0388716D01*
X0388416Y0271529D02*
Y0272129D01*
X0388085Y0275624D02*
X0388685D01*
X0388385Y0275324D02*
Y0275924D01*
X0385016Y0275668D02*
X0385616D01*
X0385316Y0275368D02*
Y0275968D01*
X0396249Y0275879D02*
X0396849D01*
X0396549Y0275579D02*
Y0276179D01*
X0395550Y0269244D02*
X0396150D01*
X0395850Y0268944D02*
Y0269544D01*
X0395667Y0271413D02*
X0396267D01*
X0395967Y0271113D02*
Y0271713D01*
X0473208Y0344560D02*
X0473808D01*
X0473508Y0344260D02*
Y0344860D01*
X0501652Y0367058D02*
X0502252D01*
X0501952Y0366758D02*
Y0367358D01*
X0501657Y0371809D02*
X0502257D01*
X0501958Y0371509D02*
Y0372109D01*
X0413960Y0313016D02*
X0414560D01*
X0414260Y0312716D02*
Y0313316D01*
X0416156Y0293145D02*
X0416756D01*
X0416456Y0292845D02*
Y0293445D01*
X0426678Y0304120D02*
X0427278D01*
X0426978Y0303820D02*
Y0304420D01*
X0450015Y0352070D02*
X0450615D01*
X0450315Y0351770D02*
Y0352371D01*
X0413215Y0342136D02*
X0413815D01*
X0413515Y0341836D02*
Y0342436D01*
X0397081Y0307377D02*
X0397681D01*
X0397381Y0307077D02*
Y0307677D01*
X0412796Y0307541D02*
X0413396D01*
X0413096Y0307242D02*
Y0307841D01*
X0460802Y0375818D02*
X0461402D01*
X0461102Y0375518D02*
Y0376118D01*
X0473315Y0355701D02*
X0473915D01*
X0473615Y0355401D02*
Y0356001D01*
X0429718Y0283885D02*
X0430318D01*
X0430018Y0283585D02*
Y0284185D01*
X0427499Y0284253D02*
X0428099D01*
X0427800Y0283953D02*
Y0284553D01*
X0511738Y0428463D02*
X0512338D01*
X0512038Y0428163D02*
Y0428763D01*
X0505149Y0345367D02*
X0505749D01*
X0505449Y0345067D02*
Y0345667D01*
X0506796Y0345273D02*
X0507396D01*
X0507096Y0344973D02*
Y0345573D01*
X0456875Y0334058D02*
X0457475D01*
X0457175Y0333758D02*
Y0334358D01*
X0467763Y0347545D02*
X0468363D01*
X0468063Y0347245D02*
Y0347845D01*
X0462991Y0329461D02*
X0463591D01*
X0463291Y0329161D02*
Y0329761D01*
X0486927Y0342795D02*
X0487527D01*
X0487227Y0342495D02*
Y0343095D01*
X0528788Y0348640D02*
X0529388D01*
X0529088Y0348340D02*
Y0348940D01*
X0519419Y0323746D02*
X0520019D01*
X0519719Y0323446D02*
Y0324046D01*
X0518559Y0327316D02*
X0519159D01*
X0518859Y0327016D02*
Y0327616D01*
X0518817Y0371214D02*
X0519417D01*
X0519117Y0370914D02*
Y0371514D01*
X0458667Y0326646D02*
X0459267D01*
X0458967Y0326346D02*
Y0326946D01*
X0470016Y0349106D02*
X0470616D01*
X0470316Y0348806D02*
Y0349406D01*
X0455540Y0376257D02*
X0456140D01*
X0455840Y0375957D02*
Y0376557D01*
X0457480Y0377071D02*
X0458080D01*
X0457780Y0376771D02*
Y0377371D01*
X0468255Y0391199D02*
X0468855D01*
X0468554Y0390899D02*
Y0391499D01*
X0495414Y0414322D02*
X0496014D01*
X0495714Y0414021D02*
Y0414621D01*
X0494325Y0412631D02*
X0494925D01*
X0494625Y0412331D02*
Y0412931D01*
X0496201Y0411519D02*
X0496801D01*
X0496501Y0411219D02*
Y0411819D01*
X0504702Y0428192D02*
X0505302D01*
X0505002Y0427891D02*
Y0428491D01*
X0506226Y0428092D02*
X0506826D01*
X0506526Y0427792D02*
Y0428392D01*
X0430045Y0423962D02*
X0430645D01*
X0430345Y0423662D02*
Y0424262D01*
X0431652Y0423979D02*
X0432252D01*
X0431952Y0423679D02*
Y0424279D01*
X0455133Y0339634D02*
X0455733D01*
X0455433Y0339334D02*
Y0339934D01*
X0370547Y0289781D02*
X0371147D01*
X0370847Y0289481D02*
Y0290081D01*
X0370547Y0323374D02*
X0371147D01*
X0370847Y0323074D02*
Y0323674D01*
X0376518Y0383444D02*
X0377118D01*
X0376818Y0383144D02*
Y0383744D01*
X0440147Y0414752D02*
X0440747D01*
X0440447Y0414453D02*
Y0415053D01*
X0414467Y0326250D02*
X0415067D01*
X0414767Y0325950D02*
Y0326550D01*
X0420378Y0282966D02*
X0420978D01*
X0420678Y0282666D02*
Y0283266D01*
X0426881Y0413849D02*
X0427481D01*
X0427181Y0413549D02*
Y0414149D01*
X0423509Y0413813D02*
X0424109D01*
X0423809Y0413513D02*
Y0414113D01*
X0430268Y0400928D02*
X0430868D01*
X0430568Y0400628D02*
Y0401228D01*
X0458634Y0324753D02*
X0459234D01*
X0458934Y0324453D02*
Y0325053D01*
X0473554Y0359824D02*
X0474154D01*
X0473854Y0359524D02*
Y0360124D01*
X0459453Y0354377D02*
X0460053D01*
X0459753Y0354077D02*
Y0354677D01*
X0476536Y0328703D02*
X0477136D01*
X0476836Y0328403D02*
Y0329003D01*
X0463921Y0347795D02*
X0464521D01*
X0464221Y0347495D02*
Y0348095D01*
X0469063Y0329329D02*
X0469663D01*
X0469363Y0329029D02*
Y0329629D01*
X0470224Y0324764D02*
X0470823D01*
X0470524Y0324464D02*
Y0325064D01*
X0468206Y0324735D02*
X0468806D01*
X0468506Y0324435D02*
Y0325035D01*
X0441766Y0286992D02*
X0442366D01*
X0442066Y0286692D02*
Y0287292D01*
X0476065Y0321049D02*
X0476665D01*
X0476365Y0320749D02*
Y0321349D01*
X0494892Y0317871D02*
X0495679D01*
X0495286Y0317477D02*
Y0318264D01*
X0496821Y0314739D02*
X0497609D01*
X0497215Y0314345D02*
Y0315133D01*
X0494917Y0315628D02*
X0495705D01*
X0495311Y0315235D02*
Y0316022D01*
X0465617Y0312059D02*
X0466405D01*
X0466011Y0311666D02*
Y0312453D01*
X0463392Y0312727D02*
X0463992D01*
X0463692Y0312427D02*
Y0313027D01*
X0401438Y0310299D02*
X0402038D01*
X0401738Y0309999D02*
Y0310599D01*
X0383313Y0285277D02*
X0383913D01*
X0383613Y0284977D02*
Y0285577D01*
X0425112Y0378672D02*
X0425712D01*
X0425412Y0378372D02*
Y0378972D01*
X0424731Y0382439D02*
X0425331D01*
X0425031Y0382139D02*
Y0382739D01*
X0426562Y0383224D02*
X0427162D01*
X0426862Y0382924D02*
Y0383524D01*
X0413869Y0360215D02*
X0414469D01*
X0414169Y0359915D02*
Y0360515D01*
X0427018Y0353238D02*
X0427618D01*
X0427318Y0352938D02*
Y0353538D01*
X0440200Y0385359D02*
X0440800D01*
X0440500Y0385059D02*
Y0385659D01*
X0485149Y0412743D02*
X0485749D01*
X0485449Y0412443D02*
Y0413043D01*
X0475234Y0414628D02*
X0475834D01*
X0475534Y0414328D02*
Y0414928D01*
X0480098Y0412747D02*
X0480698D01*
X0480398Y0412447D02*
Y0413047D01*
X0473159Y0348779D02*
X0473759D01*
X0473458Y0348479D02*
Y0349079D01*
X0427521Y0324114D02*
X0428121D01*
X0427821Y0323814D02*
Y0324414D01*
X0425971Y0332316D02*
X0426571D01*
X0426271Y0332016D02*
Y0332616D01*
X0426404Y0329566D02*
X0427004D01*
X0426704Y0329266D02*
Y0329866D01*
X0426284Y0326840D02*
X0426884D01*
X0426584Y0326540D02*
Y0327140D01*
X0425851Y0322961D02*
X0426451D01*
X0426151Y0322661D02*
Y0323261D01*
X0426494Y0381308D02*
X0427094D01*
X0426794Y0381008D02*
Y0381608D01*
X0426689Y0377672D02*
X0427289D01*
X0426989Y0377372D02*
Y0377972D01*
X0431589Y0313012D02*
X0432189D01*
X0431889Y0312712D02*
Y0313312D01*
X0430723Y0306833D02*
X0431323D01*
X0431023Y0306533D02*
Y0307133D01*
X0383438Y0290039D02*
X0384038D01*
X0383738Y0289739D02*
Y0290339D01*
X0426783Y0373717D02*
X0427383D01*
X0427083Y0373417D02*
Y0374017D01*
X0407838Y0376398D02*
X0408438D01*
X0408138Y0376098D02*
Y0376698D01*
X0440120Y0374666D02*
X0440720D01*
X0440420Y0374366D02*
Y0374966D01*
X0440655Y0382250D02*
X0441255D01*
X0440955Y0381950D02*
Y0382550D01*
X0469455Y0372916D02*
X0470055D01*
X0469755Y0372616D02*
Y0373216D01*
X0451454Y0371441D02*
X0452054D01*
X0451754Y0371141D02*
Y0371741D01*
X0450462Y0362973D02*
X0451062D01*
X0450762Y0362673D02*
Y0363273D01*
X0457511Y0354889D02*
X0458111D01*
X0457811Y0354590D02*
Y0355189D01*
X0455867Y0355591D02*
X0456467D01*
X0456167Y0355291D02*
Y0355891D01*
X0461761Y0355499D02*
X0462361D01*
X0462061Y0355199D02*
Y0355799D01*
X0470684Y0364468D02*
X0471284D01*
X0470984Y0364167D02*
Y0364768D01*
X0470756Y0362519D02*
X0471356D01*
X0471056Y0362219D02*
Y0362819D01*
X0445291Y0414680D02*
X0445891D01*
X0445591Y0414380D02*
Y0414980D01*
X0494743Y0393355D02*
X0495343D01*
X0495043Y0393055D02*
Y0393655D01*
X0459535Y0348314D02*
X0460135D01*
X0459835Y0348014D02*
Y0348614D01*
X0489967Y0360398D02*
X0490567D01*
X0490267Y0360098D02*
Y0360698D01*
X0489792Y0353801D02*
X0490392D01*
X0490092Y0353501D02*
Y0354101D01*
X0484116Y0308948D02*
X0484716D01*
X0484416Y0308648D02*
Y0309248D01*
X0521231Y0315328D02*
X0521831D01*
X0521531Y0315028D02*
Y0315628D01*
X0487367Y0308948D02*
X0487967D01*
X0487667Y0308648D02*
Y0309248D01*
X0373928Y0302782D02*
X0374528D01*
X0374228Y0302482D02*
Y0303082D01*
X0383025Y0300757D02*
X0383625D01*
X0383325Y0300457D02*
Y0301057D01*
X0383203Y0316968D02*
X0383803D01*
X0383503Y0316668D02*
Y0317268D01*
X0386400Y0388587D02*
X0387000D01*
X0386700Y0388287D02*
Y0388887D01*
X0368038Y0361123D02*
X0368826D01*
X0368432Y0360730D02*
Y0361517D01*
X0382920Y0375429D02*
X0383520D01*
X0383220Y0375129D02*
Y0375729D01*
X0373418Y0334190D02*
X0374018D01*
X0373718Y0333890D02*
Y0334490D01*
X0386009Y0332648D02*
X0386609D01*
X0386309Y0332348D02*
Y0332948D01*
X0450329Y0398806D02*
X0450929D01*
X0450629Y0398506D02*
Y0399106D01*
X0491446Y0353811D02*
X0492046D01*
X0491746Y0353511D02*
Y0354111D01*
X0382925Y0332587D02*
X0383525D01*
X0383225Y0332287D02*
Y0332887D01*
X0459790Y0398710D02*
X0460390D01*
X0460090Y0398410D02*
Y0399010D01*
X0459303Y0414807D02*
X0459903D01*
X0459603Y0414507D02*
Y0415107D01*
X0455164Y0414644D02*
X0455764D01*
X0455464Y0414344D02*
Y0414944D01*
X0411124Y0279092D02*
X0411724D01*
X0411424Y0278792D02*
Y0279392D01*
X0411238Y0282068D02*
X0411838D01*
X0411538Y0281768D02*
Y0282368D01*
X0395484Y0282072D02*
X0396084D01*
X0395784Y0281772D02*
Y0282372D01*
X0395703Y0279221D02*
X0396303D01*
X0396003Y0278921D02*
Y0279521D01*
X0384328Y0347338D02*
X0384928D01*
X0384628Y0347038D02*
Y0347638D01*
X0440295Y0316988D02*
X0440895D01*
X0440595Y0316688D02*
Y0317288D01*
X0440295Y0319014D02*
X0440895D01*
X0440595Y0318714D02*
Y0319314D01*
X0440338Y0320997D02*
X0440938D01*
X0440637Y0320697D02*
Y0321297D01*
X0440280Y0322909D02*
X0440880D01*
X0440580Y0322609D02*
Y0323209D01*
X0440366Y0324977D02*
X0440966D01*
X0440666Y0324677D02*
Y0325277D01*
X0426052Y0316847D02*
X0426652D01*
X0426352Y0316547D02*
Y0317147D01*
X0484465Y0402173D02*
X0485065D01*
X0484765Y0401873D02*
Y0402473D01*
X0482701Y0414343D02*
X0483301D01*
X0483001Y0414043D02*
Y0414643D01*
X0404796Y0304161D02*
X0405396D01*
X0405096Y0303861D02*
Y0304461D01*
X0407780Y0304122D02*
X0408380D01*
X0408080Y0303822D02*
Y0304422D01*
X0401666Y0304244D02*
X0402266D01*
X0401966Y0303944D02*
Y0304544D01*
X0401631Y0381667D02*
X0402231D01*
X0401931Y0381367D02*
Y0381967D01*
X0404808Y0381352D02*
X0405408D01*
X0405108Y0381052D02*
Y0381652D01*
X0395307Y0365965D02*
X0395907D01*
X0395607Y0365665D02*
Y0366265D01*
X0395288Y0294757D02*
X0395888D01*
X0395588Y0294457D02*
Y0295057D01*
X0475078Y0340812D02*
X0475678D01*
X0475379Y0340512D02*
Y0341112D01*
X0382980Y0378587D02*
X0383580D01*
X0383280Y0378287D02*
Y0378887D01*
X0374347Y0323220D02*
X0374947D01*
X0374647Y0322920D02*
Y0323520D01*
X0382920Y0356415D02*
X0383520D01*
X0383220Y0356115D02*
Y0356715D01*
X0372952Y0373474D02*
X0373552D01*
X0373252Y0373174D02*
Y0373774D01*
X0383008Y0391160D02*
X0383608D01*
X0383308Y0390860D02*
Y0391460D01*
X0378341Y0274280D02*
X0378941D01*
X0378641Y0273980D02*
Y0274580D01*
X0395391Y0326145D02*
X0395991D01*
X0395691Y0325845D02*
Y0326445D01*
X0473363Y0383379D02*
X0473963D01*
X0473663Y0383079D02*
Y0383679D01*
X0372709Y0360902D02*
X0373309D01*
X0373009Y0360602D02*
Y0361202D01*
X0372709Y0369621D02*
X0373309D01*
X0373009Y0369321D02*
Y0369921D01*
X0372770Y0277117D02*
X0373370D01*
X0373070Y0276817D02*
Y0277417D01*
X0386118Y0366015D02*
X0386718D01*
X0386418Y0365715D02*
Y0366315D01*
X0383031Y0369049D02*
X0383631D01*
X0383331Y0368749D02*
Y0369349D01*
X0383029Y0322993D02*
X0383629D01*
X0383329Y0322693D02*
Y0323293D01*
X0382933Y0359222D02*
X0383533D01*
X0383233Y0358922D02*
Y0359522D01*
X0378211Y0407034D02*
X0378811D01*
X0378511Y0406734D02*
Y0407334D01*
X0411239Y0356486D02*
X0411839D01*
X0411540Y0356186D02*
Y0356786D01*
X0393842Y0381617D02*
X0394442D01*
X0394142Y0381317D02*
Y0381917D01*
X0513095Y0331152D02*
X0513695D01*
X0513395Y0330852D02*
Y0331452D01*
X0431395Y0293017D02*
X0431995D01*
X0431695Y0292717D02*
Y0293317D01*
X0514011Y0353149D02*
X0514611D01*
X0514311Y0352849D02*
Y0353449D01*
X0389146Y0307444D02*
X0389746D01*
X0389446Y0307144D02*
Y0307744D01*
X0392587Y0303923D02*
X0393187D01*
X0392887Y0303623D02*
Y0304223D01*
X0395636Y0285542D02*
X0396236D01*
X0395936Y0285242D02*
Y0285842D01*
X0411220Y0347257D02*
X0411820D01*
X0411520Y0346957D02*
Y0347557D01*
X0395482Y0319233D02*
X0396082D01*
X0395782Y0318933D02*
Y0319533D01*
X0398580Y0300983D02*
X0399180D01*
X0398880Y0300683D02*
Y0301283D01*
X0411377Y0285518D02*
X0411977D01*
X0411677Y0285218D02*
Y0285818D01*
X0388005Y0347401D02*
X0388605D01*
X0388305Y0347101D02*
Y0347701D01*
X0387714Y0410218D02*
X0388314D01*
X0388014Y0409918D02*
Y0410518D01*
X0373199Y0312011D02*
X0373799D01*
X0373499Y0311711D02*
Y0312311D01*
X0376942Y0397398D02*
X0377542D01*
X0377242Y0397098D02*
Y0397698D01*
X0404846Y0310563D02*
X0405446D01*
X0405146Y0310263D02*
Y0310863D01*
X0392682Y0307939D02*
X0393282D01*
X0392982Y0307639D02*
Y0308239D01*
X0387889Y0412975D02*
X0388489D01*
X0388189Y0412675D02*
Y0413275D01*
X0382972Y0307649D02*
X0383572D01*
X0383272Y0307349D02*
Y0307949D01*
X0382861Y0304129D02*
X0383461D01*
X0383161Y0303829D02*
Y0304429D01*
X0383390Y0413411D02*
X0383990D01*
X0383690Y0413111D02*
Y0413711D01*
X0383624Y0409987D02*
X0384224D01*
X0383924Y0409687D02*
Y0410287D01*
X0513739Y0349337D02*
X0514339D01*
X0514039Y0349037D02*
Y0349637D01*
X0376647Y0334261D02*
X0377248D01*
X0376947Y0333961D02*
Y0334561D01*
X0376597Y0351841D02*
X0377197D01*
X0376897Y0351541D02*
Y0352141D01*
X0370984Y0404917D02*
X0371584D01*
X0371284Y0404617D02*
Y0405217D01*
X0370917Y0406659D02*
X0371517D01*
X0371217Y0406359D02*
Y0406959D01*
X0376376Y0412402D02*
X0376976D01*
X0376676Y0412102D02*
Y0412702D01*
X0439650Y0376620D02*
X0440250D01*
X0439950Y0376320D02*
Y0376920D01*
X0395233Y0353423D02*
X0395833D01*
X0395533Y0353123D02*
Y0353723D01*
X0395233Y0350290D02*
X0395833D01*
X0395533Y0349990D02*
Y0350590D01*
X0395233Y0356599D02*
X0395833D01*
X0395533Y0356299D02*
Y0356899D01*
X0395233Y0359750D02*
X0395833D01*
X0395533Y0359450D02*
Y0360050D01*
X0411132Y0362832D02*
X0411732D01*
X0411432Y0362532D02*
Y0363132D01*
X0411132Y0322866D02*
X0411732D01*
X0411432Y0322566D02*
Y0323166D01*
X0411132Y0319724D02*
X0411732D01*
X0411432Y0319424D02*
Y0320024D01*
X0445727Y0370777D02*
X0446327D01*
X0446027Y0370477D02*
Y0371077D01*
X0398190Y0313665D02*
X0398791D01*
X0398491Y0313365D02*
Y0313965D01*
X0395531Y0316449D02*
X0396131D01*
X0395831Y0316149D02*
Y0316749D01*
X0392752Y0332686D02*
X0393352D01*
X0393052Y0332386D02*
Y0332986D01*
X0395342Y0387722D02*
X0395942D01*
X0395642Y0387422D02*
Y0388022D01*
X0401799Y0301489D02*
X0402399D01*
X0402099Y0301189D02*
Y0301789D01*
X0395390Y0288516D02*
X0395990D01*
X0395690Y0288216D02*
Y0288816D01*
X0395391Y0322902D02*
X0395991D01*
X0395691Y0322602D02*
Y0323202D01*
X0411113Y0297844D02*
X0411713D01*
X0411413Y0297544D02*
Y0298144D01*
X0383055Y0294581D02*
X0383655D01*
X0383355Y0294281D02*
Y0294881D01*
X0385665Y0282257D02*
X0386265D01*
X0385965Y0281957D02*
Y0282557D01*
X0385665Y0288294D02*
X0386265D01*
X0385965Y0287994D02*
Y0288594D01*
X0385665Y0285350D02*
X0386265D01*
X0385965Y0285050D02*
Y0285650D01*
X0385863Y0279012D02*
X0386463D01*
X0386163Y0278712D02*
Y0279312D01*
X0386107Y0304204D02*
X0386707D01*
X0386407Y0303904D02*
Y0304504D01*
X0385437Y0294795D02*
X0386037D01*
X0385737Y0294495D02*
Y0295095D01*
X0386045Y0298074D02*
X0386645D01*
X0386345Y0297774D02*
Y0298374D01*
X0386209Y0301194D02*
X0386809D01*
X0386509Y0300894D02*
Y0301494D01*
X0411202Y0301697D02*
X0411802D01*
X0411502Y0301397D02*
Y0301997D01*
X0411322Y0313639D02*
X0411922D01*
X0411622Y0313339D02*
Y0313939D01*
X0414226Y0316729D02*
X0414826D01*
X0414527Y0316429D02*
Y0317029D01*
X0431125Y0370873D02*
X0431726D01*
X0431426Y0370573D02*
Y0371173D01*
X0411283Y0372203D02*
X0411883D01*
X0411584Y0371903D02*
Y0372503D01*
X0401749Y0372535D02*
X0402349D01*
X0402049Y0372235D02*
Y0372835D01*
X0398116Y0372322D02*
X0398716D01*
X0398416Y0372022D02*
Y0372622D01*
X0395203Y0390873D02*
X0395803D01*
X0395503Y0390573D02*
Y0391173D01*
X0401597Y0313562D02*
X0402197D01*
X0401897Y0313262D02*
Y0313862D01*
X0401541Y0375784D02*
X0402141D01*
X0401841Y0375484D02*
Y0376084D01*
X0398533Y0375374D02*
X0399132D01*
X0398833Y0375074D02*
Y0375674D01*
X0386109Y0310603D02*
X0386709D01*
X0386409Y0310303D02*
Y0310903D01*
X0404417Y0375926D02*
X0405017D01*
X0404717Y0375626D02*
Y0376226D01*
X0392216Y0335802D02*
X0392816D01*
X0392516Y0335502D02*
Y0336102D01*
X0395438Y0394212D02*
X0396038D01*
X0395738Y0393912D02*
Y0394512D01*
X0395438Y0397468D02*
X0396038D01*
X0395738Y0397168D02*
Y0397768D01*
X0414263Y0329343D02*
X0414863D01*
X0414563Y0329043D02*
Y0329643D01*
X0414425Y0335406D02*
X0415025D01*
X0414725Y0335106D02*
Y0335706D01*
X0414260Y0319761D02*
X0414860D01*
X0414560Y0319461D02*
Y0320061D01*
X0411293Y0350166D02*
X0411893D01*
X0411593Y0349866D02*
Y0350466D01*
X0414346Y0400551D02*
X0414946D01*
X0414646Y0400251D02*
Y0400851D01*
X0414669Y0384791D02*
X0415269D01*
X0414969Y0384491D02*
Y0385091D01*
X0414602Y0381689D02*
X0415202D01*
X0414902Y0381389D02*
Y0381989D01*
X0414312Y0403669D02*
X0414912D01*
X0414612Y0403369D02*
Y0403969D01*
X0414363Y0406813D02*
X0414963D01*
X0414663Y0406513D02*
Y0407113D01*
X0439673Y0372489D02*
X0440273D01*
X0439973Y0372189D02*
Y0372789D01*
X0440162Y0378535D02*
X0440762D01*
X0440462Y0378235D02*
Y0378835D01*
X0439644Y0380616D02*
X0440244D01*
X0439944Y0380316D02*
Y0380916D01*
X0440722Y0388226D02*
X0441322D01*
X0441021Y0387926D02*
Y0388526D01*
X0414193Y0409976D02*
X0414793D01*
X0414493Y0409676D02*
Y0410276D01*
X0414516Y0397052D02*
X0415116D01*
X0414816Y0396752D02*
Y0397352D01*
X0411182Y0338863D02*
X0411782D01*
X0411482Y0338563D02*
Y0339163D01*
X0411240Y0316704D02*
X0411840D01*
X0411541Y0316404D02*
Y0317004D01*
X0411195Y0332418D02*
X0411795D01*
X0411495Y0332118D02*
Y0332718D01*
X0414395Y0338818D02*
X0414995D01*
X0414695Y0338518D02*
Y0339118D01*
X0414329Y0332418D02*
X0414929D01*
X0414629Y0332118D02*
Y0332718D01*
X0414339Y0323092D02*
X0414939D01*
X0414640Y0322792D02*
Y0323392D01*
X0411165Y0294817D02*
X0411764D01*
X0411465Y0294517D02*
Y0295117D01*
X0386297Y0350225D02*
X0386897D01*
X0386597Y0349925D02*
Y0350525D01*
X0372810Y0405397D02*
X0373410D01*
X0373110Y0405097D02*
Y0405697D01*
X0383394Y0393795D02*
X0383994D01*
X0383694Y0393495D02*
Y0394095D01*
X0395571Y0403830D02*
X0396171D01*
X0395871Y0403530D02*
Y0404130D01*
X0395481Y0406791D02*
X0396081D01*
X0395781Y0406491D02*
Y0407091D01*
X0411175Y0406777D02*
X0411775D01*
X0411475Y0406477D02*
Y0407077D01*
X0411238Y0403651D02*
X0411838D01*
X0411538Y0403351D02*
Y0403951D01*
X0411274Y0400540D02*
X0411874D01*
X0411574Y0400240D02*
Y0400840D01*
X0411282Y0369197D02*
X0411882D01*
X0411582Y0368897D02*
Y0369497D01*
X0411377Y0365995D02*
X0411977D01*
X0411677Y0365695D02*
Y0366295D01*
X0401663Y0384874D02*
X0402263D01*
X0401964Y0384574D02*
Y0385174D01*
X0398535Y0384924D02*
X0399135D01*
X0398835Y0384624D02*
Y0385224D01*
X0411327Y0394349D02*
X0411927D01*
X0411627Y0394049D02*
Y0394649D01*
X0414606Y0394221D02*
X0415206D01*
X0414906Y0393921D02*
Y0394521D01*
X0414532Y0391073D02*
X0415132D01*
X0414832Y0390773D02*
Y0391373D01*
X0411101Y0387893D02*
X0411701D01*
X0411401Y0387593D02*
Y0388193D01*
X0411089Y0391182D02*
X0411689D01*
X0411389Y0390882D02*
Y0391482D01*
X0411257Y0384774D02*
X0411857D01*
X0411557Y0384474D02*
Y0385074D01*
X0414534Y0387783D02*
X0415134D01*
X0414834Y0387483D02*
Y0388083D01*
X0411203Y0353326D02*
X0411803D01*
X0411503Y0353026D02*
Y0353625D01*
X0383217Y0397263D02*
X0383817D01*
X0383517Y0396962D02*
Y0397563D01*
X0382894Y0326094D02*
X0383494D01*
X0383194Y0325794D02*
Y0326394D01*
X0383090Y0282575D02*
X0383690D01*
X0383390Y0282275D02*
Y0282875D01*
X0383041Y0297921D02*
X0383641D01*
X0383341Y0297621D02*
Y0298221D01*
X0382934Y0279220D02*
X0383534D01*
X0383234Y0278920D02*
Y0279520D01*
X0386092Y0335736D02*
X0386692D01*
X0386392Y0335436D02*
Y0336036D01*
X0382932Y0335587D02*
X0383532D01*
X0383232Y0335287D02*
Y0335887D01*
X0386128Y0329303D02*
X0386728D01*
X0386428Y0329003D02*
Y0329603D01*
X0382995Y0329392D02*
X0383595D01*
X0383295Y0329092D02*
Y0329692D01*
X0386128Y0326147D02*
X0386728D01*
X0386428Y0325847D02*
Y0326447D01*
X0382833Y0313562D02*
X0383433D01*
X0383133Y0313262D02*
Y0313861D01*
X0385963Y0313647D02*
X0386562D01*
X0386262Y0313347D02*
Y0313947D01*
X0386231Y0317009D02*
X0386831D01*
X0386531Y0316709D02*
Y0317309D01*
X0382833Y0319893D02*
X0383433D01*
X0383133Y0319593D02*
Y0320193D01*
X0385967Y0320187D02*
X0386567D01*
X0386267Y0319887D02*
Y0320487D01*
X0382892Y0350208D02*
X0383492D01*
X0383192Y0349908D02*
Y0350508D01*
X0382892Y0353115D02*
X0383492D01*
X0383192Y0352815D02*
Y0353415D01*
X0386041Y0353115D02*
X0386642D01*
X0386342Y0352815D02*
Y0353415D01*
X0386041Y0356264D02*
X0386642D01*
X0386342Y0355964D02*
Y0356564D01*
X0386001Y0359462D02*
X0386601D01*
X0386301Y0359162D02*
Y0359762D01*
X0383358Y0365704D02*
X0383958D01*
X0383658Y0365404D02*
Y0366004D01*
X0383070Y0384741D02*
X0383670D01*
X0383370Y0384441D02*
Y0385041D01*
X0385978Y0384866D02*
X0386578D01*
X0386278Y0384566D02*
Y0385167D01*
X0383045Y0387963D02*
X0383645D01*
X0383345Y0387663D02*
Y0388263D01*
X0385978Y0391135D02*
X0386578D01*
X0386278Y0390835D02*
Y0391435D01*
X0386044Y0397336D02*
X0386644D01*
X0386344Y0397036D02*
Y0397636D01*
X0383050Y0400563D02*
X0383650D01*
X0383350Y0400263D02*
Y0400863D01*
X0386081Y0400628D02*
X0386681D01*
X0386381Y0400328D02*
Y0400928D01*
X0386174Y0403789D02*
X0386774D01*
X0386474Y0403489D02*
Y0404089D01*
X0382860Y0403546D02*
X0383460D01*
X0383160Y0403246D02*
Y0403846D01*
X0382846Y0406839D02*
X0383446D01*
X0383146Y0406539D02*
Y0407139D01*
X0386066Y0406785D02*
X0386666D01*
X0386366Y0406485D02*
Y0407085D01*
X0386130Y0369119D02*
X0386730D01*
X0386430Y0368819D02*
Y0369419D01*
X0382984Y0372265D02*
X0383584D01*
X0383284Y0371965D02*
Y0372565D01*
X0386171Y0372241D02*
X0386771D01*
X0386471Y0371941D02*
Y0372541D01*
X0386035Y0375333D02*
X0386635D01*
X0386335Y0375033D02*
Y0375633D01*
G54D20*
X0567400Y0087833D02*
Y0093831D01*
X0571399Y0087833D01*
Y0093831D01*
X0574398Y0087833D02*
X0576397D01*
X0577397Y0088833D01*
Y0090832D01*
X0576397Y0091832D01*
X0574398D01*
X0573398Y0090832D01*
Y0088833D01*
X0574398Y0087833D01*
X0580396Y0092832D02*
Y0091832D01*
X0579396D01*
X0581395D01*
X0580396D01*
Y0088833D01*
X0581395Y0087833D01*
X0590393D02*
X0592392D01*
X0591392D01*
Y0091832D01*
X0590393D01*
X0595391Y0087833D02*
Y0091832D01*
X0598390D01*
X0599390Y0090832D01*
Y0087833D01*
X0607387Y0091832D02*
X0609386Y0087833D01*
X0611386Y0091832D01*
X0616384Y0087833D02*
X0614385D01*
X0613385Y0088833D01*
Y0090832D01*
X0614385Y0091832D01*
X0616384D01*
X0617384Y0090832D01*
Y0089833D01*
X0613385D01*
X0619383Y0091832D02*
Y0087833D01*
Y0089833D01*
X0620383Y0090832D01*
X0621383Y0091832D01*
X0622382D01*
X0625381Y0087833D02*
X0628380D01*
X0629380Y0088833D01*
X0628380Y0089833D01*
X0626381D01*
X0625381Y0090832D01*
X0626381Y0091832D01*
X0629380D01*
X0631379Y0087833D02*
X0633379D01*
X0632379D01*
Y0091832D01*
X0631379D01*
X0637377Y0087833D02*
X0639377D01*
X0640376Y0088833D01*
Y0090832D01*
X0639377Y0091832D01*
X0637377D01*
X0636378Y0090832D01*
Y0088833D01*
X0637377Y0087833D01*
X0642376D02*
Y0091832D01*
X0645375D01*
X0646374Y0090832D01*
Y0087833D01*
X0658371Y0091832D02*
X0655372D01*
X0654372Y0090832D01*
Y0088833D01*
X0655372Y0087833D01*
X0658371D01*
X0661370D02*
X0663369D01*
X0664369Y0088833D01*
Y0090832D01*
X0663369Y0091832D01*
X0661370D01*
X0660370Y0090832D01*
Y0088833D01*
X0661370Y0087833D01*
X0666368D02*
Y0091832D01*
X0669367D01*
X0670367Y0090832D01*
Y0087833D01*
X0673366Y0092832D02*
Y0091832D01*
X0672366D01*
X0674365D01*
X0673366D01*
Y0088833D01*
X0674365Y0087833D01*
X0677364Y0091832D02*
Y0087833D01*
Y0089833D01*
X0678364Y0090832D01*
X0679364Y0091832D01*
X0680364D01*
X0684362Y0087833D02*
X0686362D01*
X0687361Y0088833D01*
Y0090832D01*
X0686362Y0091832D01*
X0684362D01*
X0683362Y0090832D01*
Y0088833D01*
X0684362Y0087833D01*
X0689361D02*
X0691360D01*
X0690360D01*
Y0093831D01*
X0689361D01*
X0520799Y0092832D02*
X0519799Y0093831D01*
X0517800D01*
X0516800Y0092832D01*
Y0091832D01*
X0517800Y0090832D01*
X0519799D01*
X0520799Y0089833D01*
Y0088833D01*
X0519799Y0087833D01*
X0517800D01*
X0516800Y0088833D01*
X0522798Y0093831D02*
Y0089833D01*
X0524797Y0087833D01*
X0526797Y0089833D01*
Y0093831D01*
X0528796Y0087833D02*
Y0093831D01*
X0532795Y0087833D01*
Y0093831D01*
X0540792Y0087833D02*
Y0093831D01*
X0543791D01*
X0544791Y0092832D01*
Y0090832D01*
X0543791Y0089833D01*
X0540792D01*
X0542792D02*
X0544791Y0087833D01*
X0550789Y0093831D02*
X0546790D01*
Y0087833D01*
X0550789D01*
X0546790Y0090832D02*
X0548790D01*
X0552788Y0093831D02*
Y0089833D01*
X0554788Y0087833D01*
X0556787Y0089833D01*
Y0093831D01*
X0558786Y0091832D02*
X0559786D01*
Y0090832D01*
X0558786D01*
Y0091832D01*
Y0088833D02*
X0559786D01*
Y0087833D01*
X0558786D01*
Y0088833D01*
X0433000Y0087833D02*
Y0093831D01*
X0435999D01*
X0436999Y0092832D01*
Y0090832D01*
X0435999Y0089833D01*
X0433000D01*
X0434999D02*
X0436999Y0087833D01*
X0442997Y0093831D02*
X0438998D01*
Y0087833D01*
X0442997D01*
X0438998Y0090832D02*
X0440997D01*
X0444996Y0093831D02*
Y0089833D01*
X0446995Y0087833D01*
X0448995Y0089833D01*
Y0093831D01*
X0450994Y0091832D02*
X0451994D01*
Y0090832D01*
X0450994D01*
Y0091832D01*
Y0088833D02*
X0451994D01*
Y0087833D01*
X0450994D01*
Y0088833D01*
X0126900Y0052965D02*
X0130899D01*
Y0051965D01*
X0126900Y0047966D01*
Y0046966D01*
X0132898D02*
X0134897D01*
X0133898D01*
Y0052965D01*
X0132898Y0051965D01*
X0137896D02*
X0138896Y0052965D01*
X0140895D01*
X0141895Y0051965D01*
Y0047966D01*
X0140895Y0046966D01*
X0138896D01*
X0137896Y0047966D01*
Y0051965D01*
X0143895D02*
X0144894Y0052965D01*
X0146894D01*
X0147893Y0051965D01*
Y0047966D01*
X0146894Y0046966D01*
X0144894D01*
X0143895Y0047966D01*
Y0051965D01*
X0149893Y0049966D02*
X0153891D01*
X0155891Y0051965D02*
X0156890Y0052965D01*
X0158890D01*
X0159889Y0051965D01*
Y0047966D01*
X0158890Y0046966D01*
X0156890D01*
X0155891Y0047966D01*
Y0051965D01*
X0161889D02*
X0162888Y0052965D01*
X0164888D01*
X0165887Y0051965D01*
Y0047966D01*
X0164888Y0046966D01*
X0162888D01*
X0161889Y0047966D01*
Y0051965D01*
X0167887D02*
X0168886Y0052965D01*
X0170886D01*
X0171885Y0051965D01*
Y0047966D01*
X0170886Y0046966D01*
X0168886D01*
X0167887Y0047966D01*
Y0051965D01*
X0173885D02*
X0174884Y0052965D01*
X0176884D01*
X0177884Y0051965D01*
Y0047966D01*
X0176884Y0046966D01*
X0174884D01*
X0173885Y0047966D01*
Y0051965D01*
X0179883D02*
X0180883Y0052965D01*
X0182882D01*
X0183882Y0051965D01*
Y0050965D01*
X0182882Y0049966D01*
X0181882D01*
X0182882D01*
X0183882Y0048966D01*
Y0047966D01*
X0182882Y0046966D01*
X0180883D01*
X0179883Y0047966D01*
X0191879Y0052965D02*
Y0047966D01*
X0192879Y0046966D01*
X0194878D01*
X0195878Y0047966D01*
Y0052965D01*
X0201876Y0051965D02*
X0200876Y0052965D01*
X0198877D01*
X0197877Y0051965D01*
Y0050965D01*
X0198877Y0049966D01*
X0200876D01*
X0201876Y0048966D01*
Y0047966D01*
X0200876Y0046966D01*
X0198877D01*
X0197877Y0047966D01*
X0203875Y0052965D02*
X0207874D01*
X0205874D01*
Y0046966D01*
X0209873Y0050965D02*
X0213872Y0046966D01*
X0211873Y0048966D01*
X0213872Y0050965D01*
X0209873Y0046966D01*
X0221869Y0052965D02*
Y0046966D01*
X0224868D01*
X0225868Y0047966D01*
Y0048966D01*
X0224868Y0049966D01*
X0221869D01*
X0224868D01*
X0225868Y0050965D01*
Y0051965D01*
X0224868Y0052965D01*
X0221869D01*
X0228867Y0046966D02*
X0230866D01*
X0231866Y0047966D01*
Y0049966D01*
X0230866Y0050965D01*
X0228867D01*
X0227867Y0049966D01*
Y0047966D01*
X0228867Y0046966D01*
X0234865Y0050965D02*
X0236864D01*
X0237864Y0049966D01*
Y0046966D01*
X0234865D01*
X0233865Y0047966D01*
X0234865Y0048966D01*
X0237864D01*
X0239863Y0050965D02*
Y0046966D01*
Y0048966D01*
X0240863Y0049966D01*
X0241863Y0050965D01*
X0242863D01*
X0249860Y0052965D02*
Y0046966D01*
X0246861D01*
X0245862Y0047966D01*
Y0049966D01*
X0246861Y0050965D01*
X0249860D01*
X0257858Y0052965D02*
Y0048966D01*
X0259857Y0046966D01*
X0261856Y0048966D01*
Y0052965D01*
X0263856Y0046966D02*
Y0047966D01*
X0264855D01*
Y0046966D01*
X0263856D01*
X0268854Y0051965D02*
X0269854Y0052965D01*
X0271853D01*
X0272853Y0051965D01*
Y0047966D01*
X0271853Y0046966D01*
X0269854D01*
X0268854Y0047966D01*
Y0051965D01*
X0274852Y0046966D02*
Y0047966D01*
X0275852D01*
Y0046966D01*
X0274852D01*
X0282850D02*
Y0052965D01*
X0279851Y0049966D01*
X0283849D01*
X0285849Y0046966D02*
Y0047966D01*
X0286848D01*
Y0046966D01*
X0285849D01*
X0290847D02*
X0292846D01*
X0291847D01*
Y0052965D01*
X0290847Y0051965D01*
X0295845Y0046966D02*
Y0047966D01*
X0296845D01*
Y0046966D01*
X0295845D01*
X0304842Y0051965D02*
X0303843Y0052965D01*
X0301843D01*
X0300844Y0051965D01*
Y0047966D01*
X0301843Y0046966D01*
X0303843D01*
X0304842Y0047966D01*
Y0049966D01*
X0302843D01*
X0310841Y0051965D02*
X0309841Y0052965D01*
X0307841D01*
X0306842Y0051965D01*
Y0047966D01*
X0307841Y0046966D01*
X0309841D01*
X0310841Y0047966D01*
Y0049966D01*
X0308841D01*
X0312840Y0046966D02*
X0314839D01*
X0313840D01*
Y0052965D01*
X0312840Y0051965D01*
X0381150Y0046966D02*
X0383149D01*
X0382150D01*
Y0052965D01*
X0381150Y0051965D01*
X0386148Y0046966D02*
X0390147Y0050965D01*
X0396145Y0046966D02*
X0392146D01*
X0396145Y0050965D01*
Y0051965D01*
X0395146Y0052965D01*
X0393146D01*
X0392146Y0051965D01*
X0398145D02*
X0399144Y0052965D01*
X0401144D01*
X0402143Y0051965D01*
Y0050965D01*
X0401144Y0049966D01*
X0402143Y0048966D01*
Y0047966D01*
X0401144Y0046966D01*
X0399144D01*
X0398145Y0047966D01*
Y0048966D01*
X0399144Y0049966D01*
X0398145Y0050965D01*
Y0051965D01*
X0399144Y0049966D02*
X0401144D01*
X0404143Y0046966D02*
X0408141Y0050965D01*
X0414139Y0046966D02*
X0410141D01*
X0414139Y0050965D01*
Y0051965D01*
X0413140Y0052965D01*
X0411140D01*
X0410141Y0051965D01*
X0416139D02*
X0417138Y0052965D01*
X0419138D01*
X0420137Y0051965D01*
Y0047966D01*
X0419138Y0046966D01*
X0417138D01*
X0416139Y0047966D01*
Y0051965D01*
X0426135Y0046966D02*
X0422137D01*
X0426135Y0050965D01*
Y0051965D01*
X0425136Y0052965D01*
X0423136D01*
X0422137Y0051965D01*
X0432133Y0052965D02*
X0428135D01*
Y0049966D01*
X0430134Y0050965D01*
X0431134D01*
X0432133Y0049966D01*
Y0047966D01*
X0431134Y0046966D01*
X0429135D01*
X0428135Y0047966D01*
X0298199Y0051965D02*
X0297199Y0052965D01*
X0295200D01*
X0294200Y0051965D01*
Y0047966D01*
X0295200Y0046966D01*
X0297199D01*
X0298199Y0047966D01*
Y0049966D01*
X0296199D01*
X0304197Y0052965D02*
X0300198D01*
Y0046966D01*
X0304197D01*
X0300198Y0049966D02*
X0302197D01*
X0306196Y0046966D02*
Y0052965D01*
X0310195Y0046966D01*
Y0052965D01*
X0316193D02*
X0312194D01*
Y0046966D01*
X0316193D01*
X0312194Y0049966D02*
X0314194D01*
X0318192Y0046966D02*
Y0052965D01*
X0321191D01*
X0322191Y0051965D01*
Y0049966D01*
X0321191Y0048966D01*
X0318192D01*
X0320192D02*
X0322191Y0046966D01*
X0324190D02*
Y0050965D01*
X0326190Y0052965D01*
X0328189Y0050965D01*
Y0046966D01*
Y0049966D01*
X0324190D01*
X0330188Y0052965D02*
X0334187D01*
X0332188D01*
Y0046966D01*
X0340185Y0052965D02*
X0336186D01*
Y0046966D01*
X0340185D01*
X0336186Y0049966D02*
X0338186D01*
X0342184Y0052965D02*
Y0046966D01*
X0345183D01*
X0346183Y0047966D01*
Y0051965D01*
X0345183Y0052965D01*
X0342184D01*
X0372175Y0050965D02*
X0373175D01*
Y0049966D01*
X0372175D01*
Y0050965D01*
Y0047966D02*
X0373175D01*
Y0046966D01*
X0372175D01*
Y0047966D01*
X0041778Y0083375D02*
Y0087374D01*
X0043777Y0089373D01*
X0045777Y0087374D01*
Y0083375D01*
Y0086374D01*
X0041778D01*
X0047776Y0089373D02*
Y0083375D01*
X0051775D01*
X0053774Y0089373D02*
Y0083375D01*
X0057773D01*
X0065770D02*
Y0087374D01*
X0067769Y0089373D01*
X0069769Y0087374D01*
Y0083375D01*
Y0086374D01*
X0065770D01*
X0071768Y0083375D02*
Y0089373D01*
X0074767D01*
X0075767Y0088373D01*
Y0086374D01*
X0074767Y0085374D01*
X0071768D01*
X0073768D02*
X0075767Y0083375D01*
X0077766Y0089373D02*
X0081765D01*
X0079766D01*
Y0083375D01*
X0083764Y0089373D02*
Y0083375D01*
X0085764Y0085374D01*
X0087763Y0083375D01*
Y0089373D01*
X0092761D02*
X0090762D01*
X0089762Y0088373D01*
Y0084374D01*
X0090762Y0083375D01*
X0092761D01*
X0093761Y0084374D01*
Y0088373D01*
X0092761Y0089373D01*
X0095760Y0083375D02*
Y0089373D01*
X0098759D01*
X0099759Y0088373D01*
Y0086374D01*
X0098759Y0085374D01*
X0095760D01*
X0097760D02*
X0099759Y0083375D01*
X0101759Y0089373D02*
Y0083375D01*
Y0085374D01*
X0105757Y0089373D01*
X0102758Y0086374D01*
X0105757Y0083375D01*
X0113755Y0089373D02*
Y0085374D01*
X0115754Y0083375D01*
X0117753Y0085374D01*
Y0089373D01*
X0119753D02*
X0121752D01*
X0120752D01*
Y0083375D01*
X0119753D01*
X0121752D01*
X0128750Y0089373D02*
X0124751D01*
Y0083375D01*
X0128750D01*
X0124751Y0086374D02*
X0126750D01*
X0130749Y0089373D02*
Y0083375D01*
X0132748Y0085374D01*
X0134748Y0083375D01*
Y0089373D01*
X0140746D02*
X0136747D01*
Y0083375D01*
X0140746D01*
X0136747Y0086374D02*
X0138747D01*
X0142745Y0089373D02*
Y0083375D01*
X0145744D01*
X0146744Y0084374D01*
Y0088373D01*
X0145744Y0089373D01*
X0142745D01*
X0158740D02*
X0154741D01*
Y0086374D01*
X0156741D01*
X0154741D01*
Y0083375D01*
X0160739D02*
Y0089373D01*
X0163738D01*
X0164738Y0088373D01*
Y0086374D01*
X0163738Y0085374D01*
X0160739D01*
X0162739D02*
X0164738Y0083375D01*
X0169737Y0089373D02*
X0167737D01*
X0166737Y0088373D01*
Y0084374D01*
X0167737Y0083375D01*
X0169737D01*
X0170736Y0084374D01*
Y0088373D01*
X0169737Y0089373D01*
X0172736Y0083375D02*
Y0089373D01*
X0174735Y0087374D01*
X0176734Y0089373D01*
Y0083375D01*
X0184732Y0089373D02*
X0188730D01*
X0186731D01*
Y0083375D01*
X0193729Y0089373D02*
X0191729D01*
X0190730Y0088373D01*
Y0084374D01*
X0191729Y0083375D01*
X0193729D01*
X0194728Y0084374D01*
Y0088373D01*
X0193729Y0089373D01*
X0196728Y0083375D02*
Y0089373D01*
X0199727D01*
X0200727Y0088373D01*
Y0086374D01*
X0199727Y0085374D01*
X0196728D01*
X0212723Y0088373D02*
X0211723Y0089373D01*
X0209723D01*
X0208724Y0088373D01*
Y0087374D01*
X0209723Y0086374D01*
X0211723D01*
X0212723Y0085374D01*
Y0084374D01*
X0211723Y0083375D01*
X0209723D01*
X0208724Y0084374D01*
X0214722Y0089373D02*
X0216721D01*
X0215722D01*
Y0083375D01*
X0214722D01*
X0216721D01*
X0219720Y0089373D02*
Y0083375D01*
X0222719D01*
X0223719Y0084374D01*
Y0088373D01*
X0222719Y0089373D01*
X0219720D01*
X0229717D02*
X0225718D01*
Y0083375D01*
X0229717D01*
X0225718Y0086374D02*
X0227718D01*
X0462150Y0092832D02*
X0463150Y0093831D01*
X0465149D01*
X0466149Y0092832D01*
Y0088833D01*
X0465149Y0087833D01*
X0463150D01*
X0462150Y0088833D01*
Y0092832D01*
X0348550Y0093831D02*
X0352549D01*
Y0092832D01*
X0348550Y0088833D01*
Y0087833D01*
X0354548D02*
X0356547D01*
X0355548D01*
Y0093831D01*
X0354548Y0092832D01*
X0359546D02*
X0360546Y0093831D01*
X0362545D01*
X0363545Y0092832D01*
Y0088833D01*
X0362545Y0087833D01*
X0360546D01*
X0359546Y0088833D01*
Y0092832D01*
X0365545D02*
X0366544Y0093831D01*
X0368544D01*
X0369543Y0092832D01*
Y0088833D01*
X0368544Y0087833D01*
X0366544D01*
X0365545Y0088833D01*
Y0092832D01*
X0371543Y0090832D02*
X0375541D01*
X0377541Y0092832D02*
X0378540Y0093831D01*
X0380540D01*
X0381539Y0092832D01*
Y0088833D01*
X0380540Y0087833D01*
X0378540D01*
X0377541Y0088833D01*
Y0092832D01*
X0383539D02*
X0384538Y0093831D01*
X0386538D01*
X0387537Y0092832D01*
Y0088833D01*
X0386538Y0087833D01*
X0384538D01*
X0383539Y0088833D01*
Y0092832D01*
X0389537D02*
X0390536Y0093831D01*
X0392536D01*
X0393535Y0092832D01*
Y0088833D01*
X0392536Y0087833D01*
X0390536D01*
X0389537Y0088833D01*
Y0092832D01*
X0395535D02*
X0396534Y0093831D01*
X0398534D01*
X0399534Y0092832D01*
Y0088833D01*
X0398534Y0087833D01*
X0396534D01*
X0395535Y0088833D01*
Y0092832D01*
X0401533D02*
X0402532Y0093831D01*
X0404532D01*
X0405532Y0092832D01*
Y0091832D01*
X0404532Y0090832D01*
X0403532D01*
X0404532D01*
X0405532Y0089833D01*
Y0088833D01*
X0404532Y0087833D01*
X0402532D01*
X0401533Y0088833D01*
X0294000Y0093831D02*
Y0087833D01*
X0296999D01*
X0297999Y0088833D01*
Y0089833D01*
X0296999Y0090832D01*
X0294000D01*
X0296999D01*
X0297999Y0091832D01*
Y0092832D01*
X0296999Y0093831D01*
X0294000D01*
X0302997D02*
X0300998D01*
X0299998Y0092832D01*
Y0088833D01*
X0300998Y0087833D01*
X0302997D01*
X0303997Y0088833D01*
Y0092832D01*
X0302997Y0093831D01*
X0305996Y0087833D02*
Y0091832D01*
X0307996Y0093831D01*
X0309995Y0091832D01*
Y0087833D01*
Y0090832D01*
X0305996D01*
X0311994Y0087833D02*
Y0093831D01*
X0314993D01*
X0315993Y0092832D01*
Y0090832D01*
X0314993Y0089833D01*
X0311994D01*
X0313994D02*
X0315993Y0087833D01*
X0317992Y0093831D02*
Y0087833D01*
X0320991D01*
X0321991Y0088833D01*
Y0092832D01*
X0320991Y0093831D01*
X0317992D01*
X0330988Y0087833D02*
Y0093831D01*
X0332987D02*
Y0087833D01*
X0329988Y0091832D02*
X0332987D01*
X0333987D01*
X0329988Y0089833D02*
X0333987D01*
X0335986Y0091832D02*
X0336986D01*
Y0090832D01*
X0335986D01*
Y0091832D01*
Y0088833D02*
X0336986D01*
Y0087833D01*
X0335986D01*
Y0088833D01*
X0046350Y0073549D02*
Y0067551D01*
X0050349D01*
X0052348D02*
Y0071549D01*
X0054347Y0073549D01*
X0056347Y0071549D01*
Y0067551D01*
Y0070550D01*
X0052348D01*
X0058346Y0073549D02*
Y0072549D01*
X0060346Y0070550D01*
X0062345Y0072549D01*
Y0073549D01*
X0060346Y0070550D02*
Y0067551D01*
X0068343Y0073549D02*
X0064344D01*
Y0067551D01*
X0068343D01*
X0064344Y0070550D02*
X0066343D01*
X0070342Y0067551D02*
Y0073549D01*
X0073341D01*
X0074341Y0072549D01*
Y0070550D01*
X0073341Y0069550D01*
X0070342D01*
X0072342D02*
X0074341Y0067551D01*
X0082338D02*
Y0073549D01*
X0086337Y0067551D01*
Y0073549D01*
X0088336Y0067551D02*
Y0071549D01*
X0090336Y0073549D01*
X0092335Y0071549D01*
Y0067551D01*
Y0070550D01*
X0088336D01*
X0094335Y0067551D02*
Y0073549D01*
X0096334Y0071549D01*
X0098333Y0073549D01*
Y0067551D01*
X0104331Y0073549D02*
X0100332D01*
Y0067551D01*
X0104331D01*
X0100332Y0070550D02*
X0102332D01*
X0112329Y0069550D02*
X0116327D01*
X0112329Y0071549D02*
X0116327D01*
X0046350Y0046966D02*
Y0052965D01*
X0049349D01*
X0050349Y0051965D01*
Y0049966D01*
X0049349Y0048966D01*
X0046350D01*
X0052348Y0052965D02*
Y0046966D01*
X0056347D01*
X0061345Y0052965D02*
X0059346D01*
X0058346Y0051965D01*
Y0047966D01*
X0059346Y0046966D01*
X0061345D01*
X0062345Y0047966D01*
Y0051965D01*
X0061345Y0052965D01*
X0064344D02*
X0068343D01*
X0066343D01*
Y0046966D01*
X0076340D02*
Y0052965D01*
X0080339Y0046966D01*
Y0052965D01*
X0082338Y0046966D02*
Y0050965D01*
X0084338Y0052965D01*
X0086337Y0050965D01*
Y0046966D01*
Y0049966D01*
X0082338D01*
X0088336Y0046966D02*
Y0052965D01*
X0090336Y0050965D01*
X0092335Y0052965D01*
Y0046966D01*
X0098333Y0052965D02*
X0094335D01*
Y0046966D01*
X0098333D01*
X0094335Y0049966D02*
X0096334D01*
X0106331Y0048966D02*
X0110329D01*
X0106331Y0050965D02*
X0110329D01*
X0454050Y0046966D02*
X0456049D01*
X0455050D01*
Y0052965D01*
X0454050Y0051965D01*
X0463047Y0046966D02*
X0459048D01*
X0463047Y0050965D01*
Y0051965D01*
X0462047Y0052965D01*
X0460048D01*
X0459048Y0051965D01*
X0465046Y0050965D02*
X0466046D01*
Y0049966D01*
X0465046D01*
Y0050965D01*
Y0047966D02*
X0466046D01*
Y0046966D01*
X0465046D01*
Y0047966D01*
X0470045Y0051965D02*
X0471044Y0052965D01*
X0473044D01*
X0474044Y0051965D01*
Y0050965D01*
X0473044Y0049966D01*
X0472044D01*
X0473044D01*
X0474044Y0048966D01*
Y0047966D01*
X0473044Y0046966D01*
X0471044D01*
X0470045Y0047966D01*
X0476043Y0046966D02*
X0478042D01*
X0477043D01*
Y0052965D01*
X0476043Y0051965D01*
X0481041Y0050965D02*
X0482041D01*
Y0049966D01*
X0481041D01*
Y0050965D01*
Y0047966D02*
X0482041D01*
Y0046966D01*
X0481041D01*
Y0047966D01*
X0486040Y0051965D02*
X0487039Y0052965D01*
X0489039D01*
X0490038Y0051965D01*
Y0050965D01*
X0489039Y0049966D01*
X0488039D01*
X0489039D01*
X0490038Y0048966D01*
Y0047966D01*
X0489039Y0046966D01*
X0487039D01*
X0486040Y0047966D01*
X0492038D02*
X0493037Y0046966D01*
X0495037D01*
X0496036Y0047966D01*
Y0051965D01*
X0495037Y0052965D01*
X0493037D01*
X0492038Y0051965D01*
Y0050965D01*
X0493037Y0049966D01*
X0496036D01*
X0504034Y0046966D02*
Y0052965D01*
X0507033D01*
X0508033Y0051965D01*
Y0049966D01*
X0507033Y0048966D01*
X0504034D01*
X0510032Y0046966D02*
Y0052965D01*
X0512031Y0050965D01*
X0514031Y0052965D01*
Y0046966D01*
X0604409Y0053922D02*
X0602409D01*
X0601409Y0052922D01*
Y0048923D01*
X0602409Y0047924D01*
X0604409D01*
X0605408Y0048923D01*
Y0052922D01*
X0604409Y0053922D01*
X0607408Y0045924D02*
Y0051922D01*
X0610407D01*
X0611406Y0050923D01*
Y0048923D01*
X0610407Y0047924D01*
X0607408D01*
X0616405D02*
X0614405D01*
X0613406Y0048923D01*
Y0050923D01*
X0614405Y0051922D01*
X0616405D01*
X0617404Y0050923D01*
Y0049923D01*
X0613406D01*
X0619404Y0047924D02*
Y0051922D01*
X0622403D01*
X0623402Y0050923D01*
Y0047924D01*
X0625402Y0053922D02*
Y0047924D01*
X0627401Y0049923D01*
X0629400Y0047924D01*
Y0053922D01*
X0632400Y0051922D02*
X0634399D01*
X0635398Y0050923D01*
Y0047924D01*
X0632400D01*
X0631400Y0048923D01*
X0632400Y0049923D01*
X0635398D01*
X0638398Y0052922D02*
Y0051922D01*
X0637398D01*
X0639397D01*
X0638398D01*
Y0048923D01*
X0639397Y0047924D01*
X0645395D02*
X0643396D01*
X0642396Y0048923D01*
Y0050923D01*
X0643396Y0051922D01*
X0645395D01*
X0646395Y0050923D01*
Y0049923D01*
X0642396D01*
X0648394Y0051922D02*
Y0047924D01*
Y0049923D01*
X0649394Y0050923D01*
X0650394Y0051922D01*
X0651393D01*
X0294000Y0073498D02*
X0297999D01*
X0295999D01*
Y0067500D01*
X0299998Y0073498D02*
X0301997D01*
X0300998D01*
Y0067500D01*
X0299998D01*
X0301997D01*
X0304996Y0073498D02*
Y0067500D01*
X0307996D01*
X0308995Y0068500D01*
Y0072498D01*
X0307996Y0073498D01*
X0304996D01*
X0317992Y0067500D02*
Y0073498D01*
X0319992D02*
Y0067500D01*
X0316993Y0071499D02*
X0319992D01*
X0320991D01*
X0316993Y0069499D02*
X0320991D01*
X0322991Y0071499D02*
X0323990D01*
Y0070499D01*
X0322991D01*
Y0071499D01*
Y0068500D02*
X0323990D01*
Y0067500D01*
X0322991D01*
Y0068500D01*
X0348550Y0067500D02*
Y0073498D01*
X0352549Y0067500D01*
Y0073498D01*
X0354548Y0067500D02*
X0358547Y0071499D01*
X0360546Y0067500D02*
Y0071499D01*
X0362545Y0073498D01*
X0364545Y0071499D01*
Y0067500D01*
Y0070499D01*
X0360546D01*
X0126900Y0073549D02*
Y0067551D01*
X0129899D01*
X0130899Y0068550D01*
Y0072549D01*
X0129899Y0073549D01*
X0126900D01*
X0132898Y0071549D02*
Y0067551D01*
Y0069550D01*
X0133898Y0070550D01*
X0134897Y0071549D01*
X0135897D01*
X0138896Y0067551D02*
X0140895D01*
X0139896D01*
Y0071549D01*
X0138896D01*
X0143895Y0067551D02*
X0145894D01*
X0144894D01*
Y0073549D01*
X0143895D01*
X0148893Y0067551D02*
X0150892D01*
X0149893D01*
Y0073549D01*
X0148893D01*
X0163888Y0072549D02*
X0162888Y0073549D01*
X0160889D01*
X0159889Y0072549D01*
Y0068550D01*
X0160889Y0067551D01*
X0162888D01*
X0163888Y0068550D01*
Y0070550D01*
X0161889D01*
X0165887Y0071549D02*
Y0068550D01*
X0166887Y0067551D01*
X0169886D01*
Y0071549D01*
X0171885Y0067551D02*
X0173885D01*
X0172885D01*
Y0071549D01*
X0171885D01*
X0180883Y0073549D02*
Y0067551D01*
X0177884D01*
X0176884Y0068550D01*
Y0070550D01*
X0177884Y0071549D01*
X0180883D01*
X0185881Y0067551D02*
X0183882D01*
X0182882Y0068550D01*
Y0070550D01*
X0183882Y0071549D01*
X0185881D01*
X0186881Y0070550D01*
Y0069550D01*
X0182882D01*
M02*
