G04*
G04 #@! TF.GenerationSoftware,Altium Limited,Altium Designer,24.3.1 (35)*
G04*
G04 Layer_Color=65535*
%FSAX25Y25*%
%MOIN*%
G70*
G04*
G04 #@! TF.SameCoordinates,9BAF8AC8-72E2-4161-A934-73288D8D8D4B*
G04*
G04*
G04 #@! TF.FilePolarity,Positive*
G04*
G01*
G75*
%ADD10C,0.00787*%
%ADD11C,0.01000*%
%ADD12C,0.00300*%
%ADD13C,0.00700*%
%ADD14C,0.00600*%
%ADD15C,0.00200*%
%ADD16C,0.00500*%
%ADD17C,0.02000*%
%ADD18C,0.00400*%
%ADD19C,0.00100*%
%ADD20C,0.00800*%
G54D10*
X0554986Y0413475D02*
G03*
X0554986Y0413475I-0005709J0000000D01*
G01*
X0554886Y0270775D02*
G03*
X0554886Y0270775I-0005709J0000000D01*
G01*
X0340387Y0270875D02*
G03*
X0340387Y0270875I-0005709J0000000D01*
G01*
Y0413775D02*
G03*
X0340387Y0413775I-0005709J0000000D01*
G01*
X0419962Y0333500D02*
G03*
X0419962Y0333500I-0000394J0000000D01*
G01*
X0494470Y0376272D02*
G03*
X0494470Y0376272I-0000394J0000000D01*
G01*
X0419738Y0389283D02*
G03*
X0419738Y0389283I-0000394J0000000D01*
G01*
X0413861Y0273866D02*
Y0273949D01*
X0413332Y0273337D02*
X0413861Y0273866D01*
X0408586Y0273337D02*
X0413332D01*
X0413861Y0273949D02*
X0416460Y0276547D01*
Y0281211D01*
X0371971Y0273337D02*
X0375908D01*
X0371971D02*
Y0277274D01*
X0412523Y0341447D02*
X0416460D01*
Y0337510D02*
Y0341447D01*
X0371971D02*
X0375908D01*
X0371971Y0337510D02*
Y0341447D01*
X0463225Y0288998D02*
Y0294509D01*
X0504170Y0288998D02*
Y0294509D01*
X0467753Y0301793D02*
X0473855D01*
X0493540D02*
X0499643D01*
X0473855Y0306517D02*
X0493540D01*
X0473855Y0301793D02*
Y0306517D01*
X0493540Y0301793D02*
Y0306517D01*
X0463225Y0288998D02*
X0467359D01*
X0500036D02*
X0504170D01*
X0371971Y0408712D02*
Y0412649D01*
X0375908D01*
X0416460Y0408712D02*
Y0412649D01*
X0412523D02*
X0416460D01*
X0371971Y0344538D02*
Y0348475D01*
Y0344538D02*
X0375908D01*
X0416460Y0347748D02*
Y0352412D01*
X0413861Y0345150D02*
X0416460Y0347748D01*
X0408586Y0344538D02*
X0413332D01*
X0413861Y0345068D01*
Y0345150D01*
G54D11*
X0416460Y0276630D02*
Y0341447D01*
X0413167Y0273337D02*
X0416460Y0276630D01*
X0371971Y0273337D02*
X0413167D01*
X0371971D02*
Y0341447D01*
X0416460D01*
X0464791Y0283986D02*
X0475533D01*
X0475189Y0254098D02*
X0521279D01*
X0423515D02*
X0464855D01*
X0418880Y0258734D02*
X0423515Y0254098D01*
X0464855D02*
Y0254764D01*
X0475189D01*
Y0254098D02*
Y0254764D01*
X0475533Y0283233D02*
Y0284738D01*
X0464791D02*
X0475533D01*
X0464791Y0283233D02*
Y0284738D01*
X0418880Y0283233D02*
X0521279D01*
Y0254098D02*
Y0283233D01*
X0418880Y0258734D02*
Y0283233D01*
X0371971Y0412649D02*
X0416460D01*
X0371971Y0344538D02*
Y0412649D01*
Y0344538D02*
X0413167D01*
X0416460Y0347831D01*
Y0412649D01*
X0465286Y0428253D02*
X0476028D01*
X0475684Y0398365D02*
X0521775D01*
X0424010D02*
X0465350D01*
X0419375Y0403000D02*
X0424010Y0398365D01*
X0465350D02*
Y0399030D01*
X0475684D01*
Y0398365D02*
Y0399030D01*
X0476028Y0427500D02*
Y0429005D01*
X0465286D02*
X0476028D01*
X0465286Y0427500D02*
Y0429005D01*
X0419375Y0427500D02*
X0521775D01*
Y0398365D02*
Y0427500D01*
X0419375Y0403000D02*
Y0427500D01*
X0358020Y0430118D02*
X0358779Y0429358D01*
X0314735Y0259432D02*
X0316735Y0253432D01*
X0318735Y0259432D01*
X0316735Y0429784D02*
X0318735Y0423784D01*
X0314735D02*
X0316735Y0429784D01*
Y0253432D02*
Y0341608D01*
Y0429784D01*
X0315735Y0253432D02*
X0329046D01*
X0315735Y0429784D02*
X0324922D01*
X0497200Y0080717D02*
Y0101050D01*
X0413200Y0080717D02*
Y0101050D01*
X0040000Y0080717D02*
X0700200D01*
X0040000Y0060383D02*
X0700000D01*
X0040000Y0040050D02*
X0440500D01*
X0040050Y0101050D02*
X0700200D01*
X0040050Y0040050D02*
Y0101050D01*
Y0040050D02*
X0197600D01*
X0040000D02*
Y0101050D01*
X0286500Y0040050D02*
Y0101050D01*
X0700200Y0040050D02*
Y0101050D01*
X0440500Y0040050D02*
X0700200D01*
X0559400Y0039400D02*
Y0059683D01*
G54D12*
X0473372Y0350219D02*
Y0353782D01*
X0472809Y0349656D02*
X0473372Y0350219D01*
X0469179Y0349656D02*
X0472809D01*
X0469179D02*
Y0353782D01*
X0473372D01*
X0470061Y0333524D02*
X0470839Y0334301D01*
Y0335296D01*
Y0341532D01*
X0464337Y0333524D02*
X0470061D01*
X0464337D02*
Y0341532D01*
X0470839D01*
X0473026Y0331566D02*
X0475351Y0329241D01*
X0444221Y0394301D02*
X0458721D01*
Y0381301D02*
Y0394301D01*
X0442721Y0381301D02*
X0458721D01*
X0442721D02*
Y0392801D01*
X0444221Y0394301D01*
X0512251Y0364541D02*
X0514995D01*
Y0372243D01*
X0512251D02*
X0514995D01*
X0512251Y0364541D02*
Y0372243D01*
X0463426Y0355935D02*
X0463433Y0355942D01*
X0454722Y0355935D02*
X0463426D01*
X0451663Y0358994D02*
X0454722Y0355935D01*
X0451663Y0358994D02*
Y0374844D01*
X0470583D01*
Y0355942D02*
Y0374844D01*
X0463433Y0355942D02*
X0470583D01*
X0520080Y0364621D02*
X0531104D01*
X0520080Y0358680D02*
Y0364621D01*
Y0358680D02*
X0531840D01*
X0531104Y0364621D02*
X0531840Y0363885D01*
Y0358680D02*
Y0363885D01*
X0522101Y0346267D02*
Y0347914D01*
X0532033D01*
Y0343805D02*
Y0347914D01*
X0522776Y0343805D02*
X0532033D01*
X0522101Y0344480D02*
X0522776Y0343805D01*
X0522101Y0344480D02*
Y0346267D01*
X0463705Y0348959D02*
Y0354591D01*
X0467643D01*
X0463705Y0348959D02*
Y0354591D01*
X0468277Y0349112D02*
Y0353957D01*
X0467643Y0354591D02*
X0468277Y0353957D01*
X0463705Y0348959D02*
X0468290D01*
X0463705D02*
X0468290D01*
X0487921Y0343402D02*
Y0357023D01*
X0486041Y0358903D02*
X0487921Y0357023D01*
X0474821Y0343402D02*
X0487921D01*
X0474821D02*
Y0358903D01*
X0486041D01*
X0406457Y0425372D02*
X0409614D01*
X0406457Y0421601D02*
Y0425372D01*
Y0421601D02*
X0410191D01*
Y0424795D01*
X0409614Y0425372D02*
X0410191Y0424795D01*
X0482577Y0309376D02*
X0486995D01*
Y0319782D01*
X0482577D02*
X0486995D01*
X0482577Y0309376D02*
Y0319782D01*
X0487470Y0308772D02*
Y0313190D01*
Y0308772D02*
X0497876D01*
Y0313190D01*
X0487470D02*
X0497876D01*
X0521727Y0327111D02*
Y0328758D01*
X0531658D01*
Y0324649D02*
Y0328758D01*
X0522402Y0324649D02*
X0531658D01*
X0521727Y0325324D02*
X0522402Y0324649D01*
X0521727Y0325324D02*
Y0327111D01*
X0449695Y0362537D02*
Y0365281D01*
X0441992D02*
X0449695D01*
X0441992Y0362537D02*
Y0365281D01*
Y0362537D02*
X0449695D01*
X0447430Y0365894D02*
X0450174D01*
Y0373596D01*
X0447430D02*
X0450174D01*
X0447430Y0365894D02*
Y0373596D01*
X0452381Y0376879D02*
Y0379623D01*
Y0376879D02*
X0460083D01*
Y0379623D01*
X0452381D02*
X0460083D01*
X0472368Y0368074D02*
X0475112D01*
X0472368Y0360371D02*
Y0368074D01*
Y0360371D02*
X0475112D01*
Y0368074D01*
X0502384Y0372663D02*
X0510086D01*
Y0369919D02*
Y0372663D01*
X0502384Y0369919D02*
X0510086D01*
X0502384D02*
Y0372663D01*
X0479071Y0320261D02*
Y0327963D01*
X0476327Y0320261D02*
X0479071D01*
X0476327D02*
Y0327963D01*
X0479071D01*
X0521685Y0321328D02*
Y0322975D01*
X0531617D01*
Y0318866D02*
Y0322975D01*
X0522360Y0318866D02*
X0531617D01*
X0521685Y0319541D02*
X0522360Y0318866D01*
X0521685Y0319541D02*
Y0321328D01*
X0531640Y0332913D02*
Y0334700D01*
X0530965Y0335375D02*
X0531640Y0334700D01*
X0521708Y0335375D02*
X0530965D01*
X0521708Y0331266D02*
Y0335375D01*
Y0331266D02*
X0531640D01*
Y0332913D01*
X0521560Y0315837D02*
Y0317484D01*
X0531492D01*
Y0313375D02*
Y0317484D01*
X0522235Y0313375D02*
X0531492D01*
X0521560Y0314050D02*
X0522235Y0313375D01*
X0521560Y0314050D02*
Y0315837D01*
X0479814Y0320175D02*
Y0327877D01*
X0482558D01*
Y0320175D02*
Y0327877D01*
X0479814Y0320175D02*
X0482558D01*
X0445457Y0311323D02*
X0453159D01*
X0445457D02*
Y0314067D01*
X0453159D01*
Y0311323D02*
Y0314067D01*
X0445437Y0314842D02*
X0453140D01*
X0445437D02*
Y0317585D01*
X0453140D01*
Y0314842D02*
Y0317585D01*
X0502384Y0366250D02*
Y0368994D01*
Y0366250D02*
X0510086D01*
Y0368994D01*
X0502384D02*
X0510086D01*
X0450370Y0375777D02*
Y0378521D01*
X0442667D02*
X0450370D01*
X0442667Y0375777D02*
Y0378521D01*
Y0375777D02*
X0450370D01*
X0472032Y0375016D02*
X0474776D01*
Y0382718D01*
X0472032D02*
X0474776D01*
X0472032Y0375016D02*
Y0382718D01*
X0520642Y0365867D02*
X0531667D01*
Y0371808D01*
X0519906D02*
X0531667D01*
X0519906Y0366602D02*
X0520642Y0365867D01*
X0519906Y0366602D02*
Y0371808D01*
X0521893Y0339923D02*
Y0341570D01*
X0531825D01*
Y0337461D02*
Y0341570D01*
X0522568Y0337461D02*
X0531825D01*
X0521893Y0338136D02*
X0522568Y0337461D01*
X0521893Y0338136D02*
Y0339923D01*
X0460408Y0346711D02*
X0463152D01*
Y0354413D01*
X0460408D02*
X0463152D01*
X0460408Y0346711D02*
Y0354413D01*
X0467704Y0376697D02*
X0470448D01*
Y0384399D01*
X0467704D02*
X0470448D01*
X0467704Y0376697D02*
Y0384399D01*
X0451840Y0332915D02*
X0454584D01*
Y0340617D01*
X0451840D02*
X0454584D01*
X0451840Y0332915D02*
Y0340617D01*
X0460437Y0392621D02*
X0468140D01*
Y0389877D02*
Y0392621D01*
X0460437Y0389877D02*
X0468140D01*
X0460437D02*
Y0392621D01*
X0460426Y0389047D02*
X0468128D01*
Y0386303D02*
Y0389047D01*
X0460426Y0386303D02*
X0468128D01*
X0460426D02*
Y0389047D01*
X0471488Y0332424D02*
Y0333091D01*
X0471821Y0333424D01*
X0472154Y0333091D01*
Y0332424D01*
Y0332924D01*
X0471488D01*
X0472488Y0332424D02*
X0472821D01*
X0472654D01*
Y0333424D01*
X0472488Y0333258D01*
X0457046Y0333213D02*
Y0332214D01*
Y0332714D01*
X0457713D01*
Y0333213D01*
Y0332214D01*
X0458046D02*
X0458379D01*
X0458213D01*
Y0333213D01*
X0458046Y0333047D01*
X0476178Y0313518D02*
Y0314184D01*
X0476511Y0314518D01*
X0476845Y0314184D01*
Y0313518D01*
Y0314018D01*
X0476178D01*
X0477178Y0314351D02*
X0477345Y0314518D01*
X0477678D01*
X0477844Y0314351D01*
Y0314184D01*
X0477678Y0314018D01*
X0477844Y0313851D01*
Y0313685D01*
X0477678Y0313518D01*
X0477345D01*
X0477178Y0313685D01*
Y0313851D01*
X0477345Y0314018D01*
X0477178Y0314184D01*
Y0314351D01*
X0477345Y0314018D02*
X0477678D01*
X0455839Y0309718D02*
Y0308719D01*
Y0309219D01*
X0456505D01*
Y0309718D01*
Y0308719D01*
X0456838Y0309552D02*
X0457005Y0309718D01*
X0457338D01*
X0457505Y0309552D01*
Y0309385D01*
X0457338Y0309219D01*
X0457505Y0309052D01*
Y0308885D01*
X0457338Y0308719D01*
X0457005D01*
X0456838Y0308885D01*
Y0309052D01*
X0457005Y0309219D01*
X0456838Y0309385D01*
Y0309552D01*
X0457005Y0309219D02*
X0457338D01*
X0532226Y0338340D02*
Y0339340D01*
X0532726D01*
X0532893Y0339174D01*
Y0338840D01*
X0532726Y0338674D01*
X0532226D01*
X0532559D02*
X0532893Y0338340D01*
X0533892Y0339340D02*
X0533226D01*
Y0338340D01*
X0533892D01*
X0533226Y0338840D02*
X0533559D01*
X0534226Y0338340D02*
Y0339007D01*
X0534559Y0339340D01*
X0534892Y0339007D01*
Y0338340D01*
Y0338840D01*
X0534226D01*
X0535225Y0339340D02*
Y0338340D01*
X0535725D01*
X0535892Y0338507D01*
Y0339174D01*
X0535725Y0339340D01*
X0535225D01*
X0536225D02*
Y0339174D01*
X0536558Y0338840D01*
X0536891Y0339174D01*
Y0339340D01*
X0536558Y0338840D02*
Y0338340D01*
X0531975Y0314880D02*
Y0313880D01*
X0532475D01*
X0532642Y0314047D01*
Y0314213D01*
X0532475Y0314380D01*
X0531975D01*
X0532475D01*
X0532642Y0314546D01*
Y0314713D01*
X0532475Y0314880D01*
X0531975D01*
X0533641D02*
X0532975D01*
Y0313880D01*
X0533641D01*
X0532975Y0314380D02*
X0533308D01*
X0533975Y0313880D02*
Y0314546D01*
X0534308Y0314880D01*
X0534641Y0314546D01*
Y0313880D01*
Y0314380D01*
X0533975D01*
X0534974Y0314880D02*
X0535641D01*
X0535308D01*
Y0313880D01*
X0532433Y0346578D02*
X0533099D01*
X0532766D01*
Y0345579D01*
X0533433Y0346578D02*
X0534099Y0345579D01*
Y0346578D02*
X0533433Y0345579D01*
X0534432D02*
Y0346578D01*
X0534765Y0346245D01*
X0535099Y0346578D01*
Y0345579D01*
X0535432Y0346578D02*
X0535765D01*
X0535599D01*
Y0345579D01*
X0535432D01*
X0535765D01*
X0536265Y0346578D02*
X0536931D01*
X0536598D01*
Y0345579D01*
X0531746Y0316544D02*
Y0315544D01*
Y0316044D01*
X0532413D01*
Y0316544D01*
Y0315544D01*
X0533413Y0316544D02*
X0532746D01*
Y0315544D01*
X0533413D01*
X0532746Y0316044D02*
X0533079D01*
X0533746Y0315544D02*
Y0316210D01*
X0534079Y0316544D01*
X0534412Y0316210D01*
Y0315544D01*
Y0316044D01*
X0533746D01*
X0534746Y0315544D02*
Y0316544D01*
X0535245D01*
X0535412Y0316377D01*
Y0316044D01*
X0535245Y0315877D01*
X0534746D01*
X0535079D02*
X0535412Y0315544D01*
X0535745Y0316544D02*
X0536412D01*
X0536079D01*
Y0315544D01*
X0532891Y0340692D02*
X0532725Y0340859D01*
X0532392D01*
X0532225Y0340692D01*
Y0340525D01*
X0532392Y0340359D01*
X0532725D01*
X0532891Y0340192D01*
Y0340025D01*
X0532725Y0339859D01*
X0532392D01*
X0532225Y0340025D01*
X0533225Y0340859D02*
Y0340692D01*
X0533558Y0340359D01*
X0533891Y0340692D01*
Y0340859D01*
X0533558Y0340359D02*
Y0339859D01*
X0534891Y0340692D02*
X0534724Y0340859D01*
X0534391D01*
X0534224Y0340692D01*
Y0340525D01*
X0534391Y0340359D01*
X0534724D01*
X0534891Y0340192D01*
Y0340025D01*
X0534724Y0339859D01*
X0534391D01*
X0534224Y0340025D01*
X0535224Y0340859D02*
X0535890D01*
X0535557D01*
Y0339859D01*
X0536890Y0340859D02*
X0536224D01*
Y0339859D01*
X0536890D01*
X0536224Y0340359D02*
X0536557D01*
X0537223Y0339859D02*
Y0340859D01*
X0537557Y0340525D01*
X0537890Y0340859D01*
Y0339859D01*
X0532371Y0333412D02*
X0533037D01*
X0534037Y0333911D02*
X0533370D01*
Y0333412D01*
X0533703Y0333578D01*
X0533870D01*
X0534037Y0333412D01*
Y0333078D01*
X0533870Y0332912D01*
X0533537D01*
X0533370Y0333078D01*
X0534370Y0333911D02*
Y0333245D01*
X0534703Y0332912D01*
X0535036Y0333245D01*
Y0333911D01*
X0532267Y0326756D02*
X0532933D01*
X0532600Y0327089D02*
Y0326423D01*
X0533933Y0327256D02*
X0533266D01*
Y0326756D01*
X0533599Y0326922D01*
X0533766D01*
X0533933Y0326756D01*
Y0326423D01*
X0533766Y0326256D01*
X0533433D01*
X0533266Y0326423D01*
X0534266Y0327256D02*
Y0326589D01*
X0534599Y0326256D01*
X0534932Y0326589D01*
Y0327256D01*
X0531746Y0321015D02*
X0532413D01*
X0532080Y0321348D02*
Y0320682D01*
X0533413Y0320515D02*
X0532746D01*
X0533413Y0321182D01*
Y0321348D01*
X0533246Y0321515D01*
X0532913D01*
X0532746Y0321348D01*
X0533746Y0320515D02*
Y0320682D01*
X0533913D01*
Y0320515D01*
X0533746D01*
X0535245Y0321515D02*
X0534579D01*
Y0321015D01*
X0534912Y0321182D01*
X0535079D01*
X0535245Y0321015D01*
Y0320682D01*
X0535079Y0320515D01*
X0534746D01*
X0534579Y0320682D01*
X0535579Y0321515D02*
Y0320848D01*
X0535912Y0320515D01*
X0536245Y0320848D01*
Y0321515D01*
X0533079Y0361931D02*
Y0360931D01*
Y0361431D01*
X0533746D01*
Y0361931D01*
Y0360931D01*
X0534079Y0361931D02*
Y0361265D01*
X0534412Y0360931D01*
X0534746Y0361265D01*
Y0361931D01*
X0535079Y0361431D02*
X0535745D01*
X0532613Y0369470D02*
Y0368470D01*
Y0368970D01*
X0533279D01*
Y0369470D01*
Y0368470D01*
X0533612Y0369470D02*
Y0368803D01*
X0533946Y0368470D01*
X0534279Y0368803D01*
Y0369470D01*
X0534612Y0368970D02*
X0535279D01*
X0534945Y0369303D02*
Y0368637D01*
X0353197Y0259765D02*
X0353030Y0259931D01*
X0352697D01*
X0352530Y0259765D01*
Y0259098D01*
X0352697Y0258932D01*
X0353030D01*
X0353197Y0259098D01*
X0353530Y0258932D02*
X0353863D01*
X0353696D01*
Y0259931D01*
X0353530Y0259765D01*
X0355029Y0259931D02*
X0354363D01*
Y0259432D01*
X0354696Y0259598D01*
X0354863D01*
X0355029Y0259432D01*
Y0259098D01*
X0354863Y0258932D01*
X0354529D01*
X0354363Y0259098D01*
X0355362Y0259765D02*
X0355529Y0259931D01*
X0355862D01*
X0356029Y0259765D01*
Y0259598D01*
X0355862Y0259432D01*
X0356029Y0259265D01*
Y0259098D01*
X0355862Y0258932D01*
X0355529D01*
X0355362Y0259098D01*
Y0259265D01*
X0355529Y0259432D01*
X0355362Y0259598D01*
Y0259765D01*
X0355529Y0259432D02*
X0355862D01*
X0530459Y0309223D02*
X0530293Y0309389D01*
X0529960D01*
X0529793Y0309223D01*
Y0308556D01*
X0529960Y0308390D01*
X0530293D01*
X0530459Y0308556D01*
X0530793Y0308390D02*
X0531126D01*
X0530959D01*
Y0309389D01*
X0530793Y0309223D01*
X0532292Y0309389D02*
X0531626D01*
Y0308890D01*
X0531959Y0309056D01*
X0532126D01*
X0532292Y0308890D01*
Y0308556D01*
X0532126Y0308390D01*
X0531792D01*
X0531626Y0308556D01*
X0532625Y0309389D02*
X0533292D01*
Y0309223D01*
X0532625Y0308556D01*
Y0308390D01*
X0365093Y0420171D02*
X0364927Y0420337D01*
X0364594D01*
X0364427Y0420171D01*
Y0419504D01*
X0364594Y0419338D01*
X0364927D01*
X0365093Y0419504D01*
X0365427Y0419338D02*
X0365760D01*
X0365593D01*
Y0420337D01*
X0365427Y0420171D01*
X0366926Y0420337D02*
X0366260D01*
Y0419837D01*
X0366593Y0420004D01*
X0366760D01*
X0366926Y0419837D01*
Y0419504D01*
X0366760Y0419338D01*
X0366426D01*
X0366260Y0419504D01*
X0367926Y0420337D02*
X0367593Y0420171D01*
X0367260Y0419837D01*
Y0419504D01*
X0367426Y0419338D01*
X0367759D01*
X0367926Y0419504D01*
Y0419671D01*
X0367759Y0419837D01*
X0367260D01*
X0333447Y0293552D02*
X0333280Y0293719D01*
X0332947D01*
X0332781Y0293552D01*
Y0292886D01*
X0332947Y0292719D01*
X0333280D01*
X0333447Y0292886D01*
X0333780Y0292719D02*
X0334113D01*
X0333947D01*
Y0293719D01*
X0333780Y0293552D01*
X0335280Y0293719D02*
X0334613D01*
Y0293219D01*
X0334946Y0293386D01*
X0335113D01*
X0335280Y0293219D01*
Y0292886D01*
X0335113Y0292719D01*
X0334780D01*
X0334613Y0292886D01*
X0336113Y0292719D02*
Y0293719D01*
X0335613Y0293219D01*
X0336279D01*
X0347865Y0403467D02*
X0347699Y0403633D01*
X0347365D01*
X0347199Y0403467D01*
Y0402800D01*
X0347365Y0402634D01*
X0347699D01*
X0347865Y0402800D01*
X0348199Y0402634D02*
X0348532D01*
X0348365D01*
Y0403633D01*
X0348199Y0403467D01*
X0349698Y0403633D02*
X0349032D01*
Y0403133D01*
X0349365Y0403300D01*
X0349532D01*
X0349698Y0403133D01*
Y0402800D01*
X0349532Y0402634D01*
X0349198D01*
X0349032Y0402800D01*
X0350031Y0403467D02*
X0350198Y0403633D01*
X0350531D01*
X0350698Y0403467D01*
Y0403300D01*
X0350531Y0403133D01*
X0350365D01*
X0350531D01*
X0350698Y0402967D01*
Y0402800D01*
X0350531Y0402634D01*
X0350198D01*
X0350031Y0402800D01*
X0512384Y0309069D02*
X0512218Y0309236D01*
X0511884D01*
X0511718Y0309069D01*
Y0308402D01*
X0511884Y0308236D01*
X0512218D01*
X0512384Y0308402D01*
X0512717Y0308236D02*
X0513051D01*
X0512884D01*
Y0309236D01*
X0512717Y0309069D01*
X0514217Y0309236D02*
X0513551D01*
Y0308736D01*
X0513884Y0308902D01*
X0514050D01*
X0514217Y0308736D01*
Y0308402D01*
X0514050Y0308236D01*
X0513717D01*
X0513551Y0308402D01*
X0515217Y0308236D02*
X0514550D01*
X0515217Y0308902D01*
Y0309069D01*
X0515050Y0309236D01*
X0514717D01*
X0514550Y0309069D01*
X0406175Y0426743D02*
Y0425910D01*
X0406341Y0425743D01*
X0406675D01*
X0406841Y0425910D01*
Y0426743D01*
X0407174Y0425743D02*
X0407508D01*
X0407341D01*
Y0426743D01*
X0407174Y0426576D01*
X0408007Y0425743D02*
X0408341D01*
X0408174D01*
Y0426743D01*
X0408007Y0426576D01*
X0412299Y0427347D02*
X0412133Y0427513D01*
X0411799D01*
X0411633Y0427347D01*
Y0426680D01*
X0411799Y0426514D01*
X0412133D01*
X0412299Y0426680D01*
X0412632D02*
X0412799Y0426514D01*
X0413132D01*
X0413299Y0426680D01*
Y0427347D01*
X0413132Y0427513D01*
X0412799D01*
X0412632Y0427347D01*
Y0427180D01*
X0412799Y0427014D01*
X0413299D01*
X0413632Y0426680D02*
X0413799Y0426514D01*
X0414132D01*
X0414298Y0426680D01*
Y0427347D01*
X0414132Y0427513D01*
X0413799D01*
X0413632Y0427347D01*
Y0427180D01*
X0413799Y0427014D01*
X0414298D01*
X0515417Y0366754D02*
Y0367754D01*
X0515917D01*
X0516083Y0367587D01*
Y0367254D01*
X0515917Y0367088D01*
X0515417D01*
X0515750D02*
X0516083Y0366754D01*
X0516417Y0367587D02*
X0516583Y0367754D01*
X0516916D01*
X0517083Y0367587D01*
Y0367421D01*
X0516916Y0367254D01*
X0516750D01*
X0516916D01*
X0517083Y0367088D01*
Y0366921D01*
X0516916Y0366754D01*
X0516583D01*
X0516417Y0366921D01*
X0522926Y0349285D02*
Y0348285D01*
X0523426D01*
X0523592Y0348451D01*
Y0349118D01*
X0523426Y0349285D01*
X0522926D01*
X0523925Y0349118D02*
X0524092Y0349285D01*
X0524425D01*
X0524592Y0349118D01*
Y0348951D01*
X0524425Y0348785D01*
X0524259D01*
X0524425D01*
X0524592Y0348618D01*
Y0348451D01*
X0524425Y0348285D01*
X0524092D01*
X0523925Y0348451D01*
X0450422Y0396219D02*
Y0395386D01*
X0450589Y0395219D01*
X0450922D01*
X0451088Y0395386D01*
Y0396219D01*
X0452088Y0395219D02*
X0451422D01*
X0452088Y0395885D01*
Y0396052D01*
X0451921Y0396219D01*
X0451588D01*
X0451422Y0396052D01*
X0469735Y0386959D02*
Y0387958D01*
X0470234D01*
X0470401Y0387792D01*
Y0387459D01*
X0470234Y0387292D01*
X0469735D01*
X0470068D02*
X0470401Y0386959D01*
X0471401D02*
X0470734D01*
X0471401Y0387625D01*
Y0387792D01*
X0471234Y0387958D01*
X0470901D01*
X0470734Y0387792D01*
X0470353Y0390738D02*
Y0391738D01*
X0470853D01*
X0471019Y0391571D01*
Y0391238D01*
X0470853Y0391072D01*
X0470353D01*
X0470686D02*
X0471019Y0390738D01*
X0471352D02*
X0471686D01*
X0471519D01*
Y0391738D01*
X0471352Y0391571D01*
X0457804Y0395754D02*
X0457637Y0395921D01*
X0457304D01*
X0457137Y0395754D01*
Y0395088D01*
X0457304Y0394921D01*
X0457637D01*
X0457804Y0395088D01*
X0458137Y0394921D02*
X0458470D01*
X0458303D01*
Y0395921D01*
X0458137Y0395754D01*
X0459636Y0395921D02*
X0458970D01*
Y0395421D01*
X0459303Y0395587D01*
X0459470D01*
X0459636Y0395421D01*
Y0395088D01*
X0459470Y0394921D01*
X0459137D01*
X0458970Y0395088D01*
X0464751Y0385618D02*
X0464585Y0385785D01*
X0464252D01*
X0464085Y0385618D01*
Y0384952D01*
X0464252Y0384785D01*
X0464585D01*
X0464751Y0384952D01*
X0465751Y0384785D02*
X0465085D01*
X0465751Y0385451D01*
Y0385618D01*
X0465585Y0385785D01*
X0465251D01*
X0465085Y0385618D01*
X0466084Y0384785D02*
X0466418D01*
X0466251D01*
Y0385785D01*
X0466084Y0385618D01*
X0461485Y0385710D02*
X0461319Y0385876D01*
X0460985D01*
X0460819Y0385710D01*
Y0385043D01*
X0460985Y0384877D01*
X0461319D01*
X0461485Y0385043D01*
X0462485Y0384877D02*
X0461819D01*
X0462485Y0385543D01*
Y0385710D01*
X0462318Y0385876D01*
X0461985D01*
X0461819Y0385710D01*
X0462818D02*
X0462985Y0385876D01*
X0463318D01*
X0463485Y0385710D01*
Y0385043D01*
X0463318Y0384877D01*
X0462985D01*
X0462818Y0385043D01*
Y0385710D01*
X0465991Y0348166D02*
Y0347333D01*
X0466158Y0347167D01*
X0466491D01*
X0466658Y0347333D01*
Y0348166D01*
X0466991D02*
X0467657D01*
Y0348000D01*
X0466991Y0347333D01*
Y0347167D01*
X0452115Y0341302D02*
Y0342302D01*
X0452615D01*
X0452781Y0342135D01*
Y0341802D01*
X0452615Y0341635D01*
X0452115D01*
X0452448D02*
X0452781Y0341302D01*
X0453114D02*
X0453448D01*
X0453281D01*
Y0342302D01*
X0453114Y0342135D01*
X0453947D02*
X0454114Y0342302D01*
X0454447D01*
X0454614Y0342135D01*
Y0341969D01*
X0454447Y0341802D01*
X0454614Y0341635D01*
Y0341469D01*
X0454447Y0341302D01*
X0454114D01*
X0453947Y0341469D01*
Y0341635D01*
X0454114Y0341802D01*
X0453947Y0341969D01*
Y0342135D01*
X0454114Y0341802D02*
X0454447D01*
X0517628Y0326325D02*
Y0327324D01*
X0518128D01*
X0518294Y0327158D01*
Y0326825D01*
X0518128Y0326658D01*
X0517628D01*
X0517961D02*
X0518294Y0326325D01*
X0518628D02*
X0518961D01*
X0518794D01*
Y0327324D01*
X0518628Y0327158D01*
X0519461Y0326491D02*
X0519627Y0326325D01*
X0519960D01*
X0520127Y0326491D01*
Y0327158D01*
X0519960Y0327324D01*
X0519627D01*
X0519461Y0327158D01*
Y0326991D01*
X0519627Y0326825D01*
X0520127D01*
X0514144Y0341753D02*
Y0342753D01*
X0514644D01*
X0514811Y0342586D01*
Y0342253D01*
X0514644Y0342087D01*
X0514144D01*
X0514477D02*
X0514811Y0341753D01*
X0515144D02*
X0515477D01*
X0515310D01*
Y0342753D01*
X0515144Y0342586D01*
X0516643Y0342753D02*
X0516310Y0342586D01*
X0515977Y0342253D01*
Y0341920D01*
X0516144Y0341753D01*
X0516477D01*
X0516643Y0341920D01*
Y0342087D01*
X0516477Y0342253D01*
X0515977D01*
X0468346Y0384851D02*
Y0385851D01*
X0468846D01*
X0469012Y0385684D01*
Y0385351D01*
X0468846Y0385184D01*
X0468346D01*
X0468679D02*
X0469012Y0384851D01*
X0470012Y0385851D02*
X0469679Y0385684D01*
X0469346Y0385351D01*
Y0385018D01*
X0469512Y0384851D01*
X0469845D01*
X0470012Y0385018D01*
Y0385184D01*
X0469845Y0385351D01*
X0469346D01*
X0457723Y0349100D02*
Y0350100D01*
X0458223D01*
X0458389Y0349934D01*
Y0349600D01*
X0458223Y0349434D01*
X0457723D01*
X0458056D02*
X0458389Y0349100D01*
X0458723D02*
X0459056D01*
X0458889D01*
Y0350100D01*
X0458723Y0349934D01*
X0460055Y0349100D02*
Y0350100D01*
X0459556Y0349600D01*
X0460222D01*
X0512620Y0341039D02*
X0512454Y0341205D01*
X0512121D01*
X0511954Y0341039D01*
Y0340372D01*
X0512121Y0340206D01*
X0512454D01*
X0512620Y0340372D01*
X0513453Y0340206D02*
Y0341205D01*
X0512954Y0340705D01*
X0513620D01*
X0513953Y0341039D02*
X0514120Y0341205D01*
X0514453D01*
X0514620Y0341039D01*
Y0340872D01*
X0514453Y0340705D01*
X0514620Y0340539D01*
Y0340372D01*
X0514453Y0340206D01*
X0514120D01*
X0513953Y0340372D01*
Y0340539D01*
X0514120Y0340705D01*
X0513953Y0340872D01*
Y0341039D01*
X0514120Y0340705D02*
X0514453D01*
X0525379Y0352043D02*
X0525212Y0352209D01*
X0524879D01*
X0524712Y0352043D01*
Y0351376D01*
X0524879Y0351209D01*
X0525212D01*
X0525379Y0351376D01*
X0526212Y0351209D02*
Y0352209D01*
X0525712Y0351709D01*
X0526378D01*
X0527378Y0351209D02*
X0526712D01*
X0527378Y0351876D01*
Y0352043D01*
X0527212Y0352209D01*
X0526878D01*
X0526712Y0352043D01*
X0470574Y0355303D02*
Y0354470D01*
X0470741Y0354303D01*
X0471074D01*
X0471241Y0354470D01*
Y0355303D01*
X0471574Y0355136D02*
X0471741Y0355303D01*
X0472074D01*
X0472240Y0355136D01*
Y0354970D01*
X0472074Y0354803D01*
X0472240Y0354636D01*
Y0354470D01*
X0472074Y0354303D01*
X0471741D01*
X0471574Y0354470D01*
Y0354636D01*
X0471741Y0354803D01*
X0471574Y0354970D01*
Y0355136D01*
X0471741Y0354803D02*
X0472074D01*
X0500390Y0283941D02*
X0500057D01*
X0500223D01*
Y0283108D01*
X0500057Y0282941D01*
X0499890D01*
X0499723Y0283108D01*
X0501389Y0283941D02*
X0500723D01*
Y0283441D01*
X0501056Y0283608D01*
X0501223D01*
X0501389Y0283441D01*
Y0283108D01*
X0501223Y0282941D01*
X0500889D01*
X0500723Y0283108D01*
X0521850Y0337431D02*
Y0336431D01*
X0522350D01*
X0522516Y0336597D01*
Y0337264D01*
X0522350Y0337431D01*
X0521850D01*
X0523349Y0336431D02*
Y0337431D01*
X0522850Y0336931D01*
X0523516D01*
X0517714Y0362328D02*
Y0361329D01*
X0518213D01*
X0518380Y0361495D01*
Y0362162D01*
X0518213Y0362328D01*
X0517714D01*
X0519380Y0361329D02*
X0518713D01*
X0519380Y0361995D01*
Y0362162D01*
X0519213Y0362328D01*
X0518880D01*
X0518713Y0362162D01*
X0517611Y0370947D02*
Y0369948D01*
X0518111D01*
X0518277Y0370114D01*
Y0370781D01*
X0518111Y0370947D01*
X0517611D01*
X0518610Y0369948D02*
X0518944D01*
X0518777D01*
Y0370947D01*
X0518610Y0370781D01*
X0359372Y0297034D02*
X0359205Y0297201D01*
X0358872D01*
X0358705Y0297034D01*
Y0296368D01*
X0358872Y0296201D01*
X0359205D01*
X0359372Y0296368D01*
X0360371Y0297201D02*
X0359705D01*
Y0296701D01*
X0360038Y0296868D01*
X0360205D01*
X0360371Y0296701D01*
Y0296368D01*
X0360205Y0296201D01*
X0359872D01*
X0359705Y0296368D01*
X0360704Y0297201D02*
X0361371D01*
Y0297034D01*
X0360704Y0296368D01*
Y0296201D01*
X0374400Y0268779D02*
X0374234Y0268946D01*
X0373900D01*
X0373734Y0268779D01*
Y0268112D01*
X0373900Y0267946D01*
X0374234D01*
X0374400Y0268112D01*
X0374733Y0268946D02*
X0375400D01*
Y0268779D01*
X0374733Y0268112D01*
Y0267946D01*
X0376399D02*
X0375733D01*
X0376399Y0268612D01*
Y0268779D01*
X0376233Y0268946D01*
X0375900D01*
X0375733Y0268779D01*
X0405053Y0415993D02*
X0404387D01*
Y0415493D01*
X0404720D01*
X0404387D01*
Y0414993D01*
X0405387Y0415993D02*
Y0414993D01*
X0405886D01*
X0406053Y0415160D01*
Y0415327D01*
X0405886Y0415493D01*
X0405387D01*
X0405886D01*
X0406053Y0415660D01*
Y0415827D01*
X0405886Y0415993D01*
X0405387D01*
X0406386Y0414993D02*
X0406719D01*
X0406553D01*
Y0415993D01*
X0406386Y0415827D01*
X0495706Y0325707D02*
X0495539Y0325874D01*
X0495206D01*
X0495039Y0325707D01*
Y0325041D01*
X0495206Y0324874D01*
X0495539D01*
X0495706Y0325041D01*
X0496705Y0325874D02*
X0496039D01*
Y0325374D01*
X0496372Y0325541D01*
X0496539D01*
X0496705Y0325374D01*
Y0325041D01*
X0496539Y0324874D01*
X0496205D01*
X0496039Y0325041D01*
X0497538Y0324874D02*
Y0325874D01*
X0497039Y0325374D01*
X0497705D01*
X0511046Y0363324D02*
X0510879Y0363491D01*
X0510546D01*
X0510380Y0363324D01*
Y0362658D01*
X0510546Y0362491D01*
X0510879D01*
X0511046Y0362658D01*
X0511379Y0363324D02*
X0511546Y0363491D01*
X0511879D01*
X0512046Y0363324D01*
Y0363158D01*
X0511879Y0362991D01*
X0511713D01*
X0511879D01*
X0512046Y0362825D01*
Y0362658D01*
X0511879Y0362491D01*
X0511546D01*
X0511379Y0362658D01*
X0513045Y0362491D02*
X0512379D01*
X0513045Y0363158D01*
Y0363324D01*
X0512879Y0363491D01*
X0512545D01*
X0512379Y0363324D01*
X0519261Y0357039D02*
Y0358039D01*
X0519761D01*
X0519927Y0357872D01*
Y0357539D01*
X0519761Y0357372D01*
X0519261D01*
X0519594D02*
X0519927Y0357039D01*
X0520260D02*
X0520594D01*
X0520427D01*
Y0358039D01*
X0520260Y0357872D01*
X0521094D02*
X0521260Y0358039D01*
X0521594D01*
X0521760Y0357872D01*
Y0357705D01*
X0521594Y0357539D01*
X0521427D01*
X0521594D01*
X0521760Y0357372D01*
Y0357206D01*
X0521594Y0357039D01*
X0521260D01*
X0521094Y0357206D01*
X0472338Y0383461D02*
Y0384461D01*
X0472838D01*
X0473005Y0384295D01*
Y0383961D01*
X0472838Y0383795D01*
X0472338D01*
X0472672D02*
X0473005Y0383461D01*
X0473338Y0384461D02*
X0474005D01*
Y0384295D01*
X0473338Y0383628D01*
Y0383461D01*
X0445754Y0379018D02*
Y0380017D01*
X0446254D01*
X0446421Y0379851D01*
Y0379518D01*
X0446254Y0379351D01*
X0445754D01*
X0446088D02*
X0446421Y0379018D01*
X0446754Y0379851D02*
X0446921Y0380017D01*
X0447254D01*
X0447421Y0379851D01*
Y0379684D01*
X0447254Y0379518D01*
X0447421Y0379351D01*
Y0379184D01*
X0447254Y0379018D01*
X0446921D01*
X0446754Y0379184D01*
Y0379351D01*
X0446921Y0379518D01*
X0446754Y0379684D01*
Y0379851D01*
X0446921Y0379518D02*
X0447254D01*
X0472705Y0372009D02*
X0472039D01*
Y0371509D01*
X0472372D01*
X0472039D01*
Y0371009D01*
X0473038Y0372009D02*
Y0371009D01*
X0473538D01*
X0473705Y0371176D01*
Y0371342D01*
X0473538Y0371509D01*
X0473038D01*
X0473538D01*
X0473705Y0371675D01*
Y0371842D01*
X0473538Y0372009D01*
X0473038D01*
X0474705Y0371009D02*
X0474038D01*
X0474705Y0371675D01*
Y0371842D01*
X0474538Y0372009D01*
X0474205D01*
X0474038Y0371842D01*
X0464391Y0309488D02*
Y0308655D01*
X0464558Y0308488D01*
X0464891D01*
X0465058Y0308655D01*
Y0309488D01*
X0465391Y0308488D02*
X0465724D01*
X0465558D01*
Y0309488D01*
X0465391Y0309321D01*
X0466224D02*
X0466391Y0309488D01*
X0466724D01*
X0466891Y0309321D01*
Y0308655D01*
X0466724Y0308488D01*
X0466391D01*
X0466224Y0308655D01*
Y0309321D01*
X0510433Y0366891D02*
Y0367891D01*
X0510933D01*
X0511100Y0367724D01*
Y0367391D01*
X0510933Y0367224D01*
X0510433D01*
X0510767D02*
X0511100Y0366891D01*
X0512100Y0367891D02*
X0511433D01*
Y0367391D01*
X0511766Y0367557D01*
X0511933D01*
X0512100Y0367391D01*
Y0367057D01*
X0511933Y0366891D01*
X0511600D01*
X0511433Y0367057D01*
X0447789Y0318182D02*
Y0319182D01*
X0448289D01*
X0448455Y0319015D01*
Y0318682D01*
X0448289Y0318515D01*
X0447789D01*
X0448122D02*
X0448455Y0318182D01*
X0449455D02*
X0448789D01*
X0449455Y0318849D01*
Y0319015D01*
X0449288Y0319182D01*
X0448955D01*
X0448789Y0319015D01*
X0449788D02*
X0449955Y0319182D01*
X0450288D01*
X0450455Y0319015D01*
Y0318849D01*
X0450288Y0318682D01*
X0450121D01*
X0450288D01*
X0450455Y0318515D01*
Y0318349D01*
X0450288Y0318182D01*
X0449955D01*
X0449788Y0318349D01*
X0447389Y0309870D02*
Y0310870D01*
X0447889D01*
X0448056Y0310703D01*
Y0310370D01*
X0447889Y0310203D01*
X0447389D01*
X0447722D02*
X0448056Y0309870D01*
X0449055D02*
X0448389D01*
X0449055Y0310536D01*
Y0310703D01*
X0448889Y0310870D01*
X0448556D01*
X0448389Y0310703D01*
X0449889Y0309870D02*
Y0310870D01*
X0449389Y0310370D01*
X0450055D01*
X0480155Y0328540D02*
Y0329539D01*
X0480654D01*
X0480821Y0329373D01*
Y0329040D01*
X0480654Y0328873D01*
X0480155D01*
X0480488D02*
X0480821Y0328540D01*
X0481821D02*
X0481154D01*
X0481821Y0329206D01*
Y0329373D01*
X0481654Y0329539D01*
X0481321D01*
X0481154Y0329373D01*
X0482154Y0328540D02*
X0482487D01*
X0482321D01*
Y0329539D01*
X0482154Y0329373D01*
X0519497Y0315869D02*
Y0314869D01*
X0519996D01*
X0520163Y0315036D01*
Y0315702D01*
X0519996Y0315869D01*
X0519497D01*
X0520496Y0315702D02*
X0520663Y0315869D01*
X0520996D01*
X0521163Y0315702D01*
Y0315535D01*
X0520996Y0315369D01*
X0521163Y0315202D01*
Y0315036D01*
X0520996Y0314869D01*
X0520663D01*
X0520496Y0315036D01*
Y0315202D01*
X0520663Y0315369D01*
X0520496Y0315535D01*
Y0315702D01*
X0520663Y0315369D02*
X0520996D01*
X0472407Y0341434D02*
X0472240Y0341600D01*
X0471907D01*
X0471740Y0341434D01*
Y0340767D01*
X0471907Y0340601D01*
X0472240D01*
X0472407Y0340767D01*
X0473240Y0340601D02*
Y0341600D01*
X0472740Y0341101D01*
X0473406D01*
X0473740Y0340767D02*
X0473906Y0340601D01*
X0474239D01*
X0474406Y0340767D01*
Y0341434D01*
X0474239Y0341600D01*
X0473906D01*
X0473740Y0341434D01*
Y0341267D01*
X0473906Y0341101D01*
X0474406D01*
X0459233Y0339109D02*
X0459066Y0339276D01*
X0458733D01*
X0458567Y0339109D01*
Y0338442D01*
X0458733Y0338276D01*
X0459066D01*
X0459233Y0338442D01*
X0460233Y0339276D02*
X0459566D01*
Y0338776D01*
X0459899Y0338942D01*
X0460066D01*
X0460233Y0338776D01*
Y0338442D01*
X0460066Y0338276D01*
X0459733D01*
X0459566Y0338442D01*
X0460566Y0339109D02*
X0460733Y0339276D01*
X0461066D01*
X0461232Y0339109D01*
Y0338442D01*
X0461066Y0338276D01*
X0460733D01*
X0460566Y0338442D01*
Y0339109D01*
X0448019Y0341910D02*
X0447853Y0342076D01*
X0447519D01*
X0447353Y0341910D01*
Y0341243D01*
X0447519Y0341077D01*
X0447853D01*
X0448019Y0341243D01*
X0448353Y0341077D02*
X0448686D01*
X0448519D01*
Y0342076D01*
X0448353Y0341910D01*
X0449852Y0341077D02*
X0449186D01*
X0449852Y0341743D01*
Y0341910D01*
X0449685Y0342076D01*
X0449352D01*
X0449186Y0341910D01*
X0450685Y0341077D02*
Y0342076D01*
X0450185Y0341577D01*
X0450852D01*
X0521964Y0330902D02*
Y0329902D01*
X0522464D01*
X0522631Y0330069D01*
Y0330735D01*
X0522464Y0330902D01*
X0521964D01*
X0523630D02*
X0522964D01*
Y0330402D01*
X0523297Y0330569D01*
X0523464D01*
X0523630Y0330402D01*
Y0330069D01*
X0523464Y0329902D01*
X0523130D01*
X0522964Y0330069D01*
X0450357Y0344205D02*
X0449691D01*
Y0343705D01*
X0450024D01*
X0449691D01*
Y0343205D01*
X0450690Y0344205D02*
Y0343205D01*
X0451190D01*
X0451357Y0343372D01*
Y0343538D01*
X0451190Y0343705D01*
X0450690D01*
X0451190D01*
X0451357Y0343871D01*
Y0344038D01*
X0451190Y0344205D01*
X0450690D01*
X0452190Y0343205D02*
Y0344205D01*
X0451690Y0343705D01*
X0452356D01*
X0462395Y0340620D02*
Y0340453D01*
X0462728Y0340120D01*
X0463061Y0340453D01*
Y0340620D01*
X0462728Y0340120D02*
Y0339620D01*
X0463394D02*
X0463728D01*
X0463561D01*
Y0340620D01*
X0463394Y0340453D01*
X0495773Y0337790D02*
Y0338789D01*
X0496273D01*
X0496440Y0338622D01*
Y0338289D01*
X0496273Y0338123D01*
X0495773D01*
X0496107D02*
X0496440Y0337790D01*
X0496773D02*
X0497106D01*
X0496940D01*
Y0338789D01*
X0496773Y0338622D01*
X0497606Y0338789D02*
X0498273D01*
Y0338622D01*
X0497606Y0337956D01*
Y0337790D01*
X0523981Y0413651D02*
X0523648D01*
X0523815D01*
Y0412818D01*
X0523648Y0412651D01*
X0523482D01*
X0523315Y0412818D01*
X0524315Y0412651D02*
X0524648D01*
X0524481D01*
Y0413651D01*
X0524315Y0413484D01*
X0511069Y0313497D02*
Y0314496D01*
X0511568D01*
X0511735Y0314330D01*
Y0313997D01*
X0511568Y0313830D01*
X0511069D01*
X0511402D02*
X0511735Y0313497D01*
X0512735D02*
X0512068D01*
X0512735Y0314163D01*
Y0314330D01*
X0512568Y0314496D01*
X0512235D01*
X0512068Y0314330D01*
X0513734Y0313497D02*
X0513068D01*
X0513734Y0314163D01*
Y0314330D01*
X0513568Y0314496D01*
X0513235D01*
X0513068Y0314330D01*
X0496440Y0320753D02*
X0496274Y0320920D01*
X0495940D01*
X0495774Y0320753D01*
Y0320087D01*
X0495940Y0319920D01*
X0496274D01*
X0496440Y0320087D01*
X0497440Y0320920D02*
X0497107Y0320753D01*
X0496773Y0320420D01*
Y0320087D01*
X0496940Y0319920D01*
X0497273D01*
X0497440Y0320087D01*
Y0320253D01*
X0497273Y0320420D01*
X0496773D01*
X0498440Y0319920D02*
X0497773D01*
X0498440Y0320586D01*
Y0320753D01*
X0498273Y0320920D01*
X0497940D01*
X0497773Y0320753D01*
X0368380Y0325741D02*
X0368213Y0325908D01*
X0367880D01*
X0367713Y0325741D01*
Y0325075D01*
X0367880Y0324908D01*
X0368213D01*
X0368380Y0325075D01*
X0369213Y0324908D02*
Y0325908D01*
X0368713Y0325408D01*
X0369380D01*
X0370213Y0324908D02*
Y0325908D01*
X0369713Y0325408D01*
X0370379D01*
X0388614Y0421013D02*
X0388448Y0421179D01*
X0388115D01*
X0387948Y0421013D01*
Y0420346D01*
X0388115Y0420180D01*
X0388448D01*
X0388614Y0420346D01*
X0388948Y0420180D02*
X0389281D01*
X0389114D01*
Y0421179D01*
X0388948Y0421013D01*
X0495648Y0373695D02*
X0495482Y0373862D01*
X0495149D01*
X0494982Y0373695D01*
Y0373029D01*
X0495149Y0372862D01*
X0495482D01*
X0495648Y0373029D01*
X0496648Y0372862D02*
X0495982D01*
X0496648Y0373529D01*
Y0373695D01*
X0496482Y0373862D01*
X0496148D01*
X0495982Y0373695D01*
X0496981Y0373029D02*
X0497148Y0372862D01*
X0497481D01*
X0497648Y0373029D01*
Y0373695D01*
X0497481Y0373862D01*
X0497148D01*
X0496981Y0373695D01*
Y0373529D01*
X0497148Y0373362D01*
X0497648D01*
X0496500Y0343554D02*
X0495833D01*
Y0343054D01*
X0496167D01*
X0495833D01*
Y0342554D01*
X0496833Y0343554D02*
Y0342554D01*
X0497333D01*
X0497500Y0342721D01*
Y0342888D01*
X0497333Y0343054D01*
X0496833D01*
X0497333D01*
X0497500Y0343221D01*
Y0343388D01*
X0497333Y0343554D01*
X0496833D01*
X0498499D02*
X0497833D01*
Y0343054D01*
X0498166Y0343221D01*
X0498333D01*
X0498499Y0343054D01*
Y0342721D01*
X0498333Y0342554D01*
X0497999D01*
X0497833Y0342721D01*
X0519785Y0321268D02*
Y0320269D01*
X0520285D01*
X0520451Y0320435D01*
Y0321102D01*
X0520285Y0321268D01*
X0519785D01*
X0520785D02*
X0521451D01*
Y0321102D01*
X0520785Y0320435D01*
Y0320269D01*
X0492463Y0358097D02*
X0492297Y0358263D01*
X0491964D01*
X0491797Y0358097D01*
Y0357430D01*
X0491964Y0357264D01*
X0492297D01*
X0492463Y0357430D01*
X0492797Y0358097D02*
X0492963Y0358263D01*
X0493296D01*
X0493463Y0358097D01*
Y0357930D01*
X0493296Y0357764D01*
X0493130D01*
X0493296D01*
X0493463Y0357597D01*
Y0357430D01*
X0493296Y0357264D01*
X0492963D01*
X0492797Y0357430D01*
X0493796Y0358097D02*
X0493963Y0358263D01*
X0494296D01*
X0494463Y0358097D01*
Y0357930D01*
X0494296Y0357764D01*
X0494463Y0357597D01*
Y0357430D01*
X0494296Y0357264D01*
X0493963D01*
X0493796Y0357430D01*
Y0357597D01*
X0493963Y0357764D01*
X0493796Y0357930D01*
Y0358097D01*
X0493963Y0357764D02*
X0494296D01*
X0456444Y0344329D02*
X0456278Y0344496D01*
X0455945D01*
X0455778Y0344329D01*
Y0343663D01*
X0455945Y0343496D01*
X0456278D01*
X0456444Y0343663D01*
X0457277Y0343496D02*
Y0344496D01*
X0456778Y0343996D01*
X0457444D01*
X0458444Y0344496D02*
X0457777D01*
Y0343996D01*
X0458111Y0344163D01*
X0458277D01*
X0458444Y0343996D01*
Y0343663D01*
X0458277Y0343496D01*
X0457944D01*
X0457777Y0343663D01*
X0487368Y0371623D02*
X0487201Y0371789D01*
X0486868D01*
X0486702Y0371623D01*
Y0370956D01*
X0486868Y0370790D01*
X0487201D01*
X0487368Y0370956D01*
X0487701Y0371623D02*
X0487868Y0371789D01*
X0488201D01*
X0488368Y0371623D01*
Y0371456D01*
X0488201Y0371290D01*
X0488035D01*
X0488201D01*
X0488368Y0371123D01*
Y0370956D01*
X0488201Y0370790D01*
X0487868D01*
X0487701Y0370956D01*
X0488701Y0371623D02*
X0488868Y0371789D01*
X0489201D01*
X0489367Y0371623D01*
Y0370956D01*
X0489201Y0370790D01*
X0488868D01*
X0488701Y0370956D01*
Y0371623D01*
X0483506Y0373924D02*
X0483340Y0374091D01*
X0483006D01*
X0482840Y0373924D01*
Y0373258D01*
X0483006Y0373091D01*
X0483340D01*
X0483506Y0373258D01*
X0484506Y0373091D02*
X0483840D01*
X0484506Y0373758D01*
Y0373924D01*
X0484339Y0374091D01*
X0484006D01*
X0483840Y0373924D01*
X0484839D02*
X0485006Y0374091D01*
X0485339D01*
X0485506Y0373924D01*
Y0373758D01*
X0485339Y0373591D01*
X0485506Y0373425D01*
Y0373258D01*
X0485339Y0373091D01*
X0485006D01*
X0484839Y0373258D01*
Y0373425D01*
X0485006Y0373591D01*
X0484839Y0373758D01*
Y0373924D01*
X0485006Y0373591D02*
X0485339D01*
X0491293Y0323481D02*
X0491126Y0323648D01*
X0490793D01*
X0490627Y0323481D01*
Y0322814D01*
X0490793Y0322648D01*
X0491126D01*
X0491293Y0322814D01*
X0492293Y0323648D02*
X0491626D01*
Y0323148D01*
X0491960Y0323314D01*
X0492126D01*
X0492293Y0323148D01*
Y0322814D01*
X0492126Y0322648D01*
X0491793D01*
X0491626Y0322814D01*
X0492626Y0323481D02*
X0492793Y0323648D01*
X0493126D01*
X0493293Y0323481D01*
Y0323314D01*
X0493126Y0323148D01*
X0492959D01*
X0493126D01*
X0493293Y0322981D01*
Y0322814D01*
X0493126Y0322648D01*
X0492793D01*
X0492626Y0322814D01*
X0490891Y0320764D02*
X0490724Y0320931D01*
X0490391D01*
X0490224Y0320764D01*
Y0320097D01*
X0490391Y0319931D01*
X0490724D01*
X0490891Y0320097D01*
X0491890Y0320931D02*
X0491557Y0320764D01*
X0491224Y0320431D01*
Y0320097D01*
X0491390Y0319931D01*
X0491724D01*
X0491890Y0320097D01*
Y0320264D01*
X0491724Y0320431D01*
X0491224D01*
X0492223Y0319931D02*
X0492557D01*
X0492390D01*
Y0320931D01*
X0492223Y0320764D01*
X0480872Y0338503D02*
X0480205D01*
Y0338003D01*
X0480538D01*
X0480205D01*
Y0337503D01*
X0481205Y0338503D02*
Y0337503D01*
X0481705D01*
X0481871Y0337670D01*
Y0337836D01*
X0481705Y0338003D01*
X0481205D01*
X0481705D01*
X0481871Y0338170D01*
Y0338336D01*
X0481705Y0338503D01*
X0481205D01*
X0482871D02*
X0482538Y0338336D01*
X0482204Y0338003D01*
Y0337670D01*
X0482371Y0337503D01*
X0482704D01*
X0482871Y0337670D01*
Y0337836D01*
X0482704Y0338003D01*
X0482204D01*
X0513261Y0361746D02*
Y0360913D01*
X0513428Y0360746D01*
X0513761D01*
X0513928Y0360913D01*
Y0361746D01*
X0514927D02*
X0514261D01*
Y0361246D01*
X0514594Y0361413D01*
X0514761D01*
X0514927Y0361246D01*
Y0360913D01*
X0514761Y0360746D01*
X0514428D01*
X0514261Y0360913D01*
X0513907Y0339670D02*
Y0338837D01*
X0514073Y0338670D01*
X0514407D01*
X0514573Y0338837D01*
Y0339670D01*
X0514907Y0338837D02*
X0515073Y0338670D01*
X0515406D01*
X0515573Y0338837D01*
Y0339504D01*
X0515406Y0339670D01*
X0515073D01*
X0514907Y0339504D01*
Y0339337D01*
X0515073Y0339170D01*
X0515573D01*
X0476259Y0360297D02*
Y0359464D01*
X0476426Y0359297D01*
X0476759D01*
X0476926Y0359464D01*
Y0360297D01*
X0477925D02*
X0477592Y0360131D01*
X0477259Y0359797D01*
Y0359464D01*
X0477425Y0359297D01*
X0477759D01*
X0477925Y0359464D01*
Y0359631D01*
X0477759Y0359797D01*
X0477259D01*
X0485338Y0390276D02*
X0485005D01*
X0485172D01*
Y0389443D01*
X0485005Y0389276D01*
X0484838D01*
X0484672Y0389443D01*
X0486338Y0389276D02*
X0485672D01*
X0486338Y0389943D01*
Y0390109D01*
X0486171Y0390276D01*
X0485838D01*
X0485672Y0390109D01*
X0418679Y0340132D02*
X0418346D01*
X0418513D01*
Y0339299D01*
X0418346Y0339132D01*
X0418180D01*
X0418013Y0339299D01*
X0419512Y0339132D02*
Y0340132D01*
X0419013Y0339632D01*
X0419679D01*
X0398370Y0271714D02*
Y0270881D01*
X0398536Y0270715D01*
X0398870D01*
X0399036Y0270881D01*
Y0271714D01*
X0399869Y0270715D02*
Y0271714D01*
X0399370Y0271215D01*
X0400036D01*
X0396335Y0414977D02*
Y0414144D01*
X0396501Y0413977D01*
X0396834D01*
X0397001Y0414144D01*
Y0414977D01*
X0397334Y0413977D02*
X0397668D01*
X0397501D01*
Y0414977D01*
X0397334Y0414810D01*
X0361278Y0285230D02*
X0361111Y0285397D01*
X0360778D01*
X0360612Y0285230D01*
Y0284564D01*
X0360778Y0284397D01*
X0361111D01*
X0361278Y0284564D01*
X0362278Y0285397D02*
X0361945Y0285230D01*
X0361611Y0284897D01*
Y0284564D01*
X0361778Y0284397D01*
X0362111D01*
X0362278Y0284564D01*
Y0284730D01*
X0362111Y0284897D01*
X0361611D01*
X0363278Y0285397D02*
X0362944Y0285230D01*
X0362611Y0284897D01*
Y0284564D01*
X0362778Y0284397D01*
X0363111D01*
X0363278Y0284564D01*
Y0284730D01*
X0363111Y0284897D01*
X0362611D01*
X0360992Y0287256D02*
X0360825Y0287423D01*
X0360492D01*
X0360325Y0287256D01*
Y0286590D01*
X0360492Y0286423D01*
X0360825D01*
X0360992Y0286590D01*
X0361991Y0287423D02*
X0361658Y0287256D01*
X0361325Y0286923D01*
Y0286590D01*
X0361492Y0286423D01*
X0361825D01*
X0361991Y0286590D01*
Y0286756D01*
X0361825Y0286923D01*
X0361325D01*
X0362325Y0287423D02*
X0362991D01*
Y0287256D01*
X0362325Y0286590D01*
Y0286423D01*
X0361735Y0321544D02*
X0361568Y0321710D01*
X0361235D01*
X0361068Y0321544D01*
Y0320877D01*
X0361235Y0320710D01*
X0361568D01*
X0361735Y0320877D01*
X0362568Y0320710D02*
Y0321710D01*
X0362068Y0321210D01*
X0362735D01*
X0363734Y0321710D02*
X0363401Y0321544D01*
X0363068Y0321210D01*
Y0320877D01*
X0363234Y0320710D01*
X0363568D01*
X0363734Y0320877D01*
Y0321044D01*
X0363568Y0321210D01*
X0363068D01*
X0361549Y0319920D02*
X0361382Y0320087D01*
X0361049D01*
X0360882Y0319920D01*
Y0319254D01*
X0361049Y0319087D01*
X0361382D01*
X0361549Y0319254D01*
X0362382Y0319087D02*
Y0320087D01*
X0361882Y0319587D01*
X0362548D01*
X0362881Y0320087D02*
X0363548D01*
Y0319920D01*
X0362881Y0319254D01*
Y0319087D01*
X0359303Y0298988D02*
X0359136Y0299155D01*
X0358803D01*
X0358636Y0298988D01*
Y0298322D01*
X0358803Y0298155D01*
X0359136D01*
X0359303Y0298322D01*
X0360302Y0299155D02*
X0359636D01*
Y0298655D01*
X0359969Y0298821D01*
X0360136D01*
X0360302Y0298655D01*
Y0298322D01*
X0360136Y0298155D01*
X0359803D01*
X0359636Y0298322D01*
X0360636D02*
X0360802Y0298155D01*
X0361135D01*
X0361302Y0298322D01*
Y0298988D01*
X0361135Y0299155D01*
X0360802D01*
X0360636Y0298988D01*
Y0298821D01*
X0360802Y0298655D01*
X0361302D01*
X0359142Y0300827D02*
X0358975Y0300994D01*
X0358642D01*
X0358475Y0300827D01*
Y0300161D01*
X0358642Y0299994D01*
X0358975D01*
X0359142Y0300161D01*
X0360141Y0300994D02*
X0359475D01*
Y0300494D01*
X0359808Y0300660D01*
X0359975D01*
X0360141Y0300494D01*
Y0300161D01*
X0359975Y0299994D01*
X0359642D01*
X0359475Y0300161D01*
X0360475Y0300827D02*
X0360641Y0300994D01*
X0360975D01*
X0361141Y0300827D01*
Y0300660D01*
X0360975Y0300494D01*
X0361141Y0300327D01*
Y0300161D01*
X0360975Y0299994D01*
X0360641D01*
X0360475Y0300161D01*
Y0300327D01*
X0360641Y0300494D01*
X0360475Y0300660D01*
Y0300827D01*
X0360641Y0300494D02*
X0360975D01*
X0364788Y0325720D02*
X0364622Y0325887D01*
X0364289D01*
X0364122Y0325720D01*
Y0325054D01*
X0364289Y0324887D01*
X0364622D01*
X0364788Y0325054D01*
X0365621Y0324887D02*
Y0325887D01*
X0365122Y0325387D01*
X0365788D01*
X0366121Y0325720D02*
X0366288Y0325887D01*
X0366621D01*
X0366788Y0325720D01*
Y0325553D01*
X0366621Y0325387D01*
X0366455D01*
X0366621D01*
X0366788Y0325220D01*
Y0325054D01*
X0366621Y0324887D01*
X0366288D01*
X0366121Y0325054D01*
X0359130Y0357238D02*
X0358963Y0357405D01*
X0358630D01*
X0358463Y0357238D01*
Y0356572D01*
X0358630Y0356405D01*
X0358963D01*
X0359130Y0356572D01*
X0360129Y0356405D02*
X0359463D01*
X0360129Y0357072D01*
Y0357238D01*
X0359963Y0357405D01*
X0359630D01*
X0359463Y0357238D01*
X0360463D02*
X0360629Y0357405D01*
X0360963D01*
X0361129Y0357238D01*
Y0357072D01*
X0360963Y0356905D01*
X0360796D01*
X0360963D01*
X0361129Y0356739D01*
Y0356572D01*
X0360963Y0356405D01*
X0360629D01*
X0360463Y0356572D01*
X0359267Y0329659D02*
X0359101Y0329826D01*
X0358767D01*
X0358601Y0329659D01*
Y0328993D01*
X0358767Y0328826D01*
X0359101D01*
X0359267Y0328993D01*
X0360100Y0328826D02*
Y0329826D01*
X0359600Y0329326D01*
X0360267D01*
X0360600Y0328826D02*
X0360933D01*
X0360767D01*
Y0329826D01*
X0360600Y0329659D01*
X0360620Y0291500D02*
X0360453Y0291667D01*
X0360120D01*
X0359953Y0291500D01*
Y0290834D01*
X0360120Y0290668D01*
X0360453D01*
X0360620Y0290834D01*
X0361619Y0291667D02*
X0361286Y0291500D01*
X0360953Y0291167D01*
Y0290834D01*
X0361119Y0290668D01*
X0361453D01*
X0361619Y0290834D01*
Y0291001D01*
X0361453Y0291167D01*
X0360953D01*
X0362452Y0290668D02*
Y0291667D01*
X0361952Y0291167D01*
X0362619D01*
X0360510Y0294700D02*
X0360344Y0294867D01*
X0360011D01*
X0359844Y0294700D01*
Y0294034D01*
X0360011Y0293867D01*
X0360344D01*
X0360510Y0294034D01*
X0361510Y0294867D02*
X0361177Y0294700D01*
X0360844Y0294367D01*
Y0294034D01*
X0361010Y0293867D01*
X0361344D01*
X0361510Y0294034D01*
Y0294200D01*
X0361344Y0294367D01*
X0360844D01*
X0361843Y0294700D02*
X0362010Y0294867D01*
X0362343D01*
X0362510Y0294700D01*
Y0294534D01*
X0362343Y0294367D01*
X0362177D01*
X0362343D01*
X0362510Y0294200D01*
Y0294034D01*
X0362343Y0293867D01*
X0362010D01*
X0361843Y0294034D01*
X0367636Y0275121D02*
X0367469Y0275287D01*
X0367136D01*
X0366969Y0275121D01*
Y0274454D01*
X0367136Y0274288D01*
X0367469D01*
X0367636Y0274454D01*
X0368635Y0275287D02*
X0368302Y0275121D01*
X0367969Y0274787D01*
Y0274454D01*
X0368136Y0274288D01*
X0368469D01*
X0368635Y0274454D01*
Y0274621D01*
X0368469Y0274787D01*
X0367969D01*
X0368969Y0274454D02*
X0369135Y0274288D01*
X0369468D01*
X0369635Y0274454D01*
Y0275121D01*
X0369468Y0275287D01*
X0369135D01*
X0368969Y0275121D01*
Y0274954D01*
X0369135Y0274787D01*
X0369635D01*
X0363450Y0275246D02*
X0363283Y0275413D01*
X0362950D01*
X0362783Y0275246D01*
Y0274580D01*
X0362950Y0274413D01*
X0363283D01*
X0363450Y0274580D01*
X0364449Y0275413D02*
X0364116Y0275246D01*
X0363783Y0274913D01*
Y0274580D01*
X0363949Y0274413D01*
X0364283D01*
X0364449Y0274580D01*
Y0274746D01*
X0364283Y0274913D01*
X0363783D01*
X0364783Y0275246D02*
X0364949Y0275413D01*
X0365282D01*
X0365449Y0275246D01*
Y0275079D01*
X0365282Y0274913D01*
X0365449Y0274746D01*
Y0274580D01*
X0365282Y0274413D01*
X0364949D01*
X0364783Y0274580D01*
Y0274746D01*
X0364949Y0274913D01*
X0364783Y0275079D01*
Y0275246D01*
X0364949Y0274913D02*
X0365282D01*
X0364715Y0317286D02*
X0364548Y0317453D01*
X0364215D01*
X0364049Y0317286D01*
Y0316620D01*
X0364215Y0316453D01*
X0364548D01*
X0364715Y0316620D01*
X0365715Y0317453D02*
X0365048D01*
Y0316953D01*
X0365381Y0317120D01*
X0365548D01*
X0365715Y0316953D01*
Y0316620D01*
X0365548Y0316453D01*
X0365215D01*
X0365048Y0316620D01*
X0366714Y0316453D02*
X0366048D01*
X0366714Y0317120D01*
Y0317286D01*
X0366548Y0317453D01*
X0366214D01*
X0366048Y0317286D01*
X0367968Y0317313D02*
X0367801Y0317479D01*
X0367468D01*
X0367302Y0317313D01*
Y0316646D01*
X0367468Y0316480D01*
X0367801D01*
X0367968Y0316646D01*
X0368968Y0317479D02*
X0368301D01*
Y0316980D01*
X0368635Y0317146D01*
X0368801D01*
X0368968Y0316980D01*
Y0316646D01*
X0368801Y0316480D01*
X0368468D01*
X0368301Y0316646D01*
X0369301Y0316480D02*
X0369634D01*
X0369468D01*
Y0317479D01*
X0369301Y0317313D01*
X0361487Y0305677D02*
X0361320Y0305844D01*
X0360987D01*
X0360820Y0305677D01*
Y0305011D01*
X0360987Y0304844D01*
X0361320D01*
X0361487Y0305011D01*
X0362486Y0305844D02*
X0361820D01*
Y0305344D01*
X0362153Y0305511D01*
X0362320D01*
X0362486Y0305344D01*
Y0305011D01*
X0362320Y0304844D01*
X0361986D01*
X0361820Y0305011D01*
X0363486Y0305844D02*
X0363153Y0305677D01*
X0362819Y0305344D01*
Y0305011D01*
X0362986Y0304844D01*
X0363319D01*
X0363486Y0305011D01*
Y0305177D01*
X0363319Y0305344D01*
X0362819D01*
X0361388Y0307087D02*
X0361221Y0307253D01*
X0360888D01*
X0360721Y0307087D01*
Y0306420D01*
X0360888Y0306254D01*
X0361221D01*
X0361388Y0306420D01*
X0362387Y0307253D02*
X0361721D01*
Y0306753D01*
X0362054Y0306920D01*
X0362221D01*
X0362387Y0306753D01*
Y0306420D01*
X0362221Y0306254D01*
X0361888D01*
X0361721Y0306420D01*
X0363387Y0307253D02*
X0362721D01*
Y0306753D01*
X0363054Y0306920D01*
X0363221D01*
X0363387Y0306753D01*
Y0306420D01*
X0363221Y0306254D01*
X0362887D01*
X0362721Y0306420D01*
X0368516Y0343331D02*
X0368350Y0343498D01*
X0368017D01*
X0367850Y0343331D01*
Y0342665D01*
X0368017Y0342498D01*
X0368350D01*
X0368516Y0342665D01*
X0368850Y0343331D02*
X0369016Y0343498D01*
X0369350D01*
X0369516Y0343331D01*
Y0343165D01*
X0369350Y0342998D01*
X0369183D01*
X0369350D01*
X0369516Y0342831D01*
Y0342665D01*
X0369350Y0342498D01*
X0369016D01*
X0368850Y0342665D01*
X0370516Y0343498D02*
X0369849D01*
Y0342998D01*
X0370183Y0343165D01*
X0370349D01*
X0370516Y0342998D01*
Y0342665D01*
X0370349Y0342498D01*
X0370016D01*
X0369849Y0342665D01*
X0365154Y0343312D02*
X0364988Y0343478D01*
X0364654D01*
X0364488Y0343312D01*
Y0342645D01*
X0364654Y0342478D01*
X0364988D01*
X0365154Y0342645D01*
X0365488Y0343312D02*
X0365654Y0343478D01*
X0365987D01*
X0366154Y0343312D01*
Y0343145D01*
X0365987Y0342978D01*
X0365821D01*
X0365987D01*
X0366154Y0342812D01*
Y0342645D01*
X0365987Y0342478D01*
X0365654D01*
X0365488Y0342645D01*
X0366987Y0342478D02*
Y0343478D01*
X0366487Y0342978D01*
X0367154D01*
X0380666Y0269077D02*
X0380500Y0269244D01*
X0380166D01*
X0380000Y0269077D01*
Y0268410D01*
X0380166Y0268244D01*
X0380500D01*
X0380666Y0268410D01*
X0380999Y0269244D02*
X0381666D01*
Y0269077D01*
X0380999Y0268410D01*
Y0268244D01*
X0381999Y0269077D02*
X0382166Y0269244D01*
X0382499D01*
X0382665Y0269077D01*
Y0268910D01*
X0382499Y0268744D01*
X0382332D01*
X0382499D01*
X0382665Y0268577D01*
Y0268410D01*
X0382499Y0268244D01*
X0382166D01*
X0381999Y0268410D01*
X0394186Y0270706D02*
X0394020Y0270872D01*
X0393687D01*
X0393520Y0270706D01*
Y0270039D01*
X0393687Y0269873D01*
X0394020D01*
X0394186Y0270039D01*
X0394519Y0270872D02*
X0395186D01*
Y0270706D01*
X0394519Y0270039D01*
Y0269873D01*
X0395519D02*
X0395852D01*
X0395686D01*
Y0270872D01*
X0395519Y0270706D01*
X0384072Y0267736D02*
X0383905Y0267902D01*
X0383572D01*
X0383405Y0267736D01*
Y0267069D01*
X0383572Y0266902D01*
X0383905D01*
X0384072Y0267069D01*
X0384405Y0267902D02*
X0385071D01*
Y0267736D01*
X0384405Y0267069D01*
Y0266902D01*
X0385404Y0267736D02*
X0385571Y0267902D01*
X0385904D01*
X0386071Y0267736D01*
Y0267069D01*
X0385904Y0266902D01*
X0385571D01*
X0385404Y0267069D01*
Y0267736D01*
X0359261Y0354070D02*
X0359094Y0354236D01*
X0358761D01*
X0358594Y0354070D01*
Y0353403D01*
X0358761Y0353237D01*
X0359094D01*
X0359261Y0353403D01*
X0360260Y0353237D02*
X0359594D01*
X0360260Y0353903D01*
Y0354070D01*
X0360094Y0354236D01*
X0359761D01*
X0359594Y0354070D01*
X0361260Y0354236D02*
X0360594D01*
Y0353736D01*
X0360927Y0353903D01*
X0361093D01*
X0361260Y0353736D01*
Y0353403D01*
X0361093Y0353237D01*
X0360760D01*
X0360594Y0353403D01*
X0359182Y0355641D02*
X0359015Y0355808D01*
X0358682D01*
X0358516Y0355641D01*
Y0354975D01*
X0358682Y0354808D01*
X0359015D01*
X0359182Y0354975D01*
X0360182Y0354808D02*
X0359515D01*
X0360182Y0355474D01*
Y0355641D01*
X0360015Y0355808D01*
X0359682D01*
X0359515Y0355641D01*
X0361015Y0354808D02*
Y0355808D01*
X0360515Y0355308D01*
X0361181D01*
X0368709Y0387281D02*
X0368543Y0387448D01*
X0368210D01*
X0368043Y0387281D01*
Y0386614D01*
X0368210Y0386448D01*
X0368543D01*
X0368709Y0386614D01*
X0369043Y0386448D02*
X0369376D01*
X0369209D01*
Y0387448D01*
X0369043Y0387281D01*
X0370542Y0386448D02*
X0369876D01*
X0370542Y0387114D01*
Y0387281D01*
X0370376Y0387448D01*
X0370042D01*
X0369876Y0387281D01*
X0364464Y0386856D02*
X0364297Y0387023D01*
X0363964D01*
X0363797Y0386856D01*
Y0386190D01*
X0363964Y0386023D01*
X0364297D01*
X0364464Y0386190D01*
X0364797Y0386023D02*
X0365130D01*
X0364964D01*
Y0387023D01*
X0364797Y0386856D01*
X0365630Y0386023D02*
X0365963D01*
X0365797D01*
Y0387023D01*
X0365630Y0386856D01*
X0361834Y0366329D02*
X0361668Y0366495D01*
X0361334D01*
X0361168Y0366329D01*
Y0365662D01*
X0361334Y0365496D01*
X0361668D01*
X0361834Y0365662D01*
X0362168Y0365496D02*
X0362501D01*
X0362334D01*
Y0366495D01*
X0362168Y0366329D01*
X0363001D02*
X0363167Y0366495D01*
X0363500D01*
X0363667Y0366329D01*
Y0366162D01*
X0363500Y0365995D01*
X0363667Y0365829D01*
Y0365662D01*
X0363500Y0365496D01*
X0363167D01*
X0363001Y0365662D01*
Y0365829D01*
X0363167Y0365995D01*
X0363001Y0366162D01*
Y0366329D01*
X0363167Y0365995D02*
X0363500D01*
X0361989Y0368075D02*
X0361822Y0368242D01*
X0361489D01*
X0361322Y0368075D01*
Y0367409D01*
X0361489Y0367242D01*
X0361822D01*
X0361989Y0367409D01*
X0362322Y0367242D02*
X0362655D01*
X0362489D01*
Y0368242D01*
X0362322Y0368075D01*
X0363155Y0367409D02*
X0363322Y0367242D01*
X0363655D01*
X0363822Y0367409D01*
Y0368075D01*
X0363655Y0368242D01*
X0363322D01*
X0363155Y0368075D01*
Y0367909D01*
X0363322Y0367742D01*
X0363822D01*
X0363577Y0396521D02*
X0363411Y0396687D01*
X0363077D01*
X0362911Y0396521D01*
Y0395854D01*
X0363077Y0395688D01*
X0363411D01*
X0363577Y0395854D01*
X0363911D02*
X0364077Y0395688D01*
X0364410D01*
X0364577Y0395854D01*
Y0396521D01*
X0364410Y0396687D01*
X0364077D01*
X0363911Y0396521D01*
Y0396354D01*
X0364077Y0396187D01*
X0364577D01*
X0362836Y0402386D02*
X0362669Y0402553D01*
X0362336D01*
X0362169Y0402386D01*
Y0401720D01*
X0362336Y0401553D01*
X0362669D01*
X0362836Y0401720D01*
X0363169Y0401553D02*
X0363502D01*
X0363335D01*
Y0402553D01*
X0363169Y0402386D01*
X0364002D02*
X0364169Y0402553D01*
X0364502D01*
X0364668Y0402386D01*
Y0401720D01*
X0364502Y0401553D01*
X0364169D01*
X0364002Y0401720D01*
Y0402386D01*
X0360755Y0362143D02*
X0360588Y0362310D01*
X0360255D01*
X0360088Y0362143D01*
Y0361476D01*
X0360255Y0361310D01*
X0360588D01*
X0360755Y0361476D01*
X0361754Y0361310D02*
X0361088D01*
X0361754Y0361976D01*
Y0362143D01*
X0361588Y0362310D01*
X0361254D01*
X0361088Y0362143D01*
X0362754Y0361310D02*
X0362087D01*
X0362754Y0361976D01*
Y0362143D01*
X0362587Y0362310D01*
X0362254D01*
X0362087Y0362143D01*
X0372482Y0417590D02*
X0372316Y0417757D01*
X0371983D01*
X0371816Y0417590D01*
Y0416924D01*
X0371983Y0416757D01*
X0372316D01*
X0372482Y0416924D01*
X0373482Y0417757D02*
X0372816D01*
Y0417257D01*
X0373149Y0417424D01*
X0373316D01*
X0373482Y0417257D01*
Y0416924D01*
X0373316Y0416757D01*
X0372982D01*
X0372816Y0416924D01*
X0361662Y0403857D02*
X0361496Y0404024D01*
X0361162D01*
X0360996Y0403857D01*
Y0403191D01*
X0361162Y0403024D01*
X0361496D01*
X0361662Y0403191D01*
X0361996Y0403857D02*
X0362162Y0404024D01*
X0362495D01*
X0362662Y0403857D01*
Y0403691D01*
X0362495Y0403524D01*
X0362662Y0403357D01*
Y0403191D01*
X0362495Y0403024D01*
X0362162D01*
X0361996Y0403191D01*
Y0403357D01*
X0362162Y0403524D01*
X0361996Y0403691D01*
Y0403857D01*
X0362162Y0403524D02*
X0362495D01*
X0360950Y0335254D02*
X0360783Y0335420D01*
X0360450D01*
X0360283Y0335254D01*
Y0334587D01*
X0360450Y0334421D01*
X0360783D01*
X0360950Y0334587D01*
X0361283Y0335254D02*
X0361450Y0335420D01*
X0361783D01*
X0361949Y0335254D01*
Y0335087D01*
X0361783Y0334921D01*
X0361616D01*
X0361783D01*
X0361949Y0334754D01*
Y0334587D01*
X0361783Y0334421D01*
X0361450D01*
X0361283Y0334587D01*
X0362283D02*
X0362449Y0334421D01*
X0362782D01*
X0362949Y0334587D01*
Y0335254D01*
X0362782Y0335420D01*
X0362449D01*
X0362283Y0335254D01*
Y0335087D01*
X0362449Y0334921D01*
X0362949D01*
X0368696Y0345211D02*
X0368530Y0345378D01*
X0368197D01*
X0368030Y0345211D01*
Y0344545D01*
X0368197Y0344378D01*
X0368530D01*
X0368696Y0344545D01*
X0369696Y0344378D02*
X0369030D01*
X0369696Y0345045D01*
Y0345211D01*
X0369530Y0345378D01*
X0369196D01*
X0369030Y0345211D01*
X0370029Y0345378D02*
X0370696D01*
Y0345211D01*
X0370029Y0344545D01*
Y0344378D01*
X0365824Y0345229D02*
X0365658Y0345396D01*
X0365324D01*
X0365158Y0345229D01*
Y0344563D01*
X0365324Y0344396D01*
X0365658D01*
X0365824Y0344563D01*
X0366824Y0344396D02*
X0366158D01*
X0366824Y0345063D01*
Y0345229D01*
X0366657Y0345396D01*
X0366324D01*
X0366158Y0345229D01*
X0367824Y0345396D02*
X0367490Y0345229D01*
X0367157Y0344896D01*
Y0344563D01*
X0367324Y0344396D01*
X0367657D01*
X0367824Y0344563D01*
Y0344729D01*
X0367657Y0344896D01*
X0367157D01*
X0362518Y0383066D02*
X0362351Y0383233D01*
X0362018D01*
X0361851Y0383066D01*
Y0382400D01*
X0362018Y0382233D01*
X0362351D01*
X0362518Y0382400D01*
X0362851Y0382233D02*
X0363184D01*
X0363018D01*
Y0383233D01*
X0362851Y0383066D01*
X0363684D02*
X0363850Y0383233D01*
X0364184D01*
X0364350Y0383066D01*
Y0382900D01*
X0364184Y0382733D01*
X0364017D01*
X0364184D01*
X0364350Y0382566D01*
Y0382400D01*
X0364184Y0382233D01*
X0363850D01*
X0363684Y0382400D01*
X0362495Y0384618D02*
X0362328Y0384785D01*
X0361995D01*
X0361828Y0384618D01*
Y0383952D01*
X0361995Y0383786D01*
X0362328D01*
X0362495Y0383952D01*
X0362828Y0383786D02*
X0363161D01*
X0362995D01*
Y0384785D01*
X0362828Y0384618D01*
X0364161Y0383786D02*
Y0384785D01*
X0363661Y0384285D01*
X0364328D01*
X0362991Y0374243D02*
X0362825Y0374410D01*
X0362492D01*
X0362325Y0374243D01*
Y0373577D01*
X0362492Y0373410D01*
X0362825D01*
X0362991Y0373577D01*
X0363325Y0373410D02*
X0363658D01*
X0363491D01*
Y0374410D01*
X0363325Y0374243D01*
X0364158Y0374410D02*
X0364824D01*
Y0374243D01*
X0364158Y0373577D01*
Y0373410D01*
X0362829Y0377766D02*
X0362663Y0377932D01*
X0362330D01*
X0362163Y0377766D01*
Y0377099D01*
X0362330Y0376933D01*
X0362663D01*
X0362829Y0377099D01*
X0363163Y0376933D02*
X0363496D01*
X0363329D01*
Y0377932D01*
X0363163Y0377766D01*
X0364662Y0377932D02*
X0364329Y0377766D01*
X0363996Y0377432D01*
Y0377099D01*
X0364162Y0376933D01*
X0364496D01*
X0364662Y0377099D01*
Y0377266D01*
X0364496Y0377432D01*
X0363996D01*
X0369110Y0414586D02*
X0368943Y0414753D01*
X0368610D01*
X0368443Y0414586D01*
Y0413920D01*
X0368610Y0413753D01*
X0368943D01*
X0369110Y0413920D01*
X0369443Y0414753D02*
X0370110D01*
Y0414586D01*
X0369443Y0413920D01*
Y0413753D01*
X0365940Y0414673D02*
X0365773Y0414840D01*
X0365440D01*
X0365273Y0414673D01*
Y0414007D01*
X0365440Y0413840D01*
X0365773D01*
X0365940Y0414007D01*
X0366939Y0414840D02*
X0366606Y0414673D01*
X0366273Y0414340D01*
Y0414007D01*
X0366440Y0413840D01*
X0366773D01*
X0366939Y0414007D01*
Y0414174D01*
X0366773Y0414340D01*
X0366273D01*
X0383475Y0420783D02*
X0383308Y0420949D01*
X0382975D01*
X0382808Y0420783D01*
Y0420116D01*
X0382975Y0419949D01*
X0383308D01*
X0383475Y0420116D01*
X0384308Y0419949D02*
Y0420949D01*
X0383808Y0420449D01*
X0384475D01*
X0379395Y0420733D02*
X0379228Y0420900D01*
X0378895D01*
X0378729Y0420733D01*
Y0420067D01*
X0378895Y0419900D01*
X0379228D01*
X0379395Y0420067D01*
X0380395Y0419900D02*
X0379728D01*
X0380395Y0420567D01*
Y0420733D01*
X0380228Y0420900D01*
X0379895D01*
X0379728Y0420733D01*
X0392674Y0421013D02*
X0392507Y0421179D01*
X0392174D01*
X0392007Y0421013D01*
Y0420346D01*
X0392174Y0420180D01*
X0392507D01*
X0392674Y0420346D01*
X0393007Y0421013D02*
X0393174Y0421179D01*
X0393507D01*
X0393674Y0421013D01*
Y0420846D01*
X0393507Y0420680D01*
X0393340D01*
X0393507D01*
X0393674Y0420513D01*
Y0420346D01*
X0393507Y0420180D01*
X0393174D01*
X0393007Y0420346D01*
X0471264Y0358221D02*
Y0357388D01*
X0471431Y0357222D01*
X0471764D01*
X0471931Y0357388D01*
Y0358221D01*
X0472264Y0358055D02*
X0472431Y0358221D01*
X0472764D01*
X0472930Y0358055D01*
Y0357888D01*
X0472764Y0357721D01*
X0472597D01*
X0472764D01*
X0472930Y0357555D01*
Y0357388D01*
X0472764Y0357222D01*
X0472431D01*
X0472264Y0357388D01*
X0476378Y0328540D02*
Y0329539D01*
X0476878D01*
X0477044Y0329373D01*
Y0329040D01*
X0476878Y0328873D01*
X0476378D01*
X0476711D02*
X0477044Y0328540D01*
X0478044D02*
X0477378D01*
X0478044Y0329206D01*
Y0329373D01*
X0477877Y0329539D01*
X0477544D01*
X0477378Y0329373D01*
X0478377D02*
X0478544Y0329539D01*
X0478877D01*
X0479044Y0329373D01*
Y0328706D01*
X0478877Y0328540D01*
X0478544D01*
X0478377Y0328706D01*
Y0329373D01*
X0510524Y0370395D02*
Y0371395D01*
X0511024D01*
X0511191Y0371228D01*
Y0370895D01*
X0511024Y0370728D01*
X0510524D01*
X0510858D02*
X0511191Y0370395D01*
X0512024D02*
Y0371395D01*
X0511524Y0370895D01*
X0512190D01*
X0472313Y0368578D02*
Y0369578D01*
X0472813D01*
X0472980Y0369411D01*
Y0369078D01*
X0472813Y0368911D01*
X0472313D01*
X0472647D02*
X0472980Y0368578D01*
X0473313D02*
X0473646D01*
X0473480D01*
Y0369578D01*
X0473313Y0369411D01*
X0474812Y0368578D02*
X0474146D01*
X0474812Y0369245D01*
Y0369411D01*
X0474646Y0369578D01*
X0474313D01*
X0474146Y0369411D01*
X0453493Y0380231D02*
Y0381231D01*
X0453993D01*
X0454159Y0381064D01*
Y0380731D01*
X0453993Y0380564D01*
X0453493D01*
X0453826D02*
X0454159Y0380231D01*
X0454493Y0380398D02*
X0454659Y0380231D01*
X0454992D01*
X0455159Y0380398D01*
Y0381064D01*
X0454992Y0381231D01*
X0454659D01*
X0454493Y0381064D01*
Y0380898D01*
X0454659Y0380731D01*
X0455159D01*
X0447475Y0373997D02*
Y0374996D01*
X0447974D01*
X0448141Y0374830D01*
Y0374497D01*
X0447974Y0374330D01*
X0447475D01*
X0447808D02*
X0448141Y0373997D01*
X0448474D02*
X0448808D01*
X0448641D01*
Y0374996D01*
X0448474Y0374830D01*
X0449307D02*
X0449474Y0374996D01*
X0449807D01*
X0449974Y0374830D01*
Y0374164D01*
X0449807Y0373997D01*
X0449474D01*
X0449307Y0374164D01*
Y0374830D01*
X0441458Y0365929D02*
Y0366928D01*
X0441958D01*
X0442125Y0366761D01*
Y0366428D01*
X0441958Y0366262D01*
X0441458D01*
X0441791D02*
X0442125Y0365929D01*
X0442458D02*
X0442791D01*
X0442625D01*
Y0366928D01*
X0442458Y0366761D01*
X0443291Y0365929D02*
X0443624D01*
X0443458D01*
Y0366928D01*
X0443291Y0366761D01*
X0495750Y0344518D02*
Y0345518D01*
X0496249D01*
X0496416Y0345352D01*
Y0345018D01*
X0496249Y0344852D01*
X0495750D01*
X0496083D02*
X0496416Y0344518D01*
X0496749D02*
X0497083D01*
X0496916D01*
Y0345518D01*
X0496749Y0345352D01*
X0498249Y0345518D02*
X0497582D01*
Y0345018D01*
X0497916Y0345185D01*
X0498082D01*
X0498249Y0345018D01*
Y0344685D01*
X0498082Y0344518D01*
X0497749D01*
X0497582Y0344685D01*
X0418302Y0395947D02*
X0417969D01*
X0418136D01*
Y0395114D01*
X0417969Y0394947D01*
X0417802D01*
X0417636Y0395114D01*
X0418636Y0395780D02*
X0418802Y0395947D01*
X0419135D01*
X0419302Y0395780D01*
Y0395613D01*
X0419135Y0395447D01*
X0418969D01*
X0419135D01*
X0419302Y0395280D01*
Y0395114D01*
X0419135Y0394947D01*
X0418802D01*
X0418636Y0395114D01*
X0403172Y0271130D02*
X0402506D01*
Y0270630D01*
X0402839D01*
X0402506D01*
Y0270130D01*
X0403506Y0271130D02*
Y0270130D01*
X0404005D01*
X0404172Y0270297D01*
Y0270464D01*
X0404005Y0270630D01*
X0403506D01*
X0404005D01*
X0404172Y0270797D01*
Y0270964D01*
X0404005Y0271130D01*
X0403506D01*
X0404505Y0270964D02*
X0404672Y0271130D01*
X0405005D01*
X0405172Y0270964D01*
Y0270797D01*
X0405005Y0270630D01*
X0405172Y0270464D01*
Y0270297D01*
X0405005Y0270130D01*
X0404672D01*
X0404505Y0270297D01*
Y0270464D01*
X0404672Y0270630D01*
X0404505Y0270797D01*
Y0270964D01*
X0404672Y0270630D02*
X0405005D01*
X0488656Y0363144D02*
X0487989D01*
Y0362644D01*
X0488322D01*
X0487989D01*
Y0362144D01*
X0488989Y0363144D02*
Y0362144D01*
X0489489D01*
X0489655Y0362311D01*
Y0362478D01*
X0489489Y0362644D01*
X0488989D01*
X0489489D01*
X0489655Y0362811D01*
Y0362978D01*
X0489489Y0363144D01*
X0488989D01*
X0489988Y0362978D02*
X0490155Y0363144D01*
X0490488D01*
X0490655Y0362978D01*
Y0362811D01*
X0490488Y0362644D01*
X0490322D01*
X0490488D01*
X0490655Y0362478D01*
Y0362311D01*
X0490488Y0362144D01*
X0490155D01*
X0489988Y0362311D01*
X0497035Y0314702D02*
X0496368D01*
Y0314202D01*
X0496701D01*
X0496368D01*
Y0313702D01*
X0497368Y0314702D02*
Y0313702D01*
X0497868D01*
X0498034Y0313869D01*
Y0314035D01*
X0497868Y0314202D01*
X0497368D01*
X0497868D01*
X0498034Y0314369D01*
Y0314535D01*
X0497868Y0314702D01*
X0497368D01*
X0498368D02*
X0499034D01*
Y0314535D01*
X0498368Y0313869D01*
Y0313702D01*
X0519590Y0325707D02*
Y0324707D01*
X0520089D01*
X0520256Y0324874D01*
Y0325540D01*
X0520089Y0325707D01*
X0519590D01*
X0521256D02*
X0520923Y0325540D01*
X0520589Y0325207D01*
Y0324874D01*
X0520756Y0324707D01*
X0521089D01*
X0521256Y0324874D01*
Y0325041D01*
X0521089Y0325207D01*
X0520589D01*
X0452785Y0355223D02*
X0452618Y0355389D01*
X0452285D01*
X0452118Y0355223D01*
Y0354556D01*
X0452285Y0354390D01*
X0452618D01*
X0452785Y0354556D01*
X0453618Y0354390D02*
Y0355389D01*
X0453118Y0354889D01*
X0453785D01*
X0454118Y0355223D02*
X0454284Y0355389D01*
X0454618D01*
X0454784Y0355223D01*
Y0354556D01*
X0454618Y0354390D01*
X0454284D01*
X0454118Y0354556D01*
Y0355223D01*
X0444975Y0361816D02*
X0444808Y0361983D01*
X0444475D01*
X0444308Y0361816D01*
Y0361150D01*
X0444475Y0360983D01*
X0444808D01*
X0444975Y0361150D01*
X0445308Y0361816D02*
X0445474Y0361983D01*
X0445808D01*
X0445974Y0361816D01*
Y0361649D01*
X0445808Y0361483D01*
X0445641D01*
X0445808D01*
X0445974Y0361316D01*
Y0361150D01*
X0445808Y0360983D01*
X0445474D01*
X0445308Y0361150D01*
X0446308Y0361816D02*
X0446474Y0361983D01*
X0446807D01*
X0446974Y0361816D01*
Y0361649D01*
X0446807Y0361483D01*
X0446641D01*
X0446807D01*
X0446974Y0361316D01*
Y0361150D01*
X0446807Y0360983D01*
X0446474D01*
X0446308Y0361150D01*
X0450487Y0354943D02*
X0450321Y0355109D01*
X0449988D01*
X0449821Y0354943D01*
Y0354276D01*
X0449988Y0354110D01*
X0450321D01*
X0450487Y0354276D01*
X0450821Y0354943D02*
X0450987Y0355109D01*
X0451321D01*
X0451487Y0354943D01*
Y0354776D01*
X0451321Y0354609D01*
X0451154D01*
X0451321D01*
X0451487Y0354443D01*
Y0354276D01*
X0451321Y0354110D01*
X0450987D01*
X0450821Y0354276D01*
X0451820Y0355109D02*
X0452487D01*
Y0354943D01*
X0451820Y0354276D01*
Y0354110D01*
X0499813Y0367158D02*
X0499646Y0367325D01*
X0499313D01*
X0499146Y0367158D01*
Y0366492D01*
X0499313Y0366325D01*
X0499646D01*
X0499813Y0366492D01*
X0500146Y0367158D02*
X0500313Y0367325D01*
X0500646D01*
X0500812Y0367158D01*
Y0366992D01*
X0500646Y0366825D01*
X0500479D01*
X0500646D01*
X0500812Y0366658D01*
Y0366492D01*
X0500646Y0366325D01*
X0500313D01*
X0500146Y0366492D01*
X0501146Y0366325D02*
X0501479D01*
X0501312D01*
Y0367325D01*
X0501146Y0367158D01*
X0495958Y0358111D02*
X0495792Y0358277D01*
X0495459D01*
X0495292Y0358111D01*
Y0357444D01*
X0495459Y0357278D01*
X0495792D01*
X0495958Y0357444D01*
X0496292Y0358111D02*
X0496458Y0358277D01*
X0496791D01*
X0496958Y0358111D01*
Y0357944D01*
X0496791Y0357777D01*
X0496625D01*
X0496791D01*
X0496958Y0357611D01*
Y0357444D01*
X0496791Y0357278D01*
X0496458D01*
X0496292Y0357444D01*
X0497958Y0358277D02*
X0497624Y0358111D01*
X0497291Y0357777D01*
Y0357444D01*
X0497458Y0357278D01*
X0497791D01*
X0497958Y0357444D01*
Y0357611D01*
X0497791Y0357777D01*
X0497291D01*
X0499510Y0310886D02*
X0499343Y0311052D01*
X0499010D01*
X0498843Y0310886D01*
Y0310219D01*
X0499010Y0310053D01*
X0499343D01*
X0499510Y0310219D01*
X0500510Y0311052D02*
X0500176Y0310886D01*
X0499843Y0310553D01*
Y0310219D01*
X0500010Y0310053D01*
X0500343D01*
X0500510Y0310219D01*
Y0310386D01*
X0500343Y0310553D01*
X0499843D01*
X0501509Y0311052D02*
X0500843D01*
Y0310553D01*
X0501176Y0310719D01*
X0501343D01*
X0501509Y0310553D01*
Y0310219D01*
X0501343Y0310053D01*
X0501010D01*
X0500843Y0310219D01*
X0484583Y0321361D02*
X0484417Y0321527D01*
X0484083D01*
X0483917Y0321361D01*
Y0320694D01*
X0484083Y0320528D01*
X0484417D01*
X0484583Y0320694D01*
X0485583Y0321527D02*
X0485250Y0321361D01*
X0484916Y0321028D01*
Y0320694D01*
X0485083Y0320528D01*
X0485416D01*
X0485583Y0320694D01*
Y0320861D01*
X0485416Y0321028D01*
X0484916D01*
X0485916Y0321361D02*
X0486083Y0321527D01*
X0486416D01*
X0486583Y0321361D01*
Y0320694D01*
X0486416Y0320528D01*
X0486083D01*
X0485916Y0320694D01*
Y0321361D01*
G54D13*
X0475736Y0371220D02*
Y0373818D01*
X0481183D01*
Y0371220D02*
Y0373818D01*
Y0362421D02*
Y0365020D01*
X0475736Y0362421D02*
X0481183D01*
X0475736D02*
Y0365020D01*
X0487810Y0396931D02*
X0524192D01*
Y0374321D02*
Y0396931D01*
X0490610Y0374321D02*
X0524192D01*
X0487810Y0377121D02*
X0490610Y0374321D01*
X0487810Y0377121D02*
Y0396931D01*
X0492547Y0335503D02*
X0495145D01*
Y0340950D01*
X0492547D02*
X0495145D01*
X0483749D02*
X0486347D01*
X0483749Y0335503D02*
Y0340950D01*
Y0335503D02*
X0486347D01*
X0489319Y0350854D02*
Y0353453D01*
X0494766D01*
Y0350854D02*
Y0353453D01*
Y0342056D02*
Y0344654D01*
X0489319Y0342056D02*
X0494766D01*
X0489319D02*
Y0344654D01*
X0513642Y0319589D02*
X0515942D01*
Y0315489D02*
Y0319589D01*
X0513642Y0315489D02*
X0515942D01*
X0508342Y0319589D02*
X0510642D01*
X0508342Y0315489D02*
Y0319589D01*
Y0315489D02*
X0510642D01*
X0453791Y0350260D02*
X0456389D01*
Y0344814D02*
Y0350260D01*
X0453791Y0344814D02*
X0456389D01*
X0444992D02*
X0447590D01*
X0444992D02*
Y0350260D01*
X0447590D01*
X0373547Y0260250D02*
Y0258584D01*
X0373880Y0258250D01*
X0374547D01*
X0374880Y0258584D01*
Y0260250D01*
X0376879Y0259916D02*
X0376546Y0260250D01*
X0375879D01*
X0375546Y0259916D01*
Y0259583D01*
X0375879Y0259250D01*
X0376546D01*
X0376879Y0258917D01*
Y0258584D01*
X0376546Y0258250D01*
X0375879D01*
X0375546Y0258584D01*
X0377545Y0260250D02*
X0378878D01*
X0378212D01*
Y0258250D01*
X0379545Y0259583D02*
X0380878Y0258250D01*
X0380211Y0258917D01*
X0380878Y0259583D01*
X0379545Y0258250D01*
X0383544Y0260250D02*
Y0258250D01*
X0384543D01*
X0384876Y0258584D01*
Y0258917D01*
X0384543Y0259250D01*
X0383544D01*
X0384543D01*
X0384876Y0259583D01*
Y0259916D01*
X0384543Y0260250D01*
X0383544D01*
X0385876Y0258250D02*
X0386543D01*
X0386876Y0258584D01*
Y0259250D01*
X0386543Y0259583D01*
X0385876D01*
X0385543Y0259250D01*
Y0258584D01*
X0385876Y0258250D01*
X0387876Y0259583D02*
X0388542D01*
X0388875Y0259250D01*
Y0258250D01*
X0387876D01*
X0387542Y0258584D01*
X0387876Y0258917D01*
X0388875D01*
X0389542Y0259583D02*
Y0258250D01*
Y0258917D01*
X0389875Y0259250D01*
X0390208Y0259583D01*
X0390541D01*
X0392874Y0260250D02*
Y0258250D01*
X0391874D01*
X0391541Y0258584D01*
Y0259250D01*
X0391874Y0259583D01*
X0392874D01*
X0395540Y0260250D02*
Y0258917D01*
X0396206Y0258250D01*
X0396873Y0258917D01*
Y0260250D01*
X0397539Y0259916D02*
X0397872Y0260250D01*
X0398539D01*
X0398872Y0259916D01*
Y0258584D01*
X0398539Y0258250D01*
X0397872D01*
X0397539Y0258584D01*
Y0259916D01*
X0399538Y0258250D02*
Y0258584D01*
X0399872D01*
Y0258250D01*
X0399538D01*
X0402204D02*
Y0260250D01*
X0401204Y0259250D01*
X0402537D01*
X0403204Y0258250D02*
Y0258584D01*
X0403537D01*
Y0258250D01*
X0403204D01*
X0404870D02*
X0405536D01*
X0405203D01*
Y0260250D01*
X0404870Y0259916D01*
X0382131Y0263266D02*
X0381464D01*
X0381131Y0262933D01*
Y0261600D01*
X0381464Y0261267D01*
X0382131D01*
X0382464Y0261600D01*
Y0262933D01*
X0382131Y0263266D01*
X0383130Y0260601D02*
Y0262600D01*
X0384130D01*
X0384463Y0262267D01*
Y0261600D01*
X0384130Y0261267D01*
X0383130D01*
X0386129D02*
X0385463D01*
X0385130Y0261600D01*
Y0262267D01*
X0385463Y0262600D01*
X0386129D01*
X0386463Y0262267D01*
Y0261933D01*
X0385130D01*
X0387129Y0261267D02*
Y0262600D01*
X0388129D01*
X0388462Y0262267D01*
Y0261267D01*
X0389128Y0263266D02*
Y0261267D01*
X0389795Y0261933D01*
X0390461Y0261267D01*
Y0263266D01*
X0391461Y0262600D02*
X0392127D01*
X0392461Y0262267D01*
Y0261267D01*
X0391461D01*
X0391128Y0261600D01*
X0391461Y0261933D01*
X0392461D01*
X0393460Y0262933D02*
Y0262600D01*
X0393127D01*
X0393794D01*
X0393460D01*
Y0261600D01*
X0393794Y0261267D01*
X0395793D02*
X0395127D01*
X0394793Y0261600D01*
Y0262267D01*
X0395127Y0262600D01*
X0395793D01*
X0396126Y0262267D01*
Y0261933D01*
X0394793D01*
X0396793Y0262600D02*
Y0261267D01*
Y0261933D01*
X0397126Y0262267D01*
X0397459Y0262600D01*
X0397792D01*
X0380904Y0256932D02*
X0382237D01*
Y0256599D01*
X0380904Y0255266D01*
Y0254933D01*
X0382904D02*
X0383570D01*
X0383237D01*
Y0256932D01*
X0382904Y0256599D01*
X0384570D02*
X0384903Y0256932D01*
X0385569D01*
X0385903Y0256599D01*
Y0255266D01*
X0385569Y0254933D01*
X0384903D01*
X0384570Y0255266D01*
Y0256599D01*
X0386569D02*
X0386902Y0256932D01*
X0387569D01*
X0387902Y0256599D01*
Y0255266D01*
X0387569Y0254933D01*
X0386902D01*
X0386569Y0255266D01*
Y0256599D01*
X0388568Y0255933D02*
X0389901D01*
X0390568Y0256599D02*
X0390901Y0256932D01*
X0391567D01*
X0391901Y0256599D01*
Y0255266D01*
X0391567Y0254933D01*
X0390901D01*
X0390568Y0255266D01*
Y0256599D01*
X0392567D02*
X0392900Y0256932D01*
X0393567D01*
X0393900Y0256599D01*
Y0255266D01*
X0393567Y0254933D01*
X0392900D01*
X0392567Y0255266D01*
Y0256599D01*
X0394566D02*
X0394900Y0256932D01*
X0395566D01*
X0395899Y0256599D01*
Y0255266D01*
X0395566Y0254933D01*
X0394900D01*
X0394566Y0255266D01*
Y0256599D01*
X0396566D02*
X0396899Y0256932D01*
X0397566D01*
X0397899Y0256599D01*
Y0255266D01*
X0397566Y0254933D01*
X0396899D01*
X0396566Y0255266D01*
Y0256599D01*
X0398565D02*
X0398898Y0256932D01*
X0399565D01*
X0399898Y0256599D01*
Y0256266D01*
X0399565Y0255933D01*
X0399232D01*
X0399565D01*
X0399898Y0255600D01*
Y0255266D01*
X0399565Y0254933D01*
X0398898D01*
X0398565Y0255266D01*
G54D14*
X0454051Y0331591D02*
X0473001D01*
X0475351Y0329241D01*
Y0310291D02*
Y0329241D01*
X0454051Y0310291D02*
X0475351D01*
X0454051D02*
Y0331591D01*
X0463716Y0331091D02*
Y0332091D01*
Y0309791D02*
Y0310791D01*
X0474851Y0319956D02*
X0475851D01*
X0453551D02*
X0454551D01*
X0515645Y0345668D02*
Y0360190D01*
X0513440Y0343463D02*
X0515645Y0345668D01*
X0498967Y0343463D02*
X0513440D01*
X0513517Y0343540D02*
X0515517Y0345540D01*
X0515167Y0356958D02*
X0516167D01*
X0498467D02*
X0499467D01*
X0502199Y0342990D02*
Y0343990D01*
Y0359690D02*
Y0360690D01*
X0498967Y0360190D02*
X0515645D01*
X0498967Y0343463D02*
Y0360190D01*
X0498789Y0337869D02*
X0513311D01*
X0515517Y0335663D01*
Y0321191D02*
Y0335663D01*
X0513439Y0337741D02*
X0515439Y0335741D01*
X0502021Y0337391D02*
Y0338391D01*
Y0320691D02*
Y0321691D01*
X0514989Y0324423D02*
X0515989D01*
X0498289D02*
X0499289D01*
X0498789Y0321191D02*
Y0337869D01*
Y0321191D02*
X0515517D01*
X0312978Y0329074D02*
X0306980D01*
X0309979Y0326075D01*
Y0330073D01*
X0312978Y0335072D02*
X0306980D01*
X0309979Y0332073D01*
Y0336072D01*
X0312978Y0338071D02*
X0311978D01*
Y0339071D01*
X0312978D01*
Y0338071D01*
X0306980Y0343069D02*
Y0347068D01*
X0307979D01*
X0311978Y0343069D01*
X0312978D01*
X0311978Y0349067D02*
X0312978Y0350067D01*
Y0352066D01*
X0311978Y0353066D01*
X0307979D01*
X0306980Y0352066D01*
Y0350067D01*
X0307979Y0349067D01*
X0308979D01*
X0309979Y0350067D01*
Y0353066D01*
G54D15*
X0517448Y0353884D02*
Y0356563D01*
Y0353884D02*
X0523912D01*
Y0356563D01*
X0517448D02*
X0523912D01*
X0407337Y0414357D02*
Y0417116D01*
Y0414357D02*
X0414782D01*
Y0417116D01*
X0407337D02*
X0414782D01*
X0411896Y0426257D02*
X0414343D01*
X0411896Y0419110D02*
Y0426257D01*
Y0419110D02*
X0414343D01*
Y0426257D01*
X0499228Y0365433D02*
X0509439D01*
Y0361300D02*
Y0365433D01*
X0499228Y0361300D02*
X0509439D01*
X0499228D02*
Y0365433D01*
X0471421Y0334222D02*
X0474047D01*
Y0340222D01*
X0471421D02*
X0474047D01*
X0471421Y0334222D02*
Y0340222D01*
X0517419Y0334410D02*
X0520080D01*
X0517419Y0327960D02*
Y0334410D01*
Y0327960D02*
X0520080D01*
Y0334410D01*
X0498230Y0358805D02*
Y0361252D01*
X0491084D02*
X0498230D01*
X0491084Y0358805D02*
Y0361252D01*
Y0358805D02*
X0498230D01*
X0490940Y0364949D02*
Y0367396D01*
Y0364949D02*
X0498086D01*
Y0367396D01*
X0490940D02*
X0498086D01*
X0449306Y0355188D02*
Y0357635D01*
X0442159D02*
X0449306D01*
X0442159Y0355188D02*
Y0357635D01*
Y0355188D02*
X0449306D01*
X0442119Y0358362D02*
X0449266D01*
X0442119D02*
Y0360809D01*
X0449266D01*
Y0358362D02*
Y0360809D01*
X0459356Y0351360D02*
Y0353807D01*
X0452209D02*
X0459356D01*
X0452209Y0351360D02*
Y0353807D01*
Y0351360D02*
X0459356D01*
X0487745Y0316387D02*
X0495191D01*
Y0313627D02*
Y0316387D01*
X0487745Y0313627D02*
X0495191D01*
X0487745D02*
Y0316387D01*
X0498409Y0361703D02*
Y0364463D01*
X0490963D02*
X0498409D01*
X0490963Y0361703D02*
Y0364463D01*
Y0361703D02*
X0498409D01*
X0406148Y0269206D02*
Y0271966D01*
Y0269206D02*
X0413593D01*
Y0271966D01*
X0406148D02*
X0413593D01*
X0498253Y0347177D02*
Y0353641D01*
X0495575Y0347177D02*
X0498253D01*
X0495575D02*
Y0353641D01*
X0498253D01*
X0386629Y0414122D02*
Y0416569D01*
Y0414122D02*
X0393776D01*
Y0416569D01*
X0386629D02*
X0393776D01*
X0385082Y0417019D02*
Y0419466D01*
X0377935D02*
X0385082D01*
X0377935Y0417019D02*
Y0419466D01*
Y0417019D02*
X0385082D01*
X0385057Y0414076D02*
Y0416523D01*
X0377910D02*
X0385057D01*
X0377910Y0414076D02*
Y0416523D01*
Y0414076D02*
X0385057D01*
X0365018Y0406261D02*
X0367465D01*
Y0413408D01*
X0365018D02*
X0367465D01*
X0365018Y0406261D02*
Y0413408D01*
X0367860Y0406248D02*
X0370307D01*
Y0413395D01*
X0367860D02*
X0370307D01*
X0367860Y0406248D02*
Y0413395D01*
X0365030Y0371705D02*
X0367477D01*
Y0378852D01*
X0365030D02*
X0367477D01*
X0365030Y0371705D02*
Y0378852D01*
X0367893Y0371641D02*
X0370340D01*
Y0378788D01*
X0367893D02*
X0370340D01*
X0367893Y0371641D02*
Y0378788D01*
X0365043Y0386411D02*
X0367490D01*
X0365043Y0379264D02*
Y0386411D01*
Y0379264D02*
X0367490D01*
Y0386411D01*
X0367945Y0386523D02*
X0370392D01*
X0367945Y0379376D02*
Y0386523D01*
Y0379376D02*
X0370392D01*
Y0386523D01*
X0365152Y0352915D02*
X0367599D01*
X0365152Y0345769D02*
Y0352915D01*
Y0345769D02*
X0367599D01*
Y0352915D01*
X0368074Y0352907D02*
X0370521D01*
X0368074Y0345760D02*
Y0352907D01*
Y0345760D02*
X0370521D01*
Y0352907D01*
X0370417Y0333216D02*
Y0335663D01*
X0363270D02*
X0370417D01*
X0363270Y0333216D02*
Y0335663D01*
Y0333216D02*
X0370417D01*
X0370388Y0403411D02*
Y0405858D01*
X0363242D02*
X0370388D01*
X0363242Y0403411D02*
Y0405858D01*
Y0403411D02*
X0370388D01*
X0377195Y0414002D02*
Y0416449D01*
X0370048D02*
X0377195D01*
X0370048Y0414002D02*
Y0416449D01*
Y0414002D02*
X0377195D01*
X0370524Y0360683D02*
Y0363130D01*
X0363377D02*
X0370524D01*
X0363377Y0360683D02*
Y0363130D01*
Y0360683D02*
X0370524D01*
X0364985Y0394858D02*
X0367432D01*
Y0402004D01*
X0364985D02*
X0367432D01*
X0364985Y0394858D02*
Y0402004D01*
X0367915Y0394771D02*
X0370362D01*
Y0401917D01*
X0367915D02*
X0370362D01*
X0367915Y0394771D02*
Y0401917D01*
X0368003Y0363402D02*
X0370450D01*
Y0370549D01*
X0368003D02*
X0370450D01*
X0368003Y0363402D02*
Y0370549D01*
X0365007Y0363438D02*
X0367454D01*
Y0370584D01*
X0365007D02*
X0367454D01*
X0365007Y0363438D02*
Y0370584D01*
X0364982Y0394639D02*
X0367429D01*
X0364982Y0387493D02*
Y0394639D01*
Y0387493D02*
X0367429D01*
Y0394639D01*
X0367949Y0394596D02*
X0370396D01*
X0367949Y0387450D02*
Y0394596D01*
Y0387450D02*
X0370396D01*
Y0394596D01*
X0365152Y0360385D02*
X0367599D01*
X0365152Y0353238D02*
Y0360385D01*
Y0353238D02*
X0367599D01*
Y0360385D01*
X0368074D02*
X0370521D01*
X0368074Y0353238D02*
Y0360385D01*
Y0353238D02*
X0370521D01*
Y0360385D01*
X0386847Y0272112D02*
X0389294D01*
X0386847Y0264965D02*
Y0272112D01*
Y0264965D02*
X0389294D01*
Y0272112D01*
X0389825D02*
X0392272D01*
X0389825Y0264965D02*
Y0272112D01*
Y0264965D02*
X0392272D01*
Y0272112D01*
X0386440Y0269621D02*
Y0272068D01*
X0379293D02*
X0386440D01*
X0379293Y0269621D02*
Y0272068D01*
Y0269621D02*
X0386440D01*
X0364679Y0336199D02*
X0367305D01*
Y0342199D01*
X0364679D02*
X0367305D01*
X0364679Y0336199D02*
Y0342199D01*
X0367765Y0336185D02*
X0370391D01*
Y0342185D01*
X0367765D02*
X0370391D01*
X0367765Y0336185D02*
Y0342185D01*
X0367609Y0303090D02*
X0370235D01*
Y0309090D01*
X0367609D02*
X0370235D01*
X0367609Y0303090D02*
Y0309090D01*
X0364452Y0303075D02*
X0367079D01*
Y0309075D01*
X0364452D02*
X0367079D01*
X0364452Y0303075D02*
Y0309075D01*
X0367644Y0315876D02*
X0370270D01*
X0367644Y0309876D02*
Y0315876D01*
Y0309876D02*
X0370270D01*
Y0315876D01*
X0364566Y0315828D02*
X0367193D01*
X0364566Y0309828D02*
Y0315828D01*
Y0309828D02*
X0367193D01*
Y0315828D01*
X0364136Y0281746D02*
X0366762D01*
X0364136Y0275746D02*
Y0281746D01*
Y0275746D02*
X0366762D01*
Y0281746D01*
X0367318Y0281700D02*
X0369944D01*
X0367318Y0275700D02*
Y0281700D01*
Y0275700D02*
X0369944D01*
Y0281700D01*
X0370510Y0293155D02*
Y0295602D01*
X0363364D02*
X0370510D01*
X0363364Y0293155D02*
Y0295602D01*
Y0293155D02*
X0370510D01*
X0370517Y0290037D02*
Y0292484D01*
X0363370D02*
X0370517D01*
X0363370Y0290037D02*
Y0292484D01*
Y0290037D02*
X0370517D01*
X0361427Y0325617D02*
X0363875D01*
Y0332763D01*
X0361427D02*
X0363875D01*
X0361427Y0325617D02*
Y0332763D01*
X0364224Y0353282D02*
Y0360429D01*
X0361777Y0353282D02*
X0364224D01*
X0361777D02*
Y0360429D01*
X0364224D01*
X0364387Y0326042D02*
Y0332042D01*
X0367013D01*
Y0326042D02*
Y0332042D01*
X0364387Y0326042D02*
X0367013D01*
X0367682Y0296180D02*
X0370308D01*
Y0302180D01*
X0367682D02*
X0370308D01*
X0367682Y0296180D02*
Y0302180D01*
X0364535Y0296106D02*
Y0302106D01*
X0367161D01*
Y0296106D02*
Y0302106D01*
X0364535Y0296106D02*
X0367161D01*
X0367527Y0324908D02*
X0370153D01*
X0367527Y0318908D02*
Y0324908D01*
Y0318908D02*
X0370153D01*
Y0324908D01*
X0364304D02*
X0366931D01*
X0364304Y0318908D02*
Y0324908D01*
Y0318908D02*
X0366931D01*
Y0324908D01*
X0370100Y0283555D02*
Y0289555D01*
X0367474Y0283555D02*
X0370100D01*
X0367474D02*
Y0289555D01*
X0370100D01*
X0366953Y0283555D02*
Y0289555D01*
X0364327Y0283555D02*
X0366953D01*
X0364327D02*
Y0289555D01*
X0366953D01*
X0494811Y0316803D02*
Y0319250D01*
X0487664D02*
X0494811D01*
X0487664Y0316803D02*
Y0319250D01*
Y0316803D02*
X0494811D01*
X0494113Y0324415D02*
Y0334626D01*
X0489980Y0324415D02*
X0494113D01*
X0489980D02*
Y0334626D01*
X0494113D01*
X0482109Y0362142D02*
X0486242D01*
Y0372353D01*
X0482109D02*
X0486242D01*
X0482109Y0362142D02*
Y0372353D01*
X0486593Y0363369D02*
X0489040D01*
Y0370516D01*
X0486593D02*
X0489040D01*
X0486593Y0363369D02*
Y0370516D01*
X0468848Y0342049D02*
Y0346182D01*
X0458638D02*
X0468848D01*
X0458638Y0342049D02*
Y0346182D01*
Y0342049D02*
X0468848D01*
X0489478Y0354209D02*
Y0356656D01*
Y0354209D02*
X0496625D01*
Y0356656D01*
X0489478D02*
X0496625D01*
X0490648Y0372289D02*
X0500858D01*
Y0368156D02*
Y0372289D01*
X0490648Y0368156D02*
X0500858D01*
X0490648D02*
Y0372289D01*
X0387207Y0419706D02*
X0393376D01*
Y0416977D02*
Y0419706D01*
X0387207Y0416977D02*
X0393376D01*
X0387207D02*
Y0419706D01*
X0367524Y0326042D02*
X0370150D01*
Y0332042D01*
X0367524D02*
X0370150D01*
X0367524Y0326042D02*
Y0332042D01*
X0495552Y0319155D02*
X0505763D01*
Y0315021D02*
Y0319155D01*
X0495552Y0315021D02*
X0505763D01*
X0495552D02*
Y0319155D01*
X0497420Y0339186D02*
X0503884D01*
X0497420D02*
Y0341864D01*
X0503884D01*
Y0339186D02*
Y0341864D01*
X0448301Y0333126D02*
X0450748D01*
Y0340273D01*
X0448301D02*
X0450748D01*
X0448301Y0333126D02*
Y0340273D01*
X0457797Y0335111D02*
X0463797D01*
X0457797D02*
Y0337737D01*
X0463797D01*
Y0335111D02*
Y0337737D01*
X0494814Y0333612D02*
X0497261D01*
X0494814Y0326466D02*
Y0333612D01*
Y0326466D02*
X0497261D01*
Y0333612D01*
X0378633Y0269632D02*
Y0272079D01*
X0371487D02*
X0378633D01*
X0371487Y0269632D02*
Y0272079D01*
Y0269632D02*
X0378633D01*
X0361615Y0295892D02*
Y0303039D01*
X0364062D01*
Y0295892D02*
Y0303039D01*
X0361615Y0295892D02*
X0364062D01*
X0517113Y0350450D02*
Y0352897D01*
Y0350450D02*
X0524259D01*
Y0352897D01*
X0517113D02*
X0524259D01*
X0504573Y0339338D02*
Y0341786D01*
Y0339338D02*
X0511719D01*
Y0341786D01*
X0504573D02*
X0511719D01*
X0461062Y0377015D02*
X0463509D01*
Y0384162D01*
X0461062D02*
X0463509D01*
X0461062Y0377015D02*
Y0384162D01*
X0464132Y0376970D02*
X0466579D01*
Y0384117D01*
X0464132D02*
X0466579D01*
X0464132Y0376970D02*
Y0384117D01*
X0460384Y0393462D02*
Y0395909D01*
Y0393462D02*
X0467530D01*
Y0395909D01*
X0460384D02*
X0467530D01*
X0408970Y0426645D02*
X0409436D01*
X0409669Y0426411D01*
X0409436Y0426178D01*
X0408970D01*
X0409320D01*
Y0426645D01*
X0408970Y0425945D02*
Y0425711D01*
Y0425828D01*
X0409669D01*
X0409553Y0425945D01*
G54D16*
X0461998Y0288045D02*
Y0300193D01*
Y0288045D02*
X0465150Y0284893D01*
X0505498D01*
Y0307493D01*
X0461998D02*
X0505498D01*
X0461998Y0300193D02*
Y0307493D01*
X0421752Y0340057D02*
X0440275D01*
X0417914Y0336218D02*
X0421752Y0340057D01*
X0417914Y0287954D02*
Y0336218D01*
X0440275Y0287954D02*
Y0340057D01*
X0417914Y0287954D02*
X0440275D01*
X0347692Y0262432D02*
Y0281832D01*
X0362501D01*
Y0262432D02*
Y0281832D01*
X0347692Y0262432D02*
X0362501D01*
X0421528Y0395840D02*
X0440051D01*
X0417690Y0392002D02*
X0421528Y0395840D01*
X0417690Y0343738D02*
Y0392002D01*
X0440051Y0343738D02*
Y0395840D01*
X0417690Y0343738D02*
X0440051D01*
X0516849Y0335378D02*
Y0345401D01*
X0521003D01*
Y0335378D02*
Y0345401D01*
X0516849Y0335378D02*
X0521003D01*
X0520809Y0286540D02*
Y0305940D01*
X0506000Y0286540D02*
X0520809D01*
X0506000D02*
Y0305940D01*
X0520809D01*
X0341198Y0401590D02*
X0360598D01*
Y0386781D02*
Y0401590D01*
X0341198Y0386781D02*
X0360598D01*
X0341198D02*
Y0401590D01*
X0338280Y0300632D02*
X0357680D01*
Y0285823D02*
Y0300632D01*
X0338280Y0285823D02*
X0357680D01*
X0338280D02*
Y0300632D01*
X0363667Y0406832D02*
Y0426231D01*
X0348858Y0406832D02*
X0363667D01*
X0348858D02*
Y0426231D01*
X0363667D01*
X0538067Y0286631D02*
Y0306031D01*
X0523258Y0286631D02*
X0538067D01*
X0523258D02*
Y0306031D01*
X0538067D01*
X0502604Y0309914D02*
X0502104D01*
X0502354D01*
Y0308664D01*
X0502104Y0308414D01*
X0501854D01*
X0501604Y0308664D01*
X0503104Y0309914D02*
X0504104D01*
Y0309664D01*
X0503104Y0308664D01*
Y0308414D01*
G54D17*
X0358460Y0429678D02*
X0556833D01*
X0563034Y0423476D01*
X0563034Y0258686D01*
X0557780Y0253432D02*
X0563034Y0258686D01*
X0331046Y0253432D02*
X0557780D01*
X0322280Y0262198D02*
X0331046Y0253432D01*
X0322280Y0425142D02*
X0322280Y0262198D01*
X0322280Y0425142D02*
X0326922Y0429784D01*
X0358353D01*
G54D18*
X0336859Y0351605D02*
X0337926D01*
X0337392D01*
Y0350006D01*
X0338459Y0351605D02*
X0339525Y0350006D01*
Y0351605D02*
X0338459Y0350006D01*
X0340858D02*
Y0351605D01*
X0340058Y0350805D01*
X0341125D01*
X0341658Y0351339D02*
X0341924Y0351605D01*
X0342458D01*
X0342724Y0351339D01*
Y0350272D01*
X0342458Y0350006D01*
X0341924D01*
X0341658Y0350272D01*
Y0351339D01*
X0343654Y0350814D02*
X0344720D01*
X0354854Y0351224D02*
X0355920D01*
X0354864Y0380977D02*
X0355930D01*
X0343837Y0380828D02*
X0344903D01*
X0337042Y0381620D02*
X0338108D01*
X0337575D01*
Y0380020D01*
X0338642Y0381620D02*
X0339708Y0380020D01*
Y0381620D02*
X0338642Y0380020D01*
X0341307Y0381620D02*
X0340774Y0381353D01*
X0340241Y0380820D01*
Y0380287D01*
X0340508Y0380020D01*
X0341041D01*
X0341307Y0380287D01*
Y0380553D01*
X0341041Y0380820D01*
X0340241D01*
X0342640Y0380020D02*
Y0381620D01*
X0341841Y0380820D01*
X0342907D01*
X0337013Y0364165D02*
X0338080D01*
X0337546D01*
Y0362566D01*
X0338613Y0364165D02*
X0339679Y0362566D01*
Y0364165D02*
X0338613Y0362566D01*
X0341279Y0364165D02*
X0340212D01*
Y0363366D01*
X0340745Y0363632D01*
X0341012D01*
X0341279Y0363366D01*
Y0362832D01*
X0341012Y0362566D01*
X0340479D01*
X0340212Y0362832D01*
X0341812Y0363899D02*
X0342078Y0364165D01*
X0342612D01*
X0342878Y0363899D01*
Y0362832D01*
X0342612Y0362566D01*
X0342078D01*
X0341812Y0362832D01*
Y0363899D01*
X0355047Y0363518D02*
X0356114D01*
X0343869Y0363522D02*
X0344935D01*
X0337100Y0376624D02*
X0338166D01*
X0337633D01*
Y0375024D01*
X0338699Y0376624D02*
X0339766Y0375024D01*
Y0376624D02*
X0338699Y0375024D01*
X0341365Y0376624D02*
X0340832Y0376357D01*
X0340299Y0375824D01*
Y0375291D01*
X0340565Y0375024D01*
X0341099D01*
X0341365Y0375291D01*
Y0375558D01*
X0341099Y0375824D01*
X0340299D01*
X0341898Y0376357D02*
X0342165Y0376624D01*
X0342698D01*
X0342965Y0376357D01*
Y0375291D01*
X0342698Y0375024D01*
X0342165D01*
X0341898Y0375291D01*
Y0376357D01*
X0343962Y0375844D02*
X0345029D01*
X0354649Y0376086D02*
X0355715D01*
X0343454Y0303603D02*
X0344520D01*
X0354791Y0303315D02*
X0355858D01*
X0336890Y0326543D02*
X0337956D01*
X0337423D01*
Y0324943D01*
X0338489Y0326543D02*
X0339555Y0324943D01*
Y0326543D02*
X0338489Y0324943D01*
X0341155D02*
X0340089D01*
X0341155Y0326010D01*
Y0326276D01*
X0340888Y0326543D01*
X0340355D01*
X0340089Y0326276D01*
X0341688D02*
X0341955Y0326543D01*
X0342488D01*
X0342754Y0326276D01*
Y0325210D01*
X0342488Y0324943D01*
X0341955D01*
X0341688Y0325210D01*
Y0326276D01*
X0354791Y0325837D02*
X0355858D01*
X0354954Y0338319D02*
X0356021D01*
X0337170Y0339297D02*
X0338237D01*
X0337704D01*
Y0337698D01*
X0338770Y0339297D02*
X0339836Y0337698D01*
Y0339297D02*
X0338770Y0337698D01*
X0340369Y0339031D02*
X0340636Y0339297D01*
X0341169D01*
X0341436Y0339031D01*
Y0338764D01*
X0341169Y0338497D01*
X0340902D01*
X0341169D01*
X0341436Y0338231D01*
Y0337964D01*
X0341169Y0337698D01*
X0340636D01*
X0340369Y0337964D01*
X0341969Y0339031D02*
X0342235Y0339297D01*
X0342769D01*
X0343035Y0339031D01*
Y0337964D01*
X0342769Y0337698D01*
X0342235D01*
X0341969Y0337964D01*
Y0339031D01*
X0343889Y0338500D02*
X0344955D01*
X0338253Y0304423D02*
X0339320D01*
X0338787D01*
Y0302823D01*
X0339853Y0304423D02*
X0340919Y0302823D01*
Y0304423D02*
X0339853Y0302823D01*
X0342519D02*
X0341452D01*
X0342519Y0303890D01*
Y0304156D01*
X0342252Y0304423D01*
X0341719D01*
X0341452Y0304156D01*
X0337331Y0314069D02*
X0338397D01*
X0337864D01*
Y0312470D01*
X0338930Y0314069D02*
X0339997Y0312470D01*
Y0314069D02*
X0338930Y0312470D01*
X0340530D02*
X0341063D01*
X0340796D01*
Y0314069D01*
X0340530Y0313802D01*
X0341863D02*
X0342129Y0314069D01*
X0342662D01*
X0342929Y0313802D01*
Y0312736D01*
X0342662Y0312470D01*
X0342129D01*
X0341863Y0312736D01*
Y0313802D01*
X0343648Y0313372D02*
X0344714D01*
X0354737Y0313463D02*
X0355803D01*
X0343768Y0325866D02*
X0344835D01*
X0356134Y0304170D02*
X0357201D01*
X0356668D01*
Y0302571D01*
X0357734Y0304170D02*
X0358800Y0302571D01*
Y0304170D02*
X0357734Y0302571D01*
X0359333D02*
X0359866D01*
X0359600D01*
Y0304170D01*
X0359333Y0303904D01*
X0356080Y0314319D02*
X0357146D01*
X0356613D01*
Y0312719D01*
X0357680Y0314319D02*
X0358746Y0312719D01*
Y0314319D02*
X0357680Y0312719D01*
X0359279Y0312986D02*
X0359546Y0312719D01*
X0360079D01*
X0360345Y0312986D01*
Y0314052D01*
X0360079Y0314319D01*
X0359546D01*
X0359279Y0314052D01*
Y0313786D01*
X0359546Y0313519D01*
X0360345D01*
X0356134Y0326692D02*
X0357201D01*
X0356668D01*
Y0325093D01*
X0357734Y0326692D02*
X0358800Y0325093D01*
Y0326692D02*
X0357734Y0325093D01*
X0359333D02*
X0359866D01*
X0359600D01*
Y0326692D01*
X0359333Y0326425D01*
X0360666Y0325359D02*
X0360933Y0325093D01*
X0361466D01*
X0361733Y0325359D01*
Y0326425D01*
X0361466Y0326692D01*
X0360933D01*
X0360666Y0326425D01*
Y0326159D01*
X0360933Y0325892D01*
X0361733D01*
X0356297Y0339174D02*
X0357364D01*
X0356830D01*
Y0337574D01*
X0357897Y0339174D02*
X0358963Y0337574D01*
Y0339174D02*
X0357897Y0337574D01*
X0360562D02*
X0359496D01*
X0360562Y0338641D01*
Y0338907D01*
X0360296Y0339174D01*
X0359763D01*
X0359496Y0338907D01*
X0361096Y0337841D02*
X0361362Y0337574D01*
X0361895D01*
X0362162Y0337841D01*
Y0338907D01*
X0361895Y0339174D01*
X0361362D01*
X0361096Y0338907D01*
Y0338641D01*
X0361362Y0338374D01*
X0362162D01*
X0356196Y0352079D02*
X0357263D01*
X0356730D01*
Y0350480D01*
X0357796Y0352079D02*
X0358862Y0350480D01*
Y0352079D02*
X0357796Y0350480D01*
X0359395Y0351813D02*
X0359662Y0352079D01*
X0360195D01*
X0360462Y0351813D01*
Y0351546D01*
X0360195Y0351280D01*
X0359929D01*
X0360195D01*
X0360462Y0351013D01*
Y0350746D01*
X0360195Y0350480D01*
X0359662D01*
X0359395Y0350746D01*
X0360995D02*
X0361262Y0350480D01*
X0361795D01*
X0362061Y0350746D01*
Y0351813D01*
X0361795Y0352079D01*
X0361262D01*
X0360995Y0351813D01*
Y0351546D01*
X0361262Y0351280D01*
X0362061D01*
X0355992Y0376941D02*
X0357058D01*
X0356525D01*
Y0375342D01*
X0357591Y0376941D02*
X0358658Y0375342D01*
Y0376941D02*
X0357591Y0375342D01*
X0360257Y0376941D02*
X0359191D01*
Y0376142D01*
X0359724Y0376408D01*
X0359990D01*
X0360257Y0376142D01*
Y0375608D01*
X0359990Y0375342D01*
X0359457D01*
X0359191Y0375608D01*
X0360790D02*
X0361057Y0375342D01*
X0361590D01*
X0361856Y0375608D01*
Y0376675D01*
X0361590Y0376941D01*
X0361057D01*
X0360790Y0376675D01*
Y0376408D01*
X0361057Y0376142D01*
X0361856D01*
X0356207Y0381832D02*
X0357273D01*
X0356740D01*
Y0380233D01*
X0357807Y0381832D02*
X0358873Y0380233D01*
Y0381832D02*
X0357807Y0380233D01*
X0360472Y0381832D02*
X0359939Y0381565D01*
X0359406Y0381032D01*
Y0380499D01*
X0359673Y0380233D01*
X0360206D01*
X0360472Y0380499D01*
Y0380766D01*
X0360206Y0381032D01*
X0359406D01*
X0361005Y0381565D02*
X0361272Y0381832D01*
X0361805D01*
X0362072Y0381565D01*
Y0381299D01*
X0361805Y0381032D01*
X0361539D01*
X0361805D01*
X0362072Y0380766D01*
Y0380499D01*
X0361805Y0380233D01*
X0361272D01*
X0361005Y0380499D01*
X0356648Y0364589D02*
X0357715D01*
X0357181D01*
Y0362989D01*
X0358248Y0364589D02*
X0359314Y0362989D01*
Y0364589D02*
X0358248Y0362989D01*
X0360647D02*
Y0364589D01*
X0359847Y0363789D01*
X0360913D01*
X0361447Y0363256D02*
X0361713Y0362989D01*
X0362246D01*
X0362513Y0363256D01*
Y0364322D01*
X0362246Y0364589D01*
X0361713D01*
X0361447Y0364322D01*
Y0364055D01*
X0361713Y0363789D01*
X0362513D01*
X0440988Y0306357D02*
Y0307857D01*
X0441738D01*
X0441988Y0307607D01*
Y0307107D01*
X0441738Y0306857D01*
X0440988D01*
X0441488D02*
X0441988Y0306357D01*
X0443488Y0307607D02*
X0443238Y0307857D01*
X0442738D01*
X0442488Y0307607D01*
Y0307357D01*
X0442738Y0307107D01*
X0443238D01*
X0443488Y0306857D01*
Y0306607D01*
X0443238Y0306357D01*
X0442738D01*
X0442488Y0306607D01*
X0443987Y0307857D02*
X0444987D01*
X0444487D01*
Y0306357D01*
X0445487D02*
Y0307357D01*
X0446237D01*
X0446487Y0307107D01*
Y0306357D01*
G54D19*
X0474149Y0350739D02*
Y0350539D01*
X0474049Y0350439D01*
X0473949Y0350539D01*
Y0350739D01*
Y0350589D01*
X0474149D01*
X0473849Y0350739D02*
X0473749D01*
X0473799D01*
Y0350439D01*
X0473849Y0350489D01*
X0474141Y0352603D02*
Y0352903D01*
X0473991D01*
X0473941Y0352853D01*
Y0352803D01*
X0473991Y0352753D01*
X0474141D01*
X0473991D01*
X0473941Y0352703D01*
Y0352653D01*
X0473991Y0352603D01*
X0474141D01*
X0473841Y0352903D02*
X0473741D01*
X0473791D01*
Y0352603D01*
X0473841Y0352653D01*
X0468903Y0352620D02*
Y0352920D01*
X0468753D01*
X0468703Y0352870D01*
Y0352819D01*
X0468753Y0352769D01*
X0468903D01*
X0468753D01*
X0468703Y0352719D01*
Y0352670D01*
X0468753Y0352620D01*
X0468903D01*
X0468403Y0352920D02*
X0468603D01*
X0468403Y0352719D01*
Y0352670D01*
X0468453Y0352620D01*
X0468553D01*
X0468603Y0352670D01*
X0468927Y0350715D02*
Y0350515D01*
X0468827Y0350415D01*
X0468727Y0350515D01*
Y0350715D01*
Y0350565D01*
X0468927D01*
X0468427Y0350715D02*
X0468627D01*
X0468427Y0350515D01*
Y0350465D01*
X0468477Y0350415D01*
X0468577D01*
X0468627Y0350465D01*
X0516912Y0346480D02*
Y0346813D01*
X0517078Y0346979D01*
X0517245Y0346813D01*
Y0346480D01*
Y0346729D01*
X0516912D01*
X0517412Y0346480D02*
X0517578D01*
X0517495D01*
Y0346979D01*
X0517412Y0346896D01*
X0517184Y0357531D02*
X0516851D01*
Y0357031D01*
X0517184D01*
X0516851Y0357281D02*
X0517018D01*
X0517351Y0357031D02*
X0517517D01*
X0517434D01*
Y0357531D01*
X0517351Y0357448D01*
X0497420Y0346181D02*
Y0346514D01*
X0497587Y0346680D01*
X0497753Y0346514D01*
Y0346181D01*
Y0346430D01*
X0497420D01*
X0498253Y0346680D02*
X0497920D01*
Y0346430D01*
X0498087Y0346514D01*
X0498170D01*
X0498253Y0346430D01*
Y0346264D01*
X0498170Y0346181D01*
X0498003D01*
X0497920Y0346264D01*
X0497980Y0356429D02*
X0497647D01*
Y0355929D01*
X0497980D01*
X0497647Y0356179D02*
X0497814D01*
X0498480Y0356429D02*
X0498147D01*
Y0356179D01*
X0498314Y0356263D01*
X0498397D01*
X0498480Y0356179D01*
Y0356013D01*
X0498397Y0355929D01*
X0498230D01*
X0498147Y0356013D01*
X0512350Y0338553D02*
Y0338886D01*
X0512517Y0339053D01*
X0512683Y0338886D01*
Y0338553D01*
Y0338803D01*
X0512350D01*
X0512850Y0338553D02*
X0513017D01*
X0512933D01*
Y0339053D01*
X0512850Y0338969D01*
X0500969Y0338866D02*
X0500635D01*
Y0338366D01*
X0500969D01*
X0500635Y0338616D02*
X0500802D01*
X0501135Y0338366D02*
X0501302D01*
X0501218D01*
Y0338866D01*
X0501135Y0338783D01*
X0516849Y0324263D02*
Y0324596D01*
X0517016Y0324763D01*
X0517182Y0324596D01*
Y0324263D01*
Y0324513D01*
X0516849D01*
X0517682Y0324763D02*
X0517349D01*
Y0324513D01*
X0517515Y0324596D01*
X0517599D01*
X0517682Y0324513D01*
Y0324346D01*
X0517599Y0324263D01*
X0517432D01*
X0517349Y0324346D01*
X0497356Y0323959D02*
X0497023D01*
Y0323459D01*
X0497356D01*
X0497023Y0323709D02*
X0497190D01*
X0497856Y0323959D02*
X0497523D01*
Y0323709D01*
X0497689Y0323793D01*
X0497773D01*
X0497856Y0323709D01*
Y0323543D01*
X0497773Y0323459D01*
X0497606D01*
X0497523Y0323543D01*
G54D20*
X0567400Y0087833D02*
Y0093831D01*
X0571399Y0087833D01*
Y0093831D01*
X0574398Y0087833D02*
X0576397D01*
X0577397Y0088833D01*
Y0090832D01*
X0576397Y0091832D01*
X0574398D01*
X0573398Y0090832D01*
Y0088833D01*
X0574398Y0087833D01*
X0580396Y0092832D02*
Y0091832D01*
X0579396D01*
X0581395D01*
X0580396D01*
Y0088833D01*
X0581395Y0087833D01*
X0590393D02*
X0592392D01*
X0591392D01*
Y0091832D01*
X0590393D01*
X0595391Y0087833D02*
Y0091832D01*
X0598390D01*
X0599390Y0090832D01*
Y0087833D01*
X0607387Y0091832D02*
X0609386Y0087833D01*
X0611386Y0091832D01*
X0616384Y0087833D02*
X0614385D01*
X0613385Y0088833D01*
Y0090832D01*
X0614385Y0091832D01*
X0616384D01*
X0617384Y0090832D01*
Y0089833D01*
X0613385D01*
X0619383Y0091832D02*
Y0087833D01*
Y0089833D01*
X0620383Y0090832D01*
X0621383Y0091832D01*
X0622382D01*
X0625381Y0087833D02*
X0628380D01*
X0629380Y0088833D01*
X0628380Y0089833D01*
X0626381D01*
X0625381Y0090832D01*
X0626381Y0091832D01*
X0629380D01*
X0631379Y0087833D02*
X0633379D01*
X0632379D01*
Y0091832D01*
X0631379D01*
X0637377Y0087833D02*
X0639377D01*
X0640376Y0088833D01*
Y0090832D01*
X0639377Y0091832D01*
X0637377D01*
X0636378Y0090832D01*
Y0088833D01*
X0637377Y0087833D01*
X0642376D02*
Y0091832D01*
X0645375D01*
X0646374Y0090832D01*
Y0087833D01*
X0658371Y0091832D02*
X0655372D01*
X0654372Y0090832D01*
Y0088833D01*
X0655372Y0087833D01*
X0658371D01*
X0661370D02*
X0663369D01*
X0664369Y0088833D01*
Y0090832D01*
X0663369Y0091832D01*
X0661370D01*
X0660370Y0090832D01*
Y0088833D01*
X0661370Y0087833D01*
X0666368D02*
Y0091832D01*
X0669367D01*
X0670367Y0090832D01*
Y0087833D01*
X0673366Y0092832D02*
Y0091832D01*
X0672366D01*
X0674365D01*
X0673366D01*
Y0088833D01*
X0674365Y0087833D01*
X0677364Y0091832D02*
Y0087833D01*
Y0089833D01*
X0678364Y0090832D01*
X0679364Y0091832D01*
X0680364D01*
X0684362Y0087833D02*
X0686362D01*
X0687361Y0088833D01*
Y0090832D01*
X0686362Y0091832D01*
X0684362D01*
X0683362Y0090832D01*
Y0088833D01*
X0684362Y0087833D01*
X0689361D02*
X0691360D01*
X0690360D01*
Y0093831D01*
X0689361D01*
X0520799Y0092832D02*
X0519799Y0093831D01*
X0517800D01*
X0516800Y0092832D01*
Y0091832D01*
X0517800Y0090832D01*
X0519799D01*
X0520799Y0089833D01*
Y0088833D01*
X0519799Y0087833D01*
X0517800D01*
X0516800Y0088833D01*
X0522798Y0093831D02*
Y0089833D01*
X0524797Y0087833D01*
X0526797Y0089833D01*
Y0093831D01*
X0528796Y0087833D02*
Y0093831D01*
X0532795Y0087833D01*
Y0093831D01*
X0540792Y0087833D02*
Y0093831D01*
X0543791D01*
X0544791Y0092832D01*
Y0090832D01*
X0543791Y0089833D01*
X0540792D01*
X0542792D02*
X0544791Y0087833D01*
X0550789Y0093831D02*
X0546790D01*
Y0087833D01*
X0550789D01*
X0546790Y0090832D02*
X0548790D01*
X0552788Y0093831D02*
Y0089833D01*
X0554788Y0087833D01*
X0556787Y0089833D01*
Y0093831D01*
X0558786Y0091832D02*
X0559786D01*
Y0090832D01*
X0558786D01*
Y0091832D01*
Y0088833D02*
X0559786D01*
Y0087833D01*
X0558786D01*
Y0088833D01*
X0433000Y0087833D02*
Y0093831D01*
X0435999D01*
X0436999Y0092832D01*
Y0090832D01*
X0435999Y0089833D01*
X0433000D01*
X0434999D02*
X0436999Y0087833D01*
X0442997Y0093831D02*
X0438998D01*
Y0087833D01*
X0442997D01*
X0438998Y0090832D02*
X0440997D01*
X0444996Y0093831D02*
Y0089833D01*
X0446995Y0087833D01*
X0448995Y0089833D01*
Y0093831D01*
X0450994Y0091832D02*
X0451994D01*
Y0090832D01*
X0450994D01*
Y0091832D01*
Y0088833D02*
X0451994D01*
Y0087833D01*
X0450994D01*
Y0088833D01*
X0126900Y0052965D02*
X0130899D01*
Y0051965D01*
X0126900Y0047966D01*
Y0046966D01*
X0132898D02*
X0134897D01*
X0133898D01*
Y0052965D01*
X0132898Y0051965D01*
X0137896D02*
X0138896Y0052965D01*
X0140895D01*
X0141895Y0051965D01*
Y0047966D01*
X0140895Y0046966D01*
X0138896D01*
X0137896Y0047966D01*
Y0051965D01*
X0143895D02*
X0144894Y0052965D01*
X0146894D01*
X0147893Y0051965D01*
Y0047966D01*
X0146894Y0046966D01*
X0144894D01*
X0143895Y0047966D01*
Y0051965D01*
X0149893Y0049966D02*
X0153891D01*
X0155891Y0051965D02*
X0156890Y0052965D01*
X0158890D01*
X0159889Y0051965D01*
Y0047966D01*
X0158890Y0046966D01*
X0156890D01*
X0155891Y0047966D01*
Y0051965D01*
X0161889D02*
X0162888Y0052965D01*
X0164888D01*
X0165887Y0051965D01*
Y0047966D01*
X0164888Y0046966D01*
X0162888D01*
X0161889Y0047966D01*
Y0051965D01*
X0167887D02*
X0168886Y0052965D01*
X0170886D01*
X0171885Y0051965D01*
Y0047966D01*
X0170886Y0046966D01*
X0168886D01*
X0167887Y0047966D01*
Y0051965D01*
X0173885D02*
X0174884Y0052965D01*
X0176884D01*
X0177884Y0051965D01*
Y0047966D01*
X0176884Y0046966D01*
X0174884D01*
X0173885Y0047966D01*
Y0051965D01*
X0179883D02*
X0180883Y0052965D01*
X0182882D01*
X0183882Y0051965D01*
Y0050965D01*
X0182882Y0049966D01*
X0181882D01*
X0182882D01*
X0183882Y0048966D01*
Y0047966D01*
X0182882Y0046966D01*
X0180883D01*
X0179883Y0047966D01*
X0191879Y0052965D02*
Y0047966D01*
X0192879Y0046966D01*
X0194878D01*
X0195878Y0047966D01*
Y0052965D01*
X0201876Y0051965D02*
X0200876Y0052965D01*
X0198877D01*
X0197877Y0051965D01*
Y0050965D01*
X0198877Y0049966D01*
X0200876D01*
X0201876Y0048966D01*
Y0047966D01*
X0200876Y0046966D01*
X0198877D01*
X0197877Y0047966D01*
X0203875Y0052965D02*
X0207874D01*
X0205874D01*
Y0046966D01*
X0209873Y0050965D02*
X0213872Y0046966D01*
X0211873Y0048966D01*
X0213872Y0050965D01*
X0209873Y0046966D01*
X0221869Y0052965D02*
Y0046966D01*
X0224868D01*
X0225868Y0047966D01*
Y0048966D01*
X0224868Y0049966D01*
X0221869D01*
X0224868D01*
X0225868Y0050965D01*
Y0051965D01*
X0224868Y0052965D01*
X0221869D01*
X0228867Y0046966D02*
X0230866D01*
X0231866Y0047966D01*
Y0049966D01*
X0230866Y0050965D01*
X0228867D01*
X0227867Y0049966D01*
Y0047966D01*
X0228867Y0046966D01*
X0234865Y0050965D02*
X0236864D01*
X0237864Y0049966D01*
Y0046966D01*
X0234865D01*
X0233865Y0047966D01*
X0234865Y0048966D01*
X0237864D01*
X0239863Y0050965D02*
Y0046966D01*
Y0048966D01*
X0240863Y0049966D01*
X0241863Y0050965D01*
X0242863D01*
X0249860Y0052965D02*
Y0046966D01*
X0246861D01*
X0245862Y0047966D01*
Y0049966D01*
X0246861Y0050965D01*
X0249860D01*
X0257858Y0052965D02*
Y0048966D01*
X0259857Y0046966D01*
X0261856Y0048966D01*
Y0052965D01*
X0263856Y0046966D02*
Y0047966D01*
X0264855D01*
Y0046966D01*
X0263856D01*
X0268854Y0051965D02*
X0269854Y0052965D01*
X0271853D01*
X0272853Y0051965D01*
Y0047966D01*
X0271853Y0046966D01*
X0269854D01*
X0268854Y0047966D01*
Y0051965D01*
X0274852Y0046966D02*
Y0047966D01*
X0275852D01*
Y0046966D01*
X0274852D01*
X0282850D02*
Y0052965D01*
X0279851Y0049966D01*
X0283849D01*
X0285849Y0046966D02*
Y0047966D01*
X0286848D01*
Y0046966D01*
X0285849D01*
X0290847D02*
X0292846D01*
X0291847D01*
Y0052965D01*
X0290847Y0051965D01*
X0295845Y0046966D02*
Y0047966D01*
X0296845D01*
Y0046966D01*
X0295845D01*
X0304842Y0051965D02*
X0303843Y0052965D01*
X0301843D01*
X0300844Y0051965D01*
Y0047966D01*
X0301843Y0046966D01*
X0303843D01*
X0304842Y0047966D01*
Y0049966D01*
X0302843D01*
X0306842Y0052965D02*
X0310841D01*
X0308841D01*
Y0046966D01*
X0315839Y0052965D02*
X0313840D01*
X0312840Y0051965D01*
Y0047966D01*
X0313840Y0046966D01*
X0315839D01*
X0316839Y0047966D01*
Y0051965D01*
X0315839Y0052965D01*
X0381150Y0046966D02*
X0383149D01*
X0382150D01*
Y0052965D01*
X0381150Y0051965D01*
X0386148Y0046966D02*
X0390147Y0050965D01*
X0396145Y0046966D02*
X0392146D01*
X0396145Y0050965D01*
Y0051965D01*
X0395146Y0052965D01*
X0393146D01*
X0392146Y0051965D01*
X0398145D02*
X0399144Y0052965D01*
X0401144D01*
X0402143Y0051965D01*
Y0050965D01*
X0401144Y0049966D01*
X0402143Y0048966D01*
Y0047966D01*
X0401144Y0046966D01*
X0399144D01*
X0398145Y0047966D01*
Y0048966D01*
X0399144Y0049966D01*
X0398145Y0050965D01*
Y0051965D01*
X0399144Y0049966D02*
X0401144D01*
X0404143Y0046966D02*
X0408141Y0050965D01*
X0414139Y0046966D02*
X0410141D01*
X0414139Y0050965D01*
Y0051965D01*
X0413140Y0052965D01*
X0411140D01*
X0410141Y0051965D01*
X0416139D02*
X0417138Y0052965D01*
X0419138D01*
X0420137Y0051965D01*
Y0047966D01*
X0419138Y0046966D01*
X0417138D01*
X0416139Y0047966D01*
Y0051965D01*
X0426135Y0046966D02*
X0422137D01*
X0426135Y0050965D01*
Y0051965D01*
X0425136Y0052965D01*
X0423136D01*
X0422137Y0051965D01*
X0432133Y0052965D02*
X0428135D01*
Y0049966D01*
X0430134Y0050965D01*
X0431134D01*
X0432133Y0049966D01*
Y0047966D01*
X0431134Y0046966D01*
X0429135D01*
X0428135Y0047966D01*
X0298199Y0051965D02*
X0297199Y0052965D01*
X0295200D01*
X0294200Y0051965D01*
Y0047966D01*
X0295200Y0046966D01*
X0297199D01*
X0298199Y0047966D01*
Y0049966D01*
X0296199D01*
X0304197Y0052965D02*
X0300198D01*
Y0046966D01*
X0304197D01*
X0300198Y0049966D02*
X0302197D01*
X0306196Y0046966D02*
Y0052965D01*
X0310195Y0046966D01*
Y0052965D01*
X0316193D02*
X0312194D01*
Y0046966D01*
X0316193D01*
X0312194Y0049966D02*
X0314194D01*
X0318192Y0046966D02*
Y0052965D01*
X0321191D01*
X0322191Y0051965D01*
Y0049966D01*
X0321191Y0048966D01*
X0318192D01*
X0320192D02*
X0322191Y0046966D01*
X0324190D02*
Y0050965D01*
X0326190Y0052965D01*
X0328189Y0050965D01*
Y0046966D01*
Y0049966D01*
X0324190D01*
X0330188Y0052965D02*
X0334187D01*
X0332188D01*
Y0046966D01*
X0340185Y0052965D02*
X0336186D01*
Y0046966D01*
X0340185D01*
X0336186Y0049966D02*
X0338186D01*
X0342184Y0052965D02*
Y0046966D01*
X0345183D01*
X0346183Y0047966D01*
Y0051965D01*
X0345183Y0052965D01*
X0342184D01*
X0372175Y0050965D02*
X0373175D01*
Y0049966D01*
X0372175D01*
Y0050965D01*
Y0047966D02*
X0373175D01*
Y0046966D01*
X0372175D01*
Y0047966D01*
X0041778Y0083375D02*
Y0087374D01*
X0043777Y0089373D01*
X0045777Y0087374D01*
Y0083375D01*
Y0086374D01*
X0041778D01*
X0047776Y0089373D02*
Y0083375D01*
X0051775D01*
X0053774Y0089373D02*
Y0083375D01*
X0057773D01*
X0065770D02*
Y0087374D01*
X0067769Y0089373D01*
X0069769Y0087374D01*
Y0083375D01*
Y0086374D01*
X0065770D01*
X0071768Y0083375D02*
Y0089373D01*
X0074767D01*
X0075767Y0088373D01*
Y0086374D01*
X0074767Y0085374D01*
X0071768D01*
X0073768D02*
X0075767Y0083375D01*
X0077766Y0089373D02*
X0081765D01*
X0079766D01*
Y0083375D01*
X0083764Y0089373D02*
Y0083375D01*
X0085764Y0085374D01*
X0087763Y0083375D01*
Y0089373D01*
X0092761D02*
X0090762D01*
X0089762Y0088373D01*
Y0084374D01*
X0090762Y0083375D01*
X0092761D01*
X0093761Y0084374D01*
Y0088373D01*
X0092761Y0089373D01*
X0095760Y0083375D02*
Y0089373D01*
X0098759D01*
X0099759Y0088373D01*
Y0086374D01*
X0098759Y0085374D01*
X0095760D01*
X0097760D02*
X0099759Y0083375D01*
X0101759Y0089373D02*
Y0083375D01*
Y0085374D01*
X0105757Y0089373D01*
X0102758Y0086374D01*
X0105757Y0083375D01*
X0113755Y0089373D02*
Y0085374D01*
X0115754Y0083375D01*
X0117753Y0085374D01*
Y0089373D01*
X0119753D02*
X0121752D01*
X0120752D01*
Y0083375D01*
X0119753D01*
X0121752D01*
X0128750Y0089373D02*
X0124751D01*
Y0083375D01*
X0128750D01*
X0124751Y0086374D02*
X0126750D01*
X0130749Y0089373D02*
Y0083375D01*
X0132748Y0085374D01*
X0134748Y0083375D01*
Y0089373D01*
X0140746D02*
X0136747D01*
Y0083375D01*
X0140746D01*
X0136747Y0086374D02*
X0138747D01*
X0142745Y0089373D02*
Y0083375D01*
X0145744D01*
X0146744Y0084374D01*
Y0088373D01*
X0145744Y0089373D01*
X0142745D01*
X0158740D02*
X0154741D01*
Y0086374D01*
X0156741D01*
X0154741D01*
Y0083375D01*
X0160739D02*
Y0089373D01*
X0163738D01*
X0164738Y0088373D01*
Y0086374D01*
X0163738Y0085374D01*
X0160739D01*
X0162739D02*
X0164738Y0083375D01*
X0169737Y0089373D02*
X0167737D01*
X0166737Y0088373D01*
Y0084374D01*
X0167737Y0083375D01*
X0169737D01*
X0170736Y0084374D01*
Y0088373D01*
X0169737Y0089373D01*
X0172736Y0083375D02*
Y0089373D01*
X0174735Y0087374D01*
X0176734Y0089373D01*
Y0083375D01*
X0184732Y0089373D02*
X0188730D01*
X0186731D01*
Y0083375D01*
X0193729Y0089373D02*
X0191729D01*
X0190730Y0088373D01*
Y0084374D01*
X0191729Y0083375D01*
X0193729D01*
X0194728Y0084374D01*
Y0088373D01*
X0193729Y0089373D01*
X0196728Y0083375D02*
Y0089373D01*
X0199727D01*
X0200727Y0088373D01*
Y0086374D01*
X0199727Y0085374D01*
X0196728D01*
X0212723Y0088373D02*
X0211723Y0089373D01*
X0209723D01*
X0208724Y0088373D01*
Y0087374D01*
X0209723Y0086374D01*
X0211723D01*
X0212723Y0085374D01*
Y0084374D01*
X0211723Y0083375D01*
X0209723D01*
X0208724Y0084374D01*
X0214722Y0089373D02*
X0216721D01*
X0215722D01*
Y0083375D01*
X0214722D01*
X0216721D01*
X0219720Y0089373D02*
Y0083375D01*
X0222719D01*
X0223719Y0084374D01*
Y0088373D01*
X0222719Y0089373D01*
X0219720D01*
X0229717D02*
X0225718D01*
Y0083375D01*
X0229717D01*
X0225718Y0086374D02*
X0227718D01*
X0462150Y0092832D02*
X0463150Y0093831D01*
X0465149D01*
X0466149Y0092832D01*
Y0088833D01*
X0465149Y0087833D01*
X0463150D01*
X0462150Y0088833D01*
Y0092832D01*
X0348550Y0093831D02*
X0352549D01*
Y0092832D01*
X0348550Y0088833D01*
Y0087833D01*
X0354548D02*
X0356547D01*
X0355548D01*
Y0093831D01*
X0354548Y0092832D01*
X0359546D02*
X0360546Y0093831D01*
X0362545D01*
X0363545Y0092832D01*
Y0088833D01*
X0362545Y0087833D01*
X0360546D01*
X0359546Y0088833D01*
Y0092832D01*
X0365545D02*
X0366544Y0093831D01*
X0368544D01*
X0369543Y0092832D01*
Y0088833D01*
X0368544Y0087833D01*
X0366544D01*
X0365545Y0088833D01*
Y0092832D01*
X0371543Y0090832D02*
X0375541D01*
X0377541Y0092832D02*
X0378540Y0093831D01*
X0380540D01*
X0381539Y0092832D01*
Y0088833D01*
X0380540Y0087833D01*
X0378540D01*
X0377541Y0088833D01*
Y0092832D01*
X0383539D02*
X0384538Y0093831D01*
X0386538D01*
X0387537Y0092832D01*
Y0088833D01*
X0386538Y0087833D01*
X0384538D01*
X0383539Y0088833D01*
Y0092832D01*
X0389537D02*
X0390536Y0093831D01*
X0392536D01*
X0393535Y0092832D01*
Y0088833D01*
X0392536Y0087833D01*
X0390536D01*
X0389537Y0088833D01*
Y0092832D01*
X0395535D02*
X0396534Y0093831D01*
X0398534D01*
X0399534Y0092832D01*
Y0088833D01*
X0398534Y0087833D01*
X0396534D01*
X0395535Y0088833D01*
Y0092832D01*
X0401533D02*
X0402532Y0093831D01*
X0404532D01*
X0405532Y0092832D01*
Y0091832D01*
X0404532Y0090832D01*
X0403532D01*
X0404532D01*
X0405532Y0089833D01*
Y0088833D01*
X0404532Y0087833D01*
X0402532D01*
X0401533Y0088833D01*
X0294000Y0093831D02*
Y0087833D01*
X0296999D01*
X0297999Y0088833D01*
Y0089833D01*
X0296999Y0090832D01*
X0294000D01*
X0296999D01*
X0297999Y0091832D01*
Y0092832D01*
X0296999Y0093831D01*
X0294000D01*
X0302997D02*
X0300998D01*
X0299998Y0092832D01*
Y0088833D01*
X0300998Y0087833D01*
X0302997D01*
X0303997Y0088833D01*
Y0092832D01*
X0302997Y0093831D01*
X0305996Y0087833D02*
Y0091832D01*
X0307996Y0093831D01*
X0309995Y0091832D01*
Y0087833D01*
Y0090832D01*
X0305996D01*
X0311994Y0087833D02*
Y0093831D01*
X0314993D01*
X0315993Y0092832D01*
Y0090832D01*
X0314993Y0089833D01*
X0311994D01*
X0313994D02*
X0315993Y0087833D01*
X0317992Y0093831D02*
Y0087833D01*
X0320991D01*
X0321991Y0088833D01*
Y0092832D01*
X0320991Y0093831D01*
X0317992D01*
X0330988Y0087833D02*
Y0093831D01*
X0332987D02*
Y0087833D01*
X0329988Y0091832D02*
X0332987D01*
X0333987D01*
X0329988Y0089833D02*
X0333987D01*
X0335986Y0091832D02*
X0336986D01*
Y0090832D01*
X0335986D01*
Y0091832D01*
Y0088833D02*
X0336986D01*
Y0087833D01*
X0335986D01*
Y0088833D01*
X0046350Y0073549D02*
Y0067551D01*
X0050349D01*
X0052348D02*
Y0071549D01*
X0054347Y0073549D01*
X0056347Y0071549D01*
Y0067551D01*
Y0070550D01*
X0052348D01*
X0058346Y0073549D02*
Y0072549D01*
X0060346Y0070550D01*
X0062345Y0072549D01*
Y0073549D01*
X0060346Y0070550D02*
Y0067551D01*
X0068343Y0073549D02*
X0064344D01*
Y0067551D01*
X0068343D01*
X0064344Y0070550D02*
X0066343D01*
X0070342Y0067551D02*
Y0073549D01*
X0073341D01*
X0074341Y0072549D01*
Y0070550D01*
X0073341Y0069550D01*
X0070342D01*
X0072342D02*
X0074341Y0067551D01*
X0082338D02*
Y0073549D01*
X0086337Y0067551D01*
Y0073549D01*
X0088336Y0067551D02*
Y0071549D01*
X0090336Y0073549D01*
X0092335Y0071549D01*
Y0067551D01*
Y0070550D01*
X0088336D01*
X0094335Y0067551D02*
Y0073549D01*
X0096334Y0071549D01*
X0098333Y0073549D01*
Y0067551D01*
X0104331Y0073549D02*
X0100332D01*
Y0067551D01*
X0104331D01*
X0100332Y0070550D02*
X0102332D01*
X0112329Y0069550D02*
X0116327D01*
X0112329Y0071549D02*
X0116327D01*
X0046350Y0046966D02*
Y0052965D01*
X0049349D01*
X0050349Y0051965D01*
Y0049966D01*
X0049349Y0048966D01*
X0046350D01*
X0052348Y0052965D02*
Y0046966D01*
X0056347D01*
X0061345Y0052965D02*
X0059346D01*
X0058346Y0051965D01*
Y0047966D01*
X0059346Y0046966D01*
X0061345D01*
X0062345Y0047966D01*
Y0051965D01*
X0061345Y0052965D01*
X0064344D02*
X0068343D01*
X0066343D01*
Y0046966D01*
X0076340D02*
Y0052965D01*
X0080339Y0046966D01*
Y0052965D01*
X0082338Y0046966D02*
Y0050965D01*
X0084338Y0052965D01*
X0086337Y0050965D01*
Y0046966D01*
Y0049966D01*
X0082338D01*
X0088336Y0046966D02*
Y0052965D01*
X0090336Y0050965D01*
X0092335Y0052965D01*
Y0046966D01*
X0098333Y0052965D02*
X0094335D01*
Y0046966D01*
X0098333D01*
X0094335Y0049966D02*
X0096334D01*
X0106331Y0048966D02*
X0110329D01*
X0106331Y0050965D02*
X0110329D01*
X0454050Y0046966D02*
X0456049D01*
X0455050D01*
Y0052965D01*
X0454050Y0051965D01*
X0463047Y0046966D02*
X0459048D01*
X0463047Y0050965D01*
Y0051965D01*
X0462047Y0052965D01*
X0460048D01*
X0459048Y0051965D01*
X0465046Y0050965D02*
X0466046D01*
Y0049966D01*
X0465046D01*
Y0050965D01*
Y0047966D02*
X0466046D01*
Y0046966D01*
X0465046D01*
Y0047966D01*
X0470045Y0051965D02*
X0471044Y0052965D01*
X0473044D01*
X0474044Y0051965D01*
Y0050965D01*
X0473044Y0049966D01*
X0472044D01*
X0473044D01*
X0474044Y0048966D01*
Y0047966D01*
X0473044Y0046966D01*
X0471044D01*
X0470045Y0047966D01*
X0476043Y0046966D02*
X0478042D01*
X0477043D01*
Y0052965D01*
X0476043Y0051965D01*
X0481041Y0050965D02*
X0482041D01*
Y0049966D01*
X0481041D01*
Y0050965D01*
Y0047966D02*
X0482041D01*
Y0046966D01*
X0481041D01*
Y0047966D01*
X0486040Y0051965D02*
X0487039Y0052965D01*
X0489039D01*
X0490038Y0051965D01*
Y0050965D01*
X0489039Y0049966D01*
X0488039D01*
X0489039D01*
X0490038Y0048966D01*
Y0047966D01*
X0489039Y0046966D01*
X0487039D01*
X0486040Y0047966D01*
X0492038Y0051965D02*
X0493037Y0052965D01*
X0495037D01*
X0496036Y0051965D01*
Y0050965D01*
X0495037Y0049966D01*
X0496036Y0048966D01*
Y0047966D01*
X0495037Y0046966D01*
X0493037D01*
X0492038Y0047966D01*
Y0048966D01*
X0493037Y0049966D01*
X0492038Y0050965D01*
Y0051965D01*
X0493037Y0049966D02*
X0495037D01*
X0504034Y0046966D02*
Y0052965D01*
X0507033D01*
X0508033Y0051965D01*
Y0049966D01*
X0507033Y0048966D01*
X0504034D01*
X0510032Y0046966D02*
Y0052965D01*
X0512031Y0050965D01*
X0514031Y0052965D01*
Y0046966D01*
X0604409Y0053922D02*
X0602409D01*
X0601409Y0052922D01*
Y0048923D01*
X0602409Y0047924D01*
X0604409D01*
X0605408Y0048923D01*
Y0052922D01*
X0604409Y0053922D01*
X0607408Y0045924D02*
Y0051922D01*
X0610407D01*
X0611406Y0050923D01*
Y0048923D01*
X0610407Y0047924D01*
X0607408D01*
X0616405D02*
X0614405D01*
X0613406Y0048923D01*
Y0050923D01*
X0614405Y0051922D01*
X0616405D01*
X0617404Y0050923D01*
Y0049923D01*
X0613406D01*
X0619404Y0047924D02*
Y0051922D01*
X0622403D01*
X0623402Y0050923D01*
Y0047924D01*
X0625402Y0053922D02*
Y0047924D01*
X0627401Y0049923D01*
X0629400Y0047924D01*
Y0053922D01*
X0632400Y0051922D02*
X0634399D01*
X0635398Y0050923D01*
Y0047924D01*
X0632400D01*
X0631400Y0048923D01*
X0632400Y0049923D01*
X0635398D01*
X0638398Y0052922D02*
Y0051922D01*
X0637398D01*
X0639397D01*
X0638398D01*
Y0048923D01*
X0639397Y0047924D01*
X0645395D02*
X0643396D01*
X0642396Y0048923D01*
Y0050923D01*
X0643396Y0051922D01*
X0645395D01*
X0646395Y0050923D01*
Y0049923D01*
X0642396D01*
X0648394Y0051922D02*
Y0047924D01*
Y0049923D01*
X0649394Y0050923D01*
X0650394Y0051922D01*
X0651393D01*
X0294000Y0073498D02*
X0297999D01*
X0295999D01*
Y0067500D01*
X0299998Y0073498D02*
X0301997D01*
X0300998D01*
Y0067500D01*
X0299998D01*
X0301997D01*
X0304996Y0073498D02*
Y0067500D01*
X0307996D01*
X0308995Y0068500D01*
Y0072498D01*
X0307996Y0073498D01*
X0304996D01*
X0317992Y0067500D02*
Y0073498D01*
X0319992D02*
Y0067500D01*
X0316993Y0071499D02*
X0319992D01*
X0320991D01*
X0316993Y0069499D02*
X0320991D01*
X0322991Y0071499D02*
X0323990D01*
Y0070499D01*
X0322991D01*
Y0071499D01*
Y0068500D02*
X0323990D01*
Y0067500D01*
X0322991D01*
Y0068500D01*
X0348550Y0067500D02*
Y0073498D01*
X0352549Y0067500D01*
Y0073498D01*
X0354548Y0067500D02*
X0358547Y0071499D01*
X0360546Y0067500D02*
Y0071499D01*
X0362545Y0073498D01*
X0364545Y0071499D01*
Y0067500D01*
Y0070499D01*
X0360546D01*
M02*
