G04*
G04 #@! TF.GenerationSoftware,Altium Limited,Altium Designer,24.3.1 (35)*
G04*
G04 Layer_Color=16711935*
%FSAX25Y25*%
%MOIN*%
G70*
G04*
G04 #@! TF.SameCoordinates,9BAF8AC8-72E2-4161-A934-73288D8D8D4B*
G04*
G04*
G04 #@! TF.FilePolarity,Positive*
G04*
G01*
G75*
%ADD11C,0.01000*%
%ADD13C,0.00700*%
%ADD16C,0.00500*%
%ADD20C,0.00800*%
G54D11*
X1350050Y0041050D02*
Y0101050D01*
X1199550Y0161050D02*
X1499550D01*
X1199550Y0101050D02*
Y0161050D01*
Y0071050D02*
X1499550D01*
X1199550Y0131050D02*
X1499550D01*
X1270050Y0950050D02*
Y0970050D01*
X1020050Y0950050D02*
Y0970050D01*
X0770050Y0950050D02*
Y0970050D01*
X0520050Y0950050D02*
Y0970050D01*
X0040050Y0950050D02*
X1500050D01*
X0020050Y0970050D02*
X1520050D01*
X0270050Y0950050D02*
Y0970050D01*
X1500050Y0040050D02*
Y0950050D01*
X1520050Y0020050D02*
Y0970050D01*
X1500050Y0732550D02*
X1520050D01*
X1500050Y0495050D02*
X1520050D01*
X1500050Y0257550D02*
X1520050D01*
X1270050Y0020050D02*
Y0040050D01*
X1020050Y0020050D02*
Y0040050D01*
X0770050Y0020050D02*
Y0040050D01*
X0520050Y0020050D02*
Y0040050D01*
X1500050D02*
Y0160050D01*
X0020050Y0020050D02*
Y0970050D01*
Y0020050D02*
X1520050D01*
X0040050Y0040050D02*
Y0950050D01*
Y0040050D02*
X1500050D01*
X0020050Y0732550D02*
X0040050D01*
X0020050Y0495050D02*
X0040050D01*
X0020050Y0257550D02*
X0040050D01*
X0270050Y0020050D02*
Y0040050D01*
X1199650Y0190450D02*
X1499650D01*
X1199550Y0161050D02*
Y0190450D01*
X1199650Y0240500D02*
X1500050D01*
X1199550Y0101050D02*
X1499550D01*
X1199550Y0040050D02*
Y0101050D01*
X0701300D02*
X1199550D01*
X0701300Y0040050D02*
Y0101050D01*
X1199550Y0190450D02*
Y0240500D01*
X1199650D01*
X0497200Y0080717D02*
Y0101050D01*
X0413200Y0080717D02*
Y0101050D01*
X0040000Y0080717D02*
X0700200D01*
X0040000Y0060383D02*
X0700000D01*
X0040000Y0040050D02*
X0440500D01*
X0040050Y0101050D02*
X0700200D01*
X0040050Y0040050D02*
Y0101050D01*
Y0040050D02*
X0197600D01*
X0040000D02*
Y0101050D01*
X0286500Y0040050D02*
Y0101050D01*
X0700200Y0040050D02*
Y0101050D01*
X0440500Y0040050D02*
X0700200D01*
X0559400Y0039400D02*
Y0059683D01*
G54D13*
X1363765Y0047717D02*
X1359100D01*
X1363765Y0052382D01*
Y0053549D01*
X1362599Y0054715D01*
X1360266D01*
X1359100Y0053549D01*
X1369597Y0047717D02*
Y0054715D01*
X1366098Y0051216D01*
X1370763D01*
X1373096Y0047717D02*
Y0048884D01*
X1374262D01*
Y0047717D01*
X1373096D01*
X1378927Y0053549D02*
X1380093Y0054715D01*
X1382426D01*
X1383592Y0053549D01*
Y0052382D01*
X1382426Y0051216D01*
X1381260D01*
X1382426D01*
X1383592Y0050050D01*
Y0048884D01*
X1382426Y0047717D01*
X1380093D01*
X1378927Y0048884D01*
X1385925Y0047717D02*
Y0048884D01*
X1387091D01*
Y0047717D01*
X1385925D01*
X1391756D02*
X1394089D01*
X1392922D01*
Y0054715D01*
X1391756Y0053549D01*
X1397588Y0047717D02*
Y0048884D01*
X1398754D01*
Y0047717D01*
X1397588D01*
X1403419Y0053549D02*
X1404585Y0054715D01*
X1406918D01*
X1408084Y0053549D01*
Y0052382D01*
X1406918Y0051216D01*
X1405752D01*
X1406918D01*
X1408084Y0050050D01*
Y0048884D01*
X1406918Y0047717D01*
X1404585D01*
X1403419Y0048884D01*
X1415082Y0054715D02*
X1410417D01*
Y0051216D01*
X1412749Y0052382D01*
X1413916D01*
X1415082Y0051216D01*
Y0048884D01*
X1413916Y0047717D01*
X1411583D01*
X1410417Y0048884D01*
X1208550Y0137050D02*
Y0144048D01*
X1212049D01*
X1213215Y0142881D01*
Y0140549D01*
X1212049Y0139383D01*
X1208550D01*
X1215548Y0141715D02*
Y0138216D01*
X1216714Y0137050D01*
X1220213D01*
Y0141715D01*
X1222546Y0144048D02*
Y0137050D01*
X1226044D01*
X1227211Y0138216D01*
Y0139383D01*
Y0140549D01*
X1226044Y0141715D01*
X1222546D01*
X1229543Y0137050D02*
X1231876D01*
X1230709D01*
Y0144048D01*
X1229543D01*
X1235375Y0137050D02*
X1237707D01*
X1236541D01*
Y0141715D01*
X1235375D01*
X1245871D02*
X1242372D01*
X1241206Y0140549D01*
Y0138216D01*
X1242372Y0137050D01*
X1245871D01*
X1255202D02*
Y0144048D01*
X1258700D01*
X1259867Y0142881D01*
Y0140549D01*
X1258700Y0139383D01*
X1255202D01*
X1257534D02*
X1259867Y0137050D01*
X1265698D02*
X1263366D01*
X1262199Y0138216D01*
Y0140549D01*
X1263366Y0141715D01*
X1265698D01*
X1266864Y0140549D01*
Y0139383D01*
X1262199D01*
X1269197Y0137050D02*
X1271530D01*
X1270363D01*
Y0144048D01*
X1269197D01*
X1278527Y0137050D02*
X1276195D01*
X1275029Y0138216D01*
Y0140549D01*
X1276195Y0141715D01*
X1278527D01*
X1279694Y0140549D01*
Y0139383D01*
X1275029D01*
X1283193Y0141715D02*
X1285525D01*
X1286691Y0140549D01*
Y0137050D01*
X1283193D01*
X1282026Y0138216D01*
X1283193Y0139383D01*
X1286691D01*
X1289024Y0137050D02*
X1292523D01*
X1293689Y0138216D01*
X1292523Y0139383D01*
X1290190D01*
X1289024Y0140549D01*
X1290190Y0141715D01*
X1293689D01*
X1299521Y0137050D02*
X1297188D01*
X1296022Y0138216D01*
Y0140549D01*
X1297188Y0141715D01*
X1299521D01*
X1300687Y0140549D01*
Y0139383D01*
X1296022D01*
X1208550Y0083548D02*
Y0076551D01*
Y0080050D01*
X1213215D01*
Y0083548D01*
Y0076551D01*
X1219047D02*
X1216714D01*
X1215548Y0077717D01*
Y0080050D01*
X1216714Y0081216D01*
X1219047D01*
X1220213Y0080050D01*
Y0078883D01*
X1215548D01*
X1222546Y0076551D02*
Y0081216D01*
X1226044D01*
X1227211Y0080050D01*
Y0076551D01*
X1229543Y0081216D02*
Y0076551D01*
Y0078883D01*
X1230709Y0080050D01*
X1231876Y0081216D01*
X1233042D01*
X1236541D02*
Y0077717D01*
X1237707Y0076551D01*
X1241206D01*
Y0075384D01*
X1240040Y0074218D01*
X1238873D01*
X1241206Y0076551D02*
Y0081216D01*
X1208550Y0116048D02*
X1213215D01*
Y0114881D01*
X1208550Y0110216D01*
Y0109050D01*
X1215548D02*
X1217880D01*
X1216714D01*
Y0116048D01*
X1215548Y0114881D01*
X1221379D02*
X1222546Y0116048D01*
X1224878D01*
X1226044Y0114881D01*
Y0110216D01*
X1224878Y0109050D01*
X1222546D01*
X1221379Y0110216D01*
Y0114881D01*
X1228377D02*
X1229543Y0116048D01*
X1231876D01*
X1233042Y0114881D01*
Y0110216D01*
X1231876Y0109050D01*
X1229543D01*
X1228377Y0110216D01*
Y0114881D01*
X1235375Y0112549D02*
X1240040D01*
X1242372Y0114881D02*
X1243539Y0116048D01*
X1245871D01*
X1247038Y0114881D01*
Y0110216D01*
X1245871Y0109050D01*
X1243539D01*
X1242372Y0110216D01*
Y0114881D01*
X1249370D02*
X1250536Y0116048D01*
X1252869D01*
X1254035Y0114881D01*
Y0110216D01*
X1252869Y0109050D01*
X1250536D01*
X1249370Y0110216D01*
Y0114881D01*
X1256368D02*
X1257534Y0116048D01*
X1259867D01*
X1261033Y0114881D01*
Y0110216D01*
X1259867Y0109050D01*
X1257534D01*
X1256368Y0110216D01*
Y0114881D01*
X1263366D02*
X1264532Y0116048D01*
X1266864D01*
X1268031Y0114881D01*
Y0110216D01*
X1266864Y0109050D01*
X1264532D01*
X1263366Y0110216D01*
Y0114881D01*
X1270363D02*
X1271530Y0116048D01*
X1273862D01*
X1275029Y0114881D01*
Y0113715D01*
X1273862Y0112549D01*
X1272696D01*
X1273862D01*
X1275029Y0111383D01*
Y0110216D01*
X1273862Y0109050D01*
X1271530D01*
X1270363Y0110216D01*
X1284359Y0116048D02*
Y0111383D01*
X1286691Y0109050D01*
X1289024Y0111383D01*
Y0116048D01*
X1291357Y0109050D02*
Y0110216D01*
X1292523D01*
Y0109050D01*
X1291357D01*
X1297188Y0114881D02*
X1298354Y0116048D01*
X1300687D01*
X1301853Y0114881D01*
Y0110216D01*
X1300687Y0109050D01*
X1298354D01*
X1297188Y0110216D01*
Y0114881D01*
X1304186Y0109050D02*
Y0110216D01*
X1305352D01*
Y0109050D01*
X1304186D01*
X1313516D02*
Y0116048D01*
X1310017Y0112549D01*
X1314682D01*
X1317015Y0109050D02*
Y0110216D01*
X1318181D01*
Y0109050D01*
X1317015D01*
X1322846D02*
X1325179D01*
X1324013D01*
Y0116048D01*
X1322846Y0114881D01*
X1328678Y0109050D02*
Y0110216D01*
X1329844D01*
Y0109050D01*
X1328678D01*
X1334509D02*
Y0116048D01*
X1338008D01*
X1339174Y0114881D01*
Y0112549D01*
X1338008Y0111383D01*
X1334509D01*
X1346172Y0113715D02*
X1342673D01*
X1341507Y0112549D01*
Y0110216D01*
X1342673Y0109050D01*
X1346172D01*
X1348505Y0116048D02*
Y0109050D01*
X1352004D01*
X1353170Y0110216D01*
Y0111383D01*
Y0112549D01*
X1352004Y0113715D01*
X1348505D01*
X1355503Y0116048D02*
Y0109050D01*
X1359001D01*
X1360168Y0110216D01*
Y0114881D01*
X1359001Y0116048D01*
X1355503D01*
X1363667Y0109050D02*
X1365999D01*
X1367165Y0110216D01*
Y0112549D01*
X1365999Y0113715D01*
X1363667D01*
X1362500Y0112549D01*
Y0110216D01*
X1363667Y0109050D01*
X1374163Y0113715D02*
X1370664D01*
X1369498Y0112549D01*
Y0110216D01*
X1370664Y0109050D01*
X1374163D01*
X1208550Y0167817D02*
Y0168984D01*
X1209716D01*
Y0167817D01*
X1208550D01*
X1214382D02*
Y0174815D01*
X1217880D01*
X1219047Y0173649D01*
Y0171316D01*
X1217880Y0170150D01*
X1214382D01*
X1221379Y0167817D02*
Y0174815D01*
X1224878D01*
X1226044Y0173649D01*
Y0171316D01*
X1224878Y0170150D01*
X1221379D01*
X1223712D02*
X1226044Y0167817D01*
X1233042Y0174815D02*
X1230709D01*
X1231876D01*
Y0168984D01*
X1230709Y0167817D01*
X1229543D01*
X1228377Y0168984D01*
X1235375Y0166651D02*
X1240040D01*
X1242372Y0174815D02*
X1247038D01*
X1244705D01*
Y0167817D01*
X1249370D02*
X1251703D01*
X1250536D01*
Y0172483D01*
X1249370D01*
X1256368Y0173649D02*
Y0172483D01*
X1255202D01*
X1257534D01*
X1256368D01*
Y0168984D01*
X1257534Y0167817D01*
X1261033D02*
X1263366D01*
X1262199D01*
Y0174815D01*
X1261033D01*
X1270363Y0167817D02*
X1268031D01*
X1266864Y0168984D01*
Y0171316D01*
X1268031Y0172483D01*
X1270363D01*
X1271530Y0171316D01*
Y0170150D01*
X1266864D01*
X1359100Y0083548D02*
Y0076551D01*
Y0080050D01*
X1363765D01*
Y0083548D01*
Y0076551D01*
X1369597D02*
X1367264D01*
X1366098Y0077717D01*
Y0080050D01*
X1367264Y0081216D01*
X1369597D01*
X1370763Y0080050D01*
Y0078883D01*
X1366098D01*
X1373096Y0076551D02*
Y0081216D01*
X1376594D01*
X1377761Y0080050D01*
Y0076551D01*
X1380093Y0081216D02*
Y0076551D01*
Y0078883D01*
X1381260Y0080050D01*
X1382426Y0081216D01*
X1383592D01*
X1387091D02*
Y0077717D01*
X1388257Y0076551D01*
X1391756D01*
Y0075384D01*
X1390590Y0074218D01*
X1389423D01*
X1391756Y0076551D02*
Y0081216D01*
X1401086Y0083548D02*
X1405752D01*
X1403419D01*
Y0076551D01*
X1409251Y0081216D02*
X1411583D01*
X1412749Y0080050D01*
Y0076551D01*
X1409251D01*
X1408084Y0077717D01*
X1409251Y0078883D01*
X1412749D01*
X1415082Y0076551D02*
Y0081216D01*
X1418581D01*
X1419747Y0080050D01*
Y0076551D01*
X1424412Y0074218D02*
X1425578D01*
X1426745Y0075384D01*
Y0081216D01*
X1423246D01*
X1422080Y0080050D01*
Y0077717D01*
X1423246Y0076551D01*
X1426745D01*
X0708849Y0097365D02*
X0707350D01*
X0706600Y0096615D01*
Y0093616D01*
X0707350Y0092866D01*
X0708849D01*
X0709599Y0093616D01*
Y0096615D01*
X0708849Y0097365D01*
X0711098Y0091367D02*
Y0095865D01*
X0713348D01*
X0714098Y0095115D01*
Y0093616D01*
X0713348Y0092866D01*
X0711098D01*
X0717846D02*
X0716347D01*
X0715597Y0093616D01*
Y0095115D01*
X0716347Y0095865D01*
X0717846D01*
X0718596Y0095115D01*
Y0094366D01*
X0715597D01*
X0720096Y0092866D02*
Y0095865D01*
X0722345D01*
X0723095Y0095115D01*
Y0092866D01*
X0724594Y0095865D02*
Y0093616D01*
X0725344Y0092866D01*
X0726094Y0093616D01*
X0726844Y0092866D01*
X0727593Y0093616D01*
Y0095865D01*
X0729843D02*
X0731342D01*
X0732092Y0095115D01*
Y0092866D01*
X0729843D01*
X0729093Y0093616D01*
X0729843Y0094366D01*
X0732092D01*
X0734341Y0096615D02*
Y0095865D01*
X0733591D01*
X0735091D01*
X0734341D01*
Y0093616D01*
X0735091Y0092866D01*
X0739589D02*
X0738090D01*
X0737340Y0093616D01*
Y0095115D01*
X0738090Y0095865D01*
X0739589D01*
X0740339Y0095115D01*
Y0094366D01*
X0737340D01*
X0741839Y0095865D02*
Y0092866D01*
Y0094366D01*
X0742588Y0095115D01*
X0743338Y0095865D01*
X0744088D01*
X0751585D02*
X0753085D01*
X0753835Y0095115D01*
Y0092866D01*
X0751585D01*
X0750836Y0093616D01*
X0751585Y0094366D01*
X0753835D01*
X0755334Y0092866D02*
Y0095865D01*
X0757584D01*
X0758333Y0095115D01*
Y0092866D01*
X0762832Y0097365D02*
Y0092866D01*
X0760583D01*
X0759833Y0093616D01*
Y0095115D01*
X0760583Y0095865D01*
X0762832D01*
X0764331Y0092866D02*
X0767330Y0095865D01*
X0769580Y0092866D02*
X0771079D01*
X0771829Y0093616D01*
Y0095115D01*
X0771079Y0095865D01*
X0769580D01*
X0768830Y0095115D01*
Y0093616D01*
X0769580Y0092866D01*
X0773328Y0095865D02*
Y0092866D01*
Y0094366D01*
X0774078Y0095115D01*
X0774828Y0095865D01*
X0775578D01*
X0782326Y0092866D02*
X0783825D01*
X0783075D01*
Y0095865D01*
X0782326D01*
X0786824Y0096615D02*
Y0095865D01*
X0786074D01*
X0787574D01*
X0786824D01*
Y0093616D01*
X0787574Y0092866D01*
X0789823D02*
X0792072D01*
X0792822Y0093616D01*
X0792072Y0094366D01*
X0790573D01*
X0789823Y0095115D01*
X0790573Y0095865D01*
X0792822D01*
X0798820Y0092866D02*
X0800320D01*
X0799570D01*
Y0097365D01*
X0798820D01*
X0802569Y0092866D02*
X0804069D01*
X0803319D01*
Y0095865D01*
X0802569D01*
X0809317D02*
X0807068D01*
X0806318Y0095115D01*
Y0093616D01*
X0807068Y0092866D01*
X0809317D01*
X0813066D02*
X0811566D01*
X0810816Y0093616D01*
Y0095115D01*
X0811566Y0095865D01*
X0813066D01*
X0813815Y0095115D01*
Y0094366D01*
X0810816D01*
X0815315Y0092866D02*
Y0095865D01*
X0817564D01*
X0818314Y0095115D01*
Y0092866D01*
X0819814D02*
X0822063D01*
X0822812Y0093616D01*
X0822063Y0094366D01*
X0820563D01*
X0819814Y0095115D01*
X0820563Y0095865D01*
X0822812D01*
X0825062Y0092866D02*
X0826561D01*
X0827311Y0093616D01*
Y0095115D01*
X0826561Y0095865D01*
X0825062D01*
X0824312Y0095115D01*
Y0093616D01*
X0825062Y0092866D01*
X0828811Y0095865D02*
Y0092866D01*
Y0094366D01*
X0829560Y0095115D01*
X0830310Y0095865D01*
X0831060D01*
X0833309Y0092866D02*
X0835558D01*
X0836308Y0093616D01*
X0835558Y0094366D01*
X0834059D01*
X0833309Y0095115D01*
X0834059Y0095865D01*
X0836308D01*
X0845305Y0097365D02*
Y0092866D01*
X0843056D01*
X0842306Y0093616D01*
Y0095115D01*
X0843056Y0095865D01*
X0845305D01*
X0847555Y0092866D02*
X0849054D01*
X0849804Y0093616D01*
Y0095115D01*
X0849054Y0095865D01*
X0847555D01*
X0846805Y0095115D01*
Y0093616D01*
X0847555Y0092866D01*
X0855802D02*
Y0095865D01*
X0858051D01*
X0858801Y0095115D01*
Y0092866D01*
X0861050D02*
X0862550D01*
X0863299Y0093616D01*
Y0095115D01*
X0862550Y0095865D01*
X0861050D01*
X0860300Y0095115D01*
Y0093616D01*
X0861050Y0092866D01*
X0865549Y0096615D02*
Y0095865D01*
X0864799D01*
X0866298D01*
X0865549D01*
Y0093616D01*
X0866298Y0092866D01*
X0873046Y0095865D02*
Y0093616D01*
X0873796Y0092866D01*
X0874546Y0093616D01*
X0875296Y0092866D01*
X0876045Y0093616D01*
Y0095865D01*
X0878295D02*
X0879794D01*
X0880544Y0095115D01*
Y0092866D01*
X0878295D01*
X0877545Y0093616D01*
X0878295Y0094366D01*
X0880544D01*
X0882043Y0095865D02*
Y0092866D01*
Y0094366D01*
X0882793Y0095115D01*
X0883543Y0095865D01*
X0884293D01*
X0886542D02*
Y0092866D01*
Y0094366D01*
X0887292Y0095115D01*
X0888041Y0095865D01*
X0888791D01*
X0891790D02*
X0893290D01*
X0894040Y0095115D01*
Y0092866D01*
X0891790D01*
X0891041Y0093616D01*
X0891790Y0094366D01*
X0894040D01*
X0895539Y0092866D02*
Y0095865D01*
X0897788D01*
X0898538Y0095115D01*
Y0092866D01*
X0900787Y0096615D02*
Y0095865D01*
X0900038D01*
X0901537D01*
X0900787D01*
Y0093616D01*
X0901537Y0092866D01*
X0909035Y0096615D02*
Y0095865D01*
X0908285D01*
X0909785D01*
X0909035D01*
Y0093616D01*
X0909785Y0092866D01*
X0912034Y0097365D02*
Y0092866D01*
Y0095115D01*
X0912784Y0095865D01*
X0914283D01*
X0915033Y0095115D01*
Y0092866D01*
X0918782D02*
X0917282D01*
X0916532Y0093616D01*
Y0095115D01*
X0917282Y0095865D01*
X0918782D01*
X0919531Y0095115D01*
Y0094366D01*
X0916532D01*
X0926279Y0095865D02*
X0927779D01*
X0928528Y0095115D01*
Y0092866D01*
X0926279D01*
X0925529Y0093616D01*
X0926279Y0094366D01*
X0928528D01*
X0933027Y0095865D02*
X0930778D01*
X0930028Y0095115D01*
Y0093616D01*
X0930778Y0092866D01*
X0933027D01*
X0937525Y0095865D02*
X0935276D01*
X0934527Y0095115D01*
Y0093616D01*
X0935276Y0092866D01*
X0937525D01*
X0939025Y0095865D02*
Y0093616D01*
X0939775Y0092866D01*
X0942024D01*
Y0095865D01*
X0943524D02*
Y0092866D01*
Y0094366D01*
X0944273Y0095115D01*
X0945023Y0095865D01*
X0945773D01*
X0948772D02*
X0950271D01*
X0951021Y0095115D01*
Y0092866D01*
X0948772D01*
X0948022Y0093616D01*
X0948772Y0094366D01*
X0951021D01*
X0955520Y0095865D02*
X0953271D01*
X0952521Y0095115D01*
Y0093616D01*
X0953271Y0092866D01*
X0955520D01*
X0957019Y0095865D02*
Y0093616D01*
X0957769Y0092866D01*
X0960018D01*
Y0092116D01*
X0959268Y0091367D01*
X0958519D01*
X0960018Y0092866D02*
Y0095865D01*
X0966766Y0092866D02*
X0968266D01*
X0969015Y0093616D01*
Y0095115D01*
X0968266Y0095865D01*
X0966766D01*
X0966016Y0095115D01*
Y0093616D01*
X0966766Y0092866D01*
X0970515Y0095865D02*
Y0092866D01*
Y0094366D01*
X0971265Y0095115D01*
X0972014Y0095865D01*
X0972764D01*
X0982511D02*
X0980262D01*
X0979512Y0095115D01*
Y0093616D01*
X0980262Y0092866D01*
X0982511D01*
X0984760D02*
X0986260D01*
X0987010Y0093616D01*
Y0095115D01*
X0986260Y0095865D01*
X0984760D01*
X0984011Y0095115D01*
Y0093616D01*
X0984760Y0092866D01*
X0988509D02*
Y0095865D01*
X0989259D01*
X0990009Y0095115D01*
Y0092866D01*
Y0095115D01*
X0990758Y0095865D01*
X0991508Y0095115D01*
Y0092866D01*
X0993008Y0091367D02*
Y0095865D01*
X0995257D01*
X0996007Y0095115D01*
Y0093616D01*
X0995257Y0092866D01*
X0993008D01*
X0997506D02*
X0999006D01*
X0998256D01*
Y0097365D01*
X0997506D01*
X1003504Y0092866D02*
X1002005D01*
X1001255Y0093616D01*
Y0095115D01*
X1002005Y0095865D01*
X1003504D01*
X1004254Y0095115D01*
Y0094366D01*
X1001255D01*
X1006503Y0096615D02*
Y0095865D01*
X1005754D01*
X1007253D01*
X1006503D01*
Y0093616D01*
X1007253Y0092866D01*
X1011752D02*
X1010252D01*
X1009502Y0093616D01*
Y0095115D01*
X1010252Y0095865D01*
X1011752D01*
X1012501Y0095115D01*
Y0094366D01*
X1009502D01*
X1014001Y0092866D02*
Y0095865D01*
X1016250D01*
X1017000Y0095115D01*
Y0092866D01*
X1020749D02*
X1019249D01*
X1018499Y0093616D01*
Y0095115D01*
X1019249Y0095865D01*
X1020749D01*
X1021498Y0095115D01*
Y0094366D01*
X1018499D01*
X1022998Y0092866D02*
X1025247D01*
X1025997Y0093616D01*
X1025247Y0094366D01*
X1023748D01*
X1022998Y0095115D01*
X1023748Y0095865D01*
X1025997D01*
X1027497Y0092866D02*
X1029746D01*
X1030496Y0093616D01*
X1029746Y0094366D01*
X1028246D01*
X1027497Y0095115D01*
X1028246Y0095865D01*
X1030496D01*
X1037243Y0092866D02*
X1038743D01*
X1039493Y0093616D01*
Y0095115D01*
X1038743Y0095865D01*
X1037243D01*
X1036494Y0095115D01*
Y0093616D01*
X1037243Y0092866D01*
X1041742D02*
Y0096615D01*
Y0095115D01*
X1040992D01*
X1042492D01*
X1041742D01*
Y0096615D01*
X1042492Y0097365D01*
X1049989Y0096615D02*
Y0095865D01*
X1049240D01*
X1050739D01*
X1049989D01*
Y0093616D01*
X1050739Y0092866D01*
X1052988Y0097365D02*
Y0092866D01*
Y0095115D01*
X1053738Y0095865D01*
X1055238D01*
X1055987Y0095115D01*
Y0092866D01*
X1057487D02*
X1058986D01*
X1058237D01*
Y0095865D01*
X1057487D01*
X1061236Y0092866D02*
X1063485D01*
X1064235Y0093616D01*
X1063485Y0094366D01*
X1061985D01*
X1061236Y0095115D01*
X1061985Y0095865D01*
X1064235D01*
X1070233Y0092866D02*
X1072482D01*
X1073232Y0093616D01*
X1072482Y0094366D01*
X1070982D01*
X1070233Y0095115D01*
X1070982Y0095865D01*
X1073232D01*
X1074731Y0091367D02*
Y0095865D01*
X1076981D01*
X1077730Y0095115D01*
Y0093616D01*
X1076981Y0092866D01*
X1074731D01*
X1081479D02*
X1079980D01*
X1079230Y0093616D01*
Y0095115D01*
X1079980Y0095865D01*
X1081479D01*
X1082229Y0095115D01*
Y0094366D01*
X1079230D01*
X1086727Y0095865D02*
X1084478D01*
X1083728Y0095115D01*
Y0093616D01*
X1084478Y0092866D01*
X1086727D01*
X1088227D02*
X1089727D01*
X1088977D01*
Y0095865D01*
X1088227D01*
X1092725Y0092866D02*
Y0096615D01*
Y0095115D01*
X1091976D01*
X1093475D01*
X1092725D01*
Y0096615D01*
X1093475Y0097365D01*
X1095725Y0092866D02*
X1097224D01*
X1096474D01*
Y0095865D01*
X1095725D01*
X1102472D02*
X1100223D01*
X1099473Y0095115D01*
Y0093616D01*
X1100223Y0092866D01*
X1102472D01*
X1104722Y0095865D02*
X1106221D01*
X1106971Y0095115D01*
Y0092866D01*
X1104722D01*
X1103972Y0093616D01*
X1104722Y0094366D01*
X1106971D01*
X1109220Y0096615D02*
Y0095865D01*
X1108470D01*
X1109970D01*
X1109220D01*
Y0093616D01*
X1109970Y0092866D01*
X1112219D02*
X1113719D01*
X1112969D01*
Y0095865D01*
X1112219D01*
X1116718Y0092866D02*
X1118217D01*
X1118967Y0093616D01*
Y0095115D01*
X1118217Y0095865D01*
X1116718D01*
X1115968Y0095115D01*
Y0093616D01*
X1116718Y0092866D01*
X1120467D02*
Y0095865D01*
X1122716D01*
X1123466Y0095115D01*
Y0092866D01*
X0707350Y0081600D02*
X0708849D01*
X0709599Y0082349D01*
Y0083849D01*
X0708849Y0084599D01*
X0707350D01*
X0706600Y0083849D01*
Y0082349D01*
X0707350Y0081600D01*
X0711098Y0084599D02*
Y0081600D01*
Y0083099D01*
X0711848Y0083849D01*
X0712598Y0084599D01*
X0713348D01*
X0720845D02*
X0722345D01*
X0723095Y0083849D01*
Y0081600D01*
X0720845D01*
X0720096Y0082349D01*
X0720845Y0083099D01*
X0723095D01*
X0724594Y0081600D02*
Y0084599D01*
X0726844D01*
X0727593Y0083849D01*
Y0081600D01*
X0729093Y0084599D02*
Y0082349D01*
X0729843Y0081600D01*
X0732092D01*
Y0080850D01*
X0731342Y0080100D01*
X0730592D01*
X0732092Y0081600D02*
Y0084599D01*
X0738090Y0081600D02*
X0739589D01*
X0738840D01*
Y0084599D01*
X0738090D01*
X0741839Y0081600D02*
Y0084599D01*
X0744088D01*
X0744838Y0083849D01*
Y0081600D01*
X0747087D02*
Y0085348D01*
Y0083849D01*
X0746337D01*
X0747837D01*
X0747087D01*
Y0085348D01*
X0747837Y0086098D01*
X0750836Y0081600D02*
X0752335D01*
X0753085Y0082349D01*
Y0083849D01*
X0752335Y0084599D01*
X0750836D01*
X0750086Y0083849D01*
Y0082349D01*
X0750836Y0081600D01*
X0754585Y0084599D02*
Y0081600D01*
Y0083099D01*
X0755334Y0083849D01*
X0756084Y0084599D01*
X0756834D01*
X0759083Y0081600D02*
Y0084599D01*
X0759833D01*
X0760583Y0083849D01*
Y0081600D01*
Y0083849D01*
X0761332Y0084599D01*
X0762082Y0083849D01*
Y0081600D01*
X0764331Y0084599D02*
X0765831D01*
X0766581Y0083849D01*
Y0081600D01*
X0764331D01*
X0763582Y0082349D01*
X0764331Y0083099D01*
X0766581D01*
X0768830Y0085348D02*
Y0084599D01*
X0768080D01*
X0769580D01*
X0768830D01*
Y0082349D01*
X0769580Y0081600D01*
X0771829D02*
X0773328D01*
X0772579D01*
Y0084599D01*
X0771829D01*
X0776328Y0081600D02*
X0777827D01*
X0778577Y0082349D01*
Y0083849D01*
X0777827Y0084599D01*
X0776328D01*
X0775578Y0083849D01*
Y0082349D01*
X0776328Y0081600D01*
X0780076D02*
Y0084599D01*
X0782326D01*
X0783075Y0083849D01*
Y0081600D01*
X0792072Y0084599D02*
X0789823D01*
X0789073Y0083849D01*
Y0082349D01*
X0789823Y0081600D01*
X0792072D01*
X0794322D02*
X0795821D01*
X0796571Y0082349D01*
Y0083849D01*
X0795821Y0084599D01*
X0794322D01*
X0793572Y0083849D01*
Y0082349D01*
X0794322Y0081600D01*
X0798070D02*
Y0084599D01*
X0800320D01*
X0801070Y0083849D01*
Y0081600D01*
X0803319Y0085348D02*
Y0084599D01*
X0802569D01*
X0804069D01*
X0803319D01*
Y0082349D01*
X0804069Y0081600D01*
X0807068Y0084599D02*
X0808567D01*
X0809317Y0083849D01*
Y0081600D01*
X0807068D01*
X0806318Y0082349D01*
X0807068Y0083099D01*
X0809317D01*
X0810816Y0081600D02*
X0812316D01*
X0811566D01*
Y0084599D01*
X0810816D01*
X0814565Y0081600D02*
Y0084599D01*
X0816815D01*
X0817564Y0083849D01*
Y0081600D01*
X0821313D02*
X0819814D01*
X0819064Y0082349D01*
Y0083849D01*
X0819814Y0084599D01*
X0821313D01*
X0822063Y0083849D01*
Y0083099D01*
X0819064D01*
X0826561Y0086098D02*
Y0081600D01*
X0824312D01*
X0823562Y0082349D01*
Y0083849D01*
X0824312Y0084599D01*
X0826561D01*
X0833309Y0085348D02*
Y0084599D01*
X0832559D01*
X0834059D01*
X0833309D01*
Y0082349D01*
X0834059Y0081600D01*
X0836308Y0086098D02*
Y0081600D01*
Y0083849D01*
X0837058Y0084599D01*
X0838558D01*
X0839307Y0083849D01*
Y0081600D01*
X0843056D02*
X0841556D01*
X0840807Y0082349D01*
Y0083849D01*
X0841556Y0084599D01*
X0843056D01*
X0843806Y0083849D01*
Y0083099D01*
X0840807D01*
X0845305Y0084599D02*
Y0081600D01*
Y0083099D01*
X0846055Y0083849D01*
X0846805Y0084599D01*
X0847555D01*
X0852053Y0081600D02*
X0850554D01*
X0849804Y0082349D01*
Y0083849D01*
X0850554Y0084599D01*
X0852053D01*
X0852803Y0083849D01*
Y0083099D01*
X0849804D01*
X0854302Y0081600D02*
X0855802D01*
X0855052D01*
Y0084599D01*
X0854302D01*
X0858051Y0081600D02*
Y0084599D01*
X0860300D01*
X0861050Y0083849D01*
Y0081600D01*
X0862550D02*
Y0082349D01*
X0863299D01*
Y0081600D01*
X0862550D01*
X0873046Y0086098D02*
X0871547D01*
X0870797Y0085348D01*
Y0082349D01*
X0871547Y0081600D01*
X0873046D01*
X0873796Y0082349D01*
Y0085348D01*
X0873046Y0086098D01*
X0875296Y0080100D02*
Y0084599D01*
X0877545D01*
X0878295Y0083849D01*
Y0082349D01*
X0877545Y0081600D01*
X0875296D01*
X0882043D02*
X0880544D01*
X0879794Y0082349D01*
Y0083849D01*
X0880544Y0084599D01*
X0882043D01*
X0882793Y0083849D01*
Y0083099D01*
X0879794D01*
X0884293Y0081600D02*
Y0084599D01*
X0886542D01*
X0887292Y0083849D01*
Y0081600D01*
X0888791Y0084599D02*
Y0082349D01*
X0889541Y0081600D01*
X0890291Y0082349D01*
X0891041Y0081600D01*
X0891790Y0082349D01*
Y0084599D01*
X0894040D02*
X0895539D01*
X0896289Y0083849D01*
Y0081600D01*
X0894040D01*
X0893290Y0082349D01*
X0894040Y0083099D01*
X0896289D01*
X0898538Y0085348D02*
Y0084599D01*
X0897788D01*
X0899288D01*
X0898538D01*
Y0082349D01*
X0899288Y0081600D01*
X0903786D02*
X0902287D01*
X0901537Y0082349D01*
Y0083849D01*
X0902287Y0084599D01*
X0903786D01*
X0904536Y0083849D01*
Y0083099D01*
X0901537D01*
X0906036Y0084599D02*
Y0081600D01*
Y0083099D01*
X0906785Y0083849D01*
X0907535Y0084599D01*
X0908285D01*
X0915783D02*
X0917282D01*
X0918032Y0083849D01*
Y0081600D01*
X0915783D01*
X0915033Y0082349D01*
X0915783Y0083099D01*
X0918032D01*
X0919531Y0081600D02*
Y0084599D01*
X0921781D01*
X0922530Y0083849D01*
Y0081600D01*
X0927029Y0086098D02*
Y0081600D01*
X0924780D01*
X0924030Y0082349D01*
Y0083849D01*
X0924780Y0084599D01*
X0927029D01*
X0928528Y0081600D02*
X0931528Y0084599D01*
X0933777Y0081600D02*
X0935276D01*
X0936026Y0082349D01*
Y0083849D01*
X0935276Y0084599D01*
X0933777D01*
X0933027Y0083849D01*
Y0082349D01*
X0933777Y0081600D01*
X0937525Y0084599D02*
Y0081600D01*
Y0083099D01*
X0938275Y0083849D01*
X0939025Y0084599D01*
X0939775D01*
X0946523Y0081600D02*
X0948022D01*
X0947272D01*
Y0084599D01*
X0946523D01*
X0951021Y0085348D02*
Y0084599D01*
X0950271D01*
X0951771D01*
X0951021D01*
Y0082349D01*
X0951771Y0081600D01*
X0954020D02*
X0956269D01*
X0957019Y0082349D01*
X0956269Y0083099D01*
X0954770D01*
X0954020Y0083849D01*
X0954770Y0084599D01*
X0957019D01*
X0963017Y0081600D02*
X0964517D01*
X0963767D01*
Y0086098D01*
X0963017D01*
X0966766Y0081600D02*
X0968266D01*
X0967516D01*
Y0084599D01*
X0966766D01*
X0973514D02*
X0971265D01*
X0970515Y0083849D01*
Y0082349D01*
X0971265Y0081600D01*
X0973514D01*
X0977263D02*
X0975763D01*
X0975014Y0082349D01*
Y0083849D01*
X0975763Y0084599D01*
X0977263D01*
X0978012Y0083849D01*
Y0083099D01*
X0975014D01*
X0979512Y0081600D02*
Y0084599D01*
X0981761D01*
X0982511Y0083849D01*
Y0081600D01*
X0984011D02*
X0986260D01*
X0987010Y0082349D01*
X0986260Y0083099D01*
X0984760D01*
X0984011Y0083849D01*
X0984760Y0084599D01*
X0987010D01*
X0989259Y0081600D02*
X0990758D01*
X0991508Y0082349D01*
Y0083849D01*
X0990758Y0084599D01*
X0989259D01*
X0988509Y0083849D01*
Y0082349D01*
X0989259Y0081600D01*
X0993008Y0084599D02*
Y0081600D01*
Y0083099D01*
X0993757Y0083849D01*
X0994507Y0084599D01*
X0995257D01*
X0997506Y0081600D02*
X0999755D01*
X1000505Y0082349D01*
X0999755Y0083099D01*
X0998256D01*
X0997506Y0083849D01*
X0998256Y0084599D01*
X1000505D01*
X1009502Y0086098D02*
Y0081600D01*
X1007253D01*
X1006503Y0082349D01*
Y0083849D01*
X1007253Y0084599D01*
X1009502D01*
X1011752Y0081600D02*
X1013251D01*
X1014001Y0082349D01*
Y0083849D01*
X1013251Y0084599D01*
X1011752D01*
X1011002Y0083849D01*
Y0082349D01*
X1011752Y0081600D01*
X1019999D02*
Y0084599D01*
X1022248D01*
X1022998Y0083849D01*
Y0081600D01*
X1025247D02*
X1026747D01*
X1027497Y0082349D01*
Y0083849D01*
X1026747Y0084599D01*
X1025247D01*
X1024498Y0083849D01*
Y0082349D01*
X1025247Y0081600D01*
X1029746Y0085348D02*
Y0084599D01*
X1028996D01*
X1030496D01*
X1029746D01*
Y0082349D01*
X1030496Y0081600D01*
X1037243Y0084599D02*
Y0082349D01*
X1037993Y0081600D01*
X1038743Y0082349D01*
X1039493Y0081600D01*
X1040242Y0082349D01*
Y0084599D01*
X1042492D02*
X1043991D01*
X1044741Y0083849D01*
Y0081600D01*
X1042492D01*
X1041742Y0082349D01*
X1042492Y0083099D01*
X1044741D01*
X1046241Y0084599D02*
Y0081600D01*
Y0083099D01*
X1046990Y0083849D01*
X1047740Y0084599D01*
X1048490D01*
X1050739D02*
Y0081600D01*
Y0083099D01*
X1051489Y0083849D01*
X1052239Y0084599D01*
X1052988D01*
X1055987D02*
X1057487D01*
X1058237Y0083849D01*
Y0081600D01*
X1055987D01*
X1055238Y0082349D01*
X1055987Y0083099D01*
X1058237D01*
X1059736Y0081600D02*
Y0084599D01*
X1061985D01*
X1062735Y0083849D01*
Y0081600D01*
X1064985Y0085348D02*
Y0084599D01*
X1064235D01*
X1065734D01*
X1064985D01*
Y0082349D01*
X1065734Y0081600D01*
X1073232Y0085348D02*
Y0084599D01*
X1072482D01*
X1073982D01*
X1073232D01*
Y0082349D01*
X1073982Y0081600D01*
X1076231Y0086098D02*
Y0081600D01*
Y0083849D01*
X1076981Y0084599D01*
X1078480D01*
X1079230Y0083849D01*
Y0081600D01*
X1081479Y0084599D02*
X1082979D01*
X1083728Y0083849D01*
Y0081600D01*
X1081479D01*
X1080729Y0082349D01*
X1081479Y0083099D01*
X1083728D01*
X1085978Y0085348D02*
Y0084599D01*
X1085228D01*
X1086727D01*
X1085978D01*
Y0082349D01*
X1086727Y0081600D01*
X1094225Y0085348D02*
Y0084599D01*
X1093475D01*
X1094975D01*
X1094225D01*
Y0082349D01*
X1094975Y0081600D01*
X1097224Y0086098D02*
Y0081600D01*
Y0083849D01*
X1097974Y0084599D01*
X1099473D01*
X1100223Y0083849D01*
Y0081600D01*
X1101723D02*
X1103222D01*
X1102472D01*
Y0084599D01*
X1101723D01*
X1105471Y0081600D02*
X1107721D01*
X1108470Y0082349D01*
X1107721Y0083099D01*
X1106221D01*
X1105471Y0083849D01*
X1106221Y0084599D01*
X1108470D01*
X1117467Y0086098D02*
Y0081600D01*
X1115218D01*
X1114468Y0082349D01*
Y0083849D01*
X1115218Y0084599D01*
X1117467D01*
X1121216Y0081600D02*
X1119717D01*
X1118967Y0082349D01*
Y0083849D01*
X1119717Y0084599D01*
X1121216D01*
X1121966Y0083849D01*
Y0083099D01*
X1118967D01*
X1123466Y0081600D02*
X1125715D01*
X1126465Y0082349D01*
X1125715Y0083099D01*
X1124215D01*
X1123466Y0083849D01*
X1124215Y0084599D01*
X1126465D01*
X1127964Y0081600D02*
X1129464D01*
X1128714D01*
Y0084599D01*
X1127964D01*
X1133212Y0080100D02*
X1133962D01*
X1134712Y0080850D01*
Y0084599D01*
X1132463D01*
X1131713Y0083849D01*
Y0082349D01*
X1132463Y0081600D01*
X1134712D01*
X1136211D02*
Y0084599D01*
X1138461D01*
X1139211Y0083849D01*
Y0081600D01*
X1145209Y0084599D02*
Y0082349D01*
X1145958Y0081600D01*
X1146708Y0082349D01*
X1147458Y0081600D01*
X1148208Y0082349D01*
Y0084599D01*
X1149707Y0081600D02*
X1151207D01*
X1150457D01*
Y0084599D01*
X1149707D01*
X1153456Y0081600D02*
X1154955D01*
X1154206D01*
Y0086098D01*
X1153456D01*
X1157205Y0081600D02*
X1158704D01*
X1157955D01*
Y0086098D01*
X1157205D01*
X1165452Y0081600D02*
Y0084599D01*
X1166202D01*
X1166952Y0083849D01*
Y0081600D01*
Y0083849D01*
X1167701Y0084599D01*
X1168451Y0083849D01*
Y0081600D01*
X1172200D02*
X1170700D01*
X1169951Y0082349D01*
Y0083849D01*
X1170700Y0084599D01*
X1172200D01*
X1172950Y0083849D01*
Y0083099D01*
X1169951D01*
X1176698Y0081600D02*
X1175199D01*
X1174449Y0082349D01*
Y0083849D01*
X1175199Y0084599D01*
X1176698D01*
X1177448Y0083849D01*
Y0083099D01*
X1174449D01*
X1179698Y0085348D02*
Y0084599D01*
X1178948D01*
X1180447D01*
X1179698D01*
Y0082349D01*
X1180447Y0081600D01*
X0143184Y0962716D02*
X0143850Y0963049D01*
X0144850Y0964048D01*
Y0957050D01*
X0393083Y0962382D02*
Y0962716D01*
X0393417Y0963382D01*
X0393750Y0963715D01*
X0394416Y0964048D01*
X0395749D01*
X0396416Y0963715D01*
X0396749Y0963382D01*
X0397082Y0962716D01*
Y0962049D01*
X0396749Y0961382D01*
X0396083Y0960383D01*
X0392750Y0957050D01*
X0397416D01*
X0642351Y0964048D02*
X0646017D01*
X0644017Y0961382D01*
X0645017D01*
X0645683Y0961049D01*
X0646017Y0960716D01*
X0646350Y0959716D01*
Y0959050D01*
X0646017Y0958050D01*
X0645350Y0957383D01*
X0644350Y0957050D01*
X0643351D01*
X0642351Y0957383D01*
X0642018Y0957716D01*
X0641684Y0958383D01*
X0895684Y0964048D02*
X0892351Y0959383D01*
X0897350D01*
X0895684Y0964048D02*
Y0957050D01*
X1146249Y0964048D02*
X1142916D01*
X1142583Y0961049D01*
X1142916Y0961382D01*
X1143916Y0961716D01*
X1144916D01*
X1145916Y0961382D01*
X1146582Y0960716D01*
X1146916Y0959716D01*
Y0959050D01*
X1146582Y0958050D01*
X1145916Y0957383D01*
X1144916Y0957050D01*
X1143916D01*
X1142916Y0957383D01*
X1142583Y0957716D01*
X1142250Y0958383D01*
X1396749Y0963049D02*
X1396416Y0963715D01*
X1395416Y0964048D01*
X1394750D01*
X1393750Y0963715D01*
X1393083Y0962716D01*
X1392750Y0961049D01*
Y0959383D01*
X1393083Y0958050D01*
X1393750Y0957383D01*
X1394750Y0957050D01*
X1395083D01*
X1396083Y0957383D01*
X1396749Y0958050D01*
X1397082Y0959050D01*
Y0959383D01*
X1396749Y0960383D01*
X1396083Y0961049D01*
X1395083Y0961382D01*
X1394750D01*
X1393750Y0961049D01*
X1393083Y0960383D01*
X1392750Y0959383D01*
X1512882Y0842750D02*
X1510216Y0849749D01*
X1507550Y0842750D01*
X1508550Y0845083D02*
X1511882D01*
X1507550Y0611749D02*
Y0604750D01*
Y0611749D02*
X1510549D01*
X1511549Y0611415D01*
X1511882Y0611082D01*
X1512216Y0610415D01*
Y0609749D01*
X1511882Y0609082D01*
X1511549Y0608749D01*
X1510549Y0608416D01*
X1507550D02*
X1510549D01*
X1511549Y0608083D01*
X1511882Y0607749D01*
X1512216Y0607083D01*
Y0606083D01*
X1511882Y0605416D01*
X1511549Y0605083D01*
X1510549Y0604750D01*
X1507550D01*
X1512549Y0372582D02*
X1512216Y0373249D01*
X1511549Y0373915D01*
X1510883Y0374249D01*
X1509550D01*
X1508883Y0373915D01*
X1508216Y0373249D01*
X1507883Y0372582D01*
X1507550Y0371582D01*
Y0369916D01*
X1507883Y0368916D01*
X1508216Y0368250D01*
X1508883Y0367583D01*
X1509550Y0367250D01*
X1510883D01*
X1511549Y0367583D01*
X1512216Y0368250D01*
X1512549Y0368916D01*
X1507550Y0137249D02*
Y0130250D01*
Y0137249D02*
X1509883D01*
X1510883Y0136915D01*
X1511549Y0136249D01*
X1511882Y0135582D01*
X1512216Y0134582D01*
Y0132916D01*
X1511882Y0131916D01*
X1511549Y0131250D01*
X1510883Y0130583D01*
X1509883Y0130250D01*
X1507550D01*
X0032882Y0842750D02*
X0030216Y0849749D01*
X0027550Y0842750D01*
X0028550Y0845083D02*
X0031882D01*
X0027550Y0611749D02*
Y0604750D01*
Y0611749D02*
X0030549D01*
X0031549Y0611415D01*
X0031882Y0611082D01*
X0032216Y0610415D01*
Y0609749D01*
X0031882Y0609082D01*
X0031549Y0608749D01*
X0030549Y0608416D01*
X0027550D02*
X0030549D01*
X0031549Y0608083D01*
X0031882Y0607749D01*
X0032216Y0607083D01*
Y0606083D01*
X0031882Y0605416D01*
X0031549Y0605083D01*
X0030549Y0604750D01*
X0027550D01*
X0032549Y0372582D02*
X0032216Y0373249D01*
X0031549Y0373915D01*
X0030883Y0374249D01*
X0029550D01*
X0028883Y0373915D01*
X0028216Y0373249D01*
X0027883Y0372582D01*
X0027550Y0371582D01*
Y0369916D01*
X0027883Y0368916D01*
X0028216Y0368250D01*
X0028883Y0367583D01*
X0029550Y0367250D01*
X0030883D01*
X0031549Y0367583D01*
X0032216Y0368250D01*
X0032549Y0368916D01*
X0027550Y0137249D02*
Y0130250D01*
Y0137249D02*
X0029883D01*
X0030883Y0136915D01*
X0031549Y0136249D01*
X0031882Y0135582D01*
X0032216Y0134582D01*
Y0132916D01*
X0031882Y0131916D01*
X0031549Y0131250D01*
X0030883Y0130583D01*
X0029883Y0130250D01*
X0027550D01*
X0143184Y0032715D02*
X0143850Y0033049D01*
X0144850Y0034049D01*
Y0027050D01*
X0393083Y0032382D02*
Y0032715D01*
X0393417Y0033382D01*
X0393750Y0033715D01*
X0394416Y0034049D01*
X0395749D01*
X0396416Y0033715D01*
X0396749Y0033382D01*
X0397082Y0032715D01*
Y0032049D01*
X0396749Y0031382D01*
X0396083Y0030383D01*
X0392750Y0027050D01*
X0397416D01*
X0642351Y0034049D02*
X0646017D01*
X0644017Y0031382D01*
X0645017D01*
X0645683Y0031049D01*
X0646017Y0030716D01*
X0646350Y0029716D01*
Y0029050D01*
X0646017Y0028050D01*
X0645350Y0027383D01*
X0644350Y0027050D01*
X0643351D01*
X0642351Y0027383D01*
X0642018Y0027716D01*
X0641684Y0028383D01*
X0895684Y0034049D02*
X0892351Y0029383D01*
X0897350D01*
X0895684Y0034049D02*
Y0027050D01*
X1146249Y0034049D02*
X1142916D01*
X1142583Y0031049D01*
X1142916Y0031382D01*
X1143916Y0031716D01*
X1144916D01*
X1145916Y0031382D01*
X1146582Y0030716D01*
X1146916Y0029716D01*
Y0029050D01*
X1146582Y0028050D01*
X1145916Y0027383D01*
X1144916Y0027050D01*
X1143916D01*
X1142916Y0027383D01*
X1142583Y0027716D01*
X1142250Y0028383D01*
X1396749Y0033049D02*
X1396416Y0033715D01*
X1395416Y0034049D01*
X1394750D01*
X1393750Y0033715D01*
X1393083Y0032715D01*
X1392750Y0031049D01*
Y0029383D01*
X1393083Y0028050D01*
X1393750Y0027383D01*
X1394750Y0027050D01*
X1395083D01*
X1396083Y0027383D01*
X1396749Y0028050D01*
X1397082Y0029050D01*
Y0029383D01*
X1396749Y0030383D01*
X1396083Y0031049D01*
X1395083Y0031382D01*
X1394750D01*
X1393750Y0031049D01*
X1393083Y0030383D01*
X1392750Y0029383D01*
X1213215Y0053549D02*
X1212049Y0054715D01*
X1209716D01*
X1208550Y0053549D01*
Y0052382D01*
X1209716Y0051216D01*
X1212049D01*
X1213215Y0050050D01*
Y0048884D01*
X1212049Y0047717D01*
X1209716D01*
X1208550Y0048884D01*
X1220213Y0053549D02*
X1219047Y0054715D01*
X1216714D01*
X1215548Y0053549D01*
Y0048884D01*
X1216714Y0047717D01*
X1219047D01*
X1220213Y0048884D01*
X1222546Y0047717D02*
Y0052382D01*
X1224878Y0054715D01*
X1227211Y0052382D01*
Y0047717D01*
Y0051216D01*
X1222546D01*
X1229543Y0054715D02*
Y0047717D01*
X1234208D01*
X1241206Y0054715D02*
X1236541D01*
Y0047717D01*
X1241206D01*
X1236541Y0051216D02*
X1238873D01*
X1243539Y0052382D02*
X1244705D01*
Y0051216D01*
X1243539D01*
Y0052382D01*
Y0048884D02*
X1244705D01*
Y0047717D01*
X1243539D01*
Y0048884D01*
X1256368Y0047717D02*
X1258700D01*
X1257534D01*
Y0054715D01*
X1256368Y0053549D01*
X1262199Y0047717D02*
Y0048884D01*
X1263366D01*
Y0047717D01*
X1262199D01*
X1268031Y0053549D02*
X1269197Y0054715D01*
X1271530D01*
X1272696Y0053549D01*
Y0048884D01*
X1271530Y0047717D01*
X1269197D01*
X1268031Y0048884D01*
Y0053549D01*
X1275029D02*
X1276195Y0054715D01*
X1278527D01*
X1279694Y0053549D01*
Y0048884D01*
X1278527Y0047717D01*
X1276195D01*
X1275029Y0048884D01*
Y0053549D01*
X0707350Y0074082D02*
Y0073332D01*
X0706600D01*
X0708100D01*
X0707350D01*
Y0071083D01*
X0708100Y0070333D01*
X0710349Y0074832D02*
Y0070333D01*
Y0072582D01*
X0711098Y0073332D01*
X0712598D01*
X0713348Y0072582D01*
Y0070333D01*
X0717097D02*
X0715597D01*
X0714847Y0071083D01*
Y0072582D01*
X0715597Y0073332D01*
X0717097D01*
X0717846Y0072582D01*
Y0071833D01*
X0714847D01*
X0723844Y0070333D02*
X0726094D01*
X0726844Y0071083D01*
X0726094Y0071833D01*
X0724594D01*
X0723844Y0072582D01*
X0724594Y0073332D01*
X0726844D01*
X0728343Y0068834D02*
Y0073332D01*
X0730592D01*
X0731342Y0072582D01*
Y0071083D01*
X0730592Y0070333D01*
X0728343D01*
X0735091D02*
X0733591D01*
X0732841Y0071083D01*
Y0072582D01*
X0733591Y0073332D01*
X0735091D01*
X0735841Y0072582D01*
Y0071833D01*
X0732841D01*
X0740339Y0073332D02*
X0738090D01*
X0737340Y0072582D01*
Y0071083D01*
X0738090Y0070333D01*
X0740339D01*
X0741839D02*
X0743338D01*
X0742588D01*
Y0073332D01*
X0741839D01*
X0746337Y0070333D02*
Y0074082D01*
Y0072582D01*
X0745587D01*
X0747087D01*
X0746337D01*
Y0074082D01*
X0747087Y0074832D01*
X0749336Y0070333D02*
X0750836D01*
X0750086D01*
Y0073332D01*
X0749336D01*
X0756084D02*
X0753835D01*
X0753085Y0072582D01*
Y0071083D01*
X0753835Y0070333D01*
X0756084D01*
X0758333Y0073332D02*
X0759833D01*
X0760583Y0072582D01*
Y0070333D01*
X0758333D01*
X0757584Y0071083D01*
X0758333Y0071833D01*
X0760583D01*
X0762832Y0074082D02*
Y0073332D01*
X0762082D01*
X0763582D01*
X0762832D01*
Y0071083D01*
X0763582Y0070333D01*
X0765831D02*
X0767330D01*
X0766581D01*
Y0073332D01*
X0765831D01*
X0770329Y0070333D02*
X0771829D01*
X0772579Y0071083D01*
Y0072582D01*
X0771829Y0073332D01*
X0770329D01*
X0769580Y0072582D01*
Y0071083D01*
X0770329Y0070333D01*
X0774078D02*
Y0073332D01*
X0776328D01*
X0777077Y0072582D01*
Y0070333D01*
X0778577D02*
X0780826D01*
X0781576Y0071083D01*
X0780826Y0071833D01*
X0779327D01*
X0778577Y0072582D01*
X0779327Y0073332D01*
X0781576D01*
X0783825Y0069583D02*
X0784575Y0070333D01*
Y0071083D01*
X0783825D01*
Y0070333D01*
X0784575D01*
X0783825Y0069583D01*
X0783075Y0068834D01*
X0792072Y0073332D02*
Y0071083D01*
X0792822Y0070333D01*
X0793572Y0071083D01*
X0794322Y0070333D01*
X0795072Y0071083D01*
Y0073332D01*
X0796571Y0070333D02*
X0798070D01*
X0797321D01*
Y0073332D01*
X0796571D01*
X0800320Y0070333D02*
X0801819D01*
X0801070D01*
Y0074832D01*
X0800320D01*
X0804069Y0070333D02*
X0805568D01*
X0804818D01*
Y0074832D01*
X0804069D01*
X0812316D02*
Y0070333D01*
X0814565D01*
X0815315Y0071083D01*
Y0071833D01*
Y0072582D01*
X0814565Y0073332D01*
X0812316D01*
X0819064Y0070333D02*
X0817564D01*
X0816815Y0071083D01*
Y0072582D01*
X0817564Y0073332D01*
X0819064D01*
X0819814Y0072582D01*
Y0071833D01*
X0816815D01*
X0825812Y0070333D02*
X0828061D01*
X0828811Y0071083D01*
X0828061Y0071833D01*
X0826561D01*
X0825812Y0072582D01*
X0826561Y0073332D01*
X0828811D01*
X0830310D02*
Y0071083D01*
X0831060Y0070333D01*
X0833309D01*
Y0073332D01*
X0834809Y0070333D02*
X0836308D01*
X0835558D01*
Y0073332D01*
X0834809D01*
X0839307Y0074082D02*
Y0073332D01*
X0838558D01*
X0840057D01*
X0839307D01*
Y0071083D01*
X0840057Y0070333D01*
X0843056Y0073332D02*
X0844555D01*
X0845305Y0072582D01*
Y0070333D01*
X0843056D01*
X0842306Y0071083D01*
X0843056Y0071833D01*
X0845305D01*
X0846805Y0074832D02*
Y0070333D01*
X0849054D01*
X0849804Y0071083D01*
Y0071833D01*
Y0072582D01*
X0849054Y0073332D01*
X0846805D01*
X0851303Y0070333D02*
X0852803D01*
X0852053D01*
Y0074832D01*
X0851303D01*
X0857301Y0070333D02*
X0855802D01*
X0855052Y0071083D01*
Y0072582D01*
X0855802Y0073332D01*
X0857301D01*
X0858051Y0072582D01*
Y0071833D01*
X0855052D01*
X0864799Y0070333D02*
Y0074082D01*
Y0072582D01*
X0864049D01*
X0865549D01*
X0864799D01*
Y0074082D01*
X0865549Y0074832D01*
X0868548Y0070333D02*
X0870047D01*
X0870797Y0071083D01*
Y0072582D01*
X0870047Y0073332D01*
X0868548D01*
X0867798Y0072582D01*
Y0071083D01*
X0868548Y0070333D01*
X0872297Y0073332D02*
Y0070333D01*
Y0071833D01*
X0873046Y0072582D01*
X0873796Y0073332D01*
X0874546D01*
X0881294D02*
Y0071083D01*
X0882043Y0070333D01*
X0884293D01*
Y0069583D01*
X0883543Y0068834D01*
X0882793D01*
X0884293Y0070333D02*
Y0073332D01*
X0886542Y0070333D02*
X0888041D01*
X0888791Y0071083D01*
Y0072582D01*
X0888041Y0073332D01*
X0886542D01*
X0885792Y0072582D01*
Y0071083D01*
X0886542Y0070333D01*
X0890291Y0073332D02*
Y0071083D01*
X0891041Y0070333D01*
X0893290D01*
Y0073332D01*
X0894789D02*
Y0070333D01*
Y0071833D01*
X0895539Y0072582D01*
X0896289Y0073332D01*
X0897039D01*
X0904536D02*
X0906036D01*
X0906785Y0072582D01*
Y0070333D01*
X0904536D01*
X0903786Y0071083D01*
X0904536Y0071833D01*
X0906785D01*
X0908285Y0068834D02*
Y0073332D01*
X0910534D01*
X0911284Y0072582D01*
Y0071083D01*
X0910534Y0070333D01*
X0908285D01*
X0912784Y0068834D02*
Y0073332D01*
X0915033D01*
X0915783Y0072582D01*
Y0071083D01*
X0915033Y0070333D01*
X0912784D01*
X0917282D02*
X0918782D01*
X0918032D01*
Y0074832D01*
X0917282D01*
X0921031Y0070333D02*
X0922530D01*
X0921781D01*
Y0073332D01*
X0921031D01*
X0927779D02*
X0925529D01*
X0924780Y0072582D01*
Y0071083D01*
X0925529Y0070333D01*
X0927779D01*
X0930028Y0073332D02*
X0931528D01*
X0932277Y0072582D01*
Y0070333D01*
X0930028D01*
X0929278Y0071083D01*
X0930028Y0071833D01*
X0932277D01*
X0934527Y0074082D02*
Y0073332D01*
X0933777D01*
X0935276D01*
X0934527D01*
Y0071083D01*
X0935276Y0070333D01*
X0937525D02*
X0939025D01*
X0938275D01*
Y0073332D01*
X0937525D01*
X0942024Y0070333D02*
X0943524D01*
X0944273Y0071083D01*
Y0072582D01*
X0943524Y0073332D01*
X0942024D01*
X0941274Y0072582D01*
Y0071083D01*
X0942024Y0070333D01*
X0945773D02*
Y0073332D01*
X0948022D01*
X0948772Y0072582D01*
Y0070333D01*
X0955520D02*
X0957019D01*
X0957769Y0071083D01*
Y0072582D01*
X0957019Y0073332D01*
X0955520D01*
X0954770Y0072582D01*
Y0071083D01*
X0955520Y0070333D01*
X0959268Y0073332D02*
Y0070333D01*
Y0071833D01*
X0960018Y0072582D01*
X0960768Y0073332D01*
X0961518D01*
X0969015Y0070333D02*
Y0074082D01*
Y0072582D01*
X0968266D01*
X0969765D01*
X0969015D01*
Y0074082D01*
X0969765Y0074832D01*
X0972014Y0070333D02*
X0973514D01*
X0972764D01*
Y0073332D01*
X0972014D01*
X0976513Y0074082D02*
Y0073332D01*
X0975763D01*
X0977263D01*
X0976513D01*
Y0071083D01*
X0977263Y0070333D01*
X0984760D02*
Y0074082D01*
Y0072582D01*
X0984011D01*
X0985510D01*
X0984760D01*
Y0074082D01*
X0985510Y0074832D01*
X0988509Y0070333D02*
X0990009D01*
X0990758Y0071083D01*
Y0072582D01*
X0990009Y0073332D01*
X0988509D01*
X0987759Y0072582D01*
Y0071083D01*
X0988509Y0070333D01*
X0992258Y0073332D02*
Y0070333D01*
Y0071833D01*
X0993008Y0072582D01*
X0993757Y0073332D01*
X0994507D01*
X1002005D02*
X1003504D01*
X1004254Y0072582D01*
Y0070333D01*
X1002005D01*
X1001255Y0071083D01*
X1002005Y0071833D01*
X1004254D01*
X1005754Y0070333D02*
Y0073332D01*
X1008003D01*
X1008753Y0072582D01*
Y0070333D01*
X1010252Y0073332D02*
Y0071083D01*
X1011002Y0070333D01*
X1013251D01*
Y0069583D01*
X1012501Y0068834D01*
X1011752D01*
X1013251Y0070333D02*
Y0073332D01*
X1019249Y0068834D02*
Y0073332D01*
X1021498D01*
X1022248Y0072582D01*
Y0071083D01*
X1021498Y0070333D01*
X1019249D01*
X1024498Y0073332D02*
X1025997D01*
X1026747Y0072582D01*
Y0070333D01*
X1024498D01*
X1023748Y0071083D01*
X1024498Y0071833D01*
X1026747D01*
X1028246Y0073332D02*
Y0070333D01*
Y0071833D01*
X1028996Y0072582D01*
X1029746Y0073332D01*
X1030496D01*
X1033495Y0074082D02*
Y0073332D01*
X1032745D01*
X1034244D01*
X1033495D01*
Y0071083D01*
X1034244Y0070333D01*
X1036494D02*
X1037993D01*
X1037243D01*
Y0073332D01*
X1036494D01*
X1043242D02*
X1040992D01*
X1040242Y0072582D01*
Y0071083D01*
X1040992Y0070333D01*
X1043242D01*
X1044741Y0073332D02*
Y0071083D01*
X1045491Y0070333D01*
X1047740D01*
Y0073332D01*
X1049240Y0070333D02*
X1050739D01*
X1049989D01*
Y0074832D01*
X1049240D01*
X1053738Y0073332D02*
X1055238D01*
X1055987Y0072582D01*
Y0070333D01*
X1053738D01*
X1052988Y0071083D01*
X1053738Y0071833D01*
X1055987D01*
X1057487Y0073332D02*
Y0070333D01*
Y0071833D01*
X1058237Y0072582D01*
X1058986Y0073332D01*
X1059736D01*
X1066484Y0068834D02*
Y0073332D01*
X1068733D01*
X1069483Y0072582D01*
Y0071083D01*
X1068733Y0070333D01*
X1066484D01*
X1070982Y0073332D02*
Y0071083D01*
X1071732Y0070333D01*
X1073981D01*
Y0073332D01*
X1075481D02*
Y0070333D01*
Y0071833D01*
X1076231Y0072582D01*
X1076981Y0073332D01*
X1077730D01*
X1079980Y0068834D02*
Y0073332D01*
X1082229D01*
X1082979Y0072582D01*
Y0071083D01*
X1082229Y0070333D01*
X1079980D01*
X1085228D02*
X1086727D01*
X1087477Y0071083D01*
Y0072582D01*
X1086727Y0073332D01*
X1085228D01*
X1084478Y0072582D01*
Y0071083D01*
X1085228Y0070333D01*
X1088977D02*
X1091226D01*
X1091976Y0071083D01*
X1091226Y0071833D01*
X1089727D01*
X1088977Y0072582D01*
X1089727Y0073332D01*
X1091976D01*
X1095724Y0070333D02*
X1094225D01*
X1093475Y0071083D01*
Y0072582D01*
X1094225Y0073332D01*
X1095724D01*
X1096474Y0072582D01*
Y0071833D01*
X1093475D01*
X1098724Y0069583D02*
X1099473Y0070333D01*
Y0071083D01*
X1098724D01*
Y0070333D01*
X1099473D01*
X1098724Y0069583D01*
X1097974Y0068834D01*
X1107721Y0070333D02*
X1109220D01*
X1109970Y0071083D01*
Y0072582D01*
X1109220Y0073332D01*
X1107721D01*
X1106971Y0072582D01*
Y0071083D01*
X1107721Y0070333D01*
X1111469Y0073332D02*
Y0070333D01*
Y0071833D01*
X1112219Y0072582D01*
X1112969Y0073332D01*
X1113719D01*
X1120467D02*
Y0071083D01*
X1121216Y0070333D01*
X1121966Y0071083D01*
X1122716Y0070333D01*
X1123466Y0071083D01*
Y0073332D01*
X1124965Y0070333D02*
X1126465D01*
X1125715D01*
Y0073332D01*
X1124965D01*
X1128714Y0070333D02*
X1130213D01*
X1129464D01*
Y0074832D01*
X1128714D01*
X1132463Y0070333D02*
X1133962D01*
X1133212D01*
Y0074832D01*
X1132463D01*
X1141460Y0070333D02*
X1142959D01*
X1143709Y0071083D01*
Y0072582D01*
X1142959Y0073332D01*
X1141460D01*
X1140710Y0072582D01*
Y0071083D01*
X1141460Y0070333D01*
X1145209Y0068834D02*
Y0073332D01*
X1147458D01*
X1148208Y0072582D01*
Y0071083D01*
X1147458Y0070333D01*
X1145209D01*
X1151956D02*
X1150457D01*
X1149707Y0071083D01*
Y0072582D01*
X1150457Y0073332D01*
X1151956D01*
X1152706Y0072582D01*
Y0071833D01*
X1149707D01*
X1154206Y0073332D02*
Y0070333D01*
Y0071833D01*
X1154955Y0072582D01*
X1155705Y0073332D01*
X1156455D01*
X1159454D02*
X1160954D01*
X1161703Y0072582D01*
Y0070333D01*
X1159454D01*
X1158704Y0071083D01*
X1159454Y0071833D01*
X1161703D01*
X1163953Y0074082D02*
Y0073332D01*
X1163203D01*
X1164702D01*
X1163953D01*
Y0071083D01*
X1164702Y0070333D01*
X1169201D02*
X1167701D01*
X1166952Y0071083D01*
Y0072582D01*
X1167701Y0073332D01*
X1169201D01*
X1169951Y0072582D01*
Y0071833D01*
X1166952D01*
X1175949Y0070333D02*
X1177448D01*
X1176698D01*
Y0073332D01*
X1175949D01*
X1179698Y0070333D02*
Y0073332D01*
X1181947D01*
X1182697Y0072582D01*
Y0070333D01*
X0707350Y0062066D02*
X0708849D01*
X0709599Y0061316D01*
Y0059066D01*
X0707350D01*
X0706600Y0059816D01*
X0707350Y0060566D01*
X0709599D01*
X0711098Y0059066D02*
Y0062066D01*
X0713348D01*
X0714098Y0061316D01*
Y0059066D01*
X0720096D02*
X0721595D01*
X0720845D01*
Y0062066D01*
X0720096D01*
X0723844Y0059066D02*
Y0062066D01*
X0724594D01*
X0725344Y0061316D01*
Y0059066D01*
Y0061316D01*
X0726094Y0062066D01*
X0726844Y0061316D01*
Y0059066D01*
X0728343Y0057567D02*
Y0062066D01*
X0730592D01*
X0731342Y0061316D01*
Y0059816D01*
X0730592Y0059066D01*
X0728343D01*
X0732841D02*
X0734341D01*
X0733591D01*
Y0063565D01*
X0732841D01*
X0738840Y0059066D02*
X0737340D01*
X0736590Y0059816D01*
Y0061316D01*
X0737340Y0062066D01*
X0738840D01*
X0739589Y0061316D01*
Y0060566D01*
X0736590D01*
X0741089Y0059066D02*
Y0062066D01*
X0741839D01*
X0742588Y0061316D01*
Y0059066D01*
Y0061316D01*
X0743338Y0062066D01*
X0744088Y0061316D01*
Y0059066D01*
X0747837D02*
X0746337D01*
X0745587Y0059816D01*
Y0061316D01*
X0746337Y0062066D01*
X0747837D01*
X0748587Y0061316D01*
Y0060566D01*
X0745587D01*
X0750086Y0059066D02*
Y0062066D01*
X0752335D01*
X0753085Y0061316D01*
Y0059066D01*
X0755334Y0062815D02*
Y0062066D01*
X0754585D01*
X0756084D01*
X0755334D01*
Y0059816D01*
X0756084Y0059066D01*
X0759083Y0062066D02*
X0760583D01*
X0761332Y0061316D01*
Y0059066D01*
X0759083D01*
X0758333Y0059816D01*
X0759083Y0060566D01*
X0761332D01*
X0763582Y0062815D02*
Y0062066D01*
X0762832D01*
X0764331D01*
X0763582D01*
Y0059816D01*
X0764331Y0059066D01*
X0766581D02*
X0768080D01*
X0767330D01*
Y0062066D01*
X0766581D01*
X0771079Y0059066D02*
X0772579D01*
X0773328Y0059816D01*
Y0061316D01*
X0772579Y0062066D01*
X0771079D01*
X0770329Y0061316D01*
Y0059816D01*
X0771079Y0059066D01*
X0774828D02*
Y0062066D01*
X0777077D01*
X0777827Y0061316D01*
Y0059066D01*
X0779327D02*
Y0059816D01*
X0780076D01*
Y0059066D01*
X0779327D01*
X0789823Y0063565D02*
X0788324D01*
X0787574Y0062815D01*
Y0059816D01*
X0788324Y0059066D01*
X0789823D01*
X0790573Y0059816D01*
Y0062815D01*
X0789823Y0063565D01*
X0792072Y0057567D02*
Y0062066D01*
X0794322D01*
X0795072Y0061316D01*
Y0059816D01*
X0794322Y0059066D01*
X0792072D01*
X0798820D02*
X0797321D01*
X0796571Y0059816D01*
Y0061316D01*
X0797321Y0062066D01*
X0798820D01*
X0799570Y0061316D01*
Y0060566D01*
X0796571D01*
X0801070Y0059066D02*
Y0062066D01*
X0803319D01*
X0804069Y0061316D01*
Y0059066D01*
X0805568Y0062066D02*
Y0059816D01*
X0806318Y0059066D01*
X0807068Y0059816D01*
X0807817Y0059066D01*
X0808567Y0059816D01*
Y0062066D01*
X0810816D02*
X0812316D01*
X0813066Y0061316D01*
Y0059066D01*
X0810816D01*
X0810067Y0059816D01*
X0810816Y0060566D01*
X0813066D01*
X0815315Y0062815D02*
Y0062066D01*
X0814565D01*
X0816065D01*
X0815315D01*
Y0059816D01*
X0816065Y0059066D01*
X0820563D02*
X0819064D01*
X0818314Y0059816D01*
Y0061316D01*
X0819064Y0062066D01*
X0820563D01*
X0821313Y0061316D01*
Y0060566D01*
X0818314D01*
X0822812Y0062066D02*
Y0059066D01*
Y0060566D01*
X0823562Y0061316D01*
X0824312Y0062066D01*
X0825062D01*
X0832559D02*
X0834059D01*
X0834809Y0061316D01*
Y0059066D01*
X0832559D01*
X0831810Y0059816D01*
X0832559Y0060566D01*
X0834809D01*
X0836308Y0059066D02*
Y0062066D01*
X0838558D01*
X0839307Y0061316D01*
Y0059066D01*
X0843806Y0063565D02*
Y0059066D01*
X0841556D01*
X0840807Y0059816D01*
Y0061316D01*
X0841556Y0062066D01*
X0843806D01*
X0845305Y0059066D02*
X0848304Y0062066D01*
X0850554Y0059066D02*
X0852053D01*
X0852803Y0059816D01*
Y0061316D01*
X0852053Y0062066D01*
X0850554D01*
X0849804Y0061316D01*
Y0059816D01*
X0850554Y0059066D01*
X0854302Y0062066D02*
Y0059066D01*
Y0060566D01*
X0855052Y0061316D01*
X0855802Y0062066D01*
X0856552D01*
X0863299Y0059066D02*
X0864799D01*
X0864049D01*
Y0062066D01*
X0863299D01*
X0867798Y0062815D02*
Y0062066D01*
X0867048D01*
X0868548D01*
X0867798D01*
Y0059816D01*
X0868548Y0059066D01*
X0870797D02*
X0873046D01*
X0873796Y0059816D01*
X0873046Y0060566D01*
X0871547D01*
X0870797Y0061316D01*
X0871547Y0062066D01*
X0873796D01*
X0879794Y0059066D02*
X0881294D01*
X0880544D01*
Y0063565D01*
X0879794D01*
X0883543Y0059066D02*
X0885042D01*
X0884293D01*
Y0062066D01*
X0883543D01*
X0890291D02*
X0888041D01*
X0887292Y0061316D01*
Y0059816D01*
X0888041Y0059066D01*
X0890291D01*
X0894040D02*
X0892540D01*
X0891790Y0059816D01*
Y0061316D01*
X0892540Y0062066D01*
X0894040D01*
X0894789Y0061316D01*
Y0060566D01*
X0891790D01*
X0896289Y0059066D02*
Y0062066D01*
X0898538D01*
X0899288Y0061316D01*
Y0059066D01*
X0900787D02*
X0903037D01*
X0903786Y0059816D01*
X0903037Y0060566D01*
X0901537D01*
X0900787Y0061316D01*
X0901537Y0062066D01*
X0903786D01*
X0906036Y0059066D02*
X0907535D01*
X0908285Y0059816D01*
Y0061316D01*
X0907535Y0062066D01*
X0906036D01*
X0905286Y0061316D01*
Y0059816D01*
X0906036Y0059066D01*
X0909785Y0062066D02*
Y0059066D01*
Y0060566D01*
X0910534Y0061316D01*
X0911284Y0062066D01*
X0912034D01*
X0914283Y0059066D02*
X0916532D01*
X0917282Y0059816D01*
X0916532Y0060566D01*
X0915033D01*
X0914283Y0061316D01*
X0915033Y0062066D01*
X0917282D01*
X0926279Y0063565D02*
Y0059066D01*
X0924030D01*
X0923280Y0059816D01*
Y0061316D01*
X0924030Y0062066D01*
X0926279D01*
X0928528Y0059066D02*
X0930028D01*
X0930778Y0059816D01*
Y0061316D01*
X0930028Y0062066D01*
X0928528D01*
X0927779Y0061316D01*
Y0059816D01*
X0928528Y0059066D01*
X0936776D02*
Y0062066D01*
X0939025D01*
X0939775Y0061316D01*
Y0059066D01*
X0942024D02*
X0943524D01*
X0944273Y0059816D01*
Y0061316D01*
X0943524Y0062066D01*
X0942024D01*
X0941274Y0061316D01*
Y0059816D01*
X0942024Y0059066D01*
X0946523Y0062815D02*
Y0062066D01*
X0945773D01*
X0947272D01*
X0946523D01*
Y0059816D01*
X0947272Y0059066D01*
X0954020Y0062066D02*
Y0059816D01*
X0954770Y0059066D01*
X0955520Y0059816D01*
X0956269Y0059066D01*
X0957019Y0059816D01*
Y0062066D01*
X0959268D02*
X0960768D01*
X0961518Y0061316D01*
Y0059066D01*
X0959268D01*
X0958519Y0059816D01*
X0959268Y0060566D01*
X0961518D01*
X0963017Y0062066D02*
Y0059066D01*
Y0060566D01*
X0963767Y0061316D01*
X0964517Y0062066D01*
X0965267D01*
X0967516D02*
Y0059066D01*
Y0060566D01*
X0968266Y0061316D01*
X0969015Y0062066D01*
X0969765D01*
X0972764D02*
X0974264D01*
X0975014Y0061316D01*
Y0059066D01*
X0972764D01*
X0972014Y0059816D01*
X0972764Y0060566D01*
X0975014D01*
X0976513Y0059066D02*
Y0062066D01*
X0978762D01*
X0979512Y0061316D01*
Y0059066D01*
X0981761Y0062815D02*
Y0062066D01*
X0981011D01*
X0982511D01*
X0981761D01*
Y0059816D01*
X0982511Y0059066D01*
X0990009Y0062815D02*
Y0062066D01*
X0989259D01*
X0990758D01*
X0990009D01*
Y0059816D01*
X0990758Y0059066D01*
X0993008Y0063565D02*
Y0059066D01*
Y0061316D01*
X0993757Y0062066D01*
X0995257D01*
X0996007Y0061316D01*
Y0059066D01*
X0998256Y0062066D02*
X0999755D01*
X1000505Y0061316D01*
Y0059066D01*
X0998256D01*
X0997506Y0059816D01*
X0998256Y0060566D01*
X1000505D01*
X1002754Y0062815D02*
Y0062066D01*
X1002005D01*
X1003504D01*
X1002754D01*
Y0059816D01*
X1003504Y0059066D01*
X1011002Y0062815D02*
Y0062066D01*
X1010252D01*
X1011752D01*
X1011002D01*
Y0059816D01*
X1011752Y0059066D01*
X1014001Y0063565D02*
Y0059066D01*
Y0061316D01*
X1014751Y0062066D01*
X1016250D01*
X1017000Y0061316D01*
Y0059066D01*
X1020749D02*
X1019249D01*
X1018499Y0059816D01*
Y0061316D01*
X1019249Y0062066D01*
X1020749D01*
X1021498Y0061316D01*
Y0060566D01*
X1018499D01*
X1030496Y0063565D02*
Y0059066D01*
X1028246D01*
X1027497Y0059816D01*
Y0061316D01*
X1028246Y0062066D01*
X1030496D01*
X1034244Y0059066D02*
X1032745D01*
X1031995Y0059816D01*
Y0061316D01*
X1032745Y0062066D01*
X1034244D01*
X1034994Y0061316D01*
Y0060566D01*
X1031995D01*
X1036494Y0059066D02*
X1038743D01*
X1039493Y0059816D01*
X1038743Y0060566D01*
X1037243D01*
X1036494Y0061316D01*
X1037243Y0062066D01*
X1039493D01*
X1040992Y0059066D02*
X1042492D01*
X1041742D01*
Y0062066D01*
X1040992D01*
X1046241Y0057567D02*
X1046990D01*
X1047740Y0058317D01*
Y0062066D01*
X1045491D01*
X1044741Y0061316D01*
Y0059816D01*
X1045491Y0059066D01*
X1047740D01*
X1049240D02*
Y0062066D01*
X1051489D01*
X1052239Y0061316D01*
Y0059066D01*
X1058237D02*
X1059736D01*
X1058986D01*
Y0062066D01*
X1058237D01*
X1061985Y0059066D02*
X1064235D01*
X1064984Y0059816D01*
X1064235Y0060566D01*
X1062735D01*
X1061985Y0061316D01*
X1062735Y0062066D01*
X1064984D01*
X1070982Y0057567D02*
Y0062066D01*
X1073232D01*
X1073982Y0061316D01*
Y0059816D01*
X1073232Y0059066D01*
X1070982D01*
X1075481Y0062066D02*
Y0059066D01*
Y0060566D01*
X1076231Y0061316D01*
X1076981Y0062066D01*
X1077730D01*
X1080729Y0059066D02*
X1082229D01*
X1082979Y0059816D01*
Y0061316D01*
X1082229Y0062066D01*
X1080729D01*
X1079980Y0061316D01*
Y0059816D01*
X1080729Y0059066D01*
X1087477Y0063565D02*
Y0059066D01*
X1085228D01*
X1084478Y0059816D01*
Y0061316D01*
X1085228Y0062066D01*
X1087477D01*
X1088977D02*
Y0059816D01*
X1089727Y0059066D01*
X1091976D01*
Y0062066D01*
X1096474D02*
X1094225D01*
X1093475Y0061316D01*
Y0059816D01*
X1094225Y0059066D01*
X1096474D01*
X1098724Y0062815D02*
Y0062066D01*
X1097974D01*
X1099473D01*
X1098724D01*
Y0059816D01*
X1099473Y0059066D01*
X1101723D02*
X1103222D01*
X1102472D01*
Y0062066D01*
X1101723D01*
X1106221Y0059066D02*
X1107721D01*
X1108470Y0059816D01*
Y0061316D01*
X1107721Y0062066D01*
X1106221D01*
X1105471Y0061316D01*
Y0059816D01*
X1106221Y0059066D01*
X1109970D02*
Y0062066D01*
X1112219D01*
X1112969Y0061316D01*
Y0059066D01*
X1118967Y0062066D02*
Y0059816D01*
X1119717Y0059066D01*
X1120467Y0059816D01*
X1121216Y0059066D01*
X1121966Y0059816D01*
Y0062066D01*
X1124215Y0059066D02*
X1125715D01*
X1126465Y0059816D01*
Y0061316D01*
X1125715Y0062066D01*
X1124215D01*
X1123466Y0061316D01*
Y0059816D01*
X1124215Y0059066D01*
X1127964Y0062066D02*
Y0059066D01*
Y0060566D01*
X1128714Y0061316D01*
X1129464Y0062066D01*
X1130213D01*
X1133212Y0062815D02*
Y0062066D01*
X1132463D01*
X1133962D01*
X1133212D01*
Y0059816D01*
X1133962Y0059066D01*
X1136211Y0063565D02*
Y0059066D01*
Y0061316D01*
X1136961Y0062066D01*
X1138461D01*
X1139211Y0061316D01*
Y0059066D01*
X1140710Y0062066D02*
Y0059816D01*
X1141460Y0059066D01*
X1143709D01*
Y0058317D01*
X1142959Y0057567D01*
X1142210D01*
X1143709Y0059066D02*
Y0062066D01*
X1145209Y0059066D02*
Y0059816D01*
X1145958D01*
Y0059066D01*
X1145209D01*
X1153456Y0063565D02*
Y0062815D01*
X1154955Y0061316D01*
X1156455Y0062815D01*
Y0063565D01*
X1154955Y0061316D02*
Y0059066D01*
X1158704D02*
X1160204D01*
X1160954Y0059816D01*
Y0061316D01*
X1160204Y0062066D01*
X1158704D01*
X1157955Y0061316D01*
Y0059816D01*
X1158704Y0059066D01*
X1162453Y0062066D02*
Y0059816D01*
X1163203Y0059066D01*
X1165452D01*
Y0062066D01*
X1171450Y0059066D02*
X1173699D01*
X1174449Y0059816D01*
X1173699Y0060566D01*
X1172200D01*
X1171450Y0061316D01*
X1172200Y0062066D01*
X1174449D01*
X1175949Y0063565D02*
Y0059066D01*
Y0061316D01*
X1176698Y0062066D01*
X1178198D01*
X1178948Y0061316D01*
Y0059066D01*
X1181197D02*
X1182697D01*
X1183446Y0059816D01*
Y0061316D01*
X1182697Y0062066D01*
X1181197D01*
X1180447Y0061316D01*
Y0059816D01*
X1181197Y0059066D01*
X1184946Y0062066D02*
Y0059816D01*
X1185695Y0059066D01*
X1187945D01*
Y0062066D01*
X1189444Y0059066D02*
X1190944D01*
X1190194D01*
Y0063565D01*
X1189444D01*
X1196192D02*
Y0059066D01*
X1193943D01*
X1193193Y0059816D01*
Y0061316D01*
X1193943Y0062066D01*
X1196192D01*
X0709599Y0050799D02*
X0707350D01*
X0706600Y0050049D01*
Y0048550D01*
X0707350Y0047800D01*
X0709599D01*
X0711848D02*
X0713348D01*
X0714098Y0048550D01*
Y0050049D01*
X0713348Y0050799D01*
X0711848D01*
X0711098Y0050049D01*
Y0048550D01*
X0711848Y0047800D01*
X0715597D02*
Y0050799D01*
X0716347D01*
X0717097Y0050049D01*
Y0047800D01*
Y0050049D01*
X0717846Y0050799D01*
X0718596Y0050049D01*
Y0047800D01*
X0720096Y0046301D02*
Y0050799D01*
X0722345D01*
X0723095Y0050049D01*
Y0048550D01*
X0722345Y0047800D01*
X0720096D01*
X0724594D02*
X0726094D01*
X0725344D01*
Y0052299D01*
X0724594D01*
X0730592Y0047800D02*
X0729093D01*
X0728343Y0048550D01*
Y0050049D01*
X0729093Y0050799D01*
X0730592D01*
X0731342Y0050049D01*
Y0049299D01*
X0728343D01*
X0733591Y0051549D02*
Y0050799D01*
X0732841D01*
X0734341D01*
X0733591D01*
Y0048550D01*
X0734341Y0047800D01*
X0738840D02*
X0737340D01*
X0736590Y0048550D01*
Y0050049D01*
X0737340Y0050799D01*
X0738840D01*
X0739589Y0050049D01*
Y0049299D01*
X0736590D01*
X0741089Y0047800D02*
X0742588D01*
X0741839D01*
Y0052299D01*
X0741089D01*
X0744838Y0050799D02*
Y0048550D01*
X0745587Y0047800D01*
X0747837D01*
Y0047050D01*
X0747087Y0046301D01*
X0746337D01*
X0747837Y0047800D02*
Y0050799D01*
X0753835D02*
X0755334Y0047800D01*
X0756834Y0050799D01*
X0759083D02*
X0760583D01*
X0761332Y0050049D01*
Y0047800D01*
X0759083D01*
X0758333Y0048550D01*
X0759083Y0049299D01*
X0761332D01*
X0762832Y0047800D02*
X0764331D01*
X0763582D01*
Y0052299D01*
X0762832D01*
X0766581Y0047800D02*
X0768080D01*
X0767330D01*
Y0050799D01*
X0766581D01*
X0773328Y0052299D02*
Y0047800D01*
X0771079D01*
X0770329Y0048550D01*
Y0050049D01*
X0771079Y0050799D01*
X0773328D01*
X0775578D02*
X0777077D01*
X0777827Y0050049D01*
Y0047800D01*
X0775578D01*
X0774828Y0048550D01*
X0775578Y0049299D01*
X0777827D01*
X0780076Y0051549D02*
Y0050799D01*
X0779327D01*
X0780826D01*
X0780076D01*
Y0048550D01*
X0780826Y0047800D01*
X0785325D02*
X0783825D01*
X0783075Y0048550D01*
Y0050049D01*
X0783825Y0050799D01*
X0785325D01*
X0786074Y0050049D01*
Y0049299D01*
X0783075D01*
X0792822Y0050799D02*
X0794322D01*
X0795072Y0050049D01*
Y0047800D01*
X0792822D01*
X0792072Y0048550D01*
X0792822Y0049299D01*
X0795072D01*
X0796571Y0047800D02*
Y0050799D01*
X0798820D01*
X0799570Y0050049D01*
Y0047800D01*
X0804069Y0052299D02*
Y0047800D01*
X0801819D01*
X0801070Y0048550D01*
Y0050049D01*
X0801819Y0050799D01*
X0804069D01*
X0810816Y0051549D02*
Y0050799D01*
X0810067D01*
X0811566D01*
X0810816D01*
Y0048550D01*
X0811566Y0047800D01*
X0816065D02*
X0814565D01*
X0813815Y0048550D01*
Y0050049D01*
X0814565Y0050799D01*
X0816065D01*
X0816815Y0050049D01*
Y0049299D01*
X0813815D01*
X0818314Y0047800D02*
X0820563D01*
X0821313Y0048550D01*
X0820563Y0049299D01*
X0819064D01*
X0818314Y0050049D01*
X0819064Y0050799D01*
X0821313D01*
X0823562Y0051549D02*
Y0050799D01*
X0822812D01*
X0824312D01*
X0823562D01*
Y0048550D01*
X0824312Y0047800D01*
X0831060Y0050799D02*
Y0048550D01*
X0831810Y0047800D01*
X0834059D01*
Y0047050D01*
X0833309Y0046301D01*
X0832559D01*
X0834059Y0047800D02*
Y0050799D01*
X0836308Y0047800D02*
X0837808D01*
X0838558Y0048550D01*
Y0050049D01*
X0837808Y0050799D01*
X0836308D01*
X0835558Y0050049D01*
Y0048550D01*
X0836308Y0047800D01*
X0840057Y0050799D02*
Y0048550D01*
X0840807Y0047800D01*
X0843056D01*
Y0050799D01*
X0844555D02*
Y0047800D01*
Y0049299D01*
X0845305Y0050049D01*
X0846055Y0050799D01*
X0846805D01*
X0856552Y0052299D02*
Y0047800D01*
X0854302D01*
X0853553Y0048550D01*
Y0050049D01*
X0854302Y0050799D01*
X0856552D01*
X0860300Y0047800D02*
X0858801D01*
X0858051Y0048550D01*
Y0050049D01*
X0858801Y0050799D01*
X0860300D01*
X0861050Y0050049D01*
Y0049299D01*
X0858051D01*
X0862550Y0047800D02*
X0864799D01*
X0865549Y0048550D01*
X0864799Y0049299D01*
X0863299D01*
X0862550Y0050049D01*
X0863299Y0050799D01*
X0865549D01*
X0867048Y0047800D02*
X0868548D01*
X0867798D01*
Y0050799D01*
X0867048D01*
X0872297Y0046301D02*
X0873046D01*
X0873796Y0047050D01*
Y0050799D01*
X0871547D01*
X0870797Y0050049D01*
Y0048550D01*
X0871547Y0047800D01*
X0873796D01*
X0875296D02*
Y0050799D01*
X0877545D01*
X0878295Y0050049D01*
Y0047800D01*
X0884293D02*
X0885792D01*
X0885042D01*
Y0050799D01*
X0884293D01*
X0888041Y0047800D02*
Y0050799D01*
X0888791D01*
X0889541Y0050049D01*
Y0047800D01*
Y0050049D01*
X0890291Y0050799D01*
X0891041Y0050049D01*
Y0047800D01*
X0892540Y0046301D02*
Y0050799D01*
X0894789D01*
X0895539Y0050049D01*
Y0048550D01*
X0894789Y0047800D01*
X0892540D01*
X0897039D02*
X0898538D01*
X0897788D01*
Y0052299D01*
X0897039D01*
X0903037Y0047800D02*
X0901537D01*
X0900787Y0048550D01*
Y0050049D01*
X0901537Y0050799D01*
X0903037D01*
X0903786Y0050049D01*
Y0049299D01*
X0900787D01*
X0905286Y0047800D02*
Y0050799D01*
X0906036D01*
X0906785Y0050049D01*
Y0047800D01*
Y0050049D01*
X0907535Y0050799D01*
X0908285Y0050049D01*
Y0047800D01*
X0912034D02*
X0910534D01*
X0909785Y0048550D01*
Y0050049D01*
X0910534Y0050799D01*
X0912034D01*
X0912784Y0050049D01*
Y0049299D01*
X0909785D01*
X0914283Y0047800D02*
Y0050799D01*
X0916532D01*
X0917282Y0050049D01*
Y0047800D01*
X0919531Y0051549D02*
Y0050799D01*
X0918782D01*
X0920281D01*
X0919531D01*
Y0048550D01*
X0920281Y0047800D01*
X0923280Y0050799D02*
X0924780D01*
X0925529Y0050049D01*
Y0047800D01*
X0923280D01*
X0922530Y0048550D01*
X0923280Y0049299D01*
X0925529D01*
X0927779Y0051549D02*
Y0050799D01*
X0927029D01*
X0928528D01*
X0927779D01*
Y0048550D01*
X0928528Y0047800D01*
X0930778D02*
X0932277D01*
X0931528D01*
Y0050799D01*
X0930778D01*
X0935276Y0047800D02*
X0936776D01*
X0937525Y0048550D01*
Y0050049D01*
X0936776Y0050799D01*
X0935276D01*
X0934527Y0050049D01*
Y0048550D01*
X0935276Y0047800D01*
X0939025D02*
Y0050799D01*
X0941274D01*
X0942024Y0050049D01*
Y0047800D01*
X0948772Y0051549D02*
Y0050799D01*
X0948022D01*
X0949522D01*
X0948772D01*
Y0048550D01*
X0949522Y0047800D01*
X0952521D02*
X0954020D01*
X0954770Y0048550D01*
Y0050049D01*
X0954020Y0050799D01*
X0952521D01*
X0951771Y0050049D01*
Y0048550D01*
X0952521Y0047800D01*
X0963767Y0050799D02*
X0961518D01*
X0960768Y0050049D01*
Y0048550D01*
X0961518Y0047800D01*
X0963767D01*
X0966016D02*
X0967516D01*
X0968266Y0048550D01*
Y0050049D01*
X0967516Y0050799D01*
X0966016D01*
X0965267Y0050049D01*
Y0048550D01*
X0966016Y0047800D01*
X0969765D02*
Y0050799D01*
X0972014D01*
X0972764Y0050049D01*
Y0047800D01*
X0975014D02*
Y0051549D01*
Y0050049D01*
X0974264D01*
X0975763D01*
X0975014D01*
Y0051549D01*
X0975763Y0052299D01*
X0978012Y0047800D02*
X0979512D01*
X0978762D01*
Y0050799D01*
X0978012D01*
X0981761D02*
Y0047800D01*
Y0049299D01*
X0982511Y0050049D01*
X0983261Y0050799D01*
X0984011D01*
X0986260Y0047800D02*
Y0050799D01*
X0987010D01*
X0987759Y0050049D01*
Y0047800D01*
Y0050049D01*
X0988509Y0050799D01*
X0989259Y0050049D01*
Y0047800D01*
X0996007Y0051549D02*
Y0050799D01*
X0995257D01*
X0996756D01*
X0996007D01*
Y0048550D01*
X0996756Y0047800D01*
X0999006Y0052299D02*
Y0047800D01*
Y0050049D01*
X0999755Y0050799D01*
X1001255D01*
X1002005Y0050049D01*
Y0047800D01*
X1005754D02*
X1004254D01*
X1003504Y0048550D01*
Y0050049D01*
X1004254Y0050799D01*
X1005754D01*
X1006503Y0050049D01*
Y0049299D01*
X1003504D01*
X1012501Y0047800D02*
X1014751D01*
X1015500Y0048550D01*
X1014751Y0049299D01*
X1013251D01*
X1012501Y0050049D01*
X1013251Y0050799D01*
X1015500D01*
X1017000D02*
Y0048550D01*
X1017750Y0047800D01*
X1019999D01*
Y0047050D01*
X1019249Y0046301D01*
X1018499D01*
X1019999Y0047800D02*
Y0050799D01*
X1021498Y0047800D02*
X1023748D01*
X1024498Y0048550D01*
X1023748Y0049299D01*
X1022248D01*
X1021498Y0050049D01*
X1022248Y0050799D01*
X1024498D01*
X1026747Y0051549D02*
Y0050799D01*
X1025997D01*
X1027497D01*
X1026747D01*
Y0048550D01*
X1027497Y0047800D01*
X1031995D02*
X1030496D01*
X1029746Y0048550D01*
Y0050049D01*
X1030496Y0050799D01*
X1031995D01*
X1032745Y0050049D01*
Y0049299D01*
X1029746D01*
X1034244Y0047800D02*
Y0050799D01*
X1034994D01*
X1035744Y0050049D01*
Y0047800D01*
Y0050049D01*
X1036494Y0050799D01*
X1037243Y0050049D01*
Y0047800D01*
X1043991D02*
Y0051549D01*
Y0050049D01*
X1043242D01*
X1044741D01*
X1043991D01*
Y0051549D01*
X1044741Y0052299D01*
X1046990Y0050799D02*
Y0048550D01*
X1047740Y0047800D01*
X1049989D01*
Y0050799D01*
X1051489Y0047800D02*
Y0050799D01*
X1053738D01*
X1054488Y0050049D01*
Y0047800D01*
X1058986Y0050799D02*
X1056737D01*
X1055987Y0050049D01*
Y0048550D01*
X1056737Y0047800D01*
X1058986D01*
X1061236Y0051549D02*
Y0050799D01*
X1060486D01*
X1061985D01*
X1061236D01*
Y0048550D01*
X1061985Y0047800D01*
X1064235D02*
X1065734D01*
X1064984D01*
Y0050799D01*
X1064235D01*
X1068733Y0047800D02*
X1070233D01*
X1070982Y0048550D01*
Y0050049D01*
X1070233Y0050799D01*
X1068733D01*
X1067984Y0050049D01*
Y0048550D01*
X1068733Y0047800D01*
X1072482D02*
Y0050799D01*
X1074731D01*
X1075481Y0050049D01*
Y0047800D01*
X1077730Y0050799D02*
X1079230D01*
X1079980Y0050049D01*
Y0047800D01*
X1077730D01*
X1076981Y0048550D01*
X1077730Y0049299D01*
X1079980D01*
X1081479Y0047800D02*
X1082979D01*
X1082229D01*
Y0052299D01*
X1081479D01*
X1085228Y0047800D02*
X1086727D01*
X1085978D01*
Y0050799D01*
X1085228D01*
X1089727Y0051549D02*
Y0050799D01*
X1088977D01*
X1090476D01*
X1089727D01*
Y0048550D01*
X1090476Y0047800D01*
X1092725Y0050799D02*
Y0048550D01*
X1093475Y0047800D01*
X1095724D01*
Y0047050D01*
X1094975Y0046301D01*
X1094225D01*
X1095724Y0047800D02*
Y0050799D01*
X1102472Y0047800D02*
Y0051549D01*
Y0050049D01*
X1101723D01*
X1103222D01*
X1102472D01*
Y0051549D01*
X1103222Y0052299D01*
X1106221Y0047800D02*
X1107721D01*
X1108470Y0048550D01*
Y0050049D01*
X1107721Y0050799D01*
X1106221D01*
X1105471Y0050049D01*
Y0048550D01*
X1106221Y0047800D01*
X1109970Y0050799D02*
Y0047800D01*
Y0049299D01*
X1110720Y0050049D01*
X1111469Y0050799D01*
X1112219D01*
X1118967D02*
Y0048550D01*
X1119717Y0047800D01*
X1121966D01*
Y0047050D01*
X1121216Y0046301D01*
X1120467D01*
X1121966Y0047800D02*
Y0050799D01*
X1124215Y0047800D02*
X1125715D01*
X1126465Y0048550D01*
Y0050049D01*
X1125715Y0050799D01*
X1124215D01*
X1123466Y0050049D01*
Y0048550D01*
X1124215Y0047800D01*
X1127964Y0050799D02*
Y0048550D01*
X1128714Y0047800D01*
X1130963D01*
Y0050799D01*
X1132463D02*
Y0047800D01*
Y0049299D01*
X1133212Y0050049D01*
X1133962Y0050799D01*
X1134712D01*
X1142210D02*
X1143709D01*
X1144459Y0050049D01*
Y0047800D01*
X1142210D01*
X1141460Y0048550D01*
X1142210Y0049299D01*
X1144459D01*
X1145958Y0046301D02*
Y0050799D01*
X1148208D01*
X1148957Y0050049D01*
Y0048550D01*
X1148208Y0047800D01*
X1145958D01*
X1150457Y0046301D02*
Y0050799D01*
X1152706D01*
X1153456Y0050049D01*
Y0048550D01*
X1152706Y0047800D01*
X1150457D01*
X1154955D02*
X1156455D01*
X1155705D01*
Y0052299D01*
X1154955D01*
X1158704Y0047800D02*
X1160204D01*
X1159454D01*
Y0050799D01*
X1158704D01*
X1165452D02*
X1163203D01*
X1162453Y0050049D01*
Y0048550D01*
X1163203Y0047800D01*
X1165452D01*
X1167701Y0050799D02*
X1169201D01*
X1169951Y0050049D01*
Y0047800D01*
X1167701D01*
X1166952Y0048550D01*
X1167701Y0049299D01*
X1169951D01*
X1172200Y0051549D02*
Y0050799D01*
X1171450D01*
X1172950D01*
X1172200D01*
Y0048550D01*
X1172950Y0047800D01*
X1175199D02*
X1176698D01*
X1175949D01*
Y0050799D01*
X1175199D01*
X1179698Y0047800D02*
X1181197D01*
X1181947Y0048550D01*
Y0050049D01*
X1181197Y0050799D01*
X1179698D01*
X1178948Y0050049D01*
Y0048550D01*
X1179698Y0047800D01*
X1183446D02*
Y0050799D01*
X1185695D01*
X1186445Y0050049D01*
Y0047800D01*
X1187945D02*
Y0048550D01*
X1188695D01*
Y0047800D01*
X1187945D01*
G54D16*
X1354050Y0096549D02*
Y0092050D01*
X1356621D01*
X1360542D02*
X1358827Y0096549D01*
X1357114Y0092050D01*
X1357756Y0093550D02*
X1359899D01*
X1361591Y0096549D02*
X1363305Y0094407D01*
Y0092050D01*
X1365019Y0096549D02*
X1363305Y0094407D01*
X1366883Y0096549D02*
X1366455Y0096335D01*
X1366026Y0095906D01*
X1365812Y0095478D01*
X1365598Y0094835D01*
Y0093764D01*
X1365812Y0093121D01*
X1366026Y0092693D01*
X1366455Y0092264D01*
X1366883Y0092050D01*
X1367740D01*
X1368168Y0092264D01*
X1368597Y0092693D01*
X1368811Y0093121D01*
X1369025Y0093764D01*
Y0094835D01*
X1368811Y0095478D01*
X1368597Y0095906D01*
X1368168Y0096335D01*
X1367740Y0096549D01*
X1366883D01*
X1370075D02*
Y0093335D01*
X1370289Y0092693D01*
X1370718Y0092264D01*
X1371361Y0092050D01*
X1371789D01*
X1372432Y0092264D01*
X1372860Y0092693D01*
X1373075Y0093335D01*
Y0096549D01*
X1375817D02*
Y0092050D01*
X1374317Y0096549D02*
X1377316D01*
X1381387D02*
Y0092050D01*
Y0096549D02*
X1383315D01*
X1383958Y0096335D01*
X1384172Y0096121D01*
X1384386Y0095692D01*
Y0095264D01*
X1384172Y0094835D01*
X1383958Y0094621D01*
X1383315Y0094407D01*
X1381387D02*
X1383315D01*
X1383958Y0094192D01*
X1384172Y0093978D01*
X1384386Y0093550D01*
Y0092907D01*
X1384172Y0092479D01*
X1383958Y0092264D01*
X1383315Y0092050D01*
X1381387D01*
X1385393Y0096549D02*
X1387107Y0094407D01*
Y0092050D01*
X1388821Y0096549D02*
X1387107Y0094407D01*
X1389614Y0095049D02*
X1389400Y0094835D01*
X1389614Y0094621D01*
X1389828Y0094835D01*
X1389614Y0095049D01*
Y0092479D02*
X1389400Y0092264D01*
X1389614Y0092050D01*
X1389828Y0092264D01*
X1389614Y0092479D01*
X1357478Y0061050D02*
X1355764Y0065549D01*
X1354050Y0061050D01*
X1354693Y0062550D02*
X1356835D01*
X1358528Y0065549D02*
Y0061050D01*
X1361098D01*
X1363091Y0065549D02*
Y0061050D01*
X1361591Y0065549D02*
X1364591D01*
X1365126D02*
Y0061050D01*
X1366069Y0065549D02*
Y0062335D01*
X1366283Y0061693D01*
X1366712Y0061264D01*
X1367354Y0061050D01*
X1367783D01*
X1368425Y0061264D01*
X1368854Y0061693D01*
X1369068Y0062335D01*
Y0065549D01*
X1370311D02*
Y0061050D01*
Y0065549D02*
X1372025Y0061050D01*
X1373739Y0065549D02*
X1372025Y0061050D01*
X1373739Y0065549D02*
Y0061050D01*
X1378559Y0065549D02*
Y0061050D01*
Y0065549D02*
X1380059D01*
X1380701Y0065335D01*
X1381130Y0064906D01*
X1381344Y0064478D01*
X1381558Y0063835D01*
Y0062764D01*
X1381344Y0062121D01*
X1381130Y0061693D01*
X1380701Y0061264D01*
X1380059Y0061050D01*
X1378559D01*
X1385350Y0065549D02*
X1382565D01*
Y0061050D01*
X1385350D01*
X1382565Y0063407D02*
X1384279D01*
X1389100Y0064906D02*
X1388671Y0065335D01*
X1388028Y0065549D01*
X1387171D01*
X1386529Y0065335D01*
X1386100Y0064906D01*
Y0064478D01*
X1386314Y0064049D01*
X1386529Y0063835D01*
X1386957Y0063621D01*
X1388243Y0063192D01*
X1388671Y0062978D01*
X1388885Y0062764D01*
X1389100Y0062335D01*
Y0061693D01*
X1388671Y0061264D01*
X1388028Y0061050D01*
X1387171D01*
X1386529Y0061264D01*
X1386100Y0061693D01*
X1390107Y0065549D02*
Y0061050D01*
X1394263Y0064478D02*
X1394049Y0064906D01*
X1393620Y0065335D01*
X1393192Y0065549D01*
X1392335D01*
X1391906Y0065335D01*
X1391478Y0064906D01*
X1391263Y0064478D01*
X1391049Y0063835D01*
Y0062764D01*
X1391263Y0062121D01*
X1391478Y0061693D01*
X1391906Y0061264D01*
X1392335Y0061050D01*
X1393192D01*
X1393620Y0061264D01*
X1394049Y0061693D01*
X1394263Y0062121D01*
Y0062764D01*
X1393192D02*
X1394263D01*
X1395291Y0065549D02*
Y0061050D01*
Y0065549D02*
X1398291Y0061050D01*
Y0065549D02*
Y0061050D01*
X1402318Y0065549D02*
X1399533D01*
Y0061050D01*
X1402318D01*
X1399533Y0063407D02*
X1401247D01*
X1403068Y0065549D02*
Y0061050D01*
Y0065549D02*
X1404996D01*
X1405639Y0065335D01*
X1405853Y0065121D01*
X1406067Y0064692D01*
Y0064264D01*
X1405853Y0063835D01*
X1405639Y0063621D01*
X1404996Y0063407D01*
X1403068D01*
X1404568D02*
X1406067Y0061050D01*
X1410609Y0065549D02*
X1412323Y0061050D01*
X1414037Y0065549D02*
X1412323Y0061050D01*
X1417401Y0065549D02*
X1414616D01*
Y0061050D01*
X1417401D01*
X1414616Y0063407D02*
X1416329D01*
X1418151Y0065549D02*
Y0061050D01*
Y0065549D02*
X1420079D01*
X1420722Y0065335D01*
X1420936Y0065121D01*
X1421150Y0064692D01*
Y0064264D01*
X1420936Y0063835D01*
X1420722Y0063621D01*
X1420079Y0063407D01*
X1418151D01*
X1419650D02*
X1421150Y0061050D01*
X1425156Y0064906D02*
X1424728Y0065335D01*
X1424085Y0065549D01*
X1423228D01*
X1422585Y0065335D01*
X1422157Y0064906D01*
Y0064478D01*
X1422371Y0064049D01*
X1422585Y0063835D01*
X1423014Y0063621D01*
X1424299Y0063192D01*
X1424728Y0062978D01*
X1424942Y0062764D01*
X1425156Y0062335D01*
Y0061693D01*
X1424728Y0061264D01*
X1424085Y0061050D01*
X1423228D01*
X1422585Y0061264D01*
X1422157Y0061693D01*
X1426163Y0065549D02*
Y0061050D01*
X1428391Y0065549D02*
X1427963Y0065335D01*
X1427534Y0064906D01*
X1427320Y0064478D01*
X1427106Y0063835D01*
Y0062764D01*
X1427320Y0062121D01*
X1427534Y0061693D01*
X1427963Y0061264D01*
X1428391Y0061050D01*
X1429248D01*
X1429677Y0061264D01*
X1430105Y0061693D01*
X1430319Y0062121D01*
X1430534Y0062764D01*
Y0063835D01*
X1430319Y0064478D01*
X1430105Y0064906D01*
X1429677Y0065335D01*
X1429248Y0065549D01*
X1428391D01*
X1431583D02*
Y0061050D01*
Y0065549D02*
X1434583Y0061050D01*
Y0065549D02*
Y0061050D01*
X1436040Y0064049D02*
X1435825Y0063835D01*
X1436040Y0063621D01*
X1436254Y0063835D01*
X1436040Y0064049D01*
Y0061479D02*
X1435825Y0061264D01*
X1436040Y0061050D01*
X1436254Y0061264D01*
X1436040Y0061479D01*
X1203550Y0183292D02*
X1205478D01*
X1206121Y0183507D01*
X1206335Y0183721D01*
X1206549Y0184149D01*
Y0184792D01*
X1206335Y0185221D01*
X1206121Y0185435D01*
X1205478Y0185649D01*
X1203550D01*
Y0181150D01*
X1207556Y0185649D02*
Y0181150D01*
Y0185649D02*
X1209484D01*
X1210127Y0185435D01*
X1210341Y0185221D01*
X1210556Y0184792D01*
Y0184364D01*
X1210341Y0183935D01*
X1210127Y0183721D01*
X1209484Y0183507D01*
X1207556D01*
X1209056D02*
X1210556Y0181150D01*
X1212848Y0185649D02*
X1212420Y0185435D01*
X1211991Y0185006D01*
X1211777Y0184578D01*
X1211563Y0183935D01*
Y0182864D01*
X1211777Y0182221D01*
X1211991Y0181793D01*
X1212420Y0181364D01*
X1212848Y0181150D01*
X1213705D01*
X1214133Y0181364D01*
X1214562Y0181793D01*
X1214776Y0182221D01*
X1214990Y0182864D01*
Y0183935D01*
X1214776Y0184578D01*
X1214562Y0185006D01*
X1214133Y0185435D01*
X1213705Y0185649D01*
X1212848D01*
X1218183D02*
Y0182221D01*
X1217968Y0181579D01*
X1217754Y0181364D01*
X1217326Y0181150D01*
X1216897D01*
X1216469Y0181364D01*
X1216254Y0181579D01*
X1216040Y0182221D01*
Y0182650D01*
X1222125Y0185649D02*
X1219339D01*
Y0181150D01*
X1222125D01*
X1219339Y0183507D02*
X1221053D01*
X1226088Y0184578D02*
X1225874Y0185006D01*
X1225445Y0185435D01*
X1225017Y0185649D01*
X1224160D01*
X1223731Y0185435D01*
X1223303Y0185006D01*
X1223089Y0184578D01*
X1222874Y0183935D01*
Y0182864D01*
X1223089Y0182221D01*
X1223303Y0181793D01*
X1223731Y0181364D01*
X1224160Y0181150D01*
X1225017D01*
X1225445Y0181364D01*
X1225874Y0181793D01*
X1226088Y0182221D01*
X1228852Y0185649D02*
Y0181150D01*
X1227352Y0185649D02*
X1230351D01*
X1235922D02*
Y0181150D01*
X1234422Y0185649D02*
X1237421D01*
X1237957D02*
Y0181150D01*
X1240399Y0185649D02*
Y0181150D01*
X1238900Y0185649D02*
X1241899D01*
X1242435D02*
Y0181150D01*
X1245005D01*
X1248283Y0185649D02*
X1245498D01*
Y0181150D01*
X1248283D01*
X1245498Y0183507D02*
X1247212D01*
X1249247Y0184149D02*
X1249033Y0183935D01*
X1249247Y0183721D01*
X1249462Y0183935D01*
X1249247Y0184149D01*
Y0181579D02*
X1249033Y0181364D01*
X1249247Y0181150D01*
X1249462Y0181364D01*
X1249247Y0181579D01*
X1203550Y0155549D02*
Y0151050D01*
Y0155549D02*
X1205050D01*
X1205692Y0155335D01*
X1206121Y0154906D01*
X1206335Y0154478D01*
X1206549Y0153835D01*
Y0152764D01*
X1206335Y0152121D01*
X1206121Y0151693D01*
X1205692Y0151264D01*
X1205050Y0151050D01*
X1203550D01*
X1210341Y0155549D02*
X1207556D01*
Y0151050D01*
X1210341D01*
X1207556Y0153407D02*
X1209270D01*
X1214091Y0154906D02*
X1213662Y0155335D01*
X1213019Y0155549D01*
X1212162D01*
X1211520Y0155335D01*
X1211091Y0154906D01*
Y0154478D01*
X1211306Y0154049D01*
X1211520Y0153835D01*
X1211948Y0153621D01*
X1213234Y0153192D01*
X1213662Y0152978D01*
X1213876Y0152764D01*
X1214091Y0152335D01*
Y0151693D01*
X1213662Y0151264D01*
X1213019Y0151050D01*
X1212162D01*
X1211520Y0151264D01*
X1211091Y0151693D01*
X1215098Y0155549D02*
Y0151050D01*
X1219254Y0154478D02*
X1219040Y0154906D01*
X1218611Y0155335D01*
X1218183Y0155549D01*
X1217326D01*
X1216897Y0155335D01*
X1216469Y0154906D01*
X1216254Y0154478D01*
X1216040Y0153835D01*
Y0152764D01*
X1216254Y0152121D01*
X1216469Y0151693D01*
X1216897Y0151264D01*
X1217326Y0151050D01*
X1218183D01*
X1218611Y0151264D01*
X1219040Y0151693D01*
X1219254Y0152121D01*
Y0152764D01*
X1218183D02*
X1219254D01*
X1220282Y0155549D02*
Y0151050D01*
Y0155549D02*
X1223281Y0151050D01*
Y0155549D02*
Y0151050D01*
X1227309Y0155549D02*
X1224524D01*
Y0151050D01*
X1227309D01*
X1224524Y0153407D02*
X1226238D01*
X1228059Y0155549D02*
Y0151050D01*
Y0155549D02*
X1229559D01*
X1230201Y0155335D01*
X1230630Y0154906D01*
X1230844Y0154478D01*
X1231058Y0153835D01*
Y0152764D01*
X1230844Y0152121D01*
X1230630Y0151693D01*
X1230201Y0151264D01*
X1229559Y0151050D01*
X1228059D01*
X1235600Y0155549D02*
Y0151050D01*
Y0155549D02*
X1238385D01*
X1235600Y0153407D02*
X1237314D01*
X1240185Y0155549D02*
X1239756Y0155335D01*
X1239328Y0154906D01*
X1239114Y0154478D01*
X1238900Y0153835D01*
Y0152764D01*
X1239114Y0152121D01*
X1239328Y0151693D01*
X1239756Y0151264D01*
X1240185Y0151050D01*
X1241042D01*
X1241470Y0151264D01*
X1241899Y0151693D01*
X1242113Y0152121D01*
X1242327Y0152764D01*
Y0153835D01*
X1242113Y0154478D01*
X1241899Y0154906D01*
X1241470Y0155335D01*
X1241042Y0155549D01*
X1240185D01*
X1243377D02*
Y0151050D01*
Y0155549D02*
X1245305D01*
X1245948Y0155335D01*
X1246162Y0155121D01*
X1246377Y0154692D01*
Y0154264D01*
X1246162Y0153835D01*
X1245948Y0153621D01*
X1245305Y0153407D01*
X1243377D01*
X1244877D02*
X1246377Y0151050D01*
X1247598Y0154049D02*
X1247383Y0153835D01*
X1247598Y0153621D01*
X1247812Y0153835D01*
X1247598Y0154049D01*
Y0151479D02*
X1247383Y0151264D01*
X1247598Y0151050D01*
X1247812Y0151264D01*
X1247598Y0151479D01*
X1203550Y0125549D02*
Y0121050D01*
Y0125549D02*
X1206335D01*
X1203550Y0123407D02*
X1205264D01*
X1206849Y0125549D02*
Y0121050D01*
X1207792Y0125549D02*
Y0121050D01*
X1210363D01*
X1213641Y0125549D02*
X1210856D01*
Y0121050D01*
X1213641D01*
X1210856Y0123407D02*
X1212570D01*
X1217925Y0125549D02*
Y0121050D01*
Y0125549D02*
X1220925Y0121050D01*
Y0125549D02*
Y0121050D01*
X1225595D02*
X1223881Y0125549D01*
X1222167Y0121050D01*
X1222810Y0122550D02*
X1224953D01*
X1226645Y0125549D02*
Y0121050D01*
Y0125549D02*
X1228359Y0121050D01*
X1230073Y0125549D02*
X1228359Y0121050D01*
X1230073Y0125549D02*
Y0121050D01*
X1234144Y0125549D02*
X1231358D01*
Y0121050D01*
X1234144D01*
X1231358Y0123407D02*
X1233072D01*
X1235108Y0124049D02*
X1234893Y0123835D01*
X1235108Y0123621D01*
X1235322Y0123835D01*
X1235108Y0124049D01*
Y0121478D02*
X1234893Y0121264D01*
X1235108Y0121050D01*
X1235322Y0121264D01*
X1235108Y0121478D01*
X1206335Y0096549D02*
X1203550D01*
Y0092050D01*
X1206335D01*
X1203550Y0094407D02*
X1205264D01*
X1207085Y0096549D02*
Y0092050D01*
Y0096549D02*
X1210084Y0092050D01*
Y0096549D02*
Y0092050D01*
X1214540Y0095478D02*
X1214326Y0095906D01*
X1213898Y0096335D01*
X1213469Y0096549D01*
X1212612D01*
X1212184Y0096335D01*
X1211755Y0095906D01*
X1211541Y0095478D01*
X1211327Y0094835D01*
Y0093764D01*
X1211541Y0093121D01*
X1211755Y0092693D01*
X1212184Y0092264D01*
X1212612Y0092050D01*
X1213469D01*
X1213898Y0092264D01*
X1214326Y0092693D01*
X1214540Y0093121D01*
Y0093764D01*
X1213469D02*
X1214540D01*
X1215569Y0096549D02*
Y0092050D01*
X1216512Y0096549D02*
Y0092050D01*
Y0096549D02*
X1219511Y0092050D01*
Y0096549D02*
Y0092050D01*
X1223539Y0096549D02*
X1220753D01*
Y0092050D01*
X1223539D01*
X1220753Y0094407D02*
X1222467D01*
X1227074Y0096549D02*
X1224288D01*
Y0092050D01*
X1227074D01*
X1224288Y0094407D02*
X1226002D01*
X1227823Y0096549D02*
Y0092050D01*
Y0096549D02*
X1229751D01*
X1230394Y0096335D01*
X1230608Y0096121D01*
X1230823Y0095692D01*
Y0095264D01*
X1230608Y0094835D01*
X1230394Y0094621D01*
X1229751Y0094407D01*
X1227823D01*
X1229323D02*
X1230823Y0092050D01*
X1232044Y0095049D02*
X1231830Y0094835D01*
X1232044Y0094621D01*
X1232258Y0094835D01*
X1232044Y0095049D01*
Y0092479D02*
X1231830Y0092264D01*
X1232044Y0092050D01*
X1232258Y0092264D01*
X1232044Y0092479D01*
G54D20*
X0567400Y0087833D02*
Y0093831D01*
X0571399Y0087833D01*
Y0093831D01*
X0574398Y0087833D02*
X0576397D01*
X0577397Y0088833D01*
Y0090832D01*
X0576397Y0091832D01*
X0574398D01*
X0573398Y0090832D01*
Y0088833D01*
X0574398Y0087833D01*
X0580396Y0092832D02*
Y0091832D01*
X0579396D01*
X0581395D01*
X0580396D01*
Y0088833D01*
X0581395Y0087833D01*
X0590393D02*
X0592392D01*
X0591392D01*
Y0091832D01*
X0590393D01*
X0595391Y0087833D02*
Y0091832D01*
X0598390D01*
X0599390Y0090832D01*
Y0087833D01*
X0607387Y0091832D02*
X0609386Y0087833D01*
X0611386Y0091832D01*
X0616384Y0087833D02*
X0614385D01*
X0613385Y0088833D01*
Y0090832D01*
X0614385Y0091832D01*
X0616384D01*
X0617384Y0090832D01*
Y0089833D01*
X0613385D01*
X0619383Y0091832D02*
Y0087833D01*
Y0089833D01*
X0620383Y0090832D01*
X0621383Y0091832D01*
X0622382D01*
X0625381Y0087833D02*
X0628380D01*
X0629380Y0088833D01*
X0628380Y0089833D01*
X0626381D01*
X0625381Y0090832D01*
X0626381Y0091832D01*
X0629380D01*
X0631379Y0087833D02*
X0633379D01*
X0632379D01*
Y0091832D01*
X0631379D01*
X0637377Y0087833D02*
X0639377D01*
X0640376Y0088833D01*
Y0090832D01*
X0639377Y0091832D01*
X0637377D01*
X0636378Y0090832D01*
Y0088833D01*
X0637377Y0087833D01*
X0642376D02*
Y0091832D01*
X0645375D01*
X0646374Y0090832D01*
Y0087833D01*
X0658371Y0091832D02*
X0655372D01*
X0654372Y0090832D01*
Y0088833D01*
X0655372Y0087833D01*
X0658371D01*
X0661370D02*
X0663369D01*
X0664369Y0088833D01*
Y0090832D01*
X0663369Y0091832D01*
X0661370D01*
X0660370Y0090832D01*
Y0088833D01*
X0661370Y0087833D01*
X0666368D02*
Y0091832D01*
X0669367D01*
X0670367Y0090832D01*
Y0087833D01*
X0673366Y0092832D02*
Y0091832D01*
X0672366D01*
X0674365D01*
X0673366D01*
Y0088833D01*
X0674365Y0087833D01*
X0677364Y0091832D02*
Y0087833D01*
Y0089833D01*
X0678364Y0090832D01*
X0679364Y0091832D01*
X0680364D01*
X0684362Y0087833D02*
X0686362D01*
X0687361Y0088833D01*
Y0090832D01*
X0686362Y0091832D01*
X0684362D01*
X0683362Y0090832D01*
Y0088833D01*
X0684362Y0087833D01*
X0689361D02*
X0691360D01*
X0690360D01*
Y0093831D01*
X0689361D01*
X0520799Y0092832D02*
X0519799Y0093831D01*
X0517800D01*
X0516800Y0092832D01*
Y0091832D01*
X0517800Y0090832D01*
X0519799D01*
X0520799Y0089833D01*
Y0088833D01*
X0519799Y0087833D01*
X0517800D01*
X0516800Y0088833D01*
X0522798Y0093831D02*
Y0089833D01*
X0524797Y0087833D01*
X0526797Y0089833D01*
Y0093831D01*
X0528796Y0087833D02*
Y0093831D01*
X0532795Y0087833D01*
Y0093831D01*
X0540792Y0087833D02*
Y0093831D01*
X0543791D01*
X0544791Y0092832D01*
Y0090832D01*
X0543791Y0089833D01*
X0540792D01*
X0542792D02*
X0544791Y0087833D01*
X0550789Y0093831D02*
X0546790D01*
Y0087833D01*
X0550789D01*
X0546790Y0090832D02*
X0548790D01*
X0552788Y0093831D02*
Y0089833D01*
X0554788Y0087833D01*
X0556787Y0089833D01*
Y0093831D01*
X0558786Y0091832D02*
X0559786D01*
Y0090832D01*
X0558786D01*
Y0091832D01*
Y0088833D02*
X0559786D01*
Y0087833D01*
X0558786D01*
Y0088833D01*
X0433000Y0087833D02*
Y0093831D01*
X0435999D01*
X0436999Y0092832D01*
Y0090832D01*
X0435999Y0089833D01*
X0433000D01*
X0434999D02*
X0436999Y0087833D01*
X0442997Y0093831D02*
X0438998D01*
Y0087833D01*
X0442997D01*
X0438998Y0090832D02*
X0440997D01*
X0444996Y0093831D02*
Y0089833D01*
X0446995Y0087833D01*
X0448995Y0089833D01*
Y0093831D01*
X0450994Y0091832D02*
X0451994D01*
Y0090832D01*
X0450994D01*
Y0091832D01*
Y0088833D02*
X0451994D01*
Y0087833D01*
X0450994D01*
Y0088833D01*
X0126900Y0052965D02*
X0130899D01*
Y0051965D01*
X0126900Y0047966D01*
Y0046966D01*
X0132898D02*
X0134897D01*
X0133898D01*
Y0052965D01*
X0132898Y0051965D01*
X0137896D02*
X0138896Y0052965D01*
X0140895D01*
X0141895Y0051965D01*
Y0047966D01*
X0140895Y0046966D01*
X0138896D01*
X0137896Y0047966D01*
Y0051965D01*
X0143895D02*
X0144894Y0052965D01*
X0146894D01*
X0147893Y0051965D01*
Y0047966D01*
X0146894Y0046966D01*
X0144894D01*
X0143895Y0047966D01*
Y0051965D01*
X0149893Y0049966D02*
X0153891D01*
X0155891Y0051965D02*
X0156890Y0052965D01*
X0158890D01*
X0159889Y0051965D01*
Y0047966D01*
X0158890Y0046966D01*
X0156890D01*
X0155891Y0047966D01*
Y0051965D01*
X0161889D02*
X0162888Y0052965D01*
X0164888D01*
X0165887Y0051965D01*
Y0047966D01*
X0164888Y0046966D01*
X0162888D01*
X0161889Y0047966D01*
Y0051965D01*
X0167887D02*
X0168886Y0052965D01*
X0170886D01*
X0171885Y0051965D01*
Y0047966D01*
X0170886Y0046966D01*
X0168886D01*
X0167887Y0047966D01*
Y0051965D01*
X0173885D02*
X0174884Y0052965D01*
X0176884D01*
X0177884Y0051965D01*
Y0047966D01*
X0176884Y0046966D01*
X0174884D01*
X0173885Y0047966D01*
Y0051965D01*
X0179883D02*
X0180883Y0052965D01*
X0182882D01*
X0183882Y0051965D01*
Y0050965D01*
X0182882Y0049966D01*
X0181882D01*
X0182882D01*
X0183882Y0048966D01*
Y0047966D01*
X0182882Y0046966D01*
X0180883D01*
X0179883Y0047966D01*
X0191879Y0052965D02*
Y0047966D01*
X0192879Y0046966D01*
X0194878D01*
X0195878Y0047966D01*
Y0052965D01*
X0201876Y0051965D02*
X0200876Y0052965D01*
X0198877D01*
X0197877Y0051965D01*
Y0050965D01*
X0198877Y0049966D01*
X0200876D01*
X0201876Y0048966D01*
Y0047966D01*
X0200876Y0046966D01*
X0198877D01*
X0197877Y0047966D01*
X0203875Y0052965D02*
X0207874D01*
X0205874D01*
Y0046966D01*
X0209873Y0050965D02*
X0213872Y0046966D01*
X0211873Y0048966D01*
X0213872Y0050965D01*
X0209873Y0046966D01*
X0221869Y0052965D02*
Y0046966D01*
X0224868D01*
X0225868Y0047966D01*
Y0048966D01*
X0224868Y0049966D01*
X0221869D01*
X0224868D01*
X0225868Y0050965D01*
Y0051965D01*
X0224868Y0052965D01*
X0221869D01*
X0228867Y0046966D02*
X0230866D01*
X0231866Y0047966D01*
Y0049966D01*
X0230866Y0050965D01*
X0228867D01*
X0227867Y0049966D01*
Y0047966D01*
X0228867Y0046966D01*
X0234865Y0050965D02*
X0236864D01*
X0237864Y0049966D01*
Y0046966D01*
X0234865D01*
X0233865Y0047966D01*
X0234865Y0048966D01*
X0237864D01*
X0239863Y0050965D02*
Y0046966D01*
Y0048966D01*
X0240863Y0049966D01*
X0241863Y0050965D01*
X0242863D01*
X0249860Y0052965D02*
Y0046966D01*
X0246861D01*
X0245862Y0047966D01*
Y0049966D01*
X0246861Y0050965D01*
X0249860D01*
X0257858Y0052965D02*
Y0048966D01*
X0259857Y0046966D01*
X0261856Y0048966D01*
Y0052965D01*
X0263856Y0046966D02*
Y0047966D01*
X0264855D01*
Y0046966D01*
X0263856D01*
X0268854Y0051965D02*
X0269854Y0052965D01*
X0271853D01*
X0272853Y0051965D01*
Y0047966D01*
X0271853Y0046966D01*
X0269854D01*
X0268854Y0047966D01*
Y0051965D01*
X0274852Y0046966D02*
Y0047966D01*
X0275852D01*
Y0046966D01*
X0274852D01*
X0282850D02*
Y0052965D01*
X0279851Y0049966D01*
X0283849D01*
X0285849Y0046966D02*
Y0047966D01*
X0286848D01*
Y0046966D01*
X0285849D01*
X0290847D02*
X0292846D01*
X0291847D01*
Y0052965D01*
X0290847Y0051965D01*
X0295845Y0046966D02*
Y0047966D01*
X0296845D01*
Y0046966D01*
X0295845D01*
X0304842Y0051965D02*
X0303843Y0052965D01*
X0301843D01*
X0300844Y0051965D01*
Y0047966D01*
X0301843Y0046966D01*
X0303843D01*
X0304842Y0047966D01*
Y0049966D01*
X0302843D01*
X0306842Y0046966D02*
Y0052965D01*
X0308841Y0050965D01*
X0310841Y0052965D01*
Y0046966D01*
X0312840Y0047966D02*
X0313840Y0046966D01*
X0315839D01*
X0316839Y0047966D01*
Y0051965D01*
X0315839Y0052965D01*
X0313840D01*
X0312840Y0051965D01*
Y0050965D01*
X0313840Y0049966D01*
X0316839D01*
X0381150Y0046966D02*
X0383149D01*
X0382150D01*
Y0052965D01*
X0381150Y0051965D01*
X0386148Y0046966D02*
X0390147Y0050965D01*
X0396145Y0046966D02*
X0392146D01*
X0396145Y0050965D01*
Y0051965D01*
X0395146Y0052965D01*
X0393146D01*
X0392146Y0051965D01*
X0398145D02*
X0399144Y0052965D01*
X0401144D01*
X0402143Y0051965D01*
Y0050965D01*
X0401144Y0049966D01*
X0402143Y0048966D01*
Y0047966D01*
X0401144Y0046966D01*
X0399144D01*
X0398145Y0047966D01*
Y0048966D01*
X0399144Y0049966D01*
X0398145Y0050965D01*
Y0051965D01*
X0399144Y0049966D02*
X0401144D01*
X0404143Y0046966D02*
X0408141Y0050965D01*
X0414139Y0046966D02*
X0410141D01*
X0414139Y0050965D01*
Y0051965D01*
X0413140Y0052965D01*
X0411140D01*
X0410141Y0051965D01*
X0416139D02*
X0417138Y0052965D01*
X0419138D01*
X0420137Y0051965D01*
Y0047966D01*
X0419138Y0046966D01*
X0417138D01*
X0416139Y0047966D01*
Y0051965D01*
X0426135Y0046966D02*
X0422137D01*
X0426135Y0050965D01*
Y0051965D01*
X0425136Y0052965D01*
X0423136D01*
X0422137Y0051965D01*
X0432133Y0052965D02*
X0428135D01*
Y0049966D01*
X0430134Y0050965D01*
X0431134D01*
X0432133Y0049966D01*
Y0047966D01*
X0431134Y0046966D01*
X0429135D01*
X0428135Y0047966D01*
X0298199Y0051965D02*
X0297199Y0052965D01*
X0295200D01*
X0294200Y0051965D01*
Y0047966D01*
X0295200Y0046966D01*
X0297199D01*
X0298199Y0047966D01*
Y0049966D01*
X0296199D01*
X0304197Y0052965D02*
X0300198D01*
Y0046966D01*
X0304197D01*
X0300198Y0049966D02*
X0302197D01*
X0306196Y0046966D02*
Y0052965D01*
X0310195Y0046966D01*
Y0052965D01*
X0316193D02*
X0312194D01*
Y0046966D01*
X0316193D01*
X0312194Y0049966D02*
X0314194D01*
X0318192Y0046966D02*
Y0052965D01*
X0321191D01*
X0322191Y0051965D01*
Y0049966D01*
X0321191Y0048966D01*
X0318192D01*
X0320192D02*
X0322191Y0046966D01*
X0324190D02*
Y0050965D01*
X0326190Y0052965D01*
X0328189Y0050965D01*
Y0046966D01*
Y0049966D01*
X0324190D01*
X0330188Y0052965D02*
X0334187D01*
X0332188D01*
Y0046966D01*
X0340185Y0052965D02*
X0336186D01*
Y0046966D01*
X0340185D01*
X0336186Y0049966D02*
X0338186D01*
X0342184Y0052965D02*
Y0046966D01*
X0345183D01*
X0346183Y0047966D01*
Y0051965D01*
X0345183Y0052965D01*
X0342184D01*
X0372175Y0050965D02*
X0373175D01*
Y0049966D01*
X0372175D01*
Y0050965D01*
Y0047966D02*
X0373175D01*
Y0046966D01*
X0372175D01*
Y0047966D01*
X0041778Y0083375D02*
Y0087374D01*
X0043777Y0089373D01*
X0045777Y0087374D01*
Y0083375D01*
Y0086374D01*
X0041778D01*
X0047776Y0089373D02*
Y0083375D01*
X0051775D01*
X0053774Y0089373D02*
Y0083375D01*
X0057773D01*
X0065770D02*
Y0087374D01*
X0067769Y0089373D01*
X0069769Y0087374D01*
Y0083375D01*
Y0086374D01*
X0065770D01*
X0071768Y0083375D02*
Y0089373D01*
X0074767D01*
X0075767Y0088373D01*
Y0086374D01*
X0074767Y0085374D01*
X0071768D01*
X0073768D02*
X0075767Y0083375D01*
X0077766Y0089373D02*
X0081765D01*
X0079766D01*
Y0083375D01*
X0083764Y0089373D02*
Y0083375D01*
X0085764Y0085374D01*
X0087763Y0083375D01*
Y0089373D01*
X0092761D02*
X0090762D01*
X0089762Y0088373D01*
Y0084374D01*
X0090762Y0083375D01*
X0092761D01*
X0093761Y0084374D01*
Y0088373D01*
X0092761Y0089373D01*
X0095760Y0083375D02*
Y0089373D01*
X0098759D01*
X0099759Y0088373D01*
Y0086374D01*
X0098759Y0085374D01*
X0095760D01*
X0097760D02*
X0099759Y0083375D01*
X0101759Y0089373D02*
Y0083375D01*
Y0085374D01*
X0105757Y0089373D01*
X0102758Y0086374D01*
X0105757Y0083375D01*
X0113755Y0089373D02*
Y0085374D01*
X0115754Y0083375D01*
X0117753Y0085374D01*
Y0089373D01*
X0119753D02*
X0121752D01*
X0120752D01*
Y0083375D01*
X0119753D01*
X0121752D01*
X0128750Y0089373D02*
X0124751D01*
Y0083375D01*
X0128750D01*
X0124751Y0086374D02*
X0126750D01*
X0130749Y0089373D02*
Y0083375D01*
X0132748Y0085374D01*
X0134748Y0083375D01*
Y0089373D01*
X0140746D02*
X0136747D01*
Y0083375D01*
X0140746D01*
X0136747Y0086374D02*
X0138747D01*
X0142745Y0089373D02*
Y0083375D01*
X0145744D01*
X0146744Y0084374D01*
Y0088373D01*
X0145744Y0089373D01*
X0142745D01*
X0158740D02*
X0154741D01*
Y0086374D01*
X0156741D01*
X0154741D01*
Y0083375D01*
X0160739D02*
Y0089373D01*
X0163738D01*
X0164738Y0088373D01*
Y0086374D01*
X0163738Y0085374D01*
X0160739D01*
X0162739D02*
X0164738Y0083375D01*
X0169737Y0089373D02*
X0167737D01*
X0166737Y0088373D01*
Y0084374D01*
X0167737Y0083375D01*
X0169737D01*
X0170736Y0084374D01*
Y0088373D01*
X0169737Y0089373D01*
X0172736Y0083375D02*
Y0089373D01*
X0174735Y0087374D01*
X0176734Y0089373D01*
Y0083375D01*
X0184732Y0089373D02*
X0188730D01*
X0186731D01*
Y0083375D01*
X0193729Y0089373D02*
X0191729D01*
X0190730Y0088373D01*
Y0084374D01*
X0191729Y0083375D01*
X0193729D01*
X0194728Y0084374D01*
Y0088373D01*
X0193729Y0089373D01*
X0196728Y0083375D02*
Y0089373D01*
X0199727D01*
X0200727Y0088373D01*
Y0086374D01*
X0199727Y0085374D01*
X0196728D01*
X0212723Y0088373D02*
X0211723Y0089373D01*
X0209723D01*
X0208724Y0088373D01*
Y0087374D01*
X0209723Y0086374D01*
X0211723D01*
X0212723Y0085374D01*
Y0084374D01*
X0211723Y0083375D01*
X0209723D01*
X0208724Y0084374D01*
X0214722Y0089373D02*
X0216721D01*
X0215722D01*
Y0083375D01*
X0214722D01*
X0216721D01*
X0219720Y0089373D02*
Y0083375D01*
X0222719D01*
X0223719Y0084374D01*
Y0088373D01*
X0222719Y0089373D01*
X0219720D01*
X0229717D02*
X0225718D01*
Y0083375D01*
X0229717D01*
X0225718Y0086374D02*
X0227718D01*
X0462150Y0092832D02*
X0463150Y0093831D01*
X0465149D01*
X0466149Y0092832D01*
Y0088833D01*
X0465149Y0087833D01*
X0463150D01*
X0462150Y0088833D01*
Y0092832D01*
X0348550Y0093831D02*
X0352549D01*
Y0092832D01*
X0348550Y0088833D01*
Y0087833D01*
X0354548D02*
X0356547D01*
X0355548D01*
Y0093831D01*
X0354548Y0092832D01*
X0359546D02*
X0360546Y0093831D01*
X0362545D01*
X0363545Y0092832D01*
Y0088833D01*
X0362545Y0087833D01*
X0360546D01*
X0359546Y0088833D01*
Y0092832D01*
X0365545D02*
X0366544Y0093831D01*
X0368544D01*
X0369543Y0092832D01*
Y0088833D01*
X0368544Y0087833D01*
X0366544D01*
X0365545Y0088833D01*
Y0092832D01*
X0371543Y0090832D02*
X0375541D01*
X0377541Y0092832D02*
X0378540Y0093831D01*
X0380540D01*
X0381539Y0092832D01*
Y0088833D01*
X0380540Y0087833D01*
X0378540D01*
X0377541Y0088833D01*
Y0092832D01*
X0383539D02*
X0384538Y0093831D01*
X0386538D01*
X0387537Y0092832D01*
Y0088833D01*
X0386538Y0087833D01*
X0384538D01*
X0383539Y0088833D01*
Y0092832D01*
X0389537D02*
X0390536Y0093831D01*
X0392536D01*
X0393535Y0092832D01*
Y0088833D01*
X0392536Y0087833D01*
X0390536D01*
X0389537Y0088833D01*
Y0092832D01*
X0395535D02*
X0396534Y0093831D01*
X0398534D01*
X0399534Y0092832D01*
Y0088833D01*
X0398534Y0087833D01*
X0396534D01*
X0395535Y0088833D01*
Y0092832D01*
X0401533D02*
X0402532Y0093831D01*
X0404532D01*
X0405532Y0092832D01*
Y0091832D01*
X0404532Y0090832D01*
X0403532D01*
X0404532D01*
X0405532Y0089833D01*
Y0088833D01*
X0404532Y0087833D01*
X0402532D01*
X0401533Y0088833D01*
X0294000Y0093831D02*
Y0087833D01*
X0296999D01*
X0297999Y0088833D01*
Y0089833D01*
X0296999Y0090832D01*
X0294000D01*
X0296999D01*
X0297999Y0091832D01*
Y0092832D01*
X0296999Y0093831D01*
X0294000D01*
X0302997D02*
X0300998D01*
X0299998Y0092832D01*
Y0088833D01*
X0300998Y0087833D01*
X0302997D01*
X0303997Y0088833D01*
Y0092832D01*
X0302997Y0093831D01*
X0305996Y0087833D02*
Y0091832D01*
X0307996Y0093831D01*
X0309995Y0091832D01*
Y0087833D01*
Y0090832D01*
X0305996D01*
X0311994Y0087833D02*
Y0093831D01*
X0314993D01*
X0315993Y0092832D01*
Y0090832D01*
X0314993Y0089833D01*
X0311994D01*
X0313994D02*
X0315993Y0087833D01*
X0317992Y0093831D02*
Y0087833D01*
X0320991D01*
X0321991Y0088833D01*
Y0092832D01*
X0320991Y0093831D01*
X0317992D01*
X0330988Y0087833D02*
Y0093831D01*
X0332987D02*
Y0087833D01*
X0329988Y0091832D02*
X0332987D01*
X0333987D01*
X0329988Y0089833D02*
X0333987D01*
X0335986Y0091832D02*
X0336986D01*
Y0090832D01*
X0335986D01*
Y0091832D01*
Y0088833D02*
X0336986D01*
Y0087833D01*
X0335986D01*
Y0088833D01*
X0046350Y0073549D02*
Y0067551D01*
X0050349D01*
X0052348D02*
Y0071549D01*
X0054347Y0073549D01*
X0056347Y0071549D01*
Y0067551D01*
Y0070550D01*
X0052348D01*
X0058346Y0073549D02*
Y0072549D01*
X0060346Y0070550D01*
X0062345Y0072549D01*
Y0073549D01*
X0060346Y0070550D02*
Y0067551D01*
X0068343Y0073549D02*
X0064344D01*
Y0067551D01*
X0068343D01*
X0064344Y0070550D02*
X0066343D01*
X0070342Y0067551D02*
Y0073549D01*
X0073341D01*
X0074341Y0072549D01*
Y0070550D01*
X0073341Y0069550D01*
X0070342D01*
X0072342D02*
X0074341Y0067551D01*
X0082338D02*
Y0073549D01*
X0086337Y0067551D01*
Y0073549D01*
X0088336Y0067551D02*
Y0071549D01*
X0090336Y0073549D01*
X0092335Y0071549D01*
Y0067551D01*
Y0070550D01*
X0088336D01*
X0094335Y0067551D02*
Y0073549D01*
X0096334Y0071549D01*
X0098333Y0073549D01*
Y0067551D01*
X0104331Y0073549D02*
X0100332D01*
Y0067551D01*
X0104331D01*
X0100332Y0070550D02*
X0102332D01*
X0112329Y0069550D02*
X0116327D01*
X0112329Y0071549D02*
X0116327D01*
X0046350Y0046966D02*
Y0052965D01*
X0049349D01*
X0050349Y0051965D01*
Y0049966D01*
X0049349Y0048966D01*
X0046350D01*
X0052348Y0052965D02*
Y0046966D01*
X0056347D01*
X0061345Y0052965D02*
X0059346D01*
X0058346Y0051965D01*
Y0047966D01*
X0059346Y0046966D01*
X0061345D01*
X0062345Y0047966D01*
Y0051965D01*
X0061345Y0052965D01*
X0064344D02*
X0068343D01*
X0066343D01*
Y0046966D01*
X0076340D02*
Y0052965D01*
X0080339Y0046966D01*
Y0052965D01*
X0082338Y0046966D02*
Y0050965D01*
X0084338Y0052965D01*
X0086337Y0050965D01*
Y0046966D01*
Y0049966D01*
X0082338D01*
X0088336Y0046966D02*
Y0052965D01*
X0090336Y0050965D01*
X0092335Y0052965D01*
Y0046966D01*
X0098333Y0052965D02*
X0094335D01*
Y0046966D01*
X0098333D01*
X0094335Y0049966D02*
X0096334D01*
X0106331Y0048966D02*
X0110329D01*
X0106331Y0050965D02*
X0110329D01*
X0454050Y0046966D02*
X0456049D01*
X0455050D01*
Y0052965D01*
X0454050Y0051965D01*
X0463047Y0046966D02*
X0459048D01*
X0463047Y0050965D01*
Y0051965D01*
X0462047Y0052965D01*
X0460048D01*
X0459048Y0051965D01*
X0465046Y0050965D02*
X0466046D01*
Y0049966D01*
X0465046D01*
Y0050965D01*
Y0047966D02*
X0466046D01*
Y0046966D01*
X0465046D01*
Y0047966D01*
X0470045Y0051965D02*
X0471044Y0052965D01*
X0473044D01*
X0474044Y0051965D01*
Y0050965D01*
X0473044Y0049966D01*
X0472044D01*
X0473044D01*
X0474044Y0048966D01*
Y0047966D01*
X0473044Y0046966D01*
X0471044D01*
X0470045Y0047966D01*
X0476043Y0046966D02*
X0478042D01*
X0477043D01*
Y0052965D01*
X0476043Y0051965D01*
X0481041Y0050965D02*
X0482041D01*
Y0049966D01*
X0481041D01*
Y0050965D01*
Y0047966D02*
X0482041D01*
Y0046966D01*
X0481041D01*
Y0047966D01*
X0486040Y0051965D02*
X0487039Y0052965D01*
X0489039D01*
X0490038Y0051965D01*
Y0050965D01*
X0489039Y0049966D01*
X0488039D01*
X0489039D01*
X0490038Y0048966D01*
Y0047966D01*
X0489039Y0046966D01*
X0487039D01*
X0486040Y0047966D01*
X0492038Y0051965D02*
X0493037Y0052965D01*
X0495037D01*
X0496036Y0051965D01*
Y0050965D01*
X0495037Y0049966D01*
X0496036Y0048966D01*
Y0047966D01*
X0495037Y0046966D01*
X0493037D01*
X0492038Y0047966D01*
Y0048966D01*
X0493037Y0049966D01*
X0492038Y0050965D01*
Y0051965D01*
X0493037Y0049966D02*
X0495037D01*
X0504034Y0046966D02*
Y0052965D01*
X0507033D01*
X0508033Y0051965D01*
Y0049966D01*
X0507033Y0048966D01*
X0504034D01*
X0510032Y0046966D02*
Y0052965D01*
X0512031Y0050965D01*
X0514031Y0052965D01*
Y0046966D01*
X0604409Y0053922D02*
X0602409D01*
X0601409Y0052922D01*
Y0048923D01*
X0602409Y0047924D01*
X0604409D01*
X0605408Y0048923D01*
Y0052922D01*
X0604409Y0053922D01*
X0607408Y0045924D02*
Y0051922D01*
X0610407D01*
X0611406Y0050923D01*
Y0048923D01*
X0610407Y0047924D01*
X0607408D01*
X0616405D02*
X0614405D01*
X0613406Y0048923D01*
Y0050923D01*
X0614405Y0051922D01*
X0616405D01*
X0617404Y0050923D01*
Y0049923D01*
X0613406D01*
X0619404Y0047924D02*
Y0051922D01*
X0622403D01*
X0623402Y0050923D01*
Y0047924D01*
X0625402Y0053922D02*
Y0047924D01*
X0627401Y0049923D01*
X0629400Y0047924D01*
Y0053922D01*
X0632400Y0051922D02*
X0634399D01*
X0635398Y0050923D01*
Y0047924D01*
X0632400D01*
X0631400Y0048923D01*
X0632400Y0049923D01*
X0635398D01*
X0638398Y0052922D02*
Y0051922D01*
X0637398D01*
X0639397D01*
X0638398D01*
Y0048923D01*
X0639397Y0047924D01*
X0645395D02*
X0643396D01*
X0642396Y0048923D01*
Y0050923D01*
X0643396Y0051922D01*
X0645395D01*
X0646395Y0050923D01*
Y0049923D01*
X0642396D01*
X0648394Y0051922D02*
Y0047924D01*
Y0049923D01*
X0649394Y0050923D01*
X0650394Y0051922D01*
X0651393D01*
X0294000Y0073498D02*
X0297999D01*
X0295999D01*
Y0067500D01*
X0299998Y0073498D02*
X0301997D01*
X0300998D01*
Y0067500D01*
X0299998D01*
X0301997D01*
X0304996Y0073498D02*
Y0067500D01*
X0307996D01*
X0308995Y0068500D01*
Y0072498D01*
X0307996Y0073498D01*
X0304996D01*
X0317992Y0067500D02*
Y0073498D01*
X0319992D02*
Y0067500D01*
X0316993Y0071499D02*
X0319992D01*
X0320991D01*
X0316993Y0069499D02*
X0320991D01*
X0322991Y0071499D02*
X0323990D01*
Y0070499D01*
X0322991D01*
Y0071499D01*
Y0068500D02*
X0323990D01*
Y0067500D01*
X0322991D01*
Y0068500D01*
X0348550Y0067500D02*
Y0073498D01*
X0352549Y0067500D01*
Y0073498D01*
X0354548Y0067500D02*
X0358547Y0071499D01*
X0360546Y0067500D02*
Y0071499D01*
X0362545Y0073498D01*
X0364545Y0071499D01*
Y0067500D01*
Y0070499D01*
X0360546D01*
M02*
