G04*
G04 #@! TF.GenerationSoftware,Altium Limited,Altium Designer,24.3.1 (35)*
G04*
G04 Layer_Color=16711935*
%FSAX25Y25*%
%MOIN*%
G70*
G04*
G04 #@! TF.SameCoordinates,9BAF8AC8-72E2-4161-A934-73288D8D8D4B*
G04*
G04*
G04 #@! TF.FilePolarity,Negative*
G04*
G01*
G75*
%ADD11C,0.01000*%
%ADD20C,0.00800*%
%ADD32R,0.02000X0.02600*%
%ADD40R,0.02000X0.02400*%
%ADD43R,0.03600X0.03700*%
%ADD46R,0.02200X0.02000*%
%ADD49R,0.03740X0.04432*%
%ADD50R,0.04432X0.03740*%
%ADD51R,0.02400X0.02000*%
%ADD53R,0.02600X0.02000*%
%ADD56R,0.03700X0.03600*%
%ADD57R,0.01800X0.02200*%
%ADD60R,0.02200X0.02200*%
%ADD61R,0.03150X0.02975*%
%ADD77R,0.02677X0.02992*%
%ADD78R,0.02677X0.02992*%
%ADD79C,0.12294*%
%ADD80C,0.04143*%
%ADD81C,0.03356*%
%ADD82C,0.04894*%
%ADD83C,0.01794*%
%ADD84C,0.01594*%
%ADD85C,0.01394*%
%ADD86C,0.01781*%
%ADD104R,0.00800X0.02800*%
%ADD105R,0.01772X0.02800*%
%ADD109R,0.03000X0.03200*%
%ADD112R,0.02200X0.02800*%
%ADD113R,0.10443X0.01978*%
%ADD114R,0.08474X0.10443*%
%ADD115R,0.01457X0.01063*%
%ADD116R,0.01063X0.02441*%
%ADD117R,0.01194X0.03394*%
%ADD118R,0.02992X0.02677*%
%ADD119R,0.02992X0.02677*%
G54D11*
X0497200Y0080717D02*
Y0101050D01*
X0413200Y0080717D02*
Y0101050D01*
X0040000Y0080717D02*
X0700200D01*
X0040000Y0060383D02*
X0700000D01*
X0040000Y0040050D02*
X0440500D01*
X0040050Y0101050D02*
X0700200D01*
X0040050Y0040050D02*
Y0101050D01*
Y0040050D02*
X0197600D01*
X0040000D02*
Y0101050D01*
X0286500Y0040050D02*
Y0101050D01*
X0700200Y0040050D02*
Y0101050D01*
X0440500Y0040050D02*
X0700200D01*
X0559400Y0039400D02*
Y0059683D01*
G54D20*
X0126900Y0073549D02*
Y0067551D01*
X0129899D01*
X0130899Y0068550D01*
Y0069550D01*
X0129899Y0070550D01*
X0126900D01*
X0129899D01*
X0130899Y0071549D01*
Y0072549D01*
X0129899Y0073549D01*
X0126900D01*
X0133898Y0067551D02*
X0135897D01*
X0136897Y0068550D01*
Y0070550D01*
X0135897Y0071549D01*
X0133898D01*
X0132898Y0070550D01*
Y0068550D01*
X0133898Y0067551D01*
X0139896Y0072549D02*
Y0071549D01*
X0138896D01*
X0140895D01*
X0139896D01*
Y0068550D01*
X0140895Y0067551D01*
X0144894Y0072549D02*
Y0071549D01*
X0143895D01*
X0145894D01*
X0144894D01*
Y0068550D01*
X0145894Y0067551D01*
X0149893D02*
X0151892D01*
X0152892Y0068550D01*
Y0070550D01*
X0151892Y0071549D01*
X0149893D01*
X0148893Y0070550D01*
Y0068550D01*
X0149893Y0067551D01*
X0154891D02*
Y0071549D01*
X0155891D01*
X0156890Y0070550D01*
Y0067551D01*
Y0070550D01*
X0157890Y0071549D01*
X0158890Y0070550D01*
Y0067551D01*
X0170886Y0072549D02*
X0169886Y0073549D01*
X0167887D01*
X0166887Y0072549D01*
Y0071549D01*
X0167887Y0070550D01*
X0169886D01*
X0170886Y0069550D01*
Y0068550D01*
X0169886Y0067551D01*
X0167887D01*
X0166887Y0068550D01*
X0173885Y0067551D02*
X0175884D01*
X0176884Y0068550D01*
Y0070550D01*
X0175884Y0071549D01*
X0173885D01*
X0172885Y0070550D01*
Y0068550D01*
X0173885Y0067551D01*
X0178883D02*
X0180883D01*
X0179883D01*
Y0073549D01*
X0178883D01*
X0187880D02*
Y0067551D01*
X0184881D01*
X0183882Y0068550D01*
Y0070550D01*
X0184881Y0071549D01*
X0187880D01*
X0192879Y0067551D02*
X0190879D01*
X0189880Y0068550D01*
Y0070550D01*
X0190879Y0071549D01*
X0192879D01*
X0193878Y0070550D01*
Y0069550D01*
X0189880D01*
X0195878Y0071549D02*
Y0067551D01*
Y0069550D01*
X0196877Y0070550D01*
X0197877Y0071549D01*
X0198877D01*
X0567400Y0087833D02*
Y0093831D01*
X0571399Y0087833D01*
Y0093831D01*
X0574398Y0087833D02*
X0576397D01*
X0577397Y0088833D01*
Y0090832D01*
X0576397Y0091832D01*
X0574398D01*
X0573398Y0090832D01*
Y0088833D01*
X0574398Y0087833D01*
X0580396Y0092832D02*
Y0091832D01*
X0579396D01*
X0581395D01*
X0580396D01*
Y0088833D01*
X0581395Y0087833D01*
X0590393D02*
X0592392D01*
X0591392D01*
Y0091832D01*
X0590393D01*
X0595391Y0087833D02*
Y0091832D01*
X0598390D01*
X0599390Y0090832D01*
Y0087833D01*
X0607387Y0091832D02*
X0609386Y0087833D01*
X0611386Y0091832D01*
X0616384Y0087833D02*
X0614385D01*
X0613385Y0088833D01*
Y0090832D01*
X0614385Y0091832D01*
X0616384D01*
X0617384Y0090832D01*
Y0089833D01*
X0613385D01*
X0619383Y0091832D02*
Y0087833D01*
Y0089833D01*
X0620383Y0090832D01*
X0621383Y0091832D01*
X0622382D01*
X0625381Y0087833D02*
X0628380D01*
X0629380Y0088833D01*
X0628380Y0089833D01*
X0626381D01*
X0625381Y0090832D01*
X0626381Y0091832D01*
X0629380D01*
X0631379Y0087833D02*
X0633379D01*
X0632379D01*
Y0091832D01*
X0631379D01*
X0637377Y0087833D02*
X0639377D01*
X0640376Y0088833D01*
Y0090832D01*
X0639377Y0091832D01*
X0637377D01*
X0636378Y0090832D01*
Y0088833D01*
X0637377Y0087833D01*
X0642376D02*
Y0091832D01*
X0645375D01*
X0646374Y0090832D01*
Y0087833D01*
X0658371Y0091832D02*
X0655372D01*
X0654372Y0090832D01*
Y0088833D01*
X0655372Y0087833D01*
X0658371D01*
X0661370D02*
X0663369D01*
X0664369Y0088833D01*
Y0090832D01*
X0663369Y0091832D01*
X0661370D01*
X0660370Y0090832D01*
Y0088833D01*
X0661370Y0087833D01*
X0666368D02*
Y0091832D01*
X0669367D01*
X0670367Y0090832D01*
Y0087833D01*
X0673366Y0092832D02*
Y0091832D01*
X0672366D01*
X0674365D01*
X0673366D01*
Y0088833D01*
X0674365Y0087833D01*
X0677364Y0091832D02*
Y0087833D01*
Y0089833D01*
X0678364Y0090832D01*
X0679364Y0091832D01*
X0680364D01*
X0684362Y0087833D02*
X0686362D01*
X0687361Y0088833D01*
Y0090832D01*
X0686362Y0091832D01*
X0684362D01*
X0683362Y0090832D01*
Y0088833D01*
X0684362Y0087833D01*
X0689361D02*
X0691360D01*
X0690360D01*
Y0093831D01*
X0689361D01*
X0520799Y0092832D02*
X0519799Y0093831D01*
X0517800D01*
X0516800Y0092832D01*
Y0091832D01*
X0517800Y0090832D01*
X0519799D01*
X0520799Y0089833D01*
Y0088833D01*
X0519799Y0087833D01*
X0517800D01*
X0516800Y0088833D01*
X0522798Y0093831D02*
Y0089833D01*
X0524797Y0087833D01*
X0526797Y0089833D01*
Y0093831D01*
X0528796Y0087833D02*
Y0093831D01*
X0532795Y0087833D01*
Y0093831D01*
X0540792Y0087833D02*
Y0093831D01*
X0543791D01*
X0544791Y0092832D01*
Y0090832D01*
X0543791Y0089833D01*
X0540792D01*
X0542792D02*
X0544791Y0087833D01*
X0550789Y0093831D02*
X0546790D01*
Y0087833D01*
X0550789D01*
X0546790Y0090832D02*
X0548790D01*
X0552788Y0093831D02*
Y0089833D01*
X0554788Y0087833D01*
X0556787Y0089833D01*
Y0093831D01*
X0558786Y0091832D02*
X0559786D01*
Y0090832D01*
X0558786D01*
Y0091832D01*
Y0088833D02*
X0559786D01*
Y0087833D01*
X0558786D01*
Y0088833D01*
X0433000Y0087833D02*
Y0093831D01*
X0435999D01*
X0436999Y0092832D01*
Y0090832D01*
X0435999Y0089833D01*
X0433000D01*
X0434999D02*
X0436999Y0087833D01*
X0442997Y0093831D02*
X0438998D01*
Y0087833D01*
X0442997D01*
X0438998Y0090832D02*
X0440997D01*
X0444996Y0093831D02*
Y0089833D01*
X0446995Y0087833D01*
X0448995Y0089833D01*
Y0093831D01*
X0450994Y0091832D02*
X0451994D01*
Y0090832D01*
X0450994D01*
Y0091832D01*
Y0088833D02*
X0451994D01*
Y0087833D01*
X0450994D01*
Y0088833D01*
X0126900Y0052965D02*
X0130899D01*
Y0051965D01*
X0126900Y0047966D01*
Y0046966D01*
X0132898D02*
X0134897D01*
X0133898D01*
Y0052965D01*
X0132898Y0051965D01*
X0137896D02*
X0138896Y0052965D01*
X0140895D01*
X0141895Y0051965D01*
Y0047966D01*
X0140895Y0046966D01*
X0138896D01*
X0137896Y0047966D01*
Y0051965D01*
X0143895D02*
X0144894Y0052965D01*
X0146894D01*
X0147893Y0051965D01*
Y0047966D01*
X0146894Y0046966D01*
X0144894D01*
X0143895Y0047966D01*
Y0051965D01*
X0149893Y0049966D02*
X0153891D01*
X0155891Y0051965D02*
X0156890Y0052965D01*
X0158890D01*
X0159889Y0051965D01*
Y0047966D01*
X0158890Y0046966D01*
X0156890D01*
X0155891Y0047966D01*
Y0051965D01*
X0161889D02*
X0162888Y0052965D01*
X0164888D01*
X0165887Y0051965D01*
Y0047966D01*
X0164888Y0046966D01*
X0162888D01*
X0161889Y0047966D01*
Y0051965D01*
X0167887D02*
X0168886Y0052965D01*
X0170886D01*
X0171885Y0051965D01*
Y0047966D01*
X0170886Y0046966D01*
X0168886D01*
X0167887Y0047966D01*
Y0051965D01*
X0173885D02*
X0174884Y0052965D01*
X0176884D01*
X0177884Y0051965D01*
Y0047966D01*
X0176884Y0046966D01*
X0174884D01*
X0173885Y0047966D01*
Y0051965D01*
X0179883D02*
X0180883Y0052965D01*
X0182882D01*
X0183882Y0051965D01*
Y0050965D01*
X0182882Y0049966D01*
X0181882D01*
X0182882D01*
X0183882Y0048966D01*
Y0047966D01*
X0182882Y0046966D01*
X0180883D01*
X0179883Y0047966D01*
X0191879Y0052965D02*
Y0047966D01*
X0192879Y0046966D01*
X0194878D01*
X0195878Y0047966D01*
Y0052965D01*
X0201876Y0051965D02*
X0200876Y0052965D01*
X0198877D01*
X0197877Y0051965D01*
Y0050965D01*
X0198877Y0049966D01*
X0200876D01*
X0201876Y0048966D01*
Y0047966D01*
X0200876Y0046966D01*
X0198877D01*
X0197877Y0047966D01*
X0203875Y0052965D02*
X0207874D01*
X0205874D01*
Y0046966D01*
X0209873Y0050965D02*
X0213872Y0046966D01*
X0211873Y0048966D01*
X0213872Y0050965D01*
X0209873Y0046966D01*
X0221869Y0052965D02*
Y0046966D01*
X0224868D01*
X0225868Y0047966D01*
Y0048966D01*
X0224868Y0049966D01*
X0221869D01*
X0224868D01*
X0225868Y0050965D01*
Y0051965D01*
X0224868Y0052965D01*
X0221869D01*
X0228867Y0046966D02*
X0230866D01*
X0231866Y0047966D01*
Y0049966D01*
X0230866Y0050965D01*
X0228867D01*
X0227867Y0049966D01*
Y0047966D01*
X0228867Y0046966D01*
X0234865Y0050965D02*
X0236864D01*
X0237864Y0049966D01*
Y0046966D01*
X0234865D01*
X0233865Y0047966D01*
X0234865Y0048966D01*
X0237864D01*
X0239863Y0050965D02*
Y0046966D01*
Y0048966D01*
X0240863Y0049966D01*
X0241863Y0050965D01*
X0242863D01*
X0249860Y0052965D02*
Y0046966D01*
X0246861D01*
X0245862Y0047966D01*
Y0049966D01*
X0246861Y0050965D01*
X0249860D01*
X0257858Y0052965D02*
Y0048966D01*
X0259857Y0046966D01*
X0261856Y0048966D01*
Y0052965D01*
X0263856Y0046966D02*
Y0047966D01*
X0264855D01*
Y0046966D01*
X0263856D01*
X0268854Y0051965D02*
X0269854Y0052965D01*
X0271853D01*
X0272853Y0051965D01*
Y0047966D01*
X0271853Y0046966D01*
X0269854D01*
X0268854Y0047966D01*
Y0051965D01*
X0274852Y0046966D02*
Y0047966D01*
X0275852D01*
Y0046966D01*
X0274852D01*
X0282850D02*
Y0052965D01*
X0279851Y0049966D01*
X0283849D01*
X0285849Y0046966D02*
Y0047966D01*
X0286848D01*
Y0046966D01*
X0285849D01*
X0290847D02*
X0292846D01*
X0291847D01*
Y0052965D01*
X0290847Y0051965D01*
X0295845Y0046966D02*
Y0047966D01*
X0296845D01*
Y0046966D01*
X0295845D01*
X0304842Y0051965D02*
X0303843Y0052965D01*
X0301843D01*
X0300844Y0051965D01*
Y0047966D01*
X0301843Y0046966D01*
X0303843D01*
X0304842Y0047966D01*
Y0049966D01*
X0302843D01*
X0306842Y0052965D02*
Y0046966D01*
X0309841D01*
X0310841Y0047966D01*
Y0048966D01*
X0309841Y0049966D01*
X0306842D01*
X0309841D01*
X0310841Y0050965D01*
Y0051965D01*
X0309841Y0052965D01*
X0306842D01*
X0316839Y0051965D02*
X0315839Y0052965D01*
X0313840D01*
X0312840Y0051965D01*
Y0050965D01*
X0313840Y0049966D01*
X0315839D01*
X0316839Y0048966D01*
Y0047966D01*
X0315839Y0046966D01*
X0313840D01*
X0312840Y0047966D01*
X0381150Y0046966D02*
X0383149D01*
X0382150D01*
Y0052965D01*
X0381150Y0051965D01*
X0386148Y0046966D02*
X0390147Y0050965D01*
X0396145Y0046966D02*
X0392146D01*
X0396145Y0050965D01*
Y0051965D01*
X0395146Y0052965D01*
X0393146D01*
X0392146Y0051965D01*
X0398145D02*
X0399144Y0052965D01*
X0401144D01*
X0402143Y0051965D01*
Y0050965D01*
X0401144Y0049966D01*
X0402143Y0048966D01*
Y0047966D01*
X0401144Y0046966D01*
X0399144D01*
X0398145Y0047966D01*
Y0048966D01*
X0399144Y0049966D01*
X0398145Y0050965D01*
Y0051965D01*
X0399144Y0049966D02*
X0401144D01*
X0404143Y0046966D02*
X0408141Y0050965D01*
X0414139Y0046966D02*
X0410141D01*
X0414139Y0050965D01*
Y0051965D01*
X0413140Y0052965D01*
X0411140D01*
X0410141Y0051965D01*
X0416139D02*
X0417138Y0052965D01*
X0419138D01*
X0420137Y0051965D01*
Y0047966D01*
X0419138Y0046966D01*
X0417138D01*
X0416139Y0047966D01*
Y0051965D01*
X0426135Y0046966D02*
X0422137D01*
X0426135Y0050965D01*
Y0051965D01*
X0425136Y0052965D01*
X0423136D01*
X0422137Y0051965D01*
X0432133Y0052965D02*
X0428135D01*
Y0049966D01*
X0430134Y0050965D01*
X0431134D01*
X0432133Y0049966D01*
Y0047966D01*
X0431134Y0046966D01*
X0429135D01*
X0428135Y0047966D01*
X0298199Y0051965D02*
X0297199Y0052965D01*
X0295200D01*
X0294200Y0051965D01*
Y0047966D01*
X0295200Y0046966D01*
X0297199D01*
X0298199Y0047966D01*
Y0049966D01*
X0296199D01*
X0304197Y0052965D02*
X0300198D01*
Y0046966D01*
X0304197D01*
X0300198Y0049966D02*
X0302197D01*
X0306196Y0046966D02*
Y0052965D01*
X0310195Y0046966D01*
Y0052965D01*
X0316193D02*
X0312194D01*
Y0046966D01*
X0316193D01*
X0312194Y0049966D02*
X0314194D01*
X0318192Y0046966D02*
Y0052965D01*
X0321191D01*
X0322191Y0051965D01*
Y0049966D01*
X0321191Y0048966D01*
X0318192D01*
X0320192D02*
X0322191Y0046966D01*
X0324190D02*
Y0050965D01*
X0326190Y0052965D01*
X0328189Y0050965D01*
Y0046966D01*
Y0049966D01*
X0324190D01*
X0330188Y0052965D02*
X0334187D01*
X0332188D01*
Y0046966D01*
X0340185Y0052965D02*
X0336186D01*
Y0046966D01*
X0340185D01*
X0336186Y0049966D02*
X0338186D01*
X0342184Y0052965D02*
Y0046966D01*
X0345183D01*
X0346183Y0047966D01*
Y0051965D01*
X0345183Y0052965D01*
X0342184D01*
X0372175Y0050965D02*
X0373175D01*
Y0049966D01*
X0372175D01*
Y0050965D01*
Y0047966D02*
X0373175D01*
Y0046966D01*
X0372175D01*
Y0047966D01*
X0041778Y0083375D02*
Y0087374D01*
X0043777Y0089373D01*
X0045777Y0087374D01*
Y0083375D01*
Y0086374D01*
X0041778D01*
X0047776Y0089373D02*
Y0083375D01*
X0051775D01*
X0053774Y0089373D02*
Y0083375D01*
X0057773D01*
X0065770D02*
Y0087374D01*
X0067769Y0089373D01*
X0069769Y0087374D01*
Y0083375D01*
Y0086374D01*
X0065770D01*
X0071768Y0083375D02*
Y0089373D01*
X0074767D01*
X0075767Y0088373D01*
Y0086374D01*
X0074767Y0085374D01*
X0071768D01*
X0073768D02*
X0075767Y0083375D01*
X0077766Y0089373D02*
X0081765D01*
X0079766D01*
Y0083375D01*
X0083764Y0089373D02*
Y0083375D01*
X0085764Y0085374D01*
X0087763Y0083375D01*
Y0089373D01*
X0092761D02*
X0090762D01*
X0089762Y0088373D01*
Y0084374D01*
X0090762Y0083375D01*
X0092761D01*
X0093761Y0084374D01*
Y0088373D01*
X0092761Y0089373D01*
X0095760Y0083375D02*
Y0089373D01*
X0098759D01*
X0099759Y0088373D01*
Y0086374D01*
X0098759Y0085374D01*
X0095760D01*
X0097760D02*
X0099759Y0083375D01*
X0101759Y0089373D02*
Y0083375D01*
Y0085374D01*
X0105757Y0089373D01*
X0102758Y0086374D01*
X0105757Y0083375D01*
X0113755Y0089373D02*
Y0085374D01*
X0115754Y0083375D01*
X0117753Y0085374D01*
Y0089373D01*
X0119753D02*
X0121752D01*
X0120752D01*
Y0083375D01*
X0119753D01*
X0121752D01*
X0128750Y0089373D02*
X0124751D01*
Y0083375D01*
X0128750D01*
X0124751Y0086374D02*
X0126750D01*
X0130749Y0089373D02*
Y0083375D01*
X0132748Y0085374D01*
X0134748Y0083375D01*
Y0089373D01*
X0140746D02*
X0136747D01*
Y0083375D01*
X0140746D01*
X0136747Y0086374D02*
X0138747D01*
X0142745Y0089373D02*
Y0083375D01*
X0145744D01*
X0146744Y0084374D01*
Y0088373D01*
X0145744Y0089373D01*
X0142745D01*
X0158740D02*
X0154741D01*
Y0086374D01*
X0156741D01*
X0154741D01*
Y0083375D01*
X0160739D02*
Y0089373D01*
X0163738D01*
X0164738Y0088373D01*
Y0086374D01*
X0163738Y0085374D01*
X0160739D01*
X0162739D02*
X0164738Y0083375D01*
X0169737Y0089373D02*
X0167737D01*
X0166737Y0088373D01*
Y0084374D01*
X0167737Y0083375D01*
X0169737D01*
X0170736Y0084374D01*
Y0088373D01*
X0169737Y0089373D01*
X0172736Y0083375D02*
Y0089373D01*
X0174735Y0087374D01*
X0176734Y0089373D01*
Y0083375D01*
X0184732Y0089373D02*
X0188730D01*
X0186731D01*
Y0083375D01*
X0193729Y0089373D02*
X0191729D01*
X0190730Y0088373D01*
Y0084374D01*
X0191729Y0083375D01*
X0193729D01*
X0194728Y0084374D01*
Y0088373D01*
X0193729Y0089373D01*
X0196728Y0083375D02*
Y0089373D01*
X0199727D01*
X0200727Y0088373D01*
Y0086374D01*
X0199727Y0085374D01*
X0196728D01*
X0212723Y0088373D02*
X0211723Y0089373D01*
X0209723D01*
X0208724Y0088373D01*
Y0087374D01*
X0209723Y0086374D01*
X0211723D01*
X0212723Y0085374D01*
Y0084374D01*
X0211723Y0083375D01*
X0209723D01*
X0208724Y0084374D01*
X0214722Y0089373D02*
X0216721D01*
X0215722D01*
Y0083375D01*
X0214722D01*
X0216721D01*
X0219720Y0089373D02*
Y0083375D01*
X0222719D01*
X0223719Y0084374D01*
Y0088373D01*
X0222719Y0089373D01*
X0219720D01*
X0229717D02*
X0225718D01*
Y0083375D01*
X0229717D01*
X0225718Y0086374D02*
X0227718D01*
X0462150Y0092832D02*
X0463150Y0093831D01*
X0465149D01*
X0466149Y0092832D01*
Y0088833D01*
X0465149Y0087833D01*
X0463150D01*
X0462150Y0088833D01*
Y0092832D01*
X0348550Y0093831D02*
X0352549D01*
Y0092832D01*
X0348550Y0088833D01*
Y0087833D01*
X0354548D02*
X0356547D01*
X0355548D01*
Y0093831D01*
X0354548Y0092832D01*
X0359546D02*
X0360546Y0093831D01*
X0362545D01*
X0363545Y0092832D01*
Y0088833D01*
X0362545Y0087833D01*
X0360546D01*
X0359546Y0088833D01*
Y0092832D01*
X0365545D02*
X0366544Y0093831D01*
X0368544D01*
X0369543Y0092832D01*
Y0088833D01*
X0368544Y0087833D01*
X0366544D01*
X0365545Y0088833D01*
Y0092832D01*
X0371543Y0090832D02*
X0375541D01*
X0377541Y0092832D02*
X0378540Y0093831D01*
X0380540D01*
X0381539Y0092832D01*
Y0088833D01*
X0380540Y0087833D01*
X0378540D01*
X0377541Y0088833D01*
Y0092832D01*
X0383539D02*
X0384538Y0093831D01*
X0386538D01*
X0387537Y0092832D01*
Y0088833D01*
X0386538Y0087833D01*
X0384538D01*
X0383539Y0088833D01*
Y0092832D01*
X0389537D02*
X0390536Y0093831D01*
X0392536D01*
X0393535Y0092832D01*
Y0088833D01*
X0392536Y0087833D01*
X0390536D01*
X0389537Y0088833D01*
Y0092832D01*
X0395535D02*
X0396534Y0093831D01*
X0398534D01*
X0399534Y0092832D01*
Y0088833D01*
X0398534Y0087833D01*
X0396534D01*
X0395535Y0088833D01*
Y0092832D01*
X0401533D02*
X0402532Y0093831D01*
X0404532D01*
X0405532Y0092832D01*
Y0091832D01*
X0404532Y0090832D01*
X0403532D01*
X0404532D01*
X0405532Y0089833D01*
Y0088833D01*
X0404532Y0087833D01*
X0402532D01*
X0401533Y0088833D01*
X0294000Y0093831D02*
Y0087833D01*
X0296999D01*
X0297999Y0088833D01*
Y0089833D01*
X0296999Y0090832D01*
X0294000D01*
X0296999D01*
X0297999Y0091832D01*
Y0092832D01*
X0296999Y0093831D01*
X0294000D01*
X0302997D02*
X0300998D01*
X0299998Y0092832D01*
Y0088833D01*
X0300998Y0087833D01*
X0302997D01*
X0303997Y0088833D01*
Y0092832D01*
X0302997Y0093831D01*
X0305996Y0087833D02*
Y0091832D01*
X0307996Y0093831D01*
X0309995Y0091832D01*
Y0087833D01*
Y0090832D01*
X0305996D01*
X0311994Y0087833D02*
Y0093831D01*
X0314993D01*
X0315993Y0092832D01*
Y0090832D01*
X0314993Y0089833D01*
X0311994D01*
X0313994D02*
X0315993Y0087833D01*
X0317992Y0093831D02*
Y0087833D01*
X0320991D01*
X0321991Y0088833D01*
Y0092832D01*
X0320991Y0093831D01*
X0317992D01*
X0330988Y0087833D02*
Y0093831D01*
X0332987D02*
Y0087833D01*
X0329988Y0091832D02*
X0332987D01*
X0333987D01*
X0329988Y0089833D02*
X0333987D01*
X0335986Y0091832D02*
X0336986D01*
Y0090832D01*
X0335986D01*
Y0091832D01*
Y0088833D02*
X0336986D01*
Y0087833D01*
X0335986D01*
Y0088833D01*
X0046350Y0073549D02*
Y0067551D01*
X0050349D01*
X0052348D02*
Y0071549D01*
X0054347Y0073549D01*
X0056347Y0071549D01*
Y0067551D01*
Y0070550D01*
X0052348D01*
X0058346Y0073549D02*
Y0072549D01*
X0060346Y0070550D01*
X0062345Y0072549D01*
Y0073549D01*
X0060346Y0070550D02*
Y0067551D01*
X0068343Y0073549D02*
X0064344D01*
Y0067551D01*
X0068343D01*
X0064344Y0070550D02*
X0066343D01*
X0070342Y0067551D02*
Y0073549D01*
X0073341D01*
X0074341Y0072549D01*
Y0070550D01*
X0073341Y0069550D01*
X0070342D01*
X0072342D02*
X0074341Y0067551D01*
X0082338D02*
Y0073549D01*
X0086337Y0067551D01*
Y0073549D01*
X0088336Y0067551D02*
Y0071549D01*
X0090336Y0073549D01*
X0092335Y0071549D01*
Y0067551D01*
Y0070550D01*
X0088336D01*
X0094335Y0067551D02*
Y0073549D01*
X0096334Y0071549D01*
X0098333Y0073549D01*
Y0067551D01*
X0104331Y0073549D02*
X0100332D01*
Y0067551D01*
X0104331D01*
X0100332Y0070550D02*
X0102332D01*
X0112329Y0069550D02*
X0116327D01*
X0112329Y0071549D02*
X0116327D01*
X0046350Y0046966D02*
Y0052965D01*
X0049349D01*
X0050349Y0051965D01*
Y0049966D01*
X0049349Y0048966D01*
X0046350D01*
X0052348Y0052965D02*
Y0046966D01*
X0056347D01*
X0061345Y0052965D02*
X0059346D01*
X0058346Y0051965D01*
Y0047966D01*
X0059346Y0046966D01*
X0061345D01*
X0062345Y0047966D01*
Y0051965D01*
X0061345Y0052965D01*
X0064344D02*
X0068343D01*
X0066343D01*
Y0046966D01*
X0076340D02*
Y0052965D01*
X0080339Y0046966D01*
Y0052965D01*
X0082338Y0046966D02*
Y0050965D01*
X0084338Y0052965D01*
X0086337Y0050965D01*
Y0046966D01*
Y0049966D01*
X0082338D01*
X0088336Y0046966D02*
Y0052965D01*
X0090336Y0050965D01*
X0092335Y0052965D01*
Y0046966D01*
X0098333Y0052965D02*
X0094335D01*
Y0046966D01*
X0098333D01*
X0094335Y0049966D02*
X0096334D01*
X0106331Y0048966D02*
X0110329D01*
X0106331Y0050965D02*
X0110329D01*
X0454050Y0046966D02*
X0456049D01*
X0455050D01*
Y0052965D01*
X0454050Y0051965D01*
X0463047Y0046966D02*
X0459048D01*
X0463047Y0050965D01*
Y0051965D01*
X0462047Y0052965D01*
X0460048D01*
X0459048Y0051965D01*
X0465046Y0050965D02*
X0466046D01*
Y0049966D01*
X0465046D01*
Y0050965D01*
Y0047966D02*
X0466046D01*
Y0046966D01*
X0465046D01*
Y0047966D01*
X0470045Y0051965D02*
X0471044Y0052965D01*
X0473044D01*
X0474044Y0051965D01*
Y0050965D01*
X0473044Y0049966D01*
X0472044D01*
X0473044D01*
X0474044Y0048966D01*
Y0047966D01*
X0473044Y0046966D01*
X0471044D01*
X0470045Y0047966D01*
X0476043Y0046966D02*
X0478042D01*
X0477043D01*
Y0052965D01*
X0476043Y0051965D01*
X0481041Y0050965D02*
X0482041D01*
Y0049966D01*
X0481041D01*
Y0050965D01*
Y0047966D02*
X0482041D01*
Y0046966D01*
X0481041D01*
Y0047966D01*
X0486040Y0051965D02*
X0487039Y0052965D01*
X0489039D01*
X0490038Y0051965D01*
Y0050965D01*
X0489039Y0049966D01*
X0488039D01*
X0489039D01*
X0490038Y0048966D01*
Y0047966D01*
X0489039Y0046966D01*
X0487039D01*
X0486040Y0047966D01*
X0492038Y0051965D02*
X0493037Y0052965D01*
X0495037D01*
X0496036Y0051965D01*
Y0050965D01*
X0495037Y0049966D01*
X0496036Y0048966D01*
Y0047966D01*
X0495037Y0046966D01*
X0493037D01*
X0492038Y0047966D01*
Y0048966D01*
X0493037Y0049966D01*
X0492038Y0050965D01*
Y0051965D01*
X0493037Y0049966D02*
X0495037D01*
X0504034Y0046966D02*
Y0052965D01*
X0507033D01*
X0508033Y0051965D01*
Y0049966D01*
X0507033Y0048966D01*
X0504034D01*
X0510032Y0046966D02*
Y0052965D01*
X0512031Y0050965D01*
X0514031Y0052965D01*
Y0046966D01*
X0604409Y0053922D02*
X0602409D01*
X0601409Y0052922D01*
Y0048923D01*
X0602409Y0047924D01*
X0604409D01*
X0605408Y0048923D01*
Y0052922D01*
X0604409Y0053922D01*
X0607408Y0045924D02*
Y0051922D01*
X0610407D01*
X0611406Y0050923D01*
Y0048923D01*
X0610407Y0047924D01*
X0607408D01*
X0616405D02*
X0614405D01*
X0613406Y0048923D01*
Y0050923D01*
X0614405Y0051922D01*
X0616405D01*
X0617404Y0050923D01*
Y0049923D01*
X0613406D01*
X0619404Y0047924D02*
Y0051922D01*
X0622403D01*
X0623402Y0050923D01*
Y0047924D01*
X0625402Y0053922D02*
Y0047924D01*
X0627401Y0049923D01*
X0629400Y0047924D01*
Y0053922D01*
X0632400Y0051922D02*
X0634399D01*
X0635398Y0050923D01*
Y0047924D01*
X0632400D01*
X0631400Y0048923D01*
X0632400Y0049923D01*
X0635398D01*
X0638398Y0052922D02*
Y0051922D01*
X0637398D01*
X0639397D01*
X0638398D01*
Y0048923D01*
X0639397Y0047924D01*
X0645395D02*
X0643396D01*
X0642396Y0048923D01*
Y0050923D01*
X0643396Y0051922D01*
X0645395D01*
X0646395Y0050923D01*
Y0049923D01*
X0642396D01*
X0648394Y0051922D02*
Y0047924D01*
Y0049923D01*
X0649394Y0050923D01*
X0650394Y0051922D01*
X0651393D01*
X0294000Y0073498D02*
X0297999D01*
X0295999D01*
Y0067500D01*
X0299998Y0073498D02*
X0301997D01*
X0300998D01*
Y0067500D01*
X0299998D01*
X0301997D01*
X0304996Y0073498D02*
Y0067500D01*
X0307996D01*
X0308995Y0068500D01*
Y0072498D01*
X0307996Y0073498D01*
X0304996D01*
X0317992Y0067500D02*
Y0073498D01*
X0319992D02*
Y0067500D01*
X0316993Y0071499D02*
X0319992D01*
X0320991D01*
X0316993Y0069499D02*
X0320991D01*
X0322991Y0071499D02*
X0323990D01*
Y0070499D01*
X0322991D01*
Y0071499D01*
Y0068500D02*
X0323990D01*
Y0067500D01*
X0322991D01*
Y0068500D01*
X0348550Y0067500D02*
Y0073498D01*
X0352549Y0067500D01*
Y0073498D01*
X0354548Y0067500D02*
X0358547Y0071499D01*
X0360546Y0067500D02*
Y0071499D01*
X0362545Y0073498D01*
X0364545Y0071499D01*
Y0067500D01*
Y0070499D01*
X0360546D01*
G54D32*
X0471438Y0365544D02*
D03*
Y0369944D02*
D03*
X0513715Y0379936D02*
D03*
Y0384336D02*
D03*
X0516529Y0389265D02*
D03*
Y0393665D02*
D03*
X0439389Y0276459D02*
D03*
Y0272059D02*
D03*
X0444314Y0279515D02*
D03*
Y0275115D02*
D03*
G54D40*
X0488501Y0310993D02*
D03*
Y0315293D02*
D03*
X0485736Y0315185D02*
D03*
Y0310885D02*
D03*
X0425445Y0413362D02*
D03*
Y0409062D02*
D03*
X0422261Y0413433D02*
D03*
Y0409132D02*
D03*
X0428843Y0413561D02*
D03*
Y0409261D02*
D03*
X0419364Y0413436D02*
D03*
Y0409136D02*
D03*
X0432552Y0413713D02*
D03*
Y0409413D02*
D03*
X0425425Y0400364D02*
D03*
Y0404664D02*
D03*
X0428826Y0400181D02*
D03*
Y0404481D02*
D03*
X0422340Y0400331D02*
D03*
Y0404631D02*
D03*
X0432278Y0400247D02*
D03*
Y0404548D02*
D03*
X0419486Y0400359D02*
D03*
Y0404659D02*
D03*
X0420147Y0382136D02*
D03*
Y0386436D02*
D03*
X0371923Y0359152D02*
D03*
Y0354852D02*
D03*
X0368432Y0359088D02*
D03*
Y0354788D02*
D03*
X0415045Y0346598D02*
D03*
Y0342298D02*
D03*
X0483804Y0354682D02*
D03*
Y0358982D02*
D03*
X0486966Y0354707D02*
D03*
Y0359007D02*
D03*
X0495864Y0277315D02*
D03*
Y0281615D02*
D03*
X0505745Y0277224D02*
D03*
Y0281524D02*
D03*
G54D43*
X0494498Y0337145D02*
D03*
X0488398D02*
D03*
X0493501Y0356947D02*
D03*
X0499601D02*
D03*
X0499020Y0348794D02*
D03*
X0505121D02*
D03*
X0505522Y0344172D02*
D03*
X0499423D02*
D03*
X0477430Y0343777D02*
D03*
X0483530D02*
D03*
G54D46*
X0516505Y0349350D02*
D03*
Y0353350D02*
D03*
G54D49*
X0490559Y0386390D02*
D03*
Y0391727D02*
D03*
G54D50*
X0482022Y0402635D02*
D03*
X0476685D02*
D03*
X0509888Y0333191D02*
D03*
X0504551D02*
D03*
X0509888Y0328258D02*
D03*
X0504551D02*
D03*
X0483721Y0275661D02*
D03*
X0489058D02*
D03*
X0483894Y0269458D02*
D03*
X0489231D02*
D03*
X0501173Y0394264D02*
D03*
X0495836D02*
D03*
X0476685Y0407549D02*
D03*
X0482022D02*
D03*
G54D51*
X0513092Y0337252D02*
D03*
X0517392D02*
D03*
X0509535Y0338292D02*
D03*
X0505234D02*
D03*
X0459887Y0373075D02*
D03*
X0464187D02*
D03*
X0490378Y0396354D02*
D03*
X0486078D02*
D03*
X0392757Y0339821D02*
D03*
X0388457D02*
D03*
X0387277Y0415281D02*
D03*
X0391577D02*
D03*
X0392773Y0342541D02*
D03*
X0388473D02*
D03*
X0380357Y0345507D02*
D03*
X0384657D02*
D03*
X0383909Y0412487D02*
D03*
X0379609D02*
D03*
X0376938Y0336923D02*
D03*
X0372638D02*
D03*
X0406423Y0307829D02*
D03*
X0410723D02*
D03*
X0407588Y0378683D02*
D03*
X0411888D02*
D03*
X0419718Y0307675D02*
D03*
X0415418D02*
D03*
X0389563Y0269373D02*
D03*
X0393864D02*
D03*
X0390210Y0276025D02*
D03*
X0394510D02*
D03*
X0385852Y0272452D02*
D03*
X0381552D02*
D03*
X0380332Y0342837D02*
D03*
X0384632D02*
D03*
X0380266Y0340085D02*
D03*
X0384566D02*
D03*
X0369320Y0276863D02*
D03*
X0365019D02*
D03*
X0369261Y0274095D02*
D03*
X0364961D02*
D03*
X0369332Y0279721D02*
D03*
X0365032D02*
D03*
X0400865Y0274042D02*
D03*
X0405164D02*
D03*
X0407673Y0310553D02*
D03*
X0411973D02*
D03*
X0496787Y0390409D02*
D03*
X0501087D02*
D03*
X0489225Y0341283D02*
D03*
X0493525D02*
D03*
X0489225Y0344289D02*
D03*
X0493525D02*
D03*
X0455565Y0334259D02*
D03*
X0451265D02*
D03*
X0425730Y0284323D02*
D03*
X0421429D02*
D03*
X0482555Y0339961D02*
D03*
X0478255D02*
D03*
X0482585Y0337117D02*
D03*
X0478285D02*
D03*
X0478651Y0331496D02*
D03*
X0482951D02*
D03*
X0454959Y0328107D02*
D03*
X0450659D02*
D03*
X0495841Y0272768D02*
D03*
X0500141D02*
D03*
X0495697Y0268204D02*
D03*
X0499997D02*
D03*
X0509906D02*
D03*
X0505606D02*
D03*
X0505885Y0272717D02*
D03*
X0510184D02*
D03*
X0400904Y0270887D02*
D03*
X0405203D02*
D03*
X0404599Y0412910D02*
D03*
X0400299D02*
D03*
G54D53*
X0402953Y0349851D02*
D03*
X0398553D02*
D03*
X0432260Y0284033D02*
D03*
X0436660D02*
D03*
G54D56*
X0478170Y0358782D02*
D03*
Y0352682D02*
D03*
G54D57*
X0405408Y0326040D02*
D03*
X0401708D02*
D03*
X0390070Y0272572D02*
D03*
X0393770D02*
D03*
X0392654Y0345425D02*
D03*
X0388955D02*
D03*
G54D60*
X0454971Y0330955D02*
D03*
X0451471D02*
D03*
G54D61*
X0495433Y0420270D02*
D03*
Y0414145D02*
D03*
X0506179Y0414469D02*
D03*
Y0420594D02*
D03*
G54D77*
X0521374Y0350532D02*
D03*
X0521739Y0323947D02*
D03*
X0411146Y0341687D02*
D03*
X0521089Y0317941D02*
D03*
X0523668Y0312727D02*
D03*
G54D78*
X0525232Y0350532D02*
D03*
X0525597Y0323947D02*
D03*
X0407287Y0341687D02*
D03*
X0524947Y0317941D02*
D03*
X0519810Y0312727D02*
D03*
G54D79*
X0548783Y0270286D02*
D03*
X0334401D02*
D03*
Y0413156D02*
D03*
X0548783D02*
D03*
G54D80*
X0350010Y0294408D02*
D03*
G54D81*
Y0392439D02*
D03*
G54D82*
X0447683Y0330747D02*
D03*
X0486637Y0324285D02*
D03*
X0479528Y0317167D02*
D03*
X0479224Y0312035D02*
D03*
G54D83*
X0346363Y0315869D02*
D03*
X0346407Y0313470D02*
D03*
X0346423Y0308363D02*
D03*
X0346426Y0303463D02*
D03*
X0346438Y0310820D02*
D03*
X0346481Y0305848D02*
D03*
X0353548Y0315834D02*
D03*
X0353565Y0303281D02*
D03*
X0353591Y0313436D02*
D03*
X0353624Y0310889D02*
D03*
X0353646Y0305910D02*
D03*
X0353699Y0308437D02*
D03*
X0346365Y0325932D02*
D03*
X0346378Y0323413D02*
D03*
X0346392Y0320927D02*
D03*
X0346418Y0335841D02*
D03*
X0346430Y0333363D02*
D03*
X0346436Y0318499D02*
D03*
X0346452Y0340898D02*
D03*
X0346463Y0330874D02*
D03*
X0346497Y0343455D02*
D03*
X0346497Y0328474D02*
D03*
X0346564Y0338454D02*
D03*
X0353533Y0338451D02*
D03*
X0353539Y0340972D02*
D03*
X0353550Y0325898D02*
D03*
X0353562Y0323378D02*
D03*
X0353576Y0336052D02*
D03*
X0353577Y0320893D02*
D03*
X0353608Y0333505D02*
D03*
X0353620Y0318465D02*
D03*
X0353630Y0328527D02*
D03*
X0353684Y0331053D02*
D03*
X0346359Y0368546D02*
D03*
X0346372Y0370996D02*
D03*
X0346421Y0356056D02*
D03*
X0346429Y0363493D02*
D03*
X0346441Y0360903D02*
D03*
Y0358470D02*
D03*
X0346441Y0350912D02*
D03*
X0346452Y0345922D02*
D03*
X0346452Y0353401D02*
D03*
X0346452Y0348423D02*
D03*
X0346485Y0365848D02*
D03*
X0353530Y0360968D02*
D03*
X0353540Y0363445D02*
D03*
X0353544Y0368512D02*
D03*
X0353547Y0348415D02*
D03*
X0353547Y0345995D02*
D03*
X0353557Y0370962D02*
D03*
X0353558Y0366026D02*
D03*
X0353561Y0343509D02*
D03*
X0353573Y0358569D02*
D03*
X0353606Y0356022D02*
D03*
X0353627Y0351043D02*
D03*
X0353681Y0353570D02*
D03*
X0346329Y0373395D02*
D03*
X0346340Y0375872D02*
D03*
X0346343Y0380939D02*
D03*
X0346358Y0378453D02*
D03*
X0353514Y0373361D02*
D03*
X0353524Y0375838D02*
D03*
X0353528Y0380905D02*
D03*
X0353542Y0378419D02*
D03*
G54D84*
X0527548Y0318778D02*
D03*
X0519171Y0317801D02*
D03*
X0518641Y0314931D02*
D03*
X0528421Y0313019D02*
D03*
X0528255Y0334963D02*
D03*
X0507374Y0372914D02*
D03*
X0513426Y0327566D02*
D03*
X0513458Y0329385D02*
D03*
X0515726Y0384464D02*
D03*
X0530720Y0285653D02*
D03*
X0529119Y0342997D02*
D03*
X0529299Y0339472D02*
D03*
X0529578Y0329389D02*
D03*
X0528824Y0324160D02*
D03*
X0533120Y0285653D02*
D03*
X0528220D02*
D03*
X0525020Y0285753D02*
D03*
X0489399Y0323326D02*
D03*
X0483365Y0320282D02*
D03*
X0452390Y0350175D02*
D03*
X0491267Y0357176D02*
D03*
X0458074Y0302816D02*
D03*
X0522956Y0348689D02*
D03*
X0523793Y0343526D02*
D03*
X0456780Y0329649D02*
D03*
X0441103Y0303119D02*
D03*
X0450716Y0308920D02*
D03*
X0481264Y0328685D02*
D03*
X0478906Y0374057D02*
D03*
X0444302Y0316007D02*
D03*
X0442598Y0284385D02*
D03*
X0445250Y0268831D02*
D03*
X0425804Y0386721D02*
D03*
X0411078Y0409610D02*
D03*
X0422331Y0296424D02*
D03*
X0423609Y0400894D02*
D03*
X0427424Y0400911D02*
D03*
X0459894Y0394367D02*
D03*
X0453273Y0391452D02*
D03*
X0448282Y0391328D02*
D03*
X0487257Y0339793D02*
D03*
X0493224Y0367740D02*
D03*
X0491803Y0367750D02*
D03*
X0513455Y0372607D02*
D03*
X0502974Y0374471D02*
D03*
X0501084Y0374520D02*
D03*
X0481835Y0333752D02*
D03*
X0425447Y0356559D02*
D03*
X0425432Y0354675D02*
D03*
X0425521Y0358650D02*
D03*
X0425458Y0360747D02*
D03*
X0425597Y0368983D02*
D03*
X0427100Y0371007D02*
D03*
X0432006Y0368843D02*
D03*
X0432026Y0364966D02*
D03*
X0432055Y0366899D02*
D03*
X0432036Y0361031D02*
D03*
X0432045Y0363013D02*
D03*
X0432036Y0359049D02*
D03*
X0431987Y0357106D02*
D03*
X0432006Y0355104D02*
D03*
X0425400Y0366901D02*
D03*
X0425433Y0362928D02*
D03*
X0425475Y0364915D02*
D03*
X0414470Y0349060D02*
D03*
X0414183Y0352797D02*
D03*
X0414396Y0356102D02*
D03*
X0414404Y0358148D02*
D03*
X0414050Y0363123D02*
D03*
X0414493Y0366307D02*
D03*
X0414205Y0369624D02*
D03*
X0414280Y0372755D02*
D03*
X0411053Y0424275D02*
D03*
X0405384Y0422514D02*
D03*
X0405461Y0424207D02*
D03*
X0482543Y0341378D02*
D03*
X0475618Y0398935D02*
D03*
X0475005Y0267155D02*
D03*
X0475116Y0270740D02*
D03*
X0471495Y0284973D02*
D03*
X0469613Y0285085D02*
D03*
X0459927Y0286992D02*
D03*
X0455108Y0286054D02*
D03*
X0441862Y0270234D02*
D03*
X0475257Y0309160D02*
D03*
X0505054Y0270690D02*
D03*
X0505120Y0267353D02*
D03*
X0495242Y0267287D02*
D03*
X0495275Y0270624D02*
D03*
X0482713Y0269383D02*
D03*
X0485142Y0269257D02*
D03*
X0480158D02*
D03*
X0505012Y0374454D02*
D03*
X0448824Y0384205D02*
D03*
X0467965Y0384904D02*
D03*
X0516919Y0407735D02*
D03*
X0455080Y0304887D02*
D03*
X0463854Y0376619D02*
D03*
X0469163Y0389426D02*
D03*
X0435208Y0283195D02*
D03*
X0453451Y0317006D02*
D03*
X0506240Y0413062D02*
D03*
X0504935Y0411743D02*
D03*
X0455661Y0398670D02*
D03*
X0455296Y0267114D02*
D03*
X0460569Y0267132D02*
D03*
X0523460Y0337219D02*
D03*
X0528971Y0371931D02*
D03*
X0529028Y0364754D02*
D03*
X0504910Y0414300D02*
D03*
X0467134Y0332921D02*
D03*
X0441941Y0377222D02*
D03*
X0427249Y0318582D02*
D03*
X0426354Y0320405D02*
D03*
X0411129Y0275456D02*
D03*
X0411655Y0326325D02*
D03*
X0440801Y0327082D02*
D03*
X0440816Y0329186D02*
D03*
X0440942Y0331134D02*
D03*
X0431568Y0310935D02*
D03*
X0431546Y0308916D02*
D03*
X0430998Y0304622D02*
D03*
X0431153Y0300331D02*
D03*
X0431423Y0298386D02*
D03*
X0430844Y0302399D02*
D03*
X0425820Y0299200D02*
D03*
X0425849Y0301323D02*
D03*
X0411770Y0289293D02*
D03*
X0411496Y0292028D02*
D03*
X0415026Y0278666D02*
D03*
X0415106Y0282308D02*
D03*
X0411470Y0335699D02*
D03*
X0436577Y0350176D02*
D03*
X0432416Y0268767D02*
D03*
X0434283Y0349614D02*
D03*
X0481207Y0382334D02*
D03*
X0436515Y0414591D02*
D03*
X0385369Y0274537D02*
D03*
X0388416Y0271829D02*
D03*
X0388385Y0275624D02*
D03*
X0385316Y0275668D02*
D03*
X0473508Y0344560D02*
D03*
X0501952Y0367058D02*
D03*
X0501958Y0371809D02*
D03*
X0414260Y0313016D02*
D03*
X0416456Y0293145D02*
D03*
X0426978Y0304120D02*
D03*
X0450315Y0352070D02*
D03*
X0413515Y0342136D02*
D03*
X0413096Y0307541D02*
D03*
X0461102Y0375818D02*
D03*
X0473615Y0355701D02*
D03*
X0430018Y0283885D02*
D03*
X0427800Y0284253D02*
D03*
X0512038Y0428463D02*
D03*
X0505449Y0345367D02*
D03*
X0507096Y0345273D02*
D03*
X0457175Y0334058D02*
D03*
X0468063Y0347545D02*
D03*
X0463291Y0329461D02*
D03*
X0487227Y0342795D02*
D03*
X0529088Y0348640D02*
D03*
X0519719Y0323746D02*
D03*
X0518859Y0327316D02*
D03*
X0519117Y0371214D02*
D03*
X0470316Y0349106D02*
D03*
X0455840Y0376257D02*
D03*
X0457780Y0377071D02*
D03*
X0468554Y0391199D02*
D03*
X0495714Y0414322D02*
D03*
X0494625Y0412631D02*
D03*
X0496501Y0411519D02*
D03*
X0505002Y0428192D02*
D03*
X0506526Y0428092D02*
D03*
X0430345Y0423962D02*
D03*
X0431952Y0423979D02*
D03*
X0455433Y0339634D02*
D03*
X0370847Y0289781D02*
D03*
Y0323374D02*
D03*
X0376818Y0383444D02*
D03*
X0440447Y0414752D02*
D03*
X0414767Y0326250D02*
D03*
X0420678Y0282966D02*
D03*
X0427181Y0413849D02*
D03*
X0423809Y0413813D02*
D03*
X0430568Y0400928D02*
D03*
X0473854Y0359824D02*
D03*
X0459753Y0354377D02*
D03*
X0476836Y0328703D02*
D03*
X0464221Y0347795D02*
D03*
X0469363Y0329329D02*
D03*
X0442066Y0286992D02*
D03*
X0383613Y0285277D02*
D03*
X0425412Y0378672D02*
D03*
X0425031Y0382439D02*
D03*
X0426862Y0383224D02*
D03*
X0414169Y0360215D02*
D03*
X0427318Y0353238D02*
D03*
X0440500Y0385359D02*
D03*
X0485449Y0412743D02*
D03*
X0475534Y0414628D02*
D03*
X0480398Y0412747D02*
D03*
X0473458Y0348779D02*
D03*
X0427821Y0324114D02*
D03*
X0426271Y0332316D02*
D03*
X0426704Y0329566D02*
D03*
X0426584Y0326840D02*
D03*
X0426151Y0322961D02*
D03*
X0426794Y0381308D02*
D03*
X0426989Y0377672D02*
D03*
X0431889Y0313012D02*
D03*
X0431023Y0306833D02*
D03*
X0383738Y0290039D02*
D03*
X0427083Y0373717D02*
D03*
X0408138Y0376398D02*
D03*
X0440420Y0374666D02*
D03*
X0440955Y0382250D02*
D03*
X0469755Y0372916D02*
D03*
X0451754Y0371441D02*
D03*
X0450762Y0362973D02*
D03*
X0457811Y0354889D02*
D03*
X0456167Y0355591D02*
D03*
X0462061Y0355499D02*
D03*
X0470984Y0364468D02*
D03*
X0471056Y0362519D02*
D03*
X0445591Y0414680D02*
D03*
X0495043Y0393355D02*
D03*
X0459835Y0348314D02*
D03*
X0490267Y0360398D02*
D03*
X0490092Y0353801D02*
D03*
X0484416Y0308948D02*
D03*
X0521531Y0315328D02*
D03*
X0487667Y0308948D02*
D03*
X0374228Y0302782D02*
D03*
X0383325Y0300757D02*
D03*
X0383503Y0316968D02*
D03*
X0386700Y0388587D02*
D03*
X0383220Y0375429D02*
D03*
X0373718Y0334190D02*
D03*
X0386309Y0332648D02*
D03*
X0450629Y0398806D02*
D03*
X0491746Y0353811D02*
D03*
X0383225Y0332587D02*
D03*
X0460090Y0398710D02*
D03*
X0459603Y0414807D02*
D03*
X0455464Y0414644D02*
D03*
X0411424Y0279092D02*
D03*
X0411538Y0282068D02*
D03*
X0384628Y0347338D02*
D03*
X0440595Y0316988D02*
D03*
Y0319014D02*
D03*
X0440637Y0320997D02*
D03*
X0440580Y0322909D02*
D03*
X0440666Y0324977D02*
D03*
X0426352Y0316847D02*
D03*
X0484765Y0402173D02*
D03*
X0483001Y0414343D02*
D03*
X0405096Y0304161D02*
D03*
X0408080Y0304122D02*
D03*
X0405108Y0381352D02*
D03*
X0475379Y0340812D02*
D03*
X0383280Y0378587D02*
D03*
X0374647Y0323220D02*
D03*
X0383220Y0356415D02*
D03*
X0373252Y0373474D02*
D03*
X0383308Y0391160D02*
D03*
X0378641Y0274280D02*
D03*
X0473663Y0383379D02*
D03*
X0373009Y0360902D02*
D03*
Y0369621D02*
D03*
X0373070Y0277117D02*
D03*
X0386418Y0366015D02*
D03*
X0383331Y0369049D02*
D03*
X0383329Y0322993D02*
D03*
X0383233Y0359222D02*
D03*
X0378511Y0407034D02*
D03*
X0411540Y0356486D02*
D03*
X0513395Y0331152D02*
D03*
X0431695Y0293017D02*
D03*
X0514311Y0353149D02*
D03*
X0389446Y0307444D02*
D03*
X0411520Y0347257D02*
D03*
X0411677Y0285518D02*
D03*
X0388305Y0347401D02*
D03*
X0373499Y0312011D02*
D03*
X0377242Y0397398D02*
D03*
X0405146Y0310563D02*
D03*
X0383161Y0304129D02*
D03*
X0514039Y0349337D02*
D03*
X0376947Y0334261D02*
D03*
X0376897Y0351841D02*
D03*
X0371284Y0404917D02*
D03*
X0371217Y0406659D02*
D03*
X0376676Y0412402D02*
D03*
X0439950Y0376620D02*
D03*
X0411432Y0362832D02*
D03*
Y0322866D02*
D03*
Y0319724D02*
D03*
X0446027Y0370777D02*
D03*
X0411413Y0297844D02*
D03*
X0383355Y0294581D02*
D03*
X0385965Y0282257D02*
D03*
Y0288294D02*
D03*
Y0285350D02*
D03*
X0386163Y0279012D02*
D03*
X0386407Y0304204D02*
D03*
X0385737Y0294795D02*
D03*
X0386345Y0298074D02*
D03*
X0386509Y0301194D02*
D03*
X0411502Y0301697D02*
D03*
X0411622Y0313639D02*
D03*
X0414527Y0316729D02*
D03*
X0431426Y0370873D02*
D03*
X0411584Y0372203D02*
D03*
X0386409Y0310603D02*
D03*
X0404717Y0375926D02*
D03*
X0414563Y0329343D02*
D03*
X0414725Y0335406D02*
D03*
X0414560Y0319761D02*
D03*
X0411593Y0350166D02*
D03*
X0414646Y0400551D02*
D03*
X0414969Y0384791D02*
D03*
X0414902Y0381689D02*
D03*
X0414612Y0403669D02*
D03*
X0414663Y0406813D02*
D03*
X0439973Y0372489D02*
D03*
X0440462Y0378535D02*
D03*
X0439944Y0380616D02*
D03*
X0441021Y0388226D02*
D03*
X0414493Y0409976D02*
D03*
X0414816Y0397052D02*
D03*
X0411482Y0338863D02*
D03*
X0411541Y0316704D02*
D03*
X0411495Y0332418D02*
D03*
X0414695Y0338818D02*
D03*
X0414629Y0332418D02*
D03*
X0414640Y0323092D02*
D03*
X0411465Y0294817D02*
D03*
X0386597Y0350225D02*
D03*
X0373110Y0405397D02*
D03*
X0383694Y0393795D02*
D03*
X0411475Y0406777D02*
D03*
X0411538Y0403651D02*
D03*
X0411574Y0400540D02*
D03*
X0411582Y0369197D02*
D03*
X0411677Y0365995D02*
D03*
X0411627Y0394349D02*
D03*
X0414906Y0394221D02*
D03*
X0414832Y0391073D02*
D03*
X0411401Y0387893D02*
D03*
X0411389Y0391182D02*
D03*
X0411557Y0384774D02*
D03*
X0414834Y0387783D02*
D03*
X0411503Y0353326D02*
D03*
X0383517Y0397263D02*
D03*
X0383194Y0326094D02*
D03*
X0383390Y0282575D02*
D03*
X0383341Y0297921D02*
D03*
X0383234Y0279220D02*
D03*
X0386392Y0335736D02*
D03*
X0383232Y0335587D02*
D03*
X0386428Y0329303D02*
D03*
X0383295Y0329392D02*
D03*
X0386428Y0326147D02*
D03*
X0383133Y0313562D02*
D03*
X0386262Y0313647D02*
D03*
X0386531Y0317009D02*
D03*
X0383133Y0319893D02*
D03*
X0386267Y0320187D02*
D03*
X0383192Y0350208D02*
D03*
Y0353115D02*
D03*
X0386342Y0353115D02*
D03*
Y0356264D02*
D03*
X0386301Y0359462D02*
D03*
X0383658Y0365704D02*
D03*
X0383370Y0384741D02*
D03*
X0386278Y0384866D02*
D03*
X0383345Y0387963D02*
D03*
X0386278Y0391135D02*
D03*
X0386344Y0397336D02*
D03*
X0383350Y0400563D02*
D03*
X0386381Y0400628D02*
D03*
X0386474Y0403789D02*
D03*
X0383160Y0403546D02*
D03*
X0383146Y0406839D02*
D03*
X0386366Y0406785D02*
D03*
X0386430Y0369119D02*
D03*
X0383284Y0372265D02*
D03*
X0386471Y0372241D02*
D03*
X0386335Y0375333D02*
D03*
G54D85*
X0465051Y0318865D02*
D03*
X0466386Y0320725D02*
D03*
X0456267Y0324784D02*
D03*
X0460600Y0324953D02*
D03*
X0468395Y0316850D02*
D03*
X0470499Y0319200D02*
D03*
X0470467Y0317059D02*
D03*
X0476161Y0323832D02*
D03*
X0460986Y0315266D02*
D03*
X0470503Y0312120D02*
D03*
X0468438Y0321104D02*
D03*
X0461569Y0312356D02*
D03*
X0468457Y0319208D02*
D03*
X0459050Y0322672D02*
D03*
X0464490Y0325092D02*
D03*
X0462967Y0324636D02*
D03*
X0468877Y0315252D02*
D03*
X0464736Y0315034D02*
D03*
X0466778Y0318893D02*
D03*
X0464499Y0316739D02*
D03*
X0470357Y0321123D02*
D03*
X0472608Y0322500D02*
D03*
X0466904Y0326626D02*
D03*
X0464840Y0323108D02*
D03*
X0468915Y0326649D02*
D03*
X0460811Y0319013D02*
D03*
X0458845Y0318892D02*
D03*
X0458975Y0320714D02*
D03*
X0460839Y0322858D02*
D03*
X0460782Y0326815D02*
D03*
X0464841Y0326653D02*
D03*
X0460954Y0317237D02*
D03*
X0456463Y0318016D02*
D03*
X0472903Y0320023D02*
D03*
X0472919Y0317990D02*
D03*
X0456521Y0321706D02*
D03*
X0456423Y0320161D02*
D03*
X0463352Y0318893D02*
D03*
X0463864Y0320904D02*
D03*
X0458967Y0326646D02*
D03*
X0458934Y0324753D02*
D03*
X0470524Y0324764D02*
D03*
X0468506Y0324735D02*
D03*
X0476365Y0321049D02*
D03*
X0463692Y0312727D02*
D03*
G54D86*
X0457537Y0312478D02*
D03*
X0386459Y0381723D02*
D03*
X0370627Y0255174D02*
D03*
X0368163Y0255100D02*
D03*
X0369054Y0428314D02*
D03*
X0367029Y0256345D02*
D03*
X0363752Y0427217D02*
D03*
X0365736Y0428113D02*
D03*
X0369310Y0256312D02*
D03*
X0367500Y0427116D02*
D03*
X0459814Y0312316D02*
D03*
X0389251Y0378505D02*
D03*
X0400470Y0269079D02*
D03*
X0396549Y0275879D02*
D03*
X0395850Y0269244D02*
D03*
X0395967Y0271413D02*
D03*
X0397381Y0307377D02*
D03*
X0495286Y0317871D02*
D03*
X0497215Y0314739D02*
D03*
X0495311Y0315628D02*
D03*
X0466011Y0312059D02*
D03*
X0401738Y0310299D02*
D03*
X0368432Y0361123D02*
D03*
X0395784Y0282072D02*
D03*
X0396003Y0279221D02*
D03*
X0401966Y0304244D02*
D03*
X0401931Y0381667D02*
D03*
X0395607Y0365965D02*
D03*
X0395588Y0294757D02*
D03*
X0395691Y0326145D02*
D03*
X0394142Y0381617D02*
D03*
X0392887Y0303923D02*
D03*
X0395936Y0285542D02*
D03*
X0395782Y0319233D02*
D03*
X0398880Y0300983D02*
D03*
X0388014Y0410218D02*
D03*
X0392982Y0307939D02*
D03*
X0388189Y0412975D02*
D03*
X0383272Y0307649D02*
D03*
X0383690Y0413411D02*
D03*
X0383924Y0409987D02*
D03*
X0395533Y0353423D02*
D03*
Y0350290D02*
D03*
Y0356599D02*
D03*
Y0359750D02*
D03*
X0398491Y0313665D02*
D03*
X0395831Y0316449D02*
D03*
X0393052Y0332686D02*
D03*
X0395642Y0387722D02*
D03*
X0402099Y0301489D02*
D03*
X0395690Y0288516D02*
D03*
X0395691Y0322902D02*
D03*
X0402049Y0372535D02*
D03*
X0398416Y0372322D02*
D03*
X0395503Y0390873D02*
D03*
X0401897Y0313562D02*
D03*
X0401841Y0375784D02*
D03*
X0398833Y0375374D02*
D03*
X0392516Y0335802D02*
D03*
X0395738Y0394212D02*
D03*
Y0397468D02*
D03*
X0395871Y0403830D02*
D03*
X0395781Y0406791D02*
D03*
X0401964Y0384874D02*
D03*
X0398835Y0384924D02*
D03*
G54D104*
X0455990Y0283788D02*
D03*
X0457959D02*
D03*
X0461896D02*
D03*
X0463864D02*
D03*
Y0280288D02*
D03*
X0461896D02*
D03*
X0457959D02*
D03*
X0455990D02*
D03*
X0469545Y0279528D02*
D03*
X0471514D02*
D03*
X0475451D02*
D03*
X0477419D02*
D03*
Y0283028D02*
D03*
X0475451D02*
D03*
X0471514D02*
D03*
X0469545D02*
D03*
G54D105*
X0459927Y0283788D02*
D03*
Y0280288D02*
D03*
X0473482Y0279528D02*
D03*
Y0283028D02*
D03*
G54D109*
X0511800Y0399843D02*
D03*
X0505700D02*
D03*
X0515821Y0410059D02*
D03*
X0509721D02*
D03*
G54D112*
X0458808Y0329645D02*
D03*
Y0333745D02*
D03*
G54D113*
X0340758Y0300923D02*
D03*
Y0303423D02*
D03*
Y0305923D02*
D03*
Y0308423D02*
D03*
Y0310923D02*
D03*
Y0313423D02*
D03*
Y0315923D02*
D03*
Y0318423D02*
D03*
Y0320923D02*
D03*
Y0323423D02*
D03*
Y0325923D02*
D03*
Y0328423D02*
D03*
Y0330923D02*
D03*
Y0333423D02*
D03*
Y0335923D02*
D03*
Y0338423D02*
D03*
Y0340923D02*
D03*
Y0343423D02*
D03*
Y0345923D02*
D03*
Y0348423D02*
D03*
Y0350923D02*
D03*
Y0353423D02*
D03*
Y0355923D02*
D03*
Y0358423D02*
D03*
Y0360923D02*
D03*
Y0363423D02*
D03*
Y0365923D02*
D03*
Y0368423D02*
D03*
Y0370923D02*
D03*
Y0373423D02*
D03*
Y0375923D02*
D03*
Y0378423D02*
D03*
Y0380923D02*
D03*
Y0383423D02*
D03*
Y0385923D02*
D03*
X0359261Y0300923D02*
D03*
Y0303423D02*
D03*
Y0305923D02*
D03*
Y0308423D02*
D03*
Y0310923D02*
D03*
Y0313423D02*
D03*
Y0315923D02*
D03*
Y0318423D02*
D03*
Y0320923D02*
D03*
Y0323423D02*
D03*
Y0325923D02*
D03*
Y0328423D02*
D03*
Y0330923D02*
D03*
Y0333423D02*
D03*
Y0335923D02*
D03*
Y0338423D02*
D03*
Y0340923D02*
D03*
Y0343423D02*
D03*
Y0345923D02*
D03*
Y0348423D02*
D03*
Y0350923D02*
D03*
Y0353423D02*
D03*
Y0355923D02*
D03*
Y0358423D02*
D03*
Y0360923D02*
D03*
Y0363423D02*
D03*
Y0365923D02*
D03*
Y0368423D02*
D03*
Y0370923D02*
D03*
Y0373423D02*
D03*
Y0375923D02*
D03*
Y0378423D02*
D03*
Y0380923D02*
D03*
Y0383423D02*
D03*
Y0385923D02*
D03*
G54D114*
X0350010Y0286337D02*
D03*
Y0400510D02*
D03*
G54D115*
X0444267Y0271768D02*
D03*
Y0270391D02*
D03*
G54D116*
X0442693Y0271079D02*
D03*
G54D117*
X0435189Y0272237D02*
D03*
X0433789D02*
D03*
X0432389D02*
D03*
Y0275837D02*
D03*
X0433789D02*
D03*
X0435189D02*
D03*
G54D118*
X0527384Y0332474D02*
D03*
X0517455Y0380347D02*
D03*
X0520114Y0389536D02*
D03*
X0526951Y0340177D02*
D03*
G54D119*
X0527384Y0328616D02*
D03*
X0517455Y0384205D02*
D03*
X0520114Y0393394D02*
D03*
X0526951Y0344035D02*
D03*
M02*
