G04*
G04 #@! TF.GenerationSoftware,Altium Limited,Altium Designer,24.3.1 (35)*
G04*
G04 Layer_Color=32896*
%FSAX25Y25*%
%MOIN*%
G70*
G04*
G04 #@! TF.SameCoordinates,9BAF8AC8-72E2-4161-A934-73288D8D8D4B*
G04*
G04*
G04 #@! TF.FilePolarity,Positive*
G04*
G01*
G75*
%ADD11C,0.01000*%
%ADD19C,0.00100*%
%ADD20C,0.00800*%
%ADD90C,0.01500*%
G54D11*
X0075325Y0851930D02*
Y0845932D01*
X0079324D01*
X0082323Y0849930D02*
X0084322D01*
X0085322Y0848930D01*
Y0845932D01*
X0082323D01*
X0081323Y0846931D01*
X0082323Y0847931D01*
X0085322D01*
X0087321Y0849930D02*
Y0846931D01*
X0088321Y0845932D01*
X0091320D01*
Y0844932D01*
X0090320Y0843932D01*
X0089320D01*
X0091320Y0845932D02*
Y0849930D01*
X0096318Y0845932D02*
X0094319D01*
X0093319Y0846931D01*
Y0848930D01*
X0094319Y0849930D01*
X0096318D01*
X0097318Y0848930D01*
Y0847931D01*
X0093319D01*
X0099317Y0849930D02*
Y0845932D01*
Y0847931D01*
X0100317Y0848930D01*
X0101317Y0849930D01*
X0102316D01*
X0075325Y0658930D02*
X0076325Y0659930D01*
X0078324D01*
X0079324Y0658930D01*
Y0657930D01*
X0078324Y0656930D01*
X0079324Y0655931D01*
Y0654931D01*
X0078324Y0653932D01*
X0076325D01*
X0075325Y0654931D01*
Y0655931D01*
X0076325Y0656930D01*
X0075325Y0657930D01*
Y0658930D01*
X0076325Y0656930D02*
X0078324D01*
X0075325Y0683930D02*
X0079324D01*
Y0682930D01*
X0075325Y0678931D01*
Y0677931D01*
X0079324Y0707930D02*
X0077324Y0706930D01*
X0075325Y0704930D01*
Y0702931D01*
X0076325Y0701931D01*
X0078324D01*
X0079324Y0702931D01*
Y0703931D01*
X0078324Y0704930D01*
X0075325D01*
X0079324Y0731930D02*
X0075325D01*
Y0728931D01*
X0077324Y0729930D01*
X0078324D01*
X0079324Y0728931D01*
Y0726931D01*
X0078324Y0725932D01*
X0076325D01*
X0075325Y0726931D01*
X0078324Y0749931D02*
Y0755930D01*
X0075325Y0752930D01*
X0079324D01*
X0075325Y0778930D02*
X0076325Y0779930D01*
X0078324D01*
X0079324Y0778930D01*
Y0777930D01*
X0078324Y0776931D01*
X0077324D01*
X0078324D01*
X0079324Y0775931D01*
Y0774931D01*
X0078324Y0773932D01*
X0076325D01*
X0075325Y0774931D01*
X0079324Y0797931D02*
X0075325D01*
X0079324Y0801930D01*
Y0802930D01*
X0078324Y0803930D01*
X0076325D01*
X0075325Y0802930D01*
Y0821931D02*
X0077324D01*
X0076325D01*
Y0827930D01*
X0075325Y0826930D01*
X0116316Y0845932D02*
Y0851930D01*
X0120315Y0845932D01*
Y0851930D01*
X0123314Y0849930D02*
X0125313D01*
X0126313Y0848930D01*
Y0845932D01*
X0123314D01*
X0122314Y0846931D01*
X0123314Y0847931D01*
X0126313D01*
X0128312Y0845932D02*
Y0849930D01*
X0129312D01*
X0130312Y0848930D01*
Y0845932D01*
Y0848930D01*
X0131312Y0849930D01*
X0132311Y0848930D01*
Y0845932D01*
X0137310D02*
X0135310D01*
X0134310Y0846931D01*
Y0848930D01*
X0135310Y0849930D01*
X0137310D01*
X0138309Y0848930D01*
Y0847931D01*
X0134310D01*
X0116316Y0647930D02*
Y0641931D01*
X0119315D01*
X0120315Y0642931D01*
Y0643931D01*
X0119315Y0644931D01*
X0116316D01*
X0119315D01*
X0120315Y0645930D01*
Y0646930D01*
X0119315Y0647930D01*
X0116316D01*
X0123314Y0641931D02*
X0125313D01*
X0126313Y0642931D01*
Y0644931D01*
X0125313Y0645930D01*
X0123314D01*
X0122314Y0644931D01*
Y0642931D01*
X0123314Y0641931D01*
X0129312Y0646930D02*
Y0645930D01*
X0128312D01*
X0130312D01*
X0129312D01*
Y0642931D01*
X0130312Y0641931D01*
X0134310Y0646930D02*
Y0645930D01*
X0133311D01*
X0135310D01*
X0134310D01*
Y0642931D01*
X0135310Y0641931D01*
X0139309D02*
X0141308D01*
X0142308Y0642931D01*
Y0644931D01*
X0141308Y0645930D01*
X0139309D01*
X0138309Y0644931D01*
Y0642931D01*
X0139309Y0641931D01*
X0144307D02*
Y0645930D01*
X0145307D01*
X0146307Y0644931D01*
Y0641931D01*
Y0644931D01*
X0147306Y0645930D01*
X0148306Y0644931D01*
Y0641931D01*
X0160302Y0646930D02*
X0159302Y0647930D01*
X0157303D01*
X0156303Y0646930D01*
Y0645930D01*
X0157303Y0644931D01*
X0159302D01*
X0160302Y0643931D01*
Y0642931D01*
X0159302Y0641931D01*
X0157303D01*
X0156303Y0642931D01*
X0163301Y0641931D02*
X0165301D01*
X0166300Y0642931D01*
Y0644931D01*
X0165301Y0645930D01*
X0163301D01*
X0162301Y0644931D01*
Y0642931D01*
X0163301Y0641931D01*
X0168299D02*
X0170299D01*
X0169299D01*
Y0647930D01*
X0168299D01*
X0177297D02*
Y0641931D01*
X0174298D01*
X0173298Y0642931D01*
Y0644931D01*
X0174298Y0645930D01*
X0177297D01*
X0182295Y0641931D02*
X0180296D01*
X0179296Y0642931D01*
Y0644931D01*
X0180296Y0645930D01*
X0182295D01*
X0183295Y0644931D01*
Y0643931D01*
X0179296D01*
X0185294Y0645930D02*
Y0641931D01*
Y0643931D01*
X0186294Y0644931D01*
X0187293Y0645930D01*
X0188293D01*
X0116316Y0659930D02*
Y0653932D01*
X0119315D01*
X0120315Y0654931D01*
Y0655931D01*
X0119315Y0656930D01*
X0116316D01*
X0119315D01*
X0120315Y0657930D01*
Y0658930D01*
X0119315Y0659930D01*
X0116316D01*
X0123314Y0653932D02*
X0125313D01*
X0126313Y0654931D01*
Y0656930D01*
X0125313Y0657930D01*
X0123314D01*
X0122314Y0656930D01*
Y0654931D01*
X0123314Y0653932D01*
X0129312Y0658930D02*
Y0657930D01*
X0128312D01*
X0130312D01*
X0129312D01*
Y0654931D01*
X0130312Y0653932D01*
X0134310Y0658930D02*
Y0657930D01*
X0133311D01*
X0135310D01*
X0134310D01*
Y0654931D01*
X0135310Y0653932D01*
X0139309D02*
X0141308D01*
X0142308Y0654931D01*
Y0656930D01*
X0141308Y0657930D01*
X0139309D01*
X0138309Y0656930D01*
Y0654931D01*
X0139309Y0653932D01*
X0144307D02*
Y0657930D01*
X0145307D01*
X0146307Y0656930D01*
Y0653932D01*
Y0656930D01*
X0147306Y0657930D01*
X0148306Y0656930D01*
Y0653932D01*
X0156303Y0659930D02*
Y0653932D01*
X0160302D01*
X0163301Y0657930D02*
X0165301D01*
X0166300Y0656930D01*
Y0653932D01*
X0163301D01*
X0162301Y0654931D01*
X0163301Y0655931D01*
X0166300D01*
X0168299Y0657930D02*
Y0654931D01*
X0169299Y0653932D01*
X0172298D01*
Y0652932D01*
X0171299Y0651932D01*
X0170299D01*
X0172298Y0653932D02*
Y0657930D01*
X0177297Y0653932D02*
X0175297D01*
X0174298Y0654931D01*
Y0656930D01*
X0175297Y0657930D01*
X0177297D01*
X0178296Y0656930D01*
Y0655931D01*
X0174298D01*
X0180296Y0657930D02*
Y0653932D01*
Y0655931D01*
X0181295Y0656930D01*
X0182295Y0657930D01*
X0183295D01*
X0116316Y0671930D02*
Y0665932D01*
X0119315D01*
X0120315Y0666931D01*
Y0670930D01*
X0119315Y0671930D01*
X0116316D01*
X0122314Y0665932D02*
X0124314D01*
X0123314D01*
Y0669930D01*
X0122314D01*
X0130312Y0665932D02*
X0128312D01*
X0127313Y0666931D01*
Y0668930D01*
X0128312Y0669930D01*
X0130312D01*
X0131312Y0668930D01*
Y0667931D01*
X0127313D01*
X0133311Y0665932D02*
X0135310D01*
X0134310D01*
Y0671930D01*
X0133311D01*
X0141308Y0665932D02*
X0139309D01*
X0138309Y0666931D01*
Y0668930D01*
X0139309Y0669930D01*
X0141308D01*
X0142308Y0668930D01*
Y0667931D01*
X0138309D01*
X0148306Y0669930D02*
X0145307D01*
X0144307Y0668930D01*
Y0666931D01*
X0145307Y0665932D01*
X0148306D01*
X0151305Y0670930D02*
Y0669930D01*
X0150305D01*
X0152305D01*
X0151305D01*
Y0666931D01*
X0152305Y0665932D01*
X0155304Y0669930D02*
Y0665932D01*
Y0667931D01*
X0156303Y0668930D01*
X0157303Y0669930D01*
X0158303D01*
X0161302Y0665932D02*
X0163301D01*
X0162301D01*
Y0669930D01*
X0161302D01*
X0170299D02*
X0167300D01*
X0166300Y0668930D01*
Y0666931D01*
X0167300Y0665932D01*
X0170299D01*
X0178296D02*
X0180296D01*
X0179296D01*
Y0671930D01*
X0178296Y0670930D01*
X0183295Y0665932D02*
X0185294D01*
X0184294D01*
Y0671930D01*
X0183295Y0670930D01*
X0120315Y0682930D02*
X0119315Y0683930D01*
X0117316D01*
X0116316Y0682930D01*
Y0678931D01*
X0117316Y0677931D01*
X0119315D01*
X0120315Y0678931D01*
Y0680931D01*
X0118316D01*
X0122314Y0677931D02*
Y0683930D01*
X0126313Y0677931D01*
Y0683930D01*
X0128312D02*
Y0677931D01*
X0131312D01*
X0132311Y0678931D01*
Y0682930D01*
X0131312Y0683930D01*
X0128312D01*
X0137310Y0677931D02*
Y0683930D01*
X0134310Y0680931D01*
X0138309D01*
X0116316Y0695930D02*
Y0689931D01*
X0119315D01*
X0120315Y0690931D01*
Y0694930D01*
X0119315Y0695930D01*
X0116316D01*
X0122314Y0689931D02*
X0124314D01*
X0123314D01*
Y0693930D01*
X0122314D01*
X0130312Y0689931D02*
X0128312D01*
X0127313Y0690931D01*
Y0692931D01*
X0128312Y0693930D01*
X0130312D01*
X0131312Y0692931D01*
Y0691931D01*
X0127313D01*
X0133311Y0689931D02*
X0135310D01*
X0134310D01*
Y0695930D01*
X0133311D01*
X0141308Y0689931D02*
X0139309D01*
X0138309Y0690931D01*
Y0692931D01*
X0139309Y0693930D01*
X0141308D01*
X0142308Y0692931D01*
Y0691931D01*
X0138309D01*
X0148306Y0693930D02*
X0145307D01*
X0144307Y0692931D01*
Y0690931D01*
X0145307Y0689931D01*
X0148306D01*
X0151305Y0694930D02*
Y0693930D01*
X0150305D01*
X0152305D01*
X0151305D01*
Y0690931D01*
X0152305Y0689931D01*
X0155304Y0693930D02*
Y0689931D01*
Y0691931D01*
X0156303Y0692931D01*
X0157303Y0693930D01*
X0158303D01*
X0161302Y0689931D02*
X0163301D01*
X0162301D01*
Y0693930D01*
X0161302D01*
X0170299D02*
X0167300D01*
X0166300Y0692931D01*
Y0690931D01*
X0167300Y0689931D01*
X0170299D01*
X0178296Y0694930D02*
X0179296Y0695930D01*
X0181295D01*
X0182295Y0694930D01*
Y0693930D01*
X0181295Y0692931D01*
X0182295Y0691931D01*
Y0690931D01*
X0181295Y0689931D01*
X0179296D01*
X0178296Y0690931D01*
Y0691931D01*
X0179296Y0692931D01*
X0178296Y0693930D01*
Y0694930D01*
X0179296Y0692931D02*
X0181295D01*
X0120315Y0706930D02*
X0119315Y0707930D01*
X0117316D01*
X0116316Y0706930D01*
Y0705930D01*
X0117316Y0704930D01*
X0119315D01*
X0120315Y0703931D01*
Y0702931D01*
X0119315Y0701931D01*
X0117316D01*
X0116316Y0702931D01*
X0122314Y0701931D02*
X0124314D01*
X0123314D01*
Y0705930D01*
X0122314D01*
X0129312Y0699932D02*
X0130312D01*
X0131312Y0700932D01*
Y0705930D01*
X0128312D01*
X0127313Y0704930D01*
Y0702931D01*
X0128312Y0701931D01*
X0131312D01*
X0133311D02*
Y0705930D01*
X0136310D01*
X0137310Y0704930D01*
Y0701931D01*
X0140309Y0705930D02*
X0142308D01*
X0143308Y0704930D01*
Y0701931D01*
X0140309D01*
X0139309Y0702931D01*
X0140309Y0703931D01*
X0143308D01*
X0145307Y0701931D02*
X0147306D01*
X0146307D01*
Y0707930D01*
X0145307D01*
X0156303D02*
Y0701931D01*
X0160302D01*
X0163301Y0705930D02*
X0165301D01*
X0166300Y0704930D01*
Y0701931D01*
X0163301D01*
X0162301Y0702931D01*
X0163301Y0703931D01*
X0166300D01*
X0168299Y0705930D02*
Y0702931D01*
X0169299Y0701931D01*
X0172298D01*
Y0700932D01*
X0171299Y0699932D01*
X0170299D01*
X0172298Y0701931D02*
Y0705930D01*
X0177297Y0701931D02*
X0175297D01*
X0174298Y0702931D01*
Y0704930D01*
X0175297Y0705930D01*
X0177297D01*
X0178296Y0704930D01*
Y0703931D01*
X0174298D01*
X0180296Y0705930D02*
Y0701931D01*
Y0703931D01*
X0181295Y0704930D01*
X0182295Y0705930D01*
X0183295D01*
X0196291Y0701931D02*
X0192292D01*
X0196291Y0705930D01*
Y0706930D01*
X0195291Y0707930D01*
X0193291D01*
X0192292Y0706930D01*
X0116316Y0719930D02*
Y0713932D01*
X0119315D01*
X0120315Y0714931D01*
Y0718930D01*
X0119315Y0719930D01*
X0116316D01*
X0122314Y0713932D02*
X0124314D01*
X0123314D01*
Y0717930D01*
X0122314D01*
X0130312Y0713932D02*
X0128312D01*
X0127313Y0714931D01*
Y0716930D01*
X0128312Y0717930D01*
X0130312D01*
X0131312Y0716930D01*
Y0715931D01*
X0127313D01*
X0133311Y0713932D02*
X0135310D01*
X0134310D01*
Y0719930D01*
X0133311D01*
X0141308Y0713932D02*
X0139309D01*
X0138309Y0714931D01*
Y0716930D01*
X0139309Y0717930D01*
X0141308D01*
X0142308Y0716930D01*
Y0715931D01*
X0138309D01*
X0148306Y0717930D02*
X0145307D01*
X0144307Y0716930D01*
Y0714931D01*
X0145307Y0713932D01*
X0148306D01*
X0151305Y0718930D02*
Y0717930D01*
X0150305D01*
X0152305D01*
X0151305D01*
Y0714931D01*
X0152305Y0713932D01*
X0155304Y0717930D02*
Y0713932D01*
Y0715931D01*
X0156303Y0716930D01*
X0157303Y0717930D01*
X0158303D01*
X0161302Y0713932D02*
X0163301D01*
X0162301D01*
Y0717930D01*
X0161302D01*
X0170299D02*
X0167300D01*
X0166300Y0716930D01*
Y0714931D01*
X0167300Y0713932D01*
X0170299D01*
X0178296Y0719930D02*
X0182295D01*
Y0718930D01*
X0178296Y0714931D01*
Y0713932D01*
X0120315Y0730930D02*
X0119315Y0731930D01*
X0117316D01*
X0116316Y0730930D01*
Y0726931D01*
X0117316Y0725932D01*
X0119315D01*
X0120315Y0726931D01*
Y0728931D01*
X0118316D01*
X0122314Y0725932D02*
Y0731930D01*
X0126313Y0725932D01*
Y0731930D01*
X0128312D02*
Y0725932D01*
X0131312D01*
X0132311Y0726931D01*
Y0730930D01*
X0131312Y0731930D01*
X0128312D01*
X0134310Y0725932D02*
X0138309Y0729930D01*
X0140309Y0725932D02*
Y0731930D01*
X0143308D01*
X0144307Y0730930D01*
Y0728931D01*
X0143308Y0727931D01*
X0140309D01*
X0146307Y0731930D02*
Y0725932D01*
X0148306Y0727931D01*
X0150305Y0725932D01*
Y0731930D01*
X0152305Y0725932D02*
Y0731930D01*
X0155304D01*
X0156303Y0730930D01*
Y0728931D01*
X0155304Y0727931D01*
X0152305D01*
X0154304D02*
X0156303Y0725932D01*
X0162302D02*
X0158303D01*
X0162302Y0729930D01*
Y0730930D01*
X0161302Y0731930D01*
X0159302D01*
X0158303Y0730930D01*
X0116316Y0743930D02*
Y0737931D01*
X0119315D01*
X0120315Y0738931D01*
Y0742930D01*
X0119315Y0743930D01*
X0116316D01*
X0122314Y0737931D02*
X0124314D01*
X0123314D01*
Y0741930D01*
X0122314D01*
X0130312Y0737931D02*
X0128312D01*
X0127313Y0738931D01*
Y0740931D01*
X0128312Y0741930D01*
X0130312D01*
X0131312Y0740931D01*
Y0739931D01*
X0127313D01*
X0133311Y0737931D02*
X0135310D01*
X0134310D01*
Y0743930D01*
X0133311D01*
X0141308Y0737931D02*
X0139309D01*
X0138309Y0738931D01*
Y0740931D01*
X0139309Y0741930D01*
X0141308D01*
X0142308Y0740931D01*
Y0739931D01*
X0138309D01*
X0148306Y0741930D02*
X0145307D01*
X0144307Y0740931D01*
Y0738931D01*
X0145307Y0737931D01*
X0148306D01*
X0151305Y0742930D02*
Y0741930D01*
X0150305D01*
X0152305D01*
X0151305D01*
Y0738931D01*
X0152305Y0737931D01*
X0155304Y0741930D02*
Y0737931D01*
Y0739931D01*
X0156303Y0740931D01*
X0157303Y0741930D01*
X0158303D01*
X0161302Y0737931D02*
X0163301D01*
X0162301D01*
Y0741930D01*
X0161302D01*
X0170299D02*
X0167300D01*
X0166300Y0740931D01*
Y0738931D01*
X0167300Y0737931D01*
X0170299D01*
X0182295Y0743930D02*
X0180296Y0742930D01*
X0178296Y0740931D01*
Y0738931D01*
X0179296Y0737931D01*
X0181295D01*
X0182295Y0738931D01*
Y0739931D01*
X0181295Y0740931D01*
X0178296D01*
X0120315Y0754930D02*
X0119315Y0755930D01*
X0117316D01*
X0116316Y0754930D01*
Y0750931D01*
X0117316Y0749931D01*
X0119315D01*
X0120315Y0750931D01*
Y0752930D01*
X0118316D01*
X0122314Y0749931D02*
Y0755930D01*
X0126313Y0749931D01*
Y0755930D01*
X0128312D02*
Y0749931D01*
X0131312D01*
X0132311Y0750931D01*
Y0754930D01*
X0131312Y0755930D01*
X0128312D01*
X0134310Y0749931D02*
X0138309Y0753930D01*
X0140309Y0749931D02*
Y0755930D01*
X0143308D01*
X0144307Y0754930D01*
Y0752930D01*
X0143308Y0751931D01*
X0140309D01*
X0146307Y0755930D02*
Y0749931D01*
X0148306Y0751931D01*
X0150305Y0749931D01*
Y0755930D01*
X0152305Y0749931D02*
Y0755930D01*
X0155304D01*
X0156303Y0754930D01*
Y0752930D01*
X0155304Y0751931D01*
X0152305D01*
X0154304D02*
X0156303Y0749931D01*
X0158303D02*
X0160302D01*
X0159302D01*
Y0755930D01*
X0158303Y0754930D01*
X0116316Y0767930D02*
Y0761932D01*
X0119315D01*
X0120315Y0762931D01*
Y0766930D01*
X0119315Y0767930D01*
X0116316D01*
X0122314Y0761932D02*
X0124314D01*
X0123314D01*
Y0765930D01*
X0122314D01*
X0130312Y0761932D02*
X0128312D01*
X0127313Y0762931D01*
Y0764930D01*
X0128312Y0765930D01*
X0130312D01*
X0131312Y0764930D01*
Y0763931D01*
X0127313D01*
X0133311Y0761932D02*
X0135310D01*
X0134310D01*
Y0767930D01*
X0133311D01*
X0141308Y0761932D02*
X0139309D01*
X0138309Y0762931D01*
Y0764930D01*
X0139309Y0765930D01*
X0141308D01*
X0142308Y0764930D01*
Y0763931D01*
X0138309D01*
X0148306Y0765930D02*
X0145307D01*
X0144307Y0764930D01*
Y0762931D01*
X0145307Y0761932D01*
X0148306D01*
X0151305Y0766930D02*
Y0765930D01*
X0150305D01*
X0152305D01*
X0151305D01*
Y0762931D01*
X0152305Y0761932D01*
X0155304Y0765930D02*
Y0761932D01*
Y0763931D01*
X0156303Y0764930D01*
X0157303Y0765930D01*
X0158303D01*
X0161302Y0761932D02*
X0163301D01*
X0162301D01*
Y0765930D01*
X0161302D01*
X0170299D02*
X0167300D01*
X0166300Y0764930D01*
Y0762931D01*
X0167300Y0761932D01*
X0170299D01*
X0178296Y0766930D02*
X0179296Y0767930D01*
X0181295D01*
X0182295Y0766930D01*
Y0765930D01*
X0181295Y0764930D01*
X0180296D01*
X0181295D01*
X0182295Y0763931D01*
Y0762931D01*
X0181295Y0761932D01*
X0179296D01*
X0178296Y0762931D01*
X0120315Y0778930D02*
X0119315Y0779930D01*
X0117316D01*
X0116316Y0778930D01*
Y0777930D01*
X0117316Y0776931D01*
X0119315D01*
X0120315Y0775931D01*
Y0774931D01*
X0119315Y0773932D01*
X0117316D01*
X0116316Y0774931D01*
X0122314Y0773932D02*
X0124314D01*
X0123314D01*
Y0777930D01*
X0122314D01*
X0129312Y0771932D02*
X0130312D01*
X0131312Y0772932D01*
Y0777930D01*
X0128312D01*
X0127313Y0776931D01*
Y0774931D01*
X0128312Y0773932D01*
X0131312D01*
X0133311D02*
Y0777930D01*
X0136310D01*
X0137310Y0776931D01*
Y0773932D01*
X0140309Y0777930D02*
X0142308D01*
X0143308Y0776931D01*
Y0773932D01*
X0140309D01*
X0139309Y0774931D01*
X0140309Y0775931D01*
X0143308D01*
X0145307Y0773932D02*
X0147306D01*
X0146307D01*
Y0779930D01*
X0145307D01*
X0156303D02*
Y0773932D01*
X0160302D01*
X0163301Y0777930D02*
X0165301D01*
X0166300Y0776931D01*
Y0773932D01*
X0163301D01*
X0162301Y0774931D01*
X0163301Y0775931D01*
X0166300D01*
X0168299Y0777930D02*
Y0774931D01*
X0169299Y0773932D01*
X0172298D01*
Y0772932D01*
X0171299Y0771932D01*
X0170299D01*
X0172298Y0773932D02*
Y0777930D01*
X0177297Y0773932D02*
X0175297D01*
X0174298Y0774931D01*
Y0776931D01*
X0175297Y0777930D01*
X0177297D01*
X0178296Y0776931D01*
Y0775931D01*
X0174298D01*
X0180296Y0777930D02*
Y0773932D01*
Y0775931D01*
X0181295Y0776931D01*
X0182295Y0777930D01*
X0183295D01*
X0192292Y0773932D02*
X0194291D01*
X0193291D01*
Y0779930D01*
X0192292Y0778930D01*
X0116316Y0791930D02*
Y0785931D01*
X0119315D01*
X0120315Y0786931D01*
Y0790930D01*
X0119315Y0791930D01*
X0116316D01*
X0122314Y0785931D02*
X0124314D01*
X0123314D01*
Y0789930D01*
X0122314D01*
X0130312Y0785931D02*
X0128312D01*
X0127313Y0786931D01*
Y0788931D01*
X0128312Y0789930D01*
X0130312D01*
X0131312Y0788931D01*
Y0787931D01*
X0127313D01*
X0133311Y0785931D02*
X0135310D01*
X0134310D01*
Y0791930D01*
X0133311D01*
X0141308Y0785931D02*
X0139309D01*
X0138309Y0786931D01*
Y0788931D01*
X0139309Y0789930D01*
X0141308D01*
X0142308Y0788931D01*
Y0787931D01*
X0138309D01*
X0148306Y0789930D02*
X0145307D01*
X0144307Y0788931D01*
Y0786931D01*
X0145307Y0785931D01*
X0148306D01*
X0151305Y0790930D02*
Y0789930D01*
X0150305D01*
X0152305D01*
X0151305D01*
Y0786931D01*
X0152305Y0785931D01*
X0155304Y0789930D02*
Y0785931D01*
Y0787931D01*
X0156303Y0788931D01*
X0157303Y0789930D01*
X0158303D01*
X0161302Y0785931D02*
X0163301D01*
X0162301D01*
Y0789930D01*
X0161302D01*
X0170299D02*
X0167300D01*
X0166300Y0788931D01*
Y0786931D01*
X0167300Y0785931D01*
X0170299D01*
X0182295D02*
X0178296D01*
X0182295Y0789930D01*
Y0790930D01*
X0181295Y0791930D01*
X0179296D01*
X0178296Y0790930D01*
X0120315Y0802930D02*
X0119315Y0803930D01*
X0117316D01*
X0116316Y0802930D01*
Y0798931D01*
X0117316Y0797931D01*
X0119315D01*
X0120315Y0798931D01*
Y0800931D01*
X0118316D01*
X0122314Y0797931D02*
Y0803930D01*
X0126313Y0797931D01*
Y0803930D01*
X0128312D02*
Y0797931D01*
X0131312D01*
X0132311Y0798931D01*
Y0802930D01*
X0131312Y0803930D01*
X0128312D01*
X0134310Y0797931D02*
X0136310D01*
X0135310D01*
Y0803930D01*
X0134310Y0802930D01*
X0116316Y0815930D02*
Y0809931D01*
X0119315D01*
X0120315Y0810931D01*
Y0814930D01*
X0119315Y0815930D01*
X0116316D01*
X0122314Y0809931D02*
X0124314D01*
X0123314D01*
Y0813930D01*
X0122314D01*
X0130312Y0809931D02*
X0128312D01*
X0127313Y0810931D01*
Y0812930D01*
X0128312Y0813930D01*
X0130312D01*
X0131312Y0812930D01*
Y0811931D01*
X0127313D01*
X0133311Y0809931D02*
X0135310D01*
X0134310D01*
Y0815930D01*
X0133311D01*
X0141308Y0809931D02*
X0139309D01*
X0138309Y0810931D01*
Y0812930D01*
X0139309Y0813930D01*
X0141308D01*
X0142308Y0812930D01*
Y0811931D01*
X0138309D01*
X0148306Y0813930D02*
X0145307D01*
X0144307Y0812930D01*
Y0810931D01*
X0145307Y0809931D01*
X0148306D01*
X0151305Y0814930D02*
Y0813930D01*
X0150305D01*
X0152305D01*
X0151305D01*
Y0810931D01*
X0152305Y0809931D01*
X0155304Y0813930D02*
Y0809931D01*
Y0811931D01*
X0156303Y0812930D01*
X0157303Y0813930D01*
X0158303D01*
X0161302Y0809931D02*
X0163301D01*
X0162301D01*
Y0813930D01*
X0161302D01*
X0170299D02*
X0167300D01*
X0166300Y0812930D01*
Y0810931D01*
X0167300Y0809931D01*
X0170299D01*
X0172298D02*
X0174298D01*
X0173298D01*
Y0815930D01*
X0172298Y0814930D01*
X0116316Y0827930D02*
X0120315D01*
X0118316D01*
Y0821931D01*
X0123314D02*
X0125313D01*
X0126313Y0822931D01*
Y0824930D01*
X0125313Y0825930D01*
X0123314D01*
X0122314Y0824930D01*
Y0822931D01*
X0123314Y0821931D01*
X0128312Y0819932D02*
Y0825930D01*
X0131312D01*
X0132311Y0824930D01*
Y0822931D01*
X0131312Y0821931D01*
X0128312D01*
X0140309Y0827930D02*
Y0821931D01*
X0144307D01*
X0147306Y0825930D02*
X0149306D01*
X0150305Y0824930D01*
Y0821931D01*
X0147306D01*
X0146307Y0822931D01*
X0147306Y0823931D01*
X0150305D01*
X0152305Y0825930D02*
Y0822931D01*
X0153304Y0821931D01*
X0156303D01*
Y0820932D01*
X0155304Y0819932D01*
X0154304D01*
X0156303Y0821931D02*
Y0825930D01*
X0161302Y0821931D02*
X0159302D01*
X0158303Y0822931D01*
Y0824930D01*
X0159302Y0825930D01*
X0161302D01*
X0162302Y0824930D01*
Y0823931D01*
X0158303D01*
X0164301Y0825930D02*
Y0821931D01*
Y0823931D01*
X0165301Y0824930D01*
X0166300Y0825930D01*
X0167300D01*
X0116316Y0839930D02*
X0120315D01*
X0118316D01*
Y0833932D01*
X0123314D02*
X0125313D01*
X0126313Y0834931D01*
Y0836930D01*
X0125313Y0837930D01*
X0123314D01*
X0122314Y0836930D01*
Y0834931D01*
X0123314Y0833932D01*
X0128312Y0831932D02*
Y0837930D01*
X0131312D01*
X0132311Y0836930D01*
Y0834931D01*
X0131312Y0833932D01*
X0128312D01*
X0144307Y0838930D02*
X0143308Y0839930D01*
X0141308D01*
X0140309Y0838930D01*
Y0837930D01*
X0141308Y0836930D01*
X0143308D01*
X0144307Y0835931D01*
Y0834931D01*
X0143308Y0833932D01*
X0141308D01*
X0140309Y0834931D01*
X0147306Y0833932D02*
X0149306D01*
X0150305Y0834931D01*
Y0836930D01*
X0149306Y0837930D01*
X0147306D01*
X0146307Y0836930D01*
Y0834931D01*
X0147306Y0833932D01*
X0152305D02*
X0154304D01*
X0153304D01*
Y0839930D01*
X0152305D01*
X0161302D02*
Y0833932D01*
X0158303D01*
X0157303Y0834931D01*
Y0836930D01*
X0158303Y0837930D01*
X0161302D01*
X0166300Y0833932D02*
X0164301D01*
X0163301Y0834931D01*
Y0836930D01*
X0164301Y0837930D01*
X0166300D01*
X0167300Y0836930D01*
Y0835931D01*
X0163301D01*
X0169299Y0837930D02*
Y0833932D01*
Y0835931D01*
X0170299Y0836930D01*
X0171299Y0837930D01*
X0172298D01*
X0210291Y0845932D02*
Y0851930D01*
X0212290Y0849930D01*
X0214289Y0851930D01*
Y0845932D01*
X0217288Y0849930D02*
X0219288D01*
X0220287Y0848930D01*
Y0845932D01*
X0217288D01*
X0216288Y0846931D01*
X0217288Y0847931D01*
X0220287D01*
X0223286Y0850930D02*
Y0849930D01*
X0222287D01*
X0224286D01*
X0223286D01*
Y0846931D01*
X0224286Y0845932D01*
X0230284D02*
X0228285D01*
X0227285Y0846931D01*
Y0848930D01*
X0228285Y0849930D01*
X0230284D01*
X0231284Y0848930D01*
Y0847931D01*
X0227285D01*
X0233283Y0849930D02*
Y0845932D01*
Y0847931D01*
X0234283Y0848930D01*
X0235282Y0849930D01*
X0236282D01*
X0239281Y0845932D02*
X0241280D01*
X0240281D01*
Y0849930D01*
X0239281D01*
X0245279D02*
X0247278D01*
X0248278Y0848930D01*
Y0845932D01*
X0245279D01*
X0244280Y0846931D01*
X0245279Y0847931D01*
X0248278D01*
X0250277Y0845932D02*
X0252277D01*
X0251277D01*
Y0851930D01*
X0250277D01*
X0214289Y0646930D02*
X0213289Y0647930D01*
X0211290D01*
X0210291Y0646930D01*
Y0645930D01*
X0211290Y0644931D01*
X0213289D01*
X0214289Y0643931D01*
Y0642931D01*
X0213289Y0641931D01*
X0211290D01*
X0210291Y0642931D01*
X0217288Y0641931D02*
X0219288D01*
X0220287Y0642931D01*
Y0644931D01*
X0219288Y0645930D01*
X0217288D01*
X0216288Y0644931D01*
Y0642931D01*
X0217288Y0641931D01*
X0222287D02*
X0224286D01*
X0223286D01*
Y0647930D01*
X0222287D01*
X0231284D02*
Y0641931D01*
X0228285D01*
X0227285Y0642931D01*
Y0644931D01*
X0228285Y0645930D01*
X0231284D01*
X0236282Y0641931D02*
X0234283D01*
X0233283Y0642931D01*
Y0644931D01*
X0234283Y0645930D01*
X0236282D01*
X0237282Y0644931D01*
Y0643931D01*
X0233283D01*
X0239281Y0645930D02*
Y0641931D01*
Y0643931D01*
X0240281Y0644931D01*
X0241280Y0645930D01*
X0242280D01*
X0251277Y0641931D02*
Y0647930D01*
X0254276D01*
X0255276Y0646930D01*
Y0644931D01*
X0254276Y0643931D01*
X0251277D01*
X0253276D02*
X0255276Y0641931D01*
X0260274D02*
X0258275D01*
X0257275Y0642931D01*
Y0644931D01*
X0258275Y0645930D01*
X0260274D01*
X0261274Y0644931D01*
Y0643931D01*
X0257275D01*
X0263273Y0641931D02*
X0266272D01*
X0267272Y0642931D01*
X0266272Y0643931D01*
X0264273D01*
X0263273Y0644931D01*
X0264273Y0645930D01*
X0267272D01*
X0269271Y0641931D02*
X0271271D01*
X0270271D01*
Y0645930D01*
X0269271D01*
X0274270Y0641931D02*
X0277269D01*
X0278269Y0642931D01*
X0277269Y0643931D01*
X0275269D01*
X0274270Y0644931D01*
X0275269Y0645930D01*
X0278269D01*
X0281267Y0646930D02*
Y0645930D01*
X0280268D01*
X0282267D01*
X0281267D01*
Y0642931D01*
X0282267Y0641931D01*
X0214289Y0658930D02*
X0213289Y0659930D01*
X0211290D01*
X0210291Y0658930D01*
Y0654931D01*
X0211290Y0653932D01*
X0213289D01*
X0214289Y0654931D01*
X0220287Y0659930D02*
X0216288D01*
Y0656930D01*
X0218288D01*
X0216288D01*
Y0653932D01*
X0222287Y0656930D02*
X0226285D01*
X0228285Y0658930D02*
X0229284Y0659930D01*
X0231284D01*
X0232283Y0658930D01*
Y0654931D01*
X0231284Y0653932D01*
X0229284D01*
X0228285Y0654931D01*
Y0658930D01*
X0234283D02*
X0235282Y0659930D01*
X0237282D01*
X0238281Y0658930D01*
Y0654931D01*
X0237282Y0653932D01*
X0235282D01*
X0234283Y0654931D01*
Y0658930D01*
X0243280Y0653932D02*
Y0659930D01*
X0240281Y0656930D01*
X0244280D01*
X0210291Y0671930D02*
Y0665932D01*
X0213289D01*
X0214289Y0666931D01*
Y0670930D01*
X0213289Y0671930D01*
X0210291D01*
X0216288Y0665932D02*
X0218288D01*
X0217288D01*
Y0669930D01*
X0216288D01*
X0224286Y0665932D02*
X0222287D01*
X0221287Y0666931D01*
Y0668930D01*
X0222287Y0669930D01*
X0224286D01*
X0225286Y0668930D01*
Y0667931D01*
X0221287D01*
X0227285Y0665932D02*
X0229284D01*
X0228285D01*
Y0671930D01*
X0227285D01*
X0235282Y0665932D02*
X0233283D01*
X0232283Y0666931D01*
Y0668930D01*
X0233283Y0669930D01*
X0235282D01*
X0236282Y0668930D01*
Y0667931D01*
X0232283D01*
X0242280Y0669930D02*
X0239281D01*
X0238281Y0668930D01*
Y0666931D01*
X0239281Y0665932D01*
X0242280D01*
X0245279Y0670930D02*
Y0669930D01*
X0244280D01*
X0246279D01*
X0245279D01*
Y0666931D01*
X0246279Y0665932D01*
X0249278Y0669930D02*
Y0665932D01*
Y0667931D01*
X0250277Y0668930D01*
X0251277Y0669930D01*
X0252277D01*
X0255276Y0665932D02*
X0257275D01*
X0256276D01*
Y0669930D01*
X0255276D01*
X0264273D02*
X0261274D01*
X0260274Y0668930D01*
Y0666931D01*
X0261274Y0665932D01*
X0264273D01*
X0214289Y0682930D02*
X0213289Y0683930D01*
X0211290D01*
X0210291Y0682930D01*
Y0678931D01*
X0211290Y0677931D01*
X0213289D01*
X0214289Y0678931D01*
X0220287Y0683930D02*
X0216288D01*
Y0680931D01*
X0218288D01*
X0216288D01*
Y0677931D01*
X0222287Y0680931D02*
X0226285D01*
X0228285Y0682930D02*
X0229284Y0683930D01*
X0231284D01*
X0232283Y0682930D01*
Y0678931D01*
X0231284Y0677931D01*
X0229284D01*
X0228285Y0678931D01*
Y0682930D01*
X0234283D02*
X0235282Y0683930D01*
X0237282D01*
X0238281Y0682930D01*
Y0678931D01*
X0237282Y0677931D01*
X0235282D01*
X0234283Y0678931D01*
Y0682930D01*
X0243280Y0677931D02*
Y0683930D01*
X0240281Y0680931D01*
X0244280D01*
X0210291Y0695930D02*
Y0689931D01*
X0213289D01*
X0214289Y0690931D01*
Y0694930D01*
X0213289Y0695930D01*
X0210291D01*
X0216288Y0689931D02*
X0218288D01*
X0217288D01*
Y0693930D01*
X0216288D01*
X0224286Y0689931D02*
X0222287D01*
X0221287Y0690931D01*
Y0692931D01*
X0222287Y0693930D01*
X0224286D01*
X0225286Y0692931D01*
Y0691931D01*
X0221287D01*
X0227285Y0689931D02*
X0229284D01*
X0228285D01*
Y0695930D01*
X0227285D01*
X0235282Y0689931D02*
X0233283D01*
X0232283Y0690931D01*
Y0692931D01*
X0233283Y0693930D01*
X0235282D01*
X0236282Y0692931D01*
Y0691931D01*
X0232283D01*
X0242280Y0693930D02*
X0239281D01*
X0238281Y0692931D01*
Y0690931D01*
X0239281Y0689931D01*
X0242280D01*
X0245279Y0694930D02*
Y0693930D01*
X0244280D01*
X0246279D01*
X0245279D01*
Y0690931D01*
X0246279Y0689931D01*
X0249278Y0693930D02*
Y0689931D01*
Y0691931D01*
X0250277Y0692931D01*
X0251277Y0693930D01*
X0252277D01*
X0255276Y0689931D02*
X0257275D01*
X0256276D01*
Y0693930D01*
X0255276D01*
X0264273D02*
X0261274D01*
X0260274Y0692931D01*
Y0690931D01*
X0261274Y0689931D01*
X0264273D01*
X0214289Y0706930D02*
X0213289Y0707930D01*
X0211290D01*
X0210291Y0706930D01*
Y0702931D01*
X0211290Y0701931D01*
X0213289D01*
X0214289Y0702931D01*
X0220287Y0707930D02*
X0216288D01*
Y0704930D01*
X0218288D01*
X0216288D01*
Y0701931D01*
X0222287Y0704930D02*
X0226285D01*
X0228285Y0706930D02*
X0229284Y0707930D01*
X0231284D01*
X0232283Y0706930D01*
Y0702931D01*
X0231284Y0701931D01*
X0229284D01*
X0228285Y0702931D01*
Y0706930D01*
X0234283D02*
X0235282Y0707930D01*
X0237282D01*
X0238281Y0706930D01*
Y0702931D01*
X0237282Y0701931D01*
X0235282D01*
X0234283Y0702931D01*
Y0706930D01*
X0243280Y0701931D02*
Y0707930D01*
X0240281Y0704930D01*
X0244280D01*
X0210291Y0719930D02*
Y0713932D01*
X0213289D01*
X0214289Y0714931D01*
Y0718930D01*
X0213289Y0719930D01*
X0210291D01*
X0216288Y0713932D02*
X0218288D01*
X0217288D01*
Y0717930D01*
X0216288D01*
X0224286Y0713932D02*
X0222287D01*
X0221287Y0714931D01*
Y0716930D01*
X0222287Y0717930D01*
X0224286D01*
X0225286Y0716930D01*
Y0715931D01*
X0221287D01*
X0227285Y0713932D02*
X0229284D01*
X0228285D01*
Y0719930D01*
X0227285D01*
X0235282Y0713932D02*
X0233283D01*
X0232283Y0714931D01*
Y0716930D01*
X0233283Y0717930D01*
X0235282D01*
X0236282Y0716930D01*
Y0715931D01*
X0232283D01*
X0242280Y0717930D02*
X0239281D01*
X0238281Y0716930D01*
Y0714931D01*
X0239281Y0713932D01*
X0242280D01*
X0245279Y0718930D02*
Y0717930D01*
X0244280D01*
X0246279D01*
X0245279D01*
Y0714931D01*
X0246279Y0713932D01*
X0249278Y0717930D02*
Y0713932D01*
Y0715931D01*
X0250277Y0716930D01*
X0251277Y0717930D01*
X0252277D01*
X0255276Y0713932D02*
X0257275D01*
X0256276D01*
Y0717930D01*
X0255276D01*
X0264273D02*
X0261274D01*
X0260274Y0716930D01*
Y0714931D01*
X0261274Y0713932D01*
X0264273D01*
X0214289Y0730930D02*
X0213289Y0731930D01*
X0211290D01*
X0210291Y0730930D01*
Y0726931D01*
X0211290Y0725932D01*
X0213289D01*
X0214289Y0726931D01*
X0220287Y0731930D02*
X0216288D01*
Y0728931D01*
X0218288D01*
X0216288D01*
Y0725932D01*
X0222287Y0728931D02*
X0226285D01*
X0228285Y0730930D02*
X0229284Y0731930D01*
X0231284D01*
X0232283Y0730930D01*
Y0726931D01*
X0231284Y0725932D01*
X0229284D01*
X0228285Y0726931D01*
Y0730930D01*
X0234283D02*
X0235282Y0731930D01*
X0237282D01*
X0238281Y0730930D01*
Y0726931D01*
X0237282Y0725932D01*
X0235282D01*
X0234283Y0726931D01*
Y0730930D01*
X0243280Y0725932D02*
Y0731930D01*
X0240281Y0728931D01*
X0244280D01*
X0210291Y0743930D02*
Y0737931D01*
X0213289D01*
X0214289Y0738931D01*
Y0742930D01*
X0213289Y0743930D01*
X0210291D01*
X0216288Y0737931D02*
X0218288D01*
X0217288D01*
Y0741930D01*
X0216288D01*
X0224286Y0737931D02*
X0222287D01*
X0221287Y0738931D01*
Y0740931D01*
X0222287Y0741930D01*
X0224286D01*
X0225286Y0740931D01*
Y0739931D01*
X0221287D01*
X0227285Y0737931D02*
X0229284D01*
X0228285D01*
Y0743930D01*
X0227285D01*
X0235282Y0737931D02*
X0233283D01*
X0232283Y0738931D01*
Y0740931D01*
X0233283Y0741930D01*
X0235282D01*
X0236282Y0740931D01*
Y0739931D01*
X0232283D01*
X0242280Y0741930D02*
X0239281D01*
X0238281Y0740931D01*
Y0738931D01*
X0239281Y0737931D01*
X0242280D01*
X0245279Y0742930D02*
Y0741930D01*
X0244280D01*
X0246279D01*
X0245279D01*
Y0738931D01*
X0246279Y0737931D01*
X0249278Y0741930D02*
Y0737931D01*
Y0739931D01*
X0250277Y0740931D01*
X0251277Y0741930D01*
X0252277D01*
X0255276Y0737931D02*
X0257275D01*
X0256276D01*
Y0741930D01*
X0255276D01*
X0264273D02*
X0261274D01*
X0260274Y0740931D01*
Y0738931D01*
X0261274Y0737931D01*
X0264273D01*
X0214289Y0754930D02*
X0213289Y0755930D01*
X0211290D01*
X0210291Y0754930D01*
Y0750931D01*
X0211290Y0749931D01*
X0213289D01*
X0214289Y0750931D01*
X0220287Y0755930D02*
X0216288D01*
Y0752930D01*
X0218288D01*
X0216288D01*
Y0749931D01*
X0222287Y0752930D02*
X0226285D01*
X0228285Y0754930D02*
X0229284Y0755930D01*
X0231284D01*
X0232283Y0754930D01*
Y0750931D01*
X0231284Y0749931D01*
X0229284D01*
X0228285Y0750931D01*
Y0754930D01*
X0234283D02*
X0235282Y0755930D01*
X0237282D01*
X0238281Y0754930D01*
Y0750931D01*
X0237282Y0749931D01*
X0235282D01*
X0234283Y0750931D01*
Y0754930D01*
X0243280Y0749931D02*
Y0755930D01*
X0240281Y0752930D01*
X0244280D01*
X0210291Y0767930D02*
Y0761932D01*
X0213289D01*
X0214289Y0762931D01*
Y0766930D01*
X0213289Y0767930D01*
X0210291D01*
X0216288Y0761932D02*
X0218288D01*
X0217288D01*
Y0765930D01*
X0216288D01*
X0224286Y0761932D02*
X0222287D01*
X0221287Y0762931D01*
Y0764930D01*
X0222287Y0765930D01*
X0224286D01*
X0225286Y0764930D01*
Y0763931D01*
X0221287D01*
X0227285Y0761932D02*
X0229284D01*
X0228285D01*
Y0767930D01*
X0227285D01*
X0235282Y0761932D02*
X0233283D01*
X0232283Y0762931D01*
Y0764930D01*
X0233283Y0765930D01*
X0235282D01*
X0236282Y0764930D01*
Y0763931D01*
X0232283D01*
X0242280Y0765930D02*
X0239281D01*
X0238281Y0764930D01*
Y0762931D01*
X0239281Y0761932D01*
X0242280D01*
X0245279Y0766930D02*
Y0765930D01*
X0244280D01*
X0246279D01*
X0245279D01*
Y0762931D01*
X0246279Y0761932D01*
X0249278Y0765930D02*
Y0761932D01*
Y0763931D01*
X0250277Y0764930D01*
X0251277Y0765930D01*
X0252277D01*
X0255276Y0761932D02*
X0257275D01*
X0256276D01*
Y0765930D01*
X0255276D01*
X0264273D02*
X0261274D01*
X0260274Y0764930D01*
Y0762931D01*
X0261274Y0761932D01*
X0264273D01*
X0214289Y0778930D02*
X0213289Y0779930D01*
X0211290D01*
X0210291Y0778930D01*
Y0774931D01*
X0211290Y0773932D01*
X0213289D01*
X0214289Y0774931D01*
X0220287Y0779930D02*
X0216288D01*
Y0776931D01*
X0218288D01*
X0216288D01*
Y0773932D01*
X0222287Y0776931D02*
X0226285D01*
X0228285Y0778930D02*
X0229284Y0779930D01*
X0231284D01*
X0232283Y0778930D01*
Y0774931D01*
X0231284Y0773932D01*
X0229284D01*
X0228285Y0774931D01*
Y0778930D01*
X0234283D02*
X0235282Y0779930D01*
X0237282D01*
X0238281Y0778930D01*
Y0774931D01*
X0237282Y0773932D01*
X0235282D01*
X0234283Y0774931D01*
Y0778930D01*
X0243280Y0773932D02*
Y0779930D01*
X0240281Y0776931D01*
X0244280D01*
X0210291Y0791930D02*
Y0785931D01*
X0213289D01*
X0214289Y0786931D01*
Y0790930D01*
X0213289Y0791930D01*
X0210291D01*
X0216288Y0785931D02*
X0218288D01*
X0217288D01*
Y0789930D01*
X0216288D01*
X0224286Y0785931D02*
X0222287D01*
X0221287Y0786931D01*
Y0788931D01*
X0222287Y0789930D01*
X0224286D01*
X0225286Y0788931D01*
Y0787931D01*
X0221287D01*
X0227285Y0785931D02*
X0229284D01*
X0228285D01*
Y0791930D01*
X0227285D01*
X0235282Y0785931D02*
X0233283D01*
X0232283Y0786931D01*
Y0788931D01*
X0233283Y0789930D01*
X0235282D01*
X0236282Y0788931D01*
Y0787931D01*
X0232283D01*
X0242280Y0789930D02*
X0239281D01*
X0238281Y0788931D01*
Y0786931D01*
X0239281Y0785931D01*
X0242280D01*
X0245279Y0790930D02*
Y0789930D01*
X0244280D01*
X0246279D01*
X0245279D01*
Y0786931D01*
X0246279Y0785931D01*
X0249278Y0789930D02*
Y0785931D01*
Y0787931D01*
X0250277Y0788931D01*
X0251277Y0789930D01*
X0252277D01*
X0255276Y0785931D02*
X0257275D01*
X0256276D01*
Y0789930D01*
X0255276D01*
X0264273D02*
X0261274D01*
X0260274Y0788931D01*
Y0786931D01*
X0261274Y0785931D01*
X0264273D01*
X0214289Y0802930D02*
X0213289Y0803930D01*
X0211290D01*
X0210291Y0802930D01*
Y0798931D01*
X0211290Y0797931D01*
X0213289D01*
X0214289Y0798931D01*
X0220287Y0803930D02*
X0216288D01*
Y0800931D01*
X0218288D01*
X0216288D01*
Y0797931D01*
X0222287Y0800931D02*
X0226285D01*
X0228285Y0802930D02*
X0229284Y0803930D01*
X0231284D01*
X0232283Y0802930D01*
Y0798931D01*
X0231284Y0797931D01*
X0229284D01*
X0228285Y0798931D01*
Y0802930D01*
X0234283D02*
X0235282Y0803930D01*
X0237282D01*
X0238281Y0802930D01*
Y0798931D01*
X0237282Y0797931D01*
X0235282D01*
X0234283Y0798931D01*
Y0802930D01*
X0243280Y0797931D02*
Y0803930D01*
X0240281Y0800931D01*
X0244280D01*
X0210291Y0815930D02*
Y0809931D01*
X0213289D01*
X0214289Y0810931D01*
Y0814930D01*
X0213289Y0815930D01*
X0210291D01*
X0216288Y0809931D02*
X0218288D01*
X0217288D01*
Y0813930D01*
X0216288D01*
X0224286Y0809931D02*
X0222287D01*
X0221287Y0810931D01*
Y0812930D01*
X0222287Y0813930D01*
X0224286D01*
X0225286Y0812930D01*
Y0811931D01*
X0221287D01*
X0227285Y0809931D02*
X0229284D01*
X0228285D01*
Y0815930D01*
X0227285D01*
X0235282Y0809931D02*
X0233283D01*
X0232283Y0810931D01*
Y0812930D01*
X0233283Y0813930D01*
X0235282D01*
X0236282Y0812930D01*
Y0811931D01*
X0232283D01*
X0242280Y0813930D02*
X0239281D01*
X0238281Y0812930D01*
Y0810931D01*
X0239281Y0809931D01*
X0242280D01*
X0245279Y0814930D02*
Y0813930D01*
X0244280D01*
X0246279D01*
X0245279D01*
Y0810931D01*
X0246279Y0809931D01*
X0249278Y0813930D02*
Y0809931D01*
Y0811931D01*
X0250277Y0812930D01*
X0251277Y0813930D01*
X0252277D01*
X0255276Y0809931D02*
X0257275D01*
X0256276D01*
Y0813930D01*
X0255276D01*
X0264273D02*
X0261274D01*
X0260274Y0812930D01*
Y0810931D01*
X0261274Y0809931D01*
X0264273D01*
X0214289Y0826930D02*
X0213289Y0827930D01*
X0211290D01*
X0210291Y0826930D01*
Y0822931D01*
X0211290Y0821931D01*
X0213289D01*
X0214289Y0822931D01*
X0220287Y0827930D02*
X0216288D01*
Y0824930D01*
X0218288D01*
X0216288D01*
Y0821931D01*
X0222287Y0824930D02*
X0226285D01*
X0228285Y0826930D02*
X0229284Y0827930D01*
X0231284D01*
X0232283Y0826930D01*
Y0822931D01*
X0231284Y0821931D01*
X0229284D01*
X0228285Y0822931D01*
Y0826930D01*
X0234283D02*
X0235282Y0827930D01*
X0237282D01*
X0238281Y0826930D01*
Y0822931D01*
X0237282Y0821931D01*
X0235282D01*
X0234283Y0822931D01*
Y0826930D01*
X0243280Y0821931D02*
Y0827930D01*
X0240281Y0824930D01*
X0244280D01*
X0214289Y0838930D02*
X0213289Y0839930D01*
X0211290D01*
X0210291Y0838930D01*
Y0837930D01*
X0211290Y0836930D01*
X0213289D01*
X0214289Y0835931D01*
Y0834931D01*
X0213289Y0833932D01*
X0211290D01*
X0210291Y0834931D01*
X0217288Y0833932D02*
X0219288D01*
X0220287Y0834931D01*
Y0836930D01*
X0219288Y0837930D01*
X0217288D01*
X0216288Y0836930D01*
Y0834931D01*
X0217288Y0833932D01*
X0222287D02*
X0224286D01*
X0223286D01*
Y0839930D01*
X0222287D01*
X0231284D02*
Y0833932D01*
X0228285D01*
X0227285Y0834931D01*
Y0836930D01*
X0228285Y0837930D01*
X0231284D01*
X0236282Y0833932D02*
X0234283D01*
X0233283Y0834931D01*
Y0836930D01*
X0234283Y0837930D01*
X0236282D01*
X0237282Y0836930D01*
Y0835931D01*
X0233283D01*
X0239281Y0837930D02*
Y0833932D01*
Y0835931D01*
X0240281Y0836930D01*
X0241280Y0837930D01*
X0242280D01*
X0251277Y0833932D02*
Y0839930D01*
X0254276D01*
X0255276Y0838930D01*
Y0836930D01*
X0254276Y0835931D01*
X0251277D01*
X0253276D02*
X0255276Y0833932D01*
X0260274D02*
X0258275D01*
X0257275Y0834931D01*
Y0836930D01*
X0258275Y0837930D01*
X0260274D01*
X0261274Y0836930D01*
Y0835931D01*
X0257275D01*
X0263273Y0833932D02*
X0266272D01*
X0267272Y0834931D01*
X0266272Y0835931D01*
X0264273D01*
X0263273Y0836930D01*
X0264273Y0837930D01*
X0267272D01*
X0269271Y0833932D02*
X0271271D01*
X0270271D01*
Y0837930D01*
X0269271D01*
X0274270Y0833932D02*
X0277269D01*
X0278269Y0834931D01*
X0277269Y0835931D01*
X0275269D01*
X0274270Y0836930D01*
X0275269Y0837930D01*
X0278269D01*
X0281267Y0838930D02*
Y0837930D01*
X0280268D01*
X0282267D01*
X0281267D01*
Y0834931D01*
X0282267Y0833932D01*
X0296267Y0851930D02*
X0300266D01*
X0298267D01*
Y0845932D01*
X0302265Y0851930D02*
Y0845932D01*
Y0848930D01*
X0303265Y0849930D01*
X0305264D01*
X0306264Y0848930D01*
Y0845932D01*
X0308263D02*
X0310263D01*
X0309263D01*
Y0849930D01*
X0308263D01*
X0317260D02*
X0314261D01*
X0313262Y0848930D01*
Y0846931D01*
X0314261Y0845932D01*
X0317260D01*
X0319260D02*
Y0851930D01*
Y0847931D02*
X0322259Y0849930D01*
X0319260Y0847931D02*
X0322259Y0845932D01*
X0325258D02*
Y0849930D01*
X0328257D01*
X0329257Y0848930D01*
Y0845932D01*
X0334255D02*
X0332256D01*
X0331256Y0846931D01*
Y0848930D01*
X0332256Y0849930D01*
X0334255D01*
X0335255Y0848930D01*
Y0847931D01*
X0331256D01*
X0337254Y0845932D02*
X0340253D01*
X0341253Y0846931D01*
X0340253Y0847931D01*
X0338254D01*
X0337254Y0848930D01*
X0338254Y0849930D01*
X0341253D01*
X0343252Y0845932D02*
X0346251D01*
X0347251Y0846931D01*
X0346251Y0847931D01*
X0344252D01*
X0343252Y0848930D01*
X0344252Y0849930D01*
X0347251D01*
X0296267Y0646930D02*
X0297267Y0647930D01*
X0299266D01*
X0300266Y0646930D01*
Y0642931D01*
X0299266Y0641931D01*
X0297267D01*
X0296267Y0642931D01*
Y0646930D01*
X0302265Y0641931D02*
Y0642931D01*
X0303265D01*
Y0641931D01*
X0302265D01*
X0310263D02*
Y0647930D01*
X0307264Y0644931D01*
X0311262D01*
X0313262Y0646930D02*
X0314261Y0647930D01*
X0316261D01*
X0317260Y0646930D01*
Y0642931D01*
X0316261Y0641931D01*
X0314261D01*
X0313262Y0642931D01*
Y0646930D01*
X0319260Y0641931D02*
Y0645930D01*
X0320259D01*
X0321259Y0644931D01*
Y0641931D01*
Y0644931D01*
X0322259Y0645930D01*
X0323258Y0644931D01*
Y0641931D01*
X0325258D02*
X0327257D01*
X0326257D01*
Y0645930D01*
X0325258D01*
X0330256Y0641931D02*
X0332256D01*
X0331256D01*
Y0647930D01*
X0330256D01*
X0296267Y0653932D02*
X0298267D01*
X0297267D01*
Y0659930D01*
X0296267Y0658930D01*
X0301266Y0653932D02*
Y0654931D01*
X0302265D01*
Y0653932D01*
X0301266D01*
X0306264D02*
X0308263D01*
X0307264D01*
Y0659930D01*
X0306264Y0658930D01*
X0311262D02*
X0312262Y0659930D01*
X0314261D01*
X0315261Y0658930D01*
Y0654931D01*
X0314261Y0653932D01*
X0312262D01*
X0311262Y0654931D01*
Y0658930D01*
X0317260Y0653932D02*
Y0657930D01*
X0318260D01*
X0319260Y0656930D01*
Y0653932D01*
Y0656930D01*
X0320259Y0657930D01*
X0321259Y0656930D01*
Y0653932D01*
X0323258D02*
X0325258D01*
X0324258D01*
Y0657930D01*
X0323258D01*
X0328257Y0653932D02*
X0330256D01*
X0329257D01*
Y0659930D01*
X0328257D01*
X0300266Y0665932D02*
X0296267D01*
X0300266Y0669930D01*
Y0670930D01*
X0299266Y0671930D01*
X0297267D01*
X0296267Y0670930D01*
X0306264Y0671930D02*
X0304265Y0670930D01*
X0302265Y0668930D01*
Y0666931D01*
X0303265Y0665932D01*
X0305264D01*
X0306264Y0666931D01*
Y0667931D01*
X0305264Y0668930D01*
X0302265D01*
X0308263Y0665932D02*
Y0666931D01*
X0309263D01*
Y0665932D01*
X0308263D01*
X0313262Y0670930D02*
X0314261Y0671930D01*
X0316261D01*
X0317260Y0670930D01*
Y0666931D01*
X0316261Y0665932D01*
X0314261D01*
X0313262Y0666931D01*
Y0670930D01*
X0319260D02*
X0320259Y0671930D01*
X0322259D01*
X0323258Y0670930D01*
Y0666931D01*
X0322259Y0665932D01*
X0320259D01*
X0319260Y0666931D01*
Y0670930D01*
X0325258Y0665932D02*
Y0669930D01*
X0326257D01*
X0327257Y0668930D01*
Y0665932D01*
Y0668930D01*
X0328257Y0669930D01*
X0329257Y0668930D01*
Y0665932D01*
X0331256D02*
X0333255D01*
X0332256D01*
Y0669930D01*
X0331256D01*
X0336254Y0665932D02*
X0338254D01*
X0337254D01*
Y0671930D01*
X0336254D01*
X0296267Y0682930D02*
X0297267Y0683930D01*
X0299266D01*
X0300266Y0682930D01*
Y0678931D01*
X0299266Y0677931D01*
X0297267D01*
X0296267Y0678931D01*
Y0682930D01*
X0302265Y0677931D02*
Y0678931D01*
X0303265D01*
Y0677931D01*
X0302265D01*
X0307264Y0683930D02*
X0311262D01*
Y0682930D01*
X0307264Y0678931D01*
Y0677931D01*
X0313262Y0682930D02*
X0314261Y0683930D01*
X0316261D01*
X0317260Y0682930D01*
Y0678931D01*
X0316261Y0677931D01*
X0314261D01*
X0313262Y0678931D01*
Y0682930D01*
X0319260Y0677931D02*
Y0681930D01*
X0320259D01*
X0321259Y0680931D01*
Y0677931D01*
Y0680931D01*
X0322259Y0681930D01*
X0323258Y0680931D01*
Y0677931D01*
X0325258D02*
X0327257D01*
X0326257D01*
Y0681930D01*
X0325258D01*
X0330256Y0677931D02*
X0332256D01*
X0331256D01*
Y0683930D01*
X0330256D01*
X0296267Y0694930D02*
X0297267Y0695930D01*
X0299266D01*
X0300266Y0694930D01*
Y0690931D01*
X0299266Y0689931D01*
X0297267D01*
X0296267Y0690931D01*
Y0694930D01*
X0302265Y0689931D02*
Y0690931D01*
X0303265D01*
Y0689931D01*
X0302265D01*
X0311262Y0695930D02*
X0307264D01*
Y0692931D01*
X0309263Y0693930D01*
X0310263D01*
X0311262Y0692931D01*
Y0690931D01*
X0310263Y0689931D01*
X0308263D01*
X0307264Y0690931D01*
X0313262Y0694930D02*
X0314261Y0695930D01*
X0316261D01*
X0317260Y0694930D01*
Y0690931D01*
X0316261Y0689931D01*
X0314261D01*
X0313262Y0690931D01*
Y0694930D01*
X0319260Y0689931D02*
Y0693930D01*
X0320259D01*
X0321259Y0692931D01*
Y0689931D01*
Y0692931D01*
X0322259Y0693930D01*
X0323258Y0692931D01*
Y0689931D01*
X0325258D02*
X0327257D01*
X0326257D01*
Y0693930D01*
X0325258D01*
X0330256Y0689931D02*
X0332256D01*
X0331256D01*
Y0695930D01*
X0330256D01*
X0296267Y0706930D02*
X0297267Y0707930D01*
X0299266D01*
X0300266Y0706930D01*
Y0702931D01*
X0299266Y0701931D01*
X0297267D01*
X0296267Y0702931D01*
Y0706930D01*
X0302265Y0701931D02*
Y0702931D01*
X0303265D01*
Y0701931D01*
X0302265D01*
X0307264Y0707930D02*
X0311262D01*
Y0706930D01*
X0307264Y0702931D01*
Y0701931D01*
X0313262Y0706930D02*
X0314261Y0707930D01*
X0316261D01*
X0317260Y0706930D01*
Y0702931D01*
X0316261Y0701931D01*
X0314261D01*
X0313262Y0702931D01*
Y0706930D01*
X0319260Y0701931D02*
Y0705930D01*
X0320259D01*
X0321259Y0704930D01*
Y0701931D01*
Y0704930D01*
X0322259Y0705930D01*
X0323258Y0704930D01*
Y0701931D01*
X0325258D02*
X0327257D01*
X0326257D01*
Y0705930D01*
X0325258D01*
X0330256Y0701931D02*
X0332256D01*
X0331256D01*
Y0707930D01*
X0330256D01*
X0296267Y0713932D02*
X0298267D01*
X0297267D01*
Y0719930D01*
X0296267Y0718930D01*
X0301266Y0713932D02*
Y0714931D01*
X0302265D01*
Y0713932D01*
X0301266D01*
X0309263D02*
Y0719930D01*
X0306264Y0716930D01*
X0310263D01*
X0312262Y0718930D02*
X0313262Y0719930D01*
X0315261D01*
X0316261Y0718930D01*
Y0714931D01*
X0315261Y0713932D01*
X0313262D01*
X0312262Y0714931D01*
Y0718930D01*
X0318260Y0713932D02*
Y0717930D01*
X0319260D01*
X0320259Y0716930D01*
Y0713932D01*
Y0716930D01*
X0321259Y0717930D01*
X0322259Y0716930D01*
Y0713932D01*
X0324258D02*
X0326257D01*
X0325258D01*
Y0717930D01*
X0324258D01*
X0329257Y0713932D02*
X0331256D01*
X0330256D01*
Y0719930D01*
X0329257D01*
X0296267Y0730930D02*
X0297267Y0731930D01*
X0299266D01*
X0300266Y0730930D01*
Y0726931D01*
X0299266Y0725932D01*
X0297267D01*
X0296267Y0726931D01*
Y0730930D01*
X0302265Y0725932D02*
Y0726931D01*
X0303265D01*
Y0725932D01*
X0302265D01*
X0307264Y0731930D02*
X0311262D01*
Y0730930D01*
X0307264Y0726931D01*
Y0725932D01*
X0313262Y0730930D02*
X0314261Y0731930D01*
X0316261D01*
X0317260Y0730930D01*
Y0726931D01*
X0316261Y0725932D01*
X0314261D01*
X0313262Y0726931D01*
Y0730930D01*
X0319260Y0725932D02*
Y0729930D01*
X0320259D01*
X0321259Y0728931D01*
Y0725932D01*
Y0728931D01*
X0322259Y0729930D01*
X0323258Y0728931D01*
Y0725932D01*
X0325258D02*
X0327257D01*
X0326257D01*
Y0729930D01*
X0325258D01*
X0330256Y0725932D02*
X0332256D01*
X0331256D01*
Y0731930D01*
X0330256D01*
X0296267Y0742930D02*
X0297267Y0743930D01*
X0299266D01*
X0300266Y0742930D01*
Y0738931D01*
X0299266Y0737931D01*
X0297267D01*
X0296267Y0738931D01*
Y0742930D01*
X0302265Y0737931D02*
Y0738931D01*
X0303265D01*
Y0737931D01*
X0302265D01*
X0311262Y0743930D02*
X0307264D01*
Y0740931D01*
X0309263Y0741930D01*
X0310263D01*
X0311262Y0740931D01*
Y0738931D01*
X0310263Y0737931D01*
X0308263D01*
X0307264Y0738931D01*
X0313262Y0742930D02*
X0314261Y0743930D01*
X0316261D01*
X0317260Y0742930D01*
Y0738931D01*
X0316261Y0737931D01*
X0314261D01*
X0313262Y0738931D01*
Y0742930D01*
X0319260Y0737931D02*
Y0741930D01*
X0320259D01*
X0321259Y0740931D01*
Y0737931D01*
Y0740931D01*
X0322259Y0741930D01*
X0323258Y0740931D01*
Y0737931D01*
X0325258D02*
X0327257D01*
X0326257D01*
Y0741930D01*
X0325258D01*
X0330256Y0737931D02*
X0332256D01*
X0331256D01*
Y0743930D01*
X0330256D01*
X0296267Y0754930D02*
X0297267Y0755930D01*
X0299266D01*
X0300266Y0754930D01*
Y0750931D01*
X0299266Y0749931D01*
X0297267D01*
X0296267Y0750931D01*
Y0754930D01*
X0302265Y0749931D02*
Y0750931D01*
X0303265D01*
Y0749931D01*
X0302265D01*
X0307264Y0755930D02*
X0311262D01*
Y0754930D01*
X0307264Y0750931D01*
Y0749931D01*
X0313262Y0754930D02*
X0314261Y0755930D01*
X0316261D01*
X0317260Y0754930D01*
Y0750931D01*
X0316261Y0749931D01*
X0314261D01*
X0313262Y0750931D01*
Y0754930D01*
X0319260Y0749931D02*
Y0753930D01*
X0320259D01*
X0321259Y0752930D01*
Y0749931D01*
Y0752930D01*
X0322259Y0753930D01*
X0323258Y0752930D01*
Y0749931D01*
X0325258D02*
X0327257D01*
X0326257D01*
Y0753930D01*
X0325258D01*
X0330256Y0749931D02*
X0332256D01*
X0331256D01*
Y0755930D01*
X0330256D01*
X0296267Y0761932D02*
X0298267D01*
X0297267D01*
Y0767930D01*
X0296267Y0766930D01*
X0301266Y0761932D02*
Y0762931D01*
X0302265D01*
Y0761932D01*
X0301266D01*
X0309263D02*
Y0767930D01*
X0306264Y0764930D01*
X0310263D01*
X0312262Y0766930D02*
X0313262Y0767930D01*
X0315261D01*
X0316261Y0766930D01*
Y0762931D01*
X0315261Y0761932D01*
X0313262D01*
X0312262Y0762931D01*
Y0766930D01*
X0318260Y0761932D02*
Y0765930D01*
X0319260D01*
X0320259Y0764930D01*
Y0761932D01*
Y0764930D01*
X0321259Y0765930D01*
X0322259Y0764930D01*
Y0761932D01*
X0324258D02*
X0326257D01*
X0325258D01*
Y0765930D01*
X0324258D01*
X0329257Y0761932D02*
X0331256D01*
X0330256D01*
Y0767930D01*
X0329257D01*
X0296267Y0778930D02*
X0297267Y0779930D01*
X0299266D01*
X0300266Y0778930D01*
Y0774931D01*
X0299266Y0773932D01*
X0297267D01*
X0296267Y0774931D01*
Y0778930D01*
X0302265Y0773932D02*
Y0774931D01*
X0303265D01*
Y0773932D01*
X0302265D01*
X0307264Y0779930D02*
X0311262D01*
Y0778930D01*
X0307264Y0774931D01*
Y0773932D01*
X0313262Y0778930D02*
X0314261Y0779930D01*
X0316261D01*
X0317260Y0778930D01*
Y0774931D01*
X0316261Y0773932D01*
X0314261D01*
X0313262Y0774931D01*
Y0778930D01*
X0319260Y0773932D02*
Y0777930D01*
X0320259D01*
X0321259Y0776931D01*
Y0773932D01*
Y0776931D01*
X0322259Y0777930D01*
X0323258Y0776931D01*
Y0773932D01*
X0325258D02*
X0327257D01*
X0326257D01*
Y0777930D01*
X0325258D01*
X0330256Y0773932D02*
X0332256D01*
X0331256D01*
Y0779930D01*
X0330256D01*
X0296267Y0790930D02*
X0297267Y0791930D01*
X0299266D01*
X0300266Y0790930D01*
Y0786931D01*
X0299266Y0785931D01*
X0297267D01*
X0296267Y0786931D01*
Y0790930D01*
X0302265Y0785931D02*
Y0786931D01*
X0303265D01*
Y0785931D01*
X0302265D01*
X0311262Y0791930D02*
X0307264D01*
Y0788931D01*
X0309263Y0789930D01*
X0310263D01*
X0311262Y0788931D01*
Y0786931D01*
X0310263Y0785931D01*
X0308263D01*
X0307264Y0786931D01*
X0313262Y0790930D02*
X0314261Y0791930D01*
X0316261D01*
X0317260Y0790930D01*
Y0786931D01*
X0316261Y0785931D01*
X0314261D01*
X0313262Y0786931D01*
Y0790930D01*
X0319260Y0785931D02*
Y0789930D01*
X0320259D01*
X0321259Y0788931D01*
Y0785931D01*
Y0788931D01*
X0322259Y0789930D01*
X0323258Y0788931D01*
Y0785931D01*
X0325258D02*
X0327257D01*
X0326257D01*
Y0789930D01*
X0325258D01*
X0330256Y0785931D02*
X0332256D01*
X0331256D01*
Y0791930D01*
X0330256D01*
X0296267Y0802930D02*
X0297267Y0803930D01*
X0299266D01*
X0300266Y0802930D01*
Y0798931D01*
X0299266Y0797931D01*
X0297267D01*
X0296267Y0798931D01*
Y0802930D01*
X0302265Y0797931D02*
Y0798931D01*
X0303265D01*
Y0797931D01*
X0302265D01*
X0307264Y0803930D02*
X0311262D01*
Y0802930D01*
X0307264Y0798931D01*
Y0797931D01*
X0313262Y0802930D02*
X0314261Y0803930D01*
X0316261D01*
X0317260Y0802930D01*
Y0798931D01*
X0316261Y0797931D01*
X0314261D01*
X0313262Y0798931D01*
Y0802930D01*
X0319260Y0797931D02*
Y0801930D01*
X0320259D01*
X0321259Y0800931D01*
Y0797931D01*
Y0800931D01*
X0322259Y0801930D01*
X0323258Y0800931D01*
Y0797931D01*
X0325258D02*
X0327257D01*
X0326257D01*
Y0801930D01*
X0325258D01*
X0330256Y0797931D02*
X0332256D01*
X0331256D01*
Y0803930D01*
X0330256D01*
X0300266Y0809931D02*
X0296267D01*
X0300266Y0813930D01*
Y0814930D01*
X0299266Y0815930D01*
X0297267D01*
X0296267Y0814930D01*
X0306264Y0815930D02*
X0304265Y0814930D01*
X0302265Y0812930D01*
Y0810931D01*
X0303265Y0809931D01*
X0305264D01*
X0306264Y0810931D01*
Y0811931D01*
X0305264Y0812930D01*
X0302265D01*
X0308263Y0809931D02*
Y0810931D01*
X0309263D01*
Y0809931D01*
X0308263D01*
X0313262Y0814930D02*
X0314261Y0815930D01*
X0316261D01*
X0317260Y0814930D01*
Y0810931D01*
X0316261Y0809931D01*
X0314261D01*
X0313262Y0810931D01*
Y0814930D01*
X0319260D02*
X0320259Y0815930D01*
X0322259D01*
X0323258Y0814930D01*
Y0810931D01*
X0322259Y0809931D01*
X0320259D01*
X0319260Y0810931D01*
Y0814930D01*
X0325258Y0809931D02*
Y0813930D01*
X0326257D01*
X0327257Y0812930D01*
Y0809931D01*
Y0812930D01*
X0328257Y0813930D01*
X0329257Y0812930D01*
Y0809931D01*
X0331256D02*
X0333255D01*
X0332256D01*
Y0813930D01*
X0331256D01*
X0336254Y0809931D02*
X0338254D01*
X0337254D01*
Y0815930D01*
X0336254D01*
X0296267Y0821931D02*
X0298267D01*
X0297267D01*
Y0827930D01*
X0296267Y0826930D01*
X0301266Y0821931D02*
Y0822931D01*
X0302265D01*
Y0821931D01*
X0301266D01*
X0306264D02*
X0308263D01*
X0307264D01*
Y0827930D01*
X0306264Y0826930D01*
X0311262D02*
X0312262Y0827930D01*
X0314261D01*
X0315261Y0826930D01*
Y0822931D01*
X0314261Y0821931D01*
X0312262D01*
X0311262Y0822931D01*
Y0826930D01*
X0317260Y0821931D02*
Y0825930D01*
X0318260D01*
X0319260Y0824930D01*
Y0821931D01*
Y0824930D01*
X0320259Y0825930D01*
X0321259Y0824930D01*
Y0821931D01*
X0323258D02*
X0325258D01*
X0324258D01*
Y0825930D01*
X0323258D01*
X0328257Y0821931D02*
X0330256D01*
X0329257D01*
Y0827930D01*
X0328257D01*
X0296267Y0838930D02*
X0297267Y0839930D01*
X0299266D01*
X0300266Y0838930D01*
Y0834931D01*
X0299266Y0833932D01*
X0297267D01*
X0296267Y0834931D01*
Y0838930D01*
X0302265Y0833932D02*
Y0834931D01*
X0303265D01*
Y0833932D01*
X0302265D01*
X0307264Y0839930D02*
X0311262D01*
Y0838930D01*
X0307264Y0834931D01*
Y0833932D01*
X0313262Y0838930D02*
X0314261Y0839930D01*
X0316261D01*
X0317260Y0838930D01*
Y0834931D01*
X0316261Y0833932D01*
X0314261D01*
X0313262Y0834931D01*
Y0838930D01*
X0319260Y0833932D02*
Y0837930D01*
X0320259D01*
X0321259Y0836930D01*
Y0833932D01*
Y0836930D01*
X0322259Y0837930D01*
X0323258Y0836930D01*
Y0833932D01*
X0325258D02*
X0327257D01*
X0326257D01*
Y0837930D01*
X0325258D01*
X0330256Y0833932D02*
X0332256D01*
X0331256D01*
Y0839930D01*
X0330256D01*
X0365249Y0850930D02*
X0364250Y0851930D01*
X0362250D01*
X0361251Y0850930D01*
Y0846931D01*
X0362250Y0845932D01*
X0364250D01*
X0365249Y0846931D01*
X0368248Y0845932D02*
X0370248D01*
X0371247Y0846931D01*
Y0848930D01*
X0370248Y0849930D01*
X0368248D01*
X0367249Y0848930D01*
Y0846931D01*
X0368248Y0845932D01*
X0373247D02*
Y0849930D01*
X0376246D01*
X0377245Y0848930D01*
Y0845932D01*
X0379245D02*
X0382244D01*
X0383244Y0846931D01*
X0382244Y0847931D01*
X0380244D01*
X0379245Y0848930D01*
X0380244Y0849930D01*
X0383244D01*
X0386243Y0850930D02*
Y0849930D01*
X0385243D01*
X0387242D01*
X0386243D01*
Y0846931D01*
X0387242Y0845932D01*
X0391241Y0849930D02*
X0393240D01*
X0394240Y0848930D01*
Y0845932D01*
X0391241D01*
X0390241Y0846931D01*
X0391241Y0847931D01*
X0394240D01*
X0396239Y0845932D02*
Y0849930D01*
X0399238D01*
X0400238Y0848930D01*
Y0845932D01*
X0403237Y0850930D02*
Y0849930D01*
X0402237D01*
X0404237D01*
X0403237D01*
Y0846931D01*
X0404237Y0845932D01*
X0361251Y0646930D02*
X0362250Y0647930D01*
X0364250D01*
X0365249Y0646930D01*
Y0645930D01*
X0364250Y0644931D01*
X0363250D01*
X0364250D01*
X0365249Y0643931D01*
Y0642931D01*
X0364250Y0641931D01*
X0362250D01*
X0361251Y0642931D01*
X0367249Y0641931D02*
Y0642931D01*
X0368248D01*
Y0641931D01*
X0367249D01*
X0376246Y0647930D02*
X0372247D01*
Y0644931D01*
X0374247Y0645930D01*
X0375246D01*
X0376246Y0644931D01*
Y0642931D01*
X0375246Y0641931D01*
X0373247D01*
X0372247Y0642931D01*
X0364250Y0665932D02*
Y0671930D01*
X0361251Y0668930D01*
X0365249D01*
X0367249Y0665932D02*
Y0666931D01*
X0368248D01*
Y0665932D01*
X0367249D01*
X0376246D02*
X0372247D01*
X0376246Y0669930D01*
Y0670930D01*
X0375246Y0671930D01*
X0373247D01*
X0372247Y0670930D01*
X0364250Y0689931D02*
Y0695930D01*
X0361251Y0692931D01*
X0365249D01*
X0367249Y0689931D02*
Y0690931D01*
X0368248D01*
Y0689931D01*
X0367249D01*
X0376246D02*
X0372247D01*
X0376246Y0693930D01*
Y0694930D01*
X0375246Y0695930D01*
X0373247D01*
X0372247Y0694930D01*
X0364250Y0713932D02*
Y0719930D01*
X0361251Y0716930D01*
X0365249D01*
X0367249Y0713932D02*
Y0714931D01*
X0368248D01*
Y0713932D01*
X0367249D01*
X0376246D02*
X0372247D01*
X0376246Y0717930D01*
Y0718930D01*
X0375246Y0719930D01*
X0373247D01*
X0372247Y0718930D01*
X0364250Y0737931D02*
Y0743930D01*
X0361251Y0740931D01*
X0365249D01*
X0367249Y0737931D02*
Y0738931D01*
X0368248D01*
Y0737931D01*
X0367249D01*
X0376246D02*
X0372247D01*
X0376246Y0741930D01*
Y0742930D01*
X0375246Y0743930D01*
X0373247D01*
X0372247Y0742930D01*
X0364250Y0761932D02*
Y0767930D01*
X0361251Y0764930D01*
X0365249D01*
X0367249Y0761932D02*
Y0762931D01*
X0368248D01*
Y0761932D01*
X0367249D01*
X0376246D02*
X0372247D01*
X0376246Y0765930D01*
Y0766930D01*
X0375246Y0767930D01*
X0373247D01*
X0372247Y0766930D01*
X0364250Y0785931D02*
Y0791930D01*
X0361251Y0788931D01*
X0365249D01*
X0367249Y0785931D02*
Y0786931D01*
X0368248D01*
Y0785931D01*
X0367249D01*
X0376246D02*
X0372247D01*
X0376246Y0789930D01*
Y0790930D01*
X0375246Y0791930D01*
X0373247D01*
X0372247Y0790930D01*
X0364250Y0809931D02*
Y0815930D01*
X0361251Y0812930D01*
X0365249D01*
X0367249Y0809931D02*
Y0810931D01*
X0368248D01*
Y0809931D01*
X0367249D01*
X0376246D02*
X0372247D01*
X0376246Y0813930D01*
Y0814930D01*
X0375246Y0815930D01*
X0373247D01*
X0372247Y0814930D01*
X0361251Y0838930D02*
X0362250Y0839930D01*
X0364250D01*
X0365249Y0838930D01*
Y0837930D01*
X0364250Y0836930D01*
X0363250D01*
X0364250D01*
X0365249Y0835931D01*
Y0834931D01*
X0364250Y0833932D01*
X0362250D01*
X0361251Y0834931D01*
X0367249Y0833932D02*
Y0834931D01*
X0368248D01*
Y0833932D01*
X0367249D01*
X0376246Y0839930D02*
X0372247D01*
Y0836930D01*
X0374247Y0837930D01*
X0375246D01*
X0376246Y0836930D01*
Y0834931D01*
X0375246Y0833932D01*
X0373247D01*
X0372247Y0834931D01*
X0418237Y0851930D02*
Y0845932D01*
X0421236D01*
X0422235Y0846931D01*
Y0847931D01*
X0421236Y0848930D01*
X0418237D01*
X0421236D01*
X0422235Y0849930D01*
Y0850930D01*
X0421236Y0851930D01*
X0418237D01*
X0425235Y0845932D02*
X0427234D01*
X0428233Y0846931D01*
Y0848930D01*
X0427234Y0849930D01*
X0425235D01*
X0424235Y0848930D01*
Y0846931D01*
X0425235Y0845932D01*
X0431233Y0849930D02*
X0433232D01*
X0434232Y0848930D01*
Y0845932D01*
X0431233D01*
X0430233Y0846931D01*
X0431233Y0847931D01*
X0434232D01*
X0436231Y0849930D02*
Y0845932D01*
Y0847931D01*
X0437231Y0848930D01*
X0438230Y0849930D01*
X0439230D01*
X0446228Y0851930D02*
Y0845932D01*
X0443229D01*
X0442229Y0846931D01*
Y0848930D01*
X0443229Y0849930D01*
X0446228D01*
X0458224Y0850930D02*
X0457224Y0851930D01*
X0455225D01*
X0454225Y0850930D01*
Y0849930D01*
X0455225Y0848930D01*
X0457224D01*
X0458224Y0847931D01*
Y0846931D01*
X0457224Y0845932D01*
X0455225D01*
X0454225Y0846931D01*
X0461223Y0850930D02*
Y0849930D01*
X0460223D01*
X0462222D01*
X0461223D01*
Y0846931D01*
X0462222Y0845932D01*
X0466221Y0849930D02*
X0468221D01*
X0469220Y0848930D01*
Y0845932D01*
X0466221D01*
X0465222Y0846931D01*
X0466221Y0847931D01*
X0469220D01*
X0475218Y0849930D02*
X0472219D01*
X0471220Y0848930D01*
Y0846931D01*
X0472219Y0845932D01*
X0475218D01*
X0477218D02*
Y0851930D01*
Y0847931D02*
X0480217Y0849930D01*
X0477218Y0847931D02*
X0480217Y0845932D01*
X0489214D02*
X0491213D01*
X0490213D01*
Y0851930D01*
X0489214Y0850930D01*
X0497200Y0080717D02*
Y0101050D01*
X0413200Y0080717D02*
Y0101050D01*
X0040000Y0080717D02*
X0700200D01*
X0040000Y0060383D02*
X0700000D01*
X0040000Y0040050D02*
X0440500D01*
X0040050Y0101050D02*
X0700200D01*
X0040050Y0040050D02*
Y0101050D01*
Y0040050D02*
X0197600D01*
X0040000D02*
Y0101050D01*
X0286500Y0040050D02*
Y0101050D01*
X0700200Y0040050D02*
Y0101050D01*
X0440500Y0040050D02*
X0700200D01*
X0559400Y0039400D02*
Y0059683D01*
G54D19*
X0492213Y0638932D02*
X0498213Y0644932D01*
X0486213Y0638932D02*
X0498213Y0650932D01*
X0480213Y0638932D02*
X0492213Y0650932D01*
X0474213Y0638932D02*
X0486213Y0650932D01*
X0468213Y0638932D02*
X0480213Y0650932D01*
X0462213Y0638932D02*
X0474213Y0650932D01*
X0456213Y0638932D02*
X0468213Y0650932D01*
X0450213Y0638932D02*
X0462213Y0650932D01*
X0444213Y0638932D02*
X0456213Y0650932D01*
X0438213Y0638932D02*
X0450213Y0650932D01*
X0432213Y0638932D02*
X0444213Y0650932D01*
X0426213Y0638932D02*
X0438213Y0650932D01*
X0420213Y0638932D02*
X0432213Y0650932D01*
X0414213Y0638932D02*
X0426213Y0650932D01*
X0411237Y0641955D02*
X0420213Y0650932D01*
X0411237Y0647955D02*
X0414213Y0650932D01*
X0492213D02*
X0498213Y0656931D01*
X0486213Y0650932D02*
X0498213Y0662931D01*
X0480213Y0650932D02*
X0492213Y0662931D01*
X0474213Y0650932D02*
X0486213Y0662931D01*
X0468213Y0650932D02*
X0480213Y0662931D01*
X0462213Y0650932D02*
X0474213Y0662931D01*
X0456213Y0650932D02*
X0468213Y0662931D01*
X0450213Y0650932D02*
X0462213Y0662931D01*
X0444213Y0650932D02*
X0456213Y0662931D01*
X0438213Y0650932D02*
X0450213Y0662931D01*
X0432213Y0650932D02*
X0444213Y0662931D01*
X0426213Y0650932D02*
X0438213Y0662931D01*
X0420213Y0650932D02*
X0432213Y0662931D01*
X0414213Y0650932D02*
X0426213Y0662931D01*
X0411237Y0653955D02*
X0420213Y0662931D01*
X0411237Y0659955D02*
X0414213Y0662931D01*
X0492213D02*
X0498213Y0668931D01*
X0486213Y0662931D02*
X0498213Y0674931D01*
X0480213Y0662931D02*
X0492213Y0674931D01*
X0474213Y0662931D02*
X0486213Y0674931D01*
X0468213Y0662931D02*
X0480213Y0674931D01*
X0462213Y0662931D02*
X0474213Y0674931D01*
X0456213Y0662931D02*
X0468213Y0674931D01*
X0450213Y0662931D02*
X0462213Y0674931D01*
X0444213Y0662931D02*
X0456213Y0674931D01*
X0438213Y0662931D02*
X0450213Y0674931D01*
X0432213Y0662931D02*
X0444213Y0674931D01*
X0426213Y0662931D02*
X0438213Y0674931D01*
X0420213Y0662931D02*
X0432213Y0674931D01*
X0414213Y0662931D02*
X0426213Y0674931D01*
X0411237Y0665955D02*
X0420213Y0674931D01*
X0411237Y0671955D02*
X0414213Y0674931D01*
X0492213D02*
X0498213Y0680932D01*
X0486213Y0674931D02*
X0498213Y0686932D01*
X0480213Y0674931D02*
X0492213Y0686932D01*
X0474213Y0674931D02*
X0486213Y0686932D01*
X0468213Y0674931D02*
X0480213Y0686932D01*
X0462213Y0674931D02*
X0474213Y0686932D01*
X0456213Y0674931D02*
X0468213Y0686932D01*
X0450213Y0674931D02*
X0462213Y0686932D01*
X0444213Y0674931D02*
X0456213Y0686932D01*
X0438213Y0674931D02*
X0450213Y0686932D01*
X0432213Y0674931D02*
X0444213Y0686932D01*
X0426213Y0674931D02*
X0438213Y0686932D01*
X0420213Y0674931D02*
X0432213Y0686932D01*
X0414213Y0674931D02*
X0426213Y0686932D01*
X0411237Y0677955D02*
X0420213Y0686932D01*
X0411237Y0683955D02*
X0414213Y0686932D01*
X0492213D02*
X0498213Y0692932D01*
X0486213Y0686932D02*
X0498213Y0698932D01*
X0480213Y0686932D02*
X0492213Y0698932D01*
X0474213Y0686932D02*
X0486213Y0698932D01*
X0468213Y0686932D02*
X0480213Y0698932D01*
X0462213Y0686932D02*
X0474213Y0698932D01*
X0456213Y0686932D02*
X0468213Y0698932D01*
X0450213Y0686932D02*
X0462213Y0698932D01*
X0444213Y0686932D02*
X0456213Y0698932D01*
X0438213Y0686932D02*
X0450213Y0698932D01*
X0432213Y0686932D02*
X0444213Y0698932D01*
X0426213Y0686932D02*
X0438213Y0698932D01*
X0420213Y0686932D02*
X0432213Y0698932D01*
X0414213Y0686932D02*
X0426213Y0698932D01*
X0411237Y0689955D02*
X0420213Y0698932D01*
X0411237Y0695955D02*
X0414213Y0698932D01*
X0492213D02*
X0498213Y0704931D01*
X0486213Y0698932D02*
X0498213Y0710931D01*
X0480213Y0698932D02*
X0492213Y0710931D01*
X0474213Y0698932D02*
X0486213Y0710931D01*
X0468213Y0698932D02*
X0480213Y0710931D01*
X0462213Y0698932D02*
X0474213Y0710931D01*
X0456213Y0698932D02*
X0468213Y0710931D01*
X0450213Y0698932D02*
X0462213Y0710931D01*
X0444213Y0698932D02*
X0456213Y0710931D01*
X0438213Y0698932D02*
X0450213Y0710931D01*
X0432213Y0698932D02*
X0444213Y0710931D01*
X0426213Y0698932D02*
X0438213Y0710931D01*
X0420213Y0698932D02*
X0432213Y0710931D01*
X0414213Y0698932D02*
X0426213Y0710931D01*
X0411237Y0701955D02*
X0420213Y0710931D01*
X0411237Y0707955D02*
X0414213Y0710931D01*
X0492213D02*
X0498213Y0716931D01*
X0486213Y0710931D02*
X0498213Y0722931D01*
X0480213Y0710931D02*
X0492213Y0722931D01*
X0474213Y0710931D02*
X0486213Y0722931D01*
X0468213Y0710931D02*
X0480213Y0722931D01*
X0462213Y0710931D02*
X0474213Y0722931D01*
X0456213Y0710931D02*
X0468213Y0722931D01*
X0450213Y0710931D02*
X0462213Y0722931D01*
X0444213Y0710931D02*
X0456213Y0722931D01*
X0438213Y0710931D02*
X0450213Y0722931D01*
X0432213Y0710931D02*
X0444213Y0722931D01*
X0426213Y0710931D02*
X0438213Y0722931D01*
X0420213Y0710931D02*
X0432213Y0722931D01*
X0414213Y0710931D02*
X0426213Y0722931D01*
X0411237Y0713955D02*
X0420213Y0722931D01*
X0411237Y0719955D02*
X0414213Y0722931D01*
X0492213D02*
X0498213Y0728932D01*
X0486213Y0722931D02*
X0498213Y0734932D01*
X0480213Y0722931D02*
X0492213Y0734932D01*
X0474213Y0722931D02*
X0486213Y0734932D01*
X0468213Y0722931D02*
X0480213Y0734932D01*
X0462213Y0722931D02*
X0474213Y0734932D01*
X0456213Y0722931D02*
X0468213Y0734932D01*
X0450213Y0722931D02*
X0462213Y0734932D01*
X0444213Y0722931D02*
X0456213Y0734932D01*
X0438213Y0722931D02*
X0450213Y0734932D01*
X0432213Y0722931D02*
X0444213Y0734932D01*
X0426213Y0722931D02*
X0438213Y0734932D01*
X0420213Y0722931D02*
X0432213Y0734932D01*
X0414213Y0722931D02*
X0426213Y0734932D01*
X0411237Y0725955D02*
X0420213Y0734932D01*
X0411237Y0731955D02*
X0414213Y0734932D01*
X0492213D02*
X0498213Y0740932D01*
X0486213Y0734932D02*
X0498213Y0746932D01*
X0480213Y0734932D02*
X0492213Y0746932D01*
X0474213Y0734932D02*
X0486213Y0746932D01*
X0468213Y0734932D02*
X0480213Y0746932D01*
X0462213Y0734932D02*
X0474213Y0746932D01*
X0456213Y0734932D02*
X0468213Y0746932D01*
X0450213Y0734932D02*
X0462213Y0746932D01*
X0444213Y0734932D02*
X0456213Y0746932D01*
X0438213Y0734932D02*
X0450213Y0746932D01*
X0432213Y0734932D02*
X0444213Y0746932D01*
X0426213Y0734932D02*
X0438213Y0746932D01*
X0420213Y0734932D02*
X0432213Y0746932D01*
X0414213Y0734932D02*
X0426213Y0746932D01*
X0411237Y0737955D02*
X0420213Y0746932D01*
X0411237Y0743955D02*
X0414213Y0746932D01*
X0492213D02*
X0498213Y0752931D01*
X0486213Y0746932D02*
X0498213Y0758931D01*
X0480213Y0746932D02*
X0492213Y0758931D01*
X0474213Y0746932D02*
X0486213Y0758931D01*
X0468213Y0746932D02*
X0480213Y0758931D01*
X0462213Y0746932D02*
X0474213Y0758931D01*
X0456213Y0746932D02*
X0468213Y0758931D01*
X0450213Y0746932D02*
X0462213Y0758931D01*
X0444213Y0746932D02*
X0456213Y0758931D01*
X0438213Y0746932D02*
X0450213Y0758931D01*
X0432213Y0746932D02*
X0444213Y0758931D01*
X0426213Y0746932D02*
X0438213Y0758931D01*
X0420213Y0746932D02*
X0432213Y0758931D01*
X0414213Y0746932D02*
X0426213Y0758931D01*
X0411237Y0749955D02*
X0420213Y0758931D01*
X0411237Y0755955D02*
X0414213Y0758931D01*
X0492213D02*
X0498213Y0764931D01*
X0486213Y0758931D02*
X0498213Y0770931D01*
X0480213Y0758931D02*
X0492213Y0770931D01*
X0474213Y0758931D02*
X0486213Y0770931D01*
X0468213Y0758931D02*
X0480213Y0770931D01*
X0462213Y0758931D02*
X0474213Y0770931D01*
X0456213Y0758931D02*
X0468213Y0770931D01*
X0450213Y0758931D02*
X0462213Y0770931D01*
X0444213Y0758931D02*
X0456213Y0770931D01*
X0438213Y0758931D02*
X0450213Y0770931D01*
X0432213Y0758931D02*
X0444213Y0770931D01*
X0426213Y0758931D02*
X0438213Y0770931D01*
X0420213Y0758931D02*
X0432213Y0770931D01*
X0414213Y0758931D02*
X0426213Y0770931D01*
X0411237Y0761955D02*
X0420213Y0770931D01*
X0411237Y0767955D02*
X0414213Y0770931D01*
X0492213D02*
X0498213Y0776931D01*
X0486213Y0770931D02*
X0498213Y0782932D01*
X0480213Y0770931D02*
X0492213Y0782932D01*
X0474213Y0770931D02*
X0486213Y0782932D01*
X0468213Y0770931D02*
X0480213Y0782932D01*
X0462213Y0770931D02*
X0474213Y0782932D01*
X0456213Y0770931D02*
X0468213Y0782932D01*
X0450213Y0770931D02*
X0462213Y0782932D01*
X0444213Y0770931D02*
X0456213Y0782932D01*
X0438213Y0770931D02*
X0450213Y0782932D01*
X0432213Y0770931D02*
X0444213Y0782932D01*
X0426213Y0770931D02*
X0438213Y0782932D01*
X0420213Y0770931D02*
X0432213Y0782932D01*
X0414213Y0770931D02*
X0426213Y0782932D01*
X0411237Y0773955D02*
X0420213Y0782932D01*
X0411237Y0779955D02*
X0414213Y0782932D01*
X0492213D02*
X0498213Y0788932D01*
X0486213Y0782932D02*
X0498213Y0794932D01*
X0480213Y0782932D02*
X0492213Y0794932D01*
X0474213Y0782932D02*
X0486213Y0794932D01*
X0468213Y0782932D02*
X0480213Y0794932D01*
X0462213Y0782932D02*
X0474213Y0794932D01*
X0456213Y0782932D02*
X0468213Y0794932D01*
X0450213Y0782932D02*
X0462213Y0794932D01*
X0444213Y0782932D02*
X0456213Y0794932D01*
X0438213Y0782932D02*
X0450213Y0794932D01*
X0432213Y0782932D02*
X0444213Y0794932D01*
X0426213Y0782932D02*
X0438213Y0794932D01*
X0420213Y0782932D02*
X0432213Y0794932D01*
X0414213Y0782932D02*
X0426213Y0794932D01*
X0411237Y0785955D02*
X0420213Y0794932D01*
X0411237Y0791955D02*
X0414213Y0794932D01*
X0492213D02*
X0498213Y0800931D01*
X0486213Y0794932D02*
X0498213Y0806931D01*
X0480213Y0794932D02*
X0492213Y0806931D01*
X0474213Y0794932D02*
X0486213Y0806931D01*
X0468213Y0794932D02*
X0480213Y0806931D01*
X0462213Y0794932D02*
X0474213Y0806931D01*
X0456213Y0794932D02*
X0468213Y0806931D01*
X0450213Y0794932D02*
X0462213Y0806931D01*
X0444213Y0794932D02*
X0456213Y0806931D01*
X0438213Y0794932D02*
X0450213Y0806931D01*
X0432213Y0794932D02*
X0444213Y0806931D01*
X0426213Y0794932D02*
X0438213Y0806931D01*
X0420213Y0794932D02*
X0432213Y0806931D01*
X0414213Y0794932D02*
X0426213Y0806931D01*
X0411237Y0797955D02*
X0420213Y0806931D01*
X0411237Y0803955D02*
X0414213Y0806931D01*
X0492213D02*
X0498213Y0812932D01*
X0486213Y0806931D02*
X0498213Y0818931D01*
X0480213Y0806931D02*
X0492213Y0818931D01*
X0474213Y0806931D02*
X0486213Y0818931D01*
X0468213Y0806931D02*
X0480213Y0818931D01*
X0462213Y0806931D02*
X0474213Y0818931D01*
X0456213Y0806931D02*
X0468213Y0818931D01*
X0450213Y0806931D02*
X0462213Y0818931D01*
X0444213Y0806931D02*
X0456213Y0818931D01*
X0438213Y0806931D02*
X0450213Y0818931D01*
X0432213Y0806931D02*
X0444213Y0818931D01*
X0426213Y0806931D02*
X0438213Y0818931D01*
X0420213Y0806931D02*
X0432213Y0818931D01*
X0414213Y0806931D02*
X0426213Y0818931D01*
X0411237Y0809955D02*
X0420213Y0818931D01*
X0411237Y0815955D02*
X0414213Y0818931D01*
X0492213D02*
X0498213Y0824932D01*
X0486213Y0818931D02*
X0498213Y0830931D01*
X0480213Y0818931D02*
X0492213Y0830931D01*
X0474213Y0818931D02*
X0486213Y0830931D01*
X0468213Y0818931D02*
X0480213Y0830931D01*
X0462213Y0818931D02*
X0474213Y0830931D01*
X0456213Y0818931D02*
X0468213Y0830931D01*
X0450213Y0818931D02*
X0462213Y0830931D01*
X0444213Y0818931D02*
X0456213Y0830931D01*
X0438213Y0818931D02*
X0450213Y0830931D01*
X0432213Y0818931D02*
X0444213Y0830931D01*
X0426213Y0818931D02*
X0438213Y0830931D01*
X0420213Y0818931D02*
X0432213Y0830931D01*
X0414213Y0818931D02*
X0426213Y0830931D01*
X0411237Y0821955D02*
X0420213Y0830931D01*
X0411237Y0827955D02*
X0414213Y0830931D01*
X0492213D02*
X0498213Y0836932D01*
X0486213Y0830931D02*
X0498213Y0842931D01*
X0480213Y0830931D02*
X0492213Y0842931D01*
X0474213Y0830931D02*
X0486213Y0842931D01*
X0468213Y0830931D02*
X0480213Y0842931D01*
X0462213Y0830931D02*
X0474213Y0842931D01*
X0456213Y0830931D02*
X0468213Y0842931D01*
X0450213Y0830931D02*
X0462213Y0842931D01*
X0444213Y0830931D02*
X0456213Y0842931D01*
X0438213Y0830931D02*
X0450213Y0842931D01*
X0432213Y0830931D02*
X0444213Y0842931D01*
X0426213Y0830931D02*
X0438213Y0842931D01*
X0420213Y0830931D02*
X0432213Y0842931D01*
X0414213Y0830931D02*
X0426213Y0842931D01*
X0411237Y0833955D02*
X0420213Y0842931D01*
X0411237Y0839955D02*
X0414213Y0842931D01*
G54D20*
X0567400Y0087833D02*
Y0093831D01*
X0571399Y0087833D01*
Y0093831D01*
X0574398Y0087833D02*
X0576397D01*
X0577397Y0088833D01*
Y0090832D01*
X0576397Y0091832D01*
X0574398D01*
X0573398Y0090832D01*
Y0088833D01*
X0574398Y0087833D01*
X0580396Y0092832D02*
Y0091832D01*
X0579396D01*
X0581395D01*
X0580396D01*
Y0088833D01*
X0581395Y0087833D01*
X0590393D02*
X0592392D01*
X0591392D01*
Y0091832D01*
X0590393D01*
X0595391Y0087833D02*
Y0091832D01*
X0598390D01*
X0599390Y0090832D01*
Y0087833D01*
X0607387Y0091832D02*
X0609386Y0087833D01*
X0611386Y0091832D01*
X0616384Y0087833D02*
X0614385D01*
X0613385Y0088833D01*
Y0090832D01*
X0614385Y0091832D01*
X0616384D01*
X0617384Y0090832D01*
Y0089833D01*
X0613385D01*
X0619383Y0091832D02*
Y0087833D01*
Y0089833D01*
X0620383Y0090832D01*
X0621383Y0091832D01*
X0622382D01*
X0625381Y0087833D02*
X0628380D01*
X0629380Y0088833D01*
X0628380Y0089833D01*
X0626381D01*
X0625381Y0090832D01*
X0626381Y0091832D01*
X0629380D01*
X0631379Y0087833D02*
X0633379D01*
X0632379D01*
Y0091832D01*
X0631379D01*
X0637377Y0087833D02*
X0639377D01*
X0640376Y0088833D01*
Y0090832D01*
X0639377Y0091832D01*
X0637377D01*
X0636378Y0090832D01*
Y0088833D01*
X0637377Y0087833D01*
X0642376D02*
Y0091832D01*
X0645375D01*
X0646374Y0090832D01*
Y0087833D01*
X0658371Y0091832D02*
X0655372D01*
X0654372Y0090832D01*
Y0088833D01*
X0655372Y0087833D01*
X0658371D01*
X0661370D02*
X0663369D01*
X0664369Y0088833D01*
Y0090832D01*
X0663369Y0091832D01*
X0661370D01*
X0660370Y0090832D01*
Y0088833D01*
X0661370Y0087833D01*
X0666368D02*
Y0091832D01*
X0669367D01*
X0670367Y0090832D01*
Y0087833D01*
X0673366Y0092832D02*
Y0091832D01*
X0672366D01*
X0674365D01*
X0673366D01*
Y0088833D01*
X0674365Y0087833D01*
X0677364Y0091832D02*
Y0087833D01*
Y0089833D01*
X0678364Y0090832D01*
X0679364Y0091832D01*
X0680364D01*
X0684362Y0087833D02*
X0686362D01*
X0687361Y0088833D01*
Y0090832D01*
X0686362Y0091832D01*
X0684362D01*
X0683362Y0090832D01*
Y0088833D01*
X0684362Y0087833D01*
X0689361D02*
X0691360D01*
X0690360D01*
Y0093831D01*
X0689361D01*
X0520799Y0092832D02*
X0519799Y0093831D01*
X0517800D01*
X0516800Y0092832D01*
Y0091832D01*
X0517800Y0090832D01*
X0519799D01*
X0520799Y0089833D01*
Y0088833D01*
X0519799Y0087833D01*
X0517800D01*
X0516800Y0088833D01*
X0522798Y0093831D02*
Y0089833D01*
X0524797Y0087833D01*
X0526797Y0089833D01*
Y0093831D01*
X0528796Y0087833D02*
Y0093831D01*
X0532795Y0087833D01*
Y0093831D01*
X0540792Y0087833D02*
Y0093831D01*
X0543791D01*
X0544791Y0092832D01*
Y0090832D01*
X0543791Y0089833D01*
X0540792D01*
X0542792D02*
X0544791Y0087833D01*
X0550789Y0093831D02*
X0546790D01*
Y0087833D01*
X0550789D01*
X0546790Y0090832D02*
X0548790D01*
X0552788Y0093831D02*
Y0089833D01*
X0554788Y0087833D01*
X0556787Y0089833D01*
Y0093831D01*
X0558786Y0091832D02*
X0559786D01*
Y0090832D01*
X0558786D01*
Y0091832D01*
Y0088833D02*
X0559786D01*
Y0087833D01*
X0558786D01*
Y0088833D01*
X0433000Y0087833D02*
Y0093831D01*
X0435999D01*
X0436999Y0092832D01*
Y0090832D01*
X0435999Y0089833D01*
X0433000D01*
X0434999D02*
X0436999Y0087833D01*
X0442997Y0093831D02*
X0438998D01*
Y0087833D01*
X0442997D01*
X0438998Y0090832D02*
X0440997D01*
X0444996Y0093831D02*
Y0089833D01*
X0446995Y0087833D01*
X0448995Y0089833D01*
Y0093831D01*
X0450994Y0091832D02*
X0451994D01*
Y0090832D01*
X0450994D01*
Y0091832D01*
Y0088833D02*
X0451994D01*
Y0087833D01*
X0450994D01*
Y0088833D01*
X0126900Y0052965D02*
X0130899D01*
Y0051965D01*
X0126900Y0047966D01*
Y0046966D01*
X0132898D02*
X0134897D01*
X0133898D01*
Y0052965D01*
X0132898Y0051965D01*
X0137896D02*
X0138896Y0052965D01*
X0140895D01*
X0141895Y0051965D01*
Y0047966D01*
X0140895Y0046966D01*
X0138896D01*
X0137896Y0047966D01*
Y0051965D01*
X0143895D02*
X0144894Y0052965D01*
X0146894D01*
X0147893Y0051965D01*
Y0047966D01*
X0146894Y0046966D01*
X0144894D01*
X0143895Y0047966D01*
Y0051965D01*
X0149893Y0049966D02*
X0153891D01*
X0155891Y0051965D02*
X0156890Y0052965D01*
X0158890D01*
X0159889Y0051965D01*
Y0047966D01*
X0158890Y0046966D01*
X0156890D01*
X0155891Y0047966D01*
Y0051965D01*
X0161889D02*
X0162888Y0052965D01*
X0164888D01*
X0165887Y0051965D01*
Y0047966D01*
X0164888Y0046966D01*
X0162888D01*
X0161889Y0047966D01*
Y0051965D01*
X0167887D02*
X0168886Y0052965D01*
X0170886D01*
X0171885Y0051965D01*
Y0047966D01*
X0170886Y0046966D01*
X0168886D01*
X0167887Y0047966D01*
Y0051965D01*
X0173885D02*
X0174884Y0052965D01*
X0176884D01*
X0177884Y0051965D01*
Y0047966D01*
X0176884Y0046966D01*
X0174884D01*
X0173885Y0047966D01*
Y0051965D01*
X0179883D02*
X0180883Y0052965D01*
X0182882D01*
X0183882Y0051965D01*
Y0050965D01*
X0182882Y0049966D01*
X0181882D01*
X0182882D01*
X0183882Y0048966D01*
Y0047966D01*
X0182882Y0046966D01*
X0180883D01*
X0179883Y0047966D01*
X0191879Y0052965D02*
Y0047966D01*
X0192879Y0046966D01*
X0194878D01*
X0195878Y0047966D01*
Y0052965D01*
X0201876Y0051965D02*
X0200876Y0052965D01*
X0198877D01*
X0197877Y0051965D01*
Y0050965D01*
X0198877Y0049966D01*
X0200876D01*
X0201876Y0048966D01*
Y0047966D01*
X0200876Y0046966D01*
X0198877D01*
X0197877Y0047966D01*
X0203875Y0052965D02*
X0207874D01*
X0205874D01*
Y0046966D01*
X0209873Y0050965D02*
X0213872Y0046966D01*
X0211873Y0048966D01*
X0213872Y0050965D01*
X0209873Y0046966D01*
X0221869Y0052965D02*
Y0046966D01*
X0224868D01*
X0225868Y0047966D01*
Y0048966D01*
X0224868Y0049966D01*
X0221869D01*
X0224868D01*
X0225868Y0050965D01*
Y0051965D01*
X0224868Y0052965D01*
X0221869D01*
X0228867Y0046966D02*
X0230866D01*
X0231866Y0047966D01*
Y0049966D01*
X0230866Y0050965D01*
X0228867D01*
X0227867Y0049966D01*
Y0047966D01*
X0228867Y0046966D01*
X0234865Y0050965D02*
X0236864D01*
X0237864Y0049966D01*
Y0046966D01*
X0234865D01*
X0233865Y0047966D01*
X0234865Y0048966D01*
X0237864D01*
X0239863Y0050965D02*
Y0046966D01*
Y0048966D01*
X0240863Y0049966D01*
X0241863Y0050965D01*
X0242863D01*
X0249860Y0052965D02*
Y0046966D01*
X0246861D01*
X0245862Y0047966D01*
Y0049966D01*
X0246861Y0050965D01*
X0249860D01*
X0257858Y0052965D02*
Y0048966D01*
X0259857Y0046966D01*
X0261856Y0048966D01*
Y0052965D01*
X0263856Y0046966D02*
Y0047966D01*
X0264855D01*
Y0046966D01*
X0263856D01*
X0268854Y0051965D02*
X0269854Y0052965D01*
X0271853D01*
X0272853Y0051965D01*
Y0047966D01*
X0271853Y0046966D01*
X0269854D01*
X0268854Y0047966D01*
Y0051965D01*
X0274852Y0046966D02*
Y0047966D01*
X0275852D01*
Y0046966D01*
X0274852D01*
X0282850D02*
Y0052965D01*
X0279851Y0049966D01*
X0283849D01*
X0285849Y0046966D02*
Y0047966D01*
X0286848D01*
Y0046966D01*
X0285849D01*
X0290847D02*
X0292846D01*
X0291847D01*
Y0052965D01*
X0290847Y0051965D01*
X0295845Y0046966D02*
Y0047966D01*
X0296845D01*
Y0046966D01*
X0295845D01*
X0304842Y0051965D02*
X0303843Y0052965D01*
X0301843D01*
X0300844Y0051965D01*
Y0047966D01*
X0301843Y0046966D01*
X0303843D01*
X0304842Y0047966D01*
Y0049966D01*
X0302843D01*
X0306842Y0046966D02*
Y0052965D01*
X0308841Y0050965D01*
X0310841Y0052965D01*
Y0046966D01*
X0312840D02*
X0314839D01*
X0313840D01*
Y0052965D01*
X0312840Y0051965D01*
X0321837Y0046966D02*
X0317838D01*
X0321837Y0050965D01*
Y0051965D01*
X0320837Y0052965D01*
X0318838D01*
X0317838Y0051965D01*
X0381150Y0046966D02*
X0383149D01*
X0382150D01*
Y0052965D01*
X0381150Y0051965D01*
X0386148Y0046966D02*
X0390147Y0050965D01*
X0396145Y0046966D02*
X0392146D01*
X0396145Y0050965D01*
Y0051965D01*
X0395146Y0052965D01*
X0393146D01*
X0392146Y0051965D01*
X0398145D02*
X0399144Y0052965D01*
X0401144D01*
X0402143Y0051965D01*
Y0050965D01*
X0401144Y0049966D01*
X0402143Y0048966D01*
Y0047966D01*
X0401144Y0046966D01*
X0399144D01*
X0398145Y0047966D01*
Y0048966D01*
X0399144Y0049966D01*
X0398145Y0050965D01*
Y0051965D01*
X0399144Y0049966D02*
X0401144D01*
X0404143Y0046966D02*
X0408141Y0050965D01*
X0414139Y0046966D02*
X0410141D01*
X0414139Y0050965D01*
Y0051965D01*
X0413140Y0052965D01*
X0411140D01*
X0410141Y0051965D01*
X0416139D02*
X0417138Y0052965D01*
X0419138D01*
X0420137Y0051965D01*
Y0047966D01*
X0419138Y0046966D01*
X0417138D01*
X0416139Y0047966D01*
Y0051965D01*
X0426135Y0046966D02*
X0422137D01*
X0426135Y0050965D01*
Y0051965D01*
X0425136Y0052965D01*
X0423136D01*
X0422137Y0051965D01*
X0432133Y0052965D02*
X0428135D01*
Y0049966D01*
X0430134Y0050965D01*
X0431134D01*
X0432133Y0049966D01*
Y0047966D01*
X0431134Y0046966D01*
X0429135D01*
X0428135Y0047966D01*
X0298199Y0051965D02*
X0297199Y0052965D01*
X0295200D01*
X0294200Y0051965D01*
Y0047966D01*
X0295200Y0046966D01*
X0297199D01*
X0298199Y0047966D01*
Y0049966D01*
X0296199D01*
X0304197Y0052965D02*
X0300198D01*
Y0046966D01*
X0304197D01*
X0300198Y0049966D02*
X0302197D01*
X0306196Y0046966D02*
Y0052965D01*
X0310195Y0046966D01*
Y0052965D01*
X0316193D02*
X0312194D01*
Y0046966D01*
X0316193D01*
X0312194Y0049966D02*
X0314194D01*
X0318192Y0046966D02*
Y0052965D01*
X0321191D01*
X0322191Y0051965D01*
Y0049966D01*
X0321191Y0048966D01*
X0318192D01*
X0320192D02*
X0322191Y0046966D01*
X0324190D02*
Y0050965D01*
X0326190Y0052965D01*
X0328189Y0050965D01*
Y0046966D01*
Y0049966D01*
X0324190D01*
X0330188Y0052965D02*
X0334187D01*
X0332188D01*
Y0046966D01*
X0340185Y0052965D02*
X0336186D01*
Y0046966D01*
X0340185D01*
X0336186Y0049966D02*
X0338186D01*
X0342184Y0052965D02*
Y0046966D01*
X0345183D01*
X0346183Y0047966D01*
Y0051965D01*
X0345183Y0052965D01*
X0342184D01*
X0372175Y0050965D02*
X0373175D01*
Y0049966D01*
X0372175D01*
Y0050965D01*
Y0047966D02*
X0373175D01*
Y0046966D01*
X0372175D01*
Y0047966D01*
X0041778Y0083375D02*
Y0087374D01*
X0043777Y0089373D01*
X0045777Y0087374D01*
Y0083375D01*
Y0086374D01*
X0041778D01*
X0047776Y0089373D02*
Y0083375D01*
X0051775D01*
X0053774Y0089373D02*
Y0083375D01*
X0057773D01*
X0065770D02*
Y0087374D01*
X0067769Y0089373D01*
X0069769Y0087374D01*
Y0083375D01*
Y0086374D01*
X0065770D01*
X0071768Y0083375D02*
Y0089373D01*
X0074767D01*
X0075767Y0088373D01*
Y0086374D01*
X0074767Y0085374D01*
X0071768D01*
X0073768D02*
X0075767Y0083375D01*
X0077766Y0089373D02*
X0081765D01*
X0079766D01*
Y0083375D01*
X0083764Y0089373D02*
Y0083375D01*
X0085764Y0085374D01*
X0087763Y0083375D01*
Y0089373D01*
X0092761D02*
X0090762D01*
X0089762Y0088373D01*
Y0084374D01*
X0090762Y0083375D01*
X0092761D01*
X0093761Y0084374D01*
Y0088373D01*
X0092761Y0089373D01*
X0095760Y0083375D02*
Y0089373D01*
X0098759D01*
X0099759Y0088373D01*
Y0086374D01*
X0098759Y0085374D01*
X0095760D01*
X0097760D02*
X0099759Y0083375D01*
X0101759Y0089373D02*
Y0083375D01*
Y0085374D01*
X0105757Y0089373D01*
X0102758Y0086374D01*
X0105757Y0083375D01*
X0113755Y0089373D02*
Y0085374D01*
X0115754Y0083375D01*
X0117753Y0085374D01*
Y0089373D01*
X0119753D02*
X0121752D01*
X0120752D01*
Y0083375D01*
X0119753D01*
X0121752D01*
X0128750Y0089373D02*
X0124751D01*
Y0083375D01*
X0128750D01*
X0124751Y0086374D02*
X0126750D01*
X0130749Y0089373D02*
Y0083375D01*
X0132748Y0085374D01*
X0134748Y0083375D01*
Y0089373D01*
X0140746D02*
X0136747D01*
Y0083375D01*
X0140746D01*
X0136747Y0086374D02*
X0138747D01*
X0142745Y0089373D02*
Y0083375D01*
X0145744D01*
X0146744Y0084374D01*
Y0088373D01*
X0145744Y0089373D01*
X0142745D01*
X0158740D02*
X0154741D01*
Y0086374D01*
X0156741D01*
X0154741D01*
Y0083375D01*
X0160739D02*
Y0089373D01*
X0163738D01*
X0164738Y0088373D01*
Y0086374D01*
X0163738Y0085374D01*
X0160739D01*
X0162739D02*
X0164738Y0083375D01*
X0169737Y0089373D02*
X0167737D01*
X0166737Y0088373D01*
Y0084374D01*
X0167737Y0083375D01*
X0169737D01*
X0170736Y0084374D01*
Y0088373D01*
X0169737Y0089373D01*
X0172736Y0083375D02*
Y0089373D01*
X0174735Y0087374D01*
X0176734Y0089373D01*
Y0083375D01*
X0184732Y0089373D02*
X0188730D01*
X0186731D01*
Y0083375D01*
X0193729Y0089373D02*
X0191729D01*
X0190730Y0088373D01*
Y0084374D01*
X0191729Y0083375D01*
X0193729D01*
X0194728Y0084374D01*
Y0088373D01*
X0193729Y0089373D01*
X0196728Y0083375D02*
Y0089373D01*
X0199727D01*
X0200727Y0088373D01*
Y0086374D01*
X0199727Y0085374D01*
X0196728D01*
X0212723Y0088373D02*
X0211723Y0089373D01*
X0209723D01*
X0208724Y0088373D01*
Y0087374D01*
X0209723Y0086374D01*
X0211723D01*
X0212723Y0085374D01*
Y0084374D01*
X0211723Y0083375D01*
X0209723D01*
X0208724Y0084374D01*
X0214722Y0089373D02*
X0216721D01*
X0215722D01*
Y0083375D01*
X0214722D01*
X0216721D01*
X0219720Y0089373D02*
Y0083375D01*
X0222719D01*
X0223719Y0084374D01*
Y0088373D01*
X0222719Y0089373D01*
X0219720D01*
X0229717D02*
X0225718D01*
Y0083375D01*
X0229717D01*
X0225718Y0086374D02*
X0227718D01*
X0462150Y0092832D02*
X0463150Y0093831D01*
X0465149D01*
X0466149Y0092832D01*
Y0088833D01*
X0465149Y0087833D01*
X0463150D01*
X0462150Y0088833D01*
Y0092832D01*
X0348550Y0093831D02*
X0352549D01*
Y0092832D01*
X0348550Y0088833D01*
Y0087833D01*
X0354548D02*
X0356547D01*
X0355548D01*
Y0093831D01*
X0354548Y0092832D01*
X0359546D02*
X0360546Y0093831D01*
X0362545D01*
X0363545Y0092832D01*
Y0088833D01*
X0362545Y0087833D01*
X0360546D01*
X0359546Y0088833D01*
Y0092832D01*
X0365545D02*
X0366544Y0093831D01*
X0368544D01*
X0369543Y0092832D01*
Y0088833D01*
X0368544Y0087833D01*
X0366544D01*
X0365545Y0088833D01*
Y0092832D01*
X0371543Y0090832D02*
X0375541D01*
X0377541Y0092832D02*
X0378540Y0093831D01*
X0380540D01*
X0381539Y0092832D01*
Y0088833D01*
X0380540Y0087833D01*
X0378540D01*
X0377541Y0088833D01*
Y0092832D01*
X0383539D02*
X0384538Y0093831D01*
X0386538D01*
X0387537Y0092832D01*
Y0088833D01*
X0386538Y0087833D01*
X0384538D01*
X0383539Y0088833D01*
Y0092832D01*
X0389537D02*
X0390536Y0093831D01*
X0392536D01*
X0393535Y0092832D01*
Y0088833D01*
X0392536Y0087833D01*
X0390536D01*
X0389537Y0088833D01*
Y0092832D01*
X0395535D02*
X0396534Y0093831D01*
X0398534D01*
X0399534Y0092832D01*
Y0088833D01*
X0398534Y0087833D01*
X0396534D01*
X0395535Y0088833D01*
Y0092832D01*
X0401533D02*
X0402532Y0093831D01*
X0404532D01*
X0405532Y0092832D01*
Y0091832D01*
X0404532Y0090832D01*
X0403532D01*
X0404532D01*
X0405532Y0089833D01*
Y0088833D01*
X0404532Y0087833D01*
X0402532D01*
X0401533Y0088833D01*
X0294000Y0093831D02*
Y0087833D01*
X0296999D01*
X0297999Y0088833D01*
Y0089833D01*
X0296999Y0090832D01*
X0294000D01*
X0296999D01*
X0297999Y0091832D01*
Y0092832D01*
X0296999Y0093831D01*
X0294000D01*
X0302997D02*
X0300998D01*
X0299998Y0092832D01*
Y0088833D01*
X0300998Y0087833D01*
X0302997D01*
X0303997Y0088833D01*
Y0092832D01*
X0302997Y0093831D01*
X0305996Y0087833D02*
Y0091832D01*
X0307996Y0093831D01*
X0309995Y0091832D01*
Y0087833D01*
Y0090832D01*
X0305996D01*
X0311994Y0087833D02*
Y0093831D01*
X0314993D01*
X0315993Y0092832D01*
Y0090832D01*
X0314993Y0089833D01*
X0311994D01*
X0313994D02*
X0315993Y0087833D01*
X0317992Y0093831D02*
Y0087833D01*
X0320991D01*
X0321991Y0088833D01*
Y0092832D01*
X0320991Y0093831D01*
X0317992D01*
X0330988Y0087833D02*
Y0093831D01*
X0332987D02*
Y0087833D01*
X0329988Y0091832D02*
X0332987D01*
X0333987D01*
X0329988Y0089833D02*
X0333987D01*
X0335986Y0091832D02*
X0336986D01*
Y0090832D01*
X0335986D01*
Y0091832D01*
Y0088833D02*
X0336986D01*
Y0087833D01*
X0335986D01*
Y0088833D01*
X0046350Y0073549D02*
Y0067551D01*
X0050349D01*
X0052348D02*
Y0071549D01*
X0054347Y0073549D01*
X0056347Y0071549D01*
Y0067551D01*
Y0070550D01*
X0052348D01*
X0058346Y0073549D02*
Y0072549D01*
X0060346Y0070550D01*
X0062345Y0072549D01*
Y0073549D01*
X0060346Y0070550D02*
Y0067551D01*
X0068343Y0073549D02*
X0064344D01*
Y0067551D01*
X0068343D01*
X0064344Y0070550D02*
X0066343D01*
X0070342Y0067551D02*
Y0073549D01*
X0073341D01*
X0074341Y0072549D01*
Y0070550D01*
X0073341Y0069550D01*
X0070342D01*
X0072342D02*
X0074341Y0067551D01*
X0082338D02*
Y0073549D01*
X0086337Y0067551D01*
Y0073549D01*
X0088336Y0067551D02*
Y0071549D01*
X0090336Y0073549D01*
X0092335Y0071549D01*
Y0067551D01*
Y0070550D01*
X0088336D01*
X0094335Y0067551D02*
Y0073549D01*
X0096334Y0071549D01*
X0098333Y0073549D01*
Y0067551D01*
X0104331Y0073549D02*
X0100332D01*
Y0067551D01*
X0104331D01*
X0100332Y0070550D02*
X0102332D01*
X0112329Y0069550D02*
X0116327D01*
X0112329Y0071549D02*
X0116327D01*
X0046350Y0046966D02*
Y0052965D01*
X0049349D01*
X0050349Y0051965D01*
Y0049966D01*
X0049349Y0048966D01*
X0046350D01*
X0052348Y0052965D02*
Y0046966D01*
X0056347D01*
X0061345Y0052965D02*
X0059346D01*
X0058346Y0051965D01*
Y0047966D01*
X0059346Y0046966D01*
X0061345D01*
X0062345Y0047966D01*
Y0051965D01*
X0061345Y0052965D01*
X0064344D02*
X0068343D01*
X0066343D01*
Y0046966D01*
X0076340D02*
Y0052965D01*
X0080339Y0046966D01*
Y0052965D01*
X0082338Y0046966D02*
Y0050965D01*
X0084338Y0052965D01*
X0086337Y0050965D01*
Y0046966D01*
Y0049966D01*
X0082338D01*
X0088336Y0046966D02*
Y0052965D01*
X0090336Y0050965D01*
X0092335Y0052965D01*
Y0046966D01*
X0098333Y0052965D02*
X0094335D01*
Y0046966D01*
X0098333D01*
X0094335Y0049966D02*
X0096334D01*
X0106331Y0048966D02*
X0110329D01*
X0106331Y0050965D02*
X0110329D01*
X0454050Y0046966D02*
X0456049D01*
X0455050D01*
Y0052965D01*
X0454050Y0051965D01*
X0463047Y0046966D02*
X0459048D01*
X0463047Y0050965D01*
Y0051965D01*
X0462047Y0052965D01*
X0460048D01*
X0459048Y0051965D01*
X0465046Y0050965D02*
X0466046D01*
Y0049966D01*
X0465046D01*
Y0050965D01*
Y0047966D02*
X0466046D01*
Y0046966D01*
X0465046D01*
Y0047966D01*
X0470045Y0051965D02*
X0471044Y0052965D01*
X0473044D01*
X0474044Y0051965D01*
Y0050965D01*
X0473044Y0049966D01*
X0472044D01*
X0473044D01*
X0474044Y0048966D01*
Y0047966D01*
X0473044Y0046966D01*
X0471044D01*
X0470045Y0047966D01*
X0476043Y0046966D02*
X0478042D01*
X0477043D01*
Y0052965D01*
X0476043Y0051965D01*
X0481041Y0050965D02*
X0482041D01*
Y0049966D01*
X0481041D01*
Y0050965D01*
Y0047966D02*
X0482041D01*
Y0046966D01*
X0481041D01*
Y0047966D01*
X0486040Y0051965D02*
X0487039Y0052965D01*
X0489039D01*
X0490038Y0051965D01*
Y0050965D01*
X0489039Y0049966D01*
X0488039D01*
X0489039D01*
X0490038Y0048966D01*
Y0047966D01*
X0489039Y0046966D01*
X0487039D01*
X0486040Y0047966D01*
X0492038Y0051965D02*
X0493037Y0052965D01*
X0495037D01*
X0496036Y0051965D01*
Y0050965D01*
X0495037Y0049966D01*
X0496036Y0048966D01*
Y0047966D01*
X0495037Y0046966D01*
X0493037D01*
X0492038Y0047966D01*
Y0048966D01*
X0493037Y0049966D01*
X0492038Y0050965D01*
Y0051965D01*
X0493037Y0049966D02*
X0495037D01*
X0504034Y0046966D02*
Y0052965D01*
X0507033D01*
X0508033Y0051965D01*
Y0049966D01*
X0507033Y0048966D01*
X0504034D01*
X0510032Y0046966D02*
Y0052965D01*
X0512031Y0050965D01*
X0514031Y0052965D01*
Y0046966D01*
X0604409Y0053922D02*
X0602409D01*
X0601409Y0052922D01*
Y0048923D01*
X0602409Y0047924D01*
X0604409D01*
X0605408Y0048923D01*
Y0052922D01*
X0604409Y0053922D01*
X0607408Y0045924D02*
Y0051922D01*
X0610407D01*
X0611406Y0050923D01*
Y0048923D01*
X0610407Y0047924D01*
X0607408D01*
X0616405D02*
X0614405D01*
X0613406Y0048923D01*
Y0050923D01*
X0614405Y0051922D01*
X0616405D01*
X0617404Y0050923D01*
Y0049923D01*
X0613406D01*
X0619404Y0047924D02*
Y0051922D01*
X0622403D01*
X0623402Y0050923D01*
Y0047924D01*
X0625402Y0053922D02*
Y0047924D01*
X0627401Y0049923D01*
X0629400Y0047924D01*
Y0053922D01*
X0632400Y0051922D02*
X0634399D01*
X0635398Y0050923D01*
Y0047924D01*
X0632400D01*
X0631400Y0048923D01*
X0632400Y0049923D01*
X0635398D01*
X0638398Y0052922D02*
Y0051922D01*
X0637398D01*
X0639397D01*
X0638398D01*
Y0048923D01*
X0639397Y0047924D01*
X0645395D02*
X0643396D01*
X0642396Y0048923D01*
Y0050923D01*
X0643396Y0051922D01*
X0645395D01*
X0646395Y0050923D01*
Y0049923D01*
X0642396D01*
X0648394Y0051922D02*
Y0047924D01*
Y0049923D01*
X0649394Y0050923D01*
X0650394Y0051922D01*
X0651393D01*
X0294000Y0073498D02*
X0297999D01*
X0295999D01*
Y0067500D01*
X0299998Y0073498D02*
X0301997D01*
X0300998D01*
Y0067500D01*
X0299998D01*
X0301997D01*
X0304996Y0073498D02*
Y0067500D01*
X0307996D01*
X0308995Y0068500D01*
Y0072498D01*
X0307996Y0073498D01*
X0304996D01*
X0317992Y0067500D02*
Y0073498D01*
X0319992D02*
Y0067500D01*
X0316993Y0071499D02*
X0319992D01*
X0320991D01*
X0316993Y0069499D02*
X0320991D01*
X0322991Y0071499D02*
X0323990D01*
Y0070499D01*
X0322991D01*
Y0071499D01*
Y0068500D02*
X0323990D01*
Y0067500D01*
X0322991D01*
Y0068500D01*
X0348550Y0067500D02*
Y0073498D01*
X0352549Y0067500D01*
Y0073498D01*
X0354548Y0067500D02*
X0358547Y0071499D01*
X0360546Y0067500D02*
Y0071499D01*
X0362545Y0073498D01*
X0364545Y0071499D01*
Y0067500D01*
Y0070499D01*
X0360546D01*
G54D90*
X0068325Y0842931D02*
X0498213D01*
X0068325Y0854932D02*
X0498213D01*
X0068325Y0638932D02*
Y0854932D01*
Y0638932D02*
X0109316D01*
X0068325Y0650932D02*
X0109316D01*
X0068325Y0662931D02*
X0109316D01*
X0068325Y0674931D02*
X0109316D01*
X0068325Y0686932D02*
X0109316D01*
X0068325Y0698932D02*
X0109316D01*
X0068325Y0710931D02*
X0109316D01*
X0068325Y0722931D02*
X0109316D01*
X0068325Y0734932D02*
X0109316D01*
X0068325Y0746932D02*
X0109316D01*
X0068325Y0758931D02*
X0109316D01*
X0068325Y0770931D02*
X0109316D01*
X0068325Y0782932D02*
X0109316D01*
X0068325Y0794932D02*
X0109316D01*
X0068325Y0806931D02*
X0109316D01*
X0068325Y0818931D02*
X0109316D01*
X0068325Y0830931D02*
X0109316D01*
Y0638932D02*
Y0854932D01*
Y0638932D02*
X0203291D01*
X0109316Y0650932D02*
X0203291D01*
X0109316Y0662931D02*
X0203291D01*
X0109316Y0674931D02*
X0203291D01*
X0109316Y0686932D02*
X0203291D01*
X0109316Y0698932D02*
X0203291D01*
X0109316Y0710931D02*
X0203291D01*
X0109316Y0722931D02*
X0203291D01*
X0109316Y0734932D02*
X0203291D01*
X0109316Y0746932D02*
X0203291D01*
X0109316Y0758931D02*
X0203291D01*
X0109316Y0770931D02*
X0203291D01*
X0109316Y0782932D02*
X0203291D01*
X0109316Y0794932D02*
X0203291D01*
X0109316Y0806931D02*
X0203291D01*
X0109316Y0818931D02*
X0203291D01*
X0109316Y0830931D02*
X0203291D01*
Y0638932D02*
Y0854932D01*
Y0638932D02*
X0289267D01*
X0203291Y0650932D02*
X0289267D01*
X0203291Y0662931D02*
X0289267D01*
X0203291Y0674931D02*
X0289267D01*
X0203291Y0686932D02*
X0289267D01*
X0203291Y0698932D02*
X0289267D01*
X0203291Y0710931D02*
X0289267D01*
X0203291Y0722931D02*
X0289267D01*
X0203291Y0734932D02*
X0289267D01*
X0203291Y0746932D02*
X0289267D01*
X0203291Y0758931D02*
X0289267D01*
X0203291Y0770931D02*
X0289267D01*
X0203291Y0782932D02*
X0289267D01*
X0203291Y0794932D02*
X0289267D01*
X0203291Y0806931D02*
X0289267D01*
X0203291Y0818931D02*
X0289267D01*
X0203291Y0830931D02*
X0289267D01*
Y0638932D02*
Y0854932D01*
Y0638932D02*
X0354251D01*
X0289267Y0650932D02*
X0354251D01*
X0289267Y0662931D02*
X0354251D01*
X0289267Y0674931D02*
X0354251D01*
X0289267Y0686932D02*
X0354251D01*
X0289267Y0698932D02*
X0354251D01*
X0289267Y0710931D02*
X0354251D01*
X0289267Y0722931D02*
X0354251D01*
X0289267Y0734932D02*
X0354251D01*
X0289267Y0746932D02*
X0354251D01*
X0289267Y0758931D02*
X0354251D01*
X0289267Y0770931D02*
X0354251D01*
X0289267Y0782932D02*
X0354251D01*
X0289267Y0794932D02*
X0354251D01*
X0289267Y0806931D02*
X0354251D01*
X0289267Y0818931D02*
X0354251D01*
X0289267Y0830931D02*
X0354251D01*
Y0638932D02*
Y0854932D01*
Y0638932D02*
X0411237D01*
X0354251Y0650932D02*
X0411237D01*
X0354251Y0662931D02*
X0411237D01*
X0354251Y0674931D02*
X0411237D01*
X0354251Y0686932D02*
X0411237D01*
X0354251Y0698932D02*
X0411237D01*
X0354251Y0710931D02*
X0411237D01*
X0354251Y0722931D02*
X0411237D01*
X0354251Y0734932D02*
X0411237D01*
X0354251Y0746932D02*
X0411237D01*
X0354251Y0758931D02*
X0411237D01*
X0354251Y0770931D02*
X0411237D01*
X0354251Y0782932D02*
X0411237D01*
X0354251Y0794932D02*
X0411237D01*
X0354251Y0806931D02*
X0411237D01*
X0354251Y0818931D02*
X0411237D01*
X0354251Y0830931D02*
X0411237D01*
Y0638932D02*
Y0854932D01*
Y0638932D02*
X0498213D01*
X0411237Y0650932D02*
X0498213D01*
X0411237Y0662931D02*
X0498213D01*
X0411237Y0674931D02*
X0498213D01*
X0411237Y0686932D02*
X0498213D01*
X0411237Y0698932D02*
X0498213D01*
X0411237Y0710931D02*
X0498213D01*
X0411237Y0722931D02*
X0498213D01*
X0411237Y0734932D02*
X0498213D01*
X0411237Y0746932D02*
X0498213D01*
X0411237Y0758931D02*
X0498213D01*
X0411237Y0770931D02*
X0498213D01*
X0411237Y0782932D02*
X0498213D01*
X0411237Y0794932D02*
X0498213D01*
X0411237Y0806931D02*
X0498213D01*
X0411237Y0818931D02*
X0498213D01*
X0411237Y0830931D02*
X0498213D01*
Y0638932D02*
Y0854932D01*
M02*
