G04*
G04 #@! TF.GenerationSoftware,Altium Limited,Altium Designer,24.3.1 (35)*
G04*
G04 Layer_Physical_Order=3*
G04 Layer_Color=32768*
%FSAX25Y25*%
%MOIN*%
G70*
G04*
G04 #@! TF.SameCoordinates,9BAF8AC8-72E2-4161-A934-73288D8D8D4B*
G04*
G04*
G04 #@! TF.FilePolarity,Positive*
G04*
G01*
G75*
%ADD11C,0.01000*%
%ADD13C,0.00700*%
%ADD14C,0.00600*%
%ADD18C,0.00400*%
%ADD20C,0.00800*%
%ADD97C,0.01400*%
%ADD98C,0.01200*%
%ADD99C,0.01000*%
%ADD100C,0.01387*%
G36*
X0396421Y0287683D02*
X0396392Y0287707D01*
X0396352Y0287728D01*
X0396302Y0287748D01*
X0396242Y0287765D01*
X0396172Y0287780D01*
X0396002Y0287804D01*
X0395902Y0287812D01*
X0395673Y0287823D01*
X0396361Y0288693D01*
X0396388Y0288592D01*
X0396501Y0288265D01*
X0396530Y0288201D01*
X0396559Y0288145D01*
X0396589Y0288097D01*
X0396619Y0288056D01*
X0396649Y0288022D01*
X0396421Y0287683D01*
D02*
G37*
G36*
X0398274Y0301897D02*
X0398305Y0301870D01*
X0398346Y0301844D01*
X0398395Y0301819D01*
X0398454Y0301795D01*
X0398521Y0301771D01*
X0398681Y0301728D01*
X0398877Y0301687D01*
X0398988Y0301669D01*
X0398192Y0300896D01*
X0398176Y0301010D01*
X0398102Y0301374D01*
X0398081Y0301442D01*
X0398058Y0301500D01*
X0398035Y0301550D01*
X0398009Y0301590D01*
X0397983Y0301622D01*
X0398274Y0301897D01*
D02*
G37*
G36*
X0402183Y0303478D02*
X0402188Y0303469D01*
X0402182Y0303465D01*
X0402166Y0303465D01*
X0402138Y0303470D01*
X0402100Y0303478D01*
X0401921Y0303530D01*
X0401748Y0303586D01*
X0402644Y0304099D01*
X0402626Y0304019D01*
X0402571Y0303840D01*
X0402554Y0303801D01*
X0402536Y0303773D01*
X0402518Y0303754D01*
X0402500Y0303746D01*
X0402483Y0303748D01*
X0402465Y0303760D01*
X0402183Y0303478D01*
D02*
G37*
G36*
X0405609Y0303365D02*
X0405579Y0303392D01*
X0405542Y0303417D01*
X0405498Y0303440D01*
X0405448Y0303463D01*
X0405392Y0303484D01*
X0405329Y0303503D01*
X0405183Y0303538D01*
X0405012Y0303567D01*
X0405690Y0304245D01*
X0405704Y0304156D01*
X0405754Y0303928D01*
X0405773Y0303865D01*
X0405794Y0303809D01*
X0405817Y0303759D01*
X0405840Y0303715D01*
X0405865Y0303678D01*
X0405892Y0303648D01*
X0405609Y0303365D01*
D02*
G37*
G36*
X0398669Y0312995D02*
X0398568Y0312967D01*
X0398242Y0312854D01*
X0398178Y0312825D01*
X0398122Y0312795D01*
X0398074Y0312766D01*
X0398032Y0312736D01*
X0397999Y0312706D01*
X0397659Y0312932D01*
X0397683Y0312962D01*
X0397704Y0313002D01*
X0397723Y0313052D01*
X0397740Y0313111D01*
X0397755Y0313181D01*
X0397779Y0313351D01*
X0397787Y0313451D01*
X0397797Y0313681D01*
X0398669Y0312995D01*
D02*
G37*
G36*
X0402842Y0314098D02*
X0402813Y0314065D01*
X0402784Y0314024D01*
X0402757Y0313975D01*
X0402729Y0313918D01*
X0402702Y0313853D01*
X0402649Y0313700D01*
X0402604Y0313534D01*
X0402680Y0313187D01*
X0402703Y0313120D01*
X0402726Y0313061D01*
X0402751Y0313012D01*
X0402776Y0312971D01*
X0402803Y0312940D01*
X0402520Y0312657D01*
X0402488Y0312683D01*
X0402448Y0312709D01*
X0402398Y0312733D01*
X0402340Y0312757D01*
X0402272Y0312779D01*
X0402110Y0312821D01*
X0401912Y0312858D01*
X0401799Y0312875D01*
X0402464Y0313539D01*
X0401855Y0314254D01*
X0401973Y0314263D01*
X0402348Y0314314D01*
X0402417Y0314332D01*
X0402477Y0314351D01*
X0402527Y0314372D01*
X0402567Y0314395D01*
X0402597Y0314419D01*
X0402842Y0314098D01*
D02*
G37*
G36*
X0408469Y0304939D02*
X0408471Y0304893D01*
X0408475Y0304845D01*
X0408483Y0304794D01*
X0408508Y0304685D01*
X0408526Y0304627D01*
X0408570Y0304504D01*
X0408626Y0304372D01*
X0407699Y0304586D01*
X0407769Y0304644D01*
X0408054Y0304910D01*
X0408066Y0304927D01*
X0408069Y0304940D01*
X0408469Y0304939D01*
D02*
G37*
G36*
X0394950Y0318501D02*
X0394973Y0318531D01*
X0394995Y0318571D01*
X0395014Y0318621D01*
X0395031Y0318681D01*
X0395046Y0318751D01*
X0395070Y0318920D01*
X0395078Y0319020D01*
X0395089Y0319250D01*
X0395959Y0318562D01*
X0395859Y0318534D01*
X0395531Y0318422D01*
X0395468Y0318393D01*
X0395412Y0318363D01*
X0395363Y0318334D01*
X0395322Y0318304D01*
X0395288Y0318274D01*
X0394950Y0318501D01*
D02*
G37*
G36*
X0394965Y0322798D02*
X0394947Y0322802D01*
X0394935Y0322815D01*
X0394930Y0322836D01*
X0394931Y0322865D01*
X0394938Y0322903D01*
X0394953Y0322949D01*
X0394973Y0323004D01*
X0395033Y0323138D01*
X0395073Y0323218D01*
X0395482Y0322240D01*
X0394965Y0322398D01*
Y0322798D01*
D02*
G37*
G36*
X0396759Y0325909D02*
X0396717Y0325905D01*
X0396669Y0325896D01*
X0396616Y0325879D01*
X0396557Y0325856D01*
X0396493Y0325826D01*
X0396348Y0325746D01*
X0396181Y0325640D01*
X0396089Y0325577D01*
X0396125Y0326686D01*
X0396216Y0326614D01*
X0396524Y0326403D01*
X0396586Y0326369D01*
X0396643Y0326343D01*
X0396695Y0326324D01*
X0396741Y0326312D01*
X0396781Y0326309D01*
X0396759Y0325909D01*
D02*
G37*
G36*
X0392852Y0331606D02*
X0392848Y0331647D01*
X0392837Y0331693D01*
X0392820Y0331746D01*
X0392795Y0331804D01*
X0392763Y0331867D01*
X0392678Y0332011D01*
X0392564Y0332178D01*
X0392497Y0332269D01*
X0393606D01*
X0393539Y0332178D01*
X0393340Y0331867D01*
X0393308Y0331804D01*
X0393284Y0331746D01*
X0393266Y0331693D01*
X0393255Y0331647D01*
X0393252Y0331606D01*
X0392852D01*
D02*
G37*
G36*
X0398932Y0384237D02*
X0398820Y0384220D01*
X0398460Y0384141D01*
X0398392Y0384119D01*
X0398334Y0384095D01*
X0398284Y0384071D01*
X0398244Y0384045D01*
X0398212Y0384019D01*
X0397929Y0384302D01*
X0397956Y0384333D01*
X0397981Y0384374D01*
X0398006Y0384423D01*
X0398029Y0384482D01*
X0398052Y0384549D01*
X0398093Y0384711D01*
X0398131Y0384909D01*
X0398148Y0385022D01*
X0398932Y0384237D01*
D02*
G37*
G36*
X0402061Y0384187D02*
X0401949Y0384170D01*
X0401589Y0384091D01*
X0401521Y0384069D01*
X0401463Y0384045D01*
X0401413Y0384021D01*
X0401372Y0383995D01*
X0401341Y0383969D01*
X0401058Y0384251D01*
X0401085Y0384283D01*
X0401110Y0384324D01*
X0401135Y0384373D01*
X0401158Y0384432D01*
X0401181Y0384499D01*
X0401222Y0384661D01*
X0401260Y0384859D01*
X0401277Y0384972D01*
X0402061Y0384187D01*
D02*
G37*
G36*
X0397825Y0373201D02*
X0397865Y0373175D01*
X0397915Y0373151D01*
X0397973Y0373128D01*
X0398041Y0373105D01*
X0398203Y0373063D01*
X0398401Y0373026D01*
X0398513Y0373009D01*
X0397729Y0372224D01*
X0397712Y0372337D01*
X0397633Y0372697D01*
X0397610Y0372764D01*
X0397587Y0372823D01*
X0397562Y0372872D01*
X0397537Y0372913D01*
X0397510Y0372945D01*
X0397793Y0373228D01*
X0397825Y0373201D01*
D02*
G37*
G54D11*
X0497200Y0080717D02*
Y0101050D01*
X0413200Y0080717D02*
Y0101050D01*
X0040000Y0080717D02*
X0700200D01*
X0040000Y0060383D02*
X0700000D01*
X0040000Y0040050D02*
X0440500D01*
X0040050Y0101050D02*
X0700200D01*
X0040050Y0040050D02*
Y0101050D01*
Y0040050D02*
X0197600D01*
X0040000D02*
Y0101050D01*
X0286500Y0040050D02*
Y0101050D01*
X0700200Y0040050D02*
Y0101050D01*
X0440500Y0040050D02*
X0700200D01*
X0559400Y0039400D02*
Y0059683D01*
G54D13*
X0402533Y0175399D02*
X0401320Y0176613D01*
X0398893D01*
X0397679Y0175399D01*
Y0174186D01*
X0398893Y0172972D01*
X0401320D01*
X0402533Y0171758D01*
Y0170545D01*
X0401320Y0169332D01*
X0398893D01*
X0397679Y0170545D01*
X0404961Y0169332D02*
X0407388D01*
X0406174D01*
Y0174186D01*
X0404961D01*
X0413455Y0166904D02*
X0414669D01*
X0415882Y0168118D01*
Y0174186D01*
X0412242D01*
X0411028Y0172972D01*
Y0170545D01*
X0412242Y0169332D01*
X0415882D01*
X0418309D02*
Y0174186D01*
X0421950D01*
X0423163Y0172972D01*
Y0169332D01*
X0426804Y0174186D02*
X0429231D01*
X0430444Y0172972D01*
Y0169332D01*
X0426804D01*
X0425590Y0170545D01*
X0426804Y0171758D01*
X0430444D01*
X0432871Y0169332D02*
X0435298D01*
X0434085D01*
Y0176613D01*
X0432871D01*
X0446220D02*
Y0169332D01*
X0451074D01*
X0454715Y0174186D02*
X0457142D01*
X0458355Y0172972D01*
Y0169332D01*
X0454715D01*
X0453501Y0170545D01*
X0454715Y0171758D01*
X0458355D01*
X0460782Y0174186D02*
Y0170545D01*
X0461996Y0169332D01*
X0465636D01*
Y0168118D01*
X0464423Y0166904D01*
X0463209D01*
X0465636Y0169332D02*
Y0174186D01*
X0471704Y0169332D02*
X0469277D01*
X0468063Y0170545D01*
Y0172972D01*
X0469277Y0174186D01*
X0471704D01*
X0472918Y0172972D01*
Y0171758D01*
X0468063D01*
X0475345Y0174186D02*
Y0169332D01*
Y0171758D01*
X0476558Y0172972D01*
X0477772Y0174186D01*
X0478985D01*
X0489907Y0169332D02*
X0492334D01*
X0491120D01*
Y0176613D01*
X0489907Y0175399D01*
G54D14*
X0411540Y0356486D02*
Y0356526D01*
X0411432Y0319724D02*
Y0319725D01*
Y0362810D02*
Y0362832D01*
Y0322866D02*
X0411606D01*
X0401813Y0384723D02*
X0401964Y0384874D01*
X0414906Y0394221D02*
X0414910Y0394225D01*
G54D18*
X0346570Y0335690D02*
X0347432Y0334827D01*
X0346570Y0335690D02*
Y0335841D01*
X0346418D02*
X0346570D01*
X0346564Y0338454D02*
X0347766Y0337252D01*
X0346452Y0340898D02*
X0347645Y0339705D01*
X0346497Y0343455D02*
X0347773Y0344731D01*
X0346452Y0345922D02*
X0347761Y0347232D01*
X0346452Y0348423D02*
X0347816Y0349786D01*
X0346441Y0350912D02*
X0347760D01*
X0349180Y0352331D01*
X0346452Y0353401D02*
X0347908Y0354858D01*
X0346421Y0356056D02*
X0346509D01*
X0347735Y0357282D01*
X0346441Y0358470D02*
X0347728Y0359757D01*
X0346441Y0360903D02*
X0346551D01*
Y0361013D01*
X0347796Y0362258D01*
X0346429Y0363493D02*
X0347668Y0364732D01*
X0356048D01*
X0346485Y0365848D02*
X0347896Y0367259D01*
X0355506D01*
X0346359Y0368546D02*
X0347513Y0369699D01*
X0355247D01*
X0346372Y0370996D02*
X0347617Y0372241D01*
X0355366D01*
X0346329Y0373395D02*
X0347600Y0374666D01*
X0354514D01*
X0346340Y0375872D02*
Y0376136D01*
X0347376Y0377172D01*
X0354320D01*
X0346358Y0378453D02*
X0348101D01*
X0346343Y0380939D02*
X0348187D01*
X0346365Y0325932D02*
X0347595Y0324702D01*
X0346657Y0328314D02*
X0347691Y0327281D01*
X0346497Y0328314D02*
X0346657D01*
X0346497D02*
Y0328474D01*
X0346463Y0330874D02*
X0347559Y0329778D01*
X0346430Y0333363D02*
X0347541Y0332252D01*
X0346481Y0305848D02*
X0348169D01*
X0346617Y0303272D02*
X0347068D01*
X0346426Y0303463D02*
X0346617Y0303272D01*
X0347618Y0307168D02*
X0356212D01*
X0346423Y0308363D02*
X0347618Y0307168D01*
X0347625Y0309694D02*
X0356567D01*
X0346500Y0310820D02*
X0347625Y0309694D01*
X0346438Y0310820D02*
X0346500D01*
X0347699Y0312178D02*
X0357033D01*
X0346407Y0313470D02*
X0347699Y0312178D01*
X0347570Y0314662D02*
X0356988D01*
X0346363Y0315869D02*
X0347570Y0314662D01*
X0347703Y0317231D02*
X0357267D01*
X0346559Y0318375D02*
X0347703Y0317231D01*
X0346436Y0318375D02*
X0346559D01*
X0346436D02*
Y0318499D01*
X0346484Y0320835D02*
X0347595Y0319724D01*
X0346484Y0320835D02*
Y0320927D01*
X0346392D02*
X0346484D01*
X0346378Y0323413D02*
X0347596Y0322194D01*
X0475618Y0398935D02*
X0496793D01*
X0516998Y0274050D02*
Y0378730D01*
X0496793Y0398935D02*
X0516998Y0378730D01*
X0451014Y0323763D02*
X0459922D01*
X0445457Y0318206D02*
X0451014Y0323763D01*
X0459922D02*
X0460827Y0322858D01*
X0465787Y0317789D02*
X0467505Y0316070D01*
X0462913Y0317789D02*
X0465787D01*
X0462170Y0318531D02*
X0462913Y0317789D01*
X0460663Y0324953D02*
X0462170Y0323445D01*
X0460600Y0324953D02*
X0460663D01*
X0453822Y0397398D02*
X0459575Y0391645D01*
X0452710Y0398510D02*
X0453822Y0397398D01*
Y0396868D02*
Y0397398D01*
X0448282Y0391328D02*
X0453822Y0396868D01*
X0468435Y0316850D02*
X0469489Y0317903D01*
X0468395Y0316850D02*
X0468435D01*
X0449452Y0337330D02*
Y0353980D01*
X0442173Y0330051D02*
X0449452Y0337330D01*
X0442173Y0316322D02*
Y0330051D01*
X0443065Y0315714D02*
Y0318333D01*
X0453905Y0329172D02*
Y0333560D01*
X0443065Y0318333D02*
X0453905Y0329172D01*
X0434356Y0285708D02*
X0453489Y0304841D01*
Y0313119D01*
X0456827Y0316458D01*
X0437173Y0284574D02*
X0456313Y0303713D01*
Y0313663D01*
X0458123Y0315473D01*
X0456827Y0316458D02*
X0458370D01*
X0458123Y0315473D02*
X0459272D01*
X0470499Y0319200D02*
X0471609D01*
X0471799Y0319010D01*
X0475844D01*
X0482483Y0325649D01*
X0473410Y0394673D02*
X0483822Y0384261D01*
X0473490Y0315235D02*
X0483822Y0325568D01*
Y0384261D01*
X0481835Y0333752D02*
X0482483Y0333105D01*
Y0325649D02*
Y0333105D01*
X0458422Y0395909D02*
X0461090D01*
X0467573Y0389426D01*
X0455661Y0398670D02*
X0458422Y0395909D01*
X0449452Y0353980D02*
X0455296Y0359824D01*
X0469489Y0321912D02*
X0470093Y0322516D01*
X0469489Y0317903D02*
Y0321912D01*
X0426385Y0277161D02*
X0433798Y0284574D01*
X0437173D01*
X0395773Y0267206D02*
X0427936D01*
X0459648Y0298917D01*
Y0312150D01*
X0439352Y0312001D02*
X0443065Y0315714D01*
X0441092Y0315241D02*
X0442173Y0316322D01*
X0362654Y0357282D02*
X0374420Y0369049D01*
X0383331D01*
X0347735Y0357282D02*
X0362654D01*
X0419162Y0408532D02*
X0425804Y0401890D01*
Y0386721D02*
Y0401890D01*
X0412156Y0408532D02*
X0419162D01*
X0411078Y0409610D02*
X0412156Y0408532D01*
X0403861Y0420325D02*
Y0423160D01*
Y0420325D02*
X0405197Y0418989D01*
X0416727D01*
X0405601Y0422514D02*
X0405883Y0422231D01*
X0441964D01*
X0452710Y0411485D01*
X0405384Y0422514D02*
X0405601D01*
X0405308Y0424054D02*
X0405461Y0424207D01*
X0404755Y0424054D02*
X0405308D01*
X0403861Y0423160D02*
X0404755Y0424054D01*
X0416727Y0418989D02*
X0448838Y0386879D01*
X0445591Y0392079D02*
Y0414680D01*
Y0392079D02*
X0452784Y0384886D01*
X0467947D01*
X0510755Y0310569D02*
Y0371942D01*
X0504306Y0304120D02*
X0510755Y0310569D01*
X0473951Y0304120D02*
X0504306D01*
X0506078Y0376620D02*
X0510755Y0371942D01*
X0466011Y0312000D02*
X0466071D01*
X0503184Y0376620D02*
X0506078D01*
X0501084Y0374520D02*
X0503184Y0376620D01*
X0466071Y0312000D02*
X0473951Y0304120D01*
X0466011Y0312000D02*
Y0312059D01*
X0501084Y0374356D02*
Y0374520D01*
Y0374356D02*
X0501958Y0373482D01*
Y0371809D02*
Y0373482D01*
X0502974Y0374443D02*
Y0374471D01*
Y0374443D02*
X0503808Y0373609D01*
Y0368914D02*
Y0373609D01*
X0501952Y0367058D02*
X0503808Y0368914D01*
X0474611Y0342500D02*
X0481299Y0349188D01*
X0481207Y0382334D02*
X0481299Y0382241D01*
Y0349188D02*
Y0382241D01*
X0467573Y0389426D02*
X0469163D01*
X0463291Y0391645D02*
X0469755Y0385182D01*
X0459575Y0391645D02*
X0463291D01*
X0426255Y0381154D02*
X0426650D01*
X0423969Y0381060D02*
X0426160D01*
X0426255Y0381154D01*
X0422546Y0382483D02*
X0423969Y0381060D01*
X0426650Y0381154D02*
X0426794Y0381299D01*
X0422546Y0382483D02*
Y0388729D01*
X0423535Y0383919D02*
X0425015Y0382439D01*
X0423535Y0383919D02*
Y0388729D01*
X0424490Y0385783D02*
X0426862Y0383411D01*
X0424490Y0385783D02*
Y0388729D01*
X0426862Y0383224D02*
Y0383411D01*
X0422961Y0359707D02*
X0431213D01*
X0419357Y0356102D02*
X0422961Y0359707D01*
X0431213D02*
X0431871Y0359049D01*
X0425235Y0352797D02*
X0427328Y0354889D01*
X0429771D01*
X0414183Y0352797D02*
X0425235D01*
X0426211Y0370094D02*
X0426629Y0369677D01*
X0431172D02*
X0432006Y0368843D01*
X0426629Y0369677D02*
X0431172D01*
X0431871Y0359049D02*
X0432036D01*
X0414396Y0356102D02*
X0419357D01*
X0418247Y0358148D02*
X0421954Y0361855D01*
X0431212D01*
X0432036Y0361031D01*
X0414404Y0358148D02*
X0418247D01*
X0430984Y0367970D02*
X0432055Y0366899D01*
X0415858Y0367970D02*
X0430984D01*
X0414205Y0369624D02*
X0415858Y0367970D01*
X0416941Y0370094D02*
X0426211D01*
X0424015Y0374091D02*
X0427100Y0371007D01*
X0420010Y0374091D02*
X0424015D01*
X0414493Y0366307D02*
X0414709D01*
X0415093Y0365923D01*
X0431069D02*
X0432026Y0364966D01*
X0415093Y0365923D02*
X0431069D01*
X0414050Y0363123D02*
X0414812Y0363884D01*
X0431174D02*
X0432045Y0363013D01*
X0414812Y0363884D02*
X0431174D01*
X0414470Y0349060D02*
X0414583Y0349172D01*
X0426075D02*
X0432006Y0355104D01*
X0414583Y0349172D02*
X0426075D01*
X0429771Y0354889D02*
X0431987Y0357106D01*
X0414280Y0372755D02*
X0416941Y0370094D01*
X0411557Y0382544D02*
X0420010Y0374091D01*
X0410958Y0304483D02*
X0420909D01*
X0428427Y0312001D01*
X0409101Y0302626D02*
X0410958Y0304483D01*
X0428427Y0312001D02*
X0439352D01*
X0464173Y0343829D02*
Y0347747D01*
X0453905Y0333560D02*
X0464173Y0343829D01*
X0475005Y0267155D02*
X0478229Y0263931D01*
X0506880D01*
X0516998Y0274050D01*
X0473410Y0412505D02*
X0475534Y0414628D01*
X0473410Y0394673D02*
Y0412505D01*
X0511645Y0346943D02*
X0514039Y0349337D01*
X0511645Y0309597D02*
Y0346943D01*
X0503745Y0301697D02*
X0511645Y0309597D01*
X0472228Y0301697D02*
X0503745D01*
X0461569Y0312356D02*
X0472228Y0301697D01*
X0475257Y0309160D02*
Y0309205D01*
X0471171Y0313291D02*
X0475257Y0309205D01*
X0468759Y0313291D02*
X0471171D01*
X0509672Y0311028D02*
Y0364891D01*
X0505012Y0369551D02*
X0509672Y0364891D01*
X0505012Y0369551D02*
Y0374454D01*
X0452710Y0398510D02*
Y0411485D01*
X0448838Y0384219D02*
Y0386879D01*
X0448824Y0384205D02*
X0448838Y0384219D01*
X0469755Y0372916D02*
Y0385182D01*
X0467947Y0384886D02*
X0467965Y0384904D01*
X0458370Y0316458D02*
X0460811Y0318898D01*
X0459272Y0315473D02*
X0460954Y0317154D01*
X0453481Y0319115D02*
X0458328D01*
X0447856Y0313489D02*
X0453481Y0319115D01*
X0447856Y0301020D02*
Y0313489D01*
X0453041Y0320161D02*
X0456423D01*
X0446983Y0314103D02*
X0453041Y0320161D01*
X0446983Y0301959D02*
Y0314103D01*
X0459648Y0312150D02*
X0459814Y0312316D01*
X0455296Y0359824D02*
X0473854D01*
X0457741Y0366809D02*
X0472026D01*
X0436577Y0350176D02*
X0441108D01*
X0457741Y0366809D01*
X0504376Y0305732D02*
X0509672Y0311028D01*
X0445457Y0305417D02*
Y0318206D01*
X0437534Y0294508D02*
X0446271Y0303244D01*
Y0317605D01*
X0451491Y0322826D01*
X0458515D01*
X0435637Y0295597D02*
X0445457Y0305417D01*
X0435683Y0290659D02*
X0446983Y0301959D01*
X0434202Y0287366D02*
X0447856Y0301020D01*
X0474883Y0305732D02*
X0504376D01*
X0467943Y0312672D02*
X0474883Y0305732D01*
X0467943Y0312672D02*
Y0312688D01*
X0466038Y0314592D02*
Y0315372D01*
Y0314592D02*
X0467943Y0312688D01*
X0465356Y0316044D02*
X0465366D01*
X0466038Y0315372D01*
X0475379Y0327797D02*
Y0340812D01*
X0470093Y0322516D02*
X0470097D01*
X0475379Y0327797D01*
X0378102Y0285277D02*
X0383613D01*
X0356212Y0307168D02*
X0378102Y0285277D01*
X0356567Y0309694D02*
X0376223Y0290039D01*
X0383738D01*
X0356988Y0314662D02*
X0373728Y0297921D01*
X0357033Y0312178D02*
X0374630Y0294581D01*
X0348169Y0305848D02*
X0371442Y0282575D01*
X0383390D01*
X0371121Y0279220D02*
X0383234D01*
X0347068Y0303272D02*
X0371121Y0279220D01*
X0374630Y0294581D02*
X0383355D01*
X0373728Y0297921D02*
X0383341D01*
X0357267Y0317231D02*
X0373742Y0300757D01*
X0383325D01*
X0376572Y0304129D02*
X0383161D01*
X0360977Y0319724D02*
X0376572Y0304129D01*
X0347595Y0319724D02*
X0360977D01*
X0364563Y0327281D02*
X0371950Y0319893D01*
X0347691Y0327281D02*
X0364563D01*
X0364107Y0324702D02*
X0371841Y0316968D01*
X0347595Y0324702D02*
X0364107D01*
X0363662Y0322194D02*
X0372295Y0313562D01*
X0347596Y0322194D02*
X0363662D01*
X0372295Y0313562D02*
X0383133D01*
X0371841Y0316968D02*
X0383503D01*
X0371950Y0319893D02*
X0383133D01*
X0371157Y0329778D02*
X0377941Y0322993D01*
X0347559Y0329778D02*
X0371157D01*
X0370627Y0332252D02*
X0376785Y0326094D01*
X0347541Y0332252D02*
X0370627D01*
X0370455Y0334827D02*
X0375889Y0329392D01*
X0347432Y0334827D02*
X0370455D01*
X0378560Y0337252D02*
X0383225Y0332587D01*
X0347766Y0337252D02*
X0378560D01*
X0347908Y0354858D02*
X0369249D01*
X0380094Y0365704D01*
X0371882Y0349786D02*
X0378511Y0356415D01*
X0347816Y0349786D02*
X0371882D01*
X0377941Y0322993D02*
X0383329D01*
X0376785Y0326094D02*
X0383194D01*
X0375889Y0329392D02*
X0383295D01*
X0347645Y0339705D02*
X0379114D01*
X0383232Y0335587D01*
X0347773Y0344731D02*
X0377715D01*
X0383192Y0350208D01*
X0347761Y0347232D02*
X0377309D01*
X0383192Y0353115D01*
X0378511Y0356415D02*
X0383220D01*
X0371750Y0352331D02*
X0378641Y0359222D01*
X0383233D01*
X0349180Y0352331D02*
X0371750D01*
X0380094Y0365704D02*
X0383658D01*
X0370222Y0402974D02*
X0379281D01*
X0348187Y0380939D02*
X0370222Y0402974D01*
X0370846Y0401198D02*
X0380812D01*
X0348101Y0378453D02*
X0370846Y0401198D01*
X0354320Y0377172D02*
X0376450Y0399302D01*
X0382089D01*
X0375409Y0395561D02*
X0381816D01*
X0354514Y0374666D02*
X0375409Y0395561D01*
X0379281Y0402974D02*
X0383146Y0406839D01*
X0381816Y0395561D02*
X0383517Y0397263D01*
X0356048Y0364732D02*
X0376440Y0385123D01*
X0383154Y0384741D02*
X0383370D01*
X0382771Y0385123D02*
X0383154Y0384741D01*
X0376440Y0385123D02*
X0382771D01*
X0383067Y0372265D02*
X0383284D01*
X0359340Y0359757D02*
X0371502Y0371919D01*
X0382721D02*
X0383067Y0372265D01*
X0371502Y0371919D02*
X0382721D01*
X0355247Y0369699D02*
X0376708Y0391160D01*
X0355506Y0367259D02*
X0376210Y0387963D01*
X0358906Y0362258D02*
X0372076Y0375429D01*
X0347796Y0362258D02*
X0358906D01*
X0347728Y0359757D02*
X0359340D01*
X0372076Y0375429D02*
X0383220D01*
X0376210Y0387963D02*
X0383345D01*
X0376708Y0391160D02*
X0383308D01*
X0376920Y0393795D02*
X0383694D01*
X0355366Y0372241D02*
X0376920Y0393795D01*
X0380812Y0401198D02*
X0383160Y0403546D01*
X0382089Y0399302D02*
X0383350Y0400563D01*
X0458515Y0322826D02*
X0458554Y0322787D01*
X0458935D02*
X0459050Y0322672D01*
X0458554Y0322787D02*
X0458935D01*
X0462887Y0324715D02*
X0462967Y0324636D01*
X0462887Y0324715D02*
Y0326695D01*
X0468893Y0315235D02*
X0473490D01*
X0468877Y0315252D02*
X0468893Y0315235D01*
X0464661Y0316739D02*
X0465356Y0316044D01*
X0464499Y0316739D02*
X0464661D01*
X0470357Y0321123D02*
X0470441Y0321206D01*
X0476045D01*
X0476203Y0321049D02*
X0476365D01*
X0476045Y0321206D02*
X0476203Y0321049D01*
X0460811Y0318898D02*
Y0319013D01*
X0458328Y0319115D02*
X0458436Y0319007D01*
X0458730D01*
X0458845Y0318892D01*
X0460827Y0322858D02*
X0460839D01*
X0462170Y0318531D02*
Y0323445D01*
X0460954Y0317154D02*
Y0317237D01*
X0461102Y0328481D02*
X0462887Y0326695D01*
X0467505Y0314545D02*
X0468759Y0313291D01*
X0394838Y0277161D02*
X0426385D01*
X0426239Y0285708D02*
X0434356D01*
X0397021Y0287366D02*
X0434202D01*
X0407286Y0290659D02*
X0435683D01*
X0467505Y0314545D02*
Y0316070D01*
X0400426Y0297520D02*
X0407286Y0290659D01*
X0430103Y0315241D02*
X0441092D01*
X0426847Y0311985D02*
X0430103Y0315241D01*
X0415314Y0311985D02*
X0426847D01*
X0427530Y0314375D02*
X0430144Y0316988D01*
X0412358Y0314375D02*
X0427530D01*
X0430144Y0316988D02*
X0440595D01*
X0427097Y0315394D02*
X0430716Y0319014D01*
X0422118Y0315394D02*
X0427097D01*
X0430716Y0319014D02*
X0440595D01*
X0408269Y0304940D02*
X0415314Y0311985D01*
X0408080Y0304122D02*
X0408269Y0304311D01*
Y0304940D01*
X0411606Y0322866D02*
X0413428Y0324688D01*
X0420241D01*
X0420976Y0325423D01*
X0420246Y0328233D02*
X0437410D01*
X0412991Y0327662D02*
X0419675D01*
X0411655Y0326325D02*
X0412991Y0327662D01*
X0419675D02*
X0420246Y0328233D01*
X0436948Y0330935D02*
X0440801Y0327082D01*
X0412979Y0330935D02*
X0436948D01*
X0413355Y0333912D02*
X0436089D01*
X0440816Y0329186D01*
X0413433Y0336912D02*
X0435163D01*
X0440942Y0331134D01*
X0473458Y0348779D02*
X0476804Y0352124D01*
Y0362031D01*
X0472026Y0366809D02*
X0476804Y0362031D01*
X0393735Y0269244D02*
X0395773Y0267206D01*
X0393735Y0269244D02*
Y0273427D01*
X0388346Y0278816D02*
X0393735Y0273427D01*
X0388346Y0278816D02*
Y0315979D01*
X0471327Y0342500D02*
X0474611D01*
X0461102Y0332274D02*
X0471327Y0342500D01*
X0461102Y0328481D02*
Y0332274D01*
X0466011Y0312059D02*
X0466053Y0312017D01*
X0395727Y0304160D02*
X0398880Y0301008D01*
X0395727Y0310718D02*
X0398491Y0313481D01*
X0395727Y0304160D02*
Y0310718D01*
X0399130Y0326109D02*
X0400426Y0324813D01*
Y0297520D02*
Y0324813D01*
X0421274Y0280744D02*
X0426239Y0285708D01*
X0464173Y0347747D02*
X0464221Y0347795D01*
X0414974Y0294508D02*
X0437534D01*
X0415394Y0295597D02*
X0435637D01*
X0395871Y0288516D02*
X0397021Y0287366D01*
X0413113Y0296369D02*
X0414974Y0294508D01*
X0409519Y0301472D02*
X0415394Y0295597D01*
X0398981Y0280744D02*
X0421274D01*
X0394327Y0285399D02*
X0398981Y0280744D01*
X0391297Y0280702D02*
X0394838Y0277161D01*
X0425223Y0378861D02*
X0425412Y0378672D01*
X0424367Y0378861D02*
X0425223D01*
X0421396Y0381832D02*
X0424367Y0378861D01*
X0411495Y0332418D02*
X0412979Y0330935D01*
X0437410Y0328233D02*
X0440666Y0324977D01*
X0438066Y0325423D02*
X0440580Y0322909D01*
X0420976Y0325423D02*
X0438066D01*
X0411432Y0319725D02*
X0413407Y0321700D01*
X0439681D02*
X0440384Y0320997D01*
X0413407Y0321700D02*
X0439681D01*
X0440384Y0320997D02*
X0440637D01*
X0423535Y0388729D02*
Y0394251D01*
X0415680Y0402106D02*
X0423535Y0394251D01*
X0424490Y0388729D02*
Y0396350D01*
X0415677Y0405162D02*
X0424490Y0396350D01*
X0427063Y0373736D02*
X0427083Y0373717D01*
X0419096Y0380713D02*
X0426073Y0373736D01*
X0427063D01*
X0419096Y0380713D02*
Y0383531D01*
X0424206Y0377107D02*
X0426261D01*
X0420246Y0381067D02*
X0424206Y0377107D01*
X0420246Y0381067D02*
Y0385662D01*
X0426261Y0377107D02*
X0426826Y0377672D01*
X0426989D01*
X0421396Y0381832D02*
Y0387864D01*
X0411557Y0382544D02*
Y0384774D01*
X0422546Y0388729D02*
Y0392483D01*
X0419222Y0318291D02*
X0422118Y0315394D01*
X0411622Y0313639D02*
X0412358Y0314375D01*
X0413127Y0318291D02*
X0419222D01*
X0411541Y0316704D02*
X0413127Y0318291D01*
X0391297Y0280702D02*
Y0305720D01*
X0394327Y0285399D02*
Y0317596D01*
X0413090Y0405162D02*
X0415677D01*
X0413083Y0402106D02*
X0415680D01*
X0409529Y0296369D02*
X0413113D01*
X0404086Y0301811D02*
Y0301811D01*
X0402324Y0303573D02*
X0404086Y0301811D01*
Y0301811D02*
X0409529Y0296369D01*
X0401966Y0303977D02*
X0402324Y0303619D01*
X0401966Y0303977D02*
Y0304244D01*
X0402324Y0303573D02*
Y0303619D01*
X0405096Y0304161D02*
X0406631Y0302626D01*
X0394327Y0317596D02*
X0395782Y0319051D01*
X0400421Y0383332D02*
X0401813Y0384723D01*
X0400421Y0370095D02*
Y0383332D01*
X0403840Y0315379D02*
Y0366677D01*
X0400421Y0370095D02*
X0403840Y0366677D01*
X0393052Y0326364D02*
X0394687Y0324729D01*
X0393052Y0326364D02*
Y0332686D01*
X0388346Y0315979D02*
X0394965Y0322598D01*
X0395423Y0322902D02*
X0395691D01*
X0395120Y0322598D02*
X0395423Y0322902D01*
X0394965Y0322598D02*
X0395120D01*
X0394687Y0324729D02*
X0396480D01*
X0395691Y0326145D02*
X0395727Y0326109D01*
X0399130D01*
X0396480Y0324729D02*
X0397365Y0323843D01*
X0401897Y0313562D02*
X0402023D01*
X0403840Y0315379D01*
X0398491Y0313481D02*
Y0313665D01*
X0406631Y0302626D02*
X0409101D01*
X0405869Y0301472D02*
X0409519D01*
X0403593Y0303749D02*
X0405869Y0301472D01*
X0395690Y0288516D02*
X0395871D01*
X0403593Y0303749D02*
Y0311866D01*
X0401897Y0313562D02*
X0403593Y0311866D01*
X0395782Y0319051D02*
Y0319233D01*
X0391297Y0305721D02*
Y0316436D01*
X0397365Y0322504D01*
Y0323843D01*
X0391297Y0305720D02*
X0391297Y0305721D01*
X0402099Y0301288D02*
Y0301489D01*
X0397439Y0373299D02*
X0398416Y0372322D01*
X0397439Y0373299D02*
Y0375952D01*
X0397458Y0375971D02*
Y0383547D01*
X0398835Y0384924D01*
X0411465Y0335801D02*
X0413355Y0333912D01*
X0411482Y0338863D02*
X0413433Y0336912D01*
X0411538Y0403651D02*
X0413083Y0402106D01*
X0411574Y0400540D02*
X0413058Y0399057D01*
X0415963Y0399066D02*
X0422546Y0392483D01*
X0413058Y0399057D02*
X0415265D01*
X0415274Y0399066D02*
X0415963D01*
X0416571Y0392689D02*
X0421396Y0387864D01*
X0413287Y0392689D02*
X0416571D01*
X0411627Y0394349D02*
X0413287Y0392689D01*
X0413140Y0389431D02*
X0416477D01*
X0420246Y0385662D01*
X0413010Y0386284D02*
X0416342D01*
X0419096Y0383531D01*
X0411401Y0387893D02*
X0413010Y0386284D01*
X0411389Y0391182D02*
X0413140Y0389431D01*
X0411475Y0406777D02*
X0413090Y0405162D01*
G54D20*
X0567400Y0087833D02*
Y0093831D01*
X0571399Y0087833D01*
Y0093831D01*
X0574398Y0087833D02*
X0576397D01*
X0577397Y0088833D01*
Y0090832D01*
X0576397Y0091832D01*
X0574398D01*
X0573398Y0090832D01*
Y0088833D01*
X0574398Y0087833D01*
X0580396Y0092832D02*
Y0091832D01*
X0579396D01*
X0581395D01*
X0580396D01*
Y0088833D01*
X0581395Y0087833D01*
X0590393D02*
X0592392D01*
X0591392D01*
Y0091832D01*
X0590393D01*
X0595391Y0087833D02*
Y0091832D01*
X0598390D01*
X0599390Y0090832D01*
Y0087833D01*
X0607387Y0091832D02*
X0609386Y0087833D01*
X0611386Y0091832D01*
X0616384Y0087833D02*
X0614385D01*
X0613385Y0088833D01*
Y0090832D01*
X0614385Y0091832D01*
X0616384D01*
X0617384Y0090832D01*
Y0089833D01*
X0613385D01*
X0619383Y0091832D02*
Y0087833D01*
Y0089833D01*
X0620383Y0090832D01*
X0621383Y0091832D01*
X0622382D01*
X0625381Y0087833D02*
X0628380D01*
X0629380Y0088833D01*
X0628380Y0089833D01*
X0626381D01*
X0625381Y0090832D01*
X0626381Y0091832D01*
X0629380D01*
X0631379Y0087833D02*
X0633379D01*
X0632379D01*
Y0091832D01*
X0631379D01*
X0637377Y0087833D02*
X0639377D01*
X0640376Y0088833D01*
Y0090832D01*
X0639377Y0091832D01*
X0637377D01*
X0636378Y0090832D01*
Y0088833D01*
X0637377Y0087833D01*
X0642376D02*
Y0091832D01*
X0645375D01*
X0646374Y0090832D01*
Y0087833D01*
X0658371Y0091832D02*
X0655372D01*
X0654372Y0090832D01*
Y0088833D01*
X0655372Y0087833D01*
X0658371D01*
X0661370D02*
X0663369D01*
X0664369Y0088833D01*
Y0090832D01*
X0663369Y0091832D01*
X0661370D01*
X0660370Y0090832D01*
Y0088833D01*
X0661370Y0087833D01*
X0666368D02*
Y0091832D01*
X0669367D01*
X0670367Y0090832D01*
Y0087833D01*
X0673366Y0092832D02*
Y0091832D01*
X0672366D01*
X0674365D01*
X0673366D01*
Y0088833D01*
X0674365Y0087833D01*
X0677364Y0091832D02*
Y0087833D01*
Y0089833D01*
X0678364Y0090832D01*
X0679364Y0091832D01*
X0680364D01*
X0684362Y0087833D02*
X0686362D01*
X0687361Y0088833D01*
Y0090832D01*
X0686362Y0091832D01*
X0684362D01*
X0683362Y0090832D01*
Y0088833D01*
X0684362Y0087833D01*
X0689361D02*
X0691360D01*
X0690360D01*
Y0093831D01*
X0689361D01*
X0520799Y0092832D02*
X0519799Y0093831D01*
X0517800D01*
X0516800Y0092832D01*
Y0091832D01*
X0517800Y0090832D01*
X0519799D01*
X0520799Y0089833D01*
Y0088833D01*
X0519799Y0087833D01*
X0517800D01*
X0516800Y0088833D01*
X0522798Y0093831D02*
Y0089833D01*
X0524797Y0087833D01*
X0526797Y0089833D01*
Y0093831D01*
X0528796Y0087833D02*
Y0093831D01*
X0532795Y0087833D01*
Y0093831D01*
X0540792Y0087833D02*
Y0093831D01*
X0543791D01*
X0544791Y0092832D01*
Y0090832D01*
X0543791Y0089833D01*
X0540792D01*
X0542792D02*
X0544791Y0087833D01*
X0550789Y0093831D02*
X0546790D01*
Y0087833D01*
X0550789D01*
X0546790Y0090832D02*
X0548790D01*
X0552788Y0093831D02*
Y0089833D01*
X0554788Y0087833D01*
X0556787Y0089833D01*
Y0093831D01*
X0558786Y0091832D02*
X0559786D01*
Y0090832D01*
X0558786D01*
Y0091832D01*
Y0088833D02*
X0559786D01*
Y0087833D01*
X0558786D01*
Y0088833D01*
X0433000Y0087833D02*
Y0093831D01*
X0435999D01*
X0436999Y0092832D01*
Y0090832D01*
X0435999Y0089833D01*
X0433000D01*
X0434999D02*
X0436999Y0087833D01*
X0442997Y0093831D02*
X0438998D01*
Y0087833D01*
X0442997D01*
X0438998Y0090832D02*
X0440997D01*
X0444996Y0093831D02*
Y0089833D01*
X0446995Y0087833D01*
X0448995Y0089833D01*
Y0093831D01*
X0450994Y0091832D02*
X0451994D01*
Y0090832D01*
X0450994D01*
Y0091832D01*
Y0088833D02*
X0451994D01*
Y0087833D01*
X0450994D01*
Y0088833D01*
X0126900Y0052965D02*
X0130899D01*
Y0051965D01*
X0126900Y0047966D01*
Y0046966D01*
X0132898D02*
X0134897D01*
X0133898D01*
Y0052965D01*
X0132898Y0051965D01*
X0137896D02*
X0138896Y0052965D01*
X0140895D01*
X0141895Y0051965D01*
Y0047966D01*
X0140895Y0046966D01*
X0138896D01*
X0137896Y0047966D01*
Y0051965D01*
X0143895D02*
X0144894Y0052965D01*
X0146894D01*
X0147893Y0051965D01*
Y0047966D01*
X0146894Y0046966D01*
X0144894D01*
X0143895Y0047966D01*
Y0051965D01*
X0149893Y0049966D02*
X0153891D01*
X0155891Y0051965D02*
X0156890Y0052965D01*
X0158890D01*
X0159889Y0051965D01*
Y0047966D01*
X0158890Y0046966D01*
X0156890D01*
X0155891Y0047966D01*
Y0051965D01*
X0161889D02*
X0162888Y0052965D01*
X0164888D01*
X0165887Y0051965D01*
Y0047966D01*
X0164888Y0046966D01*
X0162888D01*
X0161889Y0047966D01*
Y0051965D01*
X0167887D02*
X0168886Y0052965D01*
X0170886D01*
X0171885Y0051965D01*
Y0047966D01*
X0170886Y0046966D01*
X0168886D01*
X0167887Y0047966D01*
Y0051965D01*
X0173885D02*
X0174884Y0052965D01*
X0176884D01*
X0177884Y0051965D01*
Y0047966D01*
X0176884Y0046966D01*
X0174884D01*
X0173885Y0047966D01*
Y0051965D01*
X0179883D02*
X0180883Y0052965D01*
X0182882D01*
X0183882Y0051965D01*
Y0050965D01*
X0182882Y0049966D01*
X0181882D01*
X0182882D01*
X0183882Y0048966D01*
Y0047966D01*
X0182882Y0046966D01*
X0180883D01*
X0179883Y0047966D01*
X0191879Y0052965D02*
Y0047966D01*
X0192879Y0046966D01*
X0194878D01*
X0195878Y0047966D01*
Y0052965D01*
X0201876Y0051965D02*
X0200876Y0052965D01*
X0198877D01*
X0197877Y0051965D01*
Y0050965D01*
X0198877Y0049966D01*
X0200876D01*
X0201876Y0048966D01*
Y0047966D01*
X0200876Y0046966D01*
X0198877D01*
X0197877Y0047966D01*
X0203875Y0052965D02*
X0207874D01*
X0205874D01*
Y0046966D01*
X0209873Y0050965D02*
X0213872Y0046966D01*
X0211873Y0048966D01*
X0213872Y0050965D01*
X0209873Y0046966D01*
X0221869Y0052965D02*
Y0046966D01*
X0224868D01*
X0225868Y0047966D01*
Y0048966D01*
X0224868Y0049966D01*
X0221869D01*
X0224868D01*
X0225868Y0050965D01*
Y0051965D01*
X0224868Y0052965D01*
X0221869D01*
X0228867Y0046966D02*
X0230866D01*
X0231866Y0047966D01*
Y0049966D01*
X0230866Y0050965D01*
X0228867D01*
X0227867Y0049966D01*
Y0047966D01*
X0228867Y0046966D01*
X0234865Y0050965D02*
X0236864D01*
X0237864Y0049966D01*
Y0046966D01*
X0234865D01*
X0233865Y0047966D01*
X0234865Y0048966D01*
X0237864D01*
X0239863Y0050965D02*
Y0046966D01*
Y0048966D01*
X0240863Y0049966D01*
X0241863Y0050965D01*
X0242863D01*
X0249860Y0052965D02*
Y0046966D01*
X0246861D01*
X0245862Y0047966D01*
Y0049966D01*
X0246861Y0050965D01*
X0249860D01*
X0257858Y0052965D02*
Y0048966D01*
X0259857Y0046966D01*
X0261856Y0048966D01*
Y0052965D01*
X0263856Y0046966D02*
Y0047966D01*
X0264855D01*
Y0046966D01*
X0263856D01*
X0268854Y0051965D02*
X0269854Y0052965D01*
X0271853D01*
X0272853Y0051965D01*
Y0047966D01*
X0271853Y0046966D01*
X0269854D01*
X0268854Y0047966D01*
Y0051965D01*
X0274852Y0046966D02*
Y0047966D01*
X0275852D01*
Y0046966D01*
X0274852D01*
X0282850D02*
Y0052965D01*
X0279851Y0049966D01*
X0283849D01*
X0285849Y0046966D02*
Y0047966D01*
X0286848D01*
Y0046966D01*
X0285849D01*
X0290847D02*
X0292846D01*
X0291847D01*
Y0052965D01*
X0290847Y0051965D01*
X0295845Y0046966D02*
Y0047966D01*
X0296845D01*
Y0046966D01*
X0295845D01*
X0304842Y0051965D02*
X0303843Y0052965D01*
X0301843D01*
X0300844Y0051965D01*
Y0047966D01*
X0301843Y0046966D01*
X0303843D01*
X0304842Y0047966D01*
Y0049966D01*
X0302843D01*
X0310841Y0046966D02*
X0306842D01*
X0310841Y0050965D01*
Y0051965D01*
X0309841Y0052965D01*
X0307841D01*
X0306842Y0051965D01*
X0381150Y0046966D02*
X0383149D01*
X0382150D01*
Y0052965D01*
X0381150Y0051965D01*
X0386148Y0046966D02*
X0390147Y0050965D01*
X0396145Y0046966D02*
X0392146D01*
X0396145Y0050965D01*
Y0051965D01*
X0395146Y0052965D01*
X0393146D01*
X0392146Y0051965D01*
X0398145D02*
X0399144Y0052965D01*
X0401144D01*
X0402143Y0051965D01*
Y0050965D01*
X0401144Y0049966D01*
X0402143Y0048966D01*
Y0047966D01*
X0401144Y0046966D01*
X0399144D01*
X0398145Y0047966D01*
Y0048966D01*
X0399144Y0049966D01*
X0398145Y0050965D01*
Y0051965D01*
X0399144Y0049966D02*
X0401144D01*
X0404143Y0046966D02*
X0408141Y0050965D01*
X0414139Y0046966D02*
X0410141D01*
X0414139Y0050965D01*
Y0051965D01*
X0413140Y0052965D01*
X0411140D01*
X0410141Y0051965D01*
X0416139D02*
X0417138Y0052965D01*
X0419138D01*
X0420137Y0051965D01*
Y0047966D01*
X0419138Y0046966D01*
X0417138D01*
X0416139Y0047966D01*
Y0051965D01*
X0426135Y0046966D02*
X0422137D01*
X0426135Y0050965D01*
Y0051965D01*
X0425136Y0052965D01*
X0423136D01*
X0422137Y0051965D01*
X0432133Y0052965D02*
X0428135D01*
Y0049966D01*
X0430134Y0050965D01*
X0431134D01*
X0432133Y0049966D01*
Y0047966D01*
X0431134Y0046966D01*
X0429135D01*
X0428135Y0047966D01*
X0298199Y0051965D02*
X0297199Y0052965D01*
X0295200D01*
X0294200Y0051965D01*
Y0047966D01*
X0295200Y0046966D01*
X0297199D01*
X0298199Y0047966D01*
Y0049966D01*
X0296199D01*
X0304197Y0052965D02*
X0300198D01*
Y0046966D01*
X0304197D01*
X0300198Y0049966D02*
X0302197D01*
X0306196Y0046966D02*
Y0052965D01*
X0310195Y0046966D01*
Y0052965D01*
X0316193D02*
X0312194D01*
Y0046966D01*
X0316193D01*
X0312194Y0049966D02*
X0314194D01*
X0318192Y0046966D02*
Y0052965D01*
X0321191D01*
X0322191Y0051965D01*
Y0049966D01*
X0321191Y0048966D01*
X0318192D01*
X0320192D02*
X0322191Y0046966D01*
X0324190D02*
Y0050965D01*
X0326190Y0052965D01*
X0328189Y0050965D01*
Y0046966D01*
Y0049966D01*
X0324190D01*
X0330188Y0052965D02*
X0334187D01*
X0332188D01*
Y0046966D01*
X0340185Y0052965D02*
X0336186D01*
Y0046966D01*
X0340185D01*
X0336186Y0049966D02*
X0338186D01*
X0342184Y0052965D02*
Y0046966D01*
X0345183D01*
X0346183Y0047966D01*
Y0051965D01*
X0345183Y0052965D01*
X0342184D01*
X0372175Y0050965D02*
X0373175D01*
Y0049966D01*
X0372175D01*
Y0050965D01*
Y0047966D02*
X0373175D01*
Y0046966D01*
X0372175D01*
Y0047966D01*
X0041778Y0083375D02*
Y0087374D01*
X0043777Y0089373D01*
X0045777Y0087374D01*
Y0083375D01*
Y0086374D01*
X0041778D01*
X0047776Y0089373D02*
Y0083375D01*
X0051775D01*
X0053774Y0089373D02*
Y0083375D01*
X0057773D01*
X0065770D02*
Y0087374D01*
X0067769Y0089373D01*
X0069769Y0087374D01*
Y0083375D01*
Y0086374D01*
X0065770D01*
X0071768Y0083375D02*
Y0089373D01*
X0074767D01*
X0075767Y0088373D01*
Y0086374D01*
X0074767Y0085374D01*
X0071768D01*
X0073768D02*
X0075767Y0083375D01*
X0077766Y0089373D02*
X0081765D01*
X0079766D01*
Y0083375D01*
X0083764Y0089373D02*
Y0083375D01*
X0085764Y0085374D01*
X0087763Y0083375D01*
Y0089373D01*
X0092761D02*
X0090762D01*
X0089762Y0088373D01*
Y0084374D01*
X0090762Y0083375D01*
X0092761D01*
X0093761Y0084374D01*
Y0088373D01*
X0092761Y0089373D01*
X0095760Y0083375D02*
Y0089373D01*
X0098759D01*
X0099759Y0088373D01*
Y0086374D01*
X0098759Y0085374D01*
X0095760D01*
X0097760D02*
X0099759Y0083375D01*
X0101759Y0089373D02*
Y0083375D01*
Y0085374D01*
X0105757Y0089373D01*
X0102758Y0086374D01*
X0105757Y0083375D01*
X0113755Y0089373D02*
Y0085374D01*
X0115754Y0083375D01*
X0117753Y0085374D01*
Y0089373D01*
X0119753D02*
X0121752D01*
X0120752D01*
Y0083375D01*
X0119753D01*
X0121752D01*
X0128750Y0089373D02*
X0124751D01*
Y0083375D01*
X0128750D01*
X0124751Y0086374D02*
X0126750D01*
X0130749Y0089373D02*
Y0083375D01*
X0132748Y0085374D01*
X0134748Y0083375D01*
Y0089373D01*
X0140746D02*
X0136747D01*
Y0083375D01*
X0140746D01*
X0136747Y0086374D02*
X0138747D01*
X0142745Y0089373D02*
Y0083375D01*
X0145744D01*
X0146744Y0084374D01*
Y0088373D01*
X0145744Y0089373D01*
X0142745D01*
X0158740D02*
X0154741D01*
Y0086374D01*
X0156741D01*
X0154741D01*
Y0083375D01*
X0160739D02*
Y0089373D01*
X0163738D01*
X0164738Y0088373D01*
Y0086374D01*
X0163738Y0085374D01*
X0160739D01*
X0162739D02*
X0164738Y0083375D01*
X0169737Y0089373D02*
X0167737D01*
X0166737Y0088373D01*
Y0084374D01*
X0167737Y0083375D01*
X0169737D01*
X0170736Y0084374D01*
Y0088373D01*
X0169737Y0089373D01*
X0172736Y0083375D02*
Y0089373D01*
X0174735Y0087374D01*
X0176734Y0089373D01*
Y0083375D01*
X0184732Y0089373D02*
X0188730D01*
X0186731D01*
Y0083375D01*
X0193729Y0089373D02*
X0191729D01*
X0190730Y0088373D01*
Y0084374D01*
X0191729Y0083375D01*
X0193729D01*
X0194728Y0084374D01*
Y0088373D01*
X0193729Y0089373D01*
X0196728Y0083375D02*
Y0089373D01*
X0199727D01*
X0200727Y0088373D01*
Y0086374D01*
X0199727Y0085374D01*
X0196728D01*
X0212723Y0088373D02*
X0211723Y0089373D01*
X0209723D01*
X0208724Y0088373D01*
Y0087374D01*
X0209723Y0086374D01*
X0211723D01*
X0212723Y0085374D01*
Y0084374D01*
X0211723Y0083375D01*
X0209723D01*
X0208724Y0084374D01*
X0214722Y0089373D02*
X0216721D01*
X0215722D01*
Y0083375D01*
X0214722D01*
X0216721D01*
X0219720Y0089373D02*
Y0083375D01*
X0222719D01*
X0223719Y0084374D01*
Y0088373D01*
X0222719Y0089373D01*
X0219720D01*
X0229717D02*
X0225718D01*
Y0083375D01*
X0229717D01*
X0225718Y0086374D02*
X0227718D01*
X0462150Y0092832D02*
X0463150Y0093831D01*
X0465149D01*
X0466149Y0092832D01*
Y0088833D01*
X0465149Y0087833D01*
X0463150D01*
X0462150Y0088833D01*
Y0092832D01*
X0348550Y0093831D02*
X0352549D01*
Y0092832D01*
X0348550Y0088833D01*
Y0087833D01*
X0354548D02*
X0356547D01*
X0355548D01*
Y0093831D01*
X0354548Y0092832D01*
X0359546D02*
X0360546Y0093831D01*
X0362545D01*
X0363545Y0092832D01*
Y0088833D01*
X0362545Y0087833D01*
X0360546D01*
X0359546Y0088833D01*
Y0092832D01*
X0365545D02*
X0366544Y0093831D01*
X0368544D01*
X0369543Y0092832D01*
Y0088833D01*
X0368544Y0087833D01*
X0366544D01*
X0365545Y0088833D01*
Y0092832D01*
X0371543Y0090832D02*
X0375541D01*
X0377541Y0092832D02*
X0378540Y0093831D01*
X0380540D01*
X0381539Y0092832D01*
Y0088833D01*
X0380540Y0087833D01*
X0378540D01*
X0377541Y0088833D01*
Y0092832D01*
X0383539D02*
X0384538Y0093831D01*
X0386538D01*
X0387537Y0092832D01*
Y0088833D01*
X0386538Y0087833D01*
X0384538D01*
X0383539Y0088833D01*
Y0092832D01*
X0389537D02*
X0390536Y0093831D01*
X0392536D01*
X0393535Y0092832D01*
Y0088833D01*
X0392536Y0087833D01*
X0390536D01*
X0389537Y0088833D01*
Y0092832D01*
X0395535D02*
X0396534Y0093831D01*
X0398534D01*
X0399534Y0092832D01*
Y0088833D01*
X0398534Y0087833D01*
X0396534D01*
X0395535Y0088833D01*
Y0092832D01*
X0401533D02*
X0402532Y0093831D01*
X0404532D01*
X0405532Y0092832D01*
Y0091832D01*
X0404532Y0090832D01*
X0403532D01*
X0404532D01*
X0405532Y0089833D01*
Y0088833D01*
X0404532Y0087833D01*
X0402532D01*
X0401533Y0088833D01*
X0294000Y0093831D02*
Y0087833D01*
X0296999D01*
X0297999Y0088833D01*
Y0089833D01*
X0296999Y0090832D01*
X0294000D01*
X0296999D01*
X0297999Y0091832D01*
Y0092832D01*
X0296999Y0093831D01*
X0294000D01*
X0302997D02*
X0300998D01*
X0299998Y0092832D01*
Y0088833D01*
X0300998Y0087833D01*
X0302997D01*
X0303997Y0088833D01*
Y0092832D01*
X0302997Y0093831D01*
X0305996Y0087833D02*
Y0091832D01*
X0307996Y0093831D01*
X0309995Y0091832D01*
Y0087833D01*
Y0090832D01*
X0305996D01*
X0311994Y0087833D02*
Y0093831D01*
X0314993D01*
X0315993Y0092832D01*
Y0090832D01*
X0314993Y0089833D01*
X0311994D01*
X0313994D02*
X0315993Y0087833D01*
X0317992Y0093831D02*
Y0087833D01*
X0320991D01*
X0321991Y0088833D01*
Y0092832D01*
X0320991Y0093831D01*
X0317992D01*
X0330988Y0087833D02*
Y0093831D01*
X0332987D02*
Y0087833D01*
X0329988Y0091832D02*
X0332987D01*
X0333987D01*
X0329988Y0089833D02*
X0333987D01*
X0335986Y0091832D02*
X0336986D01*
Y0090832D01*
X0335986D01*
Y0091832D01*
Y0088833D02*
X0336986D01*
Y0087833D01*
X0335986D01*
Y0088833D01*
X0046350Y0073549D02*
Y0067551D01*
X0050349D01*
X0052348D02*
Y0071549D01*
X0054347Y0073549D01*
X0056347Y0071549D01*
Y0067551D01*
Y0070550D01*
X0052348D01*
X0058346Y0073549D02*
Y0072549D01*
X0060346Y0070550D01*
X0062345Y0072549D01*
Y0073549D01*
X0060346Y0070550D02*
Y0067551D01*
X0068343Y0073549D02*
X0064344D01*
Y0067551D01*
X0068343D01*
X0064344Y0070550D02*
X0066343D01*
X0070342Y0067551D02*
Y0073549D01*
X0073341D01*
X0074341Y0072549D01*
Y0070550D01*
X0073341Y0069550D01*
X0070342D01*
X0072342D02*
X0074341Y0067551D01*
X0082338D02*
Y0073549D01*
X0086337Y0067551D01*
Y0073549D01*
X0088336Y0067551D02*
Y0071549D01*
X0090336Y0073549D01*
X0092335Y0071549D01*
Y0067551D01*
Y0070550D01*
X0088336D01*
X0094335Y0067551D02*
Y0073549D01*
X0096334Y0071549D01*
X0098333Y0073549D01*
Y0067551D01*
X0104331Y0073549D02*
X0100332D01*
Y0067551D01*
X0104331D01*
X0100332Y0070550D02*
X0102332D01*
X0112329Y0069550D02*
X0116327D01*
X0112329Y0071549D02*
X0116327D01*
X0046350Y0046966D02*
Y0052965D01*
X0049349D01*
X0050349Y0051965D01*
Y0049966D01*
X0049349Y0048966D01*
X0046350D01*
X0052348Y0052965D02*
Y0046966D01*
X0056347D01*
X0061345Y0052965D02*
X0059346D01*
X0058346Y0051965D01*
Y0047966D01*
X0059346Y0046966D01*
X0061345D01*
X0062345Y0047966D01*
Y0051965D01*
X0061345Y0052965D01*
X0064344D02*
X0068343D01*
X0066343D01*
Y0046966D01*
X0076340D02*
Y0052965D01*
X0080339Y0046966D01*
Y0052965D01*
X0082338Y0046966D02*
Y0050965D01*
X0084338Y0052965D01*
X0086337Y0050965D01*
Y0046966D01*
Y0049966D01*
X0082338D01*
X0088336Y0046966D02*
Y0052965D01*
X0090336Y0050965D01*
X0092335Y0052965D01*
Y0046966D01*
X0098333Y0052965D02*
X0094335D01*
Y0046966D01*
X0098333D01*
X0094335Y0049966D02*
X0096334D01*
X0106331Y0048966D02*
X0110329D01*
X0106331Y0050965D02*
X0110329D01*
X0454050Y0046966D02*
X0456049D01*
X0455050D01*
Y0052965D01*
X0454050Y0051965D01*
X0463047Y0046966D02*
X0459048D01*
X0463047Y0050965D01*
Y0051965D01*
X0462047Y0052965D01*
X0460048D01*
X0459048Y0051965D01*
X0465046Y0050965D02*
X0466046D01*
Y0049966D01*
X0465046D01*
Y0050965D01*
Y0047966D02*
X0466046D01*
Y0046966D01*
X0465046D01*
Y0047966D01*
X0470045Y0051965D02*
X0471044Y0052965D01*
X0473044D01*
X0474044Y0051965D01*
Y0050965D01*
X0473044Y0049966D01*
X0472044D01*
X0473044D01*
X0474044Y0048966D01*
Y0047966D01*
X0473044Y0046966D01*
X0471044D01*
X0470045Y0047966D01*
X0476043Y0046966D02*
X0478042D01*
X0477043D01*
Y0052965D01*
X0476043Y0051965D01*
X0481041Y0050965D02*
X0482041D01*
Y0049966D01*
X0481041D01*
Y0050965D01*
Y0047966D02*
X0482041D01*
Y0046966D01*
X0481041D01*
Y0047966D01*
X0486040Y0051965D02*
X0487039Y0052965D01*
X0489039D01*
X0490038Y0051965D01*
Y0050965D01*
X0489039Y0049966D01*
X0488039D01*
X0489039D01*
X0490038Y0048966D01*
Y0047966D01*
X0489039Y0046966D01*
X0487039D01*
X0486040Y0047966D01*
X0492038Y0051965D02*
X0493037Y0052965D01*
X0495037D01*
X0496036Y0051965D01*
Y0050965D01*
X0495037Y0049966D01*
X0496036Y0048966D01*
Y0047966D01*
X0495037Y0046966D01*
X0493037D01*
X0492038Y0047966D01*
Y0048966D01*
X0493037Y0049966D01*
X0492038Y0050965D01*
Y0051965D01*
X0493037Y0049966D02*
X0495037D01*
X0504034Y0046966D02*
Y0052965D01*
X0507033D01*
X0508033Y0051965D01*
Y0049966D01*
X0507033Y0048966D01*
X0504034D01*
X0510032Y0046966D02*
Y0052965D01*
X0512031Y0050965D01*
X0514031Y0052965D01*
Y0046966D01*
X0604409Y0053922D02*
X0602409D01*
X0601409Y0052922D01*
Y0048923D01*
X0602409Y0047924D01*
X0604409D01*
X0605408Y0048923D01*
Y0052922D01*
X0604409Y0053922D01*
X0607408Y0045924D02*
Y0051922D01*
X0610407D01*
X0611406Y0050923D01*
Y0048923D01*
X0610407Y0047924D01*
X0607408D01*
X0616405D02*
X0614405D01*
X0613406Y0048923D01*
Y0050923D01*
X0614405Y0051922D01*
X0616405D01*
X0617404Y0050923D01*
Y0049923D01*
X0613406D01*
X0619404Y0047924D02*
Y0051922D01*
X0622403D01*
X0623402Y0050923D01*
Y0047924D01*
X0625402Y0053922D02*
Y0047924D01*
X0627401Y0049923D01*
X0629400Y0047924D01*
Y0053922D01*
X0632400Y0051922D02*
X0634399D01*
X0635398Y0050923D01*
Y0047924D01*
X0632400D01*
X0631400Y0048923D01*
X0632400Y0049923D01*
X0635398D01*
X0638398Y0052922D02*
Y0051922D01*
X0637398D01*
X0639397D01*
X0638398D01*
Y0048923D01*
X0639397Y0047924D01*
X0645395D02*
X0643396D01*
X0642396Y0048923D01*
Y0050923D01*
X0643396Y0051922D01*
X0645395D01*
X0646395Y0050923D01*
Y0049923D01*
X0642396D01*
X0648394Y0051922D02*
Y0047924D01*
Y0049923D01*
X0649394Y0050923D01*
X0650394Y0051922D01*
X0651393D01*
X0294000Y0073498D02*
X0297999D01*
X0295999D01*
Y0067500D01*
X0299998Y0073498D02*
X0301997D01*
X0300998D01*
Y0067500D01*
X0299998D01*
X0301997D01*
X0304996Y0073498D02*
Y0067500D01*
X0307996D01*
X0308995Y0068500D01*
Y0072498D01*
X0307996Y0073498D01*
X0304996D01*
X0317992Y0067500D02*
Y0073498D01*
X0319992D02*
Y0067500D01*
X0316993Y0071499D02*
X0319992D01*
X0320991D01*
X0316993Y0069499D02*
X0320991D01*
X0322991Y0071499D02*
X0323990D01*
Y0070499D01*
X0322991D01*
Y0071499D01*
Y0068500D02*
X0323990D01*
Y0067500D01*
X0322991D01*
Y0068500D01*
X0348550Y0067500D02*
Y0073498D01*
X0352549Y0067500D01*
Y0073498D01*
X0354548Y0067500D02*
X0358547Y0071499D01*
X0360546Y0067500D02*
Y0071499D01*
X0362545Y0073498D01*
X0364545Y0071499D01*
Y0067500D01*
Y0070499D01*
X0360546D01*
G54D97*
X0346363Y0315869D02*
D03*
X0346407Y0313470D02*
D03*
X0346423Y0308363D02*
D03*
X0346426Y0303463D02*
D03*
X0346438Y0310820D02*
D03*
X0346481Y0305848D02*
D03*
X0346365Y0325932D02*
D03*
X0346378Y0323413D02*
D03*
X0346392Y0320927D02*
D03*
X0346418Y0335841D02*
D03*
X0346430Y0333363D02*
D03*
X0346436Y0318499D02*
D03*
X0346452Y0340898D02*
D03*
X0346463Y0330874D02*
D03*
X0346497Y0343455D02*
D03*
X0346497Y0328474D02*
D03*
X0346564Y0338454D02*
D03*
X0346359Y0368546D02*
D03*
X0346372Y0370996D02*
D03*
X0346421Y0356056D02*
D03*
X0346429Y0363493D02*
D03*
X0346441Y0360903D02*
D03*
Y0358470D02*
D03*
X0346441Y0350912D02*
D03*
X0346452Y0345922D02*
D03*
X0346452Y0353401D02*
D03*
X0346452Y0348423D02*
D03*
X0346485Y0365848D02*
D03*
X0346329Y0373395D02*
D03*
X0346340Y0375872D02*
D03*
X0346343Y0380939D02*
D03*
X0346358Y0378453D02*
D03*
G54D98*
X0425804Y0386721D02*
D03*
X0411078Y0409610D02*
D03*
X0448282Y0391328D02*
D03*
X0502974Y0374471D02*
D03*
X0501084Y0374520D02*
D03*
X0481835Y0333752D02*
D03*
X0427100Y0371007D02*
D03*
X0432006Y0368843D02*
D03*
X0432026Y0364966D02*
D03*
X0432055Y0366899D02*
D03*
X0432036Y0361031D02*
D03*
X0432045Y0363013D02*
D03*
X0432036Y0359049D02*
D03*
X0431987Y0357106D02*
D03*
X0432006Y0355104D02*
D03*
X0414470Y0349060D02*
D03*
X0414183Y0352797D02*
D03*
X0414396Y0356102D02*
D03*
X0414404Y0358148D02*
D03*
X0414050Y0363123D02*
D03*
X0414493Y0366307D02*
D03*
X0414205Y0369624D02*
D03*
X0414280Y0372755D02*
D03*
X0405384Y0422514D02*
D03*
X0405461Y0424207D02*
D03*
X0475618Y0398935D02*
D03*
X0475005Y0267155D02*
D03*
X0475257Y0309160D02*
D03*
X0505012Y0374454D02*
D03*
X0448824Y0384205D02*
D03*
X0467965Y0384904D02*
D03*
X0469163Y0389426D02*
D03*
X0455661Y0398670D02*
D03*
X0411655Y0326325D02*
D03*
X0440801Y0327082D02*
D03*
X0440816Y0329186D02*
D03*
X0440942Y0331134D02*
D03*
X0411470Y0335699D02*
D03*
X0436577Y0350176D02*
D03*
X0481207Y0382334D02*
D03*
X0501952Y0367058D02*
D03*
X0501958Y0371809D02*
D03*
X0473854Y0359824D02*
D03*
X0464221Y0347795D02*
D03*
X0383613Y0285277D02*
D03*
X0425412Y0378672D02*
D03*
X0425031Y0382439D02*
D03*
X0426862Y0383224D02*
D03*
X0475534Y0414628D02*
D03*
X0473458Y0348779D02*
D03*
X0426794Y0381308D02*
D03*
X0426989Y0377672D02*
D03*
X0383738Y0290039D02*
D03*
X0427083Y0373717D02*
D03*
X0469755Y0372916D02*
D03*
X0445591Y0414680D02*
D03*
X0383325Y0300757D02*
D03*
X0383503Y0316968D02*
D03*
X0383220Y0375429D02*
D03*
X0383225Y0332587D02*
D03*
X0440595Y0316988D02*
D03*
Y0319014D02*
D03*
X0440637Y0320997D02*
D03*
X0440580Y0322909D02*
D03*
X0440666Y0324977D02*
D03*
X0405096Y0304161D02*
D03*
X0408080Y0304122D02*
D03*
X0475379Y0340812D02*
D03*
X0383220Y0356415D02*
D03*
X0383308Y0391160D02*
D03*
X0383331Y0369049D02*
D03*
X0383329Y0322993D02*
D03*
X0383233Y0359222D02*
D03*
X0411540Y0356486D02*
D03*
X0383161Y0304129D02*
D03*
X0514039Y0349337D02*
D03*
X0411432Y0362832D02*
D03*
Y0322866D02*
D03*
Y0319724D02*
D03*
X0383355Y0294581D02*
D03*
X0411622Y0313639D02*
D03*
X0411482Y0338863D02*
D03*
X0411541Y0316704D02*
D03*
X0411495Y0332418D02*
D03*
X0383694Y0393795D02*
D03*
X0411475Y0406777D02*
D03*
X0411538Y0403651D02*
D03*
X0411574Y0400540D02*
D03*
X0411627Y0394349D02*
D03*
X0414906Y0394221D02*
D03*
X0411401Y0387893D02*
D03*
X0411389Y0391182D02*
D03*
X0411557Y0384774D02*
D03*
X0383517Y0397263D02*
D03*
X0383194Y0326094D02*
D03*
X0383390Y0282575D02*
D03*
X0383341Y0297921D02*
D03*
X0383234Y0279220D02*
D03*
X0383232Y0335587D02*
D03*
X0383295Y0329392D02*
D03*
X0383133Y0313562D02*
D03*
X0383133Y0319893D02*
D03*
X0383192Y0350208D02*
D03*
Y0353115D02*
D03*
X0383658Y0365704D02*
D03*
X0383370Y0384741D02*
D03*
X0383345Y0387963D02*
D03*
X0383350Y0400563D02*
D03*
X0383160Y0403546D02*
D03*
X0383146Y0406839D02*
D03*
X0383284Y0372265D02*
D03*
G54D99*
X0460600Y0324953D02*
D03*
X0468395Y0316850D02*
D03*
X0470499Y0319200D02*
D03*
X0461569Y0312356D02*
D03*
X0459050Y0322672D02*
D03*
X0462967Y0324636D02*
D03*
X0468877Y0315252D02*
D03*
X0464499Y0316739D02*
D03*
X0470357Y0321123D02*
D03*
X0460811Y0319013D02*
D03*
X0458845Y0318892D02*
D03*
X0460839Y0322858D02*
D03*
X0460954Y0317237D02*
D03*
X0456423Y0320161D02*
D03*
X0476365Y0321049D02*
D03*
G54D100*
X0459814Y0312316D02*
D03*
X0466011Y0312059D02*
D03*
X0401966Y0304244D02*
D03*
X0395691Y0326145D02*
D03*
X0395782Y0319233D02*
D03*
X0398880Y0300983D02*
D03*
X0398491Y0313665D02*
D03*
X0393052Y0332686D02*
D03*
X0402099Y0301489D02*
D03*
X0395690Y0288516D02*
D03*
X0395691Y0322902D02*
D03*
X0398416Y0372322D02*
D03*
X0401897Y0313562D02*
D03*
X0401964Y0384874D02*
D03*
X0398835Y0384924D02*
D03*
M02*
