G04*
G04 #@! TF.GenerationSoftware,Altium Limited,Altium Designer,24.3.1 (35)*
G04*
G04 Layer_Color=8388736*
%FSAX25Y25*%
%MOIN*%
G70*
G04*
G04 #@! TF.SameCoordinates,8ECB5597-4BEE-4FB2-8F1C-C82D3C8D71A6*
G04*
G04*
G04 #@! TF.FilePolarity,Positive*
G04*
G01*
G75*
%ADD12C,0.00700*%
%ADD13C,0.01000*%
%ADD16C,0.00800*%
%ADD18C,0.00600*%
%ADD318R,0.37500X0.12500*%
%ADD319R,0.12500X0.12500*%
G54D12*
X0094150Y0112350D02*
Y0137350D01*
X0081650Y0112350D02*
Y0137350D01*
X0069150Y0112350D02*
Y0137350D01*
Y0124850D02*
X0169150D01*
X0069150Y0112350D02*
X0169150D01*
X0069150Y0137350D02*
X0169150D01*
G54D13*
Y0105850D02*
Y0107850D01*
X0069150Y0105850D02*
Y0107850D01*
X0163150Y0104850D02*
X0169150Y0106850D01*
X0163150Y0108850D02*
X0169150Y0106850D01*
X0069150D02*
X0075150Y0104850D01*
X0069150Y0106850D02*
X0075150Y0108850D01*
X0146742Y0106850D02*
X0169150D01*
X0069150D02*
X0091558D01*
X0559400Y0039400D02*
Y0059683D01*
X0440500Y0040050D02*
X0700200D01*
Y0101050D01*
X0286500Y0040050D02*
Y0101050D01*
X0040000Y0040050D02*
Y0101050D01*
X0040050Y0040050D02*
X0197600D01*
X0040050D02*
Y0101050D01*
Y0101050D02*
X0700200D01*
X0040000Y0040050D02*
X0440500D01*
X0040000Y0060383D02*
X0700000D01*
G54D16*
X0040000Y0080717D02*
X0700200D01*
G54D18*
X0882644Y0501181D02*
X0889534D01*
X0882644D02*
Y0505709D01*
X0889534Y0501181D02*
Y0505709D01*
X0882644D02*
X0889534D01*
X0895853Y0544500D02*
Y0551390D01*
X0891325Y0544500D02*
X0895853D01*
X0891325Y0551390D02*
X0895853D01*
X0891325Y0544500D02*
Y0551390D01*
X0891125Y0521000D02*
Y0527890D01*
X0895653D01*
X0891125Y0521000D02*
X0895653D01*
Y0527890D01*
X0890844Y0454109D02*
X0897734D01*
X0890844Y0449581D02*
Y0454109D01*
X0897734Y0449581D02*
Y0454109D01*
X0890844Y0449581D02*
X0897734D01*
X0859344Y0542109D02*
X0866234D01*
Y0537581D02*
Y0542109D01*
X0859344Y0537581D02*
Y0542109D01*
Y0537581D02*
X0866234D01*
X0092558Y0103251D02*
X0094558D01*
X0093558D01*
Y0109249D01*
X0092558Y0108249D01*
X0097557D02*
X0098557Y0109249D01*
X0100556D01*
X0101556Y0108249D01*
Y0104251D01*
X0100556Y0103251D01*
X0098557D01*
X0097557Y0104251D01*
Y0108249D01*
X0103555D02*
X0104554Y0109249D01*
X0106554D01*
X0107554Y0108249D01*
Y0104251D01*
X0106554Y0103251D01*
X0104554D01*
X0103555Y0104251D01*
Y0108249D01*
X0109553D02*
X0110553Y0109249D01*
X0112552D01*
X0113552Y0108249D01*
Y0104251D01*
X0112552Y0103251D01*
X0110553D01*
X0109553Y0104251D01*
Y0108249D01*
X0123548Y0103251D02*
X0121549Y0105250D01*
Y0107250D01*
X0123548Y0109249D01*
X0126547Y0103251D02*
Y0107250D01*
X0127547D01*
X0128547Y0106250D01*
Y0103251D01*
Y0106250D01*
X0129546Y0107250D01*
X0130546Y0106250D01*
Y0103251D01*
X0132545D02*
X0134545D01*
X0133545D01*
Y0107250D01*
X0132545D01*
X0137544Y0103251D02*
X0139543D01*
X0138543D01*
Y0109249D01*
X0137544D01*
X0142542Y0103251D02*
X0144542Y0105250D01*
Y0107250D01*
X0142542Y0109249D01*
X0046350Y0071049D02*
Y0067551D01*
X0048683D01*
X0049849D02*
Y0069883D01*
X0051015Y0071049D01*
X0052181Y0069883D01*
Y0067551D01*
Y0069300D01*
X0049849D01*
X0053348Y0071049D02*
Y0070466D01*
X0054514Y0069300D01*
X0055680Y0070466D01*
Y0071049D01*
X0054514Y0069300D02*
Y0067551D01*
X0059179Y0071049D02*
X0056847D01*
Y0067551D01*
X0059179D01*
X0056847Y0069300D02*
X0058013D01*
X0060346Y0067551D02*
Y0071049D01*
X0062095D01*
X0062678Y0070466D01*
Y0069300D01*
X0062095Y0068717D01*
X0060346D01*
X0061512D02*
X0062678Y0067551D01*
X0067343D02*
Y0071049D01*
X0069676Y0067551D01*
Y0071049D01*
X0070842Y0067551D02*
Y0069883D01*
X0072008Y0071049D01*
X0073175Y0069883D01*
Y0067551D01*
Y0069300D01*
X0070842D01*
X0074341Y0067551D02*
Y0071049D01*
X0075507Y0069883D01*
X0076674Y0071049D01*
Y0067551D01*
X0080172Y0071049D02*
X0077840D01*
Y0067551D01*
X0080172D01*
X0077840Y0069300D02*
X0079006D01*
X0084838Y0068717D02*
X0087170D01*
X0084838Y0069883D02*
X0087170D01*
X0046350Y0046966D02*
Y0050465D01*
X0048099D01*
X0048683Y0049882D01*
Y0048716D01*
X0048099Y0048133D01*
X0046350D01*
X0049849Y0050465D02*
Y0046966D01*
X0052181D01*
X0055097Y0050465D02*
X0053931D01*
X0053348Y0049882D01*
Y0047550D01*
X0053931Y0046966D01*
X0055097D01*
X0055680Y0047550D01*
Y0049882D01*
X0055097Y0050465D01*
X0056847D02*
X0059179D01*
X0058013D01*
Y0046966D01*
X0063844D02*
Y0050465D01*
X0066177Y0046966D01*
Y0050465D01*
X0067343Y0046966D02*
Y0049299D01*
X0068510Y0050465D01*
X0069676Y0049299D01*
Y0046966D01*
Y0048716D01*
X0067343D01*
X0070842Y0046966D02*
Y0050465D01*
X0072008Y0049299D01*
X0073175Y0050465D01*
Y0046966D01*
X0076674Y0050465D02*
X0074341D01*
Y0046966D01*
X0076674D01*
X0074341Y0048716D02*
X0075507D01*
X0081339Y0048133D02*
X0083671D01*
X0081339Y0049299D02*
X0083671D01*
X0046350Y0087833D02*
Y0090166D01*
X0047516Y0091332D01*
X0048683Y0090166D01*
Y0087833D01*
Y0089583D01*
X0046350D01*
X0049849Y0091332D02*
Y0087833D01*
X0052181D01*
X0053348Y0091332D02*
Y0087833D01*
X0055680D01*
X0060346D02*
Y0090166D01*
X0061512Y0091332D01*
X0062678Y0090166D01*
Y0087833D01*
Y0089583D01*
X0060346D01*
X0063844Y0087833D02*
Y0091332D01*
X0065594D01*
X0066177Y0090749D01*
Y0089583D01*
X0065594Y0089000D01*
X0063844D01*
X0065011D02*
X0066177Y0087833D01*
X0067343Y0091332D02*
X0069676D01*
X0068510D01*
Y0087833D01*
X0070842Y0091332D02*
Y0087833D01*
X0072008Y0089000D01*
X0073175Y0087833D01*
Y0091332D01*
X0076090D02*
X0074924D01*
X0074341Y0090749D01*
Y0088416D01*
X0074924Y0087833D01*
X0076090D01*
X0076674Y0088416D01*
Y0090749D01*
X0076090Y0091332D01*
X0077840Y0087833D02*
Y0091332D01*
X0079589D01*
X0080172Y0090749D01*
Y0089583D01*
X0079589Y0089000D01*
X0077840D01*
X0079006D02*
X0080172Y0087833D01*
X0081339Y0091332D02*
Y0087833D01*
Y0089000D01*
X0083671Y0091332D01*
X0081922Y0089583D01*
X0083671Y0087833D01*
X0088336Y0091332D02*
Y0089000D01*
X0089503Y0087833D01*
X0090669Y0089000D01*
Y0091332D01*
X0091835D02*
X0093002D01*
X0092418D01*
Y0087833D01*
X0091835D01*
X0093002D01*
X0097084Y0091332D02*
X0094751D01*
Y0087833D01*
X0097084D01*
X0094751Y0089583D02*
X0095917D01*
X0098250Y0091332D02*
Y0087833D01*
X0099416Y0089000D01*
X0100583Y0087833D01*
Y0091332D01*
X0104081D02*
X0101749D01*
Y0087833D01*
X0104081D01*
X0101749Y0089583D02*
X0102915D01*
X0105248Y0091332D02*
Y0087833D01*
X0106997D01*
X0107580Y0088416D01*
Y0090749D01*
X0106997Y0091332D01*
X0105248D01*
X0114578D02*
X0112245D01*
Y0089583D01*
X0113412D01*
X0112245D01*
Y0087833D01*
X0115744D02*
Y0091332D01*
X0117494D01*
X0118077Y0090749D01*
Y0089583D01*
X0117494Y0089000D01*
X0115744D01*
X0116911D02*
X0118077Y0087833D01*
X0120993Y0091332D02*
X0119826D01*
X0119243Y0090749D01*
Y0088416D01*
X0119826Y0087833D01*
X0120993D01*
X0121576Y0088416D01*
Y0090749D01*
X0120993Y0091332D01*
X0122742Y0087833D02*
Y0091332D01*
X0123908Y0090166D01*
X0125075Y0091332D01*
Y0087833D01*
X0129740Y0091332D02*
X0132072D01*
X0130906D01*
Y0087833D01*
X0134988Y0091332D02*
X0133822D01*
X0133239Y0090749D01*
Y0088416D01*
X0133822Y0087833D01*
X0134988D01*
X0135571Y0088416D01*
Y0090749D01*
X0134988Y0091332D01*
X0136738Y0087833D02*
Y0091332D01*
X0138487D01*
X0139070Y0090749D01*
Y0089583D01*
X0138487Y0089000D01*
X0136738D01*
X0146068Y0090749D02*
X0145485Y0091332D01*
X0144318D01*
X0143735Y0090749D01*
Y0090166D01*
X0144318Y0089583D01*
X0145485D01*
X0146068Y0089000D01*
Y0088416D01*
X0145485Y0087833D01*
X0144318D01*
X0143735Y0088416D01*
X0147234Y0091332D02*
X0148400D01*
X0147817D01*
Y0087833D01*
X0147234D01*
X0148400D01*
X0150150Y0091332D02*
Y0087833D01*
X0151899D01*
X0152482Y0088416D01*
Y0090749D01*
X0151899Y0091332D01*
X0150150D01*
X0155981D02*
X0153649D01*
Y0087833D01*
X0155981D01*
X0153649Y0089583D02*
X0154815D01*
G54D318*
X0100400Y0118600D02*
D03*
G54D319*
X0075400Y0131100D02*
D03*
M02*
