G04*
G04 #@! TF.GenerationSoftware,Altium Limited,Altium Designer,24.3.1 (35)*
G04*
G04 Layer_Color=16711935*
%FSAX25Y25*%
%MOIN*%
G70*
G04*
G04 #@! TF.SameCoordinates,8ECB5597-4BEE-4FB2-8F1C-C82D3C8D71A6*
G04*
G04*
G04 #@! TF.FilePolarity,Positive*
G04*
G01*
G75*
%ADD13C,0.01000*%
%ADD16C,0.00800*%
%ADD18C,0.00600*%
G54D13*
X1520050Y0970050D02*
Y1284006D01*
X1500011Y0950089D02*
Y1264045D01*
X0040089Y0950089D02*
Y1264045D01*
X0020050Y0970050D02*
Y1284006D01*
X1199550Y0240500D02*
X1199650D01*
X1199550Y0190450D02*
Y0240500D01*
X0701300Y0040050D02*
Y0101050D01*
X1199550D01*
Y0040050D02*
Y0101050D01*
X1499550D01*
X1199650Y0240500D02*
X1500050D01*
X1199550Y0161050D02*
Y0190450D01*
X1199650D02*
X1499650D01*
X0270050Y0020050D02*
Y0040050D01*
X0020050Y0257550D02*
X0040050D01*
X0020050Y0495050D02*
X0040050D01*
X0020050Y0732550D02*
X0040050D01*
Y0040050D02*
X1500050D01*
X0040050D02*
Y0950050D01*
X0020050Y0020050D02*
X1520050D01*
X0020050D02*
Y0970050D01*
X1500050Y0040050D02*
Y0160050D01*
X0520050Y0020050D02*
Y0040050D01*
X0770050Y0020050D02*
Y0040050D01*
X1020050Y0020050D02*
Y0040050D01*
X1270050Y0020050D02*
Y0040050D01*
X1500050Y0257550D02*
X1520050D01*
X1500050Y0495050D02*
X1520050D01*
X1500050Y0732550D02*
X1520050D01*
Y0020050D02*
Y0970050D01*
X1500050Y0040050D02*
Y0950050D01*
X0270089Y1264045D02*
Y1284045D01*
X0020089D02*
X1520089D01*
X0040089Y1264045D02*
X1500089D01*
X0520089D02*
Y1284045D01*
X0770089Y1264045D02*
Y1284045D01*
X1020089Y1264045D02*
Y1284045D01*
X1270089Y1264045D02*
Y1284045D01*
X1199550Y0131050D02*
X1499550D01*
X1199550Y0071050D02*
X1499550D01*
X1199550Y0101050D02*
Y0161050D01*
X1499550D01*
X1350050Y0041050D02*
Y0101050D01*
X1394898Y0088228D02*
Y0082230D01*
Y0085229D01*
X1398897D01*
Y0088228D01*
Y0082230D01*
X1403895D02*
X1401896D01*
X1400896Y0083230D01*
Y0085229D01*
X1401896Y0086229D01*
X1403895D01*
X1404895Y0085229D01*
Y0084229D01*
X1400896D01*
X1406894Y0082230D02*
Y0086229D01*
X1409894D01*
X1410893Y0085229D01*
Y0082230D01*
X1412893Y0086229D02*
Y0082230D01*
Y0084229D01*
X1413892Y0085229D01*
X1414892Y0086229D01*
X1415892D01*
X1418891D02*
Y0083230D01*
X1419890Y0082230D01*
X1422889D01*
Y0081230D01*
X1421890Y0080230D01*
X1420890D01*
X1422889Y0082230D02*
Y0086229D01*
X1430887Y0088228D02*
X1434885D01*
X1432886D01*
Y0082230D01*
X1437885Y0086229D02*
X1439884D01*
X1440884Y0085229D01*
Y0082230D01*
X1437885D01*
X1436885Y0083230D01*
X1437885Y0084229D01*
X1440884D01*
X1442883Y0082230D02*
Y0086229D01*
X1445882D01*
X1446882Y0085229D01*
Y0082230D01*
X1450880Y0080230D02*
X1451880D01*
X1452880Y0081230D01*
Y0086229D01*
X1449881D01*
X1448881Y0085229D01*
Y0083230D01*
X1449881Y0082230D01*
X1452880D01*
X1283589Y0178343D02*
Y0172345D01*
Y0175344D01*
X1287588D01*
Y0178343D01*
Y0172345D01*
X1289587Y0178343D02*
Y0174344D01*
X1291586Y0172345D01*
X1293586Y0174344D01*
Y0178343D01*
X1305582Y0172345D02*
X1304582Y0173345D01*
X1303582Y0172345D01*
X1302583D01*
X1301583Y0173345D01*
Y0174344D01*
X1302583Y0175344D01*
X1301583Y0176344D01*
Y0177343D01*
X1302583Y0178343D01*
X1303582D01*
X1304582Y0177343D01*
Y0176344D01*
X1303582Y0175344D01*
X1304582Y0174344D01*
Y0173345D01*
X1305582Y0175344D02*
X1304582Y0174344D01*
X1302583Y0175344D02*
X1303582D01*
X1317578Y0177343D02*
X1316578Y0178343D01*
X1314579D01*
X1313579Y0177343D01*
Y0173345D01*
X1314579Y0172345D01*
X1316578D01*
X1317578Y0173345D01*
X1320577Y0172345D02*
X1322576D01*
X1323576Y0173345D01*
Y0175344D01*
X1322576Y0176344D01*
X1320577D01*
X1319577Y0175344D01*
Y0173345D01*
X1320577Y0172345D01*
X1325575D02*
Y0176344D01*
X1328574D01*
X1329574Y0175344D01*
Y0172345D01*
X1332573Y0177343D02*
Y0176344D01*
X1331573D01*
X1333573D01*
X1332573D01*
Y0173345D01*
X1333573Y0172345D01*
X1336572Y0176344D02*
Y0172345D01*
Y0174344D01*
X1337572Y0175344D01*
X1338571Y0176344D01*
X1339571D01*
X1343570Y0172345D02*
X1345569D01*
X1346569Y0173345D01*
Y0175344D01*
X1345569Y0176344D01*
X1343570D01*
X1342570Y0175344D01*
Y0173345D01*
X1343570Y0172345D01*
X1348568D02*
X1350567D01*
X1349568D01*
Y0178343D01*
X1348568D01*
X1359564D02*
Y0172345D01*
X1362563D01*
X1363563Y0173345D01*
Y0174344D01*
X1362563Y0175344D01*
X1359564D01*
X1362563D01*
X1363563Y0176344D01*
Y0177343D01*
X1362563Y0178343D01*
X1359564D01*
X1366562Y0172345D02*
X1368561D01*
X1369561Y0173345D01*
Y0175344D01*
X1368561Y0176344D01*
X1366562D01*
X1365563Y0175344D01*
Y0173345D01*
X1366562Y0172345D01*
X1372560Y0176344D02*
X1374559D01*
X1375559Y0175344D01*
Y0172345D01*
X1372560D01*
X1371560Y0173345D01*
X1372560Y0174344D01*
X1375559D01*
X1377559Y0176344D02*
Y0172345D01*
Y0174344D01*
X1378558Y0175344D01*
X1379558Y0176344D01*
X1380558D01*
X1387555Y0178343D02*
Y0172345D01*
X1384556D01*
X1383557Y0173345D01*
Y0175344D01*
X1384556Y0176344D01*
X1387555D01*
X1284489Y0120143D02*
X1288488D01*
Y0119143D01*
X1284489Y0115145D01*
Y0114145D01*
X1290487Y0119143D02*
X1291487Y0120143D01*
X1293486D01*
X1294486Y0119143D01*
Y0115145D01*
X1293486Y0114145D01*
X1291487D01*
X1290487Y0115145D01*
Y0119143D01*
X1296485D02*
X1297485Y0120143D01*
X1299484D01*
X1300484Y0119143D01*
Y0115145D01*
X1299484Y0114145D01*
X1297485D01*
X1296485Y0115145D01*
Y0119143D01*
X1302483Y0117144D02*
X1306482D01*
X1308481Y0119143D02*
X1309481Y0120143D01*
X1311480D01*
X1312480Y0119143D01*
Y0115145D01*
X1311480Y0114145D01*
X1309481D01*
X1308481Y0115145D01*
Y0119143D01*
X1314479D02*
X1315479Y0120143D01*
X1317478D01*
X1318478Y0119143D01*
Y0115145D01*
X1317478Y0114145D01*
X1315479D01*
X1314479Y0115145D01*
Y0119143D01*
X1320477D02*
X1321477Y0120143D01*
X1323476D01*
X1324476Y0119143D01*
Y0115145D01*
X1323476Y0114145D01*
X1321477D01*
X1320477Y0115145D01*
Y0119143D01*
X1326475D02*
X1327475Y0120143D01*
X1329474D01*
X1330474Y0119143D01*
Y0115145D01*
X1329474Y0114145D01*
X1327475D01*
X1326475Y0115145D01*
Y0119143D01*
X1336472Y0114145D02*
X1332473D01*
X1336472Y0118144D01*
Y0119143D01*
X1335472Y0120143D01*
X1333473D01*
X1332473Y0119143D01*
X1344470Y0114145D02*
Y0120143D01*
X1347469D01*
X1348468Y0119143D01*
Y0117144D01*
X1347469Y0116144D01*
X1344470D01*
X1346469D02*
X1348468Y0114145D01*
X1353467D02*
X1351467D01*
X1350468Y0115145D01*
Y0117144D01*
X1351467Y0118144D01*
X1353467D01*
X1354466Y0117144D01*
Y0116144D01*
X1350468D01*
X1356466Y0118144D02*
X1358465Y0114145D01*
X1360464Y0118144D01*
X1368462Y0119143D02*
X1369462Y0120143D01*
X1371461D01*
X1372460Y0119143D01*
Y0115145D01*
X1371461Y0114145D01*
X1369462D01*
X1368462Y0115145D01*
Y0119143D01*
X1374460Y0114145D02*
Y0115145D01*
X1375460D01*
Y0114145D01*
X1374460D01*
X1379458Y0119143D02*
X1380458Y0120143D01*
X1382457D01*
X1383457Y0119143D01*
Y0118144D01*
X1382457Y0117144D01*
X1381458D01*
X1382457D01*
X1383457Y0116144D01*
Y0115145D01*
X1382457Y0114145D01*
X1380458D01*
X1379458Y0115145D01*
X1385456Y0114145D02*
Y0115145D01*
X1386456D01*
Y0114145D01*
X1385456D01*
X1390455D02*
Y0120143D01*
X1393454D01*
X1394453Y0119143D01*
Y0117144D01*
X1393454Y0116144D01*
X1390455D01*
X1400451Y0118144D02*
X1397452D01*
X1396453Y0117144D01*
Y0115145D01*
X1397452Y0114145D01*
X1400451D01*
X1402451Y0120143D02*
Y0114145D01*
X1405450D01*
X1406450Y0115145D01*
Y0116144D01*
Y0117144D01*
X1405450Y0118144D01*
X1402451D01*
X1408449Y0120143D02*
Y0114145D01*
X1411448D01*
X1412448Y0115145D01*
Y0119143D01*
X1411448Y0120143D01*
X1408449D01*
X1415447Y0114145D02*
X1417446D01*
X1418446Y0115145D01*
Y0117144D01*
X1417446Y0118144D01*
X1415447D01*
X1414447Y0117144D01*
Y0115145D01*
X1415447Y0114145D01*
X1424444Y0118144D02*
X1421445D01*
X1420445Y0117144D01*
Y0115145D01*
X1421445Y0114145D01*
X1424444D01*
X1241350Y0089849D02*
Y0083851D01*
Y0086850D01*
X1245349D01*
Y0089849D01*
Y0083851D01*
X1250347D02*
X1248348D01*
X1247348Y0084850D01*
Y0086850D01*
X1248348Y0087849D01*
X1250347D01*
X1251347Y0086850D01*
Y0085850D01*
X1247348D01*
X1253346Y0083851D02*
Y0087849D01*
X1256345D01*
X1257345Y0086850D01*
Y0083851D01*
X1259344Y0087849D02*
Y0083851D01*
Y0085850D01*
X1260344Y0086850D01*
X1261343Y0087849D01*
X1262343D01*
X1265342D02*
Y0084850D01*
X1266342Y0083851D01*
X1269341D01*
Y0082851D01*
X1268341Y0081851D01*
X1267342D01*
X1269341Y0083851D02*
Y0087849D01*
X1277338Y0089849D02*
X1281337D01*
X1279338D01*
Y0083851D01*
X1284336Y0087849D02*
X1286335D01*
X1287335Y0086850D01*
Y0083851D01*
X1284336D01*
X1283336Y0084850D01*
X1284336Y0085850D01*
X1287335D01*
X1289334Y0083851D02*
Y0087849D01*
X1292334D01*
X1293333Y0086850D01*
Y0083851D01*
X1297332Y0081851D02*
X1298332D01*
X1299331Y0082851D01*
Y0087849D01*
X1296332D01*
X1295333Y0086850D01*
Y0084850D01*
X1296332Y0083851D01*
X1299331D01*
X0559400Y0039400D02*
Y0059683D01*
X0440500Y0040050D02*
X0700200D01*
Y0101050D01*
X0286500Y0040050D02*
Y0101050D01*
X0040000Y0040050D02*
Y0101050D01*
X0040050Y0040050D02*
X0197600D01*
X0040050D02*
Y0101050D01*
Y0101050D02*
X0700200D01*
X0040000Y0040050D02*
X0440500D01*
X0040000Y0060383D02*
X0700000D01*
G54D16*
X0040000Y0080717D02*
X0700200D01*
G54D18*
X1210883Y0050633D02*
X1210299Y0051216D01*
X1209133D01*
X1208550Y0050633D01*
Y0050050D01*
X1209133Y0049467D01*
X1210299D01*
X1210883Y0048884D01*
Y0048300D01*
X1210299Y0047717D01*
X1209133D01*
X1208550Y0048300D01*
X1214382Y0050633D02*
X1213798Y0051216D01*
X1212632D01*
X1212049Y0050633D01*
Y0048300D01*
X1212632Y0047717D01*
X1213798D01*
X1214382Y0048300D01*
X1215548Y0047717D02*
Y0050050D01*
X1216714Y0051216D01*
X1217880Y0050050D01*
Y0047717D01*
Y0049467D01*
X1215548D01*
X1219047Y0051216D02*
Y0047717D01*
X1221379D01*
X1224878Y0051216D02*
X1222546D01*
Y0047717D01*
X1224878D01*
X1222546Y0049467D02*
X1223712D01*
X1226044Y0050050D02*
X1226628D01*
Y0049467D01*
X1226044D01*
Y0050050D01*
Y0048300D02*
X1226628D01*
Y0047717D01*
X1226044D01*
Y0048300D01*
X1232459Y0047717D02*
X1233625D01*
X1233042D01*
Y0051216D01*
X1232459Y0050633D01*
X1235375Y0047717D02*
Y0048300D01*
X1235958D01*
Y0047717D01*
X1235375D01*
X1238290Y0050633D02*
X1238873Y0051216D01*
X1240040D01*
X1240623Y0050633D01*
Y0048300D01*
X1240040Y0047717D01*
X1238873D01*
X1238290Y0048300D01*
Y0050633D01*
X1241789D02*
X1242372Y0051216D01*
X1243539D01*
X1244122Y0050633D01*
Y0048300D01*
X1243539Y0047717D01*
X1242372D01*
X1241789Y0048300D01*
Y0050633D01*
X1394750Y0030049D02*
X1394583Y0030383D01*
X1394083Y0030549D01*
X1393750D01*
X1393250Y0030383D01*
X1392917Y0029883D01*
X1392750Y0029050D01*
Y0028216D01*
X1392917Y0027550D01*
X1393250Y0027217D01*
X1393750Y0027050D01*
X1393916D01*
X1394416Y0027217D01*
X1394750Y0027550D01*
X1394916Y0028050D01*
Y0028216D01*
X1394750Y0028716D01*
X1394416Y0029050D01*
X1393916Y0029216D01*
X1393750D01*
X1393250Y0029050D01*
X1392917Y0028716D01*
X1392750Y0028216D01*
X1144250Y0030549D02*
X1142583D01*
X1142417Y0029050D01*
X1142583Y0029216D01*
X1143083Y0029383D01*
X1143583D01*
X1144083Y0029216D01*
X1144416Y0028883D01*
X1144583Y0028383D01*
Y0028050D01*
X1144416Y0027550D01*
X1144083Y0027217D01*
X1143583Y0027050D01*
X1143083D01*
X1142583Y0027217D01*
X1142417Y0027383D01*
X1142250Y0027716D01*
X0894017Y0030549D02*
X0892351Y0028216D01*
X0894851D01*
X0894017Y0030549D02*
Y0027050D01*
X0642018Y0030549D02*
X0643851D01*
X0642851Y0029216D01*
X0643351D01*
X0643684Y0029050D01*
X0643851Y0028883D01*
X0644017Y0028383D01*
Y0028050D01*
X0643851Y0027550D01*
X0643517Y0027217D01*
X0643017Y0027050D01*
X0642518D01*
X0642018Y0027217D01*
X0641851Y0027383D01*
X0641684Y0027716D01*
X0392917Y0029716D02*
Y0029883D01*
X0393083Y0030216D01*
X0393250Y0030383D01*
X0393583Y0030549D01*
X0394250D01*
X0394583Y0030383D01*
X0394750Y0030216D01*
X0394916Y0029883D01*
Y0029550D01*
X0394750Y0029216D01*
X0394416Y0028716D01*
X0392750Y0027050D01*
X0395083D01*
X0143184Y0029883D02*
X0143517Y0030049D01*
X0144017Y0030549D01*
Y0027050D01*
X0027550Y0133749D02*
Y0130250D01*
Y0133749D02*
X0028716D01*
X0029216Y0133583D01*
X0029550Y0133249D01*
X0029716Y0132916D01*
X0029883Y0132416D01*
Y0131583D01*
X0029716Y0131083D01*
X0029550Y0130750D01*
X0029216Y0130417D01*
X0028716Y0130250D01*
X0027550D01*
X0030049Y0369916D02*
X0029883Y0370249D01*
X0029550Y0370583D01*
X0029216Y0370749D01*
X0028550D01*
X0028216Y0370583D01*
X0027883Y0370249D01*
X0027717Y0369916D01*
X0027550Y0369416D01*
Y0368583D01*
X0027717Y0368083D01*
X0027883Y0367750D01*
X0028216Y0367417D01*
X0028550Y0367250D01*
X0029216D01*
X0029550Y0367417D01*
X0029883Y0367750D01*
X0030049Y0368083D01*
X0027550Y0608249D02*
Y0604750D01*
Y0608249D02*
X0029050D01*
X0029550Y0608083D01*
X0029716Y0607916D01*
X0029883Y0607583D01*
Y0607249D01*
X0029716Y0606916D01*
X0029550Y0606750D01*
X0029050Y0606583D01*
X0027550D02*
X0029050D01*
X0029550Y0606416D01*
X0029716Y0606250D01*
X0029883Y0605916D01*
Y0605416D01*
X0029716Y0605083D01*
X0029550Y0604917D01*
X0029050Y0604750D01*
X0027550D01*
X0030216Y0842750D02*
X0028883Y0846249D01*
X0027550Y0842750D01*
X0028050Y0843916D02*
X0029716D01*
X1507550Y0133749D02*
Y0130250D01*
Y0133749D02*
X1508716D01*
X1509216Y0133583D01*
X1509550Y0133249D01*
X1509716Y0132916D01*
X1509883Y0132416D01*
Y0131583D01*
X1509716Y0131083D01*
X1509550Y0130750D01*
X1509216Y0130417D01*
X1508716Y0130250D01*
X1507550D01*
X1510050Y0369916D02*
X1509883Y0370249D01*
X1509550Y0370583D01*
X1509216Y0370749D01*
X1508550D01*
X1508216Y0370583D01*
X1507883Y0370249D01*
X1507717Y0369916D01*
X1507550Y0369416D01*
Y0368583D01*
X1507717Y0368083D01*
X1507883Y0367750D01*
X1508216Y0367417D01*
X1508550Y0367250D01*
X1509216D01*
X1509550Y0367417D01*
X1509883Y0367750D01*
X1510050Y0368083D01*
X1507550Y0608249D02*
Y0604750D01*
Y0608249D02*
X1509050D01*
X1509550Y0608083D01*
X1509716Y0607916D01*
X1509883Y0607583D01*
Y0607249D01*
X1509716Y0606916D01*
X1509550Y0606750D01*
X1509050Y0606583D01*
X1507550D02*
X1509050D01*
X1509550Y0606416D01*
X1509716Y0606250D01*
X1509883Y0605916D01*
Y0605416D01*
X1509716Y0605083D01*
X1509550Y0604917D01*
X1509050Y0604750D01*
X1507550D01*
X1510216Y0842750D02*
X1508883Y0846249D01*
X1507550Y0842750D01*
X1508050Y0843916D02*
X1509716D01*
X1394789Y1274044D02*
X1394622Y1274378D01*
X1394122Y1274544D01*
X1393789D01*
X1393289Y1274378D01*
X1392956Y1273878D01*
X1392789Y1273044D01*
Y1272211D01*
X1392956Y1271545D01*
X1393289Y1271212D01*
X1393789Y1271045D01*
X1393955D01*
X1394455Y1271212D01*
X1394789Y1271545D01*
X1394955Y1272045D01*
Y1272211D01*
X1394789Y1272711D01*
X1394455Y1273044D01*
X1393955Y1273211D01*
X1393789D01*
X1393289Y1273044D01*
X1392956Y1272711D01*
X1392789Y1272211D01*
X1144289Y1274544D02*
X1142622D01*
X1142456Y1273044D01*
X1142622Y1273211D01*
X1143122Y1273378D01*
X1143622D01*
X1144122Y1273211D01*
X1144455Y1272878D01*
X1144622Y1272378D01*
Y1272045D01*
X1144455Y1271545D01*
X1144122Y1271212D01*
X1143622Y1271045D01*
X1143122D01*
X1142622Y1271212D01*
X1142456Y1271378D01*
X1142289Y1271711D01*
X0894056Y1274544D02*
X0892390Y1272211D01*
X0894890D01*
X0894056Y1274544D02*
Y1271045D01*
X0642057Y1274544D02*
X0643890D01*
X0642890Y1273211D01*
X0643390D01*
X0643723Y1273044D01*
X0643890Y1272878D01*
X0644056Y1272378D01*
Y1272045D01*
X0643890Y1271545D01*
X0643556Y1271212D01*
X0643056Y1271045D01*
X0642556D01*
X0642057Y1271212D01*
X0641890Y1271378D01*
X0641723Y1271711D01*
X0392956Y1273711D02*
Y1273878D01*
X0393122Y1274211D01*
X0393289Y1274378D01*
X0393622Y1274544D01*
X0394289D01*
X0394622Y1274378D01*
X0394789Y1274211D01*
X0394955Y1273878D01*
Y1273544D01*
X0394789Y1273211D01*
X0394455Y1272711D01*
X0392789Y1271045D01*
X0395122D01*
X0143223Y1273878D02*
X0143556Y1274044D01*
X0144056Y1274544D01*
Y1271045D01*
X1208550Y0137050D02*
Y0140549D01*
X1210299D01*
X1210883Y0139966D01*
Y0138799D01*
X1210299Y0138216D01*
X1208550D01*
X1212049Y0139383D02*
Y0137633D01*
X1212632Y0137050D01*
X1214382D01*
Y0139383D01*
X1215548Y0140549D02*
Y0137050D01*
X1217297D01*
X1217880Y0137633D01*
Y0138216D01*
Y0138799D01*
X1217297Y0139383D01*
X1215548D01*
X1219047Y0137050D02*
X1220213D01*
X1219630D01*
Y0140549D01*
X1219047D01*
X1221962Y0137050D02*
X1223129D01*
X1222546D01*
Y0139383D01*
X1221962D01*
X1227211D02*
X1225461D01*
X1224878Y0138799D01*
Y0137633D01*
X1225461Y0137050D01*
X1227211D01*
X1231876D02*
Y0140549D01*
X1233625D01*
X1234208Y0139966D01*
Y0138799D01*
X1233625Y0138216D01*
X1231876D01*
X1233042D02*
X1234208Y0137050D01*
X1237124D02*
X1235958D01*
X1235375Y0137633D01*
Y0138799D01*
X1235958Y0139383D01*
X1237124D01*
X1237707Y0138799D01*
Y0138216D01*
X1235375D01*
X1238873Y0137050D02*
X1240040D01*
X1239457D01*
Y0140549D01*
X1238873D01*
X1243539Y0137050D02*
X1242372D01*
X1241789Y0137633D01*
Y0138799D01*
X1242372Y0139383D01*
X1243539D01*
X1244122Y0138799D01*
Y0138216D01*
X1241789D01*
X1245871Y0139383D02*
X1247038D01*
X1247621Y0138799D01*
Y0137050D01*
X1245871D01*
X1245288Y0137633D01*
X1245871Y0138216D01*
X1247621D01*
X1248787Y0137050D02*
X1250536D01*
X1251120Y0137633D01*
X1250536Y0138216D01*
X1249370D01*
X1248787Y0138799D01*
X1249370Y0139383D01*
X1251120D01*
X1254035Y0137050D02*
X1252869D01*
X1252286Y0137633D01*
Y0138799D01*
X1252869Y0139383D01*
X1254035D01*
X1254618Y0138799D01*
Y0138216D01*
X1252286D01*
X1205716Y0095549D02*
X1203550D01*
Y0092050D01*
X1205716D01*
X1203550Y0093883D02*
X1204883D01*
X1206299Y0095549D02*
Y0092050D01*
Y0095549D02*
X1208632Y0092050D01*
Y0095549D02*
Y0092050D01*
X1212098Y0094716D02*
X1211932Y0095049D01*
X1211598Y0095383D01*
X1211265Y0095549D01*
X1210598D01*
X1210265Y0095383D01*
X1209932Y0095049D01*
X1209765Y0094716D01*
X1209599Y0094216D01*
Y0093383D01*
X1209765Y0092883D01*
X1209932Y0092550D01*
X1210265Y0092217D01*
X1210598Y0092050D01*
X1211265D01*
X1211598Y0092217D01*
X1211932Y0092550D01*
X1212098Y0092883D01*
Y0093383D01*
X1211265D02*
X1212098D01*
X1212898Y0095549D02*
Y0092050D01*
X1213631Y0095549D02*
Y0092050D01*
Y0095549D02*
X1215964Y0092050D01*
Y0095549D02*
Y0092050D01*
X1219097Y0095549D02*
X1216930D01*
Y0092050D01*
X1219097D01*
X1216930Y0093883D02*
X1218264D01*
X1221846Y0095549D02*
X1219680D01*
Y0092050D01*
X1221846D01*
X1219680Y0093883D02*
X1221013D01*
X1222429Y0095549D02*
Y0092050D01*
Y0095549D02*
X1223929D01*
X1224429Y0095383D01*
X1224596Y0095216D01*
X1224762Y0094883D01*
Y0094550D01*
X1224596Y0094216D01*
X1224429Y0094050D01*
X1223929Y0093883D01*
X1222429D01*
X1223596D02*
X1224762Y0092050D01*
X1225712Y0094383D02*
X1225545Y0094216D01*
X1225712Y0094050D01*
X1225879Y0094216D01*
X1225712Y0094383D01*
Y0092383D02*
X1225545Y0092217D01*
X1225712Y0092050D01*
X1225879Y0092217D01*
X1225712Y0092383D01*
X1203550Y0124549D02*
Y0121050D01*
Y0124549D02*
X1205716D01*
X1203550Y0122883D02*
X1204883D01*
X1206116Y0124549D02*
Y0121050D01*
X1206849Y0124549D02*
Y0121050D01*
X1208849D01*
X1211398Y0124549D02*
X1209232D01*
Y0121050D01*
X1211398D01*
X1209232Y0122883D02*
X1210565D01*
X1214731Y0124549D02*
Y0121050D01*
Y0124549D02*
X1217064Y0121050D01*
Y0124549D02*
Y0121050D01*
X1220696D02*
X1219363Y0124549D01*
X1218030Y0121050D01*
X1218530Y0122216D02*
X1220196D01*
X1221513Y0124549D02*
Y0121050D01*
Y0124549D02*
X1222846Y0121050D01*
X1224179Y0124549D02*
X1222846Y0121050D01*
X1224179Y0124549D02*
Y0121050D01*
X1227345Y0124549D02*
X1225179D01*
Y0121050D01*
X1227345D01*
X1225179Y0122883D02*
X1226512D01*
X1228095Y0123383D02*
X1227928Y0123216D01*
X1228095Y0123050D01*
X1228261Y0123216D01*
X1228095Y0123383D01*
Y0121383D02*
X1227928Y0121217D01*
X1228095Y0121050D01*
X1228261Y0121217D01*
X1228095Y0121383D01*
X1203550Y0154549D02*
Y0151050D01*
Y0154549D02*
X1204716D01*
X1205216Y0154383D01*
X1205550Y0154049D01*
X1205716Y0153716D01*
X1205883Y0153216D01*
Y0152383D01*
X1205716Y0151883D01*
X1205550Y0151550D01*
X1205216Y0151217D01*
X1204716Y0151050D01*
X1203550D01*
X1208832Y0154549D02*
X1206666D01*
Y0151050D01*
X1208832D01*
X1206666Y0152883D02*
X1207999D01*
X1211748Y0154049D02*
X1211415Y0154383D01*
X1210915Y0154549D01*
X1210249D01*
X1209749Y0154383D01*
X1209415Y0154049D01*
Y0153716D01*
X1209582Y0153383D01*
X1209749Y0153216D01*
X1210082Y0153050D01*
X1211082Y0152716D01*
X1211415Y0152550D01*
X1211582Y0152383D01*
X1211748Y0152050D01*
Y0151550D01*
X1211415Y0151217D01*
X1210915Y0151050D01*
X1210249D01*
X1209749Y0151217D01*
X1209415Y0151550D01*
X1212531Y0154549D02*
Y0151050D01*
X1215764Y0153716D02*
X1215597Y0154049D01*
X1215264Y0154383D01*
X1214931Y0154549D01*
X1214264D01*
X1213931Y0154383D01*
X1213598Y0154049D01*
X1213431Y0153716D01*
X1213265Y0153216D01*
Y0152383D01*
X1213431Y0151883D01*
X1213598Y0151550D01*
X1213931Y0151217D01*
X1214264Y0151050D01*
X1214931D01*
X1215264Y0151217D01*
X1215597Y0151550D01*
X1215764Y0151883D01*
Y0152383D01*
X1214931D02*
X1215764D01*
X1216564Y0154549D02*
Y0151050D01*
Y0154549D02*
X1218897Y0151050D01*
Y0154549D02*
Y0151050D01*
X1222029Y0154549D02*
X1219863D01*
Y0151050D01*
X1222029D01*
X1219863Y0152883D02*
X1221196D01*
X1222613Y0154549D02*
Y0151050D01*
Y0154549D02*
X1223779D01*
X1224279Y0154383D01*
X1224612Y0154049D01*
X1224779Y0153716D01*
X1224945Y0153216D01*
Y0152383D01*
X1224779Y0151883D01*
X1224612Y0151550D01*
X1224279Y0151217D01*
X1223779Y0151050D01*
X1222613D01*
X1228478Y0154549D02*
Y0151050D01*
Y0154549D02*
X1230644D01*
X1228478Y0152883D02*
X1229811D01*
X1232044Y0154549D02*
X1231711Y0154383D01*
X1231377Y0154049D01*
X1231211Y0153716D01*
X1231044Y0153216D01*
Y0152383D01*
X1231211Y0151883D01*
X1231377Y0151550D01*
X1231711Y0151217D01*
X1232044Y0151050D01*
X1232710D01*
X1233044Y0151217D01*
X1233377Y0151550D01*
X1233544Y0151883D01*
X1233710Y0152383D01*
Y0153216D01*
X1233544Y0153716D01*
X1233377Y0154049D01*
X1233044Y0154383D01*
X1232710Y0154549D01*
X1232044D01*
X1234527D02*
Y0151050D01*
Y0154549D02*
X1236026D01*
X1236526Y0154383D01*
X1236693Y0154216D01*
X1236860Y0153883D01*
Y0153550D01*
X1236693Y0153216D01*
X1236526Y0153050D01*
X1236026Y0152883D01*
X1234527D01*
X1235693D02*
X1236860Y0151050D01*
X1237809Y0153383D02*
X1237643Y0153216D01*
X1237809Y0153050D01*
X1237976Y0153216D01*
X1237809Y0153383D01*
Y0151383D02*
X1237643Y0151217D01*
X1237809Y0151050D01*
X1237976Y0151217D01*
X1237809Y0151383D01*
X1203550Y0182816D02*
X1205050D01*
X1205550Y0182983D01*
X1205716Y0183150D01*
X1205883Y0183483D01*
Y0183983D01*
X1205716Y0184316D01*
X1205550Y0184483D01*
X1205050Y0184649D01*
X1203550D01*
Y0181150D01*
X1206666Y0184649D02*
Y0181150D01*
Y0184649D02*
X1208166D01*
X1208666Y0184483D01*
X1208832Y0184316D01*
X1208999Y0183983D01*
Y0183650D01*
X1208832Y0183316D01*
X1208666Y0183150D01*
X1208166Y0182983D01*
X1206666D01*
X1207832D02*
X1208999Y0181150D01*
X1210782Y0184649D02*
X1210448Y0184483D01*
X1210115Y0184149D01*
X1209949Y0183816D01*
X1209782Y0183316D01*
Y0182483D01*
X1209949Y0181983D01*
X1210115Y0181650D01*
X1210448Y0181317D01*
X1210782Y0181150D01*
X1211448D01*
X1211782Y0181317D01*
X1212115Y0181650D01*
X1212282Y0181983D01*
X1212448Y0182483D01*
Y0183316D01*
X1212282Y0183816D01*
X1212115Y0184149D01*
X1211782Y0184483D01*
X1211448Y0184649D01*
X1210782D01*
X1214931D02*
Y0181983D01*
X1214764Y0181483D01*
X1214598Y0181317D01*
X1214264Y0181150D01*
X1213931D01*
X1213598Y0181317D01*
X1213431Y0181483D01*
X1213265Y0181983D01*
Y0182316D01*
X1217997Y0184649D02*
X1215831D01*
Y0181150D01*
X1217997D01*
X1215831Y0182983D02*
X1217164D01*
X1221080Y0183816D02*
X1220913Y0184149D01*
X1220580Y0184483D01*
X1220246Y0184649D01*
X1219580D01*
X1219247Y0184483D01*
X1218913Y0184149D01*
X1218747Y0183816D01*
X1218580Y0183316D01*
Y0182483D01*
X1218747Y0181983D01*
X1218913Y0181650D01*
X1219247Y0181317D01*
X1219580Y0181150D01*
X1220246D01*
X1220580Y0181317D01*
X1220913Y0181650D01*
X1221080Y0181983D01*
X1223229Y0184649D02*
Y0181150D01*
X1222063Y0184649D02*
X1224395D01*
X1228728D02*
Y0181150D01*
X1227561Y0184649D02*
X1229894D01*
X1230311D02*
Y0181150D01*
X1232211Y0184649D02*
Y0181150D01*
X1231044Y0184649D02*
X1233377D01*
X1233794D02*
Y0181150D01*
X1235793D01*
X1238342Y0184649D02*
X1236176D01*
Y0181150D01*
X1238342D01*
X1236176Y0182983D02*
X1237509D01*
X1239092Y0183483D02*
X1238926Y0183316D01*
X1239092Y0183150D01*
X1239259Y0183316D01*
X1239092Y0183483D01*
Y0181483D02*
X1238926Y0181317D01*
X1239092Y0181150D01*
X1239259Y0181317D01*
X1239092Y0181483D01*
X1356716Y0061050D02*
X1355383Y0064549D01*
X1354050Y0061050D01*
X1354550Y0062216D02*
X1356216D01*
X1357533Y0064549D02*
Y0061050D01*
X1359532D01*
X1361082Y0064549D02*
Y0061050D01*
X1359915Y0064549D02*
X1362248D01*
X1362665D02*
Y0061050D01*
X1363398Y0064549D02*
Y0062050D01*
X1363565Y0061550D01*
X1363898Y0061217D01*
X1364398Y0061050D01*
X1364731D01*
X1365231Y0061217D01*
X1365564Y0061550D01*
X1365731Y0062050D01*
Y0064549D01*
X1366697D02*
Y0061050D01*
Y0064549D02*
X1368030Y0061050D01*
X1369363Y0064549D02*
X1368030Y0061050D01*
X1369363Y0064549D02*
Y0061050D01*
X1373113Y0064549D02*
Y0061050D01*
Y0064549D02*
X1374279D01*
X1374779Y0064383D01*
X1375112Y0064049D01*
X1375279Y0063716D01*
X1375445Y0063216D01*
Y0062383D01*
X1375279Y0061883D01*
X1375112Y0061550D01*
X1374779Y0061217D01*
X1374279Y0061050D01*
X1373113D01*
X1378395Y0064549D02*
X1376229D01*
Y0061050D01*
X1378395D01*
X1376229Y0062883D02*
X1377562D01*
X1381311Y0064049D02*
X1380978Y0064383D01*
X1380478Y0064549D01*
X1379811D01*
X1379311Y0064383D01*
X1378978Y0064049D01*
Y0063716D01*
X1379145Y0063383D01*
X1379311Y0063216D01*
X1379644Y0063050D01*
X1380644Y0062716D01*
X1380978Y0062550D01*
X1381144Y0062383D01*
X1381311Y0062050D01*
Y0061550D01*
X1380978Y0061217D01*
X1380478Y0061050D01*
X1379811D01*
X1379311Y0061217D01*
X1378978Y0061550D01*
X1382094Y0064549D02*
Y0061050D01*
X1385327Y0063716D02*
X1385160Y0064049D01*
X1384827Y0064383D01*
X1384494Y0064549D01*
X1383827D01*
X1383494Y0064383D01*
X1383160Y0064049D01*
X1382994Y0063716D01*
X1382827Y0063216D01*
Y0062383D01*
X1382994Y0061883D01*
X1383160Y0061550D01*
X1383494Y0061217D01*
X1383827Y0061050D01*
X1384494D01*
X1384827Y0061217D01*
X1385160Y0061550D01*
X1385327Y0061883D01*
Y0062383D01*
X1384494D02*
X1385327D01*
X1386127Y0064549D02*
Y0061050D01*
Y0064549D02*
X1388459Y0061050D01*
Y0064549D02*
Y0061050D01*
X1391592Y0064549D02*
X1389426D01*
Y0061050D01*
X1391592D01*
X1389426Y0062883D02*
X1390759D01*
X1392175Y0064549D02*
Y0061050D01*
Y0064549D02*
X1393675D01*
X1394175Y0064383D01*
X1394341Y0064216D01*
X1394508Y0063883D01*
Y0063550D01*
X1394341Y0063216D01*
X1394175Y0063050D01*
X1393675Y0062883D01*
X1392175D01*
X1393342D02*
X1394508Y0061050D01*
X1398041Y0064549D02*
X1399374Y0061050D01*
X1400707Y0064549D02*
X1399374Y0061050D01*
X1403323Y0064549D02*
X1401157D01*
Y0061050D01*
X1403323D01*
X1401157Y0062883D02*
X1402490D01*
X1403906Y0064549D02*
Y0061050D01*
Y0064549D02*
X1405406D01*
X1405906Y0064383D01*
X1406072Y0064216D01*
X1406239Y0063883D01*
Y0063550D01*
X1406072Y0063216D01*
X1405906Y0063050D01*
X1405406Y0062883D01*
X1403906D01*
X1405072D02*
X1406239Y0061050D01*
X1409355Y0064049D02*
X1409022Y0064383D01*
X1408522Y0064549D01*
X1407855D01*
X1407355Y0064383D01*
X1407022Y0064049D01*
Y0063716D01*
X1407189Y0063383D01*
X1407355Y0063216D01*
X1407689Y0063050D01*
X1408688Y0062716D01*
X1409022Y0062550D01*
X1409188Y0062383D01*
X1409355Y0062050D01*
Y0061550D01*
X1409022Y0061217D01*
X1408522Y0061050D01*
X1407855D01*
X1407355Y0061217D01*
X1407022Y0061550D01*
X1410138Y0064549D02*
Y0061050D01*
X1411871Y0064549D02*
X1411538Y0064383D01*
X1411204Y0064049D01*
X1411038Y0063716D01*
X1410871Y0063216D01*
Y0062383D01*
X1411038Y0061883D01*
X1411204Y0061550D01*
X1411538Y0061217D01*
X1411871Y0061050D01*
X1412537D01*
X1412871Y0061217D01*
X1413204Y0061550D01*
X1413371Y0061883D01*
X1413537Y0062383D01*
Y0063216D01*
X1413371Y0063716D01*
X1413204Y0064049D01*
X1412871Y0064383D01*
X1412537Y0064549D01*
X1411871D01*
X1414354D02*
Y0061050D01*
Y0064549D02*
X1416687Y0061050D01*
Y0064549D02*
Y0061050D01*
X1417820Y0063383D02*
X1417653Y0063216D01*
X1417820Y0063050D01*
X1417986Y0063216D01*
X1417820Y0063383D01*
Y0061383D02*
X1417653Y0061217D01*
X1417820Y0061050D01*
X1417986Y0061217D01*
X1417820Y0061383D01*
X1361433Y0047717D02*
X1359100D01*
X1361433Y0050050D01*
Y0050633D01*
X1360849Y0051216D01*
X1359683D01*
X1359100Y0050633D01*
X1364348Y0047717D02*
Y0051216D01*
X1362599Y0049467D01*
X1364931D01*
X1366098Y0047717D02*
Y0048300D01*
X1366681D01*
Y0047717D01*
X1366098D01*
X1369014Y0050633D02*
X1369597Y0051216D01*
X1370763D01*
X1371346Y0050633D01*
Y0050050D01*
X1370763Y0049467D01*
X1370180D01*
X1370763D01*
X1371346Y0048884D01*
Y0048300D01*
X1370763Y0047717D01*
X1369597D01*
X1369014Y0048300D01*
X1372512Y0047717D02*
Y0048300D01*
X1373096D01*
Y0047717D01*
X1372512D01*
X1375428D02*
X1376594D01*
X1376011D01*
Y0051216D01*
X1375428Y0050633D01*
X1378344Y0047717D02*
Y0048300D01*
X1378927D01*
Y0047717D01*
X1378344D01*
X1381260Y0050633D02*
X1381843Y0051216D01*
X1383009D01*
X1383592Y0050633D01*
Y0050050D01*
X1383009Y0049467D01*
X1382426D01*
X1383009D01*
X1383592Y0048884D01*
Y0048300D01*
X1383009Y0047717D01*
X1381843D01*
X1381260Y0048300D01*
X1387091Y0051216D02*
X1384758D01*
Y0049467D01*
X1385925Y0050050D01*
X1386508D01*
X1387091Y0049467D01*
Y0048300D01*
X1386508Y0047717D01*
X1385341D01*
X1384758Y0048300D01*
X1354050Y0095549D02*
Y0092050D01*
X1356050D01*
X1359099D02*
X1357766Y0095549D01*
X1356433Y0092050D01*
X1356933Y0093216D02*
X1358599D01*
X1359915Y0095549D02*
X1361248Y0093883D01*
Y0092050D01*
X1362582Y0095549D02*
X1361248Y0093883D01*
X1364031Y0095549D02*
X1363698Y0095383D01*
X1363365Y0095049D01*
X1363198Y0094716D01*
X1363031Y0094216D01*
Y0093383D01*
X1363198Y0092883D01*
X1363365Y0092550D01*
X1363698Y0092217D01*
X1364031Y0092050D01*
X1364698D01*
X1365031Y0092217D01*
X1365364Y0092550D01*
X1365531Y0092883D01*
X1365697Y0093383D01*
Y0094216D01*
X1365531Y0094716D01*
X1365364Y0095049D01*
X1365031Y0095383D01*
X1364698Y0095549D01*
X1364031D01*
X1366514D02*
Y0093050D01*
X1366681Y0092550D01*
X1367014Y0092217D01*
X1367514Y0092050D01*
X1367847D01*
X1368347Y0092217D01*
X1368680Y0092550D01*
X1368847Y0093050D01*
Y0095549D01*
X1370980D02*
Y0092050D01*
X1369813Y0095549D02*
X1372146D01*
X1375312D02*
Y0092050D01*
Y0095549D02*
X1376812D01*
X1377312Y0095383D01*
X1377478Y0095216D01*
X1377645Y0094883D01*
Y0094550D01*
X1377478Y0094216D01*
X1377312Y0094050D01*
X1376812Y0093883D01*
X1375312D02*
X1376812D01*
X1377312Y0093716D01*
X1377478Y0093550D01*
X1377645Y0093216D01*
Y0092716D01*
X1377478Y0092383D01*
X1377312Y0092217D01*
X1376812Y0092050D01*
X1375312D01*
X1378428Y0095549D02*
X1379761Y0093883D01*
Y0092050D01*
X1381094Y0095549D02*
X1379761Y0093883D01*
X1381711Y0094383D02*
X1381544Y0094216D01*
X1381711Y0094050D01*
X1381877Y0094216D01*
X1381711Y0094383D01*
Y0092383D02*
X1381544Y0092217D01*
X1381711Y0092050D01*
X1381877Y0092217D01*
X1381711Y0092383D01*
X0046350Y0071049D02*
Y0067551D01*
X0048683D01*
X0049849D02*
Y0069883D01*
X0051015Y0071049D01*
X0052181Y0069883D01*
Y0067551D01*
Y0069300D01*
X0049849D01*
X0053348Y0071049D02*
Y0070466D01*
X0054514Y0069300D01*
X0055680Y0070466D01*
Y0071049D01*
X0054514Y0069300D02*
Y0067551D01*
X0059179Y0071049D02*
X0056847D01*
Y0067551D01*
X0059179D01*
X0056847Y0069300D02*
X0058013D01*
X0060346Y0067551D02*
Y0071049D01*
X0062095D01*
X0062678Y0070466D01*
Y0069300D01*
X0062095Y0068717D01*
X0060346D01*
X0061512D02*
X0062678Y0067551D01*
X0067343D02*
Y0071049D01*
X0069676Y0067551D01*
Y0071049D01*
X0070842Y0067551D02*
Y0069883D01*
X0072008Y0071049D01*
X0073175Y0069883D01*
Y0067551D01*
Y0069300D01*
X0070842D01*
X0074341Y0067551D02*
Y0071049D01*
X0075507Y0069883D01*
X0076674Y0071049D01*
Y0067551D01*
X0080172Y0071049D02*
X0077840D01*
Y0067551D01*
X0080172D01*
X0077840Y0069300D02*
X0079006D01*
X0084838Y0068717D02*
X0087170D01*
X0084838Y0069883D02*
X0087170D01*
X0046350Y0046966D02*
Y0050465D01*
X0048099D01*
X0048683Y0049882D01*
Y0048716D01*
X0048099Y0048133D01*
X0046350D01*
X0049849Y0050465D02*
Y0046966D01*
X0052181D01*
X0055097Y0050465D02*
X0053931D01*
X0053348Y0049882D01*
Y0047550D01*
X0053931Y0046966D01*
X0055097D01*
X0055680Y0047550D01*
Y0049882D01*
X0055097Y0050465D01*
X0056847D02*
X0059179D01*
X0058013D01*
Y0046966D01*
X0063844D02*
Y0050465D01*
X0066177Y0046966D01*
Y0050465D01*
X0067343Y0046966D02*
Y0049299D01*
X0068510Y0050465D01*
X0069676Y0049299D01*
Y0046966D01*
Y0048716D01*
X0067343D01*
X0070842Y0046966D02*
Y0050465D01*
X0072008Y0049299D01*
X0073175Y0050465D01*
Y0046966D01*
X0076674Y0050465D02*
X0074341D01*
Y0046966D01*
X0076674D01*
X0074341Y0048716D02*
X0075507D01*
X0081339Y0048133D02*
X0083671D01*
X0081339Y0049299D02*
X0083671D01*
X0046350Y0087833D02*
Y0090166D01*
X0047516Y0091332D01*
X0048683Y0090166D01*
Y0087833D01*
Y0089583D01*
X0046350D01*
X0049849Y0091332D02*
Y0087833D01*
X0052181D01*
X0053348Y0091332D02*
Y0087833D01*
X0055680D01*
X0060346D02*
Y0090166D01*
X0061512Y0091332D01*
X0062678Y0090166D01*
Y0087833D01*
Y0089583D01*
X0060346D01*
X0063844Y0087833D02*
Y0091332D01*
X0065594D01*
X0066177Y0090749D01*
Y0089583D01*
X0065594Y0089000D01*
X0063844D01*
X0065011D02*
X0066177Y0087833D01*
X0067343Y0091332D02*
X0069676D01*
X0068510D01*
Y0087833D01*
X0070842Y0091332D02*
Y0087833D01*
X0072008Y0089000D01*
X0073175Y0087833D01*
Y0091332D01*
X0076090D02*
X0074924D01*
X0074341Y0090749D01*
Y0088416D01*
X0074924Y0087833D01*
X0076090D01*
X0076674Y0088416D01*
Y0090749D01*
X0076090Y0091332D01*
X0077840Y0087833D02*
Y0091332D01*
X0079589D01*
X0080172Y0090749D01*
Y0089583D01*
X0079589Y0089000D01*
X0077840D01*
X0079006D02*
X0080172Y0087833D01*
X0081339Y0091332D02*
Y0087833D01*
Y0089000D01*
X0083671Y0091332D01*
X0081922Y0089583D01*
X0083671Y0087833D01*
X0088336Y0091332D02*
Y0089000D01*
X0089503Y0087833D01*
X0090669Y0089000D01*
Y0091332D01*
X0091835D02*
X0093002D01*
X0092418D01*
Y0087833D01*
X0091835D01*
X0093002D01*
X0097084Y0091332D02*
X0094751D01*
Y0087833D01*
X0097084D01*
X0094751Y0089583D02*
X0095917D01*
X0098250Y0091332D02*
Y0087833D01*
X0099416Y0089000D01*
X0100583Y0087833D01*
Y0091332D01*
X0104081D02*
X0101749D01*
Y0087833D01*
X0104081D01*
X0101749Y0089583D02*
X0102915D01*
X0105248Y0091332D02*
Y0087833D01*
X0106997D01*
X0107580Y0088416D01*
Y0090749D01*
X0106997Y0091332D01*
X0105248D01*
X0114578D02*
X0112245D01*
Y0089583D01*
X0113412D01*
X0112245D01*
Y0087833D01*
X0115744D02*
Y0091332D01*
X0117494D01*
X0118077Y0090749D01*
Y0089583D01*
X0117494Y0089000D01*
X0115744D01*
X0116911D02*
X0118077Y0087833D01*
X0120993Y0091332D02*
X0119826D01*
X0119243Y0090749D01*
Y0088416D01*
X0119826Y0087833D01*
X0120993D01*
X0121576Y0088416D01*
Y0090749D01*
X0120993Y0091332D01*
X0122742Y0087833D02*
Y0091332D01*
X0123908Y0090166D01*
X0125075Y0091332D01*
Y0087833D01*
X0129740Y0091332D02*
X0132072D01*
X0130906D01*
Y0087833D01*
X0134988Y0091332D02*
X0133822D01*
X0133239Y0090749D01*
Y0088416D01*
X0133822Y0087833D01*
X0134988D01*
X0135571Y0088416D01*
Y0090749D01*
X0134988Y0091332D01*
X0136738Y0087833D02*
Y0091332D01*
X0138487D01*
X0139070Y0090749D01*
Y0089583D01*
X0138487Y0089000D01*
X0136738D01*
X0146068Y0090749D02*
X0145485Y0091332D01*
X0144318D01*
X0143735Y0090749D01*
Y0090166D01*
X0144318Y0089583D01*
X0145485D01*
X0146068Y0089000D01*
Y0088416D01*
X0145485Y0087833D01*
X0144318D01*
X0143735Y0088416D01*
X0147234Y0091332D02*
X0148400D01*
X0147817D01*
Y0087833D01*
X0147234D01*
X0148400D01*
X0150150Y0091332D02*
Y0087833D01*
X0151899D01*
X0152482Y0088416D01*
Y0090749D01*
X0151899Y0091332D01*
X0150150D01*
X0155981D02*
X0153649D01*
Y0087833D01*
X0155981D01*
X0153649Y0089583D02*
X0154815D01*
M02*
