M48
;Layer_Color=9474304
;FILE_FORMAT=2:5
INCH
;TYPE=PLATED
T01F00S00C0.00400
T02F00S00C0.00600
T03F00S00C0.00787
T04F00S00C0.00800
T05F00S00C0.01200
T06F00S00C0.01600
T07F00S00C0.02500
T09F00S00C0.02913
T10F00S00C0.03346
T11F00S00C0.03543
T12F00S00C0.03937
T13F00S00C0.04000
T14F00S00C0.04016
T15F00S00C0.04213
T16F00S00C0.04331
T17F00S00C0.05197
T18F00S00C0.05512
T19F00S00C0.06811
T20F00S00C0.07480
T21F00S00C0.10039
T22F00S00C0.12598
T23F00S00C0.13400
;TYPE=NON_PLATED
T24F00S00C0.02244
T25F00S00C0.03504
T26F00S00C0.04016
%
T01
X0883783Y0383012
X0883995Y0387585
X0884336Y0392783
X0891989Y0395969
Y0388499
X0891466Y0382253
X0896803Y0431833
X0896643Y0437501
X0897499Y0444116
X0897815Y0449976
X0895958Y0455019
X0892050Y0454207
X0889672Y0459490
X0888219Y0458182
X0883659Y0456884
X0882770Y0457690
X0881625Y0463795
X0879611Y0464080
X0877895Y0464310
X0877797Y0462425
X0874181Y0462126
X0874261Y0464077
X0876276Y0466003
X0877584Y0466573
X0878804Y0467241
X0881691Y0467520
X0882040Y0466310
X0887159Y0464352
X0872425Y0466311
X0870918Y0465277
X0871682Y0462092
X0871961Y0460435
X0868032Y0460517
X0866222Y0460612
X0866457Y0458377
X0862557Y0458777
X0866128Y0467031
X0882767Y0439759
X0885272Y0438691
X0888287Y0434203
X0883718Y0430033
X0890289Y0441645
X0890390Y0443971
X0886989Y0469897
X0885507Y0472300
X0881648Y0472133
X0879689Y0472145
X0879889Y0474345
X0878289
X0876863Y0474031
X0875647Y0474044
X0876001Y0472044
X0874447Y0471796
X0872886Y0471187
X0872747Y0474299
X0875486Y0469937
X0877486Y0469937
X0879421Y0469294
X0881300Y0469933
X0885135Y0476664
X0865931Y0469279
X0874834Y0571648
X0879859Y0572202
X0879828Y0569766
X0880162Y0576159
X0878022Y0575991
X0878079Y0578885
X0879900Y0579321
T02
X0860739Y0465024
X0868957Y0465111
X0868932Y0463322
X0870943Y0463335
X0870209Y0468083
X0868316Y0467807
X0878798Y0461337
X0889397Y0463498
X0871588Y0469951
X0869712Y0470135
X0869649Y0471888
T03
X0308016Y0358936
X0311559
X0309788Y0361298
X0311559Y0363660
X0308016
Y0391323
X0311559
X0309788Y0393686
X0308016Y0396048
X0311559
X0366339Y0389978
Y0386434
X0368701Y0388206
X0371063Y0389978
Y0386434
X0871668Y0518733
X0875998
X0880329
Y0523064
X0875998
X0871668
Y0527394
X0875998
X0880329
T04
X0755489Y0299245
X0778793Y0299264
X0773125Y0305065
X0582481Y0301288
X0577745Y0300897
X0578745Y0307707
X0376882Y0334686
X0577522Y0332560
X0582384Y0330092
X0550301Y0428837
X0514561Y0429067
X0757289Y0313045
X0761489
X0765346Y0312891
X0769283Y0312906
X0777126Y0313103
X0788989Y0318445
X0794185Y0319666
X0792789Y0326845
X0796853Y0326277
X0800229Y0326170
X0809135Y0331135
X0813799Y0335746
X0824561Y0333883
X0824315Y0339940
X0831864Y0345374
X0840689Y0339545
X0856155Y0344141
X0867728Y0348130
X0855895Y0360355
X0852389Y0367045
X0853989Y0374645
X0863720Y0375769
X0844792Y0362448
X0837847Y0357247
X0816512Y0357222
X0806289Y0346945
X0802768Y0348569
X0793389Y0341545
X0789715Y0337609
X0792380Y0333090
X0786963Y0349855
X0819189Y0325245
X0858739Y0404778
X0865389Y0406945
X0853783Y0416162
X0847688Y0422204
Y0427783
X0855223Y0452388
X0856852Y0454315
X0853161Y0458954
X0860089Y0460845
X0862589Y0462345
X0870017Y0448991
X0843054Y0465420
X0847730Y0471463
X0845232Y0476736
X0842789Y0485745
X0847974Y0485733
X0844897Y0493654
X0848713Y0498366
X0858778Y0491639
X0859789Y0484045
X0865889Y0484145
X0868985Y0475058
X0872847Y0476298
X0867289Y0500245
X0869331Y0502857
X0867319Y0508069
X0875773Y0509557
X0877965Y0509613
X0883501Y0501377
X0887987Y0505480
X0898593Y0507460
X0898018Y0510938
X0897905Y0520112
X0893126Y0517737
X0889354Y0520645
X0889088Y0522817
X0889500Y0524774
X0889904Y0526839
X0889960Y0528893
X0884789Y0534102
X0883394Y0537916
X0879814Y0536570
X0877815Y0536648
X0872094Y0534453
X0866948Y0534481
X0859147Y0534181
Y0539697
X0862534Y0552116
X0867632Y0556276
X0867889Y0564145
X0866132Y0574153
X0888316Y0574259
X0879989Y0584345
X0880826Y0610304
X0877770Y0619770
X0869446Y0611503
X0867347Y0611571
X0862589Y0599645
X0863075Y0598032
X0860405Y0595362
X0854089Y0624345
X0849889Y0624445
X0843489Y0539045
X0840808Y0532392
X0849436Y0532891
X0855698Y0527049
X0862737Y0523004
X0862429Y0520883
X0862370Y0518694
X0862314Y0516654
X0862233Y0514368
X0844819Y0518121
X0881260Y0546256
X0895903Y0545224
X0895936Y0541657
X0897949Y0539542
X0896139Y0537545
X0898012Y0552430
X0893554Y0551751
X0899489Y0500045
X0867889Y0629445
T05
X0318705Y0430698
Y0433898
X0357379Y0448565
X0356105Y0466798
X0444419Y0464536
X0451488Y0464627
X0462824Y0446865
X0462217Y0433882
X0461950Y0430350
X0466489Y0435545
X0438579Y0443209
X0434689Y0449645
X0480289Y0445945
X0479901Y0435466
X0256889Y0509145
X0238189Y0506345
X0235089Y0523145
X0259789Y0528945
X0274289Y0549087
X0278989Y0560645
X0235504Y0585329
X0265489Y0692245
X0280989Y0710445
X0285489Y0721833
X0280989Y0732745
X0265189Y0745145
X0211589Y0774045
X0211889Y0782545
X0230270Y0830533
X0230090Y0835525
X0230315Y0840652
X0245534Y0840868
X0245498Y0835267
X0245378Y0830074
X0249589Y0864845
X0249889Y0873345
T06
X0626192Y0299456
X0648197Y0296658
X0654748Y0301285
X0659263Y0302779
X0656723Y0305766
X0670270Y0303651
X0685832Y0310347
X0693468Y0295618
X0737041Y0309960
X0561589Y0308545
X0560789Y0312445
X0499387Y0312072
X0497672Y0306768
X0489011Y0307997
X0462576Y0305411
X0456020Y0310362
X0418236Y0306541
X0364360Y0300801
X0341989Y0309645
X0320389Y0312445
X0314707Y0310249
X0307842Y0353501
Y0385888
X0285638Y0416684
X0275041Y0419029
X0288594Y0430948
X0292794
X0228989Y0441945
X0229382Y0446015
X0216782Y0445915
X0216589Y0441945
X0328694Y0442248
X0337105Y0467259
X0356422Y0454485
X0386489Y0434545
X0403189Y0436545
X0400589Y0440745
X0414664Y0434748
X0414604Y0428470
X0415204Y0421993
X0434403Y0427604
X0425185Y0403853
X0379905Y0405100
X0376581Y0396966
X0360732Y0396984
X0348601Y0387686
X0348501Y0378086
X0346389Y0364545
X0356889Y0360345
X0366513Y0350835
X0370392Y0350978
X0376189Y0350445
X0389889Y0350045
X0394508Y0330393
X0394371Y0326370
X0372896Y0328476
X0372390Y0334762
X0347589Y0318045
X0337827Y0318311
X0320189Y0319245
X0334867Y0341797
X0326131Y0369993
X0326299Y0402618
X0341180Y0406927
X0340639Y0413414
X0376701Y0376386
X0462928Y0349463
X0467960Y0340355
X0463989Y0335445
X0462388Y0441252
X0516882Y0447836
X0521702Y0433394
X0557072Y0433191
X0551912Y0447836
X0538292Y0398847
X0534344Y0388793
X0532848Y0383554
X0519352Y0391374
X0508611Y0399780
X0511952Y0403974
X0489391Y0345880
X0484878Y0345978
X0495761Y0339040
X0490561Y0328975
X0492855Y0321932
X0480929Y0325538
X0470000Y0355846
X0542315Y0348569
X0544721Y0344932
X0568883Y0334587
X0574271Y0338313
X0568694Y0322022
X0582355Y0320257
X0593258Y0321313
X0588534Y0329485
X0600758Y0337450
X0604261Y0340077
X0611823Y0342476
X0612295Y0315928
X0604076Y0316211
X0630718Y0315125
X0631175Y0343093
X0625663Y0343090
X0662332Y0333894
X0671789Y0342445
X0679590Y0349353
X0681789Y0353974
X0693989Y0354445
X0697776Y0353867
X0713592Y0351489
X0718352Y0338492
X0696584Y0333540
X0685757Y0333752
X0671189Y0317245
X0721862Y0313893
X0756806Y0322652
X0776324Y0319640
X0768805Y0358994
X0788138Y0460477
X0799889Y0463445
X0800383Y0453041
X0799789Y0481145
X0794785Y0480565
X0784132Y0472150
X0783183Y0490947
X0800195Y0579514
X0799943Y0583810
Y0587602
X0706758Y0578537
X0707179Y0569701
X0707389Y0559812
X0695220Y0594694
X0685428Y0612980
X0688546Y0619309
X0671589Y0620945
X0671275Y0610805
X0658289Y0596545
X0734837Y0504699
X0751699Y0506932
X0771989Y0489445
X0779284Y0496573
X0599939Y0516955
X0594878Y0516835
X0599389Y0542444
Y0547444
X0600789Y0607945
X0600489Y0613145
X0517589Y0502179
X0324318Y0511329
X0327389Y0528345
X0320311Y0535096
X0322306Y0542045
X0284989Y0539845
X0284315Y0523565
X0287015Y0519665
X0300189Y0515245
X0300105Y0471858
X0285289Y0562187
X0285489Y0579445
X0273728Y0571450
X0253589Y0567945
X0256889Y0581445
X0289789Y0683145
X0292089Y0686545
X0287089Y0687045
X0289119Y0696151
X0291516Y0700972
X0302489Y0696745
X0291989Y0723545
X0273308Y0722321
X0267689Y0725045
X0262889Y0732845
X0264189Y0740345
X0296189Y0759745
X0295889Y0766345
X0329289Y0697945
X0326989Y0690045
X0336339Y0690495
X0352742Y0680792
X0320189Y0676745
X0391702Y0668229
X0402789Y0667845
X0398655Y0678776
X0409218Y0681969
X0502340Y0667697
X0527183Y0651934
X0527004Y0638956
X0539304Y0645456
X0589989Y0628745
X0594289Y0628645
X0618389Y0663345
X0590289Y0685495
X0585289
X0596589Y0701194
Y0706194
Y0780595
X0627521Y0663430
X0662723Y0630755
X0677567Y0633242
X0719644Y0750474
X0761444Y0750174
X0788776Y0710083
X0788565Y0693316
X0842565Y0685979
X0842865Y0681279
X0837981Y0680854
X0861729Y0664084
X0866065Y0661879
X0869665Y0661946
X0874453Y0662265
X0874237Y0647965
X0874275Y0645005
X0866275Y0645305
X0862696Y0645315
X0863305Y0640672
X0842243Y0638178
X0844418Y0634894
X0839781Y0634498
X0882028Y0633918
X0882235Y0645587
X0884170Y0676284
X0897013Y0672362
X0878714Y0694061
X0781489Y0802545
X0797789Y0881505
Y0885945
X0755717Y0910546
X0752236Y0916789
X0752940Y0926964
X0729358Y0918698
X0734304Y0913330
X0732619Y0906781
X0715258Y0913873
X0714208Y0918373
X0692682Y0902436
X0693051Y0895670
X0683799Y0895368
X0678432Y0906670
X0682892Y0827392
Y0822358
X0672969Y0817025
X0673737Y0811025
X0662988
X0719644Y0787274
X0757989Y0788145
X0742072Y0827596
X0730013Y0830544
X0724017Y0833659
X0596589Y0785595
X0589589Y0792595
X0584589
X0479336Y0839019
X0483174Y0844956
X0464489Y0857975
X0377039Y0870589
X0373048Y0878325
X0368407Y0878092
X0361112Y0880839
X0349970Y0880838
X0354589Y0892045
X0347989Y0901245
X0371992Y0907563
X0360517Y0922020
X0383347Y0892280
X0379608Y0881948
X0358699Y0868583
X0315810Y0876822
X0312689Y0874698
X0305170Y0879641
X0297766Y0885049
X0293644Y0887118
X0286242Y0895854
Y0903200
X0277839Y0914193
X0277310Y0891414
X0268378
X0298467Y0918287
X0291789Y0926845
X0252489Y0936645
X0302664Y0861848
X0303006Y0857643
X0262215Y0938403
X0241259Y0937708
X0324589Y0939845
X0321879Y0956528
X0372589Y0948945
X0530906Y0943058
X0547409Y0940531
X0582254Y0954934
X0731689Y0952745
T07
X0848189Y0463545
X0878189Y0452045
X0858989Y0470545
Y0476545
T09
X0861489Y0625945
X0887080
T10
X0777489Y0433955
Y0447735
X0789389Y0544845
X0775609
X0595235Y0508194
Y0496695
X0555943
Y0508194
X0553143Y0634594
Y0646594
X0548643Y0667645
Y0679145
X0587935
Y0667645
X0592435Y0646594
Y0634594
X0876189Y0761755
Y0775535
X0807379Y0788045
X0793599
X0587735Y0805245
X0587635Y0816345
X0548343
X0548443Y0805245
T11
X0223646Y0554687
X0243332
X0228689Y0606602
Y0626287
X0228889Y0662945
Y0682630
X0221004Y0732745
X0240689
T12
X0363878Y0559760
Y0569760
Y0579760
X0439978
Y0569760
Y0559760
X0439889Y0732445
Y0742445
Y0752445
X0363789
Y0742445
Y0732445
T13
X0275105Y0356801
X0274305Y0391598
X0292794Y0464548
X0351489Y0356145
X0437719Y0402576
X0548489Y0410145
X0474089Y0471845
X0451489Y0471945
X0430489Y0471845
X0410389Y0472145
X0257489Y0595445
X0858089Y0652045
X0858489Y0672645
X0505689Y0848045
T14
X0215278Y0867145
Y0878956
X0227089
Y0867145
T15
X0893489Y0356445
Y0366445
X0896389Y0486145
X0886389
T16
X0579925Y0402745
X0609453
X0652861Y0399445
X0682389
X0724261Y0401845
X0753789
X0701189Y0456245
X0626789Y0454417
X0815989Y0416272
Y0386745
X0877189Y0372545
Y0362545
Y0352545
Y0342545
X0812189Y0574781
Y0604309
X0701189Y0485773
X0626789Y0483945
X0798925Y0662445
X0828453
X0830753Y0734845
X0801225
X0839361Y0848245
X0868889
X0778889Y0854645
Y0825117
X0705889Y0837781
Y0867309
X0631889Y0869209
Y0839681
X0649289Y0928745
X0619761
X0557389Y0873073
Y0843545
X0278689Y0952545
X0268689
X0258689
X0248689
T17
X0483089Y0529145
Y0549145
Y0569145
Y0589145
Y0609145
X0563089
Y0589145
Y0569145
Y0549145
Y0529145
X0565289Y0703345
Y0723345
Y0743345
Y0763345
X0485289
Y0743345
Y0723345
Y0703345
Y0783345
X0565289
T18
X0631789Y0544445
X0631189Y0606745
X0611189
X0611789Y0544445
X0610389Y0703845
X0630389
Y0783345
X0610389
T19
X0621289Y0565845
X0621489Y0626645
X0620389Y0684645
Y0764045
T20
X0712389Y0528558
Y0642732
X0715989Y0686358
Y0800531
T21
X0351789Y0519345
X0451278Y0519760
Y0619760
X0351789Y0619345
X0352389Y0692445
X0451189
Y0792445
X0352389
T22
X0536489Y0308745
T23
X0262289Y0308745
X0857089Y0320145
X0536389Y0483645
X0261289
X0880189Y0719045
X0863889Y0926645
X0229289Y0917545
T24
X0893760Y0577762
T25
X0855583Y0636378
X0892985
T26
X0230790Y0855334
Y0890767
M30
