G04*
G04 #@! TF.GenerationSoftware,Altium Limited,Altium Designer,24.3.1 (35)*
G04*
G04 Layer_Physical_Order=5*
G04 Layer_Color=8388608*
%FSAX25Y25*%
%MOIN*%
G70*
G04*
G04 #@! TF.SameCoordinates,8ECB5597-4BEE-4FB2-8F1C-C82D3C8D71A6*
G04*
G04*
G04 #@! TF.FilePolarity,Positive*
G04*
G01*
G75*
%ADD13C,0.01000*%
%ADD16C,0.00800*%
%ADD18C,0.00600*%
%ADD25C,0.00400*%
%ADD252C,0.06496*%
%ADD254C,0.07284*%
%ADD255C,0.05512*%
%ADD262C,0.05315*%
%ADD264C,0.06299*%
%ADD271R,0.07284X0.07284*%
%ADD272C,0.07284*%
%ADD273R,0.05315X0.05315*%
%ADD280R,0.07284X0.07284*%
%ADD281R,0.05315X0.05315*%
%ADD283C,0.01600*%
%ADD284C,0.03200*%
%ADD285C,0.00800*%
%ADD287C,0.01968*%
%ADD288C,0.02400*%
G36*
X0851099Y0936534D02*
X0850785Y0936166D01*
X0849457Y0933999D01*
X0848484Y0931650D01*
X0847890Y0929179D01*
X0847691Y0926645D01*
X0847890Y0924111D01*
X0848484Y0921639D01*
X0849457Y0919291D01*
X0850785Y0917124D01*
X0852435Y0915191D01*
X0854368Y0913540D01*
X0856535Y0912212D01*
X0858883Y0911240D01*
X0861355Y0910646D01*
X0863889Y0910447D01*
X0866423Y0910646D01*
X0868894Y0911240D01*
X0871243Y0912212D01*
X0873410Y0913540D01*
X0873779Y0913855D01*
X0888889Y0898745D01*
Y0756600D01*
X0821802Y0680974D01*
X0718994Y0681327D01*
X0718825Y0681827D01*
X0719784Y0682563D01*
X0720637Y0683675D01*
X0721173Y0684969D01*
X0721356Y0686358D01*
X0721173Y0687747D01*
X0720637Y0689042D01*
X0719784Y0690153D01*
X0718673Y0691006D01*
X0717378Y0691543D01*
X0715989Y0691725D01*
X0714600Y0691543D01*
X0713305Y0691006D01*
X0712194Y0690153D01*
X0711341Y0689042D01*
X0710805Y0687747D01*
X0710622Y0686358D01*
X0710805Y0684969D01*
X0711341Y0683675D01*
X0712194Y0682563D01*
X0713127Y0681847D01*
X0712956Y0681348D01*
X0684589Y0681445D01*
X0624586D01*
X0624365Y0681893D01*
X0624607Y0682209D01*
X0625094Y0683384D01*
X0625260Y0684645D01*
X0625094Y0685906D01*
X0624607Y0687080D01*
X0623833Y0688089D01*
X0622824Y0688863D01*
X0621650Y0689350D01*
X0620389Y0689516D01*
X0619128Y0689350D01*
X0617954Y0688863D01*
X0616945Y0688089D01*
X0616171Y0687080D01*
X0615684Y0685906D01*
X0615518Y0684645D01*
X0615684Y0683384D01*
X0616171Y0682209D01*
X0616413Y0681893D01*
X0616192Y0681445D01*
X0589960D01*
X0589477Y0681816D01*
X0588733Y0682124D01*
X0587935Y0682229D01*
X0587137Y0682124D01*
X0586393Y0681816D01*
X0585910Y0681445D01*
X0411547D01*
X0411229Y0681831D01*
X0411257Y0681969D01*
X0411101Y0682749D01*
X0410659Y0683411D01*
X0409998Y0683853D01*
X0409218Y0684008D01*
X0408437Y0683853D01*
X0407775Y0683411D01*
X0407334Y0682749D01*
X0407178Y0681969D01*
X0407206Y0681831D01*
X0406888Y0681445D01*
X0388689D01*
X0378989Y0671745D01*
Y0659645D01*
X0390089Y0648545D01*
X0589519D01*
X0589726Y0648045D01*
X0589456Y0647393D01*
X0589351Y0646594D01*
X0589456Y0645796D01*
X0589764Y0645053D01*
X0590254Y0644414D01*
X0590893Y0643924D01*
X0591637Y0643616D01*
X0592435Y0643511D01*
X0593233Y0643616D01*
X0593977Y0643924D01*
X0594615Y0644414D01*
X0595105Y0645053D01*
X0595413Y0645796D01*
X0595518Y0646594D01*
X0595413Y0647393D01*
X0595143Y0648045D01*
X0595350Y0648545D01*
X0620900D01*
X0621089Y0648945D01*
X0676489D01*
X0848480Y0476954D01*
X0812924Y0441398D01*
X0485989D01*
X0481841Y0445546D01*
X0481920Y0445945D01*
X0481796Y0446569D01*
X0481442Y0447098D01*
X0480913Y0447452D01*
X0480289Y0447576D01*
X0479665Y0447452D01*
X0479135Y0447098D01*
X0478782Y0446569D01*
X0478658Y0445945D01*
X0478782Y0445321D01*
X0479135Y0444791D01*
X0479665Y0444438D01*
X0480289Y0444313D01*
X0480688Y0444393D01*
X0484908Y0440172D01*
X0485173Y0439995D01*
X0485485Y0439933D01*
X0485797Y0439995D01*
X0485953Y0440099D01*
X0813193D01*
X0813652Y0440290D01*
X0849398Y0476036D01*
X0853689Y0471745D01*
Y0460582D01*
X0853189Y0460172D01*
X0853161Y0460177D01*
X0852693Y0460084D01*
X0852296Y0459819D01*
X0852030Y0459422D01*
X0851937Y0458954D01*
X0852030Y0458486D01*
X0852296Y0458089D01*
X0852693Y0457823D01*
X0853161Y0457730D01*
X0853189Y0457736D01*
X0853689Y0457326D01*
Y0455610D01*
X0852812Y0454733D01*
X0852812Y0454733D01*
X0852635Y0454469D01*
X0852573Y0454156D01*
X0852573Y0454156D01*
Y0452542D01*
X0852596Y0452430D01*
X0852606Y0452315D01*
X0852627Y0452275D01*
X0852635Y0452230D01*
X0852699Y0452135D01*
X0852752Y0452033D01*
X0853689Y0450862D01*
Y0435561D01*
X0853078Y0434950D01*
X0831001D01*
X0830542Y0434760D01*
X0821976Y0426194D01*
X0490326D01*
X0481453Y0435068D01*
X0481532Y0435466D01*
X0481408Y0436091D01*
X0481054Y0436620D01*
X0480525Y0436973D01*
X0479901Y0437098D01*
X0479277Y0436973D01*
X0478747Y0436620D01*
X0478394Y0436091D01*
X0478269Y0435466D01*
X0478394Y0434842D01*
X0478747Y0434313D01*
X0479277Y0433959D01*
X0479901Y0433835D01*
X0480299Y0433914D01*
X0489246Y0424968D01*
X0489510Y0424791D01*
X0489822Y0424729D01*
X0490134Y0424791D01*
X0490290Y0424895D01*
X0822245D01*
X0822705Y0425086D01*
X0831271Y0433652D01*
X0853347D01*
X0853689Y0433423D01*
Y0417367D01*
X0853315Y0417293D01*
X0852918Y0417027D01*
X0852653Y0416631D01*
X0852560Y0416162D01*
X0852653Y0415694D01*
X0852918Y0415297D01*
X0853315Y0415032D01*
X0853689Y0414958D01*
Y0394545D01*
X0839089Y0379945D01*
Y0378645D01*
X0807689D01*
X0770189Y0341145D01*
X0605953D01*
X0605703Y0341519D01*
X0605041Y0341961D01*
X0604261Y0342116D01*
X0603481Y0341961D01*
X0602819Y0341519D01*
X0602569Y0341145D01*
X0594889D01*
X0582589Y0353445D01*
Y0355145D01*
X0543989D01*
X0543689Y0355445D01*
X0524189Y0335945D01*
Y0334245D01*
X0477989D01*
X0473389Y0329645D01*
Y0307445D01*
X0456789Y0290845D01*
X0267689D01*
X0265963Y0292571D01*
X0266098Y0293053D01*
X0267294Y0293340D01*
X0269643Y0294312D01*
X0271810Y0295640D01*
X0273743Y0297291D01*
X0275393Y0299224D01*
X0276722Y0301391D01*
X0277694Y0303739D01*
X0278288Y0306211D01*
X0278487Y0308745D01*
X0278288Y0311279D01*
X0277694Y0313750D01*
X0276722Y0316099D01*
X0275393Y0318266D01*
X0273743Y0320199D01*
X0271810Y0321849D01*
X0269643Y0323177D01*
X0267294Y0324150D01*
X0264823Y0324743D01*
X0262289Y0324943D01*
X0259755Y0324743D01*
X0257283Y0324150D01*
X0254935Y0323177D01*
X0252768Y0321849D01*
X0250835Y0320199D01*
X0249185Y0318266D01*
X0247856Y0316099D01*
X0246884Y0313750D01*
X0246597Y0312554D01*
X0246115Y0312419D01*
X0206789Y0351745D01*
Y0564145D01*
X0218789Y0576145D01*
X0239589D01*
X0250789Y0587345D01*
Y0648445D01*
Y0756845D01*
X0238189Y0769445D01*
Y0786845D01*
X0205889Y0819145D01*
Y0921245D01*
X0244633Y0953516D01*
X0245103Y0953257D01*
X0245009Y0952545D01*
X0245135Y0951593D01*
X0245502Y0950705D01*
X0246087Y0949943D01*
X0246849Y0949358D01*
X0247737Y0948991D01*
X0248689Y0948865D01*
X0249641Y0948991D01*
X0250529Y0949358D01*
X0251291Y0949943D01*
X0251875Y0950705D01*
X0252243Y0951593D01*
X0252368Y0952545D01*
X0252243Y0953497D01*
X0251875Y0954385D01*
X0251291Y0955147D01*
X0250529Y0955731D01*
X0249641Y0956099D01*
X0248689Y0956224D01*
X0248661Y0956221D01*
X0248452Y0956698D01*
X0253191Y0960645D01*
X0405389D01*
X0826989Y0960645D01*
X0851099Y0936534D01*
D02*
G37*
G36*
X0217454Y0780380D02*
X0217356Y0780145D01*
Y0774945D01*
X0217483Y0774639D01*
X0217789Y0774512D01*
X0223322D01*
X0243889Y0753945D01*
Y0734514D01*
X0243389Y0734380D01*
X0243214Y0734683D01*
X0242627Y0735270D01*
X0241907Y0735686D01*
X0241105Y0735901D01*
X0240273D01*
X0239471Y0735686D01*
X0238751Y0735270D01*
X0238164Y0734683D01*
X0237748Y0733963D01*
X0237533Y0733160D01*
Y0732329D01*
X0237748Y0731527D01*
X0238164Y0730807D01*
X0238751Y0730220D01*
X0239471Y0729804D01*
X0240273Y0729589D01*
X0241105D01*
X0241907Y0729804D01*
X0242627Y0730220D01*
X0243214Y0730807D01*
X0243389Y0731110D01*
X0243889Y0730976D01*
Y0602345D01*
X0237289Y0595745D01*
X0216789D01*
X0203789Y0608745D01*
Y0780176D01*
X0207713Y0784445D01*
X0213389D01*
X0217454Y0780380D01*
D02*
G37*
G36*
X0893289Y0686445D02*
X0901189Y0678545D01*
Y0338945D01*
X0854889Y0292645D01*
X0807589D01*
X0786989Y0313245D01*
Y0324280D01*
X0795985Y0331393D01*
X0796081Y0337692D01*
X0789852Y0342141D01*
X0785489Y0344923D01*
Y0350045D01*
X0786489Y0351045D01*
X0862689Y0351045D01*
X0871088Y0359444D01*
X0871733Y0359382D01*
X0875104Y0356012D01*
X0875039Y0355516D01*
X0874949Y0355464D01*
X0874270Y0354785D01*
X0873790Y0353953D01*
X0873541Y0353025D01*
Y0352065D01*
X0873790Y0351137D01*
X0874270Y0350305D01*
X0874949Y0349626D01*
X0875781Y0349146D01*
X0876709Y0348897D01*
X0877669D01*
X0878597Y0349146D01*
X0879429Y0349626D01*
X0880108Y0350305D01*
X0880588Y0351137D01*
X0880837Y0352065D01*
Y0353025D01*
X0880588Y0353953D01*
X0880108Y0354785D01*
X0879429Y0355464D01*
X0878597Y0355944D01*
X0877669Y0356193D01*
X0876759D01*
X0872638Y0360314D01*
Y0360994D01*
X0873223Y0361579D01*
X0873706Y0361449D01*
X0873790Y0361137D01*
X0874270Y0360305D01*
X0874949Y0359626D01*
X0875781Y0359145D01*
X0876709Y0358897D01*
X0877669D01*
X0878597Y0359145D01*
X0879429Y0359626D01*
X0880108Y0360305D01*
X0880588Y0361137D01*
X0880837Y0362065D01*
Y0363025D01*
X0880588Y0363953D01*
X0880108Y0364785D01*
X0879429Y0365464D01*
X0878597Y0365944D01*
X0878284Y0366028D01*
X0878155Y0366511D01*
X0892469Y0380825D01*
Y0387848D01*
X0892667Y0388046D01*
X0892789Y0388340D01*
Y0388658D01*
X0892667Y0388952D01*
X0892469Y0389150D01*
Y0395318D01*
X0892667Y0395516D01*
X0892789Y0395810D01*
Y0396128D01*
X0892667Y0396422D01*
X0892469Y0396620D01*
Y0453514D01*
X0892504Y0453528D01*
X0892729Y0453754D01*
X0892850Y0454047D01*
Y0454366D01*
X0892729Y0454660D01*
X0892504Y0454885D01*
X0892469Y0454899D01*
Y0485089D01*
X0892969Y0485155D01*
X0893072Y0484771D01*
X0893541Y0483959D01*
X0894203Y0483297D01*
X0895015Y0482828D01*
X0895920Y0482585D01*
X0896858D01*
X0897763Y0482828D01*
X0898575Y0483297D01*
X0899237Y0483959D01*
X0899706Y0484771D01*
X0899948Y0485676D01*
Y0486614D01*
X0899706Y0487519D01*
X0899237Y0488330D01*
X0898575Y0488993D01*
X0897763Y0489462D01*
X0896858Y0489704D01*
X0895920D01*
X0895015Y0489462D01*
X0894203Y0488993D01*
X0893541Y0488330D01*
X0893072Y0487519D01*
X0892969Y0487135D01*
X0892469Y0487201D01*
Y0516260D01*
X0892885Y0516538D01*
X0892887Y0516537D01*
X0893365D01*
X0893806Y0516720D01*
X0894143Y0517058D01*
X0894326Y0517498D01*
Y0517976D01*
X0894143Y0518417D01*
X0893806Y0518755D01*
X0893365Y0518937D01*
X0892887D01*
X0892885Y0518936D01*
X0892469Y0519214D01*
Y0550431D01*
X0892633Y0550553D01*
X0892969Y0550694D01*
X0893315Y0550551D01*
X0893792D01*
X0894233Y0550733D01*
X0894571Y0551071D01*
X0894754Y0551512D01*
Y0551989D01*
X0894571Y0552430D01*
X0894233Y0552768D01*
X0893792Y0552951D01*
X0893315D01*
X0892969Y0552807D01*
X0892633Y0552948D01*
X0892469Y0553070D01*
Y0576192D01*
X0892676Y0576327D01*
X0892969Y0576441D01*
X0893457Y0576239D01*
X0894063D01*
X0894622Y0576471D01*
X0895050Y0576899D01*
X0895282Y0577459D01*
Y0578064D01*
X0895050Y0578624D01*
X0894622Y0579052D01*
X0894063Y0579284D01*
X0893457D01*
X0892969Y0579081D01*
X0892676Y0579196D01*
X0892469Y0579331D01*
Y0612165D01*
X0865028Y0639606D01*
X0865305Y0640274D01*
Y0641069D01*
X0865000Y0641805D01*
X0864438Y0642367D01*
X0863702Y0642672D01*
X0862907D01*
X0862239Y0642395D01*
X0861550Y0643084D01*
X0861833Y0643508D01*
X0862299Y0643315D01*
X0863094D01*
X0863829Y0643620D01*
X0864154Y0643945D01*
X0864492Y0644125D01*
X0864808Y0643945D01*
X0865142Y0643610D01*
X0865878Y0643305D01*
X0866673D01*
X0867408Y0643610D01*
X0867971Y0644172D01*
X0868275Y0644907D01*
Y0645703D01*
X0867971Y0646438D01*
X0867408Y0647001D01*
X0866673Y0647305D01*
X0865878D01*
X0865142Y0647001D01*
X0864818Y0646676D01*
X0864480Y0646495D01*
X0864164Y0646676D01*
X0863829Y0647011D01*
X0863094Y0647315D01*
X0862299D01*
X0861563Y0647011D01*
X0861001Y0646448D01*
X0860696Y0645713D01*
Y0644917D01*
X0860889Y0644452D01*
X0860465Y0644168D01*
X0857474Y0647159D01*
X0857696Y0647645D01*
X0858668D01*
X0859787Y0647945D01*
X0860791Y0648524D01*
X0861610Y0649343D01*
X0862189Y0650347D01*
X0862489Y0651466D01*
Y0652624D01*
X0862189Y0653743D01*
X0861610Y0654746D01*
X0860791Y0655566D01*
X0859787Y0656145D01*
X0858668Y0656445D01*
X0857510D01*
X0856391Y0656145D01*
X0855387Y0655566D01*
X0854568Y0654746D01*
X0853989Y0653743D01*
X0853689Y0652624D01*
Y0651652D01*
X0853204Y0651430D01*
X0849289Y0655345D01*
Y0679661D01*
X0855759Y0686645D01*
X0866037D01*
Y0680234D01*
X0866164Y0679928D01*
X0866470Y0679801D01*
X0874470D01*
X0874776Y0679928D01*
X0874903Y0680234D01*
Y0686645D01*
X0893289D01*
Y0686445D01*
D02*
G37*
G36*
X0825578Y0665455D02*
X0825570Y0665328D01*
X0824922Y0664483D01*
X0824515Y0663500D01*
X0824376Y0662445D01*
X0824515Y0661390D01*
X0824922Y0660407D01*
X0825570Y0659562D01*
X0826414Y0658914D01*
X0827398Y0658507D01*
X0828453Y0658368D01*
X0829508Y0658507D01*
X0830491Y0658914D01*
X0831335Y0659562D01*
X0831463Y0659571D01*
X0853660Y0637373D01*
X0853556Y0637218D01*
X0853389Y0636378D01*
X0853556Y0635538D01*
X0854032Y0634827D01*
X0854744Y0634351D01*
X0855583Y0634184D01*
X0856423Y0634351D01*
X0856579Y0634455D01*
X0861736Y0629298D01*
X0861502Y0628825D01*
X0861489Y0628826D01*
X0860743Y0628728D01*
X0860048Y0628440D01*
X0859452Y0627982D01*
X0858994Y0627386D01*
X0858706Y0626691D01*
X0858608Y0625945D01*
X0858706Y0625199D01*
X0858994Y0624504D01*
X0859452Y0623908D01*
X0860048Y0623450D01*
X0860743Y0623162D01*
X0861489Y0623064D01*
X0862235Y0623162D01*
X0862930Y0623450D01*
X0863526Y0623908D01*
X0863984Y0624504D01*
X0864272Y0625199D01*
X0864370Y0625945D01*
X0864369Y0625958D01*
X0864842Y0626192D01*
X0879789Y0611245D01*
Y0610911D01*
X0879696Y0610772D01*
X0879603Y0610304D01*
X0879696Y0609836D01*
X0879789Y0609696D01*
X0879789Y0580217D01*
X0879549Y0580169D01*
X0879251Y0579970D01*
X0879144Y0579810D01*
X0878932Y0579669D01*
X0878540Y0579659D01*
X0878430Y0579733D01*
X0878079Y0579803D01*
X0877728Y0579733D01*
X0877430Y0579534D01*
X0877231Y0579236D01*
X0877161Y0578885D01*
X0877231Y0578534D01*
X0877430Y0578236D01*
X0877728Y0578037D01*
X0878079Y0577967D01*
X0878430Y0578037D01*
X0878728Y0578236D01*
X0878834Y0578396D01*
X0879047Y0578537D01*
X0879338Y0578544D01*
X0879789Y0578197D01*
Y0576993D01*
X0879513Y0576808D01*
X0879314Y0576511D01*
X0879314Y0576509D01*
X0879261Y0576489D01*
X0878793Y0576456D01*
X0878670Y0576640D01*
X0878373Y0576839D01*
X0878022Y0576909D01*
X0877670Y0576839D01*
X0877373Y0576640D01*
X0877174Y0576342D01*
X0877104Y0575991D01*
X0877174Y0575640D01*
X0877373Y0575342D01*
X0877670Y0575143D01*
X0878022Y0575074D01*
X0878373Y0575143D01*
X0878670Y0575342D01*
X0878869Y0575640D01*
X0878870Y0575642D01*
X0878922Y0575662D01*
X0879390Y0575695D01*
X0879513Y0575511D01*
X0879789Y0575326D01*
Y0573105D01*
X0879508Y0573050D01*
X0879211Y0572851D01*
X0879012Y0572553D01*
X0878942Y0572202D01*
X0879012Y0571851D01*
X0879211Y0571553D01*
X0879508Y0571354D01*
X0879789Y0571298D01*
Y0570676D01*
X0879477Y0570614D01*
X0879179Y0570415D01*
X0878980Y0570117D01*
X0878910Y0569766D01*
X0878980Y0569415D01*
X0879179Y0569117D01*
X0879477Y0568918D01*
X0879789Y0568856D01*
Y0537788D01*
X0879346Y0537700D01*
X0878949Y0537435D01*
X0878486Y0537643D01*
X0878284Y0537778D01*
X0877815Y0537872D01*
X0877347Y0537778D01*
X0876950Y0537513D01*
X0876685Y0537116D01*
X0876592Y0536648D01*
X0876685Y0536180D01*
X0876950Y0535783D01*
X0877347Y0535518D01*
X0877815Y0535424D01*
X0878284Y0535518D01*
X0878680Y0535783D01*
X0879143Y0535575D01*
X0879346Y0535439D01*
X0879789Y0535351D01*
X0879789Y0489945D01*
X0875589Y0485745D01*
X0849195D01*
X0849104Y0486202D01*
X0848839Y0486599D01*
X0848442Y0486864D01*
X0847974Y0486957D01*
X0847506Y0486864D01*
X0847109Y0486599D01*
X0846844Y0486202D01*
X0846753Y0485745D01*
X0843589D01*
X0787561Y0541773D01*
X0787847Y0542174D01*
X0788591Y0541866D01*
X0789389Y0541761D01*
X0790187Y0541866D01*
X0790931Y0542174D01*
X0791570Y0542664D01*
X0792060Y0543303D01*
X0792368Y0544047D01*
X0792473Y0544845D01*
X0792368Y0545643D01*
X0792060Y0546387D01*
X0791570Y0547025D01*
X0790931Y0547516D01*
X0790187Y0547824D01*
X0789389Y0547929D01*
X0788591Y0547824D01*
X0787847Y0547516D01*
X0787208Y0547025D01*
X0786718Y0546387D01*
X0786410Y0545643D01*
X0786305Y0544845D01*
X0786410Y0544047D01*
X0786718Y0543303D01*
X0786317Y0543017D01*
X0675389Y0653945D01*
X0527324D01*
X0527183Y0653973D01*
X0527043Y0653945D01*
X0399189D01*
X0388989Y0664145D01*
Y0669138D01*
X0394540Y0673445D01*
X0817589D01*
X0825578Y0665455D01*
D02*
G37*
G36*
X0887491Y0470307D02*
Y0469815D01*
X0887045Y0469370D01*
X0882442D01*
X0882103Y0469870D01*
X0882116Y0469933D01*
X0882054Y0470245D01*
X0881877Y0470510D01*
X0881613Y0470687D01*
X0881300Y0470749D01*
X0880988Y0470687D01*
X0880724Y0470510D01*
X0880547Y0470245D01*
X0880501Y0470017D01*
X0880238Y0469899D01*
X0880000Y0469867D01*
X0879997Y0469871D01*
X0879733Y0470048D01*
X0879421Y0470110D01*
X0879109Y0470048D01*
X0878844Y0469871D01*
X0878780Y0469775D01*
X0878358Y0469918D01*
X0878298Y0469955D01*
X0878240Y0470249D01*
X0878063Y0470514D01*
X0877798Y0470691D01*
X0877486Y0470753D01*
X0877174Y0470691D01*
X0876910Y0470514D01*
X0876733Y0470249D01*
X0876671Y0469937D01*
X0876733Y0469625D01*
X0876910Y0469360D01*
X0877174Y0469183D01*
X0877486Y0469122D01*
X0877798Y0469183D01*
X0878063Y0469360D01*
X0878127Y0469457D01*
X0878549Y0469313D01*
X0878609Y0469277D01*
X0878667Y0468982D01*
X0878844Y0468718D01*
X0879109Y0468541D01*
X0879164Y0468530D01*
X0879395Y0468157D01*
X0879116Y0467995D01*
X0878804Y0468057D01*
X0878492Y0467995D01*
X0878267Y0467845D01*
X0876602D01*
X0874011Y0465254D01*
X0874043Y0464850D01*
X0873949Y0464831D01*
X0873684Y0464654D01*
X0873507Y0464390D01*
X0873445Y0464077D01*
X0873507Y0463765D01*
X0873684Y0463501D01*
X0873855Y0463386D01*
X0873866Y0463004D01*
X0873826Y0462851D01*
X0873604Y0462703D01*
X0873427Y0462438D01*
X0873365Y0462126D01*
X0873427Y0461814D01*
X0873604Y0461549D01*
X0873565Y0460974D01*
X0873053Y0460462D01*
X0863935Y0451345D01*
X0858701D01*
X0854347Y0451345D01*
X0853389Y0452542D01*
Y0454157D01*
X0855077Y0455845D01*
X0857589D01*
X0862934Y0461190D01*
X0863057Y0461214D01*
X0863454Y0461480D01*
X0863719Y0461877D01*
X0863744Y0462000D01*
X0867753Y0466008D01*
X0868141Y0465690D01*
X0868015Y0465501D01*
X0867937Y0465111D01*
X0868015Y0464721D01*
X0868236Y0464390D01*
Y0464059D01*
X0868211Y0464043D01*
X0867990Y0463712D01*
X0867913Y0463322D01*
X0867990Y0462932D01*
X0868211Y0462601D01*
X0868542Y0462380D01*
X0868932Y0462302D01*
X0869322Y0462380D01*
X0869653Y0462601D01*
X0870222Y0462614D01*
X0870553Y0462393D01*
X0870683Y0462367D01*
X0870866Y0462092D01*
X0870928Y0461780D01*
X0871105Y0461516D01*
X0871370Y0461339D01*
X0871682Y0461277D01*
X0871994Y0461339D01*
X0872258Y0461516D01*
X0872435Y0461780D01*
X0872497Y0462092D01*
X0872435Y0462404D01*
X0872258Y0462669D01*
X0871885Y0462945D01*
X0871962Y0463335D01*
X0871885Y0463725D01*
X0871664Y0464056D01*
X0871547Y0464134D01*
X0871496Y0464691D01*
X0871506Y0464717D01*
X0871672Y0464965D01*
X0871722Y0465217D01*
X0871905Y0465376D01*
X0872191Y0465542D01*
X0872425Y0465495D01*
X0872738Y0465557D01*
X0873002Y0465734D01*
X0873179Y0465999D01*
X0873241Y0466311D01*
X0873179Y0466623D01*
X0873002Y0466888D01*
X0872738Y0467064D01*
X0872425Y0467126D01*
X0872113Y0467064D01*
X0871849Y0466888D01*
X0871672Y0466623D01*
X0871622Y0466371D01*
X0871439Y0466212D01*
X0871153Y0466046D01*
X0870918Y0466093D01*
X0870606Y0466031D01*
X0870342Y0465854D01*
X0870303Y0465796D01*
X0869734Y0465758D01*
X0869725Y0465762D01*
X0869678Y0465832D01*
X0869347Y0466053D01*
X0868957Y0466131D01*
X0868567Y0466053D01*
X0868378Y0465927D01*
X0868059Y0466315D01*
X0868777Y0467033D01*
X0868965Y0467158D01*
X0869054Y0467291D01*
X0869560Y0467434D01*
X0869857Y0467235D01*
X0870209Y0467165D01*
X0870560Y0467235D01*
X0870857Y0467434D01*
X0871056Y0467732D01*
X0871126Y0468083D01*
X0871056Y0468434D01*
X0871050Y0468444D01*
X0871237Y0469034D01*
X0871325Y0469086D01*
X0871588Y0469034D01*
X0871939Y0469104D01*
X0872237Y0469303D01*
X0872436Y0469600D01*
X0872503Y0469938D01*
X0872507Y0469953D01*
X0872886Y0470372D01*
X0873198Y0470434D01*
X0873462Y0470611D01*
X0873613Y0470835D01*
X0873639Y0470875D01*
X0874135Y0471042D01*
X0874447Y0470980D01*
X0874759Y0471042D01*
X0875024Y0471219D01*
X0875108Y0471345D01*
X0875608D01*
X0875689Y0471291D01*
X0876001Y0471229D01*
X0876313Y0471291D01*
X0876395Y0471345D01*
X0879610Y0471345D01*
X0879689Y0471329D01*
X0879768Y0471345D01*
X0881510D01*
X0881648Y0471317D01*
X0881786Y0471345D01*
X0886453Y0471345D01*
X0887491Y0470307D01*
D02*
G37*
G36*
X0887489Y0407945D02*
Y0394188D01*
X0884845Y0391545D01*
X0872189D01*
X0863389Y0400345D01*
Y0408445D01*
X0865089Y0410145D01*
X0885289D01*
X0887489Y0407945D01*
D02*
G37*
G36*
X0658097Y0321907D02*
X0681953Y0321781D01*
X0688889Y0314845D01*
Y0307745D01*
X0686489Y0305345D01*
X0671405D01*
X0671403Y0305346D01*
X0670668Y0305651D01*
X0669873D01*
X0669137Y0305346D01*
X0669136Y0305345D01*
X0658739D01*
X0658723Y0305369D01*
Y0306164D01*
X0658419Y0306899D01*
X0657856Y0307462D01*
X0657121Y0307766D01*
X0656325D01*
X0655590Y0307462D01*
X0655028Y0306899D01*
X0654723Y0306164D01*
Y0305369D01*
X0654707Y0305345D01*
X0552685D01*
X0552360Y0305725D01*
X0552637Y0307474D01*
Y0310016D01*
X0552239Y0312526D01*
X0551454Y0314944D01*
X0550300Y0317208D01*
X0548806Y0319265D01*
X0547009Y0321062D01*
X0544952Y0322556D01*
X0542688Y0323710D01*
X0540270Y0324495D01*
X0537760Y0324893D01*
X0535218D01*
X0532708Y0324495D01*
X0530290Y0323710D01*
X0528026Y0322556D01*
X0525969Y0321062D01*
X0524172Y0319265D01*
X0522678Y0317208D01*
X0521524Y0314944D01*
X0520739Y0312526D01*
X0520341Y0310016D01*
Y0307474D01*
X0520618Y0305725D01*
X0520293Y0305345D01*
X0495789D01*
X0478489Y0322645D01*
Y0325803D01*
X0481125Y0328245D01*
X0488699Y0328245D01*
X0488866Y0327842D01*
X0489428Y0327279D01*
X0490164Y0326975D01*
X0490959D01*
X0491694Y0327279D01*
X0492257Y0327842D01*
X0492424Y0328246D01*
X0586937Y0328254D01*
X0587401Y0327790D01*
X0588136Y0327485D01*
X0588932D01*
X0589667Y0327790D01*
X0590132Y0328254D01*
X0651958Y0328259D01*
X0658097Y0321907D01*
D02*
G37*
G36*
X0590689Y0339645D02*
X0599543D01*
X0599695Y0339145D01*
X0599316Y0338892D01*
X0598874Y0338230D01*
X0598719Y0337450D01*
X0598874Y0336670D01*
X0599316Y0336008D01*
X0599978Y0335566D01*
X0600758Y0335411D01*
X0601539Y0335566D01*
X0602200Y0336008D01*
X0602642Y0336670D01*
X0602798Y0337450D01*
X0602660Y0338140D01*
X0602879Y0338365D01*
X0603065Y0338471D01*
X0603481Y0338193D01*
X0604261Y0338038D01*
X0605041Y0338193D01*
X0605703Y0338635D01*
X0606145Y0339297D01*
X0606214Y0339645D01*
X0716162D01*
X0716443Y0339145D01*
X0716313Y0338492D01*
X0716468Y0337711D01*
X0716910Y0337050D01*
X0717572Y0336608D01*
X0718352Y0336453D01*
X0719132Y0336608D01*
X0719794Y0337050D01*
X0720236Y0337711D01*
X0720391Y0338492D01*
X0720261Y0339145D01*
X0720542Y0339645D01*
X0789434D01*
X0794189Y0335897D01*
Y0332545D01*
X0791789Y0330145D01*
X0753489D01*
X0746389Y0323045D01*
X0660389D01*
X0653289Y0330145D01*
X0590442D01*
X0590418Y0330266D01*
X0589976Y0330927D01*
X0589315Y0331369D01*
X0588534Y0331524D01*
X0587754Y0331369D01*
X0587092Y0330927D01*
X0586650Y0330266D01*
X0586626Y0330145D01*
X0583597D01*
X0583514Y0330560D01*
X0583249Y0330957D01*
X0582852Y0331222D01*
X0582384Y0331315D01*
X0581916Y0331222D01*
X0581519Y0330957D01*
X0581254Y0330560D01*
X0581171Y0330145D01*
X0551589D01*
X0539289Y0342445D01*
X0539289Y0349045D01*
X0540889Y0350645D01*
X0579689D01*
X0590689Y0339645D01*
D02*
G37*
%LPC*%
G36*
X0321879Y0958568D02*
X0321099Y0958412D01*
X0320437Y0957970D01*
X0319995Y0957309D01*
X0319840Y0956528D01*
X0319995Y0955748D01*
X0320437Y0955086D01*
X0321099Y0954644D01*
X0321879Y0954489D01*
X0322660Y0954644D01*
X0323321Y0955086D01*
X0323763Y0955748D01*
X0323918Y0956528D01*
X0323763Y0957309D01*
X0323321Y0957970D01*
X0322660Y0958412D01*
X0321879Y0958568D01*
D02*
G37*
G36*
X0582254Y0956973D02*
X0581473Y0956818D01*
X0580812Y0956376D01*
X0580370Y0955714D01*
X0580215Y0954934D01*
X0580370Y0954154D01*
X0580812Y0953492D01*
X0581473Y0953050D01*
X0582254Y0952895D01*
X0583034Y0953050D01*
X0583696Y0953492D01*
X0584138Y0954154D01*
X0584293Y0954934D01*
X0584138Y0955714D01*
X0583696Y0956376D01*
X0583034Y0956818D01*
X0582254Y0956973D01*
D02*
G37*
G36*
X0278689Y0956224D02*
X0277737Y0956099D01*
X0276849Y0955731D01*
X0276087Y0955147D01*
X0275502Y0954385D01*
X0275135Y0953497D01*
X0275009Y0952545D01*
X0275135Y0951593D01*
X0275502Y0950705D01*
X0276087Y0949943D01*
X0276849Y0949358D01*
X0277737Y0948991D01*
X0278689Y0948865D01*
X0279641Y0948991D01*
X0280529Y0949358D01*
X0281291Y0949943D01*
X0281875Y0950705D01*
X0282243Y0951593D01*
X0282368Y0952545D01*
X0282243Y0953497D01*
X0281875Y0954385D01*
X0281291Y0955147D01*
X0280529Y0955731D01*
X0279641Y0956099D01*
X0278689Y0956224D01*
D02*
G37*
G36*
X0268689D02*
X0267737Y0956099D01*
X0266849Y0955731D01*
X0266087Y0955147D01*
X0265502Y0954385D01*
X0265135Y0953497D01*
X0265009Y0952545D01*
X0265135Y0951593D01*
X0265502Y0950705D01*
X0266087Y0949943D01*
X0266849Y0949358D01*
X0267737Y0948991D01*
X0268689Y0948865D01*
X0269641Y0948991D01*
X0270529Y0949358D01*
X0271291Y0949943D01*
X0271876Y0950705D01*
X0272243Y0951593D01*
X0272369Y0952545D01*
X0272243Y0953497D01*
X0271876Y0954385D01*
X0271291Y0955147D01*
X0270529Y0955731D01*
X0269641Y0956099D01*
X0268689Y0956224D01*
D02*
G37*
G36*
X0258689D02*
X0257737Y0956099D01*
X0256849Y0955731D01*
X0256087Y0955147D01*
X0255502Y0954385D01*
X0255135Y0953497D01*
X0255010Y0952545D01*
X0255135Y0951593D01*
X0255502Y0950705D01*
X0256087Y0949943D01*
X0256849Y0949358D01*
X0257737Y0948991D01*
X0258689Y0948865D01*
X0259641Y0948991D01*
X0260529Y0949358D01*
X0261291Y0949943D01*
X0261876Y0950705D01*
X0262243Y0951593D01*
X0262368Y0952545D01*
X0262243Y0953497D01*
X0261876Y0954385D01*
X0261291Y0955147D01*
X0260529Y0955731D01*
X0259641Y0956099D01*
X0258689Y0956224D01*
D02*
G37*
G36*
X0372589Y0950984D02*
X0371809Y0950829D01*
X0371147Y0950387D01*
X0370705Y0949725D01*
X0370550Y0948945D01*
X0370705Y0948164D01*
X0371147Y0947503D01*
X0371809Y0947061D01*
X0372589Y0946906D01*
X0373369Y0947061D01*
X0374031Y0947503D01*
X0374473Y0948164D01*
X0374628Y0948945D01*
X0374473Y0949725D01*
X0374031Y0950387D01*
X0373369Y0950829D01*
X0372589Y0950984D01*
D02*
G37*
G36*
X0530906Y0945097D02*
X0530125Y0944942D01*
X0529464Y0944499D01*
X0529022Y0943838D01*
X0528866Y0943058D01*
X0529022Y0942277D01*
X0529464Y0941616D01*
X0530125Y0941174D01*
X0530906Y0941018D01*
X0531686Y0941174D01*
X0532348Y0941616D01*
X0532790Y0942277D01*
X0532945Y0943058D01*
X0532790Y0943838D01*
X0532348Y0944499D01*
X0531686Y0944942D01*
X0530906Y0945097D01*
D02*
G37*
G36*
X0547409Y0942570D02*
X0546629Y0942415D01*
X0545968Y0941973D01*
X0545526Y0941311D01*
X0545370Y0940531D01*
X0545526Y0939751D01*
X0545968Y0939089D01*
X0546629Y0938647D01*
X0547409Y0938492D01*
X0548190Y0938647D01*
X0548851Y0939089D01*
X0549294Y0939751D01*
X0549449Y0940531D01*
X0549294Y0941311D01*
X0548851Y0941973D01*
X0548190Y0942415D01*
X0547409Y0942570D01*
D02*
G37*
G36*
X0324589Y0941884D02*
X0323809Y0941729D01*
X0323147Y0941287D01*
X0322705Y0940625D01*
X0322550Y0939845D01*
X0322705Y0939065D01*
X0323147Y0938403D01*
X0323809Y0937961D01*
X0324589Y0937806D01*
X0325369Y0937961D01*
X0326031Y0938403D01*
X0326473Y0939065D01*
X0326628Y0939845D01*
X0326473Y0940625D01*
X0326031Y0941287D01*
X0325369Y0941729D01*
X0324589Y0941884D01*
D02*
G37*
G36*
X0262215Y0940442D02*
X0261435Y0940287D01*
X0260773Y0939845D01*
X0260331Y0939183D01*
X0260176Y0938403D01*
X0260331Y0937622D01*
X0260773Y0936961D01*
X0261435Y0936519D01*
X0262215Y0936364D01*
X0262996Y0936519D01*
X0263657Y0936961D01*
X0264099Y0937622D01*
X0264254Y0938403D01*
X0264099Y0939183D01*
X0263657Y0939845D01*
X0262996Y0940287D01*
X0262215Y0940442D01*
D02*
G37*
G36*
X0241259Y0939747D02*
X0240479Y0939592D01*
X0239818Y0939150D01*
X0239375Y0938489D01*
X0239220Y0937708D01*
X0239375Y0936928D01*
X0239818Y0936266D01*
X0240479Y0935824D01*
X0241259Y0935669D01*
X0242040Y0935824D01*
X0242701Y0936266D01*
X0243143Y0936928D01*
X0243299Y0937708D01*
X0243143Y0938489D01*
X0242701Y0939150D01*
X0242040Y0939592D01*
X0241259Y0939747D01*
D02*
G37*
G36*
X0252489Y0938684D02*
X0251709Y0938529D01*
X0251047Y0938087D01*
X0250605Y0937425D01*
X0250450Y0936645D01*
X0250605Y0935865D01*
X0251047Y0935203D01*
X0251709Y0934761D01*
X0252489Y0934606D01*
X0253269Y0934761D01*
X0253931Y0935203D01*
X0254373Y0935865D01*
X0254528Y0936645D01*
X0254373Y0937425D01*
X0253931Y0938087D01*
X0253269Y0938529D01*
X0252489Y0938684D01*
D02*
G37*
G36*
X0752940Y0929003D02*
X0752160Y0928848D01*
X0751498Y0928406D01*
X0751056Y0927744D01*
X0750901Y0926964D01*
X0751056Y0926184D01*
X0751498Y0925522D01*
X0752160Y0925080D01*
X0752940Y0924925D01*
X0753720Y0925080D01*
X0754382Y0925522D01*
X0754824Y0926184D01*
X0754979Y0926964D01*
X0754824Y0927744D01*
X0754382Y0928406D01*
X0753720Y0928848D01*
X0752940Y0929003D01*
D02*
G37*
G36*
X0291789Y0928884D02*
X0291009Y0928729D01*
X0290347Y0928287D01*
X0289905Y0927625D01*
X0289750Y0926845D01*
X0289905Y0926064D01*
X0290347Y0925403D01*
X0291009Y0924961D01*
X0291789Y0924806D01*
X0292569Y0924961D01*
X0293231Y0925403D01*
X0293673Y0926064D01*
X0293828Y0926845D01*
X0293673Y0927625D01*
X0293231Y0928287D01*
X0292569Y0928729D01*
X0291789Y0928884D01*
D02*
G37*
G36*
X0623803Y0932787D02*
X0615720D01*
Y0924703D01*
X0623803D01*
Y0932787D01*
D02*
G37*
G36*
X0360517Y0924059D02*
X0359736Y0923904D01*
X0359075Y0923462D01*
X0358633Y0922800D01*
X0358478Y0922020D01*
X0358633Y0921239D01*
X0359075Y0920578D01*
X0359736Y0920136D01*
X0360517Y0919981D01*
X0361297Y0920136D01*
X0361959Y0920578D01*
X0362401Y0921239D01*
X0362556Y0922020D01*
X0362401Y0922800D01*
X0361959Y0923462D01*
X0361297Y0923904D01*
X0360517Y0924059D01*
D02*
G37*
G36*
X0298467Y0920326D02*
X0297686Y0920171D01*
X0297025Y0919729D01*
X0296583Y0919068D01*
X0296427Y0918287D01*
X0296583Y0917507D01*
X0297025Y0916845D01*
X0297686Y0916403D01*
X0298467Y0916248D01*
X0299247Y0916403D01*
X0299909Y0916845D01*
X0300351Y0917507D01*
X0300506Y0918287D01*
X0300351Y0919068D01*
X0299909Y0919729D01*
X0299247Y0920171D01*
X0298467Y0920326D01*
D02*
G37*
G36*
X0326634Y0924315D02*
X0319744D01*
X0319438Y0924188D01*
X0319311Y0923882D01*
Y0916408D01*
X0319438Y0916102D01*
X0319744Y0915975D01*
X0326634D01*
X0326940Y0916102D01*
X0327067Y0916408D01*
Y0923882D01*
X0326940Y0924188D01*
X0326634Y0924315D01*
D02*
G37*
G36*
X0752236Y0918828D02*
X0751456Y0918673D01*
X0750794Y0918231D01*
X0750352Y0917569D01*
X0750197Y0916789D01*
X0750352Y0916009D01*
X0750794Y0915347D01*
X0751456Y0914905D01*
X0752236Y0914750D01*
X0753016Y0914905D01*
X0753678Y0915347D01*
X0754120Y0916009D01*
X0754275Y0916789D01*
X0754120Y0917569D01*
X0753678Y0918231D01*
X0753016Y0918673D01*
X0752236Y0918828D01*
D02*
G37*
G36*
X0277839Y0916232D02*
X0277058Y0916077D01*
X0276397Y0915635D01*
X0275955Y0914973D01*
X0275799Y0914193D01*
X0275955Y0913413D01*
X0276397Y0912751D01*
X0277058Y0912309D01*
X0277839Y0912154D01*
X0278619Y0912309D01*
X0279281Y0912751D01*
X0279723Y0913413D01*
X0279878Y0914193D01*
X0279723Y0914973D01*
X0279281Y0915635D01*
X0278619Y0916077D01*
X0277839Y0916232D01*
D02*
G37*
G36*
X0734304Y0915369D02*
X0733524Y0915214D01*
X0732862Y0914772D01*
X0732420Y0914110D01*
X0732265Y0913330D01*
X0732420Y0912549D01*
X0732862Y0911888D01*
X0733524Y0911446D01*
X0734304Y0911291D01*
X0735084Y0911446D01*
X0735746Y0911888D01*
X0736188Y0912549D01*
X0736343Y0913330D01*
X0736188Y0914110D01*
X0735746Y0914772D01*
X0735084Y0915214D01*
X0734304Y0915369D01*
D02*
G37*
G36*
X0371992Y0909602D02*
X0371211Y0909447D01*
X0370550Y0909005D01*
X0370108Y0908343D01*
X0369953Y0907563D01*
X0370108Y0906783D01*
X0370550Y0906121D01*
X0371211Y0905679D01*
X0371992Y0905524D01*
X0372772Y0905679D01*
X0373434Y0906121D01*
X0373876Y0906783D01*
X0374031Y0907563D01*
X0373876Y0908343D01*
X0373434Y0909005D01*
X0372772Y0909447D01*
X0371992Y0909602D01*
D02*
G37*
G36*
X0678432Y0908709D02*
X0677652Y0908554D01*
X0676990Y0908112D01*
X0676548Y0907451D01*
X0676393Y0906670D01*
X0676548Y0905890D01*
X0676990Y0905228D01*
X0677652Y0904786D01*
X0678432Y0904631D01*
X0679213Y0904786D01*
X0679874Y0905228D01*
X0680316Y0905890D01*
X0680471Y0906670D01*
X0680316Y0907451D01*
X0679874Y0908112D01*
X0679213Y0908554D01*
X0678432Y0908709D01*
D02*
G37*
G36*
X0229289Y0933743D02*
X0226755Y0933543D01*
X0224284Y0932950D01*
X0221935Y0931977D01*
X0219768Y0930649D01*
X0217835Y0928999D01*
X0216185Y0927066D01*
X0214857Y0924899D01*
X0213884Y0922550D01*
X0213290Y0920079D01*
X0213091Y0917545D01*
X0213290Y0915011D01*
X0213884Y0912539D01*
X0214857Y0910191D01*
X0216185Y0908024D01*
X0217835Y0906091D01*
X0219768Y0904440D01*
X0221935Y0903112D01*
X0224284Y0902140D01*
X0226755Y0901546D01*
X0229289Y0901347D01*
X0231823Y0901546D01*
X0234294Y0902140D01*
X0236643Y0903112D01*
X0238810Y0904440D01*
X0240743Y0906091D01*
X0242393Y0908024D01*
X0243722Y0910191D01*
X0244694Y0912539D01*
X0245287Y0915011D01*
X0245487Y0917545D01*
X0245287Y0920079D01*
X0244694Y0922550D01*
X0243722Y0924899D01*
X0242393Y0927066D01*
X0240743Y0928999D01*
X0238810Y0930649D01*
X0236643Y0931977D01*
X0234294Y0932950D01*
X0231823Y0933543D01*
X0229289Y0933743D01*
D02*
G37*
G36*
X0286242Y0905239D02*
X0285462Y0905084D01*
X0284800Y0904642D01*
X0284358Y0903980D01*
X0284203Y0903200D01*
X0284358Y0902420D01*
X0284800Y0901758D01*
X0285462Y0901316D01*
X0286242Y0901161D01*
X0287022Y0901316D01*
X0287684Y0901758D01*
X0288126Y0902420D01*
X0288281Y0903200D01*
X0288126Y0903980D01*
X0287684Y0904642D01*
X0287022Y0905084D01*
X0286242Y0905239D01*
D02*
G37*
G36*
X0692682Y0904475D02*
X0691902Y0904320D01*
X0691240Y0903878D01*
X0690798Y0903216D01*
X0690643Y0902436D01*
X0690798Y0901655D01*
X0691240Y0900994D01*
X0691902Y0900552D01*
X0692682Y0900396D01*
X0693462Y0900552D01*
X0694124Y0900994D01*
X0694566Y0901655D01*
X0694721Y0902436D01*
X0694566Y0903216D01*
X0694124Y0903878D01*
X0693462Y0904320D01*
X0692682Y0904475D01*
D02*
G37*
G36*
X0347989Y0903284D02*
X0347209Y0903129D01*
X0346547Y0902687D01*
X0346105Y0902025D01*
X0345950Y0901245D01*
X0346105Y0900465D01*
X0346547Y0899803D01*
X0347209Y0899361D01*
X0347989Y0899206D01*
X0348769Y0899361D01*
X0349431Y0899803D01*
X0349873Y0900465D01*
X0350028Y0901245D01*
X0349873Y0902025D01*
X0349431Y0902687D01*
X0348769Y0903129D01*
X0347989Y0903284D01*
D02*
G37*
G36*
X0275589Y0905770D02*
X0270389D01*
X0270083Y0905643D01*
X0269956Y0905337D01*
Y0899337D01*
X0270083Y0899031D01*
X0270389Y0898904D01*
X0275589D01*
X0275895Y0899031D01*
X0276022Y0899337D01*
Y0905337D01*
X0275895Y0905643D01*
X0275589Y0905770D01*
D02*
G37*
G36*
X0286242Y0897893D02*
X0285462Y0897738D01*
X0284800Y0897295D01*
X0284358Y0896634D01*
X0284203Y0895854D01*
X0284358Y0895073D01*
X0284800Y0894412D01*
X0285462Y0893970D01*
X0286242Y0893814D01*
X0287022Y0893970D01*
X0287684Y0894412D01*
X0288126Y0895073D01*
X0288281Y0895854D01*
X0288126Y0896634D01*
X0287684Y0897295D01*
X0287022Y0897738D01*
X0286242Y0897893D01*
D02*
G37*
G36*
X0383347Y0894319D02*
X0382567Y0894164D01*
X0381905Y0893721D01*
X0381463Y0893060D01*
X0381308Y0892280D01*
X0381463Y0891499D01*
X0381905Y0890838D01*
X0382567Y0890396D01*
X0383347Y0890240D01*
X0384127Y0890396D01*
X0384789Y0890838D01*
X0385231Y0891499D01*
X0385386Y0892280D01*
X0385231Y0893060D01*
X0384789Y0893721D01*
X0384127Y0894164D01*
X0383347Y0894319D01*
D02*
G37*
G36*
X0354589Y0894084D02*
X0353809Y0893929D01*
X0353147Y0893487D01*
X0352705Y0892825D01*
X0352550Y0892045D01*
X0352705Y0891265D01*
X0353147Y0890603D01*
X0353809Y0890161D01*
X0354589Y0890006D01*
X0355369Y0890161D01*
X0356031Y0890603D01*
X0356473Y0891265D01*
X0356628Y0892045D01*
X0356473Y0892825D01*
X0356031Y0893487D01*
X0355369Y0893929D01*
X0354589Y0894084D01*
D02*
G37*
G36*
X0277310Y0893453D02*
X0276530Y0893298D01*
X0275868Y0892856D01*
X0275426Y0892194D01*
X0275271Y0891414D01*
X0275426Y0890634D01*
X0275868Y0889972D01*
X0276530Y0889530D01*
X0277310Y0889375D01*
X0278091Y0889530D01*
X0278752Y0889972D01*
X0279194Y0890634D01*
X0279349Y0891414D01*
X0279194Y0892194D01*
X0278752Y0892856D01*
X0278091Y0893298D01*
X0277310Y0893453D01*
D02*
G37*
G36*
X0268378D02*
X0267598Y0893298D01*
X0266936Y0892856D01*
X0266494Y0892194D01*
X0266339Y0891414D01*
X0266494Y0890634D01*
X0266936Y0889972D01*
X0267598Y0889530D01*
X0268378Y0889375D01*
X0269159Y0889530D01*
X0269820Y0889972D01*
X0270262Y0890634D01*
X0270417Y0891414D01*
X0270262Y0892194D01*
X0269820Y0892856D01*
X0269159Y0893298D01*
X0268378Y0893453D01*
D02*
G37*
G36*
X0230790Y0894196D02*
X0229902Y0894079D01*
X0229075Y0893737D01*
X0228365Y0893192D01*
X0227820Y0892482D01*
X0227477Y0891654D01*
X0227360Y0890767D01*
X0227477Y0889879D01*
X0227820Y0889052D01*
X0228365Y0888342D01*
X0229075Y0887797D01*
X0229902Y0887454D01*
X0230790Y0887337D01*
X0231677Y0887454D01*
X0232504Y0887797D01*
X0233215Y0888342D01*
X0233760Y0889052D01*
X0234102Y0889879D01*
X0234219Y0890767D01*
X0234102Y0891654D01*
X0233760Y0892482D01*
X0233215Y0893192D01*
X0232504Y0893737D01*
X0231677Y0894079D01*
X0230790Y0894196D01*
D02*
G37*
G36*
X0293644Y0889157D02*
X0292864Y0889002D01*
X0292202Y0888560D01*
X0291760Y0887898D01*
X0291605Y0887118D01*
X0291760Y0886337D01*
X0292202Y0885676D01*
X0292864Y0885234D01*
X0293644Y0885079D01*
X0294424Y0885234D01*
X0295086Y0885676D01*
X0295528Y0886337D01*
X0295683Y0887118D01*
X0295528Y0887898D01*
X0295086Y0888560D01*
X0294424Y0889002D01*
X0293644Y0889157D01*
D02*
G37*
G36*
X0297766Y0887088D02*
X0296986Y0886932D01*
X0296324Y0886491D01*
X0295882Y0885829D01*
X0295727Y0885049D01*
X0295882Y0884268D01*
X0296324Y0883607D01*
X0296986Y0883165D01*
X0297766Y0883009D01*
X0298546Y0883165D01*
X0299208Y0883607D01*
X0299650Y0884268D01*
X0299805Y0885049D01*
X0299650Y0885829D01*
X0299208Y0886491D01*
X0298546Y0886932D01*
X0297766Y0887088D01*
D02*
G37*
G36*
X0379608Y0883987D02*
X0378827Y0883832D01*
X0378166Y0883390D01*
X0377724Y0882728D01*
X0377568Y0881948D01*
X0377724Y0881167D01*
X0378166Y0880506D01*
X0378827Y0880064D01*
X0379608Y0879908D01*
X0380388Y0880064D01*
X0381049Y0880506D01*
X0381491Y0881167D01*
X0381647Y0881948D01*
X0381491Y0882728D01*
X0381049Y0883390D01*
X0380388Y0883832D01*
X0379608Y0883987D01*
D02*
G37*
G36*
X0361112Y0882878D02*
X0360332Y0882723D01*
X0359670Y0882281D01*
X0359228Y0881619D01*
X0359073Y0880839D01*
X0359228Y0880059D01*
X0359670Y0879397D01*
X0360332Y0878955D01*
X0361112Y0878800D01*
X0361892Y0878955D01*
X0362554Y0879397D01*
X0362996Y0880059D01*
X0363151Y0880839D01*
X0362996Y0881619D01*
X0362554Y0882281D01*
X0361892Y0882723D01*
X0361112Y0882878D01*
D02*
G37*
G36*
X0349970Y0882878D02*
X0349190Y0882722D01*
X0348528Y0882280D01*
X0348086Y0881619D01*
X0347931Y0880838D01*
X0348086Y0880058D01*
X0348528Y0879397D01*
X0349190Y0878954D01*
X0349970Y0878799D01*
X0350750Y0878954D01*
X0351412Y0879397D01*
X0351854Y0880058D01*
X0352009Y0880838D01*
X0351854Y0881619D01*
X0351412Y0882280D01*
X0350750Y0882722D01*
X0349970Y0882878D01*
D02*
G37*
G36*
X0305170Y0881680D02*
X0304389Y0881525D01*
X0303728Y0881083D01*
X0303286Y0880421D01*
X0303131Y0879641D01*
X0303286Y0878860D01*
X0303728Y0878199D01*
X0304389Y0877757D01*
X0305170Y0877602D01*
X0305950Y0877757D01*
X0306612Y0878199D01*
X0307054Y0878860D01*
X0307209Y0879641D01*
X0307054Y0880421D01*
X0306612Y0881083D01*
X0305950Y0881525D01*
X0305170Y0881680D01*
D02*
G37*
G36*
X0315810Y0878861D02*
X0315030Y0878706D01*
X0314368Y0878264D01*
X0313926Y0877602D01*
X0313799Y0876963D01*
X0313619Y0876755D01*
X0313302Y0876615D01*
X0312689Y0876737D01*
X0311908Y0876582D01*
X0311247Y0876140D01*
X0310805Y0875478D01*
X0310650Y0874698D01*
X0310805Y0873917D01*
X0311247Y0873256D01*
X0311908Y0872814D01*
X0312689Y0872659D01*
X0313469Y0872814D01*
X0314131Y0873256D01*
X0314573Y0873917D01*
X0314700Y0874557D01*
X0314880Y0874765D01*
X0315197Y0874905D01*
X0315810Y0874783D01*
X0316590Y0874938D01*
X0317252Y0875380D01*
X0317694Y0876042D01*
X0317849Y0876822D01*
X0317694Y0877602D01*
X0317252Y0878264D01*
X0316590Y0878706D01*
X0315810Y0878861D01*
D02*
G37*
G36*
X0373048Y0880364D02*
X0372267Y0880209D01*
X0371606Y0879767D01*
X0371164Y0879105D01*
X0371008Y0878325D01*
X0371164Y0877544D01*
X0371606Y0876883D01*
X0372267Y0876441D01*
X0373048Y0876286D01*
X0373828Y0876441D01*
X0374490Y0876883D01*
X0374932Y0877544D01*
X0375087Y0878325D01*
X0374932Y0879105D01*
X0374490Y0879767D01*
X0373828Y0880209D01*
X0373048Y0880364D01*
D02*
G37*
G36*
X0368407Y0880131D02*
X0367626Y0879976D01*
X0366965Y0879534D01*
X0366523Y0878872D01*
X0366368Y0878092D01*
X0366523Y0877312D01*
X0366965Y0876650D01*
X0367626Y0876208D01*
X0368407Y0876053D01*
X0369187Y0876208D01*
X0369849Y0876650D01*
X0370291Y0877312D01*
X0370446Y0878092D01*
X0370291Y0878872D01*
X0369849Y0879534D01*
X0369187Y0879976D01*
X0368407Y0880131D01*
D02*
G37*
G36*
X0227089Y0882385D02*
X0226201Y0882268D01*
X0225374Y0881926D01*
X0224664Y0881381D01*
X0224119Y0880671D01*
X0223777Y0879844D01*
X0223660Y0878956D01*
X0223777Y0878068D01*
X0224119Y0877241D01*
X0224664Y0876531D01*
X0225374Y0875986D01*
X0226201Y0875643D01*
X0227089Y0875527D01*
X0227977Y0875643D01*
X0228804Y0875986D01*
X0229514Y0876531D01*
X0230059Y0877241D01*
X0230401Y0878068D01*
X0230518Y0878956D01*
X0230401Y0879844D01*
X0230059Y0880671D01*
X0229514Y0881381D01*
X0228804Y0881926D01*
X0227977Y0882268D01*
X0227089Y0882385D01*
D02*
G37*
G36*
X0215278D02*
X0214390Y0882268D01*
X0213563Y0881926D01*
X0212853Y0881381D01*
X0212308Y0880671D01*
X0211965Y0879844D01*
X0211849Y0878956D01*
X0211965Y0878068D01*
X0212308Y0877241D01*
X0212853Y0876531D01*
X0213563Y0875986D01*
X0214390Y0875643D01*
X0215278Y0875527D01*
X0216165Y0875643D01*
X0216993Y0875986D01*
X0217703Y0876531D01*
X0218248Y0877241D01*
X0218590Y0878068D01*
X0218707Y0878956D01*
X0218590Y0879844D01*
X0218248Y0880671D01*
X0217703Y0881381D01*
X0216993Y0881926D01*
X0216165Y0882268D01*
X0215278Y0882385D01*
D02*
G37*
G36*
X0249889Y0874976D02*
X0249265Y0874852D01*
X0248735Y0874498D01*
X0248382Y0873969D01*
X0248258Y0873345D01*
X0248382Y0872721D01*
X0248735Y0872191D01*
X0249265Y0871838D01*
X0249889Y0871714D01*
X0250513Y0871838D01*
X0251043Y0872191D01*
X0251396Y0872721D01*
X0251520Y0873345D01*
X0251396Y0873969D01*
X0251043Y0874498D01*
X0250513Y0874852D01*
X0249889Y0874976D01*
D02*
G37*
G36*
X0377039Y0872628D02*
X0376258Y0872473D01*
X0375597Y0872031D01*
X0375155Y0871369D01*
X0374999Y0870589D01*
X0375155Y0869808D01*
X0375597Y0869147D01*
X0376258Y0868705D01*
X0377039Y0868550D01*
X0377819Y0868705D01*
X0378481Y0869147D01*
X0378923Y0869808D01*
X0379078Y0870589D01*
X0378923Y0871369D01*
X0378481Y0872031D01*
X0377819Y0872473D01*
X0377039Y0872628D01*
D02*
G37*
G36*
X0358699Y0870622D02*
X0357919Y0870467D01*
X0357257Y0870025D01*
X0356815Y0869364D01*
X0356660Y0868583D01*
X0356815Y0867803D01*
X0357257Y0867141D01*
X0357919Y0866699D01*
X0358699Y0866544D01*
X0359479Y0866699D01*
X0360141Y0867141D01*
X0360583Y0867803D01*
X0360738Y0868583D01*
X0360583Y0869364D01*
X0360141Y0870025D01*
X0359479Y0870467D01*
X0358699Y0870622D01*
D02*
G37*
G36*
X0261689Y0872178D02*
X0255689D01*
X0255383Y0872051D01*
X0255256Y0871745D01*
Y0866545D01*
X0255383Y0866239D01*
X0255689Y0866112D01*
X0261689D01*
X0261995Y0866239D01*
X0262122Y0866545D01*
Y0871745D01*
X0261995Y0872051D01*
X0261689Y0872178D01*
D02*
G37*
G36*
X0227089Y0870574D02*
X0226201Y0870457D01*
X0225374Y0870115D01*
X0224664Y0869570D01*
X0224119Y0868859D01*
X0223777Y0868032D01*
X0223660Y0867145D01*
X0223777Y0866257D01*
X0224119Y0865430D01*
X0224664Y0864720D01*
X0225374Y0864175D01*
X0226201Y0863832D01*
X0227089Y0863715D01*
X0227977Y0863832D01*
X0228804Y0864175D01*
X0229514Y0864720D01*
X0230059Y0865430D01*
X0230401Y0866257D01*
X0230518Y0867145D01*
X0230401Y0868032D01*
X0230059Y0868859D01*
X0229514Y0869570D01*
X0228804Y0870115D01*
X0227977Y0870457D01*
X0227089Y0870574D01*
D02*
G37*
G36*
X0215278D02*
X0214390Y0870457D01*
X0213563Y0870115D01*
X0212853Y0869570D01*
X0212308Y0868859D01*
X0211965Y0868032D01*
X0211849Y0867145D01*
X0211965Y0866257D01*
X0212308Y0865430D01*
X0212853Y0864720D01*
X0213563Y0864175D01*
X0214390Y0863832D01*
X0215278Y0863715D01*
X0216165Y0863832D01*
X0216993Y0864175D01*
X0217703Y0864720D01*
X0218248Y0865430D01*
X0218590Y0866257D01*
X0218707Y0867145D01*
X0218590Y0868032D01*
X0218248Y0868859D01*
X0217703Y0869570D01*
X0216993Y0870115D01*
X0216165Y0870457D01*
X0215278Y0870574D01*
D02*
G37*
G36*
X0249589Y0866476D02*
X0248965Y0866352D01*
X0248435Y0865998D01*
X0248082Y0865469D01*
X0247958Y0864845D01*
X0248082Y0864221D01*
X0248435Y0863691D01*
X0248965Y0863338D01*
X0249589Y0863214D01*
X0250213Y0863338D01*
X0250743Y0863691D01*
X0251096Y0864221D01*
X0251220Y0864845D01*
X0251096Y0865469D01*
X0250743Y0865998D01*
X0250213Y0866352D01*
X0249589Y0866476D01*
D02*
G37*
G36*
X0302664Y0863888D02*
X0301883Y0863732D01*
X0301222Y0863290D01*
X0300780Y0862629D01*
X0300624Y0861848D01*
X0300780Y0861068D01*
X0301222Y0860406D01*
X0301883Y0859964D01*
X0301969Y0859947D01*
X0302063Y0859419D01*
X0301564Y0859085D01*
X0301122Y0858424D01*
X0300967Y0857643D01*
X0301122Y0856863D01*
X0301564Y0856201D01*
X0302225Y0855759D01*
X0303006Y0855604D01*
X0303786Y0855759D01*
X0304448Y0856201D01*
X0304890Y0856863D01*
X0305045Y0857643D01*
X0304890Y0858424D01*
X0304448Y0859085D01*
X0303786Y0859527D01*
X0303700Y0859544D01*
X0303606Y0860073D01*
X0304106Y0860406D01*
X0304548Y0861068D01*
X0304703Y0861848D01*
X0304548Y0862629D01*
X0304106Y0863290D01*
X0303444Y0863732D01*
X0302664Y0863888D01*
D02*
G37*
G36*
X0478989Y0861828D02*
X0470989D01*
X0470683Y0861701D01*
X0470556Y0861395D01*
Y0854695D01*
X0470683Y0854389D01*
X0470989Y0854262D01*
X0478989D01*
X0479295Y0854389D01*
X0479422Y0854695D01*
Y0861395D01*
X0479295Y0861701D01*
X0478989Y0861828D01*
D02*
G37*
G36*
X0230790Y0858763D02*
X0229902Y0858646D01*
X0229075Y0858304D01*
X0228365Y0857759D01*
X0227820Y0857049D01*
X0227477Y0856221D01*
X0227360Y0855334D01*
X0227477Y0854446D01*
X0227820Y0853619D01*
X0228365Y0852909D01*
X0229075Y0852364D01*
X0229902Y0852021D01*
X0230790Y0851904D01*
X0231677Y0852021D01*
X0232504Y0852364D01*
X0233215Y0852909D01*
X0233760Y0853619D01*
X0234102Y0854446D01*
X0234219Y0855334D01*
X0234102Y0856221D01*
X0233760Y0857049D01*
X0233215Y0857759D01*
X0232504Y0858304D01*
X0231677Y0858646D01*
X0230790Y0858763D01*
D02*
G37*
G36*
X0843403Y0852287D02*
X0835320D01*
Y0844203D01*
X0843403D01*
Y0852287D01*
D02*
G37*
G36*
X0505689Y0852483D02*
X0504540Y0852332D01*
X0503470Y0851888D01*
X0502551Y0851183D01*
X0501846Y0850264D01*
X0501402Y0849193D01*
X0501251Y0848045D01*
X0501402Y0846896D01*
X0501846Y0845826D01*
X0502551Y0844907D01*
X0503470Y0844201D01*
X0504540Y0843758D01*
X0505689Y0843607D01*
X0506838Y0843758D01*
X0507908Y0844201D01*
X0508827Y0844907D01*
X0509532Y0845826D01*
X0509976Y0846896D01*
X0510127Y0848045D01*
X0509976Y0849193D01*
X0509532Y0850264D01*
X0508827Y0851183D01*
X0507908Y0851888D01*
X0506838Y0852332D01*
X0505689Y0852483D01*
D02*
G37*
G36*
X0483174Y0846995D02*
X0482393Y0846840D01*
X0481732Y0846398D01*
X0481290Y0845736D01*
X0481135Y0844956D01*
X0481290Y0844176D01*
X0481732Y0843514D01*
X0482393Y0843072D01*
X0483174Y0842917D01*
X0483954Y0843072D01*
X0484616Y0843514D01*
X0485058Y0844176D01*
X0485213Y0844956D01*
X0485058Y0845736D01*
X0484616Y0846398D01*
X0483954Y0846840D01*
X0483174Y0846995D01*
D02*
G37*
G36*
X0561431Y0847587D02*
X0553347D01*
Y0839503D01*
X0561431D01*
Y0847587D01*
D02*
G37*
G36*
X0245534Y0842500D02*
X0244909Y0842376D01*
X0244380Y0842022D01*
X0244026Y0841493D01*
X0243902Y0840868D01*
X0244026Y0840244D01*
X0244380Y0839715D01*
X0244909Y0839361D01*
X0245534Y0839237D01*
X0246158Y0839361D01*
X0246687Y0839715D01*
X0247041Y0840244D01*
X0247165Y0840868D01*
X0247041Y0841493D01*
X0246687Y0842022D01*
X0246158Y0842376D01*
X0245534Y0842500D01*
D02*
G37*
G36*
X0230315Y0842284D02*
X0229691Y0842160D01*
X0229162Y0841806D01*
X0228808Y0841277D01*
X0228684Y0840652D01*
X0228808Y0840028D01*
X0229162Y0839499D01*
X0229691Y0839145D01*
X0230315Y0839021D01*
X0230940Y0839145D01*
X0231469Y0839499D01*
X0231822Y0840028D01*
X0231947Y0840652D01*
X0231822Y0841277D01*
X0231469Y0841806D01*
X0230940Y0842160D01*
X0230315Y0842284D01*
D02*
G37*
G36*
X0635931Y0843723D02*
X0627847D01*
Y0835639D01*
X0635931D01*
Y0843723D01*
D02*
G37*
G36*
X0230090Y0837157D02*
X0229466Y0837033D01*
X0228937Y0836679D01*
X0228583Y0836150D01*
X0228459Y0835525D01*
X0228583Y0834901D01*
X0228937Y0834372D01*
X0229466Y0834018D01*
X0230090Y0833894D01*
X0230715Y0834018D01*
X0231244Y0834372D01*
X0231597Y0834901D01*
X0231722Y0835525D01*
X0231597Y0836150D01*
X0231244Y0836679D01*
X0230715Y0837033D01*
X0230090Y0837157D01*
D02*
G37*
G36*
X0709931Y0841823D02*
X0701847D01*
Y0833739D01*
X0709931D01*
Y0841823D01*
D02*
G37*
G36*
X0245498Y0836898D02*
X0244874Y0836774D01*
X0244345Y0836421D01*
X0243991Y0835891D01*
X0243867Y0835267D01*
X0243991Y0834643D01*
X0244345Y0834113D01*
X0244874Y0833760D01*
X0245498Y0833636D01*
X0246123Y0833760D01*
X0246652Y0834113D01*
X0247006Y0834643D01*
X0247130Y0835267D01*
X0247006Y0835891D01*
X0246652Y0836421D01*
X0246123Y0836774D01*
X0245498Y0836898D01*
D02*
G37*
G36*
X0230270Y0832165D02*
X0229646Y0832040D01*
X0229117Y0831687D01*
X0228763Y0831157D01*
X0228639Y0830533D01*
X0228763Y0829909D01*
X0229117Y0829380D01*
X0229646Y0829026D01*
X0230270Y0828902D01*
X0230894Y0829026D01*
X0231424Y0829380D01*
X0231777Y0829909D01*
X0231902Y0830533D01*
X0231777Y0831157D01*
X0231424Y0831687D01*
X0230894Y0832040D01*
X0230270Y0832165D01*
D02*
G37*
G36*
X0730013Y0832584D02*
X0729233Y0832428D01*
X0728571Y0831986D01*
X0728129Y0831325D01*
X0727974Y0830544D01*
X0728129Y0829764D01*
X0728571Y0829102D01*
X0729233Y0828660D01*
X0730013Y0828505D01*
X0730793Y0828660D01*
X0731455Y0829102D01*
X0731897Y0829764D01*
X0732052Y0830544D01*
X0731897Y0831325D01*
X0731455Y0831986D01*
X0730793Y0832428D01*
X0730013Y0832584D01*
D02*
G37*
G36*
X0245378Y0831706D02*
X0244754Y0831581D01*
X0244225Y0831228D01*
X0243871Y0830699D01*
X0243747Y0830074D01*
X0243871Y0829450D01*
X0244225Y0828921D01*
X0244754Y0828567D01*
X0245378Y0828443D01*
X0246003Y0828567D01*
X0246532Y0828921D01*
X0246885Y0829450D01*
X0247010Y0830074D01*
X0246885Y0830699D01*
X0246532Y0831228D01*
X0246003Y0831581D01*
X0245378Y0831706D01*
D02*
G37*
G36*
X0710489Y0829278D02*
X0708889D01*
X0708583Y0829151D01*
X0708456Y0828845D01*
Y0826645D01*
X0708583Y0826339D01*
X0708889Y0826212D01*
X0710489D01*
X0710795Y0826339D01*
X0710922Y0826645D01*
Y0828845D01*
X0710795Y0829151D01*
X0710489Y0829278D01*
D02*
G37*
G36*
X0730789Y0826978D02*
X0728589D01*
X0728283Y0826851D01*
X0728156Y0826545D01*
Y0824945D01*
X0728283Y0824639D01*
X0728589Y0824512D01*
X0730789D01*
X0731095Y0824639D01*
X0731222Y0824945D01*
Y0826545D01*
X0731095Y0826851D01*
X0730789Y0826978D01*
D02*
G37*
G36*
X0672139Y0830278D02*
X0665239D01*
X0664933Y0830151D01*
X0664806Y0829845D01*
Y0823045D01*
X0664933Y0822739D01*
X0665239Y0822612D01*
X0672139D01*
X0672445Y0822739D01*
X0672572Y0823045D01*
Y0829845D01*
X0672445Y0830151D01*
X0672139Y0830278D01*
D02*
G37*
G36*
X0782931Y0829159D02*
X0774847D01*
Y0821076D01*
X0782931D01*
Y0829159D01*
D02*
G37*
G36*
X0672969Y0819065D02*
X0672189Y0818909D01*
X0671527Y0818467D01*
X0671085Y0817806D01*
X0670930Y0817025D01*
X0671085Y0816245D01*
X0671527Y0815584D01*
X0672189Y0815141D01*
X0672969Y0814986D01*
X0673750Y0815141D01*
X0674411Y0815584D01*
X0674853Y0816245D01*
X0675009Y0817025D01*
X0674853Y0817806D01*
X0674411Y0818467D01*
X0673750Y0818909D01*
X0672969Y0819065D01*
D02*
G37*
G36*
X0587635Y0819429D02*
X0586836Y0819324D01*
X0586093Y0819016D01*
X0585454Y0818526D01*
X0584964Y0817887D01*
X0584656Y0817143D01*
X0584551Y0816345D01*
X0584656Y0815547D01*
X0584964Y0814803D01*
X0585454Y0814164D01*
X0586093Y0813674D01*
X0586836Y0813366D01*
X0587635Y0813261D01*
X0588433Y0813366D01*
X0589177Y0813674D01*
X0589815Y0814164D01*
X0590305Y0814803D01*
X0590613Y0815547D01*
X0590719Y0816345D01*
X0590613Y0817143D01*
X0590305Y0817887D01*
X0589815Y0818526D01*
X0589177Y0819016D01*
X0588433Y0819324D01*
X0587635Y0819429D01*
D02*
G37*
G36*
X0673737Y0813065D02*
X0672957Y0812909D01*
X0672295Y0812467D01*
X0671853Y0811806D01*
X0671698Y0811025D01*
X0671853Y0810245D01*
X0672295Y0809583D01*
X0672957Y0809142D01*
X0673737Y0808986D01*
X0674518Y0809142D01*
X0675179Y0809583D01*
X0675621Y0810245D01*
X0675776Y0811025D01*
X0675621Y0811806D01*
X0675179Y0812467D01*
X0674518Y0812909D01*
X0673737Y0813065D01*
D02*
G37*
G36*
X0587735Y0808329D02*
X0586937Y0808224D01*
X0586193Y0807916D01*
X0585554Y0807425D01*
X0585064Y0806787D01*
X0584756Y0806043D01*
X0584651Y0805245D01*
X0584756Y0804447D01*
X0585064Y0803703D01*
X0585554Y0803064D01*
X0586193Y0802574D01*
X0586937Y0802266D01*
X0587735Y0802161D01*
X0588533Y0802266D01*
X0589277Y0802574D01*
X0589915Y0803064D01*
X0590405Y0803703D01*
X0590713Y0804447D01*
X0590819Y0805245D01*
X0590713Y0806043D01*
X0590405Y0806787D01*
X0589915Y0807425D01*
X0589277Y0807916D01*
X0588533Y0808224D01*
X0587735Y0808329D01*
D02*
G37*
G36*
X0776175Y0801348D02*
X0774803D01*
X0774497Y0801221D01*
X0774370Y0800915D01*
Y0797175D01*
X0774497Y0796869D01*
X0774803Y0796742D01*
X0776175D01*
X0776481Y0796869D01*
X0776608Y0797175D01*
Y0800915D01*
X0776481Y0801221D01*
X0776175Y0801348D01*
D02*
G37*
G36*
X0715989Y0805899D02*
X0714600Y0805716D01*
X0713305Y0805180D01*
X0712194Y0804327D01*
X0711341Y0803215D01*
X0710805Y0801921D01*
X0710622Y0800531D01*
X0710805Y0799142D01*
X0711341Y0797848D01*
X0712194Y0796736D01*
X0713305Y0795883D01*
X0714600Y0795347D01*
X0715989Y0795164D01*
X0717378Y0795347D01*
X0718673Y0795883D01*
X0719784Y0796736D01*
X0720637Y0797848D01*
X0721173Y0799142D01*
X0721356Y0800531D01*
X0721173Y0801921D01*
X0720637Y0803215D01*
X0719784Y0804327D01*
X0718673Y0805180D01*
X0717378Y0805716D01*
X0715989Y0805899D01*
D02*
G37*
G36*
X0589589Y0794634D02*
X0588809Y0794479D01*
X0588147Y0794037D01*
X0587705Y0793376D01*
X0587550Y0792595D01*
X0587705Y0791815D01*
X0588147Y0791153D01*
X0588809Y0790711D01*
X0589589Y0790556D01*
X0590369Y0790711D01*
X0591031Y0791153D01*
X0591473Y0791815D01*
X0591628Y0792595D01*
X0591473Y0793376D01*
X0591031Y0794037D01*
X0590369Y0794479D01*
X0589589Y0794634D01*
D02*
G37*
G36*
X0584589D02*
X0583809Y0794479D01*
X0583147Y0794037D01*
X0582705Y0793376D01*
X0582550Y0792595D01*
X0582705Y0791815D01*
X0583147Y0791153D01*
X0583809Y0790711D01*
X0584589Y0790556D01*
X0585369Y0790711D01*
X0586031Y0791153D01*
X0586473Y0791815D01*
X0586628Y0792595D01*
X0586473Y0793376D01*
X0586031Y0794037D01*
X0585369Y0794479D01*
X0584589Y0794634D01*
D02*
G37*
G36*
X0451189Y0798880D02*
X0449934Y0798756D01*
X0448726Y0798390D01*
X0447614Y0797795D01*
X0446639Y0796995D01*
X0445838Y0796020D01*
X0445244Y0794907D01*
X0444878Y0793700D01*
X0444754Y0792445D01*
X0444878Y0791189D01*
X0445244Y0789982D01*
X0445838Y0788870D01*
X0446639Y0787895D01*
X0447614Y0787094D01*
X0448726Y0786500D01*
X0449934Y0786134D01*
X0451189Y0786010D01*
X0452444Y0786134D01*
X0453652Y0786500D01*
X0454764Y0787094D01*
X0455739Y0787895D01*
X0456539Y0788870D01*
X0457134Y0789982D01*
X0457500Y0791189D01*
X0457624Y0792445D01*
X0457500Y0793700D01*
X0457134Y0794907D01*
X0456539Y0796020D01*
X0455739Y0796995D01*
X0454764Y0797795D01*
X0453652Y0798390D01*
X0452444Y0798756D01*
X0451189Y0798880D01*
D02*
G37*
G36*
X0352389D02*
X0351134Y0798756D01*
X0349926Y0798390D01*
X0348814Y0797795D01*
X0347839Y0796995D01*
X0347039Y0796020D01*
X0346444Y0794907D01*
X0346078Y0793700D01*
X0345954Y0792445D01*
X0346078Y0791189D01*
X0346444Y0789982D01*
X0347039Y0788870D01*
X0347839Y0787895D01*
X0348814Y0787094D01*
X0349926Y0786500D01*
X0351134Y0786134D01*
X0352389Y0786010D01*
X0353644Y0786134D01*
X0354852Y0786500D01*
X0355964Y0787094D01*
X0356939Y0787895D01*
X0357739Y0788870D01*
X0358334Y0789982D01*
X0358700Y0791189D01*
X0358824Y0792445D01*
X0358700Y0793700D01*
X0358334Y0794907D01*
X0357739Y0796020D01*
X0356939Y0796995D01*
X0355964Y0797795D01*
X0354852Y0798390D01*
X0353644Y0798756D01*
X0352389Y0798880D01*
D02*
G37*
G36*
X0810436Y0791102D02*
X0804321D01*
Y0784987D01*
X0810436D01*
Y0791102D01*
D02*
G37*
G36*
X0596589Y0787635D02*
X0595809Y0787479D01*
X0595147Y0787037D01*
X0594705Y0786376D01*
X0594550Y0785595D01*
X0594705Y0784815D01*
X0595147Y0784153D01*
X0595809Y0783711D01*
X0596589Y0783556D01*
X0597369Y0783711D01*
X0598031Y0784153D01*
X0598473Y0784815D01*
X0598628Y0785595D01*
X0598473Y0786376D01*
X0598031Y0787037D01*
X0597369Y0787479D01*
X0596589Y0787635D01*
D02*
G37*
G36*
X0565289Y0787422D02*
X0564234Y0787283D01*
X0563251Y0786875D01*
X0562406Y0786228D01*
X0561759Y0785383D01*
X0561351Y0784400D01*
X0561212Y0783345D01*
X0561351Y0782290D01*
X0561759Y0781307D01*
X0562406Y0780462D01*
X0563251Y0779814D01*
X0564234Y0779407D01*
X0565289Y0779268D01*
X0566344Y0779407D01*
X0567327Y0779814D01*
X0568172Y0780462D01*
X0568819Y0781307D01*
X0569227Y0782290D01*
X0569366Y0783345D01*
X0569227Y0784400D01*
X0568819Y0785383D01*
X0568172Y0786228D01*
X0567327Y0786875D01*
X0566344Y0787283D01*
X0565289Y0787422D01*
D02*
G37*
G36*
X0487110Y0787430D02*
X0483468D01*
X0482602Y0787258D01*
X0481867Y0786767D01*
X0481376Y0786032D01*
X0481204Y0785166D01*
Y0781524D01*
X0481376Y0780657D01*
X0481867Y0779923D01*
X0482602Y0779432D01*
X0483468Y0779260D01*
X0487110D01*
X0487976Y0779432D01*
X0488711Y0779923D01*
X0489202Y0780657D01*
X0489374Y0781524D01*
Y0785166D01*
X0489202Y0786032D01*
X0488711Y0786767D01*
X0487976Y0787258D01*
X0487110Y0787430D01*
D02*
G37*
G36*
X0610389Y0787521D02*
X0609308Y0787379D01*
X0608301Y0786961D01*
X0607436Y0786298D01*
X0606773Y0785433D01*
X0606355Y0784426D01*
X0606213Y0783345D01*
X0606355Y0782264D01*
X0606773Y0781257D01*
X0607436Y0780392D01*
X0608301Y0779728D01*
X0609308Y0779311D01*
X0610389Y0779169D01*
X0611470Y0779311D01*
X0612477Y0779728D01*
X0613342Y0780392D01*
X0614005Y0781257D01*
X0614423Y0782264D01*
X0614565Y0783345D01*
X0614423Y0784426D01*
X0614005Y0785433D01*
X0613342Y0786298D01*
X0612477Y0786961D01*
X0611470Y0787379D01*
X0610389Y0787521D01*
D02*
G37*
G36*
X0632259Y0787530D02*
X0628519D01*
X0627633Y0787353D01*
X0626882Y0786852D01*
X0626380Y0786101D01*
X0626204Y0785215D01*
Y0781475D01*
X0626380Y0780589D01*
X0626882Y0779838D01*
X0627633Y0779336D01*
X0628519Y0779160D01*
X0632259D01*
X0633145Y0779336D01*
X0633896Y0779838D01*
X0634397Y0780589D01*
X0634574Y0781475D01*
Y0785215D01*
X0634397Y0786101D01*
X0633896Y0786852D01*
X0633145Y0787353D01*
X0632259Y0787530D01*
D02*
G37*
G36*
X0596589Y0782634D02*
X0595809Y0782479D01*
X0595147Y0782037D01*
X0594705Y0781376D01*
X0594550Y0780595D01*
X0594705Y0779815D01*
X0595147Y0779153D01*
X0595809Y0778711D01*
X0596589Y0778556D01*
X0597369Y0778711D01*
X0598031Y0779153D01*
X0598473Y0779815D01*
X0598628Y0780595D01*
X0598473Y0781376D01*
X0598031Y0782037D01*
X0597369Y0782479D01*
X0596589Y0782634D01*
D02*
G37*
G36*
X0879247Y0778592D02*
X0873131D01*
Y0772477D01*
X0879247D01*
Y0778592D01*
D02*
G37*
G36*
X0565289Y0767421D02*
X0564234Y0767283D01*
X0563251Y0766875D01*
X0562406Y0766227D01*
X0561759Y0765383D01*
X0561351Y0764400D01*
X0561212Y0763345D01*
X0561351Y0762290D01*
X0561759Y0761307D01*
X0562406Y0760462D01*
X0563251Y0759814D01*
X0564234Y0759407D01*
X0565289Y0759268D01*
X0566344Y0759407D01*
X0567327Y0759814D01*
X0568172Y0760462D01*
X0568819Y0761307D01*
X0569227Y0762290D01*
X0569366Y0763345D01*
X0569227Y0764400D01*
X0568819Y0765383D01*
X0568172Y0766227D01*
X0567327Y0766875D01*
X0566344Y0767283D01*
X0565289Y0767421D01*
D02*
G37*
G36*
X0485289D02*
X0484234Y0767283D01*
X0483251Y0766875D01*
X0482406Y0766227D01*
X0481758Y0765383D01*
X0481351Y0764400D01*
X0481212Y0763345D01*
X0481351Y0762290D01*
X0481758Y0761307D01*
X0482406Y0760462D01*
X0483251Y0759814D01*
X0484234Y0759407D01*
X0485289Y0759268D01*
X0486344Y0759407D01*
X0487327Y0759814D01*
X0488172Y0760462D01*
X0488819Y0761307D01*
X0489227Y0762290D01*
X0489366Y0763345D01*
X0489227Y0764400D01*
X0488819Y0765383D01*
X0488172Y0766227D01*
X0487327Y0766875D01*
X0486344Y0767283D01*
X0485289Y0767421D01*
D02*
G37*
G36*
X0620389Y0768916D02*
X0619128Y0768750D01*
X0617954Y0768263D01*
X0616945Y0767489D01*
X0616171Y0766480D01*
X0615684Y0765306D01*
X0615518Y0764045D01*
X0615684Y0762784D01*
X0616171Y0761610D01*
X0616945Y0760601D01*
X0617954Y0759827D01*
X0619128Y0759340D01*
X0620389Y0759174D01*
X0621650Y0759340D01*
X0622824Y0759827D01*
X0623833Y0760601D01*
X0624607Y0761610D01*
X0625094Y0762784D01*
X0625260Y0764045D01*
X0625094Y0765306D01*
X0624607Y0766480D01*
X0623833Y0767489D01*
X0622824Y0768263D01*
X0621650Y0768750D01*
X0620389Y0768916D01*
D02*
G37*
G36*
X0442251Y0756018D02*
X0437527D01*
X0437064Y0755926D01*
X0436671Y0755663D01*
X0436408Y0755270D01*
X0436316Y0754807D01*
Y0750083D01*
X0436408Y0749619D01*
X0436671Y0749227D01*
X0437064Y0748964D01*
X0437527Y0748872D01*
X0442251D01*
X0442715Y0748964D01*
X0443107Y0749227D01*
X0443370Y0749619D01*
X0443462Y0750083D01*
Y0754807D01*
X0443370Y0755270D01*
X0443107Y0755663D01*
X0442715Y0755926D01*
X0442251Y0756018D01*
D02*
G37*
G36*
X0265189Y0746776D02*
X0264565Y0746652D01*
X0264035Y0746298D01*
X0263682Y0745769D01*
X0263558Y0745145D01*
X0263682Y0744521D01*
X0264035Y0743991D01*
X0264565Y0743638D01*
X0265189Y0743513D01*
X0265813Y0743638D01*
X0266342Y0743991D01*
X0266696Y0744521D01*
X0266820Y0745145D01*
X0266696Y0745769D01*
X0266342Y0746298D01*
X0265813Y0746652D01*
X0265189Y0746776D01*
D02*
G37*
G36*
X0485289Y0747422D02*
X0484234Y0747283D01*
X0483251Y0746875D01*
X0482406Y0746228D01*
X0481758Y0745383D01*
X0481351Y0744400D01*
X0481212Y0743345D01*
X0481351Y0742290D01*
X0481758Y0741307D01*
X0482406Y0740462D01*
X0483251Y0739814D01*
X0484234Y0739407D01*
X0485289Y0739268D01*
X0486344Y0739407D01*
X0487327Y0739814D01*
X0488172Y0740462D01*
X0488819Y0741307D01*
X0489227Y0742290D01*
X0489366Y0743345D01*
X0489227Y0744400D01*
X0488819Y0745383D01*
X0488172Y0746228D01*
X0487327Y0746875D01*
X0486344Y0747283D01*
X0485289Y0747422D01*
D02*
G37*
G36*
X0439889Y0746025D02*
X0438962Y0745903D01*
X0438099Y0745545D01*
X0437357Y0744977D01*
X0436788Y0744235D01*
X0436431Y0743371D01*
X0436309Y0742445D01*
X0436431Y0741518D01*
X0436788Y0740655D01*
X0437357Y0739913D01*
X0438099Y0739344D01*
X0438962Y0738987D01*
X0439889Y0738865D01*
X0440816Y0738987D01*
X0441679Y0739344D01*
X0442421Y0739913D01*
X0442989Y0740655D01*
X0443347Y0741518D01*
X0443469Y0742445D01*
X0443347Y0743371D01*
X0442989Y0744235D01*
X0442421Y0744977D01*
X0441679Y0745545D01*
X0440816Y0745903D01*
X0439889Y0746025D01*
D02*
G37*
G36*
X0363789D02*
X0362862Y0745903D01*
X0361999Y0745545D01*
X0361257Y0744977D01*
X0360688Y0744235D01*
X0360331Y0743371D01*
X0360209Y0742445D01*
X0360331Y0741518D01*
X0360688Y0740655D01*
X0361257Y0739913D01*
X0361999Y0739344D01*
X0362862Y0738987D01*
X0363789Y0738865D01*
X0364716Y0738987D01*
X0365579Y0739344D01*
X0366321Y0739913D01*
X0366890Y0740655D01*
X0367247Y0741518D01*
X0367369Y0742445D01*
X0367247Y0743371D01*
X0366890Y0744235D01*
X0366321Y0744977D01*
X0365579Y0745545D01*
X0364716Y0745903D01*
X0363789Y0746025D01*
D02*
G37*
G36*
X0280989Y0734376D02*
X0280365Y0734252D01*
X0279835Y0733898D01*
X0279482Y0733369D01*
X0279358Y0732745D01*
X0279482Y0732121D01*
X0279835Y0731591D01*
X0280365Y0731238D01*
X0280989Y0731113D01*
X0281613Y0731238D01*
X0282142Y0731591D01*
X0282496Y0732121D01*
X0282620Y0732745D01*
X0282496Y0733369D01*
X0282142Y0733898D01*
X0281613Y0734252D01*
X0280989Y0734376D01*
D02*
G37*
G36*
X0834795Y0738887D02*
X0826711D01*
Y0730803D01*
X0834795D01*
Y0738887D01*
D02*
G37*
G36*
X0366151Y0736018D02*
X0361427D01*
X0360964Y0735926D01*
X0360571Y0735663D01*
X0360308Y0735270D01*
X0360216Y0734807D01*
Y0730083D01*
X0360308Y0729619D01*
X0360571Y0729227D01*
X0360964Y0728964D01*
X0361427Y0728872D01*
X0366151D01*
X0366615Y0728964D01*
X0367007Y0729227D01*
X0367270Y0729619D01*
X0367362Y0730083D01*
Y0734807D01*
X0367270Y0735270D01*
X0367007Y0735663D01*
X0366615Y0735926D01*
X0366151Y0736018D01*
D02*
G37*
G36*
X0273308Y0724361D02*
X0272528Y0724205D01*
X0271866Y0723763D01*
X0271424Y0723102D01*
X0271269Y0722321D01*
X0271424Y0721541D01*
X0271866Y0720879D01*
X0272528Y0720437D01*
X0273308Y0720282D01*
X0274089Y0720437D01*
X0274750Y0720879D01*
X0275192Y0721541D01*
X0275348Y0722321D01*
X0275192Y0723102D01*
X0274750Y0723763D01*
X0274089Y0724205D01*
X0273308Y0724361D01*
D02*
G37*
G36*
X0285489Y0723464D02*
X0284865Y0723340D01*
X0284335Y0722987D01*
X0283982Y0722457D01*
X0283858Y0721833D01*
X0283982Y0721209D01*
X0284335Y0720680D01*
X0284865Y0720326D01*
X0285489Y0720202D01*
X0286113Y0720326D01*
X0286643Y0720680D01*
X0286996Y0721209D01*
X0287120Y0721833D01*
X0286996Y0722457D01*
X0286643Y0722987D01*
X0286113Y0723340D01*
X0285489Y0723464D01*
D02*
G37*
G36*
X0565289Y0727422D02*
X0564234Y0727283D01*
X0563251Y0726875D01*
X0562406Y0726228D01*
X0561759Y0725383D01*
X0561351Y0724400D01*
X0561212Y0723345D01*
X0561351Y0722290D01*
X0561759Y0721307D01*
X0562406Y0720462D01*
X0563251Y0719814D01*
X0564234Y0719407D01*
X0565289Y0719268D01*
X0566344Y0719407D01*
X0567327Y0719814D01*
X0568172Y0720462D01*
X0568819Y0721307D01*
X0569227Y0722290D01*
X0569366Y0723345D01*
X0569227Y0724400D01*
X0568819Y0725383D01*
X0568172Y0726228D01*
X0567327Y0726875D01*
X0566344Y0727283D01*
X0565289Y0727422D01*
D02*
G37*
G36*
X0485289D02*
X0484234Y0727283D01*
X0483251Y0726875D01*
X0482406Y0726228D01*
X0481758Y0725383D01*
X0481351Y0724400D01*
X0481212Y0723345D01*
X0481351Y0722290D01*
X0481758Y0721307D01*
X0482406Y0720462D01*
X0483251Y0719814D01*
X0484234Y0719407D01*
X0485289Y0719268D01*
X0486344Y0719407D01*
X0487327Y0719814D01*
X0488172Y0720462D01*
X0488819Y0721307D01*
X0489227Y0722290D01*
X0489366Y0723345D01*
X0489227Y0724400D01*
X0488819Y0725383D01*
X0488172Y0726228D01*
X0487327Y0726875D01*
X0486344Y0727283D01*
X0485289Y0727422D01*
D02*
G37*
G36*
X0280989Y0712076D02*
X0280365Y0711952D01*
X0279835Y0711598D01*
X0279482Y0711069D01*
X0279358Y0710445D01*
X0279482Y0709821D01*
X0279835Y0709291D01*
X0280365Y0708938D01*
X0280989Y0708813D01*
X0281613Y0708938D01*
X0282142Y0709291D01*
X0282496Y0709821D01*
X0282620Y0710445D01*
X0282496Y0711069D01*
X0282142Y0711598D01*
X0281613Y0711952D01*
X0280989Y0712076D01*
D02*
G37*
G36*
X0596589Y0708234D02*
X0595809Y0708078D01*
X0595147Y0707636D01*
X0594705Y0706975D01*
X0594550Y0706194D01*
X0594705Y0705414D01*
X0595147Y0704753D01*
X0595809Y0704311D01*
X0596589Y0704155D01*
X0597369Y0704311D01*
X0598031Y0704753D01*
X0598473Y0705414D01*
X0598628Y0706194D01*
X0598473Y0706975D01*
X0598031Y0707636D01*
X0597369Y0708078D01*
X0596589Y0708234D01*
D02*
G37*
G36*
X0610389Y0708021D02*
X0609308Y0707878D01*
X0608301Y0707461D01*
X0607436Y0706798D01*
X0606773Y0705933D01*
X0606355Y0704926D01*
X0606213Y0703845D01*
X0606355Y0702764D01*
X0606773Y0701757D01*
X0607436Y0700892D01*
X0608301Y0700229D01*
X0609308Y0699811D01*
X0610389Y0699669D01*
X0611470Y0699811D01*
X0612477Y0700229D01*
X0613342Y0700892D01*
X0614005Y0701757D01*
X0614423Y0702764D01*
X0614565Y0703845D01*
X0614423Y0704926D01*
X0614005Y0705933D01*
X0613342Y0706798D01*
X0612477Y0707461D01*
X0611470Y0707878D01*
X0610389Y0708021D01*
D02*
G37*
G36*
X0632259Y0708030D02*
X0628519D01*
X0627633Y0707853D01*
X0626882Y0707352D01*
X0626380Y0706601D01*
X0626204Y0705715D01*
Y0701975D01*
X0626380Y0701089D01*
X0626882Y0700338D01*
X0627633Y0699836D01*
X0628519Y0699660D01*
X0632259D01*
X0633145Y0699836D01*
X0633896Y0700338D01*
X0634397Y0701089D01*
X0634574Y0701975D01*
Y0705715D01*
X0634397Y0706601D01*
X0633896Y0707352D01*
X0633145Y0707853D01*
X0632259Y0708030D01*
D02*
G37*
G36*
X0565289Y0707421D02*
X0564234Y0707283D01*
X0563251Y0706875D01*
X0562406Y0706227D01*
X0561759Y0705383D01*
X0561351Y0704400D01*
X0561212Y0703345D01*
X0561351Y0702290D01*
X0561759Y0701307D01*
X0562406Y0700462D01*
X0563251Y0699814D01*
X0564234Y0699407D01*
X0565289Y0699268D01*
X0566344Y0699407D01*
X0567327Y0699814D01*
X0568172Y0700462D01*
X0568819Y0701307D01*
X0569227Y0702290D01*
X0569366Y0703345D01*
X0569227Y0704400D01*
X0568819Y0705383D01*
X0568172Y0706227D01*
X0567327Y0706875D01*
X0566344Y0707283D01*
X0565289Y0707421D01*
D02*
G37*
G36*
X0485289D02*
X0484234Y0707283D01*
X0483251Y0706875D01*
X0482406Y0706227D01*
X0481758Y0705383D01*
X0481351Y0704400D01*
X0481212Y0703345D01*
X0481351Y0702290D01*
X0481758Y0701307D01*
X0482406Y0700462D01*
X0483251Y0699814D01*
X0484234Y0699407D01*
X0485289Y0699268D01*
X0486344Y0699407D01*
X0487327Y0699814D01*
X0488172Y0700462D01*
X0488819Y0701307D01*
X0489227Y0702290D01*
X0489366Y0703345D01*
X0489227Y0704400D01*
X0488819Y0705383D01*
X0488172Y0706227D01*
X0487327Y0706875D01*
X0486344Y0707283D01*
X0485289Y0707421D01*
D02*
G37*
G36*
X0596589Y0703234D02*
X0595809Y0703078D01*
X0595147Y0702636D01*
X0594705Y0701975D01*
X0594550Y0701194D01*
X0594705Y0700414D01*
X0595147Y0699753D01*
X0595809Y0699310D01*
X0596589Y0699155D01*
X0597369Y0699310D01*
X0598031Y0699753D01*
X0598473Y0700414D01*
X0598628Y0701194D01*
X0598473Y0701975D01*
X0598031Y0702636D01*
X0597369Y0703078D01*
X0596589Y0703234D01*
D02*
G37*
G36*
X0291516Y0703011D02*
X0290735Y0702855D01*
X0290074Y0702413D01*
X0289632Y0701752D01*
X0289476Y0700972D01*
X0289632Y0700191D01*
X0290074Y0699530D01*
X0290735Y0699087D01*
X0291516Y0698932D01*
X0292296Y0699087D01*
X0292957Y0699530D01*
X0293400Y0700191D01*
X0293555Y0700972D01*
X0293400Y0701752D01*
X0292957Y0702413D01*
X0292296Y0702855D01*
X0291516Y0703011D01*
D02*
G37*
G36*
X0265489Y0693876D02*
X0264865Y0693752D01*
X0264335Y0693398D01*
X0263982Y0692869D01*
X0263858Y0692245D01*
X0263982Y0691621D01*
X0264335Y0691091D01*
X0264865Y0690738D01*
X0265489Y0690614D01*
X0266113Y0690738D01*
X0266642Y0691091D01*
X0266996Y0691621D01*
X0267120Y0692245D01*
X0266996Y0692869D01*
X0266642Y0693398D01*
X0266113Y0693752D01*
X0265489Y0693876D01*
D02*
G37*
G36*
X0336339Y0692534D02*
X0335558Y0692379D01*
X0334897Y0691937D01*
X0334455Y0691276D01*
X0334299Y0690495D01*
X0334455Y0689715D01*
X0334897Y0689053D01*
X0335558Y0688611D01*
X0336339Y0688456D01*
X0337119Y0688611D01*
X0337780Y0689053D01*
X0338223Y0689715D01*
X0338378Y0690495D01*
X0338223Y0691276D01*
X0337780Y0691937D01*
X0337119Y0692379D01*
X0336339Y0692534D01*
D02*
G37*
G36*
X0451189Y0698880D02*
X0449934Y0698756D01*
X0448726Y0698390D01*
X0447614Y0697795D01*
X0446639Y0696995D01*
X0445838Y0696020D01*
X0445244Y0694907D01*
X0444878Y0693700D01*
X0444754Y0692445D01*
X0444878Y0691189D01*
X0445244Y0689982D01*
X0445838Y0688870D01*
X0446639Y0687895D01*
X0447614Y0687094D01*
X0448726Y0686500D01*
X0449934Y0686134D01*
X0451189Y0686010D01*
X0452444Y0686134D01*
X0453652Y0686500D01*
X0454764Y0687094D01*
X0455739Y0687895D01*
X0456539Y0688870D01*
X0457134Y0689982D01*
X0457500Y0691189D01*
X0457624Y0692445D01*
X0457500Y0693700D01*
X0457134Y0694907D01*
X0456539Y0696020D01*
X0455739Y0696995D01*
X0454764Y0697795D01*
X0453652Y0698390D01*
X0452444Y0698756D01*
X0451189Y0698880D01*
D02*
G37*
G36*
X0352389D02*
X0351134Y0698756D01*
X0349926Y0698390D01*
X0348814Y0697795D01*
X0347839Y0696995D01*
X0347039Y0696020D01*
X0346444Y0694907D01*
X0346078Y0693700D01*
X0345954Y0692445D01*
X0346078Y0691189D01*
X0346444Y0689982D01*
X0347039Y0688870D01*
X0347839Y0687895D01*
X0348814Y0687094D01*
X0349926Y0686500D01*
X0351134Y0686134D01*
X0352389Y0686010D01*
X0353644Y0686134D01*
X0354852Y0686500D01*
X0355964Y0687094D01*
X0356939Y0687895D01*
X0357739Y0688870D01*
X0358334Y0689982D01*
X0358700Y0691189D01*
X0358824Y0692445D01*
X0358700Y0693700D01*
X0358334Y0694907D01*
X0357739Y0696020D01*
X0356939Y0696995D01*
X0355964Y0697795D01*
X0354852Y0698390D01*
X0353644Y0698756D01*
X0352389Y0698880D01*
D02*
G37*
G36*
X0590289Y0687534D02*
X0589509Y0687378D01*
X0588847Y0686936D01*
X0588405Y0686275D01*
X0588250Y0685495D01*
X0588405Y0684714D01*
X0588847Y0684053D01*
X0589509Y0683610D01*
X0590289Y0683455D01*
X0591069Y0683610D01*
X0591731Y0684053D01*
X0592173Y0684714D01*
X0592328Y0685495D01*
X0592173Y0686275D01*
X0591731Y0686936D01*
X0591069Y0687378D01*
X0590289Y0687534D01*
D02*
G37*
G36*
X0585289D02*
X0584509Y0687378D01*
X0583847Y0686936D01*
X0583405Y0686275D01*
X0583250Y0685495D01*
X0583405Y0684714D01*
X0583847Y0684053D01*
X0584509Y0683610D01*
X0585289Y0683455D01*
X0586069Y0683610D01*
X0586731Y0684053D01*
X0587173Y0684714D01*
X0587328Y0685495D01*
X0587173Y0686275D01*
X0586731Y0686936D01*
X0586069Y0687378D01*
X0585289Y0687534D01*
D02*
G37*
G36*
X0592435Y0637678D02*
X0591637Y0637573D01*
X0590893Y0637265D01*
X0590254Y0636775D01*
X0589764Y0636136D01*
X0589456Y0635393D01*
X0589351Y0634594D01*
X0589456Y0633796D01*
X0589764Y0633053D01*
X0590254Y0632414D01*
X0590893Y0631924D01*
X0591637Y0631616D01*
X0592435Y0631511D01*
X0593233Y0631616D01*
X0593977Y0631924D01*
X0594615Y0632414D01*
X0595105Y0633053D01*
X0595413Y0633796D01*
X0595518Y0634594D01*
X0595413Y0635393D01*
X0595105Y0636136D01*
X0594615Y0636775D01*
X0593977Y0637265D01*
X0593233Y0637573D01*
X0592435Y0637678D01*
D02*
G37*
G36*
X0677567Y0635281D02*
X0676787Y0635126D01*
X0676125Y0634684D01*
X0675683Y0634022D01*
X0675528Y0633242D01*
X0675683Y0632462D01*
X0676125Y0631800D01*
X0676787Y0631358D01*
X0677567Y0631203D01*
X0678348Y0631358D01*
X0679009Y0631800D01*
X0679451Y0632462D01*
X0679606Y0633242D01*
X0679451Y0634022D01*
X0679009Y0634684D01*
X0678348Y0635126D01*
X0677567Y0635281D01*
D02*
G37*
G36*
X0662723Y0632794D02*
X0661942Y0632639D01*
X0661281Y0632197D01*
X0660839Y0631535D01*
X0660684Y0630755D01*
X0660839Y0629974D01*
X0660943Y0629819D01*
X0660707Y0629378D01*
X0659689D01*
X0659383Y0629251D01*
X0659256Y0628945D01*
Y0626745D01*
X0659383Y0626439D01*
X0659689Y0626312D01*
X0661289D01*
X0661595Y0626439D01*
X0661722Y0626745D01*
Y0628443D01*
X0661737Y0628473D01*
X0662222Y0628815D01*
X0662723Y0628715D01*
X0663503Y0628871D01*
X0664165Y0629313D01*
X0664607Y0629974D01*
X0664762Y0630755D01*
X0664607Y0631535D01*
X0664165Y0632197D01*
X0663503Y0632639D01*
X0662723Y0632794D01*
D02*
G37*
G36*
X0589989Y0630784D02*
X0589209Y0630629D01*
X0588547Y0630187D01*
X0588105Y0629525D01*
X0587950Y0628745D01*
X0588105Y0627964D01*
X0588547Y0627303D01*
X0589209Y0626861D01*
X0589989Y0626706D01*
X0590769Y0626861D01*
X0591431Y0627303D01*
X0591873Y0627964D01*
X0591874Y0627971D01*
X0592384D01*
X0592405Y0627865D01*
X0592847Y0627203D01*
X0593509Y0626761D01*
X0594289Y0626606D01*
X0595069Y0626761D01*
X0595731Y0627203D01*
X0596173Y0627865D01*
X0596328Y0628645D01*
X0596173Y0629425D01*
X0595731Y0630087D01*
X0595069Y0630529D01*
X0594289Y0630684D01*
X0593509Y0630529D01*
X0592847Y0630087D01*
X0592405Y0629425D01*
X0592404Y0629419D01*
X0591894D01*
X0591873Y0629525D01*
X0591431Y0630187D01*
X0590769Y0630629D01*
X0589989Y0630784D01*
D02*
G37*
G36*
X0621489Y0631516D02*
X0620228Y0631350D01*
X0619054Y0630863D01*
X0618045Y0630089D01*
X0617271Y0629080D01*
X0616784Y0627906D01*
X0616618Y0626645D01*
X0616784Y0625384D01*
X0617271Y0624209D01*
X0618045Y0623201D01*
X0619054Y0622427D01*
X0620228Y0621940D01*
X0621489Y0621774D01*
X0622750Y0621940D01*
X0623924Y0622427D01*
X0624933Y0623201D01*
X0625707Y0624209D01*
X0626194Y0625384D01*
X0626360Y0626645D01*
X0626194Y0627906D01*
X0625707Y0629080D01*
X0624933Y0630089D01*
X0623924Y0630863D01*
X0622750Y0631350D01*
X0621489Y0631516D01*
D02*
G37*
G36*
X0671589Y0622984D02*
X0670809Y0622829D01*
X0670147Y0622387D01*
X0669705Y0621725D01*
X0669550Y0620945D01*
X0669705Y0620164D01*
X0670147Y0619503D01*
X0670809Y0619061D01*
X0671589Y0618906D01*
X0672369Y0619061D01*
X0673031Y0619503D01*
X0673473Y0620164D01*
X0673628Y0620945D01*
X0673473Y0621725D01*
X0673031Y0622387D01*
X0672369Y0622829D01*
X0671589Y0622984D01*
D02*
G37*
G36*
X0451278Y0626195D02*
X0450022Y0626071D01*
X0448815Y0625705D01*
X0447703Y0625110D01*
X0446728Y0624310D01*
X0445927Y0623335D01*
X0445333Y0622222D01*
X0444967Y0621015D01*
X0444843Y0619760D01*
X0444967Y0618504D01*
X0445333Y0617297D01*
X0445927Y0616185D01*
X0446728Y0615210D01*
X0447703Y0614409D01*
X0448815Y0613815D01*
X0450022Y0613449D01*
X0451278Y0613325D01*
X0452533Y0613449D01*
X0453740Y0613815D01*
X0454853Y0614409D01*
X0455828Y0615210D01*
X0456628Y0616185D01*
X0457223Y0617297D01*
X0457589Y0618504D01*
X0457713Y0619760D01*
X0457589Y0621015D01*
X0457223Y0622222D01*
X0456628Y0623335D01*
X0455828Y0624310D01*
X0454853Y0625110D01*
X0453740Y0625705D01*
X0452533Y0626071D01*
X0451278Y0626195D01*
D02*
G37*
G36*
X0351789Y0625780D02*
X0350534Y0625656D01*
X0349326Y0625290D01*
X0348214Y0624695D01*
X0347239Y0623895D01*
X0346439Y0622920D01*
X0345844Y0621807D01*
X0345478Y0620600D01*
X0345354Y0619345D01*
X0345478Y0618089D01*
X0345844Y0616882D01*
X0346439Y0615770D01*
X0347239Y0614795D01*
X0348214Y0613994D01*
X0349326Y0613400D01*
X0350534Y0613034D01*
X0351789Y0612910D01*
X0353044Y0613034D01*
X0354252Y0613400D01*
X0355364Y0613994D01*
X0356339Y0614795D01*
X0357139Y0615770D01*
X0357734Y0616882D01*
X0358100Y0618089D01*
X0358224Y0619345D01*
X0358100Y0620600D01*
X0357734Y0621807D01*
X0357139Y0622920D01*
X0356339Y0623895D01*
X0355364Y0624695D01*
X0354252Y0625290D01*
X0353044Y0625656D01*
X0351789Y0625780D01*
D02*
G37*
G36*
X0600489Y0615184D02*
X0599709Y0615029D01*
X0599047Y0614587D01*
X0598605Y0613925D01*
X0598450Y0613145D01*
X0598605Y0612364D01*
X0599047Y0611703D01*
X0599709Y0611261D01*
X0600489Y0611106D01*
X0601269Y0611261D01*
X0601931Y0611703D01*
X0602373Y0612364D01*
X0602528Y0613145D01*
X0602373Y0613925D01*
X0601931Y0614587D01*
X0601269Y0615029D01*
X0600489Y0615184D01*
D02*
G37*
G36*
X0600789Y0609984D02*
X0600009Y0609829D01*
X0599347Y0609387D01*
X0598905Y0608725D01*
X0598750Y0607945D01*
X0598905Y0607164D01*
X0599347Y0606503D01*
X0600009Y0606061D01*
X0600789Y0605906D01*
X0601569Y0606061D01*
X0602231Y0606503D01*
X0602673Y0607164D01*
X0602828Y0607945D01*
X0602673Y0608725D01*
X0602231Y0609387D01*
X0601569Y0609829D01*
X0600789Y0609984D01*
D02*
G37*
G36*
X0563089Y0613222D02*
X0562034Y0613083D01*
X0561051Y0612675D01*
X0560206Y0612028D01*
X0559558Y0611183D01*
X0559151Y0610200D01*
X0559012Y0609145D01*
X0559151Y0608090D01*
X0559558Y0607107D01*
X0560206Y0606262D01*
X0561051Y0605614D01*
X0562034Y0605207D01*
X0563089Y0605068D01*
X0564144Y0605207D01*
X0565127Y0605614D01*
X0565972Y0606262D01*
X0566619Y0607107D01*
X0567027Y0608090D01*
X0567166Y0609145D01*
X0567027Y0610200D01*
X0566619Y0611183D01*
X0565972Y0612028D01*
X0565127Y0612675D01*
X0564144Y0613083D01*
X0563089Y0613222D01*
D02*
G37*
G36*
X0484910Y0613230D02*
X0481268D01*
X0480402Y0613058D01*
X0479667Y0612567D01*
X0479176Y0611832D01*
X0479004Y0610966D01*
Y0607324D01*
X0479176Y0606458D01*
X0479667Y0605723D01*
X0480402Y0605232D01*
X0481268Y0605060D01*
X0484910D01*
X0485776Y0605232D01*
X0486511Y0605723D01*
X0487002Y0606458D01*
X0487174Y0607324D01*
Y0610966D01*
X0487002Y0611832D01*
X0486511Y0612567D01*
X0485776Y0613058D01*
X0484910Y0613230D01*
D02*
G37*
G36*
X0631189Y0610921D02*
X0630108Y0610779D01*
X0629101Y0610361D01*
X0628236Y0609698D01*
X0627573Y0608833D01*
X0627155Y0607826D01*
X0627013Y0606745D01*
X0627155Y0605664D01*
X0627573Y0604657D01*
X0628236Y0603792D01*
X0629101Y0603128D01*
X0630108Y0602711D01*
X0631189Y0602569D01*
X0632270Y0602711D01*
X0633277Y0603128D01*
X0634142Y0603792D01*
X0634805Y0604657D01*
X0635223Y0605664D01*
X0635365Y0606745D01*
X0635223Y0607826D01*
X0634805Y0608833D01*
X0634142Y0609698D01*
X0633277Y0610361D01*
X0632270Y0610779D01*
X0631189Y0610921D01*
D02*
G37*
G36*
X0613059Y0610929D02*
X0609319D01*
X0608433Y0610753D01*
X0607682Y0610252D01*
X0607181Y0609501D01*
X0607004Y0608615D01*
Y0604875D01*
X0607181Y0603989D01*
X0607682Y0603238D01*
X0608433Y0602736D01*
X0609319Y0602560D01*
X0613059D01*
X0613945Y0602736D01*
X0614696Y0603238D01*
X0615197Y0603989D01*
X0615374Y0604875D01*
Y0608615D01*
X0615197Y0609501D01*
X0614696Y0610252D01*
X0613945Y0610753D01*
X0613059Y0610929D01*
D02*
G37*
G36*
X0701059Y0599064D02*
X0697319D01*
X0697013Y0598937D01*
X0696886Y0598631D01*
Y0597259D01*
X0697013Y0596953D01*
X0697319Y0596826D01*
X0701059D01*
X0701365Y0596953D01*
X0701492Y0597259D01*
Y0598631D01*
X0701365Y0598937D01*
X0701059Y0599064D01*
D02*
G37*
G36*
X0658289Y0598584D02*
X0657509Y0598429D01*
X0656847Y0597987D01*
X0656405Y0597325D01*
X0656250Y0596545D01*
X0656405Y0595764D01*
X0656847Y0595103D01*
X0657509Y0594661D01*
X0658289Y0594506D01*
X0659069Y0594661D01*
X0659731Y0595103D01*
X0660173Y0595764D01*
X0660328Y0596545D01*
X0660173Y0597325D01*
X0659731Y0597987D01*
X0659069Y0598429D01*
X0658289Y0598584D01*
D02*
G37*
G36*
X0257489Y0599883D02*
X0256340Y0599732D01*
X0255270Y0599288D01*
X0254351Y0598583D01*
X0253646Y0597664D01*
X0253202Y0596594D01*
X0253051Y0595445D01*
X0253202Y0594296D01*
X0253646Y0593226D01*
X0254351Y0592307D01*
X0255270Y0591602D01*
X0256340Y0591158D01*
X0257489Y0591007D01*
X0258638Y0591158D01*
X0259708Y0591602D01*
X0260627Y0592307D01*
X0261332Y0593226D01*
X0261776Y0594296D01*
X0261927Y0595445D01*
X0261776Y0596594D01*
X0261332Y0597664D01*
X0260627Y0598583D01*
X0259708Y0599288D01*
X0258638Y0599732D01*
X0257489Y0599883D01*
D02*
G37*
G36*
X0563089Y0593222D02*
X0562034Y0593083D01*
X0561051Y0592675D01*
X0560206Y0592028D01*
X0559558Y0591183D01*
X0559151Y0590200D01*
X0559012Y0589145D01*
X0559151Y0588090D01*
X0559558Y0587107D01*
X0560206Y0586262D01*
X0561051Y0585614D01*
X0562034Y0585207D01*
X0563089Y0585068D01*
X0564144Y0585207D01*
X0565127Y0585614D01*
X0565972Y0586262D01*
X0566619Y0587107D01*
X0567027Y0588090D01*
X0567166Y0589145D01*
X0567027Y0590200D01*
X0566619Y0591183D01*
X0565972Y0592028D01*
X0565127Y0592675D01*
X0564144Y0593083D01*
X0563089Y0593222D01*
D02*
G37*
G36*
X0483089D02*
X0482034Y0593083D01*
X0481051Y0592675D01*
X0480206Y0592028D01*
X0479559Y0591183D01*
X0479151Y0590200D01*
X0479012Y0589145D01*
X0479151Y0588090D01*
X0479559Y0587107D01*
X0480206Y0586262D01*
X0481051Y0585614D01*
X0482034Y0585207D01*
X0483089Y0585068D01*
X0484144Y0585207D01*
X0485127Y0585614D01*
X0485972Y0586262D01*
X0486619Y0587107D01*
X0487027Y0588090D01*
X0487166Y0589145D01*
X0487027Y0590200D01*
X0486619Y0591183D01*
X0485972Y0592028D01*
X0485127Y0592675D01*
X0484144Y0593083D01*
X0483089Y0593222D01*
D02*
G37*
G36*
X0442340Y0583333D02*
X0437616D01*
X0437152Y0583241D01*
X0436760Y0582978D01*
X0436497Y0582585D01*
X0436405Y0582122D01*
Y0577398D01*
X0436497Y0576934D01*
X0436760Y0576542D01*
X0437152Y0576279D01*
X0437616Y0576187D01*
X0442340D01*
X0442803Y0576279D01*
X0443196Y0576542D01*
X0443459Y0576934D01*
X0443551Y0577398D01*
Y0582122D01*
X0443459Y0582585D01*
X0443196Y0582978D01*
X0442803Y0583241D01*
X0442340Y0583333D01*
D02*
G37*
G36*
X0273728Y0573489D02*
X0272947Y0573334D01*
X0272286Y0572892D01*
X0271844Y0572230D01*
X0271689Y0571450D01*
X0271844Y0570669D01*
X0272286Y0570008D01*
X0272947Y0569566D01*
X0273728Y0569411D01*
X0274508Y0569566D01*
X0275170Y0570008D01*
X0275612Y0570669D01*
X0275767Y0571450D01*
X0275612Y0572230D01*
X0275170Y0572892D01*
X0274508Y0573334D01*
X0273728Y0573489D01*
D02*
G37*
G36*
X0439978Y0573340D02*
X0439051Y0573218D01*
X0438188Y0572860D01*
X0437446Y0572291D01*
X0436877Y0571550D01*
X0436519Y0570686D01*
X0436398Y0569760D01*
X0436519Y0568833D01*
X0436877Y0567970D01*
X0437446Y0567228D01*
X0438188Y0566659D01*
X0439051Y0566302D01*
X0439978Y0566180D01*
X0440904Y0566302D01*
X0441768Y0566659D01*
X0442509Y0567228D01*
X0443078Y0567970D01*
X0443436Y0568833D01*
X0443558Y0569760D01*
X0443436Y0570686D01*
X0443078Y0571550D01*
X0442509Y0572291D01*
X0441768Y0572860D01*
X0440904Y0573218D01*
X0439978Y0573340D01*
D02*
G37*
G36*
X0363878D02*
X0362951Y0573218D01*
X0362088Y0572860D01*
X0361346Y0572291D01*
X0360777Y0571550D01*
X0360420Y0570686D01*
X0360298Y0569760D01*
X0360420Y0568833D01*
X0360777Y0567970D01*
X0361346Y0567228D01*
X0362088Y0566659D01*
X0362951Y0566302D01*
X0363878Y0566180D01*
X0364804Y0566302D01*
X0365668Y0566659D01*
X0366409Y0567228D01*
X0366978Y0567970D01*
X0367336Y0568833D01*
X0367458Y0569760D01*
X0367336Y0570686D01*
X0366978Y0571550D01*
X0366409Y0572291D01*
X0365668Y0572860D01*
X0364804Y0573218D01*
X0363878Y0573340D01*
D02*
G37*
G36*
X0253589Y0569984D02*
X0252809Y0569829D01*
X0252147Y0569387D01*
X0251705Y0568725D01*
X0251550Y0567945D01*
X0251705Y0567165D01*
X0252147Y0566503D01*
X0252809Y0566061D01*
X0253589Y0565906D01*
X0254369Y0566061D01*
X0255031Y0566503D01*
X0255473Y0567165D01*
X0255628Y0567945D01*
X0255473Y0568725D01*
X0255031Y0569387D01*
X0254369Y0569829D01*
X0253589Y0569984D01*
D02*
G37*
G36*
X0483089Y0573221D02*
X0482034Y0573083D01*
X0481051Y0572675D01*
X0480206Y0572027D01*
X0479559Y0571183D01*
X0479151Y0570200D01*
X0479012Y0569145D01*
X0479151Y0568090D01*
X0479559Y0567107D01*
X0480206Y0566262D01*
X0481051Y0565614D01*
X0482034Y0565207D01*
X0483089Y0565068D01*
X0484144Y0565207D01*
X0485127Y0565614D01*
X0485972Y0566262D01*
X0486619Y0567107D01*
X0487027Y0568090D01*
X0487166Y0569145D01*
X0487027Y0570200D01*
X0486619Y0571183D01*
X0485972Y0572027D01*
X0485127Y0572675D01*
X0484144Y0573083D01*
X0483089Y0573221D01*
D02*
G37*
G36*
X0621289Y0570716D02*
X0620028Y0570550D01*
X0618854Y0570063D01*
X0617845Y0569289D01*
X0617071Y0568280D01*
X0616584Y0567105D01*
X0616418Y0565845D01*
X0616584Y0564584D01*
X0617071Y0563410D01*
X0617845Y0562401D01*
X0618854Y0561627D01*
X0620028Y0561140D01*
X0621289Y0560974D01*
X0622550Y0561140D01*
X0623724Y0561627D01*
X0624733Y0562401D01*
X0625507Y0563410D01*
X0625994Y0564584D01*
X0626160Y0565845D01*
X0625994Y0567105D01*
X0625507Y0568280D01*
X0624733Y0569289D01*
X0623724Y0570063D01*
X0622550Y0570550D01*
X0621289Y0570716D01*
D02*
G37*
G36*
X0278989Y0562276D02*
X0278365Y0562152D01*
X0277835Y0561798D01*
X0277482Y0561269D01*
X0277358Y0560645D01*
X0277482Y0560021D01*
X0277835Y0559491D01*
X0278365Y0559138D01*
X0278989Y0559014D01*
X0279613Y0559138D01*
X0280142Y0559491D01*
X0280496Y0560021D01*
X0280620Y0560645D01*
X0280496Y0561269D01*
X0280142Y0561798D01*
X0279613Y0562152D01*
X0278989Y0562276D01*
D02*
G37*
G36*
X0366240Y0563333D02*
X0361516D01*
X0361052Y0563240D01*
X0360660Y0562978D01*
X0360397Y0562585D01*
X0360305Y0562122D01*
Y0557398D01*
X0360397Y0556934D01*
X0360660Y0556542D01*
X0361052Y0556279D01*
X0361516Y0556187D01*
X0366240D01*
X0366703Y0556279D01*
X0367096Y0556542D01*
X0367358Y0556934D01*
X0367451Y0557398D01*
Y0562122D01*
X0367358Y0562585D01*
X0367096Y0562978D01*
X0366703Y0563240D01*
X0366240Y0563333D01*
D02*
G37*
G36*
X0225024Y0557878D02*
X0222269D01*
X0221575Y0557740D01*
X0220987Y0557347D01*
X0220594Y0556759D01*
X0220456Y0556065D01*
Y0553309D01*
X0220594Y0552616D01*
X0220987Y0552028D01*
X0221575Y0551635D01*
X0222269Y0551497D01*
X0225024D01*
X0225718Y0551635D01*
X0226306Y0552028D01*
X0226699Y0552616D01*
X0226837Y0553309D01*
Y0556065D01*
X0226699Y0556759D01*
X0226306Y0557347D01*
X0225718Y0557740D01*
X0225024Y0557878D01*
D02*
G37*
G36*
X0274289Y0550719D02*
X0273665Y0550595D01*
X0273135Y0550241D01*
X0272782Y0549712D01*
X0272658Y0549087D01*
X0272782Y0548463D01*
X0273135Y0547934D01*
X0273665Y0547580D01*
X0274289Y0547456D01*
X0274913Y0547580D01*
X0275443Y0547934D01*
X0275796Y0548463D01*
X0275920Y0549087D01*
X0275796Y0549712D01*
X0275443Y0550241D01*
X0274913Y0550595D01*
X0274289Y0550719D01*
D02*
G37*
G36*
X0599389Y0549483D02*
X0598609Y0549328D01*
X0597947Y0548886D01*
X0597505Y0548224D01*
X0597350Y0547444D01*
X0597505Y0546664D01*
X0597947Y0546002D01*
X0598609Y0545560D01*
X0599389Y0545405D01*
X0600169Y0545560D01*
X0600831Y0546002D01*
X0601273Y0546664D01*
X0601428Y0547444D01*
X0601273Y0548224D01*
X0600831Y0548886D01*
X0600169Y0549328D01*
X0599389Y0549483D01*
D02*
G37*
G36*
X0563089Y0553222D02*
X0562034Y0553083D01*
X0561051Y0552675D01*
X0560206Y0552028D01*
X0559558Y0551183D01*
X0559151Y0550200D01*
X0559012Y0549145D01*
X0559151Y0548090D01*
X0559558Y0547107D01*
X0560206Y0546262D01*
X0561051Y0545614D01*
X0562034Y0545207D01*
X0563089Y0545068D01*
X0564144Y0545207D01*
X0565127Y0545614D01*
X0565972Y0546262D01*
X0566619Y0547107D01*
X0567027Y0548090D01*
X0567166Y0549145D01*
X0567027Y0550200D01*
X0566619Y0551183D01*
X0565972Y0552028D01*
X0565127Y0552675D01*
X0564144Y0553083D01*
X0563089Y0553222D01*
D02*
G37*
G36*
X0483089D02*
X0482034Y0553083D01*
X0481051Y0552675D01*
X0480206Y0552028D01*
X0479559Y0551183D01*
X0479151Y0550200D01*
X0479012Y0549145D01*
X0479151Y0548090D01*
X0479559Y0547107D01*
X0480206Y0546262D01*
X0481051Y0545614D01*
X0482034Y0545207D01*
X0483089Y0545068D01*
X0484144Y0545207D01*
X0485127Y0545614D01*
X0485972Y0546262D01*
X0486619Y0547107D01*
X0487027Y0548090D01*
X0487166Y0549145D01*
X0487027Y0550200D01*
X0486619Y0551183D01*
X0485972Y0552028D01*
X0485127Y0552675D01*
X0484144Y0553083D01*
X0483089Y0553222D01*
D02*
G37*
G36*
X0599389Y0544483D02*
X0598609Y0544328D01*
X0597947Y0543886D01*
X0597505Y0543224D01*
X0597350Y0542444D01*
X0597505Y0541664D01*
X0597947Y0541002D01*
X0598609Y0540560D01*
X0599389Y0540405D01*
X0600169Y0540560D01*
X0600831Y0541002D01*
X0601273Y0541664D01*
X0601428Y0542444D01*
X0601273Y0543224D01*
X0600831Y0543886D01*
X0600169Y0544328D01*
X0599389Y0544483D01*
D02*
G37*
G36*
X0631789Y0548621D02*
X0630708Y0548479D01*
X0629701Y0548061D01*
X0628836Y0547398D01*
X0628173Y0546533D01*
X0627755Y0545526D01*
X0627613Y0544445D01*
X0627755Y0543364D01*
X0628173Y0542357D01*
X0628836Y0541492D01*
X0629701Y0540829D01*
X0630708Y0540411D01*
X0631789Y0540269D01*
X0632870Y0540411D01*
X0633877Y0540829D01*
X0634742Y0541492D01*
X0635405Y0542357D01*
X0635823Y0543364D01*
X0635965Y0544445D01*
X0635823Y0545526D01*
X0635405Y0546533D01*
X0634742Y0547398D01*
X0633877Y0548061D01*
X0632870Y0548479D01*
X0631789Y0548621D01*
D02*
G37*
G36*
X0613659Y0548630D02*
X0609919D01*
X0609033Y0548453D01*
X0608282Y0547952D01*
X0607781Y0547201D01*
X0607604Y0546315D01*
Y0542575D01*
X0607781Y0541689D01*
X0608282Y0540938D01*
X0609033Y0540436D01*
X0609919Y0540260D01*
X0613659D01*
X0614545Y0540436D01*
X0615296Y0540938D01*
X0615797Y0541689D01*
X0615974Y0542575D01*
Y0546315D01*
X0615797Y0547201D01*
X0615296Y0547952D01*
X0614545Y0548453D01*
X0613659Y0548630D01*
D02*
G37*
G36*
X0284989Y0541884D02*
X0284209Y0541729D01*
X0283547Y0541287D01*
X0283105Y0540625D01*
X0282950Y0539845D01*
X0283105Y0539065D01*
X0283547Y0538403D01*
X0284209Y0537961D01*
X0284989Y0537806D01*
X0285769Y0537961D01*
X0286431Y0538403D01*
X0286873Y0539065D01*
X0287028Y0539845D01*
X0286873Y0540625D01*
X0286431Y0541287D01*
X0285769Y0541729D01*
X0284989Y0541884D01*
D02*
G37*
G36*
X0259789Y0530576D02*
X0259165Y0530452D01*
X0258635Y0530098D01*
X0258282Y0529569D01*
X0258158Y0528945D01*
X0258282Y0528321D01*
X0258635Y0527791D01*
X0259165Y0527438D01*
X0259789Y0527314D01*
X0260413Y0527438D01*
X0260943Y0527791D01*
X0261296Y0528321D01*
X0261420Y0528945D01*
X0261296Y0529569D01*
X0260943Y0530098D01*
X0260413Y0530452D01*
X0259789Y0530576D01*
D02*
G37*
G36*
X0563089Y0533221D02*
X0562034Y0533083D01*
X0561051Y0532675D01*
X0560206Y0532027D01*
X0559558Y0531183D01*
X0559151Y0530200D01*
X0559012Y0529145D01*
X0559151Y0528090D01*
X0559558Y0527107D01*
X0560206Y0526262D01*
X0561051Y0525614D01*
X0562034Y0525207D01*
X0563089Y0525068D01*
X0564144Y0525207D01*
X0565127Y0525614D01*
X0565972Y0526262D01*
X0566619Y0527107D01*
X0567027Y0528090D01*
X0567166Y0529145D01*
X0567027Y0530200D01*
X0566619Y0531183D01*
X0565972Y0532027D01*
X0565127Y0532675D01*
X0564144Y0533083D01*
X0563089Y0533221D01*
D02*
G37*
G36*
X0483089D02*
X0482034Y0533083D01*
X0481051Y0532675D01*
X0480206Y0532027D01*
X0479559Y0531183D01*
X0479151Y0530200D01*
X0479012Y0529145D01*
X0479151Y0528090D01*
X0479559Y0527107D01*
X0480206Y0526262D01*
X0481051Y0525614D01*
X0482034Y0525207D01*
X0483089Y0525068D01*
X0484144Y0525207D01*
X0485127Y0525614D01*
X0485972Y0526262D01*
X0486619Y0527107D01*
X0487027Y0528090D01*
X0487166Y0529145D01*
X0487027Y0530200D01*
X0486619Y0531183D01*
X0485972Y0532027D01*
X0485127Y0532675D01*
X0484144Y0533083D01*
X0483089Y0533221D01*
D02*
G37*
G36*
X0712389Y0533925D02*
X0711000Y0533743D01*
X0709705Y0533206D01*
X0708594Y0532353D01*
X0707741Y0531242D01*
X0707205Y0529947D01*
X0707022Y0528558D01*
X0707205Y0527169D01*
X0707741Y0525875D01*
X0708594Y0524763D01*
X0709705Y0523910D01*
X0711000Y0523374D01*
X0712389Y0523191D01*
X0713778Y0523374D01*
X0715073Y0523910D01*
X0716184Y0524763D01*
X0717037Y0525875D01*
X0717573Y0527169D01*
X0717756Y0528558D01*
X0717573Y0529947D01*
X0717037Y0531242D01*
X0716184Y0532353D01*
X0715073Y0533206D01*
X0713778Y0533743D01*
X0712389Y0533925D01*
D02*
G37*
G36*
X0235089Y0524776D02*
X0234465Y0524652D01*
X0233935Y0524298D01*
X0233582Y0523769D01*
X0233458Y0523145D01*
X0233582Y0522521D01*
X0233935Y0521991D01*
X0234465Y0521638D01*
X0235089Y0521514D01*
X0235713Y0521638D01*
X0236243Y0521991D01*
X0236596Y0522521D01*
X0236720Y0523145D01*
X0236596Y0523769D01*
X0236243Y0524298D01*
X0235713Y0524652D01*
X0235089Y0524776D01*
D02*
G37*
G36*
X0599939Y0518994D02*
X0599159Y0518839D01*
X0598497Y0518397D01*
X0598055Y0517735D01*
X0597900Y0516955D01*
X0598055Y0516175D01*
X0598497Y0515513D01*
X0599159Y0515071D01*
X0599939Y0514916D01*
X0600720Y0515071D01*
X0601381Y0515513D01*
X0601823Y0516175D01*
X0601978Y0516955D01*
X0601823Y0517735D01*
X0601381Y0518397D01*
X0600720Y0518839D01*
X0599939Y0518994D01*
D02*
G37*
G36*
X0594878Y0518874D02*
X0594098Y0518719D01*
X0593436Y0518277D01*
X0592994Y0517615D01*
X0592839Y0516835D01*
X0592994Y0516054D01*
X0593436Y0515393D01*
X0594098Y0514951D01*
X0594878Y0514795D01*
X0595659Y0514951D01*
X0596320Y0515393D01*
X0596762Y0516054D01*
X0596918Y0516835D01*
X0596762Y0517615D01*
X0596320Y0518277D01*
X0595659Y0518719D01*
X0594878Y0518874D01*
D02*
G37*
G36*
X0451278Y0526195D02*
X0450022Y0526071D01*
X0448815Y0525705D01*
X0447703Y0525110D01*
X0446728Y0524310D01*
X0445927Y0523335D01*
X0445333Y0522222D01*
X0444967Y0521015D01*
X0444843Y0519760D01*
X0444967Y0518504D01*
X0445333Y0517297D01*
X0445927Y0516185D01*
X0446728Y0515210D01*
X0447703Y0514409D01*
X0448815Y0513815D01*
X0450022Y0513449D01*
X0451278Y0513325D01*
X0452533Y0513449D01*
X0453740Y0513815D01*
X0454853Y0514409D01*
X0455828Y0515210D01*
X0456628Y0516185D01*
X0457223Y0517297D01*
X0457589Y0518504D01*
X0457713Y0519760D01*
X0457589Y0521015D01*
X0457223Y0522222D01*
X0456628Y0523335D01*
X0455828Y0524310D01*
X0454853Y0525110D01*
X0453740Y0525705D01*
X0452533Y0526071D01*
X0451278Y0526195D01*
D02*
G37*
G36*
X0351789Y0525780D02*
X0350534Y0525656D01*
X0349326Y0525290D01*
X0348214Y0524695D01*
X0347239Y0523895D01*
X0346439Y0522920D01*
X0345844Y0521807D01*
X0345478Y0520600D01*
X0345354Y0519345D01*
X0345478Y0518089D01*
X0345844Y0516882D01*
X0346439Y0515770D01*
X0347239Y0514795D01*
X0348214Y0513994D01*
X0349326Y0513400D01*
X0350534Y0513034D01*
X0351789Y0512910D01*
X0353044Y0513034D01*
X0354252Y0513400D01*
X0355364Y0513994D01*
X0356339Y0514795D01*
X0357139Y0515770D01*
X0357734Y0516882D01*
X0358100Y0518089D01*
X0358224Y0519345D01*
X0358100Y0520600D01*
X0357734Y0521807D01*
X0357139Y0522920D01*
X0356339Y0523895D01*
X0355364Y0524695D01*
X0354252Y0525290D01*
X0353044Y0525656D01*
X0351789Y0525780D01*
D02*
G37*
G36*
X0256889Y0510776D02*
X0256265Y0510652D01*
X0255735Y0510298D01*
X0255382Y0509769D01*
X0255258Y0509145D01*
X0255382Y0508521D01*
X0255735Y0507991D01*
X0256265Y0507638D01*
X0256889Y0507514D01*
X0257513Y0507638D01*
X0258043Y0507991D01*
X0258396Y0508521D01*
X0258520Y0509145D01*
X0258396Y0509769D01*
X0258043Y0510298D01*
X0257513Y0510652D01*
X0256889Y0510776D01*
D02*
G37*
G36*
X0732439Y0513678D02*
X0725539D01*
X0725233Y0513551D01*
X0725106Y0513245D01*
Y0506445D01*
X0725233Y0506139D01*
X0725539Y0506012D01*
X0732439D01*
X0732745Y0506139D01*
X0732872Y0506445D01*
Y0513245D01*
X0732745Y0513551D01*
X0732439Y0513678D01*
D02*
G37*
G36*
X0595235Y0511278D02*
X0594437Y0511173D01*
X0593693Y0510865D01*
X0593054Y0510375D01*
X0592564Y0509736D01*
X0592256Y0508993D01*
X0592151Y0508194D01*
X0592256Y0507396D01*
X0592564Y0506653D01*
X0593054Y0506014D01*
X0593693Y0505524D01*
X0594437Y0505216D01*
X0595235Y0505111D01*
X0596033Y0505216D01*
X0596777Y0505524D01*
X0597415Y0506014D01*
X0597905Y0506653D01*
X0598213Y0507396D01*
X0598318Y0508194D01*
X0598213Y0508993D01*
X0597905Y0509736D01*
X0597415Y0510375D01*
X0596777Y0510865D01*
X0596033Y0511173D01*
X0595235Y0511278D01*
D02*
G37*
G36*
X0751699Y0508971D02*
X0750918Y0508816D01*
X0750257Y0508373D01*
X0749815Y0507712D01*
X0749659Y0506932D01*
X0749815Y0506151D01*
X0750257Y0505490D01*
X0750918Y0505048D01*
X0751699Y0504892D01*
X0752479Y0505048D01*
X0753141Y0505490D01*
X0753583Y0506151D01*
X0753738Y0506932D01*
X0753583Y0507712D01*
X0753141Y0508373D01*
X0752479Y0508816D01*
X0751699Y0508971D01*
D02*
G37*
G36*
X0238189Y0507976D02*
X0237565Y0507852D01*
X0237035Y0507498D01*
X0236682Y0506969D01*
X0236558Y0506345D01*
X0236682Y0505721D01*
X0237035Y0505191D01*
X0237565Y0504838D01*
X0238189Y0504713D01*
X0238813Y0504838D01*
X0239342Y0505191D01*
X0239696Y0505721D01*
X0239820Y0506345D01*
X0239696Y0506969D01*
X0239342Y0507498D01*
X0238813Y0507852D01*
X0238189Y0507976D01*
D02*
G37*
G36*
X0734837Y0506738D02*
X0734057Y0506582D01*
X0733395Y0506141D01*
X0732953Y0505479D01*
X0732798Y0504699D01*
X0732953Y0503918D01*
X0733395Y0503257D01*
X0734057Y0502815D01*
X0734837Y0502659D01*
X0735617Y0502815D01*
X0736279Y0503257D01*
X0736721Y0503918D01*
X0736876Y0504699D01*
X0736721Y0505479D01*
X0736279Y0506141D01*
X0735617Y0506582D01*
X0734837Y0506738D01*
D02*
G37*
G36*
X0595235Y0499778D02*
X0594437Y0499673D01*
X0593693Y0499365D01*
X0593054Y0498875D01*
X0592564Y0498236D01*
X0592256Y0497493D01*
X0592151Y0496695D01*
X0592256Y0495896D01*
X0592564Y0495153D01*
X0593054Y0494514D01*
X0593693Y0494024D01*
X0594437Y0493716D01*
X0595235Y0493611D01*
X0596033Y0493716D01*
X0596777Y0494024D01*
X0597415Y0494514D01*
X0597905Y0495153D01*
X0598213Y0495896D01*
X0598318Y0496695D01*
X0598213Y0497493D01*
X0597905Y0498236D01*
X0597415Y0498875D01*
X0596777Y0499365D01*
X0596033Y0499673D01*
X0595235Y0499778D01*
D02*
G37*
G36*
X0783183Y0492986D02*
X0782403Y0492831D01*
X0781741Y0492388D01*
X0781299Y0491727D01*
X0781144Y0490947D01*
X0781299Y0490166D01*
X0781741Y0489505D01*
X0782403Y0489063D01*
X0783183Y0488907D01*
X0783963Y0489063D01*
X0784625Y0489505D01*
X0785067Y0490166D01*
X0785222Y0490947D01*
X0785067Y0491727D01*
X0784625Y0492388D01*
X0783963Y0492831D01*
X0783183Y0492986D01*
D02*
G37*
G36*
X0771989Y0491484D02*
X0771209Y0491329D01*
X0770547Y0490887D01*
X0770105Y0490225D01*
X0769950Y0489445D01*
X0770105Y0488664D01*
X0770547Y0488003D01*
X0771209Y0487561D01*
X0771989Y0487406D01*
X0772769Y0487561D01*
X0773431Y0488003D01*
X0773873Y0488664D01*
X0774028Y0489445D01*
X0773873Y0490225D01*
X0773431Y0490887D01*
X0772769Y0491329D01*
X0771989Y0491484D01*
D02*
G37*
G36*
X0701189Y0489849D02*
X0700134Y0489710D01*
X0699151Y0489303D01*
X0698306Y0488655D01*
X0697658Y0487811D01*
X0697251Y0486828D01*
X0697112Y0485773D01*
X0697251Y0484717D01*
X0697658Y0483734D01*
X0698306Y0482890D01*
X0699151Y0482242D01*
X0700134Y0481835D01*
X0701189Y0481696D01*
X0702244Y0481835D01*
X0703227Y0482242D01*
X0704072Y0482890D01*
X0704719Y0483734D01*
X0705127Y0484717D01*
X0705266Y0485773D01*
X0705127Y0486828D01*
X0704719Y0487811D01*
X0704072Y0488655D01*
X0703227Y0489303D01*
X0702244Y0489710D01*
X0701189Y0489849D01*
D02*
G37*
G36*
X0626789Y0488022D02*
X0625734Y0487883D01*
X0624751Y0487475D01*
X0623906Y0486828D01*
X0623258Y0485983D01*
X0622851Y0485000D01*
X0622712Y0483945D01*
X0622851Y0482890D01*
X0623258Y0481907D01*
X0623906Y0481062D01*
X0624751Y0480414D01*
X0625734Y0480007D01*
X0626789Y0479868D01*
X0627844Y0480007D01*
X0628827Y0480414D01*
X0629672Y0481062D01*
X0630319Y0481907D01*
X0630727Y0482890D01*
X0630866Y0483945D01*
X0630727Y0485000D01*
X0630319Y0485983D01*
X0629672Y0486828D01*
X0628827Y0487475D01*
X0627844Y0487883D01*
X0626789Y0488022D01*
D02*
G37*
G36*
X0794785Y0482604D02*
X0794005Y0482449D01*
X0793343Y0482007D01*
X0792901Y0481346D01*
X0792746Y0480565D01*
X0792901Y0479785D01*
X0793343Y0479123D01*
X0794005Y0478681D01*
X0794785Y0478526D01*
X0795566Y0478681D01*
X0796227Y0479123D01*
X0796669Y0479785D01*
X0796825Y0480565D01*
X0796669Y0481346D01*
X0796227Y0482007D01*
X0795566Y0482449D01*
X0794785Y0482604D01*
D02*
G37*
G36*
X0845232Y0477959D02*
X0844764Y0477866D01*
X0844367Y0477601D01*
X0844102Y0477204D01*
X0844009Y0476736D01*
X0844102Y0476268D01*
X0844367Y0475871D01*
X0844764Y0475605D01*
X0845232Y0475512D01*
X0845700Y0475605D01*
X0846097Y0475871D01*
X0846362Y0476268D01*
X0846455Y0476736D01*
X0846362Y0477204D01*
X0846097Y0477601D01*
X0845700Y0477866D01*
X0845232Y0477959D01*
D02*
G37*
G36*
X0847730Y0472686D02*
X0847262Y0472593D01*
X0846865Y0472328D01*
X0846599Y0471931D01*
X0846506Y0471463D01*
X0846599Y0470995D01*
X0846865Y0470598D01*
X0847262Y0470332D01*
X0847730Y0470239D01*
X0848198Y0470332D01*
X0848595Y0470598D01*
X0848860Y0470995D01*
X0848953Y0471463D01*
X0848860Y0471931D01*
X0848595Y0472328D01*
X0848198Y0472593D01*
X0847730Y0472686D01*
D02*
G37*
G36*
X0784132Y0474189D02*
X0783352Y0474034D01*
X0782690Y0473592D01*
X0782248Y0472931D01*
X0782093Y0472150D01*
X0782248Y0471370D01*
X0782690Y0470708D01*
X0783352Y0470266D01*
X0784132Y0470111D01*
X0784912Y0470266D01*
X0785574Y0470708D01*
X0786016Y0471370D01*
X0786171Y0472150D01*
X0786016Y0472931D01*
X0785574Y0473592D01*
X0784912Y0474034D01*
X0784132Y0474189D01*
D02*
G37*
G36*
X0410389Y0476583D02*
X0409240Y0476432D01*
X0408170Y0475988D01*
X0407251Y0475283D01*
X0406546Y0474364D01*
X0406102Y0473293D01*
X0405951Y0472145D01*
X0406102Y0470996D01*
X0406546Y0469926D01*
X0407251Y0469007D01*
X0408170Y0468301D01*
X0409240Y0467858D01*
X0410389Y0467707D01*
X0411538Y0467858D01*
X0412608Y0468301D01*
X0413527Y0469007D01*
X0414232Y0469926D01*
X0414676Y0470996D01*
X0414827Y0472145D01*
X0414676Y0473293D01*
X0414232Y0474364D01*
X0413527Y0475283D01*
X0412608Y0475988D01*
X0411538Y0476432D01*
X0410389Y0476583D01*
D02*
G37*
G36*
X0451489Y0476383D02*
X0450340Y0476232D01*
X0449270Y0475788D01*
X0448351Y0475083D01*
X0447646Y0474164D01*
X0447202Y0473094D01*
X0447051Y0471945D01*
X0447202Y0470796D01*
X0447646Y0469726D01*
X0448351Y0468807D01*
X0449270Y0468102D01*
X0450340Y0467658D01*
X0451489Y0467507D01*
X0452638Y0467658D01*
X0453708Y0468102D01*
X0454627Y0468807D01*
X0455332Y0469726D01*
X0455776Y0470796D01*
X0455927Y0471945D01*
X0455776Y0473094D01*
X0455332Y0474164D01*
X0454627Y0475083D01*
X0453708Y0475788D01*
X0452638Y0476232D01*
X0451489Y0476383D01*
D02*
G37*
G36*
X0536389Y0499843D02*
X0533855Y0499643D01*
X0531384Y0499050D01*
X0529035Y0498077D01*
X0526868Y0496749D01*
X0524935Y0495099D01*
X0523285Y0493166D01*
X0521956Y0490999D01*
X0520984Y0488650D01*
X0520390Y0486179D01*
X0520191Y0483645D01*
X0520390Y0481111D01*
X0520984Y0478639D01*
X0521956Y0476291D01*
X0523285Y0474124D01*
X0524935Y0472191D01*
X0526868Y0470541D01*
X0529035Y0469212D01*
X0531384Y0468240D01*
X0533855Y0467646D01*
X0536389Y0467447D01*
X0538923Y0467646D01*
X0541394Y0468240D01*
X0543743Y0469212D01*
X0545910Y0470541D01*
X0547843Y0472191D01*
X0549493Y0474124D01*
X0550821Y0476291D01*
X0551794Y0478639D01*
X0552388Y0481111D01*
X0552587Y0483645D01*
X0552388Y0486179D01*
X0551794Y0488650D01*
X0550821Y0490999D01*
X0549493Y0493166D01*
X0547843Y0495099D01*
X0545910Y0496749D01*
X0543743Y0498077D01*
X0541394Y0499050D01*
X0538923Y0499643D01*
X0536389Y0499843D01*
D02*
G37*
G36*
X0261289D02*
X0258755Y0499643D01*
X0256283Y0499050D01*
X0253935Y0498077D01*
X0251768Y0496749D01*
X0249835Y0495099D01*
X0248185Y0493166D01*
X0246856Y0490999D01*
X0245884Y0488650D01*
X0245290Y0486179D01*
X0245091Y0483645D01*
X0245290Y0481111D01*
X0245884Y0478639D01*
X0246856Y0476291D01*
X0248185Y0474124D01*
X0249835Y0472191D01*
X0251768Y0470541D01*
X0253935Y0469212D01*
X0256283Y0468240D01*
X0258755Y0467646D01*
X0261289Y0467447D01*
X0263823Y0467646D01*
X0266294Y0468240D01*
X0268643Y0469212D01*
X0270810Y0470541D01*
X0272743Y0472191D01*
X0274393Y0474124D01*
X0275722Y0476291D01*
X0276694Y0478639D01*
X0277288Y0481111D01*
X0277487Y0483645D01*
X0277288Y0486179D01*
X0276694Y0488650D01*
X0275722Y0490999D01*
X0274393Y0493166D01*
X0272743Y0495099D01*
X0270810Y0496749D01*
X0268643Y0498077D01*
X0266294Y0499050D01*
X0263823Y0499643D01*
X0261289Y0499843D01*
D02*
G37*
G36*
X0474089Y0476283D02*
X0472940Y0476132D01*
X0471870Y0475688D01*
X0470951Y0474983D01*
X0470246Y0474064D01*
X0469802Y0472994D01*
X0469651Y0471845D01*
X0469802Y0470696D01*
X0470246Y0469626D01*
X0470951Y0468707D01*
X0471870Y0468002D01*
X0472940Y0467558D01*
X0474089Y0467407D01*
X0475238Y0467558D01*
X0476308Y0468002D01*
X0477227Y0468707D01*
X0477932Y0469626D01*
X0478376Y0470696D01*
X0478527Y0471845D01*
X0478376Y0472994D01*
X0477932Y0474064D01*
X0477227Y0474983D01*
X0476308Y0475688D01*
X0475238Y0476132D01*
X0474089Y0476283D01*
D02*
G37*
G36*
X0430489D02*
X0429340Y0476132D01*
X0428270Y0475688D01*
X0427351Y0474983D01*
X0426646Y0474064D01*
X0426202Y0472994D01*
X0426051Y0471845D01*
X0426202Y0470696D01*
X0426646Y0469626D01*
X0427351Y0468707D01*
X0428270Y0468002D01*
X0429340Y0467558D01*
X0430489Y0467407D01*
X0431638Y0467558D01*
X0432708Y0468002D01*
X0433627Y0468707D01*
X0434332Y0469626D01*
X0434776Y0470696D01*
X0434927Y0471845D01*
X0434776Y0472994D01*
X0434332Y0474064D01*
X0433627Y0474983D01*
X0432708Y0475688D01*
X0431638Y0476132D01*
X0430489Y0476283D01*
D02*
G37*
G36*
X0356105Y0468430D02*
X0355481Y0468305D01*
X0354952Y0467952D01*
X0354598Y0467422D01*
X0354474Y0466798D01*
X0354598Y0466174D01*
X0354952Y0465645D01*
X0355481Y0465291D01*
X0356105Y0465167D01*
X0356729Y0465291D01*
X0357259Y0465645D01*
X0357612Y0466174D01*
X0357736Y0466798D01*
X0357612Y0467422D01*
X0357259Y0467952D01*
X0356729Y0468305D01*
X0356105Y0468430D01*
D02*
G37*
G36*
X0843054Y0466644D02*
X0842586Y0466551D01*
X0842189Y0466286D01*
X0841924Y0465889D01*
X0841831Y0465420D01*
X0841924Y0464952D01*
X0842189Y0464555D01*
X0842586Y0464290D01*
X0843054Y0464197D01*
X0843522Y0464290D01*
X0843919Y0464555D01*
X0844184Y0464952D01*
X0844277Y0465420D01*
X0844184Y0465889D01*
X0843919Y0466286D01*
X0843522Y0466551D01*
X0843054Y0466644D01*
D02*
G37*
G36*
X0451488Y0466258D02*
X0450863Y0466134D01*
X0450334Y0465780D01*
X0449980Y0465251D01*
X0449856Y0464627D01*
X0449980Y0464003D01*
X0450334Y0463473D01*
X0450863Y0463120D01*
X0451488Y0462995D01*
X0452112Y0463120D01*
X0452641Y0463473D01*
X0452995Y0464003D01*
X0453119Y0464627D01*
X0452995Y0465251D01*
X0452641Y0465780D01*
X0452112Y0466134D01*
X0451488Y0466258D01*
D02*
G37*
G36*
X0444419Y0466167D02*
X0443795Y0466043D01*
X0443265Y0465689D01*
X0442912Y0465160D01*
X0442788Y0464536D01*
X0442912Y0463912D01*
X0443265Y0463382D01*
X0443795Y0463029D01*
X0444419Y0462905D01*
X0445043Y0463029D01*
X0445573Y0463382D01*
X0445926Y0463912D01*
X0446050Y0464536D01*
X0445926Y0465160D01*
X0445573Y0465689D01*
X0445043Y0466043D01*
X0444419Y0466167D01*
D02*
G37*
G36*
X0799889Y0465484D02*
X0799109Y0465329D01*
X0798447Y0464887D01*
X0798005Y0464225D01*
X0797850Y0463445D01*
X0798005Y0462665D01*
X0798447Y0462003D01*
X0799109Y0461561D01*
X0799889Y0461406D01*
X0800669Y0461561D01*
X0801331Y0462003D01*
X0801773Y0462665D01*
X0801928Y0463445D01*
X0801773Y0464225D01*
X0801331Y0464887D01*
X0800669Y0465329D01*
X0799889Y0465484D01*
D02*
G37*
G36*
X0848189Y0466218D02*
X0847497Y0466127D01*
X0846852Y0465860D01*
X0846299Y0465435D01*
X0845874Y0464881D01*
X0845607Y0464237D01*
X0845516Y0463545D01*
X0845607Y0462853D01*
X0845874Y0462208D01*
X0846299Y0461655D01*
X0846852Y0461230D01*
X0847497Y0460963D01*
X0848189Y0460872D01*
X0848881Y0460963D01*
X0849525Y0461230D01*
X0850079Y0461655D01*
X0850504Y0462208D01*
X0850771Y0462853D01*
X0850862Y0463545D01*
X0850771Y0464237D01*
X0850504Y0464881D01*
X0850079Y0465435D01*
X0849525Y0465860D01*
X0848881Y0466127D01*
X0848189Y0466218D01*
D02*
G37*
G36*
X0292794Y0468986D02*
X0291645Y0468834D01*
X0290575Y0468391D01*
X0289656Y0467686D01*
X0288951Y0466767D01*
X0288507Y0465696D01*
X0288356Y0464548D01*
X0288507Y0463399D01*
X0288951Y0462329D01*
X0289656Y0461410D01*
X0290575Y0460704D01*
X0291645Y0460261D01*
X0292794Y0460110D01*
X0293943Y0460261D01*
X0295013Y0460704D01*
X0295932Y0461410D01*
X0296637Y0462329D01*
X0297081Y0463399D01*
X0297232Y0464548D01*
X0297081Y0465696D01*
X0296637Y0466767D01*
X0295932Y0467686D01*
X0295013Y0468391D01*
X0293943Y0468834D01*
X0292794Y0468986D01*
D02*
G37*
G36*
X0788138Y0462516D02*
X0787358Y0462361D01*
X0786696Y0461919D01*
X0786254Y0461257D01*
X0786099Y0460477D01*
X0786254Y0459696D01*
X0786696Y0459035D01*
X0787358Y0458593D01*
X0788138Y0458438D01*
X0788918Y0458593D01*
X0789580Y0459035D01*
X0790022Y0459696D01*
X0790177Y0460477D01*
X0790022Y0461257D01*
X0789580Y0461919D01*
X0788918Y0462361D01*
X0788138Y0462516D01*
D02*
G37*
G36*
X0356422Y0456524D02*
X0355641Y0456368D01*
X0354980Y0455927D01*
X0354538Y0455265D01*
X0354382Y0454485D01*
X0354538Y0453704D01*
X0354980Y0453043D01*
X0355641Y0452601D01*
X0356422Y0452445D01*
X0357202Y0452601D01*
X0357863Y0453043D01*
X0358306Y0453704D01*
X0358461Y0454485D01*
X0358306Y0455265D01*
X0357863Y0455927D01*
X0357202Y0456368D01*
X0356422Y0456524D01*
D02*
G37*
G36*
X0434689Y0451276D02*
X0434065Y0451152D01*
X0433535Y0450798D01*
X0433182Y0450269D01*
X0433058Y0449645D01*
X0433182Y0449021D01*
X0433535Y0448491D01*
X0434065Y0448138D01*
X0434689Y0448013D01*
X0435313Y0448138D01*
X0435843Y0448491D01*
X0436196Y0449021D01*
X0436320Y0449645D01*
X0436196Y0450269D01*
X0435843Y0450798D01*
X0435313Y0451152D01*
X0434689Y0451276D01*
D02*
G37*
G36*
X0357379Y0450196D02*
X0356755Y0450072D01*
X0356226Y0449718D01*
X0355872Y0449189D01*
X0355748Y0448565D01*
X0355872Y0447940D01*
X0356226Y0447411D01*
X0356755Y0447058D01*
X0357379Y0446933D01*
X0358003Y0447058D01*
X0358533Y0447411D01*
X0358886Y0447940D01*
X0359011Y0448565D01*
X0358886Y0449189D01*
X0358533Y0449718D01*
X0358003Y0450072D01*
X0357379Y0450196D01*
D02*
G37*
G36*
X0462824Y0448496D02*
X0462200Y0448372D01*
X0461671Y0448018D01*
X0461317Y0447489D01*
X0461193Y0446865D01*
X0461317Y0446241D01*
X0461671Y0445711D01*
X0462200Y0445358D01*
X0462824Y0445233D01*
X0463449Y0445358D01*
X0463978Y0445711D01*
X0464332Y0446241D01*
X0464456Y0446865D01*
X0464332Y0447489D01*
X0463978Y0448018D01*
X0463449Y0448372D01*
X0462824Y0448496D01*
D02*
G37*
G36*
X0438579Y0444840D02*
X0437955Y0444716D01*
X0437426Y0444363D01*
X0437072Y0443833D01*
X0436948Y0443209D01*
X0437072Y0442585D01*
X0437426Y0442056D01*
X0437955Y0441702D01*
X0438579Y0441578D01*
X0439204Y0441702D01*
X0439733Y0442056D01*
X0440086Y0442585D01*
X0440210Y0443209D01*
X0440086Y0443833D01*
X0439733Y0444363D01*
X0439204Y0444716D01*
X0438579Y0444840D01*
D02*
G37*
G36*
X0216782Y0447954D02*
X0216002Y0447799D01*
X0215340Y0447357D01*
X0214898Y0446695D01*
X0214743Y0445915D01*
X0214898Y0445134D01*
X0215340Y0444473D01*
X0215641Y0444272D01*
X0215647Y0444257D01*
X0215606Y0443694D01*
X0215147Y0443387D01*
X0214705Y0442725D01*
X0214550Y0441945D01*
X0214705Y0441164D01*
X0215147Y0440503D01*
X0215809Y0440061D01*
X0216589Y0439906D01*
X0217369Y0440061D01*
X0218031Y0440503D01*
X0218473Y0441164D01*
X0218628Y0441945D01*
X0218473Y0442725D01*
X0218031Y0443387D01*
X0217731Y0443587D01*
X0217725Y0443603D01*
X0217765Y0444166D01*
X0218224Y0444473D01*
X0218666Y0445134D01*
X0218822Y0445915D01*
X0218666Y0446695D01*
X0218224Y0447357D01*
X0217563Y0447799D01*
X0216782Y0447954D01*
D02*
G37*
G36*
X0400589Y0442784D02*
X0399809Y0442629D01*
X0399147Y0442187D01*
X0398705Y0441525D01*
X0398550Y0440745D01*
X0398705Y0439964D01*
X0399147Y0439303D01*
X0399809Y0438861D01*
X0400589Y0438706D01*
X0401369Y0438861D01*
X0402031Y0439303D01*
X0402473Y0439964D01*
X0402628Y0440745D01*
X0402473Y0441525D01*
X0402031Y0442187D01*
X0401369Y0442629D01*
X0400589Y0442784D01*
D02*
G37*
G36*
X0403189Y0438584D02*
X0402409Y0438429D01*
X0401747Y0437987D01*
X0401305Y0437325D01*
X0401150Y0436545D01*
X0401305Y0435765D01*
X0401747Y0435103D01*
X0402409Y0434661D01*
X0403189Y0434506D01*
X0403969Y0434661D01*
X0404631Y0435103D01*
X0405073Y0435765D01*
X0405228Y0436545D01*
X0405073Y0437325D01*
X0404631Y0437987D01*
X0403969Y0438429D01*
X0403189Y0438584D01*
D02*
G37*
G36*
X0466489Y0437176D02*
X0465865Y0437052D01*
X0465335Y0436698D01*
X0464982Y0436169D01*
X0464858Y0435545D01*
X0464982Y0434921D01*
X0465335Y0434391D01*
X0465865Y0434038D01*
X0466489Y0433914D01*
X0467113Y0434038D01*
X0467642Y0434391D01*
X0467996Y0434921D01*
X0468120Y0435545D01*
X0467996Y0436169D01*
X0467642Y0436698D01*
X0467113Y0437052D01*
X0466489Y0437176D01*
D02*
G37*
G36*
X0777489Y0437039D02*
X0776691Y0436934D01*
X0775947Y0436626D01*
X0775308Y0436136D01*
X0774818Y0435497D01*
X0774510Y0434753D01*
X0774405Y0433955D01*
X0774510Y0433157D01*
X0774818Y0432413D01*
X0775308Y0431775D01*
X0775947Y0431284D01*
X0776691Y0430976D01*
X0777489Y0430871D01*
X0778287Y0430976D01*
X0779031Y0431284D01*
X0779670Y0431775D01*
X0780160Y0432413D01*
X0780468Y0433157D01*
X0780573Y0433955D01*
X0780468Y0434753D01*
X0780160Y0435497D01*
X0779670Y0436136D01*
X0779031Y0436626D01*
X0778287Y0436934D01*
X0777489Y0437039D01*
D02*
G37*
G36*
X0318705Y0435530D02*
X0318081Y0435405D01*
X0317551Y0435052D01*
X0317198Y0434522D01*
X0317074Y0433898D01*
X0317198Y0433274D01*
X0317551Y0432745D01*
X0317770Y0432599D01*
Y0431997D01*
X0317551Y0431852D01*
X0317198Y0431322D01*
X0317074Y0430698D01*
X0317198Y0430074D01*
X0317551Y0429545D01*
X0318081Y0429191D01*
X0318705Y0429067D01*
X0319329Y0429191D01*
X0319859Y0429545D01*
X0320212Y0430074D01*
X0320336Y0430698D01*
X0320212Y0431322D01*
X0319859Y0431852D01*
X0319640Y0431997D01*
Y0432599D01*
X0319859Y0432745D01*
X0320212Y0433274D01*
X0320336Y0433898D01*
X0320212Y0434522D01*
X0319859Y0435052D01*
X0319329Y0435405D01*
X0318705Y0435530D01*
D02*
G37*
G36*
X0462217Y0435513D02*
X0461593Y0435389D01*
X0461064Y0435036D01*
X0460710Y0434506D01*
X0460586Y0433882D01*
X0460710Y0433258D01*
X0461064Y0432728D01*
X0461541Y0432410D01*
X0461555Y0432201D01*
X0461488Y0431890D01*
X0461326Y0431857D01*
X0460797Y0431504D01*
X0460443Y0430974D01*
X0460319Y0430350D01*
X0460443Y0429726D01*
X0460797Y0429197D01*
X0461326Y0428843D01*
X0461950Y0428719D01*
X0462574Y0428843D01*
X0463104Y0429197D01*
X0463457Y0429726D01*
X0463582Y0430350D01*
X0463457Y0430974D01*
X0463104Y0431504D01*
X0462627Y0431822D01*
X0462612Y0432031D01*
X0462680Y0432343D01*
X0462842Y0432375D01*
X0463371Y0432728D01*
X0463725Y0433258D01*
X0463849Y0433882D01*
X0463725Y0434506D01*
X0463371Y0435036D01*
X0462842Y0435389D01*
X0462217Y0435513D01*
D02*
G37*
G36*
X0514561Y0430290D02*
X0514093Y0430197D01*
X0513696Y0429932D01*
X0513431Y0429535D01*
X0513338Y0429067D01*
X0513431Y0428598D01*
X0513696Y0428202D01*
X0514093Y0427936D01*
X0514561Y0427843D01*
X0515029Y0427936D01*
X0515426Y0428202D01*
X0515691Y0428598D01*
X0515785Y0429067D01*
X0515691Y0429535D01*
X0515426Y0429932D01*
X0515029Y0430197D01*
X0514561Y0430290D01*
D02*
G37*
G36*
X0550301Y0430060D02*
X0549833Y0429967D01*
X0549436Y0429702D01*
X0549170Y0429305D01*
X0549077Y0428837D01*
X0549170Y0428369D01*
X0549436Y0427972D01*
X0549833Y0427707D01*
X0550301Y0427613D01*
X0550769Y0427707D01*
X0551166Y0427972D01*
X0551431Y0428369D01*
X0551524Y0428837D01*
X0551431Y0429305D01*
X0551166Y0429702D01*
X0550769Y0429967D01*
X0550301Y0430060D01*
D02*
G37*
G36*
X0414604Y0430509D02*
X0413823Y0430354D01*
X0413162Y0429912D01*
X0412720Y0429250D01*
X0412564Y0428470D01*
X0412720Y0427689D01*
X0413162Y0427028D01*
X0413823Y0426586D01*
X0414604Y0426431D01*
X0415384Y0426586D01*
X0416046Y0427028D01*
X0416488Y0427689D01*
X0416643Y0428470D01*
X0416488Y0429250D01*
X0416046Y0429912D01*
X0415384Y0430354D01*
X0414604Y0430509D01*
D02*
G37*
G36*
X0434403Y0429643D02*
X0433623Y0429488D01*
X0432961Y0429046D01*
X0432519Y0428384D01*
X0432364Y0427604D01*
X0432519Y0426824D01*
X0432961Y0426162D01*
X0433623Y0425720D01*
X0434403Y0425565D01*
X0435183Y0425720D01*
X0435845Y0426162D01*
X0436287Y0426824D01*
X0436442Y0427604D01*
X0436287Y0428384D01*
X0435845Y0429046D01*
X0435183Y0429488D01*
X0434403Y0429643D01*
D02*
G37*
G36*
X0275041Y0421068D02*
X0274261Y0420913D01*
X0273600Y0420471D01*
X0273158Y0419810D01*
X0273002Y0419029D01*
X0273158Y0418249D01*
X0273600Y0417587D01*
X0274261Y0417145D01*
X0275041Y0416990D01*
X0275822Y0417145D01*
X0276483Y0417587D01*
X0276925Y0418249D01*
X0277081Y0419029D01*
X0276925Y0419810D01*
X0276483Y0420471D01*
X0275822Y0420913D01*
X0275041Y0421068D01*
D02*
G37*
G36*
X0285638Y0418724D02*
X0284858Y0418568D01*
X0284197Y0418126D01*
X0283755Y0417465D01*
X0283599Y0416684D01*
X0283755Y0415904D01*
X0284197Y0415243D01*
X0284858Y0414801D01*
X0285638Y0414645D01*
X0286419Y0414801D01*
X0287080Y0415243D01*
X0287523Y0415904D01*
X0287678Y0416684D01*
X0287523Y0417465D01*
X0287080Y0418126D01*
X0286419Y0418568D01*
X0285638Y0418724D01*
D02*
G37*
G36*
X0815989Y0420349D02*
X0814934Y0420210D01*
X0813951Y0419803D01*
X0813106Y0419155D01*
X0812459Y0418311D01*
X0812051Y0417328D01*
X0811912Y0416272D01*
X0812051Y0415217D01*
X0812459Y0414234D01*
X0813106Y0413390D01*
X0813951Y0412742D01*
X0814934Y0412335D01*
X0815989Y0412196D01*
X0817044Y0412335D01*
X0818027Y0412742D01*
X0818872Y0413390D01*
X0819519Y0414234D01*
X0819927Y0415217D01*
X0820066Y0416272D01*
X0819927Y0417328D01*
X0819519Y0418311D01*
X0818872Y0419155D01*
X0818027Y0419803D01*
X0817044Y0420210D01*
X0815989Y0420349D01*
D02*
G37*
G36*
X0340639Y0415453D02*
X0339859Y0415298D01*
X0339197Y0414856D01*
X0338755Y0414194D01*
X0338600Y0413414D01*
X0338755Y0412634D01*
X0339197Y0411972D01*
X0339859Y0411530D01*
X0340639Y0411375D01*
X0341419Y0411530D01*
X0342081Y0411972D01*
X0342523Y0412634D01*
X0342678Y0413414D01*
X0342523Y0414194D01*
X0342081Y0414856D01*
X0341419Y0415298D01*
X0340639Y0415453D01*
D02*
G37*
G36*
X0523764Y0413613D02*
X0515764D01*
X0515457Y0413486D01*
X0515331Y0413180D01*
Y0406480D01*
X0515457Y0406174D01*
X0515764Y0406047D01*
X0523764D01*
X0524070Y0406174D01*
X0524196Y0406480D01*
Y0413180D01*
X0524070Y0413486D01*
X0523764Y0413613D01*
D02*
G37*
G36*
X0548489Y0414583D02*
X0547340Y0414432D01*
X0546270Y0413988D01*
X0545351Y0413283D01*
X0544646Y0412364D01*
X0544202Y0411294D01*
X0544051Y0410145D01*
X0544202Y0408996D01*
X0544646Y0407926D01*
X0545351Y0407007D01*
X0546270Y0406301D01*
X0547340Y0405858D01*
X0548489Y0405707D01*
X0549638Y0405858D01*
X0550708Y0406301D01*
X0551627Y0407007D01*
X0552332Y0407926D01*
X0552776Y0408996D01*
X0552927Y0410145D01*
X0552776Y0411294D01*
X0552332Y0412364D01*
X0551627Y0413283D01*
X0550708Y0413988D01*
X0549638Y0414432D01*
X0548489Y0414583D01*
D02*
G37*
G36*
X0341180Y0408966D02*
X0340399Y0408811D01*
X0339738Y0408369D01*
X0339296Y0407707D01*
X0339140Y0406927D01*
X0339296Y0406146D01*
X0339738Y0405485D01*
X0340399Y0405043D01*
X0341180Y0404887D01*
X0341960Y0405043D01*
X0342621Y0405485D01*
X0343064Y0406146D01*
X0343219Y0406927D01*
X0343064Y0407707D01*
X0342621Y0408369D01*
X0341960Y0408811D01*
X0341180Y0408966D01*
D02*
G37*
G36*
X0609453Y0406821D02*
X0608398Y0406683D01*
X0607414Y0406275D01*
X0606570Y0405627D01*
X0605922Y0404783D01*
X0605515Y0403800D01*
X0605376Y0402745D01*
X0605515Y0401690D01*
X0605922Y0400707D01*
X0606570Y0399862D01*
X0607414Y0399214D01*
X0608398Y0398807D01*
X0609453Y0398668D01*
X0610508Y0398807D01*
X0611491Y0399214D01*
X0612335Y0399862D01*
X0612983Y0400707D01*
X0613390Y0401690D01*
X0613529Y0402745D01*
X0613390Y0403800D01*
X0612983Y0404783D01*
X0612335Y0405627D01*
X0611491Y0406275D01*
X0610508Y0406683D01*
X0609453Y0406821D01*
D02*
G37*
G36*
X0437719Y0407014D02*
X0436571Y0406862D01*
X0435500Y0406419D01*
X0434581Y0405714D01*
X0433876Y0404795D01*
X0433432Y0403724D01*
X0433281Y0402576D01*
X0433432Y0401427D01*
X0433876Y0400357D01*
X0434581Y0399437D01*
X0435500Y0398732D01*
X0436571Y0398289D01*
X0437719Y0398138D01*
X0438868Y0398289D01*
X0439938Y0398732D01*
X0440857Y0399437D01*
X0441563Y0400357D01*
X0442006Y0401427D01*
X0442157Y0402576D01*
X0442006Y0403724D01*
X0441563Y0404795D01*
X0440857Y0405714D01*
X0439938Y0406419D01*
X0438868Y0406862D01*
X0437719Y0407014D01*
D02*
G37*
G36*
X0753789Y0405922D02*
X0752734Y0405783D01*
X0751751Y0405375D01*
X0750906Y0404728D01*
X0750258Y0403883D01*
X0749851Y0402900D01*
X0749712Y0401845D01*
X0749851Y0400790D01*
X0750258Y0399807D01*
X0750906Y0398962D01*
X0751751Y0398314D01*
X0752734Y0397907D01*
X0753789Y0397768D01*
X0754844Y0397907D01*
X0755827Y0398314D01*
X0756672Y0398962D01*
X0757319Y0399807D01*
X0757727Y0400790D01*
X0757866Y0401845D01*
X0757727Y0402900D01*
X0757319Y0403883D01*
X0756672Y0404728D01*
X0755827Y0405375D01*
X0754844Y0405783D01*
X0753789Y0405922D01*
D02*
G37*
G36*
X0538292Y0400886D02*
X0537512Y0400731D01*
X0536850Y0400289D01*
X0536408Y0399627D01*
X0536253Y0398847D01*
X0536408Y0398067D01*
X0536850Y0397405D01*
X0537512Y0396963D01*
X0538292Y0396808D01*
X0539072Y0396963D01*
X0539734Y0397405D01*
X0540176Y0398067D01*
X0540331Y0398847D01*
X0540176Y0399627D01*
X0539734Y0400289D01*
X0539072Y0400731D01*
X0538292Y0400886D01*
D02*
G37*
G36*
X0652861Y0403521D02*
X0651806Y0403383D01*
X0650823Y0402975D01*
X0649979Y0402327D01*
X0649331Y0401483D01*
X0648924Y0400500D01*
X0648785Y0399445D01*
X0648924Y0398390D01*
X0649331Y0397407D01*
X0649979Y0396562D01*
X0650823Y0395914D01*
X0651806Y0395507D01*
X0652861Y0395368D01*
X0653917Y0395507D01*
X0654900Y0395914D01*
X0655744Y0396562D01*
X0656392Y0397407D01*
X0656799Y0398390D01*
X0656938Y0399445D01*
X0656799Y0400500D01*
X0656392Y0401483D01*
X0655744Y0402327D01*
X0654900Y0402975D01*
X0653917Y0403383D01*
X0652861Y0403521D01*
D02*
G37*
G36*
X0360732Y0399023D02*
X0359951Y0398868D01*
X0359290Y0398426D01*
X0358848Y0397764D01*
X0358693Y0396984D01*
X0358848Y0396204D01*
X0359290Y0395542D01*
X0359951Y0395100D01*
X0360732Y0394945D01*
X0361512Y0395100D01*
X0362174Y0395542D01*
X0362616Y0396204D01*
X0362771Y0396984D01*
X0362616Y0397764D01*
X0362174Y0398426D01*
X0361512Y0398868D01*
X0360732Y0399023D01*
D02*
G37*
G36*
X0376581Y0399005D02*
X0375800Y0398850D01*
X0375139Y0398408D01*
X0374697Y0397746D01*
X0374541Y0396966D01*
X0374697Y0396185D01*
X0375139Y0395524D01*
X0375800Y0395082D01*
X0376581Y0394927D01*
X0377361Y0395082D01*
X0378023Y0395524D01*
X0378465Y0396185D01*
X0378620Y0396966D01*
X0378465Y0397746D01*
X0378023Y0398408D01*
X0377361Y0398850D01*
X0376581Y0399005D01*
D02*
G37*
G36*
X0519352Y0393414D02*
X0518572Y0393258D01*
X0517910Y0392816D01*
X0517468Y0392155D01*
X0517313Y0391374D01*
X0517468Y0390594D01*
X0517910Y0389933D01*
X0518572Y0389491D01*
X0519352Y0389335D01*
X0520132Y0389491D01*
X0520794Y0389933D01*
X0521236Y0390594D01*
X0521391Y0391374D01*
X0521236Y0392155D01*
X0520794Y0392816D01*
X0520132Y0393258D01*
X0519352Y0393414D01*
D02*
G37*
G36*
X0274305Y0396036D02*
X0273156Y0395885D01*
X0272086Y0395442D01*
X0271167Y0394736D01*
X0270462Y0393817D01*
X0270018Y0392747D01*
X0269867Y0391598D01*
X0270018Y0390450D01*
X0270462Y0389379D01*
X0271167Y0388460D01*
X0272086Y0387755D01*
X0273156Y0387311D01*
X0274305Y0387160D01*
X0275454Y0387311D01*
X0276524Y0387755D01*
X0277443Y0388460D01*
X0278149Y0389379D01*
X0278592Y0390450D01*
X0278743Y0391598D01*
X0278592Y0392747D01*
X0278149Y0393817D01*
X0277443Y0394736D01*
X0276524Y0395442D01*
X0275454Y0395885D01*
X0274305Y0396036D01*
D02*
G37*
G36*
X0346389Y0366584D02*
X0345609Y0366429D01*
X0344947Y0365987D01*
X0344505Y0365325D01*
X0344350Y0364545D01*
X0344505Y0363765D01*
X0344947Y0363103D01*
X0345609Y0362661D01*
X0346389Y0362506D01*
X0347169Y0362661D01*
X0347831Y0363103D01*
X0348273Y0363765D01*
X0348428Y0364545D01*
X0348273Y0365325D01*
X0347831Y0365987D01*
X0347169Y0366429D01*
X0346389Y0366584D01*
D02*
G37*
G36*
X0356889Y0362384D02*
X0356109Y0362229D01*
X0355447Y0361787D01*
X0355005Y0361125D01*
X0354850Y0360345D01*
X0354997Y0359603D01*
X0354986Y0359585D01*
X0354446Y0359422D01*
X0353708Y0359988D01*
X0352638Y0360432D01*
X0351489Y0360583D01*
X0350340Y0360432D01*
X0349270Y0359988D01*
X0348351Y0359283D01*
X0347646Y0358364D01*
X0347202Y0357294D01*
X0347051Y0356145D01*
X0347202Y0354996D01*
X0347646Y0353926D01*
X0348351Y0353007D01*
X0349270Y0352302D01*
X0350340Y0351858D01*
X0351489Y0351707D01*
X0352638Y0351858D01*
X0353708Y0352302D01*
X0354627Y0353007D01*
X0355332Y0353926D01*
X0355776Y0354996D01*
X0355927Y0356145D01*
X0355776Y0357294D01*
X0355332Y0358364D01*
X0355310Y0358393D01*
X0355656Y0358763D01*
X0356109Y0358461D01*
X0356889Y0358306D01*
X0357669Y0358461D01*
X0358331Y0358903D01*
X0358773Y0359564D01*
X0358928Y0360345D01*
X0358773Y0361125D01*
X0358331Y0361787D01*
X0357669Y0362229D01*
X0356889Y0362384D01*
D02*
G37*
G36*
X0470000Y0357886D02*
X0469219Y0357730D01*
X0468558Y0357288D01*
X0468116Y0356627D01*
X0467961Y0355846D01*
X0468116Y0355066D01*
X0468558Y0354404D01*
X0469219Y0353962D01*
X0470000Y0353807D01*
X0470780Y0353962D01*
X0471442Y0354404D01*
X0471884Y0355066D01*
X0472039Y0355846D01*
X0471884Y0356627D01*
X0471442Y0357288D01*
X0470780Y0357730D01*
X0470000Y0357886D01*
D02*
G37*
G36*
X0275105Y0361239D02*
X0273956Y0361087D01*
X0272886Y0360644D01*
X0271967Y0359939D01*
X0271262Y0359019D01*
X0270818Y0357949D01*
X0270667Y0356801D01*
X0270818Y0355652D01*
X0271262Y0354581D01*
X0271967Y0353662D01*
X0272886Y0352957D01*
X0273956Y0352514D01*
X0275105Y0352362D01*
X0276254Y0352514D01*
X0277324Y0352957D01*
X0278243Y0353662D01*
X0278948Y0354581D01*
X0279392Y0355652D01*
X0279543Y0356801D01*
X0279392Y0357949D01*
X0278948Y0359019D01*
X0278243Y0359939D01*
X0277324Y0360644D01*
X0276254Y0361087D01*
X0275105Y0361239D01*
D02*
G37*
G36*
X0370392Y0353017D02*
X0369611Y0352862D01*
X0368950Y0352420D01*
X0368706Y0352054D01*
X0368104D01*
X0367955Y0352277D01*
X0367294Y0352719D01*
X0366513Y0352874D01*
X0365733Y0352719D01*
X0365072Y0352277D01*
X0364630Y0351615D01*
X0364474Y0350835D01*
X0364630Y0350055D01*
X0365072Y0349393D01*
X0365733Y0348951D01*
X0366513Y0348796D01*
X0367294Y0348951D01*
X0367955Y0349393D01*
X0368200Y0349759D01*
X0368801D01*
X0368950Y0349536D01*
X0369611Y0349094D01*
X0370392Y0348939D01*
X0371172Y0349094D01*
X0371834Y0349536D01*
X0372276Y0350198D01*
X0372431Y0350978D01*
X0372276Y0351758D01*
X0371834Y0352420D01*
X0371172Y0352862D01*
X0370392Y0353017D01*
D02*
G37*
G36*
X0681789Y0356013D02*
X0681009Y0355858D01*
X0680347Y0355416D01*
X0679905Y0354754D01*
X0679750Y0353974D01*
X0679905Y0353194D01*
X0680347Y0352532D01*
X0681009Y0352090D01*
X0681789Y0351935D01*
X0682570Y0352090D01*
X0683231Y0352532D01*
X0683673Y0353194D01*
X0683828Y0353974D01*
X0683673Y0354754D01*
X0683231Y0355416D01*
X0682570Y0355858D01*
X0681789Y0356013D01*
D02*
G37*
G36*
X0693989Y0356484D02*
X0693209Y0356329D01*
X0692547Y0355887D01*
X0692105Y0355225D01*
X0691950Y0354445D01*
X0692105Y0353664D01*
X0692547Y0353003D01*
X0693209Y0352561D01*
X0693989Y0352406D01*
X0694769Y0352561D01*
X0695431Y0353003D01*
X0695436Y0353010D01*
X0695990Y0352940D01*
X0696334Y0352425D01*
X0696995Y0351983D01*
X0697776Y0351828D01*
X0698556Y0351983D01*
X0699218Y0352425D01*
X0699660Y0353086D01*
X0699815Y0353867D01*
X0699660Y0354647D01*
X0699218Y0355309D01*
X0698556Y0355751D01*
X0697776Y0355906D01*
X0696995Y0355751D01*
X0696334Y0355309D01*
X0696329Y0355301D01*
X0695775Y0355372D01*
X0695431Y0355887D01*
X0694769Y0356329D01*
X0693989Y0356484D01*
D02*
G37*
G36*
X0376189Y0352484D02*
X0375409Y0352329D01*
X0374747Y0351887D01*
X0374305Y0351225D01*
X0374150Y0350445D01*
X0374305Y0349664D01*
X0374747Y0349003D01*
X0375409Y0348561D01*
X0376189Y0348406D01*
X0376969Y0348561D01*
X0377631Y0349003D01*
X0378073Y0349664D01*
X0378228Y0350445D01*
X0378073Y0351225D01*
X0377631Y0351887D01*
X0376969Y0352329D01*
X0376189Y0352484D01*
D02*
G37*
G36*
X0389889Y0352084D02*
X0389109Y0351929D01*
X0388447Y0351487D01*
X0388005Y0350825D01*
X0387850Y0350045D01*
X0388005Y0349265D01*
X0388447Y0348603D01*
X0389109Y0348161D01*
X0389889Y0348006D01*
X0390669Y0348161D01*
X0391331Y0348603D01*
X0391773Y0349265D01*
X0391928Y0350045D01*
X0391773Y0350825D01*
X0391331Y0351487D01*
X0390669Y0351929D01*
X0389889Y0352084D01*
D02*
G37*
G36*
X0462928Y0351503D02*
X0462148Y0351347D01*
X0461486Y0350905D01*
X0461044Y0350244D01*
X0460889Y0349463D01*
X0461044Y0348683D01*
X0461486Y0348022D01*
X0462148Y0347580D01*
X0462928Y0347424D01*
X0463708Y0347580D01*
X0464370Y0348022D01*
X0464812Y0348683D01*
X0464967Y0349463D01*
X0464812Y0350244D01*
X0464370Y0350905D01*
X0463708Y0351347D01*
X0462928Y0351503D01*
D02*
G37*
G36*
X0679590Y0351393D02*
X0678809Y0351237D01*
X0678148Y0350795D01*
X0677706Y0350134D01*
X0677551Y0349353D01*
X0677706Y0348573D01*
X0678148Y0347912D01*
X0678809Y0347469D01*
X0679590Y0347314D01*
X0680370Y0347469D01*
X0681032Y0347912D01*
X0681474Y0348573D01*
X0681629Y0349353D01*
X0681474Y0350134D01*
X0681032Y0350795D01*
X0680370Y0351237D01*
X0679590Y0351393D01*
D02*
G37*
G36*
X0484878Y0348017D02*
X0484098Y0347862D01*
X0483436Y0347420D01*
X0482994Y0346758D01*
X0482839Y0345978D01*
X0482994Y0345198D01*
X0483436Y0344536D01*
X0484098Y0344094D01*
X0484878Y0343939D01*
X0485659Y0344094D01*
X0486320Y0344536D01*
X0486762Y0345198D01*
X0486849Y0345635D01*
X0486870Y0345740D01*
X0487380D01*
X0487404Y0345620D01*
X0487507Y0345100D01*
X0487949Y0344438D01*
X0488611Y0343996D01*
X0489391Y0343841D01*
X0490172Y0343996D01*
X0490833Y0344438D01*
X0491275Y0345100D01*
X0491430Y0345880D01*
X0491275Y0346661D01*
X0490833Y0347322D01*
X0490172Y0347764D01*
X0489391Y0347920D01*
X0488611Y0347764D01*
X0487949Y0347322D01*
X0487507Y0346661D01*
X0487420Y0346224D01*
X0487399Y0346118D01*
X0486890D01*
X0486866Y0346238D01*
X0486762Y0346758D01*
X0486320Y0347420D01*
X0485659Y0347862D01*
X0484878Y0348017D01*
D02*
G37*
G36*
X0334867Y0343836D02*
X0334086Y0343681D01*
X0333425Y0343239D01*
X0332983Y0342577D01*
X0332828Y0341797D01*
X0332983Y0341017D01*
X0333425Y0340355D01*
X0334086Y0339913D01*
X0334867Y0339758D01*
X0335647Y0339913D01*
X0336309Y0340355D01*
X0336751Y0341017D01*
X0336906Y0341797D01*
X0336751Y0342577D01*
X0336309Y0343239D01*
X0335647Y0343681D01*
X0334867Y0343836D01*
D02*
G37*
G36*
X0467960Y0342394D02*
X0467179Y0342239D01*
X0466518Y0341797D01*
X0466076Y0341136D01*
X0465920Y0340355D01*
X0466076Y0339575D01*
X0466518Y0338913D01*
X0467179Y0338471D01*
X0467960Y0338316D01*
X0468740Y0338471D01*
X0469402Y0338913D01*
X0469843Y0339575D01*
X0469999Y0340355D01*
X0469843Y0341136D01*
X0469402Y0341797D01*
X0468740Y0342239D01*
X0467960Y0342394D01*
D02*
G37*
G36*
X0495761Y0341079D02*
X0494980Y0340924D01*
X0494319Y0340481D01*
X0493877Y0339820D01*
X0493721Y0339040D01*
X0493877Y0338259D01*
X0494319Y0337598D01*
X0494980Y0337156D01*
X0495761Y0337000D01*
X0496541Y0337156D01*
X0497203Y0337598D01*
X0497645Y0338259D01*
X0497800Y0339040D01*
X0497645Y0339820D01*
X0497203Y0340481D01*
X0496541Y0340924D01*
X0495761Y0341079D01*
D02*
G37*
G36*
X0376882Y0335910D02*
X0376414Y0335817D01*
X0376017Y0335552D01*
X0375752Y0335155D01*
X0375658Y0334686D01*
X0375752Y0334218D01*
X0376017Y0333821D01*
X0376414Y0333556D01*
X0376882Y0333463D01*
X0377350Y0333556D01*
X0377747Y0333821D01*
X0378012Y0334218D01*
X0378105Y0334686D01*
X0378012Y0335155D01*
X0377747Y0335552D01*
X0377350Y0335817D01*
X0376882Y0335910D01*
D02*
G37*
G36*
X0463989Y0337484D02*
X0463209Y0337329D01*
X0462547Y0336887D01*
X0462105Y0336225D01*
X0461950Y0335445D01*
X0462105Y0334665D01*
X0462547Y0334003D01*
X0463209Y0333561D01*
X0463989Y0333406D01*
X0464769Y0333561D01*
X0465431Y0334003D01*
X0465873Y0334665D01*
X0466028Y0335445D01*
X0465873Y0336225D01*
X0465431Y0336887D01*
X0464769Y0337329D01*
X0463989Y0337484D01*
D02*
G37*
G36*
X0372390Y0336801D02*
X0371609Y0336646D01*
X0370948Y0336204D01*
X0370506Y0335542D01*
X0370351Y0334762D01*
X0370506Y0333981D01*
X0370948Y0333320D01*
X0371609Y0332878D01*
X0372390Y0332723D01*
X0373170Y0332878D01*
X0373832Y0333320D01*
X0374274Y0333981D01*
X0374429Y0334762D01*
X0374274Y0335542D01*
X0373832Y0336204D01*
X0373170Y0336646D01*
X0372390Y0336801D01*
D02*
G37*
G36*
X0448609Y0336623D02*
X0441135D01*
X0440829Y0336496D01*
X0440702Y0336190D01*
Y0329300D01*
X0440829Y0328994D01*
X0441135Y0328867D01*
X0448609D01*
X0448916Y0328994D01*
X0449042Y0329300D01*
Y0336190D01*
X0448916Y0336496D01*
X0448609Y0336623D01*
D02*
G37*
G36*
X0372896Y0330515D02*
X0372115Y0330360D01*
X0371454Y0329918D01*
X0371012Y0329257D01*
X0370857Y0328476D01*
X0371012Y0327696D01*
X0371454Y0327034D01*
X0372115Y0326592D01*
X0372896Y0326437D01*
X0373676Y0326592D01*
X0374338Y0327034D01*
X0374780Y0327696D01*
X0374935Y0328476D01*
X0374780Y0329257D01*
X0374338Y0329918D01*
X0373676Y0330360D01*
X0372896Y0330515D01*
D02*
G37*
G36*
X0316089Y0331678D02*
X0310889D01*
X0310583Y0331551D01*
X0310456Y0331245D01*
Y0325245D01*
X0310583Y0324939D01*
X0310889Y0324812D01*
X0316089D01*
X0316395Y0324939D01*
X0316522Y0325245D01*
Y0331245D01*
X0316395Y0331551D01*
X0316089Y0331678D01*
D02*
G37*
G36*
X0344889Y0331378D02*
X0339689D01*
X0339383Y0331251D01*
X0339256Y0330945D01*
Y0324945D01*
X0339383Y0324639D01*
X0339689Y0324512D01*
X0344889D01*
X0345195Y0324639D01*
X0345322Y0324945D01*
Y0330945D01*
X0345195Y0331251D01*
X0344889Y0331378D01*
D02*
G37*
G36*
X0394508Y0332432D02*
X0393728Y0332277D01*
X0393066Y0331835D01*
X0392624Y0331173D01*
X0392469Y0330393D01*
X0392624Y0329612D01*
X0393066Y0328951D01*
X0393435Y0328705D01*
X0393445Y0328673D01*
X0393400Y0328126D01*
X0392930Y0327812D01*
X0392487Y0327150D01*
X0392332Y0326370D01*
X0392487Y0325589D01*
X0392930Y0324928D01*
X0393591Y0324486D01*
X0394371Y0324331D01*
X0395152Y0324486D01*
X0395813Y0324928D01*
X0396255Y0325589D01*
X0396411Y0326370D01*
X0396255Y0327150D01*
X0395813Y0327812D01*
X0395445Y0328058D01*
X0395434Y0328089D01*
X0395479Y0328636D01*
X0395950Y0328951D01*
X0396392Y0329612D01*
X0396547Y0330393D01*
X0396392Y0331173D01*
X0395950Y0331835D01*
X0395288Y0332277D01*
X0394508Y0332432D01*
D02*
G37*
G36*
X0320189Y0321284D02*
X0319409Y0321129D01*
X0318747Y0320687D01*
X0318305Y0320025D01*
X0318150Y0319245D01*
X0318305Y0318464D01*
X0318747Y0317803D01*
X0319409Y0317361D01*
X0320189Y0317206D01*
X0320969Y0317361D01*
X0321631Y0317803D01*
X0322073Y0318464D01*
X0322228Y0319245D01*
X0322073Y0320025D01*
X0321631Y0320687D01*
X0320969Y0321129D01*
X0320189Y0321284D01*
D02*
G37*
G36*
X0337827Y0320350D02*
X0337046Y0320195D01*
X0336385Y0319753D01*
X0335943Y0319091D01*
X0335788Y0318311D01*
X0335943Y0317530D01*
X0336385Y0316869D01*
X0337046Y0316427D01*
X0337827Y0316271D01*
X0338607Y0316427D01*
X0339269Y0316869D01*
X0339711Y0317530D01*
X0339866Y0318311D01*
X0339711Y0319091D01*
X0339269Y0319753D01*
X0338607Y0320195D01*
X0337827Y0320350D01*
D02*
G37*
G36*
X0347589Y0320084D02*
X0346809Y0319929D01*
X0346147Y0319487D01*
X0345705Y0318825D01*
X0345550Y0318045D01*
X0345705Y0317265D01*
X0346147Y0316603D01*
X0346809Y0316161D01*
X0347589Y0316006D01*
X0348369Y0316161D01*
X0349031Y0316603D01*
X0349473Y0317265D01*
X0349628Y0318045D01*
X0349473Y0318825D01*
X0349031Y0319487D01*
X0348369Y0319929D01*
X0347589Y0320084D01*
D02*
G37*
G36*
X0320389Y0314484D02*
X0319609Y0314329D01*
X0318947Y0313887D01*
X0318505Y0313225D01*
X0318350Y0312445D01*
X0318505Y0311665D01*
X0318947Y0311003D01*
X0319609Y0310561D01*
X0320389Y0310406D01*
X0321169Y0310561D01*
X0321831Y0311003D01*
X0322273Y0311665D01*
X0322428Y0312445D01*
X0322273Y0313225D01*
X0321831Y0313887D01*
X0321169Y0314329D01*
X0320389Y0314484D01*
D02*
G37*
G36*
X0456020Y0312401D02*
X0455239Y0312246D01*
X0454578Y0311804D01*
X0454136Y0311142D01*
X0453980Y0310362D01*
X0454136Y0309581D01*
X0454578Y0308920D01*
X0455239Y0308478D01*
X0456020Y0308323D01*
X0456800Y0308478D01*
X0457462Y0308920D01*
X0457904Y0309581D01*
X0458059Y0310362D01*
X0457904Y0311142D01*
X0457462Y0311804D01*
X0456800Y0312246D01*
X0456020Y0312401D01*
D02*
G37*
G36*
X0314707Y0312288D02*
X0313927Y0312133D01*
X0313265Y0311690D01*
X0312823Y0311029D01*
X0312668Y0310249D01*
X0312823Y0309468D01*
X0313265Y0308807D01*
X0313927Y0308365D01*
X0314707Y0308209D01*
X0315488Y0308365D01*
X0316149Y0308807D01*
X0316591Y0309468D01*
X0316746Y0310249D01*
X0316591Y0311029D01*
X0316149Y0311690D01*
X0315488Y0312133D01*
X0314707Y0312288D01*
D02*
G37*
G36*
X0341989Y0311684D02*
X0341209Y0311529D01*
X0340547Y0311087D01*
X0340105Y0310425D01*
X0339950Y0309645D01*
X0340105Y0308864D01*
X0340547Y0308203D01*
X0341209Y0307761D01*
X0341989Y0307606D01*
X0342769Y0307761D01*
X0343431Y0308203D01*
X0343873Y0308864D01*
X0344028Y0309645D01*
X0343873Y0310425D01*
X0343431Y0311087D01*
X0342769Y0311529D01*
X0341989Y0311684D01*
D02*
G37*
G36*
X0418236Y0308580D02*
X0417456Y0308425D01*
X0416794Y0307983D01*
X0416352Y0307322D01*
X0416197Y0306541D01*
X0416352Y0305761D01*
X0416794Y0305099D01*
X0417456Y0304657D01*
X0418236Y0304502D01*
X0419017Y0304657D01*
X0419678Y0305099D01*
X0420120Y0305761D01*
X0420275Y0306541D01*
X0420120Y0307322D01*
X0419678Y0307983D01*
X0419017Y0308425D01*
X0418236Y0308580D01*
D02*
G37*
G36*
X0462576Y0307450D02*
X0461796Y0307295D01*
X0461134Y0306853D01*
X0460692Y0306191D01*
X0460537Y0305411D01*
X0460692Y0304630D01*
X0461134Y0303969D01*
X0461796Y0303527D01*
X0462576Y0303372D01*
X0463356Y0303527D01*
X0464018Y0303969D01*
X0464460Y0304630D01*
X0464615Y0305411D01*
X0464460Y0306191D01*
X0464018Y0306853D01*
X0463356Y0307295D01*
X0462576Y0307450D01*
D02*
G37*
G36*
X0364360Y0302840D02*
X0363579Y0302685D01*
X0362918Y0302243D01*
X0362476Y0301582D01*
X0362320Y0300801D01*
X0362476Y0300021D01*
X0362918Y0299359D01*
X0363579Y0298917D01*
X0364360Y0298762D01*
X0365140Y0298917D01*
X0365802Y0299359D01*
X0366244Y0300021D01*
X0366399Y0300801D01*
X0366244Y0301582D01*
X0365802Y0302243D01*
X0365140Y0302685D01*
X0364360Y0302840D01*
D02*
G37*
G36*
X0222382Y0735936D02*
X0219626D01*
X0218932Y0735798D01*
X0218344Y0735405D01*
X0217951Y0734817D01*
X0217813Y0734123D01*
Y0731367D01*
X0217951Y0730673D01*
X0218344Y0730085D01*
X0218932Y0729692D01*
X0219626Y0729554D01*
X0222382D01*
X0223076Y0729692D01*
X0223664Y0730085D01*
X0224057Y0730673D01*
X0224195Y0731367D01*
Y0734123D01*
X0224057Y0734817D01*
X0223664Y0735405D01*
X0223076Y0735798D01*
X0222382Y0735936D01*
D02*
G37*
G36*
X0230267Y0685821D02*
X0227511D01*
X0226817Y0685683D01*
X0226229Y0685290D01*
X0225836Y0684702D01*
X0225698Y0684008D01*
Y0681252D01*
X0225836Y0680558D01*
X0226229Y0679970D01*
X0226817Y0679577D01*
X0227511Y0679439D01*
X0230267D01*
X0230961Y0679577D01*
X0231549Y0679970D01*
X0231942Y0680558D01*
X0232080Y0681252D01*
Y0684008D01*
X0231942Y0684702D01*
X0231549Y0685290D01*
X0230961Y0685683D01*
X0230267Y0685821D01*
D02*
G37*
G36*
X0230067Y0629478D02*
X0227311D01*
X0226617Y0629340D01*
X0226029Y0628947D01*
X0225636Y0628359D01*
X0225498Y0627665D01*
Y0624909D01*
X0225636Y0624216D01*
X0226029Y0623628D01*
X0226617Y0623235D01*
X0227311Y0623097D01*
X0230067D01*
X0230761Y0623235D01*
X0231349Y0623628D01*
X0231742Y0624216D01*
X0231880Y0624909D01*
Y0627665D01*
X0231742Y0628359D01*
X0231349Y0628947D01*
X0230761Y0629340D01*
X0230067Y0629478D01*
D02*
G37*
G36*
X0884568Y0678284D02*
X0883773D01*
X0883037Y0677979D01*
X0882475Y0677417D01*
X0882170Y0676682D01*
Y0675886D01*
X0882475Y0675151D01*
X0883037Y0674588D01*
X0883773Y0674284D01*
X0884568D01*
X0885303Y0674588D01*
X0885866Y0675151D01*
X0886170Y0675886D01*
Y0676682D01*
X0885866Y0677417D01*
X0885303Y0677979D01*
X0884568Y0678284D01*
D02*
G37*
G36*
X0859068Y0677045D02*
X0857910D01*
X0856791Y0676745D01*
X0855787Y0676166D01*
X0854968Y0675347D01*
X0854389Y0674343D01*
X0854089Y0673224D01*
Y0672066D01*
X0854389Y0670947D01*
X0854968Y0669943D01*
X0855787Y0669124D01*
X0856791Y0668545D01*
X0857910Y0668245D01*
X0859068D01*
X0860187Y0668545D01*
X0861191Y0669124D01*
X0862010Y0669943D01*
X0862589Y0670947D01*
X0862889Y0672066D01*
Y0673224D01*
X0862589Y0674343D01*
X0862010Y0675347D01*
X0861191Y0676166D01*
X0860187Y0676745D01*
X0859068Y0677045D01*
D02*
G37*
G36*
X0870062Y0663946D02*
X0869267D01*
X0868532Y0663642D01*
X0868158Y0663268D01*
X0867905Y0663105D01*
X0867506Y0663267D01*
X0867198Y0663575D01*
X0866463Y0663879D01*
X0865667D01*
X0864932Y0663575D01*
X0864370Y0663012D01*
X0864065Y0662277D01*
Y0661482D01*
X0864370Y0660746D01*
X0864932Y0660184D01*
X0865667Y0659879D01*
X0866463D01*
X0867198Y0660184D01*
X0867572Y0660558D01*
X0867825Y0660720D01*
X0868224Y0660558D01*
X0868532Y0660251D01*
X0869267Y0659946D01*
X0870062D01*
X0870798Y0660251D01*
X0871360Y0660813D01*
X0871665Y0661549D01*
Y0662344D01*
X0871360Y0663079D01*
X0870798Y0663642D01*
X0870062Y0663946D01*
D02*
G37*
G36*
X0862127Y0666084D02*
X0861331D01*
X0860596Y0665779D01*
X0860033Y0665217D01*
X0859729Y0664482D01*
Y0663686D01*
X0860033Y0662951D01*
X0860596Y0662388D01*
X0861331Y0662084D01*
X0862127D01*
X0862862Y0662388D01*
X0863424Y0662951D01*
X0863729Y0663686D01*
Y0664482D01*
X0863424Y0665217D01*
X0862862Y0665779D01*
X0862127Y0666084D01*
D02*
G37*
G36*
X0874851Y0664265D02*
X0874055D01*
X0873320Y0663961D01*
X0872758Y0663398D01*
X0872453Y0662663D01*
Y0661868D01*
X0872758Y0661132D01*
X0873320Y0660570D01*
X0874055Y0660265D01*
X0874851D01*
X0875586Y0660570D01*
X0876149Y0661132D01*
X0876453Y0661868D01*
Y0662663D01*
X0876149Y0663398D01*
X0875586Y0663961D01*
X0874851Y0664265D01*
D02*
G37*
G36*
X0882633Y0647587D02*
X0881837D01*
X0881102Y0647283D01*
X0880540Y0646720D01*
X0880235Y0645985D01*
Y0645190D01*
X0880540Y0644454D01*
X0881102Y0643892D01*
X0881837Y0643587D01*
X0882633D01*
X0883368Y0643892D01*
X0883931Y0644454D01*
X0884235Y0645190D01*
Y0645985D01*
X0883931Y0646720D01*
X0883368Y0647283D01*
X0882633Y0647587D01*
D02*
G37*
G36*
X0874634Y0649965D02*
X0873839D01*
X0873104Y0649660D01*
X0872541Y0649098D01*
X0872237Y0648363D01*
Y0647567D01*
X0872541Y0646832D01*
X0872907Y0646466D01*
X0872580Y0646138D01*
X0872275Y0645403D01*
Y0644607D01*
X0872580Y0643872D01*
X0873142Y0643310D01*
X0873878Y0643005D01*
X0874673D01*
X0875408Y0643310D01*
X0875971Y0643872D01*
X0876275Y0644607D01*
Y0645403D01*
X0875971Y0646138D01*
X0875605Y0646504D01*
X0875932Y0646832D01*
X0876237Y0647567D01*
Y0648363D01*
X0875932Y0649098D01*
X0875369Y0649660D01*
X0874634Y0649965D01*
D02*
G37*
G36*
X0893413Y0638530D02*
X0892557D01*
X0891766Y0638202D01*
X0891161Y0637597D01*
X0890833Y0636806D01*
Y0635950D01*
X0891161Y0635159D01*
X0891766Y0634554D01*
X0892557Y0634226D01*
X0893413D01*
X0894204Y0634554D01*
X0894809Y0635159D01*
X0895137Y0635950D01*
Y0636806D01*
X0894809Y0637597D01*
X0894204Y0638202D01*
X0893413Y0638530D01*
D02*
G37*
G36*
X0882426Y0635918D02*
X0881630D01*
X0880895Y0635614D01*
X0880332Y0635051D01*
X0880028Y0634316D01*
Y0633520D01*
X0880332Y0632785D01*
X0880895Y0632223D01*
X0881630Y0631918D01*
X0882426D01*
X0883161Y0632223D01*
X0883723Y0632785D01*
X0884028Y0633520D01*
Y0634316D01*
X0883723Y0635051D01*
X0883161Y0635614D01*
X0882426Y0635918D01*
D02*
G37*
G36*
X0887456Y0628802D02*
X0886703D01*
X0885977Y0628607D01*
X0885326Y0628231D01*
X0884794Y0627699D01*
X0884418Y0627047D01*
X0884223Y0626321D01*
Y0625569D01*
X0884418Y0624842D01*
X0884794Y0624191D01*
X0885326Y0623659D01*
X0885977Y0623283D01*
X0886703Y0623088D01*
X0887456D01*
X0888182Y0623283D01*
X0888834Y0623659D01*
X0889365Y0624191D01*
X0889742Y0624842D01*
X0889936Y0625569D01*
Y0626321D01*
X0889742Y0627047D01*
X0889365Y0627699D01*
X0888834Y0628231D01*
X0888182Y0628607D01*
X0887456Y0628802D01*
D02*
G37*
G36*
X0898251Y0553630D02*
X0897774D01*
X0897333Y0553448D01*
X0896995Y0553110D01*
X0896812Y0552669D01*
Y0552192D01*
X0896995Y0551751D01*
X0897333Y0551413D01*
X0897774Y0551230D01*
X0898251D01*
X0898692Y0551413D01*
X0899030Y0551751D01*
X0899212Y0552192D01*
Y0552669D01*
X0899030Y0553110D01*
X0898692Y0553448D01*
X0898251Y0553630D01*
D02*
G37*
G36*
X0896142Y0546424D02*
X0895664D01*
X0895223Y0546241D01*
X0894886Y0545903D01*
X0894703Y0545462D01*
Y0544985D01*
X0894886Y0544544D01*
X0895223Y0544206D01*
X0895664Y0544024D01*
X0896142D01*
X0896583Y0544206D01*
X0896920Y0544544D01*
X0897103Y0544985D01*
Y0545462D01*
X0896920Y0545903D01*
X0896583Y0546241D01*
X0896142Y0546424D01*
D02*
G37*
G36*
X0896175Y0542857D02*
X0895698D01*
X0895257Y0542674D01*
X0894919Y0542337D01*
X0894736Y0541895D01*
Y0541418D01*
X0894919Y0540977D01*
X0895257Y0540639D01*
X0895698Y0540457D01*
X0896175D01*
X0896616Y0540639D01*
X0896953Y0540977D01*
X0897136Y0541418D01*
Y0541895D01*
X0896953Y0542337D01*
X0896616Y0542674D01*
X0896175Y0542857D01*
D02*
G37*
G36*
X0898187Y0540742D02*
X0897710D01*
X0897269Y0540559D01*
X0896931Y0540222D01*
X0896749Y0539781D01*
Y0539303D01*
X0896834Y0539097D01*
X0896451Y0538714D01*
X0896378Y0538745D01*
X0895900D01*
X0895459Y0538562D01*
X0895122Y0538225D01*
X0894939Y0537784D01*
Y0537306D01*
X0895122Y0536865D01*
X0895459Y0536528D01*
X0895900Y0536345D01*
X0896378D01*
X0896819Y0536528D01*
X0897156Y0536865D01*
X0897339Y0537306D01*
Y0537784D01*
X0897254Y0537990D01*
X0897636Y0538373D01*
X0897710Y0538342D01*
X0898187D01*
X0898629Y0538525D01*
X0898966Y0538862D01*
X0899149Y0539303D01*
Y0539781D01*
X0898966Y0540222D01*
X0898629Y0540559D01*
X0898187Y0540742D01*
D02*
G37*
G36*
X0898143Y0521312D02*
X0897666D01*
X0897225Y0521130D01*
X0896887Y0520792D01*
X0896705Y0520351D01*
Y0519874D01*
X0896887Y0519433D01*
X0897225Y0519095D01*
X0897666Y0518912D01*
X0898143D01*
X0898584Y0519095D01*
X0898922Y0519433D01*
X0899105Y0519874D01*
Y0520351D01*
X0898922Y0520792D01*
X0898584Y0521130D01*
X0898143Y0521312D01*
D02*
G37*
G36*
X0898256Y0512138D02*
X0897779D01*
X0897338Y0511955D01*
X0897001Y0511618D01*
X0896818Y0511177D01*
Y0510699D01*
X0897001Y0510258D01*
X0897338Y0509921D01*
X0897779Y0509738D01*
X0898256D01*
X0898698Y0509921D01*
X0899035Y0510258D01*
X0899218Y0510699D01*
Y0511177D01*
X0899035Y0511618D01*
X0898698Y0511955D01*
X0898256Y0512138D01*
D02*
G37*
G36*
X0898831Y0508660D02*
X0898354D01*
X0897913Y0508477D01*
X0897575Y0508140D01*
X0897393Y0507699D01*
Y0507221D01*
X0897575Y0506780D01*
X0897913Y0506443D01*
X0898354Y0506260D01*
X0898831D01*
X0899272Y0506443D01*
X0899610Y0506780D01*
X0899793Y0507221D01*
Y0507699D01*
X0899610Y0508140D01*
X0899272Y0508477D01*
X0898831Y0508660D01*
D02*
G37*
G36*
X0899728Y0501245D02*
X0899250D01*
X0898809Y0501062D01*
X0898472Y0500725D01*
X0898289Y0500284D01*
Y0499806D01*
X0898472Y0499365D01*
X0898809Y0499028D01*
X0899250Y0498845D01*
X0899728D01*
X0900169Y0499028D01*
X0900506Y0499365D01*
X0900689Y0499806D01*
Y0500284D01*
X0900506Y0500725D01*
X0900169Y0501062D01*
X0899728Y0501245D01*
D02*
G37*
G36*
X0896117Y0455819D02*
X0895798D01*
X0895504Y0455697D01*
X0895279Y0455472D01*
X0895158Y0455178D01*
Y0454860D01*
X0895279Y0454566D01*
X0895504Y0454341D01*
X0895798Y0454219D01*
X0896117D01*
X0896411Y0454341D01*
X0896636Y0454566D01*
X0896758Y0454860D01*
Y0455178D01*
X0896636Y0455472D01*
X0896411Y0455697D01*
X0896117Y0455819D01*
D02*
G37*
G36*
X0897974Y0450776D02*
X0897656D01*
X0897362Y0450654D01*
X0897137Y0450429D01*
X0897015Y0450135D01*
Y0449817D01*
X0897137Y0449522D01*
X0897362Y0449298D01*
X0897656Y0449176D01*
X0897974D01*
X0898268Y0449298D01*
X0898493Y0449522D01*
X0898615Y0449817D01*
Y0450135D01*
X0898493Y0450429D01*
X0898268Y0450654D01*
X0897974Y0450776D01*
D02*
G37*
G36*
X0897658Y0444916D02*
X0897340D01*
X0897046Y0444794D01*
X0896821Y0444569D01*
X0896699Y0444275D01*
Y0443957D01*
X0896821Y0443663D01*
X0897046Y0443438D01*
X0897340Y0443316D01*
X0897658D01*
X0897952Y0443438D01*
X0898177Y0443663D01*
X0898299Y0443957D01*
Y0444275D01*
X0898177Y0444569D01*
X0897952Y0444794D01*
X0897658Y0444916D01*
D02*
G37*
G36*
X0896802Y0438301D02*
X0896484D01*
X0896190Y0438179D01*
X0895965Y0437954D01*
X0895843Y0437660D01*
Y0437342D01*
X0895965Y0437048D01*
X0896190Y0436823D01*
X0896484Y0436701D01*
X0896802D01*
X0897096Y0436823D01*
X0897321Y0437048D01*
X0897443Y0437342D01*
Y0437660D01*
X0897321Y0437954D01*
X0897096Y0438179D01*
X0896802Y0438301D01*
D02*
G37*
G36*
X0896962Y0432633D02*
X0896644D01*
X0896350Y0432511D01*
X0896125Y0432286D01*
X0896003Y0431992D01*
Y0431674D01*
X0896125Y0431380D01*
X0896350Y0431155D01*
X0896644Y0431033D01*
X0896962D01*
X0897256Y0431155D01*
X0897481Y0431380D01*
X0897603Y0431674D01*
Y0431992D01*
X0897481Y0432286D01*
X0897256Y0432511D01*
X0896962Y0432633D01*
D02*
G37*
G36*
X0893958Y0370004D02*
X0893020D01*
X0892115Y0369762D01*
X0891303Y0369293D01*
X0890641Y0368630D01*
X0890172Y0367819D01*
X0889929Y0366914D01*
Y0365976D01*
X0890172Y0365071D01*
X0890641Y0364259D01*
X0891303Y0363597D01*
X0892115Y0363128D01*
X0893020Y0362885D01*
X0893958D01*
X0894863Y0363128D01*
X0895675Y0363597D01*
X0896337Y0364259D01*
X0896806Y0365071D01*
X0897048Y0365976D01*
Y0366914D01*
X0896806Y0367819D01*
X0896337Y0368630D01*
X0895675Y0369293D01*
X0894863Y0369762D01*
X0893958Y0370004D01*
D02*
G37*
G36*
Y0360004D02*
X0893020D01*
X0892115Y0359762D01*
X0891303Y0359293D01*
X0890641Y0358630D01*
X0890172Y0357819D01*
X0889929Y0356913D01*
Y0355976D01*
X0890172Y0355071D01*
X0890641Y0354259D01*
X0891303Y0353597D01*
X0892115Y0353128D01*
X0893020Y0352885D01*
X0893958D01*
X0894863Y0353128D01*
X0895675Y0353597D01*
X0896337Y0354259D01*
X0896806Y0355071D01*
X0897048Y0355976D01*
Y0356913D01*
X0896806Y0357819D01*
X0896337Y0358630D01*
X0895675Y0359293D01*
X0894863Y0359762D01*
X0893958Y0360004D01*
D02*
G37*
G36*
X0867967Y0349330D02*
X0867490D01*
X0867049Y0349148D01*
X0866711Y0348810D01*
X0866528Y0348369D01*
Y0347892D01*
X0866711Y0347451D01*
X0867049Y0347113D01*
X0867490Y0346930D01*
X0867967D01*
X0868408Y0347113D01*
X0868746Y0347451D01*
X0868928Y0347892D01*
Y0348369D01*
X0868746Y0348810D01*
X0868408Y0349148D01*
X0867967Y0349330D01*
D02*
G37*
G36*
X0832103Y0346574D02*
X0831625D01*
X0831184Y0346392D01*
X0830847Y0346054D01*
X0830664Y0345613D01*
Y0345136D01*
X0830847Y0344695D01*
X0831184Y0344357D01*
X0831625Y0344174D01*
X0832103D01*
X0832544Y0344357D01*
X0832881Y0344695D01*
X0833064Y0345136D01*
Y0345613D01*
X0832881Y0346054D01*
X0832544Y0346392D01*
X0832103Y0346574D01*
D02*
G37*
G36*
X0856394Y0345341D02*
X0855916D01*
X0855475Y0345158D01*
X0855138Y0344821D01*
X0854955Y0344379D01*
Y0343902D01*
X0855138Y0343461D01*
X0855475Y0343124D01*
X0855916Y0342941D01*
X0856394D01*
X0856835Y0343124D01*
X0857172Y0343461D01*
X0857355Y0343902D01*
Y0344379D01*
X0857172Y0344821D01*
X0856835Y0345158D01*
X0856394Y0345341D01*
D02*
G37*
G36*
X0877669Y0346193D02*
X0876709D01*
X0875781Y0345944D01*
X0874949Y0345464D01*
X0874270Y0344785D01*
X0873790Y0343953D01*
X0873541Y0343025D01*
Y0342065D01*
X0873790Y0341137D01*
X0874270Y0340305D01*
X0874949Y0339626D01*
X0875781Y0339145D01*
X0876709Y0338897D01*
X0877669D01*
X0878597Y0339145D01*
X0879429Y0339626D01*
X0880108Y0340305D01*
X0880588Y0341137D01*
X0880837Y0342065D01*
Y0343025D01*
X0880588Y0343953D01*
X0880108Y0344785D01*
X0879429Y0345464D01*
X0878597Y0345944D01*
X0877669Y0346193D01*
D02*
G37*
G36*
X0824554Y0341140D02*
X0824076D01*
X0823635Y0340958D01*
X0823298Y0340620D01*
X0823115Y0340179D01*
Y0339702D01*
X0823298Y0339261D01*
X0823635Y0338923D01*
X0824076Y0338740D01*
X0824554D01*
X0824995Y0338923D01*
X0825332Y0339261D01*
X0825515Y0339702D01*
Y0340179D01*
X0825332Y0340620D01*
X0824995Y0340958D01*
X0824554Y0341140D01*
D02*
G37*
G36*
X0840928Y0340745D02*
X0840450D01*
X0840009Y0340562D01*
X0839672Y0340225D01*
X0839489Y0339784D01*
Y0339306D01*
X0839672Y0338865D01*
X0840009Y0338528D01*
X0840450Y0338345D01*
X0840928D01*
X0841369Y0338528D01*
X0841706Y0338865D01*
X0841889Y0339306D01*
Y0339784D01*
X0841706Y0340225D01*
X0841369Y0340562D01*
X0840928Y0340745D01*
D02*
G37*
G36*
X0814038Y0336946D02*
X0813561D01*
X0813120Y0336763D01*
X0812782Y0336426D01*
X0812599Y0335985D01*
Y0335507D01*
X0812782Y0335066D01*
X0813120Y0334729D01*
X0813561Y0334546D01*
X0814038D01*
X0814479Y0334729D01*
X0814817Y0335066D01*
X0814999Y0335507D01*
Y0335985D01*
X0814817Y0336426D01*
X0814479Y0336763D01*
X0814038Y0336946D01*
D02*
G37*
G36*
X0809373Y0332335D02*
X0808896D01*
X0808455Y0332152D01*
X0808117Y0331815D01*
X0807935Y0331374D01*
Y0330896D01*
X0808117Y0330455D01*
X0808455Y0330118D01*
X0808896Y0329935D01*
X0809373D01*
X0809814Y0330118D01*
X0810152Y0330455D01*
X0810335Y0330896D01*
Y0331374D01*
X0810152Y0331815D01*
X0809814Y0332152D01*
X0809373Y0332335D01*
D02*
G37*
G36*
X0797092Y0327477D02*
X0796614D01*
X0796173Y0327294D01*
X0795836Y0326957D01*
X0795653Y0326516D01*
Y0326039D01*
X0795836Y0325597D01*
X0796173Y0325260D01*
X0796614Y0325077D01*
X0797092D01*
X0797533Y0325260D01*
X0797870Y0325597D01*
X0798053Y0326039D01*
Y0326516D01*
X0797870Y0326957D01*
X0797533Y0327294D01*
X0797092Y0327477D01*
D02*
G37*
G36*
X0800468Y0327370D02*
X0799990D01*
X0799549Y0327187D01*
X0799212Y0326850D01*
X0799029Y0326409D01*
Y0325931D01*
X0799212Y0325490D01*
X0799549Y0325153D01*
X0799990Y0324970D01*
X0800468D01*
X0800909Y0325153D01*
X0801246Y0325490D01*
X0801429Y0325931D01*
Y0326409D01*
X0801246Y0326850D01*
X0800909Y0327187D01*
X0800468Y0327370D01*
D02*
G37*
G36*
X0794424Y0320866D02*
X0793947D01*
X0793506Y0320683D01*
X0793168Y0320345D01*
X0792985Y0319904D01*
Y0319427D01*
X0793168Y0318986D01*
X0793506Y0318648D01*
X0793947Y0318465D01*
X0794424D01*
X0794865Y0318648D01*
X0795203Y0318986D01*
X0795386Y0319427D01*
Y0319904D01*
X0795203Y0320345D01*
X0794865Y0320683D01*
X0794424Y0320866D01*
D02*
G37*
G36*
X0858360Y0336293D02*
X0855818D01*
X0853308Y0335895D01*
X0850890Y0335110D01*
X0848626Y0333956D01*
X0846569Y0332462D01*
X0844772Y0330665D01*
X0843278Y0328608D01*
X0842124Y0326344D01*
X0841339Y0323926D01*
X0840941Y0321416D01*
Y0318874D01*
X0841339Y0316364D01*
X0842124Y0313946D01*
X0843278Y0311682D01*
X0844772Y0309625D01*
X0846569Y0307828D01*
X0848626Y0306334D01*
X0850890Y0305180D01*
X0853308Y0304395D01*
X0855818Y0303997D01*
X0858360D01*
X0860870Y0304395D01*
X0863288Y0305180D01*
X0865552Y0306334D01*
X0867609Y0307828D01*
X0869406Y0309625D01*
X0870900Y0311682D01*
X0872054Y0313946D01*
X0872839Y0316364D01*
X0873237Y0318874D01*
Y0321416D01*
X0872839Y0323926D01*
X0872054Y0326344D01*
X0870900Y0328608D01*
X0869406Y0330665D01*
X0867609Y0332462D01*
X0865552Y0333956D01*
X0863288Y0335110D01*
X0860870Y0335895D01*
X0858360Y0336293D01*
D02*
G37*
G36*
X0402789Y0669884D02*
X0402009Y0669729D01*
X0401347Y0669287D01*
X0400905Y0668625D01*
X0400750Y0667845D01*
X0400905Y0667065D01*
X0401347Y0666403D01*
X0402009Y0665961D01*
X0402789Y0665806D01*
X0403569Y0665961D01*
X0404231Y0666403D01*
X0404673Y0667065D01*
X0404828Y0667845D01*
X0404673Y0668625D01*
X0404231Y0669287D01*
X0403569Y0669729D01*
X0402789Y0669884D01*
D02*
G37*
G36*
X0502340Y0669736D02*
X0501560Y0669581D01*
X0500898Y0669139D01*
X0500456Y0668477D01*
X0500301Y0667697D01*
X0500456Y0666916D01*
X0500898Y0666255D01*
X0501560Y0665813D01*
X0502340Y0665658D01*
X0503121Y0665813D01*
X0503782Y0666255D01*
X0504224Y0666916D01*
X0504380Y0667697D01*
X0504224Y0668477D01*
X0503782Y0669139D01*
X0503121Y0669581D01*
X0502340Y0669736D01*
D02*
G37*
G36*
X0587935Y0670729D02*
X0587137Y0670624D01*
X0586393Y0670316D01*
X0585754Y0669826D01*
X0585264Y0669187D01*
X0584956Y0668443D01*
X0584851Y0667645D01*
X0584956Y0666847D01*
X0585264Y0666103D01*
X0585754Y0665464D01*
X0586393Y0664974D01*
X0587137Y0664666D01*
X0587935Y0664561D01*
X0588733Y0664666D01*
X0589477Y0664974D01*
X0590115Y0665464D01*
X0590605Y0666103D01*
X0590913Y0666847D01*
X0591018Y0667645D01*
X0590913Y0668443D01*
X0590605Y0669187D01*
X0590115Y0669826D01*
X0589477Y0670316D01*
X0588733Y0670624D01*
X0587935Y0670729D01*
D02*
G37*
G36*
X0548643D02*
X0547845Y0670624D01*
X0547101Y0670316D01*
X0546463Y0669826D01*
X0545973Y0669187D01*
X0545665Y0668443D01*
X0545560Y0667645D01*
X0545665Y0666847D01*
X0545973Y0666103D01*
X0546463Y0665464D01*
X0547101Y0664974D01*
X0547845Y0664666D01*
X0548643Y0664561D01*
X0549441Y0664666D01*
X0550185Y0664974D01*
X0550824Y0665464D01*
X0551314Y0666103D01*
X0551622Y0666847D01*
X0551727Y0667645D01*
X0551622Y0668443D01*
X0551314Y0669187D01*
X0550824Y0669826D01*
X0550185Y0670316D01*
X0549441Y0670624D01*
X0548643Y0670729D01*
D02*
G37*
G36*
X0627521Y0665469D02*
X0626740Y0665314D01*
X0626079Y0664872D01*
X0625637Y0664210D01*
X0625481Y0663430D01*
X0625637Y0662650D01*
X0626079Y0661988D01*
X0626740Y0661546D01*
X0627521Y0661391D01*
X0628301Y0661546D01*
X0628963Y0661988D01*
X0629405Y0662650D01*
X0629560Y0663430D01*
X0629405Y0664210D01*
X0628963Y0664872D01*
X0628301Y0665314D01*
X0627521Y0665469D01*
D02*
G37*
G36*
X0802967Y0666487D02*
X0794883D01*
Y0658403D01*
X0802967D01*
Y0666487D01*
D02*
G37*
G36*
X0712389Y0648099D02*
X0711000Y0647916D01*
X0709705Y0647380D01*
X0708594Y0646527D01*
X0707741Y0645415D01*
X0707205Y0644121D01*
X0707022Y0642732D01*
X0707205Y0641342D01*
X0707741Y0640048D01*
X0708594Y0638936D01*
X0709705Y0638083D01*
X0711000Y0637547D01*
X0712389Y0637364D01*
X0713778Y0637547D01*
X0715073Y0638083D01*
X0716184Y0638936D01*
X0717037Y0640048D01*
X0717573Y0641342D01*
X0717756Y0642732D01*
X0717573Y0644121D01*
X0717037Y0645415D01*
X0716184Y0646527D01*
X0715073Y0647380D01*
X0713778Y0647916D01*
X0712389Y0648099D01*
D02*
G37*
G36*
X0842243Y0640217D02*
X0841462Y0640062D01*
X0840801Y0639620D01*
X0840359Y0638958D01*
X0840203Y0638178D01*
X0840359Y0637397D01*
X0840747Y0636816D01*
X0840736Y0636792D01*
X0840478Y0636410D01*
X0840469Y0636401D01*
X0839781Y0636538D01*
X0839001Y0636382D01*
X0838339Y0635940D01*
X0837897Y0635279D01*
X0837742Y0634498D01*
X0837897Y0633718D01*
X0838339Y0633056D01*
X0839001Y0632614D01*
X0839781Y0632459D01*
X0840561Y0632614D01*
X0841223Y0633056D01*
X0841665Y0633718D01*
X0841820Y0634498D01*
X0841665Y0635279D01*
X0841277Y0635860D01*
X0841287Y0635884D01*
X0841545Y0636266D01*
X0841554Y0636275D01*
X0842243Y0636138D01*
X0842296Y0636149D01*
X0842574Y0635734D01*
X0842534Y0635674D01*
X0842379Y0634894D01*
X0842534Y0634113D01*
X0842976Y0633452D01*
X0843638Y0633010D01*
X0844418Y0632855D01*
X0845199Y0633010D01*
X0845860Y0633452D01*
X0846302Y0634113D01*
X0846458Y0634894D01*
X0846302Y0635674D01*
X0845860Y0636336D01*
X0845199Y0636778D01*
X0844418Y0636933D01*
X0844365Y0636922D01*
X0844087Y0637338D01*
X0844127Y0637397D01*
X0844282Y0638178D01*
X0844127Y0638958D01*
X0843684Y0639620D01*
X0843023Y0640062D01*
X0842243Y0640217D01*
D02*
G37*
G36*
X0849889Y0625668D02*
X0849421Y0625575D01*
X0849024Y0625310D01*
X0848759Y0624913D01*
X0848666Y0624445D01*
X0848759Y0623977D01*
X0849024Y0623580D01*
X0849421Y0623315D01*
X0849889Y0623221D01*
X0850357Y0623315D01*
X0850754Y0623580D01*
X0851019Y0623977D01*
X0851112Y0624445D01*
X0851019Y0624913D01*
X0850754Y0625310D01*
X0850357Y0625575D01*
X0849889Y0625668D01*
D02*
G37*
G36*
X0854089Y0625568D02*
X0853621Y0625475D01*
X0853224Y0625210D01*
X0852959Y0624813D01*
X0852866Y0624345D01*
X0852959Y0623877D01*
X0853224Y0623480D01*
X0853621Y0623214D01*
X0854089Y0623121D01*
X0854557Y0623214D01*
X0854954Y0623480D01*
X0855219Y0623877D01*
X0855313Y0624345D01*
X0855219Y0624813D01*
X0854954Y0625210D01*
X0854557Y0625475D01*
X0854089Y0625568D01*
D02*
G37*
G36*
X0867347Y0612795D02*
X0866879Y0612702D01*
X0866482Y0612436D01*
X0866216Y0612039D01*
X0866123Y0611571D01*
X0866216Y0611103D01*
X0866482Y0610706D01*
X0866879Y0610441D01*
X0867347Y0610348D01*
X0867815Y0610441D01*
X0868019Y0610577D01*
X0868581Y0610637D01*
X0868977Y0610372D01*
X0869446Y0610279D01*
X0869914Y0610372D01*
X0870311Y0610637D01*
X0870576Y0611034D01*
X0870669Y0611503D01*
X0870576Y0611971D01*
X0870311Y0612368D01*
X0869914Y0612633D01*
X0869446Y0612726D01*
X0868977Y0612633D01*
X0868773Y0612496D01*
X0868212Y0612436D01*
X0867815Y0612702D01*
X0867347Y0612795D01*
D02*
G37*
G36*
X0863789Y0609428D02*
X0860689D01*
X0860383Y0609301D01*
X0860256Y0608995D01*
Y0606095D01*
X0860383Y0605789D01*
X0860689Y0605662D01*
X0863789D01*
X0864095Y0605789D01*
X0864222Y0606095D01*
Y0608995D01*
X0864095Y0609301D01*
X0863789Y0609428D01*
D02*
G37*
G36*
X0871139Y0607028D02*
X0868239D01*
X0867933Y0606901D01*
X0867806Y0606595D01*
Y0603495D01*
X0867933Y0603189D01*
X0868239Y0603062D01*
X0871139D01*
X0871445Y0603189D01*
X0871572Y0603495D01*
Y0606595D01*
X0871445Y0606901D01*
X0871139Y0607028D01*
D02*
G37*
G36*
X0816231Y0608350D02*
X0808147D01*
Y0600267D01*
X0816231D01*
Y0608350D01*
D02*
G37*
G36*
X0862589Y0600868D02*
X0862121Y0600775D01*
X0861724Y0600510D01*
X0861459Y0600113D01*
X0861366Y0599645D01*
X0861459Y0599177D01*
X0861724Y0598780D01*
X0862006Y0598591D01*
X0861944Y0598500D01*
X0861851Y0598032D01*
X0861944Y0597563D01*
X0862210Y0597166D01*
X0862607Y0596901D01*
X0863075Y0596808D01*
X0863543Y0596901D01*
X0863940Y0597166D01*
X0864205Y0597563D01*
X0864298Y0598032D01*
X0864205Y0598500D01*
X0863940Y0598897D01*
X0863658Y0599085D01*
X0863719Y0599177D01*
X0863813Y0599645D01*
X0863719Y0600113D01*
X0863454Y0600510D01*
X0863057Y0600775D01*
X0862589Y0600868D01*
D02*
G37*
G36*
X0860405Y0596585D02*
X0859937Y0596492D01*
X0859540Y0596227D01*
X0859275Y0595830D01*
X0859182Y0595362D01*
X0859275Y0594894D01*
X0859540Y0594497D01*
X0859937Y0594232D01*
X0860405Y0594138D01*
X0860873Y0594232D01*
X0861270Y0594497D01*
X0861536Y0594894D01*
X0861629Y0595362D01*
X0861536Y0595830D01*
X0861270Y0596227D01*
X0860873Y0596492D01*
X0860405Y0596585D01*
D02*
G37*
G36*
X0870039Y0588913D02*
X0869055D01*
X0868360Y0588821D01*
X0867712Y0588553D01*
X0867155Y0588126D01*
X0866728Y0587570D01*
X0866460Y0586922D01*
X0866368Y0586226D01*
X0866460Y0585531D01*
X0866728Y0584883D01*
X0867155Y0584326D01*
X0867712Y0583899D01*
X0868360Y0583631D01*
X0869055Y0583539D01*
X0870039D01*
X0870735Y0583631D01*
X0871383Y0583899D01*
X0871939Y0584326D01*
X0872366Y0584883D01*
X0872635Y0585531D01*
X0872726Y0586226D01*
X0872635Y0586922D01*
X0872366Y0587570D01*
X0871939Y0588126D01*
X0871383Y0588553D01*
X0870735Y0588821D01*
X0870039Y0588913D01*
D02*
G37*
G36*
X0864685Y0579317D02*
X0863780D01*
X0863752Y0579305D01*
X0863722Y0579313D01*
X0863663Y0579305D01*
X0863604Y0579297D01*
X0863602Y0579296D01*
X0863600Y0579296D01*
X0863545Y0579288D01*
X0863522Y0579275D01*
X0863495Y0579278D01*
X0863436Y0579262D01*
X0863432Y0579260D01*
X0863428Y0579260D01*
X0863373Y0579245D01*
X0863361Y0579235D01*
X0863346Y0579236D01*
X0863291Y0579216D01*
X0863281Y0579207D01*
X0863266Y0579207D01*
X0863211Y0579183D01*
X0863207Y0579178D01*
X0863200Y0579178D01*
X0863149Y0579155D01*
X0863140Y0579144D01*
X0863125Y0579143D01*
X0863074Y0579115D01*
X0863066Y0579105D01*
X0863052Y0579103D01*
X0862950Y0579040D01*
X0862926Y0579006D01*
X0862886Y0578991D01*
X0862858Y0578966D01*
X0862827Y0578942D01*
X0862816Y0578924D01*
X0862795Y0578917D01*
X0862752Y0578877D01*
X0862743Y0578857D01*
X0862723Y0578848D01*
X0862683Y0578805D01*
X0862676Y0578784D01*
X0862658Y0578773D01*
X0862634Y0578742D01*
X0862609Y0578714D01*
X0862595Y0578675D01*
X0862560Y0578650D01*
X0862533Y0578605D01*
X0862506Y0578565D01*
X0862500Y0578537D01*
X0862479Y0578518D01*
X0862451Y0578463D01*
X0862451Y0578456D01*
X0862445Y0578451D01*
X0862422Y0578400D01*
X0862422Y0578393D01*
X0862417Y0578389D01*
X0862393Y0578334D01*
X0862393Y0578319D01*
X0862384Y0578309D01*
X0862364Y0578254D01*
X0862365Y0578239D01*
X0862355Y0578227D01*
X0862340Y0578172D01*
X0862340Y0578168D01*
X0862337Y0578164D01*
X0862322Y0578105D01*
X0862325Y0578078D01*
X0862311Y0578055D01*
X0862304Y0578000D01*
X0862304Y0577998D01*
X0862303Y0577996D01*
X0862295Y0577937D01*
X0862287Y0577878D01*
X0862295Y0577848D01*
X0862284Y0577821D01*
Y0577702D01*
X0862295Y0577674D01*
X0862287Y0577645D01*
X0862295Y0577586D01*
X0862303Y0577527D01*
X0862304Y0577525D01*
X0862304Y0577523D01*
X0862311Y0577468D01*
X0862325Y0577445D01*
X0862322Y0577418D01*
X0862337Y0577359D01*
X0862340Y0577355D01*
X0862340Y0577351D01*
X0862355Y0577296D01*
X0862365Y0577284D01*
X0862364Y0577269D01*
X0862384Y0577214D01*
X0862393Y0577204D01*
X0862393Y0577189D01*
X0862417Y0577134D01*
X0862422Y0577130D01*
X0862422Y0577123D01*
X0862445Y0577072D01*
X0862451Y0577067D01*
X0862451Y0577060D01*
X0862479Y0577005D01*
X0862500Y0576986D01*
X0862506Y0576958D01*
X0862533Y0576918D01*
X0862560Y0576873D01*
X0862595Y0576848D01*
X0862609Y0576809D01*
X0862634Y0576781D01*
X0862658Y0576750D01*
X0862676Y0576739D01*
X0862683Y0576718D01*
X0862723Y0576675D01*
X0862743Y0576666D01*
X0862752Y0576646D01*
X0862795Y0576607D01*
X0862816Y0576599D01*
X0862827Y0576580D01*
X0862858Y0576557D01*
X0862886Y0576532D01*
X0862926Y0576517D01*
X0862950Y0576483D01*
X0863052Y0576420D01*
X0863066Y0576418D01*
X0863074Y0576408D01*
X0863125Y0576380D01*
X0863140Y0576379D01*
X0863149Y0576368D01*
X0863200Y0576345D01*
X0863207Y0576344D01*
X0863211Y0576340D01*
X0863266Y0576316D01*
X0863281Y0576316D01*
X0863291Y0576306D01*
X0863346Y0576287D01*
X0863361Y0576288D01*
X0863373Y0576278D01*
X0863428Y0576263D01*
X0863432Y0576263D01*
X0863436Y0576261D01*
X0863495Y0576245D01*
X0863522Y0576248D01*
X0863545Y0576234D01*
X0863600Y0576227D01*
X0863602Y0576227D01*
X0863604Y0576226D01*
X0863663Y0576218D01*
X0863722Y0576210D01*
X0863752Y0576218D01*
X0863780Y0576206D01*
X0864685D01*
X0864713Y0576218D01*
X0864742Y0576210D01*
X0864801Y0576218D01*
X0864860Y0576226D01*
X0864862Y0576227D01*
X0864864Y0576227D01*
X0864919Y0576234D01*
X0864943Y0576248D01*
X0864970Y0576245D01*
X0865029Y0576261D01*
X0865032Y0576263D01*
X0865036Y0576263D01*
X0865091Y0576278D01*
X0865103Y0576288D01*
X0865118Y0576287D01*
X0865173Y0576306D01*
X0865184Y0576316D01*
X0865198Y0576316D01*
X0865253Y0576340D01*
X0865258Y0576344D01*
X0865264Y0576345D01*
X0865315Y0576368D01*
X0865325Y0576379D01*
X0865339Y0576380D01*
X0865390Y0576408D01*
X0865399Y0576418D01*
X0865412Y0576420D01*
X0865514Y0576483D01*
X0865539Y0576517D01*
X0865579Y0576532D01*
X0865607Y0576557D01*
X0865638Y0576580D01*
X0865649Y0576599D01*
X0865669Y0576607D01*
X0865712Y0576646D01*
X0865722Y0576666D01*
X0865742Y0576675D01*
X0865781Y0576718D01*
X0865788Y0576739D01*
X0865807Y0576750D01*
X0865830Y0576781D01*
X0865856Y0576809D01*
X0865870Y0576848D01*
X0865904Y0576873D01*
X0865932Y0576918D01*
X0865959Y0576958D01*
X0865964Y0576986D01*
X0865986Y0577005D01*
X0866013Y0577060D01*
X0866014Y0577067D01*
X0866019Y0577072D01*
X0866043Y0577123D01*
X0866043Y0577130D01*
X0866047Y0577134D01*
X0866071Y0577189D01*
X0866071Y0577204D01*
X0866081Y0577214D01*
X0866101Y0577269D01*
X0866100Y0577284D01*
X0866109Y0577296D01*
X0866125Y0577351D01*
X0866125Y0577355D01*
X0866127Y0577359D01*
X0866143Y0577418D01*
X0866139Y0577445D01*
X0866153Y0577468D01*
X0866161Y0577523D01*
X0866160Y0577525D01*
X0866161Y0577527D01*
X0866169Y0577586D01*
X0866177Y0577645D01*
X0866169Y0577674D01*
X0866181Y0577702D01*
Y0577821D01*
X0866169Y0577848D01*
X0866177Y0577878D01*
X0866169Y0577937D01*
X0866161Y0577996D01*
X0866160Y0577998D01*
X0866161Y0578000D01*
X0866153Y0578055D01*
X0866139Y0578078D01*
X0866143Y0578105D01*
X0866127Y0578164D01*
X0866125Y0578168D01*
X0866125Y0578172D01*
X0866109Y0578227D01*
X0866100Y0578239D01*
X0866101Y0578254D01*
X0866081Y0578309D01*
X0866071Y0578319D01*
X0866071Y0578334D01*
X0866047Y0578389D01*
X0866043Y0578393D01*
X0866043Y0578400D01*
X0866019Y0578451D01*
X0866014Y0578456D01*
X0866013Y0578463D01*
X0865986Y0578518D01*
X0865964Y0578537D01*
X0865959Y0578565D01*
X0865932Y0578605D01*
X0865904Y0578650D01*
X0865870Y0578675D01*
X0865856Y0578714D01*
X0865830Y0578742D01*
X0865807Y0578773D01*
X0865788Y0578784D01*
X0865781Y0578805D01*
X0865742Y0578848D01*
X0865722Y0578857D01*
X0865712Y0578877D01*
X0865669Y0578917D01*
X0865649Y0578924D01*
X0865638Y0578942D01*
X0865607Y0578966D01*
X0865579Y0578991D01*
X0865539Y0579006D01*
X0865514Y0579040D01*
X0865412Y0579103D01*
X0865399Y0579105D01*
X0865390Y0579115D01*
X0865339Y0579143D01*
X0865325Y0579144D01*
X0865315Y0579155D01*
X0865264Y0579178D01*
X0865258Y0579178D01*
X0865253Y0579183D01*
X0865198Y0579207D01*
X0865184Y0579207D01*
X0865173Y0579216D01*
X0865118Y0579236D01*
X0865103Y0579235D01*
X0865091Y0579245D01*
X0865036Y0579260D01*
X0865032Y0579260D01*
X0865029Y0579262D01*
X0864970Y0579278D01*
X0864943Y0579275D01*
X0864919Y0579288D01*
X0864864Y0579296D01*
X0864862Y0579296D01*
X0864860Y0579297D01*
X0864801Y0579305D01*
X0864742Y0579313D01*
X0864713Y0579305D01*
X0864685Y0579317D01*
D02*
G37*
G36*
X0799943Y0589641D02*
X0799162Y0589486D01*
X0798501Y0589044D01*
X0798059Y0588382D01*
X0797903Y0587602D01*
X0798059Y0586821D01*
X0798501Y0586160D01*
X0798730Y0586007D01*
Y0585405D01*
X0798501Y0585252D01*
X0798059Y0584591D01*
X0797903Y0583810D01*
X0798059Y0583030D01*
X0798501Y0582368D01*
X0799162Y0581926D01*
X0799336Y0581892D01*
X0799395Y0581521D01*
X0799379Y0581373D01*
X0798753Y0580955D01*
X0798311Y0580294D01*
X0798156Y0579514D01*
X0798311Y0578733D01*
X0798753Y0578072D01*
X0799415Y0577630D01*
X0800195Y0577474D01*
X0800976Y0577630D01*
X0801637Y0578072D01*
X0802079Y0578733D01*
X0802234Y0579514D01*
X0802079Y0580294D01*
X0801637Y0580955D01*
X0800976Y0581397D01*
X0800801Y0581432D01*
X0800743Y0581802D01*
X0800759Y0581950D01*
X0801385Y0582368D01*
X0801827Y0583030D01*
X0801982Y0583810D01*
X0801827Y0584591D01*
X0801385Y0585252D01*
X0801155Y0585405D01*
Y0586007D01*
X0801385Y0586160D01*
X0801827Y0586821D01*
X0801982Y0587602D01*
X0801827Y0588382D01*
X0801385Y0589044D01*
X0800723Y0589486D01*
X0799943Y0589641D01*
D02*
G37*
G36*
X0875489Y0581028D02*
X0872389D01*
X0872083Y0580901D01*
X0871956Y0580595D01*
Y0577695D01*
X0872083Y0577389D01*
X0872389Y0577262D01*
X0875489D01*
X0875795Y0577389D01*
X0875922Y0577695D01*
Y0580595D01*
X0875795Y0580901D01*
X0875489Y0581028D01*
D02*
G37*
G36*
X0874834Y0572565D02*
X0874483Y0572495D01*
X0874185Y0572296D01*
X0874139Y0572228D01*
X0873139D01*
X0872833Y0572101D01*
X0872706Y0571795D01*
Y0571019D01*
X0872206Y0570849D01*
X0871939Y0571197D01*
X0871383Y0571624D01*
X0870735Y0571892D01*
X0870039Y0571984D01*
X0869055D01*
X0868360Y0571892D01*
X0867712Y0571624D01*
X0867155Y0571197D01*
X0866728Y0570640D01*
X0866460Y0569992D01*
X0866368Y0569297D01*
X0866460Y0568602D01*
X0866728Y0567953D01*
X0867155Y0567397D01*
X0867712Y0566970D01*
X0868360Y0566702D01*
X0869055Y0566610D01*
X0870039D01*
X0870735Y0566702D01*
X0871383Y0566970D01*
X0871939Y0567397D01*
X0872366Y0567953D01*
X0872439Y0568129D01*
X0872833Y0568389D01*
X0873139Y0568262D01*
X0876039D01*
X0876345Y0568389D01*
X0876472Y0568695D01*
Y0571795D01*
X0876345Y0572101D01*
X0876039Y0572228D01*
X0875529D01*
X0875483Y0572296D01*
X0875185Y0572495D01*
X0874834Y0572565D01*
D02*
G37*
G36*
X0812189Y0578858D02*
X0811134Y0578719D01*
X0810151Y0578311D01*
X0809306Y0577664D01*
X0808659Y0576819D01*
X0808251Y0575836D01*
X0808112Y0574781D01*
X0808251Y0573726D01*
X0808659Y0572743D01*
X0809306Y0571899D01*
X0810151Y0571251D01*
X0811134Y0570843D01*
X0812189Y0570704D01*
X0813244Y0570843D01*
X0814227Y0571251D01*
X0815072Y0571899D01*
X0815719Y0572743D01*
X0816127Y0573726D01*
X0816266Y0574781D01*
X0816127Y0575836D01*
X0815719Y0576819D01*
X0815072Y0577664D01*
X0814227Y0578311D01*
X0813244Y0578719D01*
X0812189Y0578858D01*
D02*
G37*
G36*
X0866948Y0535705D02*
X0866480Y0535611D01*
X0866083Y0535346D01*
X0865818Y0534949D01*
X0865725Y0534481D01*
X0865818Y0534013D01*
X0866083Y0533616D01*
X0866480Y0533351D01*
X0866948Y0533257D01*
X0867417Y0533351D01*
X0867814Y0533616D01*
X0868079Y0534013D01*
X0868172Y0534481D01*
X0868079Y0534949D01*
X0867814Y0535346D01*
X0867417Y0535611D01*
X0866948Y0535705D01*
D02*
G37*
G36*
X0872094Y0535677D02*
X0871626Y0535583D01*
X0871229Y0535318D01*
X0870964Y0534921D01*
X0870871Y0534453D01*
X0870964Y0533985D01*
X0871229Y0533588D01*
X0871626Y0533323D01*
X0872094Y0533229D01*
X0872562Y0533323D01*
X0872959Y0533588D01*
X0873225Y0533985D01*
X0873318Y0534453D01*
X0873225Y0534921D01*
X0872959Y0535318D01*
X0872562Y0535583D01*
X0872094Y0535677D01*
D02*
G37*
G36*
X0849436Y0534114D02*
X0848968Y0534021D01*
X0848571Y0533756D01*
X0848306Y0533359D01*
X0848212Y0532891D01*
X0848306Y0532422D01*
X0848571Y0532026D01*
X0848968Y0531760D01*
X0849436Y0531667D01*
X0849904Y0531760D01*
X0850301Y0532026D01*
X0850566Y0532422D01*
X0850659Y0532891D01*
X0850566Y0533359D01*
X0850301Y0533756D01*
X0849904Y0534021D01*
X0849436Y0534114D01*
D02*
G37*
G36*
X0855698Y0528273D02*
X0855230Y0528180D01*
X0854833Y0527914D01*
X0854568Y0527518D01*
X0854475Y0527049D01*
X0854568Y0526581D01*
X0854833Y0526184D01*
X0855230Y0525919D01*
X0855698Y0525826D01*
X0856166Y0525919D01*
X0856563Y0526184D01*
X0856828Y0526581D01*
X0856922Y0527049D01*
X0856828Y0527518D01*
X0856563Y0527914D01*
X0856166Y0528180D01*
X0855698Y0528273D01*
D02*
G37*
G36*
X0862737Y0524228D02*
X0862269Y0524135D01*
X0861872Y0523870D01*
X0861607Y0523473D01*
X0861514Y0523004D01*
X0861607Y0522536D01*
X0861872Y0522139D01*
X0861573Y0521755D01*
X0861563Y0521748D01*
X0861298Y0521351D01*
X0861205Y0520883D01*
X0861298Y0520415D01*
X0861480Y0520144D01*
X0861499Y0519697D01*
X0861457Y0519488D01*
X0861240Y0519162D01*
X0861147Y0518694D01*
X0861240Y0518226D01*
X0861388Y0518005D01*
X0861449Y0517520D01*
X0861184Y0517123D01*
X0861091Y0516654D01*
X0861184Y0516186D01*
X0861449Y0515789D01*
X0861374Y0515238D01*
X0861367Y0515234D01*
X0861102Y0514837D01*
X0861009Y0514368D01*
X0861102Y0513900D01*
X0861367Y0513503D01*
X0861764Y0513238D01*
X0862233Y0513145D01*
X0862701Y0513238D01*
X0863098Y0513503D01*
X0863363Y0513900D01*
X0863456Y0514368D01*
X0863363Y0514837D01*
X0863098Y0515234D01*
X0863173Y0515785D01*
X0863179Y0515789D01*
X0863445Y0516186D01*
X0863538Y0516654D01*
X0863445Y0517123D01*
X0863297Y0517344D01*
X0863235Y0517829D01*
X0863501Y0518226D01*
X0863594Y0518694D01*
X0863501Y0519162D01*
X0863319Y0519434D01*
X0863300Y0519880D01*
X0863342Y0520090D01*
X0863559Y0520415D01*
X0863652Y0520883D01*
X0863559Y0521351D01*
X0863294Y0521748D01*
X0863593Y0522133D01*
X0863602Y0522139D01*
X0863867Y0522536D01*
X0863961Y0523004D01*
X0863867Y0523473D01*
X0863602Y0523870D01*
X0863205Y0524135D01*
X0862737Y0524228D01*
D02*
G37*
G36*
X0877965Y0510836D02*
X0877497Y0510743D01*
X0877171Y0510525D01*
X0876665Y0510422D01*
X0876638D01*
X0876241Y0510687D01*
X0875773Y0510780D01*
X0875305Y0510687D01*
X0874908Y0510422D01*
X0874642Y0510025D01*
X0874549Y0509557D01*
X0874642Y0509089D01*
X0874908Y0508692D01*
X0875305Y0508427D01*
X0875773Y0508333D01*
X0876241Y0508427D01*
X0876567Y0508645D01*
X0877073Y0508747D01*
X0877100D01*
X0877497Y0508482D01*
X0877965Y0508389D01*
X0878434Y0508482D01*
X0878830Y0508747D01*
X0879096Y0509144D01*
X0879189Y0509613D01*
X0879096Y0510081D01*
X0878830Y0510478D01*
X0878434Y0510743D01*
X0877965Y0510836D01*
D02*
G37*
G36*
X0867319Y0509293D02*
X0866851Y0509199D01*
X0866454Y0508934D01*
X0866189Y0508537D01*
X0866095Y0508069D01*
X0866189Y0507601D01*
X0866454Y0507204D01*
X0866851Y0506939D01*
X0867319Y0506846D01*
X0867787Y0506939D01*
X0868184Y0507204D01*
X0868449Y0507601D01*
X0868542Y0508069D01*
X0868449Y0508537D01*
X0868184Y0508934D01*
X0867787Y0509199D01*
X0867319Y0509293D01*
D02*
G37*
G36*
X0848713Y0499589D02*
X0848244Y0499496D01*
X0847847Y0499231D01*
X0847582Y0498834D01*
X0847489Y0498366D01*
X0847507Y0498278D01*
X0847107Y0497778D01*
X0845989D01*
X0845683Y0497651D01*
X0845556Y0497345D01*
Y0495218D01*
X0845552Y0495209D01*
X0845333Y0494973D01*
X0845146Y0494829D01*
X0844897Y0494878D01*
X0844429Y0494785D01*
X0844032Y0494520D01*
X0843767Y0494123D01*
X0843674Y0493654D01*
X0843767Y0493186D01*
X0844032Y0492789D01*
X0844429Y0492524D01*
X0844897Y0492431D01*
X0845366Y0492524D01*
X0845763Y0492789D01*
X0846028Y0493186D01*
X0846121Y0493654D01*
X0846028Y0494123D01*
X0845960Y0494224D01*
X0846235Y0494712D01*
X0847589D01*
X0847895Y0494839D01*
X0848022Y0495145D01*
Y0496809D01*
X0848038Y0496840D01*
X0848522Y0497180D01*
X0848713Y0497143D01*
X0849181Y0497236D01*
X0849578Y0497501D01*
X0849843Y0497898D01*
X0849936Y0498366D01*
X0849843Y0498834D01*
X0849578Y0499231D01*
X0849181Y0499496D01*
X0848713Y0499589D01*
D02*
G37*
G36*
X0858778Y0492862D02*
X0858309Y0492769D01*
X0857913Y0492504D01*
X0857647Y0492107D01*
X0857554Y0491639D01*
X0857647Y0491170D01*
X0857913Y0490773D01*
X0858309Y0490508D01*
X0858778Y0490415D01*
X0859246Y0490508D01*
X0859643Y0490773D01*
X0859908Y0491170D01*
X0860001Y0491639D01*
X0859908Y0492107D01*
X0859643Y0492504D01*
X0859246Y0492769D01*
X0858778Y0492862D01*
D02*
G37*
G36*
X0866222Y0461427D02*
X0865910Y0461365D01*
X0865646Y0461188D01*
X0865469Y0460924D01*
X0865407Y0460612D01*
X0865469Y0460299D01*
X0865646Y0460035D01*
X0865910Y0459858D01*
X0866222Y0459796D01*
X0866534Y0459858D01*
X0866799Y0460035D01*
X0866976Y0460299D01*
X0867038Y0460612D01*
X0866976Y0460924D01*
X0866799Y0461188D01*
X0866534Y0461365D01*
X0866222Y0461427D01*
D02*
G37*
G36*
X0862557Y0459593D02*
X0862245Y0459531D01*
X0861981Y0459354D01*
X0861804Y0459089D01*
X0861742Y0458777D01*
X0861804Y0458465D01*
X0861981Y0458200D01*
X0862245Y0458024D01*
X0862557Y0457961D01*
X0862870Y0458024D01*
X0863134Y0458200D01*
X0863311Y0458465D01*
X0863373Y0458777D01*
X0863311Y0459089D01*
X0863134Y0459354D01*
X0862870Y0459531D01*
X0862557Y0459593D01*
D02*
G37*
G36*
X0866457Y0459193D02*
X0866145Y0459131D01*
X0865881Y0458954D01*
X0865704Y0458689D01*
X0865642Y0458377D01*
X0865704Y0458065D01*
X0865881Y0457800D01*
X0866145Y0457623D01*
X0866457Y0457561D01*
X0866770Y0457623D01*
X0867034Y0457800D01*
X0867211Y0458065D01*
X0867273Y0458377D01*
X0867211Y0458689D01*
X0867034Y0458954D01*
X0866770Y0459131D01*
X0866457Y0459193D01*
D02*
G37*
G36*
X0569092Y0324022D02*
X0568296D01*
X0567561Y0323717D01*
X0566999Y0323155D01*
X0566694Y0322420D01*
Y0321624D01*
X0566999Y0320889D01*
X0567561Y0320326D01*
X0568296Y0320022D01*
X0569092D01*
X0569827Y0320326D01*
X0570390Y0320889D01*
X0570694Y0321624D01*
Y0322420D01*
X0570390Y0323155D01*
X0569827Y0323717D01*
X0569092Y0324022D01*
D02*
G37*
G36*
X0493253Y0323932D02*
X0492458D01*
X0491722Y0323628D01*
X0491160Y0323065D01*
X0490855Y0322330D01*
Y0321534D01*
X0491160Y0320799D01*
X0491722Y0320237D01*
X0492458Y0319932D01*
X0493253D01*
X0493988Y0320237D01*
X0494551Y0320799D01*
X0494855Y0321534D01*
Y0322330D01*
X0494551Y0323065D01*
X0493988Y0323628D01*
X0493253Y0323932D01*
D02*
G37*
G36*
X0593656Y0323313D02*
X0592860D01*
X0592125Y0323009D01*
X0591563Y0322446D01*
X0591258Y0321711D01*
Y0320915D01*
X0591563Y0320180D01*
X0592125Y0319618D01*
X0592860Y0319313D01*
X0593656D01*
X0594391Y0319618D01*
X0594953Y0320180D01*
X0595258Y0320915D01*
Y0321711D01*
X0594953Y0322446D01*
X0594391Y0323009D01*
X0593656Y0323313D01*
D02*
G37*
G36*
X0582753Y0322257D02*
X0581958D01*
X0581222Y0321953D01*
X0580660Y0321390D01*
X0580355Y0320655D01*
Y0319859D01*
X0580660Y0319124D01*
X0581222Y0318562D01*
X0581958Y0318257D01*
X0582753D01*
X0583488Y0318562D01*
X0584051Y0319124D01*
X0584355Y0319859D01*
Y0320655D01*
X0584051Y0321390D01*
X0583488Y0321953D01*
X0582753Y0322257D01*
D02*
G37*
G36*
X0671587Y0319245D02*
X0670791D01*
X0670056Y0318940D01*
X0669493Y0318378D01*
X0669189Y0317643D01*
Y0316847D01*
X0669493Y0316112D01*
X0670056Y0315549D01*
X0670791Y0315245D01*
X0671587D01*
X0672322Y0315549D01*
X0672885Y0316112D01*
X0673189Y0316847D01*
Y0317643D01*
X0672885Y0318378D01*
X0672322Y0318940D01*
X0671587Y0319245D01*
D02*
G37*
G36*
X0604473Y0318211D02*
X0603678D01*
X0602943Y0317907D01*
X0602380Y0317344D01*
X0602076Y0316609D01*
Y0315813D01*
X0602380Y0315078D01*
X0602943Y0314516D01*
X0603678Y0314211D01*
X0604473D01*
X0605208Y0314516D01*
X0605771Y0315078D01*
X0606076Y0315813D01*
Y0316609D01*
X0605771Y0317344D01*
X0605208Y0317907D01*
X0604473Y0318211D01*
D02*
G37*
G36*
X0612693Y0317928D02*
X0611897D01*
X0611162Y0317623D01*
X0610600Y0317061D01*
X0610295Y0316326D01*
Y0315530D01*
X0610600Y0314795D01*
X0611162Y0314232D01*
X0611897Y0313928D01*
X0612693D01*
X0613428Y0314232D01*
X0613991Y0314795D01*
X0614295Y0315530D01*
Y0316326D01*
X0613991Y0317061D01*
X0613428Y0317623D01*
X0612693Y0317928D01*
D02*
G37*
G36*
X0631116Y0317125D02*
X0630320D01*
X0629585Y0316821D01*
X0629023Y0316258D01*
X0628718Y0315523D01*
Y0314727D01*
X0629023Y0313992D01*
X0629585Y0313429D01*
X0630320Y0313125D01*
X0631116D01*
X0631851Y0313429D01*
X0632413Y0313992D01*
X0632718Y0314727D01*
Y0315523D01*
X0632413Y0316258D01*
X0631851Y0316821D01*
X0631116Y0317125D01*
D02*
G37*
G36*
X0568989Y0314878D02*
X0566789D01*
X0566483Y0314751D01*
X0566356Y0314445D01*
Y0312845D01*
X0566483Y0312539D01*
X0566789Y0312412D01*
X0568989D01*
X0569295Y0312539D01*
X0569422Y0312845D01*
Y0314445D01*
X0569295Y0314751D01*
X0568989Y0314878D01*
D02*
G37*
G36*
X0499784Y0314072D02*
X0498989D01*
X0498254Y0313768D01*
X0497691Y0313205D01*
X0497387Y0312470D01*
Y0311674D01*
X0497691Y0310939D01*
X0498254Y0310377D01*
X0498989Y0310072D01*
X0499784D01*
X0500520Y0310377D01*
X0501082Y0310939D01*
X0501387Y0311674D01*
Y0312470D01*
X0501082Y0313205D01*
X0500520Y0313768D01*
X0499784Y0314072D01*
D02*
G37*
G36*
X0561187Y0314445D02*
X0560391D01*
X0559656Y0314140D01*
X0559094Y0313578D01*
X0558789Y0312843D01*
Y0312047D01*
X0559094Y0311312D01*
X0559656Y0310749D01*
X0560082Y0310573D01*
X0560199Y0309983D01*
X0559894Y0309678D01*
X0559589Y0308943D01*
Y0308147D01*
X0559894Y0307412D01*
X0560456Y0306849D01*
X0561191Y0306545D01*
X0561987D01*
X0562722Y0306849D01*
X0563284Y0307412D01*
X0563589Y0308147D01*
Y0308943D01*
X0563284Y0309678D01*
X0562722Y0310240D01*
X0562296Y0310417D01*
X0562179Y0311006D01*
X0562485Y0311312D01*
X0562789Y0312047D01*
Y0312843D01*
X0562485Y0313578D01*
X0561922Y0314140D01*
X0561187Y0314445D01*
D02*
G37*
G36*
X0578984Y0308907D02*
X0578506D01*
X0578065Y0308724D01*
X0577728Y0308387D01*
X0577545Y0307946D01*
Y0307469D01*
X0577728Y0307028D01*
X0578065Y0306690D01*
X0578506Y0306507D01*
X0578984D01*
X0579425Y0306690D01*
X0579762Y0307028D01*
X0579945Y0307469D01*
Y0307946D01*
X0579762Y0308387D01*
X0579425Y0308724D01*
X0578984Y0308907D01*
D02*
G37*
G36*
X0575389Y0343978D02*
X0573189D01*
X0572883Y0343851D01*
X0572756Y0343545D01*
Y0341945D01*
X0572883Y0341639D01*
X0573189Y0341512D01*
X0575389D01*
X0575695Y0341639D01*
X0575822Y0341945D01*
Y0343545D01*
X0575695Y0343851D01*
X0575389Y0343978D01*
D02*
G37*
G36*
X0574271Y0340352D02*
X0573490Y0340197D01*
X0572829Y0339755D01*
X0572387Y0339093D01*
X0572231Y0338313D01*
X0572387Y0337533D01*
X0572829Y0336871D01*
X0573490Y0336429D01*
X0574271Y0336274D01*
X0575051Y0336429D01*
X0575712Y0336871D01*
X0576155Y0337533D01*
X0576310Y0338313D01*
X0576155Y0339093D01*
X0575712Y0339755D01*
X0575051Y0340197D01*
X0574271Y0340352D01*
D02*
G37*
G36*
X0568883Y0336626D02*
X0568103Y0336471D01*
X0567441Y0336029D01*
X0566999Y0335367D01*
X0566844Y0334587D01*
X0566999Y0333807D01*
X0567441Y0333145D01*
X0568103Y0332703D01*
X0568883Y0332548D01*
X0569664Y0332703D01*
X0570325Y0333145D01*
X0570767Y0333807D01*
X0570922Y0334587D01*
X0570767Y0335367D01*
X0570325Y0336029D01*
X0569664Y0336471D01*
X0568883Y0336626D01*
D02*
G37*
G36*
X0662332Y0335933D02*
X0661552Y0335778D01*
X0660890Y0335336D01*
X0660448Y0334674D01*
X0660293Y0333894D01*
X0660448Y0333114D01*
X0660890Y0332452D01*
X0661552Y0332010D01*
X0662332Y0331855D01*
X0663112Y0332010D01*
X0663774Y0332452D01*
X0664216Y0333114D01*
X0664371Y0333894D01*
X0664216Y0334674D01*
X0663774Y0335336D01*
X0663112Y0335778D01*
X0662332Y0335933D01*
D02*
G37*
G36*
X0685757Y0335791D02*
X0684976Y0335636D01*
X0684315Y0335194D01*
X0683873Y0334532D01*
X0683717Y0333752D01*
X0683873Y0332971D01*
X0684315Y0332310D01*
X0684976Y0331868D01*
X0685757Y0331713D01*
X0686537Y0331868D01*
X0687199Y0332310D01*
X0687641Y0332971D01*
X0687796Y0333752D01*
X0687641Y0334532D01*
X0687199Y0335194D01*
X0686537Y0335636D01*
X0685757Y0335791D01*
D02*
G37*
G36*
X0696584Y0335580D02*
X0695804Y0335424D01*
X0695142Y0334982D01*
X0694700Y0334321D01*
X0694545Y0333540D01*
X0694700Y0332760D01*
X0695142Y0332099D01*
X0695804Y0331656D01*
X0696584Y0331501D01*
X0697365Y0331656D01*
X0698026Y0332099D01*
X0698468Y0332760D01*
X0698623Y0333540D01*
X0698468Y0334321D01*
X0698026Y0334982D01*
X0697365Y0335424D01*
X0696584Y0335580D01*
D02*
G37*
G36*
X0577522Y0333784D02*
X0577054Y0333691D01*
X0576657Y0333425D01*
X0576392Y0333028D01*
X0576298Y0332560D01*
X0576392Y0332092D01*
X0576657Y0331695D01*
X0577054Y0331430D01*
X0577522Y0331337D01*
X0577990Y0331430D01*
X0578387Y0331695D01*
X0578652Y0332092D01*
X0578745Y0332560D01*
X0578652Y0333028D01*
X0578387Y0333425D01*
X0577990Y0333691D01*
X0577522Y0333784D01*
D02*
G37*
%LPD*%
G54D13*
X0559400Y0039400D02*
Y0059683D01*
X0440500Y0040050D02*
X0700200D01*
Y0101050D01*
X0286500Y0040050D02*
Y0101050D01*
X0040000Y0040050D02*
Y0101050D01*
X0040050Y0040050D02*
X0197600D01*
X0040050D02*
Y0101050D01*
Y0101050D02*
X0700200D01*
X0040000Y0040050D02*
X0440500D01*
X0040000Y0060383D02*
X0700000D01*
G54D16*
X0882767Y0439759D02*
X0888353Y0445345D01*
X0889016D01*
X0890390Y0443971D01*
X0479901Y0435466D02*
X0489822Y0425545D01*
X0480289Y0445945D02*
X0485485Y0440749D01*
X0040000Y0080717D02*
X0700200D01*
G54D18*
X0046350Y0071049D02*
Y0067551D01*
X0048683D01*
X0049849D02*
Y0069883D01*
X0051015Y0071049D01*
X0052181Y0069883D01*
Y0067551D01*
Y0069300D01*
X0049849D01*
X0053348Y0071049D02*
Y0070466D01*
X0054514Y0069300D01*
X0055680Y0070466D01*
Y0071049D01*
X0054514Y0069300D02*
Y0067551D01*
X0059179Y0071049D02*
X0056847D01*
Y0067551D01*
X0059179D01*
X0056847Y0069300D02*
X0058013D01*
X0060346Y0067551D02*
Y0071049D01*
X0062095D01*
X0062678Y0070466D01*
Y0069300D01*
X0062095Y0068717D01*
X0060346D01*
X0061512D02*
X0062678Y0067551D01*
X0067343D02*
Y0071049D01*
X0069676Y0067551D01*
Y0071049D01*
X0070842Y0067551D02*
Y0069883D01*
X0072008Y0071049D01*
X0073175Y0069883D01*
Y0067551D01*
Y0069300D01*
X0070842D01*
X0074341Y0067551D02*
Y0071049D01*
X0075507Y0069883D01*
X0076674Y0071049D01*
Y0067551D01*
X0080172Y0071049D02*
X0077840D01*
Y0067551D01*
X0080172D01*
X0077840Y0069300D02*
X0079006D01*
X0084838Y0068717D02*
X0087170D01*
X0084838Y0069883D02*
X0087170D01*
X0046350Y0046966D02*
Y0050465D01*
X0048099D01*
X0048683Y0049882D01*
Y0048716D01*
X0048099Y0048133D01*
X0046350D01*
X0049849Y0050465D02*
Y0046966D01*
X0052181D01*
X0055097Y0050465D02*
X0053931D01*
X0053348Y0049882D01*
Y0047550D01*
X0053931Y0046966D01*
X0055097D01*
X0055680Y0047550D01*
Y0049882D01*
X0055097Y0050465D01*
X0056847D02*
X0059179D01*
X0058013D01*
Y0046966D01*
X0063844D02*
Y0050465D01*
X0066177Y0046966D01*
Y0050465D01*
X0067343Y0046966D02*
Y0049299D01*
X0068510Y0050465D01*
X0069676Y0049299D01*
Y0046966D01*
Y0048716D01*
X0067343D01*
X0070842Y0046966D02*
Y0050465D01*
X0072008Y0049299D01*
X0073175Y0050465D01*
Y0046966D01*
X0076674Y0050465D02*
X0074341D01*
Y0046966D01*
X0076674D01*
X0074341Y0048716D02*
X0075507D01*
X0081339Y0048133D02*
X0083671D01*
X0081339Y0049299D02*
X0083671D01*
X0046350Y0087833D02*
Y0090166D01*
X0047516Y0091332D01*
X0048683Y0090166D01*
Y0087833D01*
Y0089583D01*
X0046350D01*
X0049849Y0091332D02*
Y0087833D01*
X0052181D01*
X0053348Y0091332D02*
Y0087833D01*
X0055680D01*
X0060346D02*
Y0090166D01*
X0061512Y0091332D01*
X0062678Y0090166D01*
Y0087833D01*
Y0089583D01*
X0060346D01*
X0063844Y0087833D02*
Y0091332D01*
X0065594D01*
X0066177Y0090749D01*
Y0089583D01*
X0065594Y0089000D01*
X0063844D01*
X0065011D02*
X0066177Y0087833D01*
X0067343Y0091332D02*
X0069676D01*
X0068510D01*
Y0087833D01*
X0070842Y0091332D02*
Y0087833D01*
X0072008Y0089000D01*
X0073175Y0087833D01*
Y0091332D01*
X0076090D02*
X0074924D01*
X0074341Y0090749D01*
Y0088416D01*
X0074924Y0087833D01*
X0076090D01*
X0076674Y0088416D01*
Y0090749D01*
X0076090Y0091332D01*
X0077840Y0087833D02*
Y0091332D01*
X0079589D01*
X0080172Y0090749D01*
Y0089583D01*
X0079589Y0089000D01*
X0077840D01*
X0079006D02*
X0080172Y0087833D01*
X0081339Y0091332D02*
Y0087833D01*
Y0089000D01*
X0083671Y0091332D01*
X0081922Y0089583D01*
X0083671Y0087833D01*
X0088336Y0091332D02*
Y0089000D01*
X0089503Y0087833D01*
X0090669Y0089000D01*
Y0091332D01*
X0091835D02*
X0093002D01*
X0092418D01*
Y0087833D01*
X0091835D01*
X0093002D01*
X0097084Y0091332D02*
X0094751D01*
Y0087833D01*
X0097084D01*
X0094751Y0089583D02*
X0095917D01*
X0098250Y0091332D02*
Y0087833D01*
X0099416Y0089000D01*
X0100583Y0087833D01*
Y0091332D01*
X0104081D02*
X0101749D01*
Y0087833D01*
X0104081D01*
X0101749Y0089583D02*
X0102915D01*
X0105248Y0091332D02*
Y0087833D01*
X0106997D01*
X0107580Y0088416D01*
Y0090749D01*
X0106997Y0091332D01*
X0105248D01*
X0114578D02*
X0112245D01*
Y0089583D01*
X0113412D01*
X0112245D01*
Y0087833D01*
X0115744D02*
Y0091332D01*
X0117494D01*
X0118077Y0090749D01*
Y0089583D01*
X0117494Y0089000D01*
X0115744D01*
X0116911D02*
X0118077Y0087833D01*
X0120993Y0091332D02*
X0119826D01*
X0119243Y0090749D01*
Y0088416D01*
X0119826Y0087833D01*
X0120993D01*
X0121576Y0088416D01*
Y0090749D01*
X0120993Y0091332D01*
X0122742Y0087833D02*
Y0091332D01*
X0123908Y0090166D01*
X0125075Y0091332D01*
Y0087833D01*
X0129740Y0091332D02*
X0132072D01*
X0130906D01*
Y0087833D01*
X0134988Y0091332D02*
X0133822D01*
X0133239Y0090749D01*
Y0088416D01*
X0133822Y0087833D01*
X0134988D01*
X0135571Y0088416D01*
Y0090749D01*
X0134988Y0091332D01*
X0136738Y0087833D02*
Y0091332D01*
X0138487D01*
X0139070Y0090749D01*
Y0089583D01*
X0138487Y0089000D01*
X0136738D01*
X0146068Y0090749D02*
X0145485Y0091332D01*
X0144318D01*
X0143735Y0090749D01*
Y0090166D01*
X0144318Y0089583D01*
X0145485D01*
X0146068Y0089000D01*
Y0088416D01*
X0145485Y0087833D01*
X0144318D01*
X0143735Y0088416D01*
X0147234Y0091332D02*
X0148400D01*
X0147817D01*
Y0087833D01*
X0147234D01*
X0148400D01*
X0150150Y0091332D02*
Y0087833D01*
X0151899D01*
X0152482Y0088416D01*
Y0090749D01*
X0151899Y0091332D01*
X0150150D01*
X0155981D02*
X0153649D01*
Y0087833D01*
X0155981D01*
X0153649Y0089583D02*
X0154815D01*
G54D25*
X0881625Y0462466D02*
Y0463795D01*
X0869438Y0450391D02*
X0869549D01*
X0831001Y0434301D02*
X0853347D01*
X0869438Y0450391D01*
X0869549D02*
X0881625Y0462466D01*
X0881767Y0440173D02*
X0885177Y0443583D01*
X0883553Y0438759D02*
X0884486Y0439691D01*
X0881767Y0439344D02*
Y0440173D01*
X0884072Y0445020D02*
X0885177Y0443915D01*
X0885686Y0439691D02*
X0889287Y0436091D01*
Y0384699D02*
Y0436091D01*
X0881532Y0376945D02*
X0889287Y0384699D01*
X0881767Y0439344D02*
X0882352Y0438759D01*
X0884486Y0439691D02*
X0885686D01*
X0875089Y0376945D02*
X0881532D01*
X0874389Y0445591D02*
X0885777Y0434203D01*
X0888287D01*
X0885177Y0443583D02*
Y0443915D01*
X0882352Y0438759D02*
X0883553D01*
X0874389Y0445591D02*
Y0453291D01*
X0884072Y0454715D02*
X0885959Y0456603D01*
X0884072Y0445020D02*
Y0454715D01*
X0485485Y0440749D02*
X0812589D01*
X0868509Y0481745D02*
X0884189D01*
X0854189D02*
X0868509D01*
X0812589Y0440749D02*
X0813193D01*
X0768745Y0425545D02*
X0822245D01*
X0489822D02*
X0768745D01*
X0813193Y0440749D02*
X0854189Y0481745D01*
X0822245Y0425545D02*
X0831001Y0434301D01*
X0884189Y0481745D02*
X0889089Y0476845D01*
X0871989Y0373845D02*
X0875089Y0376945D01*
X0871989Y0360045D02*
X0879689Y0352345D01*
X0871989Y0360045D02*
Y0373845D01*
X0885959Y0456603D02*
Y0466238D01*
X0884677Y0467520D02*
X0885959Y0466238D01*
X0881691Y0467520D02*
X0884677D01*
X0876114Y0464045D02*
X0877380Y0465310D01*
X0881524D01*
X0889089Y0470495D02*
Y0476845D01*
X0881194Y0468720D02*
X0887314D01*
X0889089Y0470495D01*
X0880491Y0468017D02*
X0881194Y0468720D01*
X0880491Y0467023D02*
Y0468017D01*
Y0467023D02*
X0881204Y0466310D01*
X0882040D01*
X0881524Y0465310D02*
X0883001Y0463833D01*
Y0461903D02*
Y0463833D01*
X0874293Y0464045D02*
X0876114D01*
X0874261Y0464077D02*
X0874293Y0464045D01*
X0874389Y0453291D02*
X0883001Y0461903D01*
G54D252*
X0877189Y0352545D02*
D03*
G54D254*
X0565289Y0743345D02*
D03*
X0563089Y0569145D02*
D03*
G54D255*
X0228689Y0606602D02*
D03*
X0243332Y0554687D02*
D03*
X0228889Y0662945D02*
D03*
G54D262*
X0555943Y0508194D02*
D03*
X0793599Y0788045D02*
D03*
X0548643Y0679145D02*
D03*
X0548443Y0805245D02*
D03*
X0548343Y0816345D02*
D03*
X0553143Y0646594D02*
D03*
Y0634594D02*
D03*
X0555943Y0496695D02*
D03*
X0876189Y0761755D02*
D03*
G54D264*
X0363878Y0579760D02*
D03*
X0363789Y0752445D02*
D03*
X0439889Y0732445D02*
D03*
X0439978Y0559760D02*
D03*
G54D271*
X0682389Y0399445D02*
D03*
X0579925Y0402745D02*
D03*
X0724261Y0401845D02*
D03*
G54D272*
X0649289Y0928745D02*
D03*
X0705889Y0867309D02*
D03*
X0631889Y0869209D02*
D03*
X0868889Y0848245D02*
D03*
X0801225Y0734845D02*
D03*
X0778889Y0854645D02*
D03*
X0557389Y0873073D02*
D03*
G54D273*
X0775609Y0544845D02*
D03*
G54D280*
X0626789Y0454417D02*
D03*
X0701189Y0456245D02*
D03*
X0815989Y0386745D02*
D03*
G54D281*
X0777489Y0447735D02*
D03*
G54D283*
X0866132Y0574153D02*
D03*
X0867632Y0556276D02*
D03*
X0842789Y0485745D02*
D03*
X0840808Y0532392D02*
D03*
X0786963Y0349855D02*
D03*
X0855223Y0452388D02*
D03*
X0792380Y0333090D02*
D03*
X0802768Y0348569D02*
D03*
X0806289Y0346945D02*
D03*
X0867289Y0500245D02*
D03*
X0859147Y0539697D02*
D03*
Y0534181D02*
D03*
X0879989Y0584345D02*
D03*
X0867889Y0564145D02*
D03*
X0869331Y0502857D02*
D03*
X0862534Y0552116D02*
D03*
X0792789Y0326845D02*
D03*
X0793389Y0341545D02*
D03*
X0789715Y0337609D02*
D03*
X0847688Y0422204D02*
D03*
Y0427783D02*
D03*
X0824561Y0333883D02*
D03*
X0819189Y0325245D02*
D03*
X0788989Y0318445D02*
D03*
X0865389Y0406945D02*
D03*
X0856852Y0454315D02*
D03*
X0844819Y0518121D02*
D03*
X0843489Y0539045D02*
D03*
G54D284*
X0755717Y0910546D02*
D03*
X0729358Y0918698D02*
D03*
X0779284Y0496573D02*
D03*
X0695220Y0594694D02*
D03*
X0707389Y0559812D02*
D03*
X0707179Y0569701D02*
D03*
X0706758Y0578537D02*
D03*
X0685428Y0612980D02*
D03*
X0688546Y0619309D02*
D03*
X0788565Y0693316D02*
D03*
X0788776Y0710083D02*
D03*
X0799789Y0481145D02*
D03*
X0800383Y0453041D02*
D03*
X0532848Y0383554D02*
D03*
X0662988Y0811025D02*
D03*
X0682892Y0827392D02*
D03*
Y0822358D02*
D03*
X0724017Y0833659D02*
D03*
X0742072Y0827596D02*
D03*
X0508611Y0399780D02*
D03*
X0534344Y0388793D02*
D03*
X0479336Y0839019D02*
D03*
X0464489Y0857975D02*
D03*
X0797789Y0881505D02*
D03*
Y0885945D02*
D03*
X0732619Y0906781D02*
D03*
X0731689Y0952745D02*
D03*
X0295889Y0766345D02*
D03*
X0713592Y0351489D02*
D03*
X0768805Y0358994D02*
D03*
X0671275Y0610805D02*
D03*
X0285289Y0562187D02*
D03*
X0516882Y0447836D02*
D03*
X0551912D02*
D03*
X0521702Y0433394D02*
D03*
X0557072Y0433191D02*
D03*
X0757989Y0788145D02*
D03*
X0781489Y0802545D02*
D03*
X0719644Y0750474D02*
D03*
X0761444Y0750174D02*
D03*
X0719644Y0787274D02*
D03*
X0285489Y0579445D02*
D03*
X0511952Y0403974D02*
D03*
X0497672Y0306768D02*
D03*
X0480929Y0325538D02*
D03*
X0618389Y0663345D02*
D03*
X0326299Y0402618D02*
D03*
X0326131Y0369993D02*
D03*
X0228989Y0441945D02*
D03*
X0229382Y0446015D02*
D03*
X0352742Y0680792D02*
D03*
X0302489Y0696745D02*
D03*
X0289119Y0696151D02*
D03*
X0391702Y0668229D02*
D03*
X0296189Y0759745D02*
D03*
X0517589Y0502179D02*
D03*
X0897013Y0672362D02*
D03*
X0685832Y0310347D02*
D03*
X0324318Y0511329D02*
D03*
X0327389Y0528345D02*
D03*
X0320311Y0535096D02*
D03*
X0414664Y0434748D02*
D03*
X0415204Y0421993D02*
D03*
X0544721Y0344932D02*
D03*
X0542315Y0348569D02*
D03*
X0611823Y0342476D02*
D03*
X0625663Y0343090D02*
D03*
X0671789Y0342445D02*
D03*
X0631175Y0343093D02*
D03*
X0693051Y0895670D02*
D03*
X0462388Y0441252D02*
D03*
X0425185Y0403853D02*
D03*
X0379905Y0405100D02*
D03*
X0376701Y0376386D02*
D03*
X0307842Y0353501D02*
D03*
Y0385888D02*
D03*
X0348501Y0378086D02*
D03*
X0348601Y0387686D02*
D03*
X0337105Y0467259D02*
D03*
X0386489Y0434545D02*
D03*
X0288594Y0430948D02*
D03*
X0292794D02*
D03*
X0300105Y0471858D02*
D03*
X0328694Y0442248D02*
D03*
X0715258Y0913873D02*
D03*
X0683799Y0895368D02*
D03*
X0714208Y0918373D02*
D03*
X0320189Y0676745D02*
D03*
X0527004Y0638956D02*
D03*
X0539304Y0645456D02*
D03*
X0322306Y0542045D02*
D03*
X0264189Y0740345D02*
D03*
X0267689Y0725045D02*
D03*
X0291989Y0723545D02*
D03*
X0289789Y0683145D02*
D03*
X0292089Y0686545D02*
D03*
X0287089Y0687045D02*
D03*
X0326989Y0690045D02*
D03*
X0329289Y0697945D02*
D03*
X0300189Y0515245D02*
D03*
X0284315Y0523565D02*
D03*
X0287015Y0519665D02*
D03*
X0256889Y0581445D02*
D03*
X0262889Y0732845D02*
D03*
G54D285*
X0882767Y0439759D02*
D03*
X0881625Y0463795D02*
D03*
X0882040Y0466310D02*
D03*
X0886989Y0469897D02*
D03*
X0881691Y0467520D02*
D03*
X0874261Y0464077D02*
D03*
X0871961Y0460435D02*
D03*
X0890390Y0443971D02*
D03*
X0875486Y0469937D02*
D03*
X0888287Y0434203D02*
D03*
X0868032Y0460517D02*
D03*
X0884336Y0392783D02*
D03*
G54D287*
X0880329Y0518733D02*
D03*
X0875998D02*
D03*
X0871668D02*
D03*
X0880329Y0523064D02*
D03*
X0875998D02*
D03*
X0871668D02*
D03*
X0880329Y0527394D02*
D03*
X0875998D02*
D03*
X0871668D02*
D03*
X0308016Y0396048D02*
D03*
Y0391323D02*
D03*
X0311559D02*
D03*
Y0396048D02*
D03*
X0309788Y0393686D02*
D03*
X0368701Y0388206D02*
D03*
X0366339Y0389978D02*
D03*
X0371063D02*
D03*
Y0386434D02*
D03*
X0366339D02*
D03*
X0309788Y0361298D02*
D03*
X0311559Y0363660D02*
D03*
Y0358936D02*
D03*
X0308016D02*
D03*
Y0363660D02*
D03*
G54D288*
X0480289Y0445945D02*
D03*
X0211589Y0774045D02*
D03*
X0211889Y0782545D02*
D03*
X0479901Y0435466D02*
D03*
M02*
