G04*
G04 #@! TF.GenerationSoftware,Altium Limited,Altium Designer,24.3.1 (35)*
G04*
G04 Layer_Color=32896*
%FSAX25Y25*%
%MOIN*%
G70*
G04*
G04 #@! TF.SameCoordinates,8ECB5597-4BEE-4FB2-8F1C-C82D3C8D71A6*
G04*
G04*
G04 #@! TF.FilePolarity,Positive*
G04*
G01*
G75*
%ADD10C,0.00787*%
%ADD12C,0.00700*%
%ADD13C,0.01000*%
%ADD15C,0.00300*%
%ADD16C,0.00800*%
%ADD17C,0.00500*%
%ADD18C,0.00600*%
%ADD19C,0.00200*%
%ADD25C,0.00400*%
%ADD31R,0.00787X0.03248*%
%ADD32R,0.03248X0.00787*%
%ADD317R,0.12400X0.02000*%
G54D10*
X0691109Y0616280D02*
Y0619429D01*
Y0616280D02*
X0693077D01*
X0691109Y0624941D02*
Y0628090D01*
X0693077D01*
X0284401Y0705656D02*
Y0712234D01*
X0273377Y0705656D02*
Y0712234D01*
X0268724Y0522809D02*
Y0529388D01*
X0279747Y0522809D02*
Y0529388D01*
X0732483Y0816289D02*
Y0818258D01*
Y0816289D02*
X0735633D01*
X0744295D02*
Y0818258D01*
X0741145Y0816289D02*
X0744295D01*
G54D12*
X0299739Y0516271D02*
Y0540371D01*
X0288039Y0516271D02*
Y0540371D01*
X0676819Y0790038D02*
Y0801385D01*
X0699960Y0790038D02*
Y0801385D01*
X0676819D02*
X0699960D01*
X0676819Y0772305D02*
X0699959D01*
X0676819D02*
Y0783652D01*
X0699959Y0772305D02*
Y0783652D01*
X0760725Y0644096D02*
X0760725Y0647639D01*
X0760725Y0644096D02*
X0770253D01*
X0770253Y0647639D02*
X0770253Y0644096D01*
X0770253Y0659450D02*
X0770253Y0662994D01*
X0760725D02*
X0770253D01*
X0760725D02*
X0760725Y0659450D01*
X0685589Y0632545D02*
X0688989D01*
Y0628545D02*
Y0632545D01*
Y0624545D02*
Y0628545D01*
X0685589Y0624545D02*
X0688989D01*
X0674189D02*
X0677589D01*
X0674189D02*
Y0628545D01*
Y0632545D01*
X0677589D01*
X0873491Y0591418D02*
X0876089D01*
X0873491D02*
Y0596865D01*
X0876089D01*
X0882889D02*
X0885487D01*
Y0591418D02*
Y0596865D01*
X0882889Y0591418D02*
X0885487D01*
X0593253Y0703150D02*
X0593253Y0706694D01*
X0583725D02*
X0593253D01*
X0583725D02*
X0583725Y0703150D01*
X0583725Y0687796D02*
X0583725Y0691339D01*
X0583725Y0687796D02*
X0593253D01*
X0593253Y0691339D02*
X0593253Y0687796D01*
X0591653Y0795750D02*
X0591653Y0799294D01*
X0582125D02*
X0591653D01*
X0582125D02*
X0582125Y0795750D01*
X0582125Y0780396D02*
X0582125Y0783939D01*
X0582125Y0780396D02*
X0591653D01*
X0591653Y0783939D02*
X0591653Y0780396D01*
X0285662Y0705947D02*
Y0708545D01*
Y0705947D02*
X0291109D01*
Y0708545D01*
Y0715345D02*
Y0717943D01*
X0285662D02*
X0291109D01*
X0285662Y0715345D02*
Y0717943D01*
X0280662Y0523447D02*
Y0526045D01*
Y0523447D02*
X0286109D01*
Y0526045D01*
Y0532845D02*
Y0535443D01*
X0280662D02*
X0286109D01*
X0280662Y0532845D02*
Y0535443D01*
X0275689Y0729818D02*
X0278287D01*
Y0735265D01*
X0275689D02*
X0278287D01*
X0266291D02*
X0268889D01*
X0266291Y0729818D02*
Y0735265D01*
Y0729818D02*
X0268889D01*
X0282303Y0737401D02*
X0284902D01*
X0282303Y0731954D02*
Y0737401D01*
Y0731954D02*
X0284902D01*
X0291702D02*
X0294300D01*
Y0737401D01*
X0291702D02*
X0294300D01*
X0872589Y0676995D02*
X0874889D01*
X0872589Y0672895D02*
Y0676995D01*
Y0672895D02*
X0874889D01*
X0877889Y0676995D02*
X0880189D01*
Y0672895D02*
Y0676995D01*
X0877889Y0672895D02*
X0880189D01*
X0296339Y0699954D02*
Y0724054D01*
X0308039Y0699954D02*
Y0724054D01*
X0274803Y0558243D02*
X0277402D01*
X0274803Y0552797D02*
Y0558243D01*
Y0552797D02*
X0277402D01*
X0284202D02*
X0286800D01*
Y0558243D01*
X0284202D02*
X0286800D01*
X0259391Y0571218D02*
X0261989D01*
X0259391D02*
Y0576665D01*
X0261989D01*
X0268789D02*
X0271387D01*
Y0571218D02*
Y0576665D01*
X0268789Y0571218D02*
X0271387D01*
X0596676Y0622317D02*
X0596676Y0625861D01*
X0587148D02*
X0596676D01*
X0587148D02*
X0587148Y0622317D01*
X0587148Y0606963D02*
X0587148Y0610506D01*
X0587148Y0606963D02*
X0596676D01*
X0596676Y0610506D02*
X0596676Y0606963D01*
X0867070Y0695534D02*
X0869370D01*
X0867070Y0691434D02*
Y0695534D01*
Y0691434D02*
X0869370D01*
X0872370Y0695534D02*
X0874670D01*
Y0691434D02*
Y0695534D01*
X0872370Y0691434D02*
X0874670D01*
X0895889Y0437595D02*
X0898189D01*
Y0441695D01*
X0895889D02*
X0898189D01*
X0890589Y0437595D02*
X0892889D01*
X0890589D02*
Y0441695D01*
X0892889D01*
X0593253Y0533139D02*
X0593253Y0529596D01*
X0583725D02*
X0593253D01*
X0583725D02*
X0583725Y0533139D01*
X0583725Y0548494D02*
X0583725Y0544950D01*
X0583725Y0548494D02*
X0593253D01*
X0593253Y0544950D02*
X0593253Y0548494D01*
X0708218Y0510538D02*
Y0521885D01*
X0731359Y0510538D02*
Y0521885D01*
X0708218D02*
X0731359D01*
X0708218Y0492805D02*
X0731359D01*
X0708218D02*
Y0504152D01*
X0731359Y0492805D02*
Y0504152D01*
X0753725Y0849094D02*
X0753725Y0845550D01*
X0753725Y0849094D02*
X0763253D01*
X0763253Y0845550D02*
X0763253Y0849094D01*
X0763253Y0833739D02*
X0763253Y0830196D01*
X0753725D02*
X0763253D01*
X0753725D02*
X0753725Y0833739D01*
X0871762Y0649597D02*
Y0652195D01*
Y0649597D02*
X0877209D01*
Y0652195D01*
Y0658995D02*
Y0661593D01*
X0871762D02*
X0877209D01*
X0871762Y0658995D02*
Y0661593D01*
X0863462Y0655645D02*
Y0658243D01*
X0868909D01*
Y0655645D02*
Y0658243D01*
Y0646247D02*
Y0648845D01*
X0863462Y0646247D02*
X0868909D01*
X0863462D02*
Y0648845D01*
X0887339Y0443645D02*
Y0445945D01*
X0883239D02*
X0887339D01*
X0883239Y0443645D02*
Y0445945D01*
X0887339Y0438345D02*
Y0440645D01*
X0883239Y0438345D02*
X0887339D01*
X0883239D02*
Y0440645D01*
X0883539Y0350645D02*
Y0352945D01*
Y0350645D02*
X0887639D01*
Y0352945D01*
X0883539Y0355945D02*
Y0358245D01*
X0887639D01*
Y0355945D02*
Y0358245D01*
X0872991Y0603918D02*
X0875589D01*
X0872991D02*
Y0609365D01*
X0875589D01*
X0882389D02*
X0884987D01*
Y0603918D02*
Y0609365D01*
X0882389Y0603918D02*
X0884987D01*
G54D13*
X0848784Y0615913D02*
Y0641413D01*
X0852284Y0644913D01*
X0899284D01*
Y0611413D02*
Y0644913D01*
X0848784Y0611413D02*
X0899284D01*
X0848784D02*
Y0615913D01*
X0559400Y0039400D02*
Y0059683D01*
X0440500Y0040050D02*
X0700200D01*
Y0101050D01*
X0286500Y0040050D02*
Y0101050D01*
X0040000Y0040050D02*
Y0101050D01*
X0040050Y0040050D02*
X0197600D01*
X0040050D02*
Y0101050D01*
Y0101050D02*
X0700200D01*
X0040000Y0040050D02*
X0440500D01*
X0040000Y0060383D02*
X0700000D01*
G54D15*
X0899289Y0444307D02*
Y0448566D01*
X0890289Y0444307D02*
X0899289D01*
X0890289D02*
Y0448566D01*
X0899289D01*
X0696689Y0592445D02*
Y0603445D01*
Y0592445D02*
X0701689D01*
Y0603445D01*
X0696689D02*
X0701689D01*
X0713189Y0826245D02*
Y0829245D01*
X0706189Y0826245D02*
X0713189D01*
X0706189D02*
Y0829245D01*
X0713189D01*
X0398552Y0661436D02*
Y0664493D01*
X0394837Y0661436D02*
X0398552D01*
X0394837D02*
Y0665130D01*
X0397889D01*
X0398539Y0664480D01*
X0398552Y0664493D01*
X0864630Y0520197D02*
X0869048D01*
Y0509790D02*
Y0520197D01*
X0864630Y0509790D02*
X0869048D01*
X0864630D02*
Y0520197D01*
X0863842Y0676239D02*
X0871545D01*
X0863842Y0673495D02*
Y0676239D01*
Y0673495D02*
X0871545D01*
Y0676239D01*
X0816330Y0328793D02*
X0820748D01*
X0816330D02*
Y0339199D01*
X0820748D01*
Y0328793D02*
Y0339199D01*
X0851942Y0519639D02*
X0859645D01*
X0851942Y0516895D02*
Y0519639D01*
Y0516895D02*
X0859645D01*
Y0519639D01*
X0851942Y0523039D02*
X0859645D01*
X0851942Y0520295D02*
Y0523039D01*
Y0520295D02*
X0859645D01*
Y0523039D01*
X0852142Y0512239D02*
X0859845D01*
X0852142Y0509495D02*
Y0512239D01*
Y0509495D02*
X0859845D01*
Y0512239D01*
X0873237Y0598186D02*
Y0602604D01*
X0883644D01*
Y0598186D02*
Y0602604D01*
X0873237Y0598186D02*
X0883644D01*
X0857745Y0684495D02*
Y0687239D01*
X0850042Y0684495D02*
X0857745D01*
X0850042D02*
Y0687239D01*
X0857745D01*
X0877341Y0484986D02*
Y0489404D01*
X0866934Y0484986D02*
X0877341D01*
X0866934D02*
Y0489404D01*
X0877341D01*
X0624640Y0658924D02*
Y0661981D01*
X0620924Y0658924D02*
X0624640D01*
X0620924D02*
Y0662617D01*
X0623977D01*
X0624627Y0661968D01*
X0624640Y0661981D01*
X0857541Y0596286D02*
Y0600704D01*
X0847134Y0596286D02*
X0857541D01*
X0847134D02*
Y0600704D01*
X0857541D01*
X0857641Y0590686D02*
Y0595104D01*
X0847234Y0590686D02*
X0857641D01*
X0847234D02*
Y0595104D01*
X0857641D01*
X0843289Y0494745D02*
Y0497745D01*
X0850289D01*
Y0494745D02*
Y0497745D01*
X0843289Y0494745D02*
X0850289D01*
X0574289Y0305145D02*
X0581289D01*
X0574289Y0302145D02*
Y0305145D01*
Y0302145D02*
X0581289D01*
Y0305145D01*
X0566389Y0310145D02*
Y0317145D01*
Y0310145D02*
X0569389D01*
Y0317145D01*
X0566389D02*
X0569389D01*
X0275139Y0720989D02*
X0277883D01*
X0275139D02*
Y0728692D01*
X0277883D01*
Y0720989D02*
Y0728692D01*
X0262433Y0566351D02*
Y0569095D01*
X0270136D01*
Y0566351D02*
Y0569095D01*
X0262433Y0566351D02*
X0270136D01*
X0769989Y0796545D02*
Y0801545D01*
X0780989D01*
Y0796545D02*
Y0801545D01*
X0769989Y0796545D02*
X0780989D01*
X0859745Y0513195D02*
Y0515939D01*
X0852042Y0513195D02*
X0859745D01*
X0852042D02*
Y0515939D01*
X0859745D01*
X0663989Y0626345D02*
Y0629345D01*
X0656989Y0626345D02*
X0663989D01*
X0656989D02*
Y0629345D01*
X0663989D01*
X0728189Y0829245D02*
X0731189D01*
Y0822245D02*
Y0829245D01*
X0728189Y0822245D02*
X0731189D01*
X0728189D02*
Y0829245D01*
X0400335Y0663570D02*
Y0664236D01*
X0400002Y0664570D01*
X0399669Y0664236D01*
Y0663570D01*
Y0664070D01*
X0400335D01*
X0399336Y0663570D02*
X0399002D01*
X0399169D01*
Y0664570D01*
X0399336Y0664403D01*
X0400346Y0662765D02*
Y0661766D01*
X0399846D01*
X0399679Y0661932D01*
Y0662099D01*
X0399846Y0662265D01*
X0400346D01*
X0399846D01*
X0399679Y0662432D01*
Y0662599D01*
X0399846Y0662765D01*
X0400346D01*
X0399346Y0661766D02*
X0399013D01*
X0399179D01*
Y0662765D01*
X0399346Y0662599D01*
X0626423Y0661057D02*
Y0661724D01*
X0626089Y0662057D01*
X0625756Y0661724D01*
Y0661057D01*
Y0661557D01*
X0626423D01*
X0625423Y0661057D02*
X0625090D01*
X0625256D01*
Y0662057D01*
X0625423Y0661890D01*
X0626433Y0660253D02*
Y0659253D01*
X0625933D01*
X0625767Y0659420D01*
Y0659586D01*
X0625933Y0659753D01*
X0626433D01*
X0625933D01*
X0625767Y0659920D01*
Y0660086D01*
X0625933Y0660253D01*
X0626433D01*
X0625433Y0659253D02*
X0625100D01*
X0625267D01*
Y0660253D01*
X0625433Y0660086D01*
G54D16*
X0735589Y0615445D02*
X0738089D01*
Y0631945D01*
X0722589D02*
X0738089D01*
X0722589Y0618445D02*
Y0631945D01*
Y0618445D02*
X0725589Y0615445D01*
X0735589D01*
X0682289Y0606045D02*
Y0612045D01*
X0684789Y0614545D01*
X0702289D01*
Y0604545D02*
Y0614545D01*
X0682289Y0604545D02*
X0702289D01*
X0682289D02*
Y0606045D01*
X0777789Y0622445D02*
Y0653945D01*
X0828789D01*
Y0622445D02*
Y0653945D01*
X0777789Y0622445D02*
X0828789D01*
X0714889Y0791445D02*
X0779889D01*
X0784889Y0786445D01*
Y0743945D02*
Y0786445D01*
X0714889Y0743945D02*
X0784889D01*
X0714889D02*
Y0791445D01*
X0412029Y0674169D02*
Y0689169D01*
X0398529D02*
X0412029D01*
X0398529Y0674169D02*
Y0689169D01*
Y0674169D02*
X0412029D01*
X0394589Y0508745D02*
X0409589D01*
X0394589Y0495245D02*
Y0508745D01*
Y0495245D02*
X0409589D01*
Y0508745D01*
X0851289Y0481845D02*
Y0489845D01*
X0849289Y0479845D02*
X0851289Y0481845D01*
X0839789Y0479845D02*
X0849289D01*
X0839789D02*
Y0492345D01*
X0851289D01*
Y0489845D02*
Y0492345D01*
X0570489Y0306045D02*
Y0308545D01*
Y0306045D02*
X0581989D01*
Y0318545D01*
X0572489D02*
X0581989D01*
X0570489Y0316545D02*
X0572489Y0318545D01*
X0570489Y0308545D02*
Y0316545D01*
X0572589Y0331245D02*
X0575089D01*
X0572589Y0319745D02*
Y0331245D01*
Y0319745D02*
X0585089D01*
Y0329245D01*
X0583089Y0331245D02*
X0585089Y0329245D01*
X0575089Y0331245D02*
X0583089D01*
X0860470Y0680084D02*
Y0686084D01*
X0862970Y0688584D01*
X0880470D01*
Y0678584D02*
Y0688584D01*
X0860470Y0678584D02*
X0880470D01*
X0860470D02*
Y0680084D01*
X0854370Y0710284D02*
X0855870D01*
X0854370Y0690284D02*
Y0710284D01*
Y0690284D02*
X0864370D01*
Y0707784D01*
X0861870Y0710284D02*
X0864370Y0707784D01*
X0855870Y0710284D02*
X0861870D01*
X0746589Y0811245D02*
Y0813745D01*
Y0811245D02*
X0763089D01*
Y0826745D01*
X0749589D02*
X0763089D01*
X0746589Y0823745D02*
X0749589Y0826745D01*
X0746589Y0813745D02*
Y0823745D01*
X0772589Y0808645D02*
X0774089D01*
Y0828645D01*
X0764089D02*
X0774089D01*
X0764089Y0811145D02*
Y0828645D01*
Y0811145D02*
X0766589Y0808645D01*
X0772589D01*
X0703089Y0541045D02*
X0750589D01*
Y0611045D01*
X0708089D02*
X0750589D01*
X0703089Y0606045D02*
X0708089Y0611045D01*
X0703089Y0541045D02*
Y0606045D01*
X0791389Y0744445D02*
X0842389D01*
Y0775945D01*
X0791389D02*
X0842389D01*
X0791389Y0744445D02*
Y0775945D01*
X0663946Y0622189D02*
X0671946D01*
X0673946Y0620189D01*
Y0610689D02*
Y0620189D01*
X0661446Y0610689D02*
X0673946D01*
X0661446D02*
Y0622189D01*
X0663946D01*
X0715145Y0822302D02*
Y0830302D01*
X0717145Y0832302D01*
X0726645D01*
Y0819802D02*
Y0832302D01*
X0715145Y0819802D02*
X0726645D01*
X0715145D02*
Y0822302D01*
X0040000Y0080717D02*
X0700200D01*
G54D17*
X0869489Y0577145D02*
X0878406D01*
Y0581145D01*
X0870607D02*
X0878406D01*
X0869489Y0580026D02*
X0870607Y0581145D01*
X0869489Y0577145D02*
Y0580026D01*
X0718889Y0622423D02*
Y0634113D01*
X0716540Y0620074D02*
X0718889Y0622423D01*
X0704813Y0620074D02*
X0716540D01*
X0704813D02*
Y0634113D01*
X0718889D01*
X0674464Y0811313D02*
Y0830996D01*
X0703464D01*
Y0808583D02*
Y0830845D01*
X0677194Y0808583D02*
X0703464D01*
X0674464Y0811313D02*
X0677194Y0808583D01*
X0837889Y0575845D02*
Y0587345D01*
X0839389Y0588845D01*
X0861889D01*
Y0575845D02*
Y0588845D01*
X0837889Y0575845D02*
X0861889D01*
X0754189Y0550945D02*
X0803189D01*
Y0614945D01*
X0760189D02*
X0803189D01*
X0754123Y0608879D02*
X0760189Y0614945D01*
X0754123Y0550945D02*
Y0608879D01*
X0672389Y0809845D02*
Y0812845D01*
X0664389Y0809845D02*
X0672389D01*
X0664389D02*
Y0812845D01*
X0670389D01*
X0672389D01*
X0857789Y0605545D02*
Y0608427D01*
X0858908Y0609545D01*
X0866706D01*
Y0605545D02*
Y0609545D01*
X0857789Y0605545D02*
X0866706D01*
X0868807Y0600595D02*
X0871689D01*
X0867689Y0601713D02*
X0868807Y0600595D01*
X0867689Y0601713D02*
Y0609512D01*
X0871689D01*
Y0600595D02*
Y0609512D01*
X0248889Y0840745D02*
Y0852245D01*
X0247389Y0839245D02*
X0248889Y0840745D01*
X0224889Y0839245D02*
X0247389D01*
X0224889D02*
Y0852245D01*
X0248889D01*
X0846489Y0677145D02*
Y0726145D01*
X0782489D02*
X0846489D01*
X0782489Y0683145D02*
Y0726145D01*
Y0683145D02*
X0788554Y0677079D01*
X0846489D01*
X0876589Y0565795D02*
Y0574712D01*
X0872589D02*
X0876589D01*
X0872589Y0566913D02*
Y0574712D01*
Y0566913D02*
X0873707Y0565795D01*
X0876589D01*
X0879522Y0581245D02*
X0888439D01*
X0879522Y0577245D02*
Y0581245D01*
Y0577245D02*
X0887321D01*
X0888439Y0578363D01*
Y0581245D01*
X0680888Y0609495D02*
Y0607995D01*
X0680139D01*
X0679889Y0608245D01*
Y0609245D01*
X0680139Y0609495D01*
X0680888D01*
X0678389Y0607995D02*
X0679389D01*
X0678389Y0608995D01*
Y0609245D01*
X0678639Y0609495D01*
X0679139D01*
X0679389Y0609245D01*
X0676890Y0609495D02*
X0677389Y0609245D01*
X0677889Y0608745D01*
Y0608245D01*
X0677639Y0607995D01*
X0677140D01*
X0676890Y0608245D01*
Y0608495D01*
X0677140Y0608745D01*
X0677889D01*
X0713055Y0636685D02*
Y0635185D01*
X0712305D01*
X0712056Y0635435D01*
Y0636435D01*
X0712305Y0636685D01*
X0713055D01*
X0710556Y0635185D02*
X0711556D01*
X0710556Y0636185D01*
Y0636435D01*
X0710806Y0636685D01*
X0711306D01*
X0711556Y0636435D01*
X0709057Y0635185D02*
X0710056D01*
X0709057Y0636185D01*
Y0636435D01*
X0709306Y0636685D01*
X0709806D01*
X0710056Y0636435D01*
X0668214Y0814945D02*
X0668463Y0815195D01*
X0668963D01*
X0669213Y0814945D01*
Y0813945D01*
X0668963Y0813695D01*
X0668463D01*
X0668214Y0813945D01*
X0667714Y0813695D02*
X0667214D01*
X0667464D01*
Y0815195D01*
X0667714Y0814945D01*
X0665464Y0813695D02*
X0666464D01*
X0665464Y0814695D01*
Y0814945D01*
X0665714Y0815195D01*
X0666214D01*
X0666464Y0814945D01*
X0664964Y0813945D02*
X0664715Y0813695D01*
X0664215D01*
X0663965Y0813945D01*
Y0814945D01*
X0664215Y0815195D01*
X0664715D01*
X0664964Y0814945D01*
Y0814695D01*
X0664715Y0814445D01*
X0663965D01*
X0690463Y0834295D02*
Y0833045D01*
X0690213Y0832795D01*
X0689714D01*
X0689464Y0833045D01*
Y0834295D01*
X0688964Y0832795D02*
X0688464D01*
X0688714D01*
Y0834295D01*
X0688964Y0834045D01*
X0686715Y0834295D02*
X0687214Y0834045D01*
X0687714Y0833545D01*
Y0833045D01*
X0687464Y0832795D01*
X0686965D01*
X0686715Y0833045D01*
Y0833295D01*
X0686965Y0833545D01*
X0687714D01*
X0688388Y0633495D02*
Y0634995D01*
X0687639D01*
X0687389Y0634745D01*
Y0634245D01*
X0687639Y0633995D01*
X0688388D01*
X0687888D02*
X0687389Y0633495D01*
X0686889Y0634745D02*
X0686639Y0634995D01*
X0686139D01*
X0685889Y0634745D01*
Y0634495D01*
X0686139Y0634245D01*
X0685889Y0633995D01*
Y0633745D01*
X0686139Y0633495D01*
X0686639D01*
X0686889Y0633745D01*
Y0633995D01*
X0686639Y0634245D01*
X0686889Y0634495D01*
Y0634745D01*
X0686639Y0634245D02*
X0686139D01*
X0684390Y0633495D02*
X0685389D01*
X0684390Y0634495D01*
Y0634745D01*
X0684640Y0634995D01*
X0685139D01*
X0685389Y0634745D01*
X0711788Y0829895D02*
Y0831395D01*
X0711039D01*
X0710789Y0831145D01*
Y0830645D01*
X0711039Y0830395D01*
X0711788D01*
X0711288D02*
X0710789Y0829895D01*
X0710289Y0831145D02*
X0710039Y0831395D01*
X0709539D01*
X0709289Y0831145D01*
Y0830895D01*
X0709539Y0830645D01*
X0709789D01*
X0709539D01*
X0709289Y0830395D01*
Y0830145D01*
X0709539Y0829895D01*
X0710039D01*
X0710289Y0830145D01*
X0707790Y0831395D02*
X0708789D01*
Y0830645D01*
X0708289Y0830895D01*
X0708040D01*
X0707790Y0830645D01*
Y0830145D01*
X0708040Y0829895D01*
X0708539D01*
X0708789Y0830145D01*
X0762790Y0643295D02*
Y0641795D01*
X0763539D01*
X0763789Y0642045D01*
Y0642545D01*
X0763539Y0642795D01*
X0762790D01*
X0763289D02*
X0763789Y0643295D01*
X0764289Y0642045D02*
X0764539Y0641795D01*
X0765039D01*
X0765289Y0642045D01*
Y0642295D01*
X0765039Y0642545D01*
X0764789D01*
X0765039D01*
X0765289Y0642795D01*
Y0643045D01*
X0765039Y0643295D01*
X0764539D01*
X0764289Y0643045D01*
X0766538Y0643295D02*
Y0641795D01*
X0765789Y0642545D01*
X0766788D01*
X0731388Y0830395D02*
Y0831895D01*
X0730639D01*
X0730389Y0831645D01*
Y0831145D01*
X0730639Y0830895D01*
X0731388D01*
X0730889D02*
X0730389Y0830395D01*
X0729889Y0831645D02*
X0729639Y0831895D01*
X0729139D01*
X0728889Y0831645D01*
Y0831395D01*
X0729139Y0831145D01*
X0729389D01*
X0729139D01*
X0728889Y0830895D01*
Y0830645D01*
X0729139Y0830395D01*
X0729639D01*
X0729889Y0830645D01*
X0728389Y0831645D02*
X0728139Y0831895D01*
X0727639D01*
X0727390Y0831645D01*
Y0831395D01*
X0727639Y0831145D01*
X0727889D01*
X0727639D01*
X0727390Y0830895D01*
Y0830645D01*
X0727639Y0830395D01*
X0728139D01*
X0728389Y0830645D01*
X0721739Y0833745D02*
Y0834745D01*
X0721989Y0834995D01*
X0722489D01*
X0722739Y0834745D01*
Y0833745D01*
X0722489Y0833495D01*
X0721989D01*
X0722239Y0833995D02*
X0721739Y0833495D01*
X0721989D02*
X0721739Y0833745D01*
X0721239Y0834995D02*
X0720239D01*
Y0834745D01*
X0721239Y0833745D01*
Y0833495D01*
X0697439Y0629445D02*
Y0630445D01*
X0697689Y0630695D01*
X0698189D01*
X0698439Y0630445D01*
Y0629445D01*
X0698189Y0629195D01*
X0697689D01*
X0697939Y0629695D02*
X0697439Y0629195D01*
X0697689D02*
X0697439Y0629445D01*
X0695939Y0630695D02*
X0696439Y0630445D01*
X0696939Y0629945D01*
Y0629445D01*
X0696689Y0629195D01*
X0696189D01*
X0695939Y0629445D01*
Y0629695D01*
X0696189Y0629945D01*
X0696939D01*
X0738939Y0826445D02*
Y0827445D01*
X0739189Y0827695D01*
X0739689D01*
X0739939Y0827445D01*
Y0826445D01*
X0739689Y0826195D01*
X0739189D01*
X0739439Y0826695D02*
X0738939Y0826195D01*
X0739189D02*
X0738939Y0826445D01*
X0737439Y0827695D02*
X0738439D01*
Y0826945D01*
X0737939Y0827195D01*
X0737689D01*
X0737439Y0826945D01*
Y0826445D01*
X0737689Y0826195D01*
X0738189D01*
X0738439Y0826445D01*
X0730689Y0634795D02*
Y0633295D01*
X0729939D01*
X0729689Y0633545D01*
Y0634545D01*
X0729939Y0634795D01*
X0730689D01*
X0729189Y0633295D02*
X0728689D01*
X0728939D01*
Y0634795D01*
X0729189Y0634545D01*
X0662188Y0630195D02*
Y0631695D01*
X0661439D01*
X0661189Y0631445D01*
Y0630945D01*
X0661439Y0630695D01*
X0662188D01*
X0661689D02*
X0661189Y0630195D01*
X0660689Y0631445D02*
X0660439Y0631695D01*
X0659939D01*
X0659689Y0631445D01*
Y0631195D01*
X0659939Y0630945D01*
X0660189D01*
X0659939D01*
X0659689Y0630695D01*
Y0630445D01*
X0659939Y0630195D01*
X0660439D01*
X0660689Y0630445D01*
X0658190Y0630195D02*
X0659189D01*
X0658190Y0631195D01*
Y0631445D01*
X0658439Y0631695D01*
X0658939D01*
X0659189Y0631445D01*
X0675189Y0615595D02*
X0676189D01*
X0676439Y0615345D01*
Y0614845D01*
X0676189Y0614595D01*
X0675189D01*
X0674939Y0614845D01*
Y0615345D01*
X0675439Y0615095D02*
X0674939Y0615595D01*
Y0615345D02*
X0675189Y0615595D01*
X0674939Y0616845D02*
X0676439D01*
X0675689Y0616095D01*
Y0617095D01*
X0739989Y0793245D02*
Y0794245D01*
X0740239Y0794495D01*
X0740738D01*
X0740988Y0794245D01*
Y0793245D01*
X0740738Y0792995D01*
X0740239D01*
X0740488Y0793495D02*
X0739989Y0792995D01*
X0740239D02*
X0739989Y0793245D01*
X0739489Y0794245D02*
X0739239Y0794495D01*
X0738739D01*
X0738489Y0794245D01*
Y0793995D01*
X0738739Y0793745D01*
X0738989D01*
X0738739D01*
X0738489Y0793495D01*
Y0793245D01*
X0738739Y0792995D01*
X0739239D01*
X0739489Y0793245D01*
X0737989Y0794245D02*
X0737739Y0794495D01*
X0737240D01*
X0736990Y0794245D01*
Y0793245D01*
X0737240Y0792995D01*
X0737739D01*
X0737989Y0793245D01*
Y0794245D01*
X0888188Y0359295D02*
Y0360795D01*
X0887439D01*
X0887189Y0360545D01*
Y0360045D01*
X0887439Y0359795D01*
X0888188D01*
X0887689D02*
X0887189Y0359295D01*
X0886689Y0360545D02*
X0886439Y0360795D01*
X0885939D01*
X0885689Y0360545D01*
Y0360295D01*
X0885939Y0360045D01*
X0885689Y0359795D01*
Y0359545D01*
X0885939Y0359295D01*
X0886439D01*
X0886689Y0359545D01*
Y0359795D01*
X0886439Y0360045D01*
X0886689Y0360295D01*
Y0360545D01*
X0886439Y0360045D02*
X0885939D01*
X0884190Y0360795D02*
X0884690Y0360545D01*
X0885189Y0360045D01*
Y0359545D01*
X0884939Y0359295D01*
X0884439D01*
X0884190Y0359545D01*
Y0359795D01*
X0884439Y0360045D01*
X0885189D01*
X0851338Y0513695D02*
Y0515195D01*
X0850588D01*
X0850338Y0514945D01*
Y0514445D01*
X0850588Y0514195D01*
X0851338D01*
X0850838D02*
X0850338Y0513695D01*
X0848839D02*
X0849839D01*
X0848839Y0514695D01*
Y0514945D01*
X0849089Y0515195D01*
X0849589D01*
X0849839Y0514945D01*
X0847339Y0513695D02*
X0848339D01*
X0847339Y0514695D01*
Y0514945D01*
X0847589Y0515195D01*
X0848089D01*
X0848339Y0514945D01*
X0846090Y0513695D02*
Y0515195D01*
X0846840Y0514445D01*
X0845840D01*
X0862338Y0655995D02*
Y0657495D01*
X0861588D01*
X0861338Y0657245D01*
Y0656745D01*
X0861588Y0656495D01*
X0862338D01*
X0861838D02*
X0861338Y0655995D01*
X0859839D02*
X0860839D01*
X0859839Y0656995D01*
Y0657245D01*
X0860089Y0657495D01*
X0860589D01*
X0860839Y0657245D01*
X0858339Y0655995D02*
X0859339D01*
X0858339Y0656995D01*
Y0657245D01*
X0858589Y0657495D01*
X0859089D01*
X0859339Y0657245D01*
X0856840Y0655995D02*
X0857839D01*
X0856840Y0656995D01*
Y0657245D01*
X0857090Y0657495D01*
X0857590D01*
X0857839Y0657245D01*
X0882938Y0655146D02*
Y0656645D01*
X0882188D01*
X0881938Y0656395D01*
Y0655895D01*
X0882188Y0655645D01*
X0882938D01*
X0882438D02*
X0881938Y0655146D01*
X0880439D02*
X0881439D01*
X0880439Y0656145D01*
Y0656395D01*
X0880689Y0656645D01*
X0881189D01*
X0881439Y0656395D01*
X0879939D02*
X0879689Y0656645D01*
X0879189D01*
X0878939Y0656395D01*
Y0655395D01*
X0879189Y0655146D01*
X0879689D01*
X0879939Y0655395D01*
Y0656395D01*
X0878440D02*
X0878190Y0656645D01*
X0877690D01*
X0877440Y0656395D01*
Y0656145D01*
X0877690Y0655895D01*
X0877440Y0655645D01*
Y0655395D01*
X0877690Y0655146D01*
X0878190D01*
X0878440Y0655395D01*
Y0655645D01*
X0878190Y0655895D01*
X0878440Y0656145D01*
Y0656395D01*
X0878190Y0655895D02*
X0877690D01*
X0797613Y0654995D02*
Y0656495D01*
X0796863D01*
X0796614Y0656245D01*
Y0655745D01*
X0796863Y0655495D01*
X0797613D01*
X0797113D02*
X0796614Y0654995D01*
X0795114D02*
X0796114D01*
X0795114Y0655995D01*
Y0656245D01*
X0795364Y0656495D01*
X0795864D01*
X0796114Y0656245D01*
X0794614Y0654995D02*
X0794114D01*
X0794364D01*
Y0656495D01*
X0794614Y0656245D01*
X0793364D02*
X0793115Y0656495D01*
X0792615D01*
X0792365Y0656245D01*
Y0655995D01*
X0792615Y0655745D01*
X0792365Y0655495D01*
Y0655245D01*
X0792615Y0654995D01*
X0793115D01*
X0793364Y0655245D01*
Y0655495D01*
X0793115Y0655745D01*
X0793364Y0655995D01*
Y0656245D01*
X0793115Y0655745D02*
X0792615D01*
X0820513Y0777895D02*
Y0779395D01*
X0819763D01*
X0819514Y0779145D01*
Y0778645D01*
X0819763Y0778395D01*
X0820513D01*
X0820013D02*
X0819514Y0777895D01*
X0818014D02*
X0819014D01*
X0818014Y0778895D01*
Y0779145D01*
X0818264Y0779395D01*
X0818764D01*
X0819014Y0779145D01*
X0817514Y0777895D02*
X0817014D01*
X0817264D01*
Y0779395D01*
X0817514Y0779145D01*
X0815265Y0777895D02*
X0816265D01*
X0815265Y0778895D01*
Y0779145D01*
X0815515Y0779395D01*
X0816015D01*
X0816265Y0779145D01*
X0760363Y0850604D02*
Y0852103D01*
X0759614D01*
X0759364Y0851853D01*
Y0851353D01*
X0759614Y0851104D01*
X0760363D01*
X0759863D02*
X0759364Y0850604D01*
X0757864D02*
X0758864D01*
X0757864Y0851604D01*
Y0851853D01*
X0758114Y0852103D01*
X0758614D01*
X0758864Y0851853D01*
X0757364Y0850604D02*
X0756864D01*
X0757114D01*
Y0852103D01*
X0757364Y0851853D01*
X0756115Y0850604D02*
X0755615D01*
X0755865D01*
Y0852103D01*
X0756115Y0851853D01*
X0727289Y0613545D02*
Y0614545D01*
X0727539Y0614795D01*
X0728038D01*
X0728288Y0614545D01*
Y0613545D01*
X0728038Y0613295D01*
X0727539D01*
X0727788Y0613795D02*
X0727289Y0613295D01*
X0727539D02*
X0727289Y0613545D01*
X0726789Y0614545D02*
X0726539Y0614795D01*
X0726039D01*
X0725789Y0614545D01*
Y0614295D01*
X0726039Y0614045D01*
X0726289D01*
X0726039D01*
X0725789Y0613795D01*
Y0613545D01*
X0726039Y0613295D01*
X0726539D01*
X0726789Y0613545D01*
X0724290Y0613295D02*
X0725289D01*
X0724290Y0614295D01*
Y0614545D01*
X0724540Y0614795D01*
X0725039D01*
X0725289Y0614545D01*
X0771038Y0831195D02*
Y0829695D01*
X0770289D01*
X0770039Y0829945D01*
Y0830945D01*
X0770289Y0831195D01*
X0771038D01*
X0768789Y0829695D02*
Y0831195D01*
X0769539Y0830445D01*
X0768539D01*
X0768039Y0829695D02*
X0767540D01*
X0767790D01*
Y0831195D01*
X0768039Y0830945D01*
X0752288Y0829595D02*
Y0828095D01*
X0751539D01*
X0751289Y0828345D01*
Y0829345D01*
X0751539Y0829595D01*
X0752288D01*
X0750039Y0828095D02*
Y0829595D01*
X0750789Y0828845D01*
X0749789D01*
X0749289Y0829345D02*
X0749039Y0829595D01*
X0748539D01*
X0748290Y0829345D01*
Y0828345D01*
X0748539Y0828095D01*
X0749039D01*
X0749289Y0828345D01*
Y0829345D01*
X0700538Y0590745D02*
X0700788Y0590995D01*
X0701288D01*
X0701538Y0590745D01*
Y0589745D01*
X0701288Y0589495D01*
X0700788D01*
X0700538Y0589745D01*
X0699039Y0589495D02*
X0700039D01*
X0699039Y0590495D01*
Y0590745D01*
X0699289Y0590995D01*
X0699789D01*
X0700039Y0590745D01*
X0697789Y0589495D02*
Y0590995D01*
X0698539Y0590245D01*
X0697539D01*
X0697040Y0589745D02*
X0696790Y0589495D01*
X0696290D01*
X0696040Y0589745D01*
Y0590745D01*
X0696290Y0590995D01*
X0696790D01*
X0697040Y0590745D01*
Y0590495D01*
X0696790Y0590245D01*
X0696040D01*
X0786638Y0799645D02*
X0786888Y0799895D01*
X0787388D01*
X0787638Y0799645D01*
Y0798645D01*
X0787388Y0798395D01*
X0786888D01*
X0786638Y0798645D01*
X0785139Y0798395D02*
X0786139D01*
X0785139Y0799395D01*
Y0799645D01*
X0785389Y0799895D01*
X0785889D01*
X0786139Y0799645D01*
X0783889Y0798395D02*
Y0799895D01*
X0784639Y0799145D01*
X0783639D01*
X0783140Y0799645D02*
X0782890Y0799895D01*
X0782390D01*
X0782140Y0799645D01*
Y0799395D01*
X0782390Y0799145D01*
X0782140Y0798895D01*
Y0798645D01*
X0782390Y0798395D01*
X0782890D01*
X0783140Y0798645D01*
Y0798895D01*
X0782890Y0799145D01*
X0783140Y0799395D01*
Y0799645D01*
X0782890Y0799145D02*
X0782390D01*
X0722538Y0490445D02*
X0722788Y0490695D01*
X0723288D01*
X0723538Y0490445D01*
Y0489445D01*
X0723288Y0489195D01*
X0722788D01*
X0722538Y0489445D01*
X0721039Y0489195D02*
X0722039D01*
X0721039Y0490195D01*
Y0490445D01*
X0721289Y0490695D01*
X0721789D01*
X0722039Y0490445D01*
X0719789Y0489195D02*
Y0490695D01*
X0720539Y0489945D01*
X0719539D01*
X0718040Y0490695D02*
X0718540Y0490445D01*
X0719039Y0489945D01*
Y0489445D01*
X0718790Y0489195D01*
X0718290D01*
X0718040Y0489445D01*
Y0489695D01*
X0718290Y0489945D01*
X0719039D01*
G54D18*
X0890844Y0449581D02*
X0897734D01*
Y0454109D01*
X0890844D02*
X0897734D01*
X0890844Y0449581D02*
Y0454109D01*
X0850789Y0574845D02*
X0851039Y0575095D01*
X0851538D01*
X0851788Y0574845D01*
Y0573845D01*
X0851538Y0573595D01*
X0851039D01*
X0850789Y0573845D01*
X0850289Y0573595D02*
Y0575095D01*
X0849539D01*
X0849289Y0574845D01*
Y0574345D01*
X0849539Y0574095D01*
X0850289D01*
X0849789D02*
X0849289Y0573595D01*
X0848789Y0574845D02*
X0848539Y0575095D01*
X0848040D01*
X0847790Y0574845D01*
Y0574595D01*
X0848040Y0574345D01*
X0847790Y0574095D01*
Y0573845D01*
X0848040Y0573595D01*
X0848539D01*
X0848789Y0573845D01*
Y0574095D01*
X0848539Y0574345D01*
X0848789Y0574595D01*
Y0574845D01*
X0848539Y0574345D02*
X0848040D01*
X0764639Y0547895D02*
Y0549395D01*
X0765389D01*
X0765639Y0549145D01*
Y0548145D01*
X0765389Y0547895D01*
X0764639D01*
X0766139Y0548145D02*
X0766389Y0547895D01*
X0766889D01*
X0767139Y0548145D01*
Y0548395D01*
X0766889Y0548645D01*
X0766639D01*
X0766889D01*
X0767139Y0548895D01*
Y0549145D01*
X0766889Y0549395D01*
X0766389D01*
X0766139Y0549145D01*
X0811539Y0728595D02*
Y0730095D01*
X0812289D01*
X0812539Y0729845D01*
Y0728845D01*
X0812289Y0728595D01*
X0811539D01*
X0814039Y0730095D02*
X0813039D01*
X0814039Y0729095D01*
Y0728845D01*
X0813789Y0728595D01*
X0813289D01*
X0813039Y0728845D01*
X0239589Y0855245D02*
X0239839Y0855495D01*
X0240338D01*
X0240588Y0855245D01*
Y0854245D01*
X0240338Y0853995D01*
X0239839D01*
X0239589Y0854245D01*
X0239089Y0853995D02*
Y0855495D01*
X0238339D01*
X0238089Y0855245D01*
Y0854745D01*
X0238339Y0854495D01*
X0239089D01*
X0238589D02*
X0238089Y0853995D01*
X0236840D02*
Y0855495D01*
X0237589Y0854745D01*
X0236590D01*
X0870689Y0599812D02*
X0870939Y0600062D01*
X0871438D01*
X0871688Y0599812D01*
Y0598812D01*
X0871438Y0598562D01*
X0870939D01*
X0870689Y0598812D01*
X0870189Y0598562D02*
Y0600062D01*
X0869439D01*
X0869189Y0599812D01*
Y0599312D01*
X0869439Y0599062D01*
X0870189D01*
X0869689D02*
X0869189Y0598562D01*
X0868689Y0599812D02*
X0868439Y0600062D01*
X0867939D01*
X0867690Y0599812D01*
Y0599562D01*
X0867939Y0599312D01*
X0868190D01*
X0867939D01*
X0867690Y0599062D01*
Y0598812D01*
X0867939Y0598562D01*
X0868439D01*
X0868689Y0598812D01*
X0855939Y0608145D02*
X0856189Y0608395D01*
X0856688D01*
X0856938Y0608145D01*
Y0607145D01*
X0856688Y0606895D01*
X0856189D01*
X0855939Y0607145D01*
X0855439Y0606895D02*
Y0608395D01*
X0854689D01*
X0854439Y0608145D01*
Y0607645D01*
X0854689Y0607395D01*
X0855439D01*
X0854939D02*
X0854439Y0606895D01*
X0852940D02*
X0853939D01*
X0852940Y0607895D01*
Y0608145D01*
X0853189Y0608395D01*
X0853689D01*
X0853939Y0608145D01*
X0891788Y0594511D02*
X0892122Y0594845D01*
X0892788D01*
X0893121Y0594511D01*
Y0593178D01*
X0892788Y0592845D01*
X0892122D01*
X0891788Y0593178D01*
X0889789Y0592845D02*
X0891122D01*
X0889789Y0594178D01*
Y0594511D01*
X0890122Y0594845D01*
X0890789D01*
X0891122Y0594511D01*
X0887790Y0592845D02*
X0889122D01*
X0887790Y0594178D01*
Y0594511D01*
X0888123Y0594845D01*
X0888789D01*
X0889122Y0594511D01*
X0887123Y0592845D02*
X0886457D01*
X0886790D01*
Y0594845D01*
X0887123Y0594511D01*
X0891555Y0607011D02*
X0891888Y0607345D01*
X0892555D01*
X0892888Y0607011D01*
Y0605678D01*
X0892555Y0605345D01*
X0891888D01*
X0891555Y0605678D01*
X0889556Y0605345D02*
X0890889D01*
X0889556Y0606678D01*
Y0607011D01*
X0889889Y0607345D01*
X0890555D01*
X0890889Y0607011D01*
X0888889Y0605345D02*
X0888223D01*
X0888556D01*
Y0607345D01*
X0888889Y0607011D01*
X0887223Y0607345D02*
X0885890D01*
Y0607011D01*
X0887223Y0605678D01*
Y0605345D01*
X0881488Y0443745D02*
Y0445745D01*
X0880488D01*
X0880155Y0445411D01*
Y0444745D01*
X0880488Y0444412D01*
X0881488D01*
X0880821D02*
X0880155Y0443745D01*
X0879488D02*
X0878822D01*
X0879155D01*
Y0445745D01*
X0879488Y0445411D01*
X0877822Y0444078D02*
X0877489Y0443745D01*
X0876823D01*
X0876490Y0444078D01*
Y0445411D01*
X0876823Y0445745D01*
X0877489D01*
X0877822Y0445411D01*
Y0445078D01*
X0877489Y0444745D01*
X0876490D01*
X0875823Y0445411D02*
X0875490Y0445745D01*
X0874823D01*
X0874490Y0445411D01*
Y0444078D01*
X0874823Y0443745D01*
X0875490D01*
X0875823Y0444078D01*
Y0445411D01*
X0590990Y0552194D02*
X0591490Y0552694D01*
X0592489D01*
X0592989Y0552194D01*
Y0550195D01*
X0592489Y0549695D01*
X0591490D01*
X0590990Y0550195D01*
X0587991Y0549695D02*
X0589990D01*
X0587991Y0551695D01*
Y0552194D01*
X0588490Y0552694D01*
X0589490D01*
X0589990Y0552194D01*
X0584992Y0549695D02*
X0586991D01*
X0584992Y0551695D01*
Y0552194D01*
X0585491Y0552694D01*
X0586491D01*
X0586991Y0552194D01*
X0582492Y0549695D02*
Y0552694D01*
X0583992Y0551195D01*
X0581992D01*
X0398947Y0660445D02*
Y0658778D01*
X0398614Y0658445D01*
X0397947D01*
X0397614Y0658778D01*
Y0660445D01*
X0396947Y0660111D02*
X0396614Y0660445D01*
X0395948D01*
X0395615Y0660111D01*
Y0659778D01*
X0395948Y0659445D01*
X0396281D01*
X0395948D01*
X0395615Y0659112D01*
Y0658778D01*
X0395948Y0658445D01*
X0396614D01*
X0396947Y0658778D01*
X0394948Y0658445D02*
X0394282D01*
X0394615D01*
Y0660445D01*
X0394948Y0660111D01*
X0399521Y0671811D02*
X0399855Y0672145D01*
X0400521D01*
X0400854Y0671811D01*
Y0670478D01*
X0400521Y0670145D01*
X0399855D01*
X0399521Y0670478D01*
X0397522Y0670145D02*
X0398855D01*
X0397522Y0671478D01*
Y0671811D01*
X0397855Y0672145D01*
X0398522D01*
X0398855Y0671811D01*
X0396856D02*
X0396522Y0672145D01*
X0395856D01*
X0395523Y0671811D01*
Y0670478D01*
X0395856Y0670145D01*
X0396522D01*
X0396856Y0670478D01*
Y0671811D01*
X0393524Y0672145D02*
X0394190Y0671811D01*
X0394856Y0671145D01*
Y0670478D01*
X0394523Y0670145D01*
X0393857D01*
X0393524Y0670478D01*
Y0670812D01*
X0393857Y0671145D01*
X0394856D01*
X0899923Y0386583D02*
Y0388582D01*
X0898923D01*
X0898590Y0388249D01*
Y0387583D01*
X0898923Y0387249D01*
X0899923D01*
X0899257D02*
X0898590Y0386583D01*
X0897924D02*
X0897257D01*
X0897591D01*
Y0388582D01*
X0897924Y0388249D01*
X0896258Y0386916D02*
X0895924Y0386583D01*
X0895258D01*
X0894925Y0386916D01*
Y0388249D01*
X0895258Y0388582D01*
X0895924D01*
X0896258Y0388249D01*
Y0387916D01*
X0895924Y0387583D01*
X0894925D01*
X0892925Y0388582D02*
X0894258D01*
Y0387583D01*
X0893592Y0387916D01*
X0893259D01*
X0892925Y0387583D01*
Y0386916D01*
X0893259Y0386583D01*
X0893925D01*
X0894258Y0386916D01*
X0899545Y0382047D02*
Y0384046D01*
X0898545D01*
X0898212Y0383713D01*
Y0383047D01*
X0898545Y0382713D01*
X0899545D01*
X0898879D02*
X0898212Y0382047D01*
X0897546D02*
X0896879D01*
X0897213D01*
Y0384046D01*
X0897546Y0383713D01*
X0895880Y0382380D02*
X0895547Y0382047D01*
X0894880D01*
X0894547Y0382380D01*
Y0383713D01*
X0894880Y0384046D01*
X0895547D01*
X0895880Y0383713D01*
Y0383380D01*
X0895547Y0383047D01*
X0894547D01*
X0892548Y0384046D02*
X0893214Y0383713D01*
X0893880Y0383047D01*
Y0382380D01*
X0893547Y0382047D01*
X0892881D01*
X0892548Y0382380D01*
Y0382713D01*
X0892881Y0383047D01*
X0893880D01*
X0863702Y0596497D02*
X0864035Y0596830D01*
X0864701D01*
X0865034Y0596497D01*
Y0595164D01*
X0864701Y0594831D01*
X0864035D01*
X0863702Y0595164D01*
X0861702Y0594831D02*
X0863035D01*
X0861702Y0596163D01*
Y0596497D01*
X0862035Y0596830D01*
X0862702D01*
X0863035Y0596497D01*
X0861036Y0594831D02*
X0860369D01*
X0860703D01*
Y0596830D01*
X0861036Y0596497D01*
X0859370Y0595164D02*
X0859036Y0594831D01*
X0858370D01*
X0858037Y0595164D01*
Y0596497D01*
X0858370Y0596830D01*
X0859036D01*
X0859370Y0596497D01*
Y0596163D01*
X0859036Y0595830D01*
X0858037D01*
X0856155Y0602861D02*
X0856488Y0603195D01*
X0857155D01*
X0857488Y0602861D01*
Y0601528D01*
X0857155Y0601195D01*
X0856488D01*
X0856155Y0601528D01*
X0854156Y0601195D02*
X0855488D01*
X0854156Y0602528D01*
Y0602861D01*
X0854489Y0603195D01*
X0855155D01*
X0855488Y0602861D01*
X0853489Y0601195D02*
X0852823D01*
X0853156D01*
Y0603195D01*
X0853489Y0602861D01*
X0851823D02*
X0851490Y0603195D01*
X0850823D01*
X0850490Y0602861D01*
Y0602528D01*
X0850823Y0602195D01*
X0850490Y0601862D01*
Y0601528D01*
X0850823Y0601195D01*
X0851490D01*
X0851823Y0601528D01*
Y0601862D01*
X0851490Y0602195D01*
X0851823Y0602528D01*
Y0602861D01*
X0851490Y0602195D02*
X0850823D01*
X0844722Y0593811D02*
X0845055Y0594145D01*
X0845721D01*
X0846054Y0593811D01*
Y0592478D01*
X0845721Y0592145D01*
X0845055D01*
X0844722Y0592478D01*
X0842722Y0592145D02*
X0844055D01*
X0842722Y0593478D01*
Y0593811D01*
X0843055Y0594145D01*
X0843722D01*
X0844055Y0593811D01*
X0840723Y0592145D02*
X0842056D01*
X0840723Y0593478D01*
Y0593811D01*
X0841056Y0594145D01*
X0841722D01*
X0842056Y0593811D01*
X0840056D02*
X0839723Y0594145D01*
X0839057D01*
X0838723Y0593811D01*
Y0593478D01*
X0839057Y0593145D01*
X0839390D01*
X0839057D01*
X0838723Y0592812D01*
Y0592478D01*
X0839057Y0592145D01*
X0839723D01*
X0840056Y0592478D01*
X0844922Y0599111D02*
X0845255Y0599445D01*
X0845921D01*
X0846254Y0599111D01*
Y0597778D01*
X0845921Y0597445D01*
X0845255D01*
X0844922Y0597778D01*
X0842922Y0597445D02*
X0844255D01*
X0842922Y0598778D01*
Y0599111D01*
X0843255Y0599445D01*
X0843922D01*
X0844255Y0599111D01*
X0840923Y0597445D02*
X0842256D01*
X0840923Y0598778D01*
Y0599111D01*
X0841256Y0599445D01*
X0841922D01*
X0842256Y0599111D01*
X0838923Y0597445D02*
X0840256D01*
X0838923Y0598778D01*
Y0599111D01*
X0839257Y0599445D01*
X0839923D01*
X0840256Y0599111D01*
X0625855Y0658145D02*
Y0656478D01*
X0625522Y0656145D01*
X0624855D01*
X0624522Y0656478D01*
Y0658145D01*
X0623855Y0657811D02*
X0623522Y0658145D01*
X0622856D01*
X0622522Y0657811D01*
Y0657478D01*
X0622856Y0657145D01*
X0623189D01*
X0622856D01*
X0622522Y0656812D01*
Y0656478D01*
X0622856Y0656145D01*
X0623522D01*
X0623855Y0656478D01*
X0620523Y0656145D02*
X0621856D01*
X0620523Y0657478D01*
Y0657811D01*
X0620856Y0658145D01*
X0621523D01*
X0621856Y0657811D01*
X0897888Y0442345D02*
Y0444345D01*
X0896888D01*
X0896555Y0444011D01*
Y0443345D01*
X0896888Y0443012D01*
X0897888D01*
X0897221D02*
X0896555Y0442345D01*
X0895889D02*
X0895222D01*
X0895555D01*
Y0444345D01*
X0895889Y0444011D01*
X0894222D02*
X0893889Y0444345D01*
X0893223D01*
X0892889Y0444011D01*
Y0443678D01*
X0893223Y0443345D01*
X0892889Y0443012D01*
Y0442678D01*
X0893223Y0442345D01*
X0893889D01*
X0894222Y0442678D01*
Y0443012D01*
X0893889Y0443345D01*
X0894222Y0443678D01*
Y0444011D01*
X0893889Y0443345D02*
X0893223D01*
X0892223Y0442678D02*
X0891890Y0442345D01*
X0891223D01*
X0890890Y0442678D01*
Y0444011D01*
X0891223Y0444345D01*
X0891890D01*
X0892223Y0444011D01*
Y0443678D01*
X0891890Y0443345D01*
X0890890D01*
X0882055Y0728145D02*
Y0726145D01*
Y0727145D01*
X0880722D01*
Y0728145D01*
Y0726145D01*
X0878723D02*
X0880056D01*
X0878723Y0727478D01*
Y0727811D01*
X0879056Y0728145D01*
X0879722D01*
X0880056Y0727811D01*
X0878056D02*
X0877723Y0728145D01*
X0877056D01*
X0876723Y0727811D01*
Y0726478D01*
X0877056Y0726145D01*
X0877723D01*
X0878056Y0726478D01*
Y0727811D01*
X0897455Y0434845D02*
Y0436845D01*
X0896455D01*
X0896122Y0436511D01*
Y0435845D01*
X0896455Y0435512D01*
X0897455D01*
X0896788D02*
X0896122Y0434845D01*
X0895455D02*
X0894789D01*
X0895122D01*
Y0436845D01*
X0895455Y0436511D01*
X0893789Y0435178D02*
X0893456Y0434845D01*
X0892789D01*
X0892456Y0435178D01*
Y0436511D01*
X0892789Y0436845D01*
X0893456D01*
X0893789Y0436511D01*
Y0436178D01*
X0893456Y0435845D01*
X0892456D01*
X0891790Y0434845D02*
X0891123D01*
X0891457D01*
Y0436845D01*
X0891790Y0436511D01*
X0884322Y0487711D02*
X0884655Y0488045D01*
X0885321D01*
X0885654Y0487711D01*
Y0486378D01*
X0885321Y0486045D01*
X0884655D01*
X0884322Y0486378D01*
X0882322Y0486045D02*
X0883655D01*
X0882322Y0487378D01*
Y0487711D01*
X0882655Y0488045D01*
X0883322D01*
X0883655Y0487711D01*
X0881656D02*
X0881322Y0488045D01*
X0880656D01*
X0880323Y0487711D01*
Y0487378D01*
X0880656Y0487045D01*
X0880989D01*
X0880656D01*
X0880323Y0486712D01*
Y0486378D01*
X0880656Y0486045D01*
X0881322D01*
X0881656Y0486378D01*
X0879656Y0487711D02*
X0879323Y0488045D01*
X0878657D01*
X0878323Y0487711D01*
Y0487378D01*
X0878657Y0487045D01*
X0878323Y0486712D01*
Y0486378D01*
X0878657Y0486045D01*
X0879323D01*
X0879656Y0486378D01*
Y0486712D01*
X0879323Y0487045D01*
X0879656Y0487378D01*
Y0487711D01*
X0879323Y0487045D02*
X0878657D01*
X0624722Y0669211D02*
X0625055Y0669545D01*
X0625721D01*
X0626054Y0669211D01*
Y0667878D01*
X0625721Y0667545D01*
X0625055D01*
X0624722Y0667878D01*
X0622722Y0667545D02*
X0624055D01*
X0622722Y0668878D01*
Y0669211D01*
X0623055Y0669545D01*
X0623722D01*
X0624055Y0669211D01*
X0622056D02*
X0621723Y0669545D01*
X0621056D01*
X0620723Y0669211D01*
Y0667878D01*
X0621056Y0667545D01*
X0621723D01*
X0622056Y0667878D01*
Y0669211D01*
X0620056Y0669545D02*
X0618723D01*
Y0669211D01*
X0620056Y0667878D01*
Y0667545D01*
X0880388Y0457411D02*
X0880722Y0457745D01*
X0881388D01*
X0881721Y0457411D01*
Y0456078D01*
X0881388Y0455745D01*
X0880722D01*
X0880388Y0456078D01*
X0878389Y0455745D02*
X0879722D01*
X0878389Y0457078D01*
Y0457411D01*
X0878722Y0457745D01*
X0879389D01*
X0879722Y0457411D01*
X0876723Y0455745D02*
Y0457745D01*
X0877722Y0456745D01*
X0876390D01*
X0875723Y0455745D02*
X0875057D01*
X0875390D01*
Y0457745D01*
X0875723Y0457411D01*
X0895622Y0466811D02*
X0895955Y0467145D01*
X0896621D01*
X0896954Y0466811D01*
Y0465478D01*
X0896621Y0465145D01*
X0895955D01*
X0895622Y0465478D01*
X0893622Y0465145D02*
X0894955D01*
X0893622Y0466478D01*
Y0466811D01*
X0893955Y0467145D01*
X0894622D01*
X0894955Y0466811D01*
X0891956Y0465145D02*
Y0467145D01*
X0892956Y0466145D01*
X0891623D01*
X0890956Y0466811D02*
X0890623Y0467145D01*
X0889957D01*
X0889624Y0466811D01*
Y0465478D01*
X0889957Y0465145D01*
X0890623D01*
X0890956Y0465478D01*
Y0466811D01*
X0865922Y0483411D02*
X0866255Y0483745D01*
X0866921D01*
X0867254Y0483411D01*
Y0482078D01*
X0866921Y0481745D01*
X0866255D01*
X0865922Y0482078D01*
X0863922Y0481745D02*
X0865255D01*
X0863922Y0483078D01*
Y0483411D01*
X0864255Y0483745D01*
X0864922D01*
X0865255Y0483411D01*
X0863256D02*
X0862922Y0483745D01*
X0862256D01*
X0861923Y0483411D01*
Y0483078D01*
X0862256Y0482745D01*
X0862589D01*
X0862256D01*
X0861923Y0482412D01*
Y0482078D01*
X0862256Y0481745D01*
X0862922D01*
X0863256Y0482078D01*
X0861256D02*
X0860923Y0481745D01*
X0860257D01*
X0859923Y0482078D01*
Y0483411D01*
X0860257Y0483745D01*
X0860923D01*
X0861256Y0483411D01*
Y0483078D01*
X0860923Y0482745D01*
X0859923D01*
X0894122Y0648445D02*
X0894789D01*
X0894455D01*
Y0646778D01*
X0894789Y0646445D01*
X0895122D01*
X0895455Y0646778D01*
X0893456Y0648111D02*
X0893122Y0648445D01*
X0892456D01*
X0892123Y0648111D01*
Y0647778D01*
X0892456Y0647445D01*
X0892123Y0647112D01*
Y0646778D01*
X0892456Y0646445D01*
X0893122D01*
X0893456Y0646778D01*
Y0647112D01*
X0893122Y0647445D01*
X0893456Y0647778D01*
Y0648111D01*
X0893122Y0647445D02*
X0892456D01*
X0856555Y0682145D02*
Y0684145D01*
X0855555D01*
X0855222Y0683811D01*
Y0683145D01*
X0855555Y0682812D01*
X0856555D01*
X0855888D02*
X0855222Y0682145D01*
X0854555D02*
X0853889D01*
X0854222D01*
Y0684145D01*
X0854555Y0683811D01*
X0852889D02*
X0852556Y0684145D01*
X0851890D01*
X0851556Y0683811D01*
Y0683478D01*
X0851890Y0683145D01*
X0851556Y0682812D01*
Y0682478D01*
X0851890Y0682145D01*
X0852556D01*
X0852889Y0682478D01*
Y0682812D01*
X0852556Y0683145D01*
X0852889Y0683478D01*
Y0683811D01*
X0852556Y0683145D02*
X0851890D01*
X0850890Y0682145D02*
X0850223D01*
X0850557D01*
Y0684145D01*
X0850890Y0683811D01*
X0870355Y0592245D02*
X0871688D01*
Y0591245D01*
X0871021D01*
X0871688D01*
Y0590245D01*
X0869689Y0592245D02*
Y0590245D01*
X0868689D01*
X0868356Y0590578D01*
Y0590912D01*
X0868689Y0591245D01*
X0869689D01*
X0868689D01*
X0868356Y0591578D01*
Y0591911D01*
X0868689Y0592245D01*
X0869689D01*
X0867689Y0590245D02*
X0867023D01*
X0867356D01*
Y0592245D01*
X0867689Y0591911D01*
X0866023Y0590578D02*
X0865690Y0590245D01*
X0865023D01*
X0864690Y0590578D01*
Y0591911D01*
X0865023Y0592245D01*
X0865690D01*
X0866023Y0591911D01*
Y0591578D01*
X0865690Y0591245D01*
X0864690D01*
X0882443Y0669102D02*
X0882776Y0669436D01*
X0883442D01*
X0883776Y0669102D01*
Y0667770D01*
X0883442Y0667436D01*
X0882776D01*
X0882443Y0667770D01*
X0880443Y0667436D02*
X0881776D01*
X0880443Y0668769D01*
Y0669102D01*
X0880777Y0669436D01*
X0881443D01*
X0881776Y0669102D01*
X0879777Y0667436D02*
X0879110D01*
X0879444D01*
Y0669436D01*
X0879777Y0669102D01*
X0878111Y0667436D02*
X0877444D01*
X0877777D01*
Y0669436D01*
X0878111Y0669102D01*
X0889822Y0600811D02*
X0890155Y0601145D01*
X0890821D01*
X0891154Y0600811D01*
Y0599478D01*
X0890821Y0599145D01*
X0890155D01*
X0889822Y0599478D01*
X0887822Y0599145D02*
X0889155D01*
X0887822Y0600478D01*
Y0600811D01*
X0888155Y0601145D01*
X0888822D01*
X0889155Y0600811D01*
X0885823Y0599145D02*
X0887156D01*
X0885823Y0600478D01*
Y0600811D01*
X0886156Y0601145D01*
X0886823D01*
X0887156Y0600811D01*
X0885156D02*
X0884823Y0601145D01*
X0884157D01*
X0883823Y0600811D01*
Y0599478D01*
X0884157Y0599145D01*
X0884823D01*
X0885156Y0599478D01*
Y0600811D01*
X0851088Y0509645D02*
Y0511645D01*
X0850088D01*
X0849755Y0511311D01*
Y0510645D01*
X0850088Y0510312D01*
X0851088D01*
X0850421D02*
X0849755Y0509645D01*
X0849088D02*
X0848422D01*
X0848755D01*
Y0511645D01*
X0849088Y0511311D01*
X0847422Y0509978D02*
X0847089Y0509645D01*
X0846423D01*
X0846089Y0509978D01*
Y0511311D01*
X0846423Y0511645D01*
X0847089D01*
X0847422Y0511311D01*
Y0510978D01*
X0847089Y0510645D01*
X0846089D01*
X0844090Y0509645D02*
X0845423D01*
X0844090Y0510978D01*
Y0511311D01*
X0844423Y0511645D01*
X0845090D01*
X0845423Y0511311D01*
X0851055Y0520545D02*
Y0522545D01*
X0850055D01*
X0849722Y0522211D01*
Y0521545D01*
X0850055Y0521212D01*
X0851055D01*
X0850388D02*
X0849722Y0520545D01*
X0849055Y0522211D02*
X0848722Y0522545D01*
X0848056D01*
X0847723Y0522211D01*
Y0521878D01*
X0848056Y0521545D01*
X0847723Y0521212D01*
Y0520878D01*
X0848056Y0520545D01*
X0848722D01*
X0849055Y0520878D01*
Y0521212D01*
X0848722Y0521545D01*
X0849055Y0521878D01*
Y0522211D01*
X0848722Y0521545D02*
X0848056D01*
X0846056Y0520545D02*
Y0522545D01*
X0847056Y0521545D01*
X0845723D01*
X0851122Y0517245D02*
Y0519245D01*
X0850122D01*
X0849789Y0518911D01*
Y0518245D01*
X0850122Y0517912D01*
X0851122D01*
X0850455D02*
X0849789Y0517245D01*
X0849122Y0518911D02*
X0848789Y0519245D01*
X0848123D01*
X0847789Y0518911D01*
Y0518578D01*
X0848123Y0518245D01*
X0847789Y0517912D01*
Y0517578D01*
X0848123Y0517245D01*
X0848789D01*
X0849122Y0517578D01*
Y0517912D01*
X0848789Y0518245D01*
X0849122Y0518578D01*
Y0518911D01*
X0848789Y0518245D02*
X0848123D01*
X0847123Y0517245D02*
X0846456D01*
X0846790D01*
Y0519245D01*
X0847123Y0518911D01*
X0875169Y0696684D02*
Y0698684D01*
X0874170D01*
X0873836Y0698350D01*
Y0697684D01*
X0874170Y0697351D01*
X0875169D01*
X0874503D02*
X0873836Y0696684D01*
X0873170D02*
X0872503D01*
X0872837D01*
Y0698684D01*
X0873170Y0698350D01*
X0871504D02*
X0871171Y0698684D01*
X0870504D01*
X0870171Y0698350D01*
Y0698017D01*
X0870504Y0697684D01*
X0870171Y0697351D01*
Y0697017D01*
X0870504Y0696684D01*
X0871171D01*
X0871504Y0697017D01*
Y0697351D01*
X0871171Y0697684D01*
X0871504Y0698017D01*
Y0698350D01*
X0871171Y0697684D02*
X0870504D01*
X0869504Y0698350D02*
X0869171Y0698684D01*
X0868505D01*
X0868172Y0698350D01*
Y0697017D01*
X0868505Y0696684D01*
X0869171D01*
X0869504Y0697017D01*
Y0698350D01*
X0881822Y0454245D02*
X0883154D01*
Y0453245D01*
X0882488D01*
X0883154D01*
Y0452245D01*
X0881155Y0454245D02*
Y0452245D01*
X0880155D01*
X0879822Y0452578D01*
Y0452912D01*
X0880155Y0453245D01*
X0881155D01*
X0880155D01*
X0879822Y0453578D01*
Y0453911D01*
X0880155Y0454245D01*
X0881155D01*
X0877823Y0452245D02*
X0879156D01*
X0877823Y0453578D01*
Y0453911D01*
X0878156Y0454245D01*
X0878823D01*
X0879156Y0453911D01*
X0877156D02*
X0876823Y0454245D01*
X0876157D01*
X0875823Y0453911D01*
Y0452578D01*
X0876157Y0452245D01*
X0876823D01*
X0877156Y0452578D01*
Y0453911D01*
X0836655Y0635111D02*
X0836988Y0635445D01*
X0837655D01*
X0837988Y0635111D01*
Y0633778D01*
X0837655Y0633445D01*
X0836988D01*
X0836655Y0633778D01*
X0834656Y0633445D02*
X0835989D01*
X0834656Y0634778D01*
Y0635111D01*
X0834989Y0635445D01*
X0835655D01*
X0835989Y0635111D01*
X0833989Y0633445D02*
X0833323D01*
X0833656D01*
Y0635445D01*
X0833989Y0635111D01*
X0831323Y0633445D02*
Y0635445D01*
X0832323Y0634445D01*
X0830990D01*
X0874445Y0662973D02*
X0874778Y0663307D01*
X0875444D01*
X0875778Y0662973D01*
Y0661641D01*
X0875444Y0661307D01*
X0874778D01*
X0874445Y0661641D01*
X0872445Y0661307D02*
X0873778D01*
X0872445Y0662640D01*
Y0662973D01*
X0872779Y0663307D01*
X0873445D01*
X0873778Y0662973D01*
X0871779Y0661307D02*
X0871113D01*
X0871446D01*
Y0663307D01*
X0871779Y0662973D01*
X0870113D02*
X0869780Y0663307D01*
X0869113D01*
X0868780Y0662973D01*
Y0661641D01*
X0869113Y0661307D01*
X0869780D01*
X0870113Y0661641D01*
Y0662973D01*
X0819934Y0344466D02*
X0820267Y0344799D01*
X0820933D01*
X0821267Y0344466D01*
Y0343133D01*
X0820933Y0342800D01*
X0820267D01*
X0819934Y0343133D01*
X0817934Y0342800D02*
X0819267D01*
X0817934Y0344133D01*
Y0344466D01*
X0818268Y0344799D01*
X0818934D01*
X0819267Y0344466D01*
X0816268Y0342800D02*
Y0344799D01*
X0817268Y0343800D01*
X0815935D01*
X0813936Y0342800D02*
X0815269D01*
X0813936Y0344133D01*
Y0344466D01*
X0814269Y0344799D01*
X0814935D01*
X0815269Y0344466D01*
X0863705Y0669173D02*
X0864038Y0669507D01*
X0864705D01*
X0865038Y0669173D01*
Y0667841D01*
X0864705Y0667507D01*
X0864038D01*
X0863705Y0667841D01*
X0861706Y0667507D02*
X0863039D01*
X0861706Y0668840D01*
Y0669173D01*
X0862039Y0669507D01*
X0862705D01*
X0863039Y0669173D01*
X0861039D02*
X0860706Y0669507D01*
X0860040D01*
X0859706Y0669173D01*
Y0667841D01*
X0860040Y0667507D01*
X0860706D01*
X0861039Y0667841D01*
Y0669173D01*
X0859040Y0667841D02*
X0858707Y0667507D01*
X0858040D01*
X0857707Y0667841D01*
Y0669173D01*
X0858040Y0669507D01*
X0858707D01*
X0859040Y0669173D01*
Y0668840D01*
X0858707Y0668507D01*
X0857707D01*
X0846755Y0623611D02*
X0847088Y0623945D01*
X0847755D01*
X0848088Y0623611D01*
Y0622278D01*
X0847755Y0621945D01*
X0847088D01*
X0846755Y0622278D01*
X0844756Y0621945D02*
X0846089D01*
X0844756Y0623278D01*
Y0623611D01*
X0845089Y0623945D01*
X0845755D01*
X0846089Y0623611D01*
X0844089Y0621945D02*
X0843423D01*
X0843756D01*
Y0623945D01*
X0844089Y0623611D01*
X0841090Y0621945D02*
X0842423D01*
X0841090Y0623278D01*
Y0623611D01*
X0841423Y0623945D01*
X0842090D01*
X0842423Y0623611D01*
X0836555Y0623411D02*
X0836888Y0623745D01*
X0837555D01*
X0837888Y0623411D01*
Y0622078D01*
X0837555Y0621745D01*
X0836888D01*
X0836555Y0622078D01*
X0834556Y0621745D02*
X0835888D01*
X0834556Y0623078D01*
Y0623411D01*
X0834889Y0623745D01*
X0835555D01*
X0835888Y0623411D01*
X0833889Y0621745D02*
X0833223D01*
X0833556D01*
Y0623745D01*
X0833889Y0623411D01*
X0830890Y0623745D02*
X0832223D01*
Y0622745D01*
X0831557Y0623078D01*
X0831223D01*
X0830890Y0622745D01*
Y0622078D01*
X0831223Y0621745D01*
X0831890D01*
X0832223Y0622078D01*
X0879022Y0499711D02*
X0879355Y0500045D01*
X0880021D01*
X0880354Y0499711D01*
Y0498378D01*
X0880021Y0498045D01*
X0879355D01*
X0879022Y0498378D01*
X0877022Y0498045D02*
X0878355D01*
X0877022Y0499378D01*
Y0499711D01*
X0877355Y0500045D01*
X0878022D01*
X0878355Y0499711D01*
X0876356D02*
X0876023Y0500045D01*
X0875356D01*
X0875023Y0499711D01*
Y0499378D01*
X0875356Y0499045D01*
X0875689D01*
X0875356D01*
X0875023Y0498712D01*
Y0498378D01*
X0875356Y0498045D01*
X0876023D01*
X0876356Y0498378D01*
X0873024Y0500045D02*
X0874356D01*
Y0499045D01*
X0873690Y0499378D01*
X0873357D01*
X0873024Y0499045D01*
Y0498378D01*
X0873357Y0498045D01*
X0874023D01*
X0874356Y0498378D01*
X0877129Y0536316D02*
X0877462Y0536650D01*
X0878129D01*
X0878462Y0536316D01*
Y0534984D01*
X0878129Y0534650D01*
X0877462D01*
X0877129Y0534984D01*
X0875130Y0534650D02*
X0876463D01*
X0875130Y0535983D01*
Y0536316D01*
X0875463Y0536650D01*
X0876129D01*
X0876463Y0536316D01*
X0874463D02*
X0874130Y0536650D01*
X0873464D01*
X0873130Y0536316D01*
Y0535983D01*
X0873464Y0535650D01*
X0873797D01*
X0873464D01*
X0873130Y0535317D01*
Y0534984D01*
X0873464Y0534650D01*
X0874130D01*
X0874463Y0534984D01*
X0872464Y0536316D02*
X0872131Y0536650D01*
X0871464D01*
X0871131Y0536316D01*
Y0534984D01*
X0871464Y0534650D01*
X0872131D01*
X0872464Y0534984D01*
Y0536316D01*
X0844555Y0635511D02*
X0844888Y0635845D01*
X0845555D01*
X0845888Y0635511D01*
Y0634178D01*
X0845555Y0633845D01*
X0844888D01*
X0844555Y0634178D01*
X0842556Y0633845D02*
X0843888D01*
X0842556Y0635178D01*
Y0635511D01*
X0842889Y0635845D01*
X0843555D01*
X0843888Y0635511D01*
X0841889Y0633845D02*
X0841223D01*
X0841556D01*
Y0635845D01*
X0841889Y0635511D01*
X0840223D02*
X0839890Y0635845D01*
X0839223D01*
X0838890Y0635511D01*
Y0635178D01*
X0839223Y0634845D01*
X0839557D01*
X0839223D01*
X0838890Y0634512D01*
Y0634178D01*
X0839223Y0633845D01*
X0839890D01*
X0840223Y0634178D01*
X0870030Y0672894D02*
X0870363Y0673227D01*
X0871029D01*
X0871363Y0672894D01*
Y0671561D01*
X0871029Y0671228D01*
X0870363D01*
X0870030Y0671561D01*
X0868030Y0671228D02*
X0869363D01*
X0868030Y0672560D01*
Y0672894D01*
X0868364Y0673227D01*
X0869030D01*
X0869363Y0672894D01*
X0867364D02*
X0867031Y0673227D01*
X0866364D01*
X0866031Y0672894D01*
Y0671561D01*
X0866364Y0671228D01*
X0867031D01*
X0867364Y0671561D01*
Y0672894D01*
X0865365D02*
X0865031Y0673227D01*
X0864365D01*
X0864032Y0672894D01*
Y0672560D01*
X0864365Y0672227D01*
X0864032Y0671894D01*
Y0671561D01*
X0864365Y0671228D01*
X0865031D01*
X0865365Y0671561D01*
Y0671894D01*
X0865031Y0672227D01*
X0865365Y0672560D01*
Y0672894D01*
X0865031Y0672227D02*
X0864365D01*
X0862989Y0673745D02*
Y0675744D01*
X0861989D01*
X0861656Y0675411D01*
Y0674745D01*
X0861989Y0674411D01*
X0862989D01*
X0862323D02*
X0861656Y0673745D01*
X0860990D02*
X0860323D01*
X0860656D01*
Y0675744D01*
X0860990Y0675411D01*
X0859324D02*
X0858990Y0675744D01*
X0858324D01*
X0857991Y0675411D01*
Y0675078D01*
X0858324Y0674745D01*
X0857991Y0674411D01*
Y0674078D01*
X0858324Y0673745D01*
X0858990D01*
X0859324Y0674078D01*
Y0674411D01*
X0858990Y0674745D01*
X0859324Y0675078D01*
Y0675411D01*
X0858990Y0674745D02*
X0858324D01*
X0855991Y0675744D02*
X0857324D01*
Y0674745D01*
X0856658Y0675078D01*
X0856324D01*
X0855991Y0674745D01*
Y0674078D01*
X0856324Y0673745D01*
X0856991D01*
X0857324Y0674078D01*
X0899070Y0392119D02*
Y0394118D01*
X0898071D01*
X0897738Y0393785D01*
Y0393119D01*
X0898071Y0392785D01*
X0899070D01*
X0898404D02*
X0897738Y0392119D01*
X0897071D02*
X0896405D01*
X0896738D01*
Y0394118D01*
X0897071Y0393785D01*
X0895405Y0392452D02*
X0895072Y0392119D01*
X0894405D01*
X0894072Y0392452D01*
Y0393785D01*
X0894405Y0394118D01*
X0895072D01*
X0895405Y0393785D01*
Y0393452D01*
X0895072Y0393119D01*
X0894072D01*
X0892406Y0392119D02*
Y0394118D01*
X0893406Y0393119D01*
X0892073D01*
X0893681Y0524942D02*
X0894014Y0525275D01*
X0894681D01*
X0895014Y0524942D01*
Y0523609D01*
X0894681Y0523276D01*
X0894014D01*
X0893681Y0523609D01*
X0891682Y0523276D02*
X0893015D01*
X0891682Y0524608D01*
Y0524942D01*
X0892015Y0525275D01*
X0892682D01*
X0893015Y0524942D01*
X0889682Y0523276D02*
X0891015D01*
X0889682Y0524608D01*
Y0524942D01*
X0890016Y0525275D01*
X0890682D01*
X0891015Y0524942D01*
X0889016Y0525275D02*
X0887683D01*
Y0524942D01*
X0889016Y0523609D01*
Y0523276D01*
X0875622Y0514343D02*
X0875955Y0514676D01*
X0876621D01*
X0876954Y0514343D01*
Y0513010D01*
X0876621Y0512677D01*
X0875955D01*
X0875622Y0513010D01*
X0873622Y0512677D02*
X0874955D01*
X0873622Y0514010D01*
Y0514343D01*
X0873955Y0514676D01*
X0874622D01*
X0874955Y0514343D01*
X0872956D02*
X0872622Y0514676D01*
X0871956D01*
X0871623Y0514343D01*
Y0514010D01*
X0871956Y0513676D01*
X0872289D01*
X0871956D01*
X0871623Y0513343D01*
Y0513010D01*
X0871956Y0512677D01*
X0872622D01*
X0872956Y0513010D01*
X0869957Y0512677D02*
Y0514676D01*
X0870956Y0513676D01*
X0869623D01*
X0854922Y0529411D02*
X0855255Y0529745D01*
X0855921D01*
X0856254Y0529411D01*
Y0528078D01*
X0855921Y0527745D01*
X0855255D01*
X0854922Y0528078D01*
X0852922Y0527745D02*
X0854255D01*
X0852922Y0529078D01*
Y0529411D01*
X0853255Y0529745D01*
X0853922D01*
X0854255Y0529411D01*
X0852256D02*
X0851923Y0529745D01*
X0851256D01*
X0850923Y0529411D01*
Y0529078D01*
X0851256Y0528745D01*
X0851589D01*
X0851256D01*
X0850923Y0528412D01*
Y0528078D01*
X0851256Y0527745D01*
X0851923D01*
X0852256Y0528078D01*
X0848923Y0527745D02*
X0850256D01*
X0848923Y0529078D01*
Y0529411D01*
X0849257Y0529745D01*
X0849923D01*
X0850256Y0529411D01*
X0900988Y0455045D02*
Y0457045D01*
X0899988D01*
X0899655Y0456711D01*
Y0456045D01*
X0899988Y0455712D01*
X0900988D01*
X0900321D02*
X0899655Y0455045D01*
X0898989D02*
X0898322D01*
X0898655D01*
Y0457045D01*
X0898989Y0456711D01*
X0897322D02*
X0896989Y0457045D01*
X0896323D01*
X0895990Y0456711D01*
Y0456378D01*
X0896323Y0456045D01*
X0895990Y0455712D01*
Y0455378D01*
X0896323Y0455045D01*
X0896989D01*
X0897322Y0455378D01*
Y0455712D01*
X0896989Y0456045D01*
X0897322Y0456378D01*
Y0456711D01*
X0896989Y0456045D02*
X0896323D01*
X0895323Y0456711D02*
X0894990Y0457045D01*
X0894323D01*
X0893990Y0456711D01*
Y0456378D01*
X0894323Y0456045D01*
X0893990Y0455712D01*
Y0455378D01*
X0894323Y0455045D01*
X0894990D01*
X0895323Y0455378D01*
Y0455712D01*
X0894990Y0456045D01*
X0895323Y0456378D01*
Y0456711D01*
X0894990Y0456045D02*
X0894323D01*
X0594413Y0604761D02*
X0594912Y0605261D01*
X0595912D01*
X0596412Y0604761D01*
Y0602762D01*
X0595912Y0602262D01*
X0594912D01*
X0594413Y0602762D01*
X0591413Y0602262D02*
X0593413D01*
X0591413Y0604262D01*
Y0604761D01*
X0591913Y0605261D01*
X0592913D01*
X0593413Y0604761D01*
X0590414Y0602262D02*
X0589414D01*
X0589914D01*
Y0605261D01*
X0590414Y0604761D01*
X0585915Y0605261D02*
X0586915Y0604761D01*
X0587915Y0603762D01*
Y0602762D01*
X0587415Y0602262D01*
X0586415D01*
X0585915Y0602762D01*
Y0603262D01*
X0586415Y0603762D01*
X0587915D01*
X0269689Y0578237D02*
Y0581237D01*
X0268190D01*
X0267690Y0580737D01*
Y0579737D01*
X0268190Y0579237D01*
X0269689D01*
X0268689D02*
X0267690Y0578237D01*
X0266690D02*
X0265690D01*
X0266190D01*
Y0581237D01*
X0266690Y0580737D01*
X0264191D02*
X0263691Y0581237D01*
X0262691D01*
X0262191Y0580737D01*
Y0580237D01*
X0262691Y0579737D01*
X0262191Y0579237D01*
Y0578737D01*
X0262691Y0578237D01*
X0263691D01*
X0264191Y0578737D01*
Y0579237D01*
X0263691Y0579737D01*
X0264191Y0580237D01*
Y0580737D01*
X0263691Y0579737D02*
X0262691D01*
X0259192Y0581237D02*
X0260192Y0580737D01*
X0261192Y0579737D01*
Y0578737D01*
X0260692Y0578237D01*
X0259692D01*
X0259192Y0578737D01*
Y0579237D01*
X0259692Y0579737D01*
X0261192D01*
X0285289Y0559363D02*
Y0562362D01*
X0283789D01*
X0283290Y0561862D01*
Y0560863D01*
X0283789Y0560363D01*
X0285289D01*
X0284289D02*
X0283290Y0559363D01*
X0282290D02*
X0281290D01*
X0281790D01*
Y0562362D01*
X0282290Y0561862D01*
X0279791D02*
X0279291Y0562362D01*
X0278291D01*
X0277791Y0561862D01*
Y0561363D01*
X0278291Y0560863D01*
X0277791Y0560363D01*
Y0559863D01*
X0278291Y0559363D01*
X0279291D01*
X0279791Y0559863D01*
Y0560363D01*
X0279291Y0560863D01*
X0279791Y0561363D01*
Y0561862D01*
X0279291Y0560863D02*
X0278291D01*
X0276792Y0562362D02*
X0274792D01*
Y0561862D01*
X0276792Y0559863D01*
Y0559363D01*
X0305589Y0730444D02*
Y0727445D01*
X0304089D01*
X0303590Y0727945D01*
Y0729944D01*
X0304089Y0730444D01*
X0305589D01*
X0302590Y0729944D02*
X0302090Y0730444D01*
X0301090D01*
X0300591Y0729944D01*
Y0729444D01*
X0301090Y0728944D01*
X0301590D01*
X0301090D01*
X0300591Y0728445D01*
Y0727945D01*
X0301090Y0727445D01*
X0302090D01*
X0302590Y0727945D01*
X0297592Y0727445D02*
X0299591D01*
X0297592Y0729444D01*
Y0729944D01*
X0298091Y0730444D01*
X0299091D01*
X0299591Y0729944D01*
X0888889Y0673245D02*
Y0675244D01*
X0887889D01*
X0887556Y0674911D01*
Y0674245D01*
X0887889Y0673911D01*
X0888889D01*
X0888223D02*
X0887556Y0673245D01*
X0886890D02*
X0886223D01*
X0886556D01*
Y0675244D01*
X0886890Y0674911D01*
X0885223D02*
X0884890Y0675244D01*
X0884224D01*
X0883891Y0674911D01*
Y0674578D01*
X0884224Y0674245D01*
X0883891Y0673911D01*
Y0673578D01*
X0884224Y0673245D01*
X0884890D01*
X0885223Y0673578D01*
Y0673911D01*
X0884890Y0674245D01*
X0885223Y0674578D01*
Y0674911D01*
X0884890Y0674245D02*
X0884224D01*
X0883224Y0674911D02*
X0882891Y0675244D01*
X0882224D01*
X0881891Y0674911D01*
Y0674578D01*
X0882224Y0674245D01*
X0882558D01*
X0882224D01*
X0881891Y0673911D01*
Y0673578D01*
X0882224Y0673245D01*
X0882891D01*
X0883224Y0673578D01*
X0292289Y0738845D02*
Y0741844D01*
X0290790D01*
X0290290Y0741344D01*
Y0740344D01*
X0290790Y0739845D01*
X0292289D01*
X0291289D02*
X0290290Y0738845D01*
X0289290D02*
X0288290D01*
X0288790D01*
Y0741844D01*
X0289290Y0741344D01*
X0286791Y0741844D02*
X0284791D01*
Y0741344D01*
X0286791Y0739345D01*
Y0738845D01*
X0283792Y0741344D02*
X0283292Y0741844D01*
X0282292D01*
X0281792Y0741344D01*
Y0740844D01*
X0282292Y0740344D01*
X0281792Y0739845D01*
Y0739345D01*
X0282292Y0738845D01*
X0283292D01*
X0283792Y0739345D01*
Y0739845D01*
X0283292Y0740344D01*
X0283792Y0740844D01*
Y0741344D01*
X0283292Y0740344D02*
X0282292D01*
X0276589Y0736545D02*
Y0739544D01*
X0275090D01*
X0274590Y0739044D01*
Y0738044D01*
X0275090Y0737545D01*
X0276589D01*
X0275589D02*
X0274590Y0736545D01*
X0273590D02*
X0272590D01*
X0273090D01*
Y0739544D01*
X0273590Y0739044D01*
X0271091Y0739544D02*
X0269091D01*
Y0739044D01*
X0271091Y0737045D01*
Y0736545D01*
X0268092Y0737045D02*
X0267592Y0736545D01*
X0266592D01*
X0266092Y0737045D01*
Y0739044D01*
X0266592Y0739544D01*
X0267592D01*
X0268092Y0739044D01*
Y0738544D01*
X0267592Y0738044D01*
X0266092D01*
X0289890Y0721944D02*
X0290389Y0722444D01*
X0291389D01*
X0291889Y0721944D01*
Y0719945D01*
X0291389Y0719445D01*
X0290389D01*
X0289890Y0719945D01*
X0286891Y0719445D02*
X0288890D01*
X0286891Y0721444D01*
Y0721944D01*
X0287390Y0722444D01*
X0288390D01*
X0288890Y0721944D01*
X0285891D02*
X0285391Y0722444D01*
X0284391D01*
X0283892Y0721944D01*
Y0719945D01*
X0284391Y0719445D01*
X0285391D01*
X0285891Y0719945D01*
Y0721944D01*
X0280892Y0719445D02*
X0282892D01*
X0280892Y0721444D01*
Y0721944D01*
X0281392Y0722444D01*
X0282392D01*
X0282892Y0721944D01*
X0589590Y0778444D02*
X0590090Y0778944D01*
X0591089D01*
X0591589Y0778444D01*
Y0776445D01*
X0591089Y0775945D01*
X0590090D01*
X0589590Y0776445D01*
X0586591Y0775945D02*
X0588590D01*
X0586591Y0777944D01*
Y0778444D01*
X0587090Y0778944D01*
X0588090D01*
X0588590Y0778444D01*
X0585591D02*
X0585091Y0778944D01*
X0584091D01*
X0583592Y0778444D01*
Y0776445D01*
X0584091Y0775945D01*
X0585091D01*
X0585591Y0776445D01*
Y0778444D01*
X0582592Y0775945D02*
X0581592D01*
X0582092D01*
Y0778944D01*
X0582592Y0778444D01*
X0590490Y0710544D02*
X0590989Y0711044D01*
X0591989D01*
X0592489Y0710544D01*
Y0708545D01*
X0591989Y0708045D01*
X0590989D01*
X0590490Y0708545D01*
X0587491Y0708045D02*
X0589490D01*
X0587491Y0710044D01*
Y0710544D01*
X0587990Y0711044D01*
X0588990D01*
X0589490Y0710544D01*
X0586491D02*
X0585991Y0711044D01*
X0584991D01*
X0584492Y0710544D01*
Y0708545D01*
X0584991Y0708045D01*
X0585991D01*
X0586491Y0708545D01*
Y0710544D01*
X0581992Y0708045D02*
Y0711044D01*
X0583492Y0709544D01*
X0581493D01*
X0281590Y0697644D02*
X0282089Y0698144D01*
X0283089D01*
X0283589Y0697644D01*
Y0695645D01*
X0283089Y0695145D01*
X0282089D01*
X0281590Y0695645D01*
X0278591Y0695145D02*
X0280590D01*
X0278591Y0697144D01*
Y0697644D01*
X0279090Y0698144D01*
X0280090D01*
X0280590Y0697644D01*
X0277591D02*
X0277091Y0698144D01*
X0276091D01*
X0275592Y0697644D01*
Y0695645D01*
X0276091Y0695145D01*
X0277091D01*
X0277591Y0695645D01*
Y0697644D01*
X0274592D02*
X0274092Y0698144D01*
X0273092D01*
X0272592Y0697644D01*
Y0697144D01*
X0273092Y0696644D01*
X0273592D01*
X0273092D01*
X0272592Y0696145D01*
Y0695645D01*
X0273092Y0695145D01*
X0274092D01*
X0274592Y0695645D01*
X0046350Y0071049D02*
Y0067551D01*
X0048683D01*
X0049849D02*
Y0069883D01*
X0051015Y0071049D01*
X0052181Y0069883D01*
Y0067551D01*
Y0069300D01*
X0049849D01*
X0053348Y0071049D02*
Y0070466D01*
X0054514Y0069300D01*
X0055680Y0070466D01*
Y0071049D01*
X0054514Y0069300D02*
Y0067551D01*
X0059179Y0071049D02*
X0056847D01*
Y0067551D01*
X0059179D01*
X0056847Y0069300D02*
X0058013D01*
X0060346Y0067551D02*
Y0071049D01*
X0062095D01*
X0062678Y0070466D01*
Y0069300D01*
X0062095Y0068717D01*
X0060346D01*
X0061512D02*
X0062678Y0067551D01*
X0067343D02*
Y0071049D01*
X0069676Y0067551D01*
Y0071049D01*
X0070842Y0067551D02*
Y0069883D01*
X0072008Y0071049D01*
X0073175Y0069883D01*
Y0067551D01*
Y0069300D01*
X0070842D01*
X0074341Y0067551D02*
Y0071049D01*
X0075507Y0069883D01*
X0076674Y0071049D01*
Y0067551D01*
X0080172Y0071049D02*
X0077840D01*
Y0067551D01*
X0080172D01*
X0077840Y0069300D02*
X0079006D01*
X0084838Y0068717D02*
X0087170D01*
X0084838Y0069883D02*
X0087170D01*
X0046350Y0046966D02*
Y0050465D01*
X0048099D01*
X0048683Y0049882D01*
Y0048716D01*
X0048099Y0048133D01*
X0046350D01*
X0049849Y0050465D02*
Y0046966D01*
X0052181D01*
X0055097Y0050465D02*
X0053931D01*
X0053348Y0049882D01*
Y0047550D01*
X0053931Y0046966D01*
X0055097D01*
X0055680Y0047550D01*
Y0049882D01*
X0055097Y0050465D01*
X0056847D02*
X0059179D01*
X0058013D01*
Y0046966D01*
X0063844D02*
Y0050465D01*
X0066177Y0046966D01*
Y0050465D01*
X0067343Y0046966D02*
Y0049299D01*
X0068510Y0050465D01*
X0069676Y0049299D01*
Y0046966D01*
Y0048716D01*
X0067343D01*
X0070842Y0046966D02*
Y0050465D01*
X0072008Y0049299D01*
X0073175Y0050465D01*
Y0046966D01*
X0076674Y0050465D02*
X0074341D01*
Y0046966D01*
X0076674D01*
X0074341Y0048716D02*
X0075507D01*
X0081339Y0048133D02*
X0083671D01*
X0081339Y0049299D02*
X0083671D01*
X0046350Y0087833D02*
Y0090166D01*
X0047516Y0091332D01*
X0048683Y0090166D01*
Y0087833D01*
Y0089583D01*
X0046350D01*
X0049849Y0091332D02*
Y0087833D01*
X0052181D01*
X0053348Y0091332D02*
Y0087833D01*
X0055680D01*
X0060346D02*
Y0090166D01*
X0061512Y0091332D01*
X0062678Y0090166D01*
Y0087833D01*
Y0089583D01*
X0060346D01*
X0063844Y0087833D02*
Y0091332D01*
X0065594D01*
X0066177Y0090749D01*
Y0089583D01*
X0065594Y0089000D01*
X0063844D01*
X0065011D02*
X0066177Y0087833D01*
X0067343Y0091332D02*
X0069676D01*
X0068510D01*
Y0087833D01*
X0070842Y0091332D02*
Y0087833D01*
X0072008Y0089000D01*
X0073175Y0087833D01*
Y0091332D01*
X0076090D02*
X0074924D01*
X0074341Y0090749D01*
Y0088416D01*
X0074924Y0087833D01*
X0076090D01*
X0076674Y0088416D01*
Y0090749D01*
X0076090Y0091332D01*
X0077840Y0087833D02*
Y0091332D01*
X0079589D01*
X0080172Y0090749D01*
Y0089583D01*
X0079589Y0089000D01*
X0077840D01*
X0079006D02*
X0080172Y0087833D01*
X0081339Y0091332D02*
Y0087833D01*
Y0089000D01*
X0083671Y0091332D01*
X0081922Y0089583D01*
X0083671Y0087833D01*
X0088336Y0091332D02*
Y0089000D01*
X0089503Y0087833D01*
X0090669Y0089000D01*
Y0091332D01*
X0091835D02*
X0093002D01*
X0092418D01*
Y0087833D01*
X0091835D01*
X0093002D01*
X0097084Y0091332D02*
X0094751D01*
Y0087833D01*
X0097084D01*
X0094751Y0089583D02*
X0095917D01*
X0098250Y0091332D02*
Y0087833D01*
X0099416Y0089000D01*
X0100583Y0087833D01*
Y0091332D01*
X0104081D02*
X0101749D01*
Y0087833D01*
X0104081D01*
X0101749Y0089583D02*
X0102915D01*
X0105248Y0091332D02*
Y0087833D01*
X0106997D01*
X0107580Y0088416D01*
Y0090749D01*
X0106997Y0091332D01*
X0105248D01*
X0114578D02*
X0112245D01*
Y0089583D01*
X0113412D01*
X0112245D01*
Y0087833D01*
X0115744D02*
Y0091332D01*
X0117494D01*
X0118077Y0090749D01*
Y0089583D01*
X0117494Y0089000D01*
X0115744D01*
X0116911D02*
X0118077Y0087833D01*
X0120993Y0091332D02*
X0119826D01*
X0119243Y0090749D01*
Y0088416D01*
X0119826Y0087833D01*
X0120993D01*
X0121576Y0088416D01*
Y0090749D01*
X0120993Y0091332D01*
X0122742Y0087833D02*
Y0091332D01*
X0123908Y0090166D01*
X0125075Y0091332D01*
Y0087833D01*
X0129740Y0091332D02*
X0132072D01*
X0130906D01*
Y0087833D01*
X0134988Y0091332D02*
X0133822D01*
X0133239Y0090749D01*
Y0088416D01*
X0133822Y0087833D01*
X0134988D01*
X0135571Y0088416D01*
Y0090749D01*
X0134988Y0091332D01*
X0136738Y0087833D02*
Y0091332D01*
X0138487D01*
X0139070Y0090749D01*
Y0089583D01*
X0138487Y0089000D01*
X0136738D01*
X0146068Y0090749D02*
X0145485Y0091332D01*
X0144318D01*
X0143735Y0090749D01*
Y0090166D01*
X0144318Y0089583D01*
X0145485D01*
X0146068Y0089000D01*
Y0088416D01*
X0145485Y0087833D01*
X0144318D01*
X0143735Y0088416D01*
X0147234Y0091332D02*
X0148400D01*
X0147817D01*
Y0087833D01*
X0147234D01*
X0148400D01*
X0150150Y0091332D02*
Y0087833D01*
X0151899D01*
X0152482Y0088416D01*
Y0090749D01*
X0151899Y0091332D01*
X0150150D01*
X0155981D02*
X0153649D01*
Y0087833D01*
X0155981D01*
X0153649Y0089583D02*
X0154815D01*
G54D19*
X0859317Y0525976D02*
Y0533122D01*
X0856870D02*
X0859317D01*
X0856870Y0525976D02*
Y0533122D01*
Y0525976D02*
X0859317D01*
X0880851Y0526242D02*
X0887020D01*
X0880851Y0523513D02*
Y0526242D01*
Y0523513D02*
X0887020D01*
Y0526242D01*
X0884637Y0394177D02*
X0891087D01*
X0884637Y0391516D02*
Y0394177D01*
Y0391516D02*
X0891087D01*
Y0394177D01*
X0868380Y0664060D02*
X0870827D01*
X0868380D02*
Y0671207D01*
X0870827D01*
Y0664060D02*
Y0671207D01*
X0840759Y0632412D02*
X0843206D01*
Y0625265D02*
Y0632412D01*
X0840759Y0625265D02*
X0843206D01*
X0840759D02*
Y0632412D01*
X0870830Y0531720D02*
X0877976D01*
Y0534167D01*
X0870830D02*
X0877976D01*
X0870830Y0531720D02*
Y0534167D01*
X0874359Y0508312D02*
X0876806D01*
Y0501165D02*
Y0508312D01*
X0874359Y0501165D02*
X0876806D01*
X0874359D02*
Y0508312D01*
X0832994Y0632122D02*
X0835441D01*
Y0624976D02*
Y0632122D01*
X0832994Y0624976D02*
X0835441D01*
X0832994D02*
Y0632122D01*
X0844411Y0625202D02*
Y0632349D01*
Y0625202D02*
X0846858D01*
Y0632349D01*
X0844411D02*
X0846858D01*
X0868003Y0663840D02*
Y0670987D01*
X0865555D02*
X0868003D01*
X0865555Y0663840D02*
Y0670987D01*
Y0663840D02*
X0868003D01*
X0873909D02*
Y0670987D01*
X0871462D02*
X0873909D01*
X0871462Y0663840D02*
Y0670987D01*
Y0663840D02*
X0873909D01*
X0836859Y0632312D02*
X0839306D01*
Y0625165D02*
Y0632312D01*
X0836859Y0625165D02*
X0839306D01*
X0836859D02*
Y0632312D01*
X0883992Y0446944D02*
Y0454390D01*
Y0446944D02*
X0886751D01*
Y0454390D01*
X0883992D02*
X0886751D01*
X0874470Y0664024D02*
X0876917D01*
X0874470D02*
Y0671170D01*
X0876917D01*
Y0664024D02*
Y0671170D01*
X0864488Y0596142D02*
X0871934D01*
X0864488Y0593383D02*
Y0596142D01*
Y0593383D02*
X0871934D01*
Y0596142D01*
X0868509Y0483875D02*
X0875656D01*
X0868509Y0481428D02*
Y0483875D01*
Y0481428D02*
X0875656D01*
Y0483875D01*
X0885959Y0462665D02*
Y0469812D01*
Y0462665D02*
X0888406D01*
Y0469812D01*
X0885959D02*
X0888406D01*
X0882684Y0455490D02*
Y0457937D01*
X0889831D01*
Y0455490D02*
Y0457937D01*
X0882684Y0455490D02*
X0889831D01*
X0626556Y0664328D02*
Y0666775D01*
X0619409Y0664328D02*
X0626556D01*
X0619409D02*
Y0666775D01*
X0626556D01*
X0858772Y0597628D02*
X0861219D01*
X0858772D02*
Y0604775D01*
X0861219D01*
Y0597628D02*
Y0604775D01*
X0864272Y0597478D02*
X0866719D01*
X0864272D02*
Y0604625D01*
X0866719D01*
Y0597478D02*
Y0604625D01*
X0890718Y0381616D02*
Y0384277D01*
X0884268Y0381616D02*
X0890718D01*
X0884268D02*
Y0384277D01*
X0890718D01*
X0884268Y0388977D02*
X0890718D01*
X0884268Y0386316D02*
Y0388977D01*
Y0386316D02*
X0890718D01*
Y0388977D01*
X0393609Y0669400D02*
X0400756D01*
X0393609Y0666953D02*
Y0669400D01*
Y0666953D02*
X0400756D01*
Y0669400D01*
X0396519Y0677978D02*
Y0685125D01*
X0394072D02*
X0396519D01*
X0394072Y0677978D02*
Y0685125D01*
Y0677978D02*
X0396519D01*
X0406106Y0491028D02*
Y0493475D01*
X0398959Y0491028D02*
X0406106D01*
X0398959D02*
Y0493475D01*
X0406106D01*
G54D25*
X0874839Y0583145D02*
X0875089Y0583395D01*
X0875588D01*
X0875838Y0583145D01*
Y0582145D01*
X0875588Y0581895D01*
X0875089D01*
X0874839Y0582145D01*
X0874339Y0581895D02*
Y0583395D01*
X0873589D01*
X0873339Y0583145D01*
Y0582645D01*
X0873589Y0582395D01*
X0874339D01*
X0873839D02*
X0873339Y0581895D01*
X0872839Y0583395D02*
X0871840D01*
Y0583145D01*
X0872839Y0582145D01*
Y0581895D01*
X0884189Y0583145D02*
X0884439Y0583395D01*
X0884938D01*
X0885188Y0583145D01*
Y0582145D01*
X0884938Y0581895D01*
X0884439D01*
X0884189Y0582145D01*
X0883689Y0581895D02*
Y0583395D01*
X0882939D01*
X0882689Y0583145D01*
Y0582645D01*
X0882939Y0582395D01*
X0883689D01*
X0883189D02*
X0882689Y0581895D01*
X0881190Y0583395D02*
X0881689Y0583145D01*
X0882189Y0582645D01*
Y0582145D01*
X0881939Y0581895D01*
X0881439D01*
X0881190Y0582145D01*
Y0582395D01*
X0881439Y0582645D01*
X0882189D01*
X0875298Y0576626D02*
X0875548Y0576876D01*
X0876047D01*
X0876297Y0576626D01*
Y0575627D01*
X0876047Y0575377D01*
X0875548D01*
X0875298Y0575627D01*
X0874798Y0575377D02*
Y0576876D01*
X0874048D01*
X0873798Y0576626D01*
Y0576126D01*
X0874048Y0575877D01*
X0874798D01*
X0874298D02*
X0873798Y0575377D01*
X0872299Y0576876D02*
X0873298D01*
Y0576126D01*
X0872798Y0576376D01*
X0872548D01*
X0872299Y0576126D01*
Y0575627D01*
X0872548Y0575377D01*
X0873048D01*
X0873298Y0575627D01*
X0260913Y0567095D02*
Y0568595D01*
X0260163D01*
X0259913Y0568345D01*
Y0567845D01*
X0260163Y0567595D01*
X0260913D01*
X0260413D02*
X0259913Y0567095D01*
X0259414D02*
X0258914D01*
X0259164D01*
Y0568595D01*
X0259414Y0568345D01*
X0258164D02*
X0257914Y0568595D01*
X0257414D01*
X0257164Y0568345D01*
Y0568095D01*
X0257414Y0567845D01*
X0257164Y0567595D01*
Y0567345D01*
X0257414Y0567095D01*
X0257914D01*
X0258164Y0567345D01*
Y0567595D01*
X0257914Y0567845D01*
X0258164Y0568095D01*
Y0568345D01*
X0257914Y0567845D02*
X0257414D01*
X0255915Y0567095D02*
Y0568595D01*
X0256664Y0567845D01*
X0255665D01*
X0283713Y0725395D02*
Y0726895D01*
X0282963D01*
X0282714Y0726645D01*
Y0726145D01*
X0282963Y0725895D01*
X0283713D01*
X0283213D02*
X0282714Y0725395D01*
X0282214D02*
X0281714D01*
X0281964D01*
Y0726895D01*
X0282214Y0726645D01*
X0280964D02*
X0280714Y0726895D01*
X0280214D01*
X0279964Y0726645D01*
Y0726395D01*
X0280214Y0726145D01*
X0279964Y0725895D01*
Y0725645D01*
X0280214Y0725395D01*
X0280714D01*
X0280964Y0725645D01*
Y0725895D01*
X0280714Y0726145D01*
X0280964Y0726395D01*
Y0726645D01*
X0280714Y0726145D02*
X0280214D01*
X0278465Y0725395D02*
X0279465D01*
X0278465Y0726395D01*
Y0726645D01*
X0278715Y0726895D01*
X0279215D01*
X0279465Y0726645D01*
X0294988Y0544095D02*
Y0542595D01*
X0294239D01*
X0293989Y0542845D01*
Y0543845D01*
X0294239Y0544095D01*
X0294988D01*
X0293489Y0543845D02*
X0293239Y0544095D01*
X0292739D01*
X0292489Y0543845D01*
Y0543595D01*
X0292739Y0543345D01*
X0292989D01*
X0292739D01*
X0292489Y0543095D01*
Y0542845D01*
X0292739Y0542595D01*
X0293239D01*
X0293489Y0542845D01*
X0291989Y0544095D02*
X0290990D01*
Y0543845D01*
X0291989Y0542845D01*
Y0542595D01*
X0853570Y0698234D02*
Y0696734D01*
X0852820D01*
X0852570Y0696984D01*
Y0697984D01*
X0852820Y0698234D01*
X0853570D01*
X0852070Y0697984D02*
X0851820Y0698234D01*
X0851320D01*
X0851071Y0697984D01*
Y0697734D01*
X0851320Y0697484D01*
X0851570D01*
X0851320D01*
X0851071Y0697234D01*
Y0696984D01*
X0851320Y0696734D01*
X0851820D01*
X0852070Y0696984D01*
X0850571D02*
X0850321Y0696734D01*
X0849821D01*
X0849571Y0696984D01*
Y0697984D01*
X0849821Y0698234D01*
X0850321D01*
X0850571Y0697984D01*
Y0697734D01*
X0850321Y0697484D01*
X0849571D01*
X0873070Y0690834D02*
Y0689334D01*
X0872320D01*
X0872070Y0689584D01*
Y0690584D01*
X0872320Y0690834D01*
X0873070D01*
X0871570Y0690584D02*
X0871320Y0690834D01*
X0870821D01*
X0870571Y0690584D01*
Y0690334D01*
X0870821Y0690084D01*
X0871070D01*
X0870821D01*
X0870571Y0689834D01*
Y0689584D01*
X0870821Y0689334D01*
X0871320D01*
X0871570Y0689584D01*
X0870071Y0690584D02*
X0869821Y0690834D01*
X0869321D01*
X0869071Y0690584D01*
Y0690334D01*
X0869321Y0690084D01*
X0869071Y0689834D01*
Y0689584D01*
X0869321Y0689334D01*
X0869821D01*
X0870071Y0689584D01*
Y0689834D01*
X0869821Y0690084D01*
X0870071Y0690334D01*
Y0690584D01*
X0869821Y0690084D02*
X0869321D01*
X0570313Y0317695D02*
Y0319195D01*
X0569563D01*
X0569313Y0318945D01*
Y0318445D01*
X0569563Y0318195D01*
X0570313D01*
X0569813D02*
X0569313Y0317695D01*
X0567814D02*
X0568814D01*
X0567814Y0318695D01*
Y0318945D01*
X0568064Y0319195D01*
X0568564D01*
X0568814Y0318945D01*
X0567314Y0317695D02*
X0566814D01*
X0567064D01*
Y0319195D01*
X0567314Y0318945D01*
X0566065D02*
X0565815Y0319195D01*
X0565315D01*
X0565065Y0318945D01*
Y0317945D01*
X0565315Y0317695D01*
X0565815D01*
X0566065Y0317945D01*
Y0318945D01*
X0575000Y0334250D02*
Y0335250D01*
X0575250Y0335500D01*
X0575750D01*
X0576000Y0335250D01*
Y0334250D01*
X0575750Y0334000D01*
X0575250D01*
X0575500Y0334500D02*
X0575000Y0334000D01*
X0575250D02*
X0575000Y0334250D01*
X0573501Y0334000D02*
X0574501D01*
X0573501Y0335000D01*
Y0335250D01*
X0573751Y0335500D01*
X0574251D01*
X0574501Y0335250D01*
X0573001D02*
X0572751Y0335500D01*
X0572251D01*
X0572001Y0335250D01*
Y0335000D01*
X0572251Y0334750D01*
X0572001Y0334500D01*
Y0334250D01*
X0572251Y0334000D01*
X0572751D01*
X0573001Y0334250D01*
Y0334500D01*
X0572751Y0334750D01*
X0573001Y0335000D01*
Y0335250D01*
X0572751Y0334750D02*
X0572251D01*
X0573438Y0302795D02*
Y0304295D01*
X0572688D01*
X0572438Y0304045D01*
Y0303545D01*
X0572688Y0303295D01*
X0573438D01*
X0572938D02*
X0572438Y0302795D01*
X0570939D02*
X0571939D01*
X0570939Y0303795D01*
Y0304045D01*
X0571189Y0304295D01*
X0571689D01*
X0571939Y0304045D01*
X0570439D02*
X0570189Y0304295D01*
X0569689D01*
X0569439Y0304045D01*
Y0303045D01*
X0569689Y0302795D01*
X0570189D01*
X0570439Y0303045D01*
Y0304045D01*
X0568939Y0303045D02*
X0568690Y0302795D01*
X0568190D01*
X0567940Y0303045D01*
Y0304045D01*
X0568190Y0304295D01*
X0568690D01*
X0568939Y0304045D01*
Y0303795D01*
X0568690Y0303545D01*
X0567940D01*
X0588989Y0324645D02*
Y0325645D01*
X0589239Y0325895D01*
X0589738D01*
X0589988Y0325645D01*
Y0324645D01*
X0589738Y0324395D01*
X0589239D01*
X0589489Y0324895D02*
X0588989Y0324395D01*
X0589239D02*
X0588989Y0324645D01*
X0587489Y0324395D02*
X0588489D01*
X0587489Y0325395D01*
Y0325645D01*
X0587739Y0325895D01*
X0588239D01*
X0588489Y0325645D01*
X0586989Y0325895D02*
X0585990D01*
Y0325645D01*
X0586989Y0324645D01*
Y0324395D01*
X0690889Y0803645D02*
X0691138Y0803895D01*
X0691638D01*
X0691888Y0803645D01*
Y0802645D01*
X0691638Y0802395D01*
X0691138D01*
X0690889Y0802645D01*
X0690389Y0802395D02*
X0689889D01*
X0690139D01*
Y0803895D01*
X0690389Y0803645D01*
X0689139Y0802395D02*
X0688639D01*
X0688889D01*
Y0803895D01*
X0689139Y0803645D01*
X0687889Y0802645D02*
X0687640Y0802395D01*
X0687140D01*
X0686890Y0802645D01*
Y0803645D01*
X0687140Y0803895D01*
X0687640D01*
X0687889Y0803645D01*
Y0803395D01*
X0687640Y0803145D01*
X0686890D01*
X0857038Y0495595D02*
Y0497095D01*
X0856288D01*
X0856038Y0496845D01*
Y0496345D01*
X0856288Y0496095D01*
X0857038D01*
X0856538D02*
X0856038Y0495595D01*
X0854539D02*
X0855539D01*
X0854539Y0496595D01*
Y0496845D01*
X0854789Y0497095D01*
X0855289D01*
X0855539Y0496845D01*
X0854039D02*
X0853789Y0497095D01*
X0853289D01*
X0853039Y0496845D01*
Y0495845D01*
X0853289Y0495595D01*
X0853789D01*
X0854039Y0495845D01*
Y0496845D01*
X0852540Y0497095D02*
X0851540D01*
Y0496845D01*
X0852540Y0495845D01*
Y0495595D01*
X0837189Y0485445D02*
Y0486445D01*
X0837439Y0486695D01*
X0837938D01*
X0838188Y0486445D01*
Y0485445D01*
X0837938Y0485195D01*
X0837439D01*
X0837689Y0485695D02*
X0837189Y0485195D01*
X0837439D02*
X0837189Y0485445D01*
X0835689Y0485195D02*
X0836689D01*
X0835689Y0486195D01*
Y0486445D01*
X0835939Y0486695D01*
X0836439D01*
X0836689Y0486445D01*
X0834190Y0486695D02*
X0834690Y0486445D01*
X0835189Y0485945D01*
Y0485445D01*
X0834939Y0485195D01*
X0834439D01*
X0834190Y0485445D01*
Y0485695D01*
X0834439Y0485945D01*
X0835189D01*
X0403989Y0510145D02*
Y0511145D01*
X0404239Y0511395D01*
X0404738D01*
X0404988Y0511145D01*
Y0510145D01*
X0404738Y0509895D01*
X0404239D01*
X0404489Y0510395D02*
X0403989Y0509895D01*
X0404239D02*
X0403989Y0510145D01*
X0402489Y0509895D02*
X0403489D01*
X0402489Y0510895D01*
Y0511145D01*
X0402739Y0511395D01*
X0403239D01*
X0403489Y0511145D01*
X0400990Y0511395D02*
X0401989D01*
Y0510645D01*
X0401489Y0510895D01*
X0401239D01*
X0400990Y0510645D01*
Y0510145D01*
X0401239Y0509895D01*
X0401739D01*
X0401989Y0510145D01*
X0405389Y0672345D02*
Y0671345D01*
X0405139Y0671095D01*
X0404639D01*
X0404390Y0671345D01*
Y0672345D01*
X0404639Y0672595D01*
X0405139D01*
X0404889Y0672095D02*
X0405389Y0672595D01*
X0405139D02*
X0405389Y0672345D01*
X0406889Y0672595D02*
X0405889D01*
X0406889Y0671595D01*
Y0671345D01*
X0406639Y0671095D01*
X0406139D01*
X0405889Y0671345D01*
X0408138Y0672595D02*
Y0671095D01*
X0407389Y0671845D01*
X0408388D01*
X0411838Y0492345D02*
X0412088Y0492595D01*
X0412588D01*
X0412838Y0492345D01*
Y0491345D01*
X0412588Y0491095D01*
X0412088D01*
X0411838Y0491345D01*
X0410339Y0491095D02*
X0411339D01*
X0410339Y0492095D01*
Y0492345D01*
X0410589Y0492595D01*
X0411089D01*
X0411339Y0492345D01*
X0409839D02*
X0409589Y0492595D01*
X0409089D01*
X0408839Y0492345D01*
Y0492095D01*
X0409089Y0491845D01*
X0409339D01*
X0409089D01*
X0408839Y0491595D01*
Y0491345D01*
X0409089Y0491095D01*
X0409589D01*
X0409839Y0491345D01*
X0408340Y0492595D02*
X0407340D01*
Y0492345D01*
X0408340Y0491345D01*
Y0491095D01*
X0387439Y0678445D02*
X0387190Y0678195D01*
X0386690D01*
X0386440Y0678445D01*
Y0679445D01*
X0386690Y0679695D01*
X0387190D01*
X0387439Y0679445D01*
X0388939Y0679695D02*
X0387939D01*
X0388939Y0678695D01*
Y0678445D01*
X0388689Y0678195D01*
X0388189D01*
X0387939Y0678445D01*
X0389439D02*
X0389689Y0678195D01*
X0390189D01*
X0390439Y0678445D01*
Y0679445D01*
X0390189Y0679695D01*
X0389689D01*
X0389439Y0679445D01*
Y0678445D01*
X0391938Y0678195D02*
X0390938D01*
Y0678945D01*
X0391438Y0678695D01*
X0391688D01*
X0391938Y0678945D01*
Y0679445D01*
X0391688Y0679695D01*
X0391188D01*
X0390938Y0679445D01*
X0285689Y0537495D02*
X0285939Y0537744D01*
X0286439D01*
X0286689Y0537495D01*
Y0536495D01*
X0286439Y0536245D01*
X0285939D01*
X0285689Y0536495D01*
X0284190Y0536245D02*
X0285190D01*
X0284190Y0537245D01*
Y0537495D01*
X0284440Y0537744D01*
X0284940D01*
X0285190Y0537495D01*
X0282690Y0536245D02*
X0283690D01*
X0282690Y0537245D01*
Y0537495D01*
X0282940Y0537744D01*
X0283440D01*
X0283690Y0537495D01*
X0282190Y0536495D02*
X0281941Y0536245D01*
X0281441D01*
X0281191Y0536495D01*
Y0537495D01*
X0281441Y0537744D01*
X0281941D01*
X0282190Y0537495D01*
Y0537245D01*
X0281941Y0536995D01*
X0281191D01*
X0275189Y0515295D02*
X0275439Y0515544D01*
X0275939D01*
X0276189Y0515295D01*
Y0514295D01*
X0275939Y0514045D01*
X0275439D01*
X0275189Y0514295D01*
X0273690Y0514045D02*
X0274690D01*
X0273690Y0515045D01*
Y0515295D01*
X0273940Y0515544D01*
X0274440D01*
X0274690Y0515295D01*
X0273190D02*
X0272940Y0515544D01*
X0272440D01*
X0272190Y0515295D01*
Y0515045D01*
X0272440Y0514795D01*
X0272690D01*
X0272440D01*
X0272190Y0514545D01*
Y0514295D01*
X0272440Y0514045D01*
X0272940D01*
X0273190Y0514295D01*
X0271690Y0514045D02*
X0271191D01*
X0271441D01*
Y0515544D01*
X0271690Y0515295D01*
G54D31*
X0736814Y0823818D02*
D03*
G54D32*
X0698638Y0623760D02*
D03*
G54D317*
X0293889Y0540671D02*
D03*
X0302189Y0724354D02*
D03*
M02*
