G04*
G04 #@! TF.GenerationSoftware,Altium Limited,Altium Designer,24.3.1 (35)*
G04*
G04 Layer_Color=16711935*
%FSAX25Y25*%
%MOIN*%
G70*
G04*
G04 #@! TF.SameCoordinates,8ECB5597-4BEE-4FB2-8F1C-C82D3C8D71A6*
G04*
G04*
G04 #@! TF.FilePolarity,Negative*
G04*
G01*
G75*
%ADD13C,0.01000*%
%ADD16C,0.00800*%
%ADD18C,0.00600*%
%ADD38R,0.02200X0.02000*%
%ADD39R,0.04375X0.01775*%
%ADD67R,0.02600X0.02000*%
%ADD79R,0.02200X0.02800*%
%ADD80R,0.02000X0.02400*%
%ADD100R,0.03740X0.04432*%
%ADD108C,0.01300*%
%ADD120R,0.02400X0.02000*%
%ADD121R,0.04432X0.03740*%
%ADD123R,0.02000X0.02600*%
%ADD131R,0.04800X0.03000*%
%ADD136R,0.02000X0.02200*%
%ADD138R,0.02800X0.02200*%
%ADD142R,0.01800X0.02200*%
%ADD144R,0.03098X0.02783*%
%ADD145R,0.03098X0.02783*%
%ADD146R,0.04437X0.04240*%
%ADD180R,0.09161X0.04831*%
%ADD182R,0.02600X0.02800*%
%ADD184R,0.04240X0.04437*%
%ADD189R,0.07783X0.05618*%
%ADD190R,0.05500X0.06800*%
G04:AMPARAMS|DCode=194|XSize=28.62mil|YSize=44.37mil|CornerRadius=8.41mil|HoleSize=0mil|Usage=FLASHONLY|Rotation=180.000|XOffset=0mil|YOffset=0mil|HoleType=Round|Shape=RoundedRectangle|*
%AMROUNDEDRECTD194*
21,1,0.02862,0.02756,0,0,180.0*
21,1,0.01181,0.04437,0,0,180.0*
1,1,0.01681,-0.00591,0.01378*
1,1,0.01681,0.00591,0.01378*
1,1,0.01681,0.00591,-0.01378*
1,1,0.01681,-0.00591,-0.01378*
%
%ADD194ROUNDEDRECTD194*%
%ADD195R,0.02783X0.03098*%
%ADD196R,0.02783X0.03098*%
%ADD197R,0.21366X0.06799*%
G04:AMPARAMS|DCode=201|XSize=28.62mil|YSize=44.37mil|CornerRadius=8.41mil|HoleSize=0mil|Usage=FLASHONLY|Rotation=270.000|XOffset=0mil|YOffset=0mil|HoleType=Round|Shape=RoundedRectangle|*
%AMROUNDEDRECTD201*
21,1,0.02862,0.02756,0,0,270.0*
21,1,0.01181,0.04437,0,0,270.0*
1,1,0.01681,-0.01378,-0.00591*
1,1,0.01681,-0.01378,0.00591*
1,1,0.01681,0.01378,0.00591*
1,1,0.01681,0.01378,-0.00591*
%
%ADD201ROUNDEDRECTD201*%
%ADD202C,0.31996*%
%ADD203C,0.06996*%
G04:AMPARAMS|DCode=204|XSize=77.83mil|YSize=77.83mil|CornerRadius=20.71mil|HoleSize=0mil|Usage=FLASHONLY|Rotation=0.000|XOffset=0mil|YOffset=0mil|HoleType=Round|Shape=RoundedRectangle|*
%AMROUNDEDRECTD204*
21,1,0.07783,0.03642,0,0,0.0*
21,1,0.03642,0.07783,0,0,0.0*
1,1,0.04142,0.01821,-0.01821*
1,1,0.04142,-0.01821,-0.01821*
1,1,0.04142,-0.01821,0.01821*
1,1,0.04142,0.01821,0.01821*
%
%ADD204ROUNDEDRECTD204*%
%ADD205C,0.07783*%
%ADD206C,0.06012*%
G04:AMPARAMS|DCode=207|XSize=60.12mil|YSize=60.12mil|CornerRadius=16.28mil|HoleSize=0mil|Usage=FLASHONLY|Rotation=270.000|XOffset=0mil|YOffset=0mil|HoleType=Round|Shape=RoundedRectangle|*
%AMROUNDEDRECTD207*
21,1,0.06012,0.02756,0,0,270.0*
21,1,0.02756,0.06012,0,0,270.0*
1,1,0.03256,-0.01378,-0.01378*
1,1,0.03256,-0.01378,0.01378*
1,1,0.03256,0.01378,0.01378*
1,1,0.03256,0.01378,-0.01378*
%
%ADD207ROUNDEDRECTD207*%
%ADD208C,0.05000*%
G04:AMPARAMS|DCode=209|XSize=79.8mil|YSize=79.8mil|CornerRadius=21.2mil|HoleSize=0mil|Usage=FLASHONLY|Rotation=0.000|XOffset=0mil|YOffset=0mil|HoleType=Round|Shape=RoundedRectangle|*
%AMROUNDEDRECTD209*
21,1,0.07980,0.03740,0,0,0.0*
21,1,0.03740,0.07980,0,0,0.0*
1,1,0.04240,0.01870,-0.01870*
1,1,0.04240,-0.01870,-0.01870*
1,1,0.04240,-0.01870,0.01870*
1,1,0.04240,0.01870,0.01870*
%
%ADD209ROUNDEDRECTD209*%
%ADD210C,0.07980*%
%ADD211C,0.05413*%
%ADD212C,0.04004*%
%ADD213C,0.05815*%
%ADD214C,0.08500*%
%ADD215C,0.06799*%
G04:AMPARAMS|DCode=216|XSize=67.99mil|YSize=67.99mil|CornerRadius=10.37mil|HoleSize=0mil|Usage=FLASHONLY|Rotation=180.000|XOffset=0mil|YOffset=0mil|HoleType=Round|Shape=RoundedRectangle|*
%AMROUNDEDRECTD216*
21,1,0.06799,0.04724,0,0,180.0*
21,1,0.04724,0.06799,0,0,180.0*
1,1,0.02075,-0.02362,0.02362*
1,1,0.02075,0.02362,0.02362*
1,1,0.02075,0.02362,-0.02362*
1,1,0.02075,-0.02362,-0.02362*
%
%ADD216ROUNDEDRECTD216*%
%ADD217R,0.06819X0.06819*%
%ADD218C,0.06819*%
%ADD219R,0.06584X0.06584*%
%ADD220C,0.06584*%
%ADD221C,0.04616*%
%ADD222R,0.07783X0.07783*%
%ADD223C,0.07783*%
%ADD224R,0.05815X0.05815*%
%ADD225C,0.12508*%
%ADD226C,0.02744*%
%ADD227O,0.06012X0.05028*%
%ADD228C,0.09358*%
%ADD229C,0.10343*%
G04:AMPARAMS|DCode=230|XSize=60.12mil|YSize=60.12mil|CornerRadius=16.28mil|HoleSize=0mil|Usage=FLASHONLY|Rotation=0.000|XOffset=0mil|YOffset=0mil|HoleType=Round|Shape=RoundedRectangle|*
%AMROUNDEDRECTD230*
21,1,0.06012,0.02756,0,0,0.0*
21,1,0.02756,0.06012,0,0,0.0*
1,1,0.03256,0.01378,-0.01378*
1,1,0.03256,-0.01378,-0.01378*
1,1,0.03256,-0.01378,0.01378*
1,1,0.03256,0.01378,0.01378*
%
%ADD230ROUNDEDRECTD230*%
%ADD231R,0.07783X0.07783*%
%ADD232R,0.05815X0.05815*%
%ADD233R,0.06819X0.06819*%
%ADD234C,0.02100*%
%ADD235C,0.01500*%
%ADD236C,0.02468*%
%ADD237C,0.03700*%
%ADD238C,0.01700*%
%ADD286C,0.01000*%
%ADD291R,0.02800X0.03700*%
%ADD292R,0.02400X0.01400*%
%ADD293R,0.05600X0.02200*%
%ADD294R,0.02200X0.05000*%
%ADD295R,0.05750X0.02100*%
%ADD296R,0.08600X0.06500*%
%ADD299R,0.11400X0.28000*%
%ADD302R,0.13800X0.04100*%
%ADD303R,0.47400X0.42200*%
%ADD304R,0.03740X0.03959*%
%ADD305R,0.01775X0.04375*%
%ADD306R,0.03000X0.04800*%
%ADD307R,0.03959X0.03740*%
%ADD308R,0.02200X0.05600*%
%ADD309R,0.04100X0.13800*%
%ADD310R,0.42200X0.47400*%
%ADD311R,0.01400X0.02400*%
%ADD314R,0.08374X0.08374*%
%ADD315R,0.02862X0.06799*%
G36*
X0863760Y0576250D02*
X0863681Y0576254D01*
X0863602Y0576265D01*
X0863524Y0576277D01*
X0863445Y0576297D01*
X0863370Y0576321D01*
X0863295Y0576348D01*
X0863220Y0576376D01*
X0863150Y0576411D01*
X0863079Y0576450D01*
X0863012Y0576490D01*
X0862949Y0576537D01*
X0862886Y0576584D01*
X0862823Y0576636D01*
X0862768Y0576691D01*
X0862713Y0576746D01*
X0862661Y0576809D01*
X0862614Y0576872D01*
X0862567Y0576935D01*
X0862527Y0577006D01*
X0862488Y0577072D01*
X0862453Y0577143D01*
X0862425Y0577218D01*
X0862398Y0577293D01*
X0862374Y0577368D01*
X0862354Y0577447D01*
X0862342Y0577525D01*
X0862331Y0577604D01*
X0862327Y0577683D01*
X0862323Y0577762D01*
X0862327Y0577840D01*
X0862331Y0577919D01*
X0862342Y0577998D01*
X0862354Y0578077D01*
X0862374Y0578155D01*
X0862398Y0578230D01*
X0862425Y0578305D01*
X0862453Y0578380D01*
X0862488Y0578450D01*
X0862527Y0578517D01*
X0862567Y0578588D01*
X0862614Y0578651D01*
X0862661Y0578714D01*
X0862713Y0578777D01*
X0862768Y0578832D01*
X0862823Y0578888D01*
X0862886Y0578939D01*
X0862949Y0578986D01*
X0863012Y0579033D01*
X0863079Y0579073D01*
X0863150Y0579112D01*
X0863220Y0579147D01*
X0863295Y0579175D01*
X0863370Y0579202D01*
X0863445Y0579226D01*
X0863524Y0579246D01*
X0863602Y0579258D01*
X0863681Y0579269D01*
X0863760Y0579273D01*
X0863838Y0579277D01*
X0864626D01*
X0864705Y0579273D01*
X0864783Y0579269D01*
X0864862Y0579258D01*
X0864941Y0579246D01*
X0865020Y0579226D01*
X0865094Y0579202D01*
X0865169Y0579175D01*
X0865244Y0579147D01*
X0865315Y0579112D01*
X0865386Y0579073D01*
X0865453Y0579033D01*
X0865516Y0578986D01*
X0865579Y0578939D01*
X0865642Y0578888D01*
X0865697Y0578832D01*
X0865752Y0578777D01*
X0865803Y0578714D01*
X0865850Y0578651D01*
X0865898Y0578588D01*
X0865937Y0578521D01*
X0865976Y0578450D01*
X0866012Y0578380D01*
X0866039Y0578305D01*
X0866067Y0578230D01*
X0866090Y0578155D01*
X0866110Y0578077D01*
X0866122Y0577998D01*
X0866134Y0577919D01*
X0866138Y0577840D01*
X0866142Y0577762D01*
X0866138Y0577683D01*
X0866134Y0577604D01*
X0866122Y0577525D01*
X0866110Y0577447D01*
X0866090Y0577368D01*
X0866067Y0577293D01*
X0866039Y0577218D01*
X0866012Y0577143D01*
X0865976Y0577072D01*
X0865937Y0577006D01*
X0865898Y0576935D01*
X0865850Y0576872D01*
X0865803Y0576809D01*
X0865752Y0576746D01*
X0865697Y0576691D01*
X0865642Y0576636D01*
X0865579Y0576584D01*
X0865516Y0576537D01*
X0865453Y0576490D01*
X0865382Y0576450D01*
X0865315Y0576411D01*
X0865244Y0576376D01*
X0865169Y0576348D01*
X0865094Y0576321D01*
X0865020Y0576297D01*
X0864941Y0576277D01*
X0864862Y0576265D01*
X0864783Y0576254D01*
X0864705Y0576250D01*
X0864626Y0576246D01*
X0863838D01*
X0863760Y0576250D01*
D02*
G37*
G54D13*
X0559400Y0039400D02*
Y0059683D01*
X0440500Y0040050D02*
X0700200D01*
Y0101050D01*
X0286500Y0040050D02*
Y0101050D01*
X0040000Y0040050D02*
Y0101050D01*
X0040050Y0040050D02*
X0197600D01*
X0040050D02*
Y0101050D01*
Y0101050D02*
X0700200D01*
X0040000Y0040050D02*
X0440500D01*
X0040000Y0060383D02*
X0700000D01*
G54D16*
X0040000Y0080717D02*
X0700200D01*
G54D18*
X0046350Y0071049D02*
Y0067551D01*
X0048683D01*
X0049849D02*
Y0069883D01*
X0051015Y0071049D01*
X0052181Y0069883D01*
Y0067551D01*
Y0069300D01*
X0049849D01*
X0053348Y0071049D02*
Y0070466D01*
X0054514Y0069300D01*
X0055680Y0070466D01*
Y0071049D01*
X0054514Y0069300D02*
Y0067551D01*
X0059179Y0071049D02*
X0056847D01*
Y0067551D01*
X0059179D01*
X0056847Y0069300D02*
X0058013D01*
X0060346Y0067551D02*
Y0071049D01*
X0062095D01*
X0062678Y0070466D01*
Y0069300D01*
X0062095Y0068717D01*
X0060346D01*
X0061512D02*
X0062678Y0067551D01*
X0067343D02*
Y0071049D01*
X0069676Y0067551D01*
Y0071049D01*
X0070842Y0067551D02*
Y0069883D01*
X0072008Y0071049D01*
X0073175Y0069883D01*
Y0067551D01*
Y0069300D01*
X0070842D01*
X0074341Y0067551D02*
Y0071049D01*
X0075507Y0069883D01*
X0076674Y0071049D01*
Y0067551D01*
X0080172Y0071049D02*
X0077840D01*
Y0067551D01*
X0080172D01*
X0077840Y0069300D02*
X0079006D01*
X0084838Y0068717D02*
X0087170D01*
X0084838Y0069883D02*
X0087170D01*
X0046350Y0046966D02*
Y0050465D01*
X0048099D01*
X0048683Y0049882D01*
Y0048716D01*
X0048099Y0048133D01*
X0046350D01*
X0049849Y0050465D02*
Y0046966D01*
X0052181D01*
X0055097Y0050465D02*
X0053931D01*
X0053348Y0049882D01*
Y0047550D01*
X0053931Y0046966D01*
X0055097D01*
X0055680Y0047550D01*
Y0049882D01*
X0055097Y0050465D01*
X0056847D02*
X0059179D01*
X0058013D01*
Y0046966D01*
X0063844D02*
Y0050465D01*
X0066177Y0046966D01*
Y0050465D01*
X0067343Y0046966D02*
Y0049299D01*
X0068510Y0050465D01*
X0069676Y0049299D01*
Y0046966D01*
Y0048716D01*
X0067343D01*
X0070842Y0046966D02*
Y0050465D01*
X0072008Y0049299D01*
X0073175Y0050465D01*
Y0046966D01*
X0076674Y0050465D02*
X0074341D01*
Y0046966D01*
X0076674D01*
X0074341Y0048716D02*
X0075507D01*
X0081339Y0048133D02*
X0083671D01*
X0081339Y0049299D02*
X0083671D01*
X0046350Y0087833D02*
Y0090166D01*
X0047516Y0091332D01*
X0048683Y0090166D01*
Y0087833D01*
Y0089583D01*
X0046350D01*
X0049849Y0091332D02*
Y0087833D01*
X0052181D01*
X0053348Y0091332D02*
Y0087833D01*
X0055680D01*
X0060346D02*
Y0090166D01*
X0061512Y0091332D01*
X0062678Y0090166D01*
Y0087833D01*
Y0089583D01*
X0060346D01*
X0063844Y0087833D02*
Y0091332D01*
X0065594D01*
X0066177Y0090749D01*
Y0089583D01*
X0065594Y0089000D01*
X0063844D01*
X0065011D02*
X0066177Y0087833D01*
X0067343Y0091332D02*
X0069676D01*
X0068510D01*
Y0087833D01*
X0070842Y0091332D02*
Y0087833D01*
X0072008Y0089000D01*
X0073175Y0087833D01*
Y0091332D01*
X0076090D02*
X0074924D01*
X0074341Y0090749D01*
Y0088416D01*
X0074924Y0087833D01*
X0076090D01*
X0076674Y0088416D01*
Y0090749D01*
X0076090Y0091332D01*
X0077840Y0087833D02*
Y0091332D01*
X0079589D01*
X0080172Y0090749D01*
Y0089583D01*
X0079589Y0089000D01*
X0077840D01*
X0079006D02*
X0080172Y0087833D01*
X0081339Y0091332D02*
Y0087833D01*
Y0089000D01*
X0083671Y0091332D01*
X0081922Y0089583D01*
X0083671Y0087833D01*
X0088336Y0091332D02*
Y0089000D01*
X0089503Y0087833D01*
X0090669Y0089000D01*
Y0091332D01*
X0091835D02*
X0093002D01*
X0092418D01*
Y0087833D01*
X0091835D01*
X0093002D01*
X0097084Y0091332D02*
X0094751D01*
Y0087833D01*
X0097084D01*
X0094751Y0089583D02*
X0095917D01*
X0098250Y0091332D02*
Y0087833D01*
X0099416Y0089000D01*
X0100583Y0087833D01*
Y0091332D01*
X0104081D02*
X0101749D01*
Y0087833D01*
X0104081D01*
X0101749Y0089583D02*
X0102915D01*
X0105248Y0091332D02*
Y0087833D01*
X0106997D01*
X0107580Y0088416D01*
Y0090749D01*
X0106997Y0091332D01*
X0105248D01*
X0114578D02*
X0112245D01*
Y0089583D01*
X0113412D01*
X0112245D01*
Y0087833D01*
X0115744D02*
Y0091332D01*
X0117494D01*
X0118077Y0090749D01*
Y0089583D01*
X0117494Y0089000D01*
X0115744D01*
X0116911D02*
X0118077Y0087833D01*
X0120993Y0091332D02*
X0119826D01*
X0119243Y0090749D01*
Y0088416D01*
X0119826Y0087833D01*
X0120993D01*
X0121576Y0088416D01*
Y0090749D01*
X0120993Y0091332D01*
X0122742Y0087833D02*
Y0091332D01*
X0123908Y0090166D01*
X0125075Y0091332D01*
Y0087833D01*
X0129740Y0091332D02*
X0132072D01*
X0130906D01*
Y0087833D01*
X0134988Y0091332D02*
X0133822D01*
X0133239Y0090749D01*
Y0088416D01*
X0133822Y0087833D01*
X0134988D01*
X0135571Y0088416D01*
Y0090749D01*
X0134988Y0091332D01*
X0136738Y0087833D02*
Y0091332D01*
X0138487D01*
X0139070Y0090749D01*
Y0089583D01*
X0138487Y0089000D01*
X0136738D01*
X0146068Y0090749D02*
X0145485Y0091332D01*
X0144318D01*
X0143735Y0090749D01*
Y0090166D01*
X0144318Y0089583D01*
X0145485D01*
X0146068Y0089000D01*
Y0088416D01*
X0145485Y0087833D01*
X0144318D01*
X0143735Y0088416D01*
X0147234Y0091332D02*
X0148400D01*
X0147817D01*
Y0087833D01*
X0147234D01*
X0148400D01*
X0150150Y0091332D02*
Y0087833D01*
X0151899D01*
X0152482Y0088416D01*
Y0090749D01*
X0151899Y0091332D01*
X0150150D01*
X0155981D02*
X0153649D01*
Y0087833D01*
X0155981D01*
X0153649Y0089583D02*
X0154815D01*
G54D38*
X0567889Y0315645D02*
D03*
Y0311645D02*
D03*
X0729689Y0823745D02*
D03*
Y0827745D02*
D03*
G54D39*
X0575046Y0325245D02*
D03*
X0582132Y0322489D02*
D03*
Y0328001D02*
D03*
X0670989Y0618945D02*
D03*
Y0613433D02*
D03*
X0663902Y0616189D02*
D03*
G54D67*
X0865489Y0674845D02*
D03*
X0869889D02*
D03*
X0853589Y0518245D02*
D03*
X0857989D02*
D03*
X0853589Y0521645D02*
D03*
X0857989D02*
D03*
X0853789Y0510845D02*
D03*
X0858189D02*
D03*
X0856089Y0685845D02*
D03*
X0851689D02*
D03*
X0264089Y0567745D02*
D03*
X0268489D02*
D03*
X0858089Y0514545D02*
D03*
X0853689D02*
D03*
G54D79*
X0885389Y0448595D02*
D03*
Y0452695D02*
D03*
G54D80*
X0858086Y0527392D02*
D03*
Y0531692D02*
D03*
X0869597Y0669777D02*
D03*
Y0665477D02*
D03*
X0841989Y0626695D02*
D03*
Y0630995D02*
D03*
X0875589Y0502595D02*
D03*
Y0506895D02*
D03*
X0834224Y0626406D02*
D03*
Y0630706D02*
D03*
X0845641Y0630932D02*
D03*
Y0626632D02*
D03*
X0866772Y0665257D02*
D03*
Y0669557D02*
D03*
X0872679Y0665257D02*
D03*
Y0669557D02*
D03*
X0838089Y0626595D02*
D03*
Y0630895D02*
D03*
X0875687Y0669740D02*
D03*
Y0665441D02*
D03*
X0887189Y0468395D02*
D03*
Y0464095D02*
D03*
X0859989Y0603345D02*
D03*
Y0599045D02*
D03*
X0865489Y0603195D02*
D03*
Y0598895D02*
D03*
X0395289Y0679395D02*
D03*
Y0683695D02*
D03*
G54D100*
X0866889Y0512276D02*
D03*
Y0517613D02*
D03*
X0818489Y0336713D02*
D03*
Y0331376D02*
D03*
G54D108*
X0866128Y0467031D02*
D03*
X0872886Y0471187D02*
D03*
X0885135Y0476664D02*
D03*
X0865931Y0469279D02*
D03*
X0882767Y0439759D02*
D03*
X0896643Y0437501D02*
D03*
X0885272Y0438691D02*
D03*
X0875647Y0474044D02*
D03*
X0872747Y0474299D02*
D03*
X0876001Y0472044D02*
D03*
X0876863Y0474031D02*
D03*
X0878289Y0474345D02*
D03*
X0874447Y0471796D02*
D03*
X0879889Y0474345D02*
D03*
X0881300Y0469933D02*
D03*
X0891466Y0382253D02*
D03*
X0876276Y0466003D02*
D03*
X0891989Y0388499D02*
D03*
Y0395969D02*
D03*
X0887159Y0464352D02*
D03*
X0888219Y0458182D02*
D03*
X0877895Y0464310D02*
D03*
X0881625Y0463795D02*
D03*
X0879611Y0464080D02*
D03*
X0882040Y0466310D02*
D03*
X0886989Y0469897D02*
D03*
X0881648Y0472133D02*
D03*
X0879421Y0469294D02*
D03*
X0882770Y0457690D02*
D03*
X0883659Y0456884D02*
D03*
X0889672Y0459490D02*
D03*
X0885507Y0472300D02*
D03*
X0881691Y0467520D02*
D03*
X0877486Y0469937D02*
D03*
X0874261Y0464077D02*
D03*
X0874181Y0462126D02*
D03*
X0878804Y0467241D02*
D03*
X0870918Y0465277D02*
D03*
X0862557Y0458777D02*
D03*
X0871961Y0460435D02*
D03*
X0866222Y0460612D02*
D03*
X0866457Y0458377D02*
D03*
X0895958Y0455019D02*
D03*
X0890289Y0441645D02*
D03*
X0877797Y0462425D02*
D03*
X0871682Y0462092D02*
D03*
X0879689Y0472145D02*
D03*
X0872425Y0466311D02*
D03*
X0892050Y0454207D02*
D03*
X0897815Y0449976D02*
D03*
X0890390Y0443971D02*
D03*
X0877584Y0466573D02*
D03*
X0875486Y0469937D02*
D03*
X0888287Y0434203D02*
D03*
X0868032Y0460517D02*
D03*
X0883783Y0383012D02*
D03*
X0884336Y0392783D02*
D03*
X0883995Y0387585D02*
D03*
X0897499Y0444116D02*
D03*
X0883718Y0430033D02*
D03*
X0896803Y0431833D02*
D03*
G54D120*
X0872247Y0532950D02*
D03*
X0876547D02*
D03*
X0874239Y0482645D02*
D03*
X0869939D02*
D03*
X0888401Y0456720D02*
D03*
X0884101D02*
D03*
X0620839Y0665545D02*
D03*
X0625139D02*
D03*
X0399339Y0668170D02*
D03*
X0395039D02*
D03*
X0400389Y0492245D02*
D03*
X0404689D02*
D03*
X0670539Y0811345D02*
D03*
X0666239D02*
D03*
G54D121*
X0881157Y0600445D02*
D03*
X0875821D02*
D03*
X0869421Y0487145D02*
D03*
X0874757D02*
D03*
X0849621Y0598445D02*
D03*
X0854957D02*
D03*
X0849720Y0592845D02*
D03*
X0855058D02*
D03*
G54D123*
X0276489Y0722645D02*
D03*
Y0727045D02*
D03*
G54D131*
X0685689Y0609545D02*
D03*
X0698889D02*
D03*
X0863870Y0683584D02*
D03*
X0877070D02*
D03*
G54D136*
X0707689Y0827745D02*
D03*
X0711689D02*
D03*
X0885858Y0392844D02*
D03*
X0889858D02*
D03*
X0889489Y0382945D02*
D03*
X0885489D02*
D03*
Y0387645D02*
D03*
X0889489D02*
D03*
X0848789Y0496245D02*
D03*
X0844789D02*
D03*
X0579789Y0303645D02*
D03*
X0575789D02*
D03*
X0658489Y0627845D02*
D03*
X0662489D02*
D03*
G54D138*
X0866139Y0594745D02*
D03*
X0870239D02*
D03*
G54D142*
X0885799Y0524875D02*
D03*
X0882099D02*
D03*
G54D144*
X0885289Y0440216D02*
D03*
X0885589Y0356374D02*
D03*
G54D145*
X0885289Y0444074D02*
D03*
X0885589Y0352516D02*
D03*
G54D146*
X0876339Y0594145D02*
D03*
X0882639D02*
D03*
X0275439Y0732545D02*
D03*
X0269139D02*
D03*
X0285152Y0734674D02*
D03*
X0291451D02*
D03*
X0277652Y0555516D02*
D03*
X0283951D02*
D03*
X0262239Y0573945D02*
D03*
X0268539D02*
D03*
X0875839Y0606645D02*
D03*
X0882139D02*
D03*
G54D180*
X0278889Y0702449D02*
D03*
Y0715441D02*
D03*
X0274235Y0532594D02*
D03*
Y0519602D02*
D03*
G54D182*
X0892639Y0451845D02*
D03*
X0895939D02*
D03*
G54D184*
X0288389Y0708795D02*
D03*
Y0715095D02*
D03*
X0283389Y0526295D02*
D03*
Y0532594D02*
D03*
X0874489Y0652446D02*
D03*
Y0658745D02*
D03*
X0866189Y0655395D02*
D03*
Y0649095D02*
D03*
G54D189*
X0765489Y0647836D02*
D03*
Y0659254D02*
D03*
X0588489Y0702953D02*
D03*
Y0691536D02*
D03*
X0586889Y0795553D02*
D03*
Y0784136D02*
D03*
X0591912Y0622121D02*
D03*
Y0610703D02*
D03*
X0588489Y0533336D02*
D03*
Y0544754D02*
D03*
X0758489Y0845354D02*
D03*
Y0833936D02*
D03*
G54D190*
X0685589Y0628545D02*
D03*
X0677589D02*
D03*
G54D194*
X0405529Y0686394D02*
D03*
X0401789Y0676945D02*
D03*
X0409269D02*
D03*
X0734649Y0823769D02*
D03*
X0742129D02*
D03*
X0738389Y0814320D02*
D03*
G54D195*
X0878318Y0674945D02*
D03*
X0872799Y0693484D02*
D03*
X0892460Y0439645D02*
D03*
G54D196*
X0874460Y0674945D02*
D03*
X0868941Y0693484D02*
D03*
X0896318Y0439645D02*
D03*
G54D197*
X0688389Y0797081D02*
D03*
Y0776609D02*
D03*
X0719789Y0517581D02*
D03*
Y0497109D02*
D03*
G54D201*
X0689140Y0622185D02*
D03*
X0698589Y0618445D02*
D03*
Y0625925D02*
D03*
X0397365Y0502245D02*
D03*
X0406813Y0498505D02*
D03*
Y0505985D02*
D03*
G54D202*
X0229289Y0917545D02*
D03*
X0536489Y0308745D02*
D03*
X0261289Y0483645D02*
D03*
X0880189Y0719045D02*
D03*
X0863889Y0926645D02*
D03*
X0857089Y0320145D02*
D03*
X0536389Y0483645D02*
D03*
X0262289Y0308745D02*
D03*
G54D203*
X0248689Y0952545D02*
D03*
X0258689D02*
D03*
X0268689D02*
D03*
X0278689D02*
D03*
X0877189Y0342545D02*
D03*
Y0352545D02*
D03*
Y0362545D02*
D03*
Y0372545D02*
D03*
G54D204*
X0485289Y0783345D02*
D03*
X0483089Y0609145D02*
D03*
G54D205*
X0485289Y0763345D02*
D03*
Y0743345D02*
D03*
Y0723345D02*
D03*
Y0703345D02*
D03*
X0565289D02*
D03*
Y0723345D02*
D03*
Y0743345D02*
D03*
Y0763345D02*
D03*
Y0783345D02*
D03*
X0563089Y0609145D02*
D03*
Y0589145D02*
D03*
Y0569145D02*
D03*
Y0549145D02*
D03*
Y0529145D02*
D03*
X0483089D02*
D03*
Y0549145D02*
D03*
Y0569145D02*
D03*
Y0589145D02*
D03*
G54D206*
X0228689Y0606602D02*
D03*
X0240689Y0732745D02*
D03*
X0243332Y0554687D02*
D03*
X0228889Y0662945D02*
D03*
G54D207*
X0228689Y0626287D02*
D03*
X0228889Y0682630D02*
D03*
G54D208*
X0878189Y0452045D02*
D03*
X0848189Y0463545D02*
D03*
X0858989Y0470545D02*
D03*
Y0476545D02*
D03*
G54D209*
X0611789Y0544445D02*
D03*
X0630389Y0703845D02*
D03*
Y0783345D02*
D03*
X0611189Y0606745D02*
D03*
G54D210*
X0631789Y0544445D02*
D03*
X0610389Y0703845D02*
D03*
Y0783345D02*
D03*
X0631189Y0606745D02*
D03*
G54D211*
X0861489Y0625945D02*
D03*
X0887080D02*
D03*
G54D212*
X0855583Y0636378D02*
D03*
X0892985D02*
D03*
G54D213*
X0595235Y0508194D02*
D03*
X0555943D02*
D03*
X0793599Y0788045D02*
D03*
X0587935Y0679145D02*
D03*
X0548643D02*
D03*
X0587935Y0667645D02*
D03*
X0548643D02*
D03*
X0548443Y0805245D02*
D03*
X0587735D02*
D03*
X0548343Y0816345D02*
D03*
X0587635D02*
D03*
X0592435Y0646594D02*
D03*
X0553143D02*
D03*
X0592435Y0634594D02*
D03*
X0553143D02*
D03*
X0555943Y0496695D02*
D03*
X0595235D02*
D03*
X0876189Y0761755D02*
D03*
X0789389Y0544845D02*
D03*
X0777489Y0433955D02*
D03*
G54D214*
X0505689Y0848045D02*
D03*
X0292794Y0464548D02*
D03*
X0275105Y0356801D02*
D03*
X0410389Y0472145D02*
D03*
X0474089Y0471845D02*
D03*
X0430489D02*
D03*
X0451489Y0471945D02*
D03*
X0437719Y0402576D02*
D03*
X0351489Y0356145D02*
D03*
X0257489Y0595445D02*
D03*
X0274305Y0391598D02*
D03*
X0858489Y0672645D02*
D03*
X0858089Y0652045D02*
D03*
X0548489Y0410145D02*
D03*
G54D215*
X0363878Y0579760D02*
D03*
Y0569760D02*
D03*
X0363789Y0752445D02*
D03*
Y0742445D02*
D03*
X0439889Y0732445D02*
D03*
Y0742445D02*
D03*
X0439978Y0559760D02*
D03*
Y0569760D02*
D03*
G54D216*
X0363878Y0559760D02*
D03*
X0363789Y0732445D02*
D03*
X0439889Y0752445D02*
D03*
X0439978Y0579760D02*
D03*
G54D217*
X0886389Y0486145D02*
D03*
G54D218*
X0896389D02*
D03*
X0893489Y0366445D02*
D03*
G54D219*
X0215278Y0867145D02*
D03*
G54D220*
Y0878956D02*
D03*
X0227089Y0867145D02*
D03*
Y0878956D02*
D03*
G54D221*
X0230790Y0855334D02*
D03*
Y0890767D02*
D03*
G54D222*
X0798925Y0662445D02*
D03*
X0619761Y0928745D02*
D03*
X0682389Y0399445D02*
D03*
X0839361Y0848245D02*
D03*
X0830753Y0734845D02*
D03*
X0579925Y0402745D02*
D03*
X0724261Y0401845D02*
D03*
G54D223*
X0828453Y0662445D02*
D03*
X0649289Y0928745D02*
D03*
X0705889Y0867309D02*
D03*
X0631889Y0869209D02*
D03*
X0626789Y0483945D02*
D03*
X0652861Y0399445D02*
D03*
X0701189Y0485773D02*
D03*
X0868889Y0848245D02*
D03*
X0801225Y0734845D02*
D03*
X0812189Y0574781D02*
D03*
X0815989Y0416272D02*
D03*
X0778889Y0854645D02*
D03*
X0557389Y0873073D02*
D03*
X0609453Y0402745D02*
D03*
X0753789Y0401845D02*
D03*
G54D224*
X0807379Y0788045D02*
D03*
X0775609Y0544845D02*
D03*
G54D225*
X0351789Y0619345D02*
D03*
Y0519345D02*
D03*
X0352389Y0792445D02*
D03*
Y0692445D02*
D03*
X0451189D02*
D03*
Y0792445D02*
D03*
X0451278Y0619760D02*
D03*
Y0519760D02*
D03*
G54D226*
X0893760Y0577762D02*
D03*
G54D227*
X0888445Y0569297D02*
D03*
X0869547D02*
D03*
X0888445Y0586226D02*
D03*
X0869547D02*
D03*
G54D228*
X0621289Y0565845D02*
D03*
X0620389Y0684645D02*
D03*
X0621489Y0626645D02*
D03*
X0620389Y0764045D02*
D03*
G54D229*
X0712389Y0528558D02*
D03*
Y0642732D02*
D03*
X0715989Y0800531D02*
D03*
Y0686358D02*
D03*
G54D230*
X0221004Y0732745D02*
D03*
X0223646Y0554687D02*
D03*
G54D231*
X0705889Y0837781D02*
D03*
X0631889Y0839681D02*
D03*
X0626789Y0454417D02*
D03*
X0701189Y0456245D02*
D03*
X0812189Y0604309D02*
D03*
X0815989Y0386745D02*
D03*
X0778889Y0825117D02*
D03*
X0557389Y0843545D02*
D03*
G54D232*
X0876189Y0775535D02*
D03*
X0777489Y0447735D02*
D03*
G54D233*
X0893489Y0356445D02*
D03*
G54D234*
X0866132Y0574153D02*
D03*
X0867632Y0556276D02*
D03*
X0881260Y0546256D02*
D03*
X0847730Y0471463D02*
D03*
X0883394Y0537916D02*
D03*
X0862589Y0599645D02*
D03*
X0880826Y0610304D02*
D03*
X0842789Y0485745D02*
D03*
X0870017Y0448991D02*
D03*
X0889904Y0526839D02*
D03*
X0868985Y0475058D02*
D03*
X0872847Y0476298D02*
D03*
X0883501Y0501377D02*
D03*
X0889088Y0522817D02*
D03*
X0889500Y0524774D02*
D03*
X0889960Y0528893D02*
D03*
X0889354Y0520645D02*
D03*
X0887987Y0505480D02*
D03*
X0853161Y0458954D02*
D03*
X0755489Y0299245D02*
D03*
X0778793Y0299264D02*
D03*
X0773125Y0305065D02*
D03*
X0765346Y0312891D02*
D03*
X0769283Y0312906D02*
D03*
X0757289Y0313045D02*
D03*
X0761489D02*
D03*
X0777126Y0313103D02*
D03*
X0877815Y0536648D02*
D03*
X0879814Y0536570D02*
D03*
X0840808Y0532392D02*
D03*
X0843054Y0465420D02*
D03*
X0786963Y0349855D02*
D03*
X0853989Y0374645D02*
D03*
X0897905Y0520112D02*
D03*
X0898593Y0507460D02*
D03*
X0898018Y0510938D02*
D03*
X0884789Y0534102D02*
D03*
X0899489Y0500045D02*
D03*
X0893126Y0517737D02*
D03*
X0863720Y0375769D02*
D03*
X0852389Y0367045D02*
D03*
X0867728Y0348130D02*
D03*
X0862370Y0518694D02*
D03*
X0862233Y0514368D02*
D03*
X0862314Y0516654D02*
D03*
X0862429Y0520883D02*
D03*
X0855223Y0452388D02*
D03*
X0862737Y0523004D02*
D03*
X0792380Y0333090D02*
D03*
X0802768Y0348569D02*
D03*
X0816512Y0357222D02*
D03*
X0806289Y0346945D02*
D03*
X0867289Y0500245D02*
D03*
X0867347Y0611571D02*
D03*
X0869446Y0611503D02*
D03*
X0860405Y0595362D02*
D03*
X0863075Y0598032D02*
D03*
X0859147Y0539697D02*
D03*
Y0534181D02*
D03*
X0879989Y0584345D02*
D03*
X0888316Y0574259D02*
D03*
X0867889Y0564145D02*
D03*
X0855698Y0527049D02*
D03*
X0875773Y0509557D02*
D03*
X0869331Y0502857D02*
D03*
X0872094Y0534453D02*
D03*
X0866948Y0534481D02*
D03*
X0862534Y0552116D02*
D03*
X0867319Y0508069D02*
D03*
X0877965Y0509613D02*
D03*
X0895903Y0545224D02*
D03*
X0792789Y0326845D02*
D03*
X0793389Y0341545D02*
D03*
X0789715Y0337609D02*
D03*
X0862589Y0462345D02*
D03*
X0860089Y0460845D02*
D03*
X0853783Y0416162D02*
D03*
X0582384Y0330092D02*
D03*
X0578745Y0307707D02*
D03*
X0848713Y0498366D02*
D03*
X0865889Y0484145D02*
D03*
X0550301Y0428837D02*
D03*
X0514561Y0429067D02*
D03*
X0847974Y0485733D02*
D03*
X0844897Y0493654D02*
D03*
X0847688Y0422204D02*
D03*
Y0427783D02*
D03*
X0858778Y0491639D02*
D03*
X0893554Y0551751D02*
D03*
X0898012Y0552430D02*
D03*
X0800229Y0326170D02*
D03*
X0794185Y0319666D02*
D03*
X0796853Y0326277D02*
D03*
X0577522Y0332560D02*
D03*
X0577745Y0300897D02*
D03*
X0582481Y0301288D02*
D03*
X0376882Y0334686D02*
D03*
X0858739Y0404778D02*
D03*
X0809135Y0331135D02*
D03*
X0813799Y0335746D02*
D03*
X0837847Y0357247D02*
D03*
X0844792Y0362448D02*
D03*
X0856155Y0344141D02*
D03*
X0840689Y0339545D02*
D03*
X0831864Y0345374D02*
D03*
X0824315Y0339940D02*
D03*
X0824561Y0333883D02*
D03*
X0819189Y0325245D02*
D03*
X0788989Y0318445D02*
D03*
X0877770Y0619770D02*
D03*
X0867889Y0629445D02*
D03*
X0849889Y0624445D02*
D03*
X0854089Y0624345D02*
D03*
X0865389Y0406945D02*
D03*
X0849436Y0532891D02*
D03*
X0856852Y0454315D02*
D03*
X0855895Y0360355D02*
D03*
X0897949Y0539542D02*
D03*
X0896139Y0537545D02*
D03*
X0845232Y0476736D02*
D03*
X0859789Y0484045D02*
D03*
X0844819Y0518121D02*
D03*
X0895936Y0541657D02*
D03*
X0843489Y0539045D02*
D03*
G54D235*
X0871588Y0469951D02*
D03*
X0874834Y0571648D02*
D03*
X0869712Y0470135D02*
D03*
X0870209Y0468083D02*
D03*
X0869649Y0471888D02*
D03*
X0868316Y0467807D02*
D03*
X0878079Y0578885D02*
D03*
X0880162Y0576159D02*
D03*
X0878022Y0575991D02*
D03*
X0879900Y0579321D02*
D03*
X0879828Y0569766D02*
D03*
X0879859Y0572202D02*
D03*
G54D236*
X0880329Y0518733D02*
D03*
X0875998D02*
D03*
X0871668D02*
D03*
X0880329Y0523064D02*
D03*
X0875998D02*
D03*
X0871668D02*
D03*
X0880329Y0527394D02*
D03*
X0875998D02*
D03*
X0871668D02*
D03*
X0308016Y0396048D02*
D03*
Y0391323D02*
D03*
X0311559D02*
D03*
Y0396048D02*
D03*
X0309788Y0393686D02*
D03*
X0368701Y0388206D02*
D03*
X0366339Y0389978D02*
D03*
X0371063D02*
D03*
Y0386434D02*
D03*
X0366339D02*
D03*
X0309788Y0361298D02*
D03*
X0311559Y0363660D02*
D03*
Y0358936D02*
D03*
X0308016D02*
D03*
Y0363660D02*
D03*
G54D237*
X0783183Y0490947D02*
D03*
X0755717Y0910546D02*
D03*
X0729358Y0918698D02*
D03*
X0779284Y0496573D02*
D03*
X0788565Y0693316D02*
D03*
X0788776Y0710083D02*
D03*
X0842565Y0685979D02*
D03*
X0837981Y0680854D02*
D03*
X0842865Y0681279D02*
D03*
X0874237Y0647965D02*
D03*
X0794785Y0480565D02*
D03*
X0788138Y0460477D02*
D03*
X0799889Y0463445D02*
D03*
X0799789Y0481145D02*
D03*
X0800383Y0453041D02*
D03*
X0771989Y0489445D02*
D03*
X0681789Y0353974D02*
D03*
X0751699Y0506932D02*
D03*
X0734837Y0504699D02*
D03*
X0600758Y0337450D02*
D03*
X0604261Y0340077D02*
D03*
X0685757Y0333752D02*
D03*
X0752940Y0926964D02*
D03*
X0784132Y0472150D02*
D03*
X0752236Y0916789D02*
D03*
X0734304Y0913330D02*
D03*
X0697776Y0353867D02*
D03*
X0679590Y0349353D02*
D03*
X0693989Y0354445D02*
D03*
X0696584Y0333540D02*
D03*
X0797789Y0881505D02*
D03*
Y0885945D02*
D03*
X0732619Y0906781D02*
D03*
X0731689Y0952745D02*
D03*
X0582355Y0320257D02*
D03*
X0874453Y0662265D02*
D03*
X0869665Y0661946D02*
D03*
X0866065Y0661879D02*
D03*
X0662332Y0333894D02*
D03*
X0861729Y0664084D02*
D03*
X0844418Y0634894D02*
D03*
X0839781Y0634498D02*
D03*
X0692682Y0902436D02*
D03*
X0757989Y0788145D02*
D03*
X0781489Y0802545D02*
D03*
X0719644Y0750474D02*
D03*
X0761444Y0750174D02*
D03*
X0719644Y0787274D02*
D03*
X0884170Y0676284D02*
D03*
X0878714Y0694061D02*
D03*
X0376189Y0350445D02*
D03*
X0389889Y0350045D02*
D03*
X0372390Y0334762D02*
D03*
X0499387Y0312072D02*
D03*
X0561589Y0308545D02*
D03*
X0897013Y0672362D02*
D03*
X0882028Y0633918D02*
D03*
X0882235Y0645587D02*
D03*
X0842243Y0638178D02*
D03*
X0418236Y0306541D02*
D03*
X0364360Y0300801D02*
D03*
X0372896Y0328476D02*
D03*
X0394371Y0326370D02*
D03*
X0394508Y0330393D02*
D03*
X0470000Y0355846D02*
D03*
X0462928Y0349463D02*
D03*
X0489011Y0307997D02*
D03*
X0495761Y0339040D02*
D03*
X0560789Y0312445D02*
D03*
X0544721Y0344932D02*
D03*
X0542315Y0348569D02*
D03*
X0568694Y0322022D02*
D03*
X0568883Y0334587D02*
D03*
X0588534Y0329485D02*
D03*
X0593258Y0321313D02*
D03*
X0604076Y0316211D02*
D03*
X0630718Y0315125D02*
D03*
X0612295Y0315928D02*
D03*
X0611823Y0342476D02*
D03*
X0625663Y0343090D02*
D03*
X0626192Y0299456D02*
D03*
X0648197Y0296658D02*
D03*
X0671789Y0342445D02*
D03*
X0631175Y0343093D02*
D03*
X0670270Y0303651D02*
D03*
X0671189Y0317245D02*
D03*
X0678432Y0906670D02*
D03*
X0693051Y0895670D02*
D03*
X0715258Y0913873D02*
D03*
X0683799Y0895368D02*
D03*
X0714208Y0918373D02*
D03*
G54D238*
X0868957Y0465111D02*
D03*
X0889397Y0463498D02*
D03*
X0860739Y0465024D02*
D03*
X0870943Y0463335D02*
D03*
X0868932Y0463322D02*
D03*
X0878798Y0461337D02*
D03*
G54D286*
X0397489Y0664045D02*
D03*
X0395914D02*
D03*
X0397489Y0662470D02*
D03*
X0395914D02*
D03*
X0623576Y0661532D02*
D03*
X0622002D02*
D03*
X0623576Y0659958D02*
D03*
X0622002D02*
D03*
G54D291*
X0892039Y0446445D02*
D03*
X0897539D02*
D03*
G54D292*
X0870989Y0579145D02*
D03*
X0876889D02*
D03*
X0865189Y0607545D02*
D03*
X0859289D02*
D03*
X0886939Y0579245D02*
D03*
X0881039D02*
D03*
G54D293*
X0734389Y0623445D02*
D03*
X0726789Y0627195D02*
D03*
Y0619695D02*
D03*
G54D294*
X0711889Y0630945D02*
D03*
X0708287Y0623345D02*
D03*
X0715491D02*
D03*
G54D295*
X0699689Y0812345D02*
D03*
Y0817345D02*
D03*
Y0822345D02*
D03*
Y0827345D02*
D03*
X0678239D02*
D03*
Y0822345D02*
D03*
Y0817345D02*
D03*
Y0812345D02*
D03*
G54D296*
X0856589Y0582345D02*
D03*
X0843189D02*
D03*
X0230189Y0845745D02*
D03*
X0243589D02*
D03*
G54D299*
X0821839Y0637945D02*
D03*
X0784739D02*
D03*
X0798339Y0759945D02*
D03*
X0835439D02*
D03*
G54D302*
X0775589Y0757945D02*
D03*
Y0777945D02*
D03*
G54D303*
X0740889Y0767945D02*
D03*
G54D304*
X0699189Y0600810D02*
D03*
Y0595080D02*
D03*
G54D305*
X0848045Y0482802D02*
D03*
X0842533D02*
D03*
X0845289Y0489888D02*
D03*
X0576489Y0308502D02*
D03*
X0579245Y0315588D02*
D03*
X0573733D02*
D03*
X0718389Y0829345D02*
D03*
X0723901D02*
D03*
X0721145Y0822258D02*
D03*
G54D306*
X0859370Y0693684D02*
D03*
Y0706884D02*
D03*
X0769089Y0825245D02*
D03*
Y0812045D02*
D03*
G54D307*
X0778354Y0799045D02*
D03*
X0772624D02*
D03*
G54D308*
X0754589Y0814945D02*
D03*
X0758339Y0822545D02*
D03*
X0750839D02*
D03*
G54D309*
X0716589Y0601745D02*
D03*
X0736589D02*
D03*
G54D310*
X0726589Y0567045D02*
D03*
G54D311*
X0869689Y0607995D02*
D03*
Y0602095D02*
D03*
X0874589Y0567295D02*
D03*
Y0573195D02*
D03*
G54D314*
X0293889Y0535145D02*
D03*
Y0519397D02*
D03*
X0302189Y0703080D02*
D03*
Y0718828D02*
D03*
G54D315*
X0866410Y0640216D02*
D03*
Y0615610D02*
D03*
X0870347Y0640216D02*
D03*
Y0615610D02*
D03*
X0874284Y0640216D02*
D03*
Y0615610D02*
D03*
X0878221Y0640216D02*
D03*
Y0615610D02*
D03*
X0882158Y0640216D02*
D03*
Y0615610D02*
D03*
M02*
