G04*
G04 #@! TF.GenerationSoftware,Altium Limited,Altium Designer,24.3.1 (35)*
G04*
G04 Layer_Physical_Order=7*
G04 Layer_Color=8388736*
%FSAX25Y25*%
%MOIN*%
G70*
G04*
G04 #@! TF.SameCoordinates,8ECB5597-4BEE-4FB2-8F1C-C82D3C8D71A6*
G04*
G04*
G04 #@! TF.FilePolarity,Positive*
G04*
G01*
G75*
%ADD13C,0.01000*%
%ADD16C,0.00800*%
%ADD18C,0.00600*%
%ADD25C,0.00400*%
%ADD26C,0.02000*%
%ADD283C,0.01600*%
%ADD284C,0.03200*%
%ADD285C,0.00800*%
%ADD286C,0.01000*%
G36*
X0885089Y0387645D02*
Y0386545D01*
X0870589Y0372045D01*
X0823889D01*
X0794254Y0342410D01*
X0793857Y0342675D01*
X0793389Y0342768D01*
X0792921Y0342675D01*
X0792524Y0342410D01*
X0792259Y0342013D01*
X0792166Y0341545D01*
X0792259Y0341077D01*
X0792524Y0340680D01*
X0790423Y0338579D01*
X0790183Y0338739D01*
X0789715Y0338832D01*
X0789246Y0338739D01*
X0788849Y0338474D01*
X0788584Y0338077D01*
X0788491Y0337609D01*
X0788584Y0337140D01*
X0788745Y0336900D01*
X0767389Y0315545D01*
X0743889Y0315545D01*
X0734989Y0324445D01*
X0667789D01*
X0660289Y0331945D01*
Y0334528D01*
X0661652Y0335778D01*
X0664156D01*
X0670589Y0329345D01*
X0754889D01*
Y0329745D01*
X0805358Y0380214D01*
X0858540Y0380141D01*
X0867144Y0388745D01*
X0883989D01*
X0885089Y0387645D01*
D02*
G37*
G36*
X0701089Y0356245D02*
Y0351785D01*
X0700079Y0350775D01*
X0693735Y0350745D01*
X0681066D01*
X0681032Y0350795D01*
X0680370Y0351237D01*
X0679590Y0351393D01*
X0678809Y0351237D01*
X0678148Y0350795D01*
X0678114Y0350745D01*
X0670908D01*
X0667928Y0347982D01*
X0667919Y0342011D01*
X0668689Y0341089D01*
X0673385Y0336545D01*
X0686489D01*
X0687889Y0335145D01*
Y0331845D01*
X0686689Y0330645D01*
X0671289D01*
X0653789Y0348145D01*
X0615789D01*
X0612103Y0344459D01*
X0611823Y0344515D01*
X0611042Y0344360D01*
X0610381Y0343918D01*
X0609939Y0343256D01*
X0609784Y0342476D01*
X0609839Y0342195D01*
X0602989Y0335345D01*
X0598989D01*
Y0335645D01*
X0597389Y0337245D01*
Y0341681D01*
X0613053Y0357345D01*
X0665689D01*
X0672089Y0357445D01*
X0699689D01*
X0699789Y0357545D01*
X0701089Y0356245D01*
D02*
G37*
G36*
X0717189Y0351245D02*
Y0345045D01*
X0710489Y0338345D01*
X0672789D01*
X0669089Y0342045D01*
Y0347445D01*
X0671467Y0349823D01*
X0677131Y0349850D01*
X0677590Y0349353D01*
Y0348956D01*
X0677894Y0348220D01*
X0678457Y0347658D01*
X0679192Y0347353D01*
X0679988D01*
X0680723Y0347658D01*
X0681285Y0348220D01*
X0681590Y0348956D01*
Y0349751D01*
X0681670Y0349872D01*
X0704606Y0349981D01*
X0709786Y0353845D01*
X0714589D01*
X0717189Y0351245D01*
D02*
G37*
G36*
X0847789Y0355645D02*
X0847789Y0336245D01*
X0802789Y0291245D01*
X0749589D01*
Y0291145D01*
X0590289D01*
X0581604Y0299830D01*
X0581922Y0300219D01*
X0582013Y0300158D01*
X0582481Y0300065D01*
X0582950Y0300158D01*
X0583347Y0300423D01*
X0583612Y0300820D01*
X0583705Y0301288D01*
X0583612Y0301756D01*
X0583347Y0302153D01*
X0582950Y0302419D01*
X0582481Y0302512D01*
X0582013Y0302419D01*
X0581616Y0302153D01*
X0581351Y0301756D01*
X0581258Y0301288D01*
X0581351Y0300820D01*
X0581412Y0300729D01*
X0581023Y0300410D01*
X0578983Y0302451D01*
X0579022Y0302545D01*
Y0304745D01*
X0578895Y0305051D01*
X0578589Y0305178D01*
X0576989D01*
X0576683Y0305051D01*
X0576433Y0305001D01*
X0573289Y0308145D01*
Y0318445D01*
X0579089Y0322945D01*
X0591342D01*
X0591609Y0322445D01*
X0591374Y0322094D01*
X0591219Y0321313D01*
X0591374Y0320533D01*
X0591816Y0319871D01*
X0592478Y0319429D01*
X0593258Y0319274D01*
X0594038Y0319429D01*
X0594700Y0319871D01*
X0595142Y0320533D01*
X0595297Y0321313D01*
X0595142Y0322094D01*
X0594907Y0322445D01*
X0595174Y0322945D01*
X0731589D01*
X0746196Y0308338D01*
X0754789Y0308145D01*
X0754989Y0308345D01*
X0794875D01*
X0813273Y0327169D01*
X0813329Y0334223D01*
X0813717Y0334539D01*
X0813799Y0334522D01*
X0814268Y0334615D01*
X0814665Y0334881D01*
X0814930Y0335278D01*
X0815023Y0335746D01*
X0814930Y0336214D01*
X0814665Y0336611D01*
X0814268Y0336876D01*
X0813799Y0336969D01*
X0813738Y0336957D01*
X0813353Y0337276D01*
X0813509Y0357065D01*
X0815469Y0359025D01*
X0844409D01*
X0847789Y0355645D01*
D02*
G37*
G36*
X0754389Y0503545D02*
Y0500745D01*
X0752789Y0499145D01*
X0735389D01*
X0732189Y0502345D01*
Y0505045D01*
X0734289Y0507145D01*
X0750789D01*
X0754389Y0503545D01*
D02*
G37*
G36*
X0887704Y0469946D02*
Y0468760D01*
X0886589Y0467645D01*
X0882482Y0467645D01*
X0882445Y0467832D01*
X0882268Y0468097D01*
X0882004Y0468274D01*
X0881691Y0468336D01*
X0881379Y0468274D01*
X0881115Y0468097D01*
X0880938Y0467832D01*
X0880901Y0467645D01*
X0879496D01*
X0879381Y0467818D01*
X0879116Y0467995D01*
X0878804Y0468057D01*
X0878492Y0467995D01*
X0878227Y0467818D01*
X0878111Y0467645D01*
X0876602D01*
X0874011Y0465054D01*
X0874028Y0464847D01*
X0873949Y0464831D01*
X0873684Y0464654D01*
X0873507Y0464390D01*
X0873445Y0464077D01*
X0873507Y0463765D01*
X0873684Y0463501D01*
X0873855Y0463386D01*
X0873866Y0463004D01*
X0873826Y0462851D01*
X0873604Y0462703D01*
X0873427Y0462438D01*
X0873365Y0462126D01*
X0873427Y0461814D01*
X0873604Y0461549D01*
X0873621Y0461538D01*
X0873722Y0460930D01*
X0873053Y0460262D01*
X0872486Y0459695D01*
X0863936Y0451145D01*
X0854347Y0451145D01*
X0853389Y0452343D01*
Y0453957D01*
X0855077Y0455645D01*
X0857789D01*
X0861309Y0459165D01*
X0861770Y0458919D01*
X0861742Y0458777D01*
X0861804Y0458465D01*
X0861981Y0458200D01*
X0862245Y0458024D01*
X0862557Y0457961D01*
X0862870Y0458024D01*
X0863134Y0458200D01*
X0863311Y0458465D01*
X0863373Y0458777D01*
X0863311Y0459089D01*
X0863134Y0459354D01*
X0862870Y0459531D01*
X0862557Y0459593D01*
X0862416Y0459565D01*
X0862169Y0460025D01*
X0867470Y0465326D01*
X0867853Y0465150D01*
X0867941Y0465090D01*
X0868015Y0464721D01*
X0868236Y0464390D01*
Y0464059D01*
X0868211Y0464043D01*
X0867990Y0463712D01*
X0867913Y0463322D01*
X0867990Y0462932D01*
X0868211Y0462601D01*
X0868542Y0462380D01*
X0868932Y0462302D01*
X0869322Y0462380D01*
X0869653Y0462601D01*
X0870222Y0462614D01*
X0870553Y0462393D01*
X0870683Y0462367D01*
X0870866Y0462092D01*
X0870928Y0461780D01*
X0871105Y0461516D01*
X0871370Y0461339D01*
X0871682Y0461277D01*
X0871994Y0461339D01*
X0872258Y0461516D01*
X0872435Y0461780D01*
X0872497Y0462092D01*
X0872435Y0462404D01*
X0872258Y0462669D01*
X0871885Y0462945D01*
X0871962Y0463335D01*
X0871885Y0463725D01*
X0871664Y0464056D01*
X0871547Y0464134D01*
X0871496Y0464691D01*
X0871506Y0464717D01*
X0871672Y0464965D01*
X0871722Y0465217D01*
X0871905Y0465376D01*
X0872191Y0465542D01*
X0872425Y0465495D01*
X0872738Y0465557D01*
X0873002Y0465734D01*
X0873179Y0465999D01*
X0873241Y0466311D01*
X0873179Y0466623D01*
X0873002Y0466888D01*
X0872738Y0467064D01*
X0872425Y0467126D01*
X0872113Y0467064D01*
X0871849Y0466888D01*
X0871672Y0466623D01*
X0871622Y0466371D01*
X0871439Y0466212D01*
X0871153Y0466046D01*
X0870918Y0466093D01*
X0870606Y0466031D01*
X0870342Y0465854D01*
X0870303Y0465796D01*
X0869734Y0465758D01*
X0869725Y0465762D01*
X0869678Y0465832D01*
X0869347Y0466053D01*
X0868978Y0466126D01*
X0868918Y0466215D01*
X0868742Y0466598D01*
X0869571Y0467427D01*
X0869857Y0467235D01*
X0870209Y0467165D01*
X0870560Y0467235D01*
X0870857Y0467434D01*
X0871056Y0467732D01*
X0871126Y0468083D01*
X0871056Y0468434D01*
X0870865Y0468721D01*
X0871246Y0469102D01*
X0871588Y0469034D01*
X0871939Y0469104D01*
X0872237Y0469303D01*
X0872436Y0469600D01*
X0872503Y0469938D01*
X0872507Y0469953D01*
X0872886Y0470372D01*
X0873198Y0470434D01*
X0873462Y0470611D01*
X0873622Y0470850D01*
X0873696Y0470894D01*
X0874135Y0471042D01*
X0874447Y0470980D01*
X0874759Y0471042D01*
X0874913Y0471145D01*
X0877022D01*
X0877097Y0470922D01*
X0877106Y0470645D01*
X0876910Y0470514D01*
X0876733Y0470249D01*
X0876671Y0469937D01*
X0876733Y0469625D01*
X0876910Y0469360D01*
X0877174Y0469183D01*
X0877486Y0469122D01*
X0877798Y0469183D01*
X0878063Y0469360D01*
X0878127Y0469457D01*
X0878549Y0469313D01*
X0878609Y0469277D01*
X0878667Y0468982D01*
X0878844Y0468718D01*
X0879109Y0468541D01*
X0879421Y0468479D01*
X0879733Y0468541D01*
X0879997Y0468718D01*
X0880174Y0468982D01*
X0880220Y0469211D01*
X0880483Y0469328D01*
X0880721Y0469361D01*
X0880724Y0469356D01*
X0880988Y0469179D01*
X0881300Y0469117D01*
X0881613Y0469179D01*
X0881877Y0469356D01*
X0882054Y0469621D01*
X0882116Y0469933D01*
X0882054Y0470245D01*
X0881877Y0470510D01*
X0881675Y0470645D01*
X0881676Y0470886D01*
X0881758Y0471145D01*
X0886505D01*
X0887704Y0469946D01*
D02*
G37*
G36*
X0879089Y0662100D02*
Y0650345D01*
X0875489Y0646745D01*
Y0637145D01*
X0873554Y0637061D01*
X0873089Y0637508D01*
Y0646390D01*
X0846608Y0671345D01*
X0839232Y0678346D01*
X0837175Y0678328D01*
X0835546Y0679671D01*
X0835496Y0682818D01*
X0839769Y0688645D01*
X0852544D01*
X0879089Y0662100D01*
D02*
G37*
G36*
X0866114Y0647220D02*
X0868389Y0644945D01*
Y0641645D01*
X0851551Y0624807D01*
X0850981Y0624944D01*
X0850906Y0625125D01*
X0850569Y0625462D01*
X0850128Y0625645D01*
X0849650D01*
X0849209Y0625462D01*
X0848872Y0625125D01*
X0848689Y0624684D01*
Y0624206D01*
X0848872Y0623765D01*
X0849209Y0623428D01*
X0849390Y0623353D01*
X0849527Y0622783D01*
X0802389Y0575645D01*
X0797789D01*
X0795589Y0577845D01*
Y0600545D01*
X0842288Y0647244D01*
X0866114Y0647220D01*
D02*
G37*
%LPC*%
G36*
X0863720Y0376992D02*
X0863252Y0376899D01*
X0862855Y0376634D01*
X0862590Y0376237D01*
X0862497Y0375769D01*
X0862590Y0375301D01*
X0862855Y0374904D01*
X0863252Y0374639D01*
X0863720Y0374545D01*
X0864188Y0374639D01*
X0864585Y0374904D01*
X0864851Y0375301D01*
X0864944Y0375769D01*
X0864851Y0376237D01*
X0864585Y0376634D01*
X0864188Y0376899D01*
X0863720Y0376992D01*
D02*
G37*
G36*
X0853989Y0375868D02*
X0853521Y0375775D01*
X0853124Y0375510D01*
X0852859Y0375113D01*
X0852765Y0374645D01*
X0852859Y0374177D01*
X0853124Y0373780D01*
X0853521Y0373515D01*
X0853989Y0373421D01*
X0854457Y0373515D01*
X0854854Y0373780D01*
X0855119Y0374177D01*
X0855212Y0374645D01*
X0855119Y0375113D01*
X0854854Y0375510D01*
X0854457Y0375775D01*
X0853989Y0375868D01*
D02*
G37*
G36*
X0786963Y0351079D02*
X0786494Y0350986D01*
X0786097Y0350720D01*
X0785832Y0350323D01*
X0785739Y0349855D01*
X0785832Y0349387D01*
X0786097Y0348990D01*
X0786494Y0348725D01*
X0786963Y0348632D01*
X0787431Y0348725D01*
X0787828Y0348990D01*
X0788093Y0349387D01*
X0788186Y0349855D01*
X0788093Y0350323D01*
X0787828Y0350720D01*
X0787431Y0350986D01*
X0786963Y0351079D01*
D02*
G37*
G36*
X0681789Y0356013D02*
X0681009Y0355858D01*
X0680347Y0355416D01*
X0679905Y0354754D01*
X0679750Y0353974D01*
X0679905Y0353194D01*
X0680347Y0352532D01*
X0681009Y0352090D01*
X0681789Y0351935D01*
X0682570Y0352090D01*
X0683231Y0352532D01*
X0683673Y0353194D01*
X0683828Y0353974D01*
X0683673Y0354754D01*
X0683231Y0355416D01*
X0682570Y0355858D01*
X0681789Y0356013D01*
D02*
G37*
G36*
X0697776Y0355906D02*
X0696995Y0355751D01*
X0696334Y0355309D01*
X0695892Y0354647D01*
X0695737Y0353867D01*
X0695892Y0353086D01*
X0696334Y0352425D01*
X0696995Y0351983D01*
X0697776Y0351828D01*
X0698556Y0351983D01*
X0699218Y0352425D01*
X0699660Y0353086D01*
X0699815Y0353867D01*
X0699660Y0354647D01*
X0699218Y0355309D01*
X0698556Y0355751D01*
X0697776Y0355906D01*
D02*
G37*
G36*
X0824561Y0335106D02*
X0824092Y0335013D01*
X0823695Y0334748D01*
X0823430Y0334351D01*
X0823337Y0333883D01*
X0823430Y0333414D01*
X0823695Y0333017D01*
X0824092Y0332752D01*
X0824561Y0332659D01*
X0825029Y0332752D01*
X0825426Y0333017D01*
X0825691Y0333414D01*
X0825784Y0333883D01*
X0825691Y0334351D01*
X0825426Y0334748D01*
X0825029Y0335013D01*
X0824561Y0335106D01*
D02*
G37*
G36*
X0819189Y0326468D02*
X0818721Y0326375D01*
X0818324Y0326110D01*
X0818059Y0325713D01*
X0817966Y0325245D01*
X0818059Y0324777D01*
X0818324Y0324380D01*
X0818721Y0324114D01*
X0819189Y0324021D01*
X0819657Y0324114D01*
X0820054Y0324380D01*
X0820319Y0324777D01*
X0820413Y0325245D01*
X0820319Y0325713D01*
X0820054Y0326110D01*
X0819657Y0326375D01*
X0819189Y0326468D01*
D02*
G37*
G36*
X0671189Y0319284D02*
X0670409Y0319129D01*
X0669747Y0318687D01*
X0669305Y0318025D01*
X0669150Y0317245D01*
X0669305Y0316464D01*
X0669747Y0315803D01*
X0670409Y0315361D01*
X0671189Y0315206D01*
X0671969Y0315361D01*
X0672631Y0315803D01*
X0673073Y0316464D01*
X0673228Y0317245D01*
X0673073Y0318025D01*
X0672631Y0318687D01*
X0671969Y0319129D01*
X0671189Y0319284D01*
D02*
G37*
G36*
X0604076Y0318250D02*
X0603295Y0318095D01*
X0602634Y0317653D01*
X0602192Y0316992D01*
X0602036Y0316211D01*
X0602192Y0315431D01*
X0602634Y0314769D01*
X0603295Y0314327D01*
X0604076Y0314172D01*
X0604856Y0314327D01*
X0605517Y0314769D01*
X0605960Y0315431D01*
X0606115Y0316211D01*
X0605960Y0316992D01*
X0605517Y0317653D01*
X0604856Y0318095D01*
X0604076Y0318250D01*
D02*
G37*
G36*
X0612295Y0317967D02*
X0611515Y0317812D01*
X0610853Y0317370D01*
X0610411Y0316708D01*
X0610256Y0315928D01*
X0610411Y0315148D01*
X0610853Y0314486D01*
X0611515Y0314044D01*
X0612295Y0313889D01*
X0613075Y0314044D01*
X0613737Y0314486D01*
X0614179Y0315148D01*
X0614334Y0315928D01*
X0614179Y0316708D01*
X0613737Y0317370D01*
X0613075Y0317812D01*
X0612295Y0317967D01*
D02*
G37*
G36*
X0630718Y0317164D02*
X0629938Y0317009D01*
X0629276Y0316567D01*
X0628834Y0315905D01*
X0628679Y0315125D01*
X0628834Y0314345D01*
X0629276Y0313683D01*
X0629938Y0313241D01*
X0630718Y0313086D01*
X0631498Y0313241D01*
X0632160Y0313683D01*
X0632602Y0314345D01*
X0632757Y0315125D01*
X0632602Y0315905D01*
X0632160Y0316567D01*
X0631498Y0317009D01*
X0630718Y0317164D01*
D02*
G37*
G36*
X0721862Y0315932D02*
X0721081Y0315777D01*
X0720420Y0315335D01*
X0719978Y0314673D01*
X0719822Y0313893D01*
X0719978Y0313112D01*
X0720420Y0312451D01*
X0721081Y0312009D01*
X0721862Y0311854D01*
X0722642Y0312009D01*
X0723304Y0312451D01*
X0723746Y0313112D01*
X0723901Y0313893D01*
X0723746Y0314673D01*
X0723304Y0315335D01*
X0722642Y0315777D01*
X0721862Y0315932D01*
D02*
G37*
G36*
X0685832Y0312387D02*
X0685052Y0312231D01*
X0684390Y0311789D01*
X0683948Y0311128D01*
X0683793Y0310347D01*
X0683948Y0309567D01*
X0684390Y0308906D01*
X0685052Y0308464D01*
X0685832Y0308308D01*
X0686613Y0308464D01*
X0687274Y0308906D01*
X0687716Y0309567D01*
X0687871Y0310347D01*
X0687716Y0311128D01*
X0687274Y0311789D01*
X0686613Y0312231D01*
X0685832Y0312387D01*
D02*
G37*
G36*
X0737041Y0311999D02*
X0736261Y0311844D01*
X0735599Y0311402D01*
X0735157Y0310740D01*
X0735002Y0309960D01*
X0735157Y0309179D01*
X0735599Y0308518D01*
X0736261Y0308076D01*
X0737041Y0307921D01*
X0737822Y0308076D01*
X0738483Y0308518D01*
X0738925Y0309179D01*
X0739080Y0309960D01*
X0738925Y0310740D01*
X0738483Y0311402D01*
X0737822Y0311844D01*
X0737041Y0311999D01*
D02*
G37*
G36*
X0578745Y0308931D02*
X0578277Y0308838D01*
X0577880Y0308572D01*
X0577615Y0308175D01*
X0577522Y0307707D01*
X0577615Y0307239D01*
X0577880Y0306842D01*
X0578277Y0306577D01*
X0578745Y0306484D01*
X0579213Y0306577D01*
X0579610Y0306842D01*
X0579876Y0307239D01*
X0579969Y0307707D01*
X0579876Y0308175D01*
X0579610Y0308572D01*
X0579213Y0308838D01*
X0578745Y0308931D01*
D02*
G37*
G36*
X0670270Y0305690D02*
X0669490Y0305535D01*
X0668828Y0305093D01*
X0668386Y0304431D01*
X0668231Y0303651D01*
X0668386Y0302871D01*
X0668828Y0302209D01*
X0669490Y0301767D01*
X0670270Y0301612D01*
X0671051Y0301767D01*
X0671712Y0302209D01*
X0672154Y0302871D01*
X0672309Y0303651D01*
X0672154Y0304431D01*
X0671712Y0305093D01*
X0671051Y0305535D01*
X0670270Y0305690D01*
D02*
G37*
G36*
X0656723Y0307806D02*
X0655943Y0307650D01*
X0655281Y0307208D01*
X0654839Y0306547D01*
X0654684Y0305766D01*
X0654839Y0304986D01*
X0655281Y0304325D01*
X0655943Y0303882D01*
X0656723Y0303727D01*
X0656950Y0303772D01*
X0656986Y0303755D01*
X0657335Y0303339D01*
X0657223Y0302779D01*
X0657379Y0301999D01*
X0657821Y0301337D01*
X0658482Y0300895D01*
X0659263Y0300740D01*
X0660043Y0300895D01*
X0660705Y0301337D01*
X0661146Y0301999D01*
X0661302Y0302779D01*
X0661146Y0303559D01*
X0660705Y0304221D01*
X0660043Y0304663D01*
X0659263Y0304818D01*
X0659036Y0304773D01*
X0659000Y0304791D01*
X0658651Y0305206D01*
X0658762Y0305766D01*
X0658607Y0306547D01*
X0658165Y0307208D01*
X0657504Y0307650D01*
X0656723Y0307806D01*
D02*
G37*
G36*
X0654748Y0303324D02*
X0653968Y0303169D01*
X0653306Y0302727D01*
X0652864Y0302066D01*
X0652709Y0301285D01*
X0652864Y0300505D01*
X0653306Y0299843D01*
X0653968Y0299401D01*
X0654748Y0299246D01*
X0655528Y0299401D01*
X0656190Y0299843D01*
X0656632Y0300505D01*
X0656787Y0301285D01*
X0656632Y0302066D01*
X0656190Y0302727D01*
X0655528Y0303169D01*
X0654748Y0303324D01*
D02*
G37*
G36*
X0626192Y0301495D02*
X0625412Y0301340D01*
X0624751Y0300898D01*
X0624308Y0300237D01*
X0624153Y0299456D01*
X0624308Y0298676D01*
X0624751Y0298014D01*
X0625412Y0297572D01*
X0626192Y0297417D01*
X0626973Y0297572D01*
X0627634Y0298014D01*
X0628076Y0298676D01*
X0628232Y0299456D01*
X0628076Y0300237D01*
X0627634Y0300898D01*
X0626973Y0301340D01*
X0626192Y0301495D01*
D02*
G37*
G36*
X0648197Y0298698D02*
X0647416Y0298542D01*
X0646755Y0298100D01*
X0646313Y0297439D01*
X0646158Y0296658D01*
X0646313Y0295878D01*
X0646755Y0295216D01*
X0647416Y0294774D01*
X0648197Y0294619D01*
X0648977Y0294774D01*
X0649639Y0295216D01*
X0650081Y0295878D01*
X0650236Y0296658D01*
X0650081Y0297439D01*
X0649639Y0298100D01*
X0648977Y0298542D01*
X0648197Y0298698D01*
D02*
G37*
G36*
X0693468Y0297657D02*
X0692687Y0297502D01*
X0692026Y0297060D01*
X0691584Y0296398D01*
X0691429Y0295618D01*
X0691584Y0294838D01*
X0692026Y0294176D01*
X0692687Y0293734D01*
X0693468Y0293579D01*
X0694248Y0293734D01*
X0694910Y0294176D01*
X0695352Y0294838D01*
X0695507Y0295618D01*
X0695352Y0296398D01*
X0694910Y0297060D01*
X0694248Y0297502D01*
X0693468Y0297657D01*
D02*
G37*
G36*
X0866222Y0461427D02*
X0865910Y0461365D01*
X0865646Y0461188D01*
X0865469Y0460924D01*
X0865407Y0460612D01*
X0865469Y0460299D01*
X0865646Y0460035D01*
X0865910Y0459858D01*
X0866222Y0459796D01*
X0866534Y0459858D01*
X0866799Y0460035D01*
X0866976Y0460299D01*
X0867038Y0460612D01*
X0866976Y0460924D01*
X0866799Y0461188D01*
X0866534Y0461365D01*
X0866222Y0461427D01*
D02*
G37*
G36*
X0866457Y0459193D02*
X0866145Y0459131D01*
X0865881Y0458954D01*
X0865704Y0458689D01*
X0865642Y0458377D01*
X0865704Y0458065D01*
X0865881Y0457800D01*
X0866145Y0457623D01*
X0866457Y0457561D01*
X0866770Y0457623D01*
X0867034Y0457800D01*
X0867211Y0458065D01*
X0867273Y0458377D01*
X0867211Y0458689D01*
X0867034Y0458954D01*
X0866770Y0459131D01*
X0866457Y0459193D01*
D02*
G37*
G36*
X0858489Y0677083D02*
X0857340Y0676932D01*
X0856270Y0676488D01*
X0855351Y0675783D01*
X0854646Y0674864D01*
X0854202Y0673794D01*
X0854051Y0672645D01*
X0854202Y0671496D01*
X0854646Y0670426D01*
X0855351Y0669507D01*
X0856270Y0668801D01*
X0857340Y0668358D01*
X0858489Y0668207D01*
X0859638Y0668358D01*
X0860708Y0668801D01*
X0861627Y0669507D01*
X0862332Y0670426D01*
X0862776Y0671496D01*
X0862927Y0672645D01*
X0862776Y0673794D01*
X0862332Y0674864D01*
X0861627Y0675783D01*
X0860708Y0676488D01*
X0859638Y0676932D01*
X0858489Y0677083D01*
D02*
G37*
G36*
X0869665Y0663985D02*
X0868884Y0663830D01*
X0868223Y0663388D01*
X0868093Y0663194D01*
X0867593D01*
X0867507Y0663321D01*
X0866846Y0663763D01*
X0866065Y0663919D01*
X0865285Y0663763D01*
X0864623Y0663321D01*
X0864181Y0662660D01*
X0864026Y0661879D01*
X0864181Y0661099D01*
X0864623Y0660437D01*
X0865285Y0659996D01*
X0866065Y0659840D01*
X0866846Y0659996D01*
X0867507Y0660437D01*
X0867637Y0660632D01*
X0868137D01*
X0868223Y0660504D01*
X0868884Y0660062D01*
X0869665Y0659907D01*
X0870445Y0660062D01*
X0871107Y0660504D01*
X0871548Y0661166D01*
X0871704Y0661946D01*
X0871548Y0662727D01*
X0871107Y0663388D01*
X0870445Y0663830D01*
X0869665Y0663985D01*
D02*
G37*
G36*
X0861729Y0666123D02*
X0860948Y0665968D01*
X0860287Y0665526D01*
X0859845Y0664864D01*
X0859690Y0664084D01*
X0859845Y0663304D01*
X0860287Y0662642D01*
X0860948Y0662200D01*
X0861729Y0662045D01*
X0862509Y0662200D01*
X0863171Y0662642D01*
X0863613Y0663304D01*
X0863768Y0664084D01*
X0863613Y0664864D01*
X0863171Y0665526D01*
X0862509Y0665968D01*
X0861729Y0666123D01*
D02*
G37*
G36*
X0874453Y0664304D02*
X0873673Y0664149D01*
X0873011Y0663707D01*
X0872569Y0663046D01*
X0872414Y0662265D01*
X0872569Y0661485D01*
X0873011Y0660823D01*
X0873673Y0660381D01*
X0874453Y0660226D01*
X0875234Y0660381D01*
X0875895Y0660823D01*
X0876337Y0661485D01*
X0876493Y0662265D01*
X0876337Y0663046D01*
X0875895Y0663707D01*
X0875234Y0664149D01*
X0874453Y0664304D01*
D02*
G37*
G36*
X0842640Y0640178D02*
X0841845D01*
X0841110Y0639873D01*
X0840547Y0639311D01*
X0840243Y0638576D01*
Y0637780D01*
X0840547Y0637045D01*
X0840816Y0636775D01*
X0840533Y0636351D01*
X0840179Y0636498D01*
X0839383D01*
X0838648Y0636194D01*
X0838085Y0635631D01*
X0837781Y0634896D01*
Y0634100D01*
X0838085Y0633365D01*
X0838648Y0632803D01*
X0839383Y0632498D01*
X0840179D01*
X0840914Y0632803D01*
X0841476Y0633365D01*
X0841781Y0634100D01*
Y0634896D01*
X0841476Y0635631D01*
X0841207Y0635901D01*
X0841490Y0636325D01*
X0841845Y0636178D01*
X0842244D01*
X0842578Y0635678D01*
X0842418Y0635291D01*
Y0634496D01*
X0842723Y0633761D01*
X0843285Y0633198D01*
X0844021Y0632894D01*
X0844816D01*
X0845551Y0633198D01*
X0846114Y0633761D01*
X0846418Y0634496D01*
Y0635291D01*
X0846114Y0636027D01*
X0845551Y0636589D01*
X0844816Y0636894D01*
X0844417D01*
X0844083Y0637394D01*
X0844243Y0637780D01*
Y0638576D01*
X0843938Y0639311D01*
X0843375Y0639873D01*
X0842640Y0640178D01*
D02*
G37*
G36*
X0856011Y0638530D02*
X0855155D01*
X0854364Y0638202D01*
X0853759Y0637597D01*
X0853432Y0636806D01*
Y0635950D01*
X0853759Y0635159D01*
X0854364Y0634554D01*
X0855155Y0634226D01*
X0856011D01*
X0856802Y0634554D01*
X0857408Y0635159D01*
X0857735Y0635950D01*
Y0636806D01*
X0857408Y0637597D01*
X0856802Y0638202D01*
X0856011Y0638530D01*
D02*
G37*
G36*
X0816231Y0608350D02*
X0808147D01*
Y0600267D01*
X0816231D01*
Y0608350D01*
D02*
G37*
%LPD*%
G54D13*
X0550149Y0428685D02*
Y0428827D01*
Y0428685D02*
X0550290D01*
X0559400Y0039400D02*
Y0059683D01*
X0440500Y0040050D02*
X0700200D01*
Y0101050D01*
X0286500Y0040050D02*
Y0101050D01*
X0040000Y0040050D02*
Y0101050D01*
X0040050Y0040050D02*
X0197600D01*
X0040050D02*
Y0101050D01*
Y0101050D02*
X0700200D01*
X0040000Y0040050D02*
X0440500D01*
X0040000Y0060383D02*
X0700000D01*
G54D16*
X0842814Y0409454D02*
X0885270Y0451910D01*
X0604480Y0409454D02*
X0842814D01*
X0592889Y0421045D02*
X0604480Y0409454D01*
X0885270Y0451910D02*
Y0457511D01*
X0879611Y0463170D02*
X0885270Y0457511D01*
X0550290Y0428685D02*
X0553231Y0425745D01*
X0841117D01*
X0879611Y0463170D02*
Y0464080D01*
X0522489Y0421045D02*
X0592889D01*
X0514514Y0429020D02*
X0522489Y0421045D01*
X0841117Y0425745D02*
X0877797Y0462425D01*
X0040000Y0080717D02*
X0700200D01*
G54D18*
X0874480Y0499036D02*
X0885989Y0510545D01*
X0874480Y0485237D02*
Y0499036D01*
X0874476Y0471825D02*
Y0485012D01*
X0875692Y0495831D02*
X0889354Y0509493D01*
X0875647Y0474044D02*
X0875685Y0474082D01*
X0875692Y0474231D02*
Y0495831D01*
X0875685Y0474082D02*
Y0474224D01*
X0875692Y0474231D01*
X0885989Y0510545D02*
Y0523445D01*
X0887319Y0524774D01*
X0889500D01*
X0889354Y0509493D02*
Y0520645D01*
X0046350Y0071049D02*
Y0067551D01*
X0048683D01*
X0049849D02*
Y0069883D01*
X0051015Y0071049D01*
X0052181Y0069883D01*
Y0067551D01*
Y0069300D01*
X0049849D01*
X0053348Y0071049D02*
Y0070466D01*
X0054514Y0069300D01*
X0055680Y0070466D01*
Y0071049D01*
X0054514Y0069300D02*
Y0067551D01*
X0059179Y0071049D02*
X0056847D01*
Y0067551D01*
X0059179D01*
X0056847Y0069300D02*
X0058013D01*
X0060346Y0067551D02*
Y0071049D01*
X0062095D01*
X0062678Y0070466D01*
Y0069300D01*
X0062095Y0068717D01*
X0060346D01*
X0061512D02*
X0062678Y0067551D01*
X0067343D02*
Y0071049D01*
X0069676Y0067551D01*
Y0071049D01*
X0070842Y0067551D02*
Y0069883D01*
X0072008Y0071049D01*
X0073175Y0069883D01*
Y0067551D01*
Y0069300D01*
X0070842D01*
X0074341Y0067551D02*
Y0071049D01*
X0075507Y0069883D01*
X0076674Y0071049D01*
Y0067551D01*
X0080172Y0071049D02*
X0077840D01*
Y0067551D01*
X0080172D01*
X0077840Y0069300D02*
X0079006D01*
X0084838Y0068717D02*
X0087170D01*
X0084838Y0069883D02*
X0087170D01*
X0046350Y0046966D02*
Y0050465D01*
X0048099D01*
X0048683Y0049882D01*
Y0048716D01*
X0048099Y0048133D01*
X0046350D01*
X0049849Y0050465D02*
Y0046966D01*
X0052181D01*
X0055097Y0050465D02*
X0053931D01*
X0053348Y0049882D01*
Y0047550D01*
X0053931Y0046966D01*
X0055097D01*
X0055680Y0047550D01*
Y0049882D01*
X0055097Y0050465D01*
X0056847D02*
X0059179D01*
X0058013D01*
Y0046966D01*
X0063844D02*
Y0050465D01*
X0066177Y0046966D01*
Y0050465D01*
X0067343Y0046966D02*
Y0049299D01*
X0068510Y0050465D01*
X0069676Y0049299D01*
Y0046966D01*
Y0048716D01*
X0067343D01*
X0070842Y0046966D02*
Y0050465D01*
X0072008Y0049299D01*
X0073175Y0050465D01*
Y0046966D01*
X0076674Y0050465D02*
X0074341D01*
Y0046966D01*
X0076674D01*
X0074341Y0048716D02*
X0075507D01*
X0081339Y0048133D02*
X0083671D01*
X0081339Y0049299D02*
X0083671D01*
X0046350Y0087833D02*
Y0090166D01*
X0047516Y0091332D01*
X0048683Y0090166D01*
Y0087833D01*
Y0089583D01*
X0046350D01*
X0049849Y0091332D02*
Y0087833D01*
X0052181D01*
X0053348Y0091332D02*
Y0087833D01*
X0055680D01*
X0060346D02*
Y0090166D01*
X0061512Y0091332D01*
X0062678Y0090166D01*
Y0087833D01*
Y0089583D01*
X0060346D01*
X0063844Y0087833D02*
Y0091332D01*
X0065594D01*
X0066177Y0090749D01*
Y0089583D01*
X0065594Y0089000D01*
X0063844D01*
X0065011D02*
X0066177Y0087833D01*
X0067343Y0091332D02*
X0069676D01*
X0068510D01*
Y0087833D01*
X0070842Y0091332D02*
Y0087833D01*
X0072008Y0089000D01*
X0073175Y0087833D01*
Y0091332D01*
X0076090D02*
X0074924D01*
X0074341Y0090749D01*
Y0088416D01*
X0074924Y0087833D01*
X0076090D01*
X0076674Y0088416D01*
Y0090749D01*
X0076090Y0091332D01*
X0077840Y0087833D02*
Y0091332D01*
X0079589D01*
X0080172Y0090749D01*
Y0089583D01*
X0079589Y0089000D01*
X0077840D01*
X0079006D02*
X0080172Y0087833D01*
X0081339Y0091332D02*
Y0087833D01*
Y0089000D01*
X0083671Y0091332D01*
X0081922Y0089583D01*
X0083671Y0087833D01*
X0088336Y0091332D02*
Y0089000D01*
X0089503Y0087833D01*
X0090669Y0089000D01*
Y0091332D01*
X0091835D02*
X0093002D01*
X0092418D01*
Y0087833D01*
X0091835D01*
X0093002D01*
X0097084Y0091332D02*
X0094751D01*
Y0087833D01*
X0097084D01*
X0094751Y0089583D02*
X0095917D01*
X0098250Y0091332D02*
Y0087833D01*
X0099416Y0089000D01*
X0100583Y0087833D01*
Y0091332D01*
X0104081D02*
X0101749D01*
Y0087833D01*
X0104081D01*
X0101749Y0089583D02*
X0102915D01*
X0105248Y0091332D02*
Y0087833D01*
X0106997D01*
X0107580Y0088416D01*
Y0090749D01*
X0106997Y0091332D01*
X0105248D01*
X0114578D02*
X0112245D01*
Y0089583D01*
X0113412D01*
X0112245D01*
Y0087833D01*
X0115744D02*
Y0091332D01*
X0117494D01*
X0118077Y0090749D01*
Y0089583D01*
X0117494Y0089000D01*
X0115744D01*
X0116911D02*
X0118077Y0087833D01*
X0120993Y0091332D02*
X0119826D01*
X0119243Y0090749D01*
Y0088416D01*
X0119826Y0087833D01*
X0120993D01*
X0121576Y0088416D01*
Y0090749D01*
X0120993Y0091332D01*
X0122742Y0087833D02*
Y0091332D01*
X0123908Y0090166D01*
X0125075Y0091332D01*
Y0087833D01*
X0129740Y0091332D02*
X0132072D01*
X0130906D01*
Y0087833D01*
X0134988Y0091332D02*
X0133822D01*
X0133239Y0090749D01*
Y0088416D01*
X0133822Y0087833D01*
X0134988D01*
X0135571Y0088416D01*
Y0090749D01*
X0134988Y0091332D01*
X0136738Y0087833D02*
Y0091332D01*
X0138487D01*
X0139070Y0090749D01*
Y0089583D01*
X0138487Y0089000D01*
X0136738D01*
X0146068Y0090749D02*
X0145485Y0091332D01*
X0144318D01*
X0143735Y0090749D01*
Y0090166D01*
X0144318Y0089583D01*
X0145485D01*
X0146068Y0089000D01*
Y0088416D01*
X0145485Y0087833D01*
X0144318D01*
X0143735Y0088416D01*
X0147234Y0091332D02*
X0148400D01*
X0147817D01*
Y0087833D01*
X0147234D01*
X0148400D01*
X0150150Y0091332D02*
Y0087833D01*
X0151899D01*
X0152482Y0088416D01*
Y0090749D01*
X0151899Y0091332D01*
X0150150D01*
X0155981D02*
X0153649D01*
Y0087833D01*
X0155981D01*
X0153649Y0089583D02*
X0154815D01*
G54D25*
X0870094Y0468198D02*
X0870209Y0468083D01*
G54D26*
X0739089Y0440145D02*
X0792599Y0493654D01*
X0844897D01*
X0517965Y0440145D02*
X0739089D01*
X0245489Y0576045D02*
X0253589Y0567945D01*
X0254989Y0566545D02*
X0336889D01*
X0353689Y0549745D02*
X0408365D01*
X0336889Y0566545D02*
X0353689Y0549745D01*
X0253589Y0567945D02*
X0254989Y0566545D01*
X0408365Y0549745D02*
X0517965Y0440145D01*
X0245489Y0694502D02*
X0273308Y0722321D01*
X0245489Y0576045D02*
Y0694502D01*
G54D283*
X0889500Y0524774D02*
D03*
X0889354Y0520645D02*
D03*
X0755489Y0299245D02*
D03*
X0778793Y0299264D02*
D03*
X0773125Y0305065D02*
D03*
X0855223Y0452388D02*
D03*
X0816512Y0357222D02*
D03*
X0550301Y0428837D02*
D03*
X0514561Y0429067D02*
D03*
X0844897Y0493654D02*
D03*
X0837847Y0357247D02*
D03*
X0840689Y0339545D02*
D03*
X0831864Y0345374D02*
D03*
X0824315Y0339940D02*
D03*
X0856852Y0454315D02*
D03*
G54D284*
X0874275Y0645005D02*
D03*
X0863305Y0640672D02*
D03*
X0862696Y0645315D02*
D03*
X0800195Y0579514D02*
D03*
X0799943Y0583810D02*
D03*
Y0587602D02*
D03*
X0866275Y0645305D02*
D03*
X0842565Y0685979D02*
D03*
X0837981Y0680854D02*
D03*
X0842865Y0681279D02*
D03*
X0874237Y0647965D02*
D03*
X0751699Y0506932D02*
D03*
X0734837Y0504699D02*
D03*
X0600758Y0337450D02*
D03*
X0604261Y0340077D02*
D03*
X0685757Y0333752D02*
D03*
X0693989Y0354445D02*
D03*
X0713592Y0351489D02*
D03*
X0756806Y0322652D02*
D03*
X0582355Y0320257D02*
D03*
X0662332Y0333894D02*
D03*
X0253589Y0567945D02*
D03*
X0273308Y0722321D02*
D03*
X0671789Y0342445D02*
D03*
G54D285*
X0875647Y0474044D02*
D03*
X0874447Y0471796D02*
D03*
X0879611Y0464080D02*
D03*
X0886989Y0469897D02*
D03*
X0871961Y0460435D02*
D03*
X0877797Y0462425D02*
D03*
X0875486Y0469937D02*
D03*
X0868032Y0460517D02*
D03*
X0883995Y0387585D02*
D03*
G54D286*
X0870209Y0468083D02*
D03*
M02*
