G04*
G04 #@! TF.GenerationSoftware,Altium Limited,Altium Designer,24.3.1 (35)*
G04*
G04 Layer_Physical_Order=3*
G04 Layer_Color=32768*
%FSAX25Y25*%
%MOIN*%
G70*
G04*
G04 #@! TF.SameCoordinates,8ECB5597-4BEE-4FB2-8F1C-C82D3C8D71A6*
G04*
G04*
G04 #@! TF.FilePolarity,Positive*
G04*
G01*
G75*
%ADD13C,0.01000*%
%ADD16C,0.00800*%
%ADD18C,0.00600*%
%ADD240C,0.06000*%
%ADD254C,0.07284*%
G04:AMPARAMS|DCode=256|XSize=55.12mil|YSize=55.12mil|CornerRadius=13.78mil|HoleSize=0mil|Usage=FLASHONLY|Rotation=270.000|XOffset=0mil|YOffset=0mil|HoleType=Round|Shape=RoundedRectangle|*
%AMROUNDEDRECTD256*
21,1,0.05512,0.02756,0,0,270.0*
21,1,0.02756,0.05512,0,0,270.0*
1,1,0.02756,-0.01378,-0.01378*
1,1,0.02756,-0.01378,0.01378*
1,1,0.02756,0.01378,0.01378*
1,1,0.02756,0.01378,-0.01378*
%
%ADD256ROUNDEDRECTD256*%
G04:AMPARAMS|DCode=258|XSize=74.8mil|YSize=74.8mil|CornerRadius=18.7mil|HoleSize=0mil|Usage=FLASHONLY|Rotation=0.000|XOffset=0mil|YOffset=0mil|HoleType=Round|Shape=RoundedRectangle|*
%AMROUNDEDRECTD258*
21,1,0.07480,0.03740,0,0,0.0*
21,1,0.03740,0.07480,0,0,0.0*
1,1,0.03740,0.01870,-0.01870*
1,1,0.03740,-0.01870,-0.01870*
1,1,0.03740,-0.01870,0.01870*
1,1,0.03740,0.01870,0.01870*
%
%ADD258ROUNDEDRECTD258*%
%ADD259C,0.07480*%
%ADD262C,0.05315*%
%ADD263C,0.08000*%
%ADD272C,0.07284*%
G04:AMPARAMS|DCode=279|XSize=55.12mil|YSize=55.12mil|CornerRadius=13.78mil|HoleSize=0mil|Usage=FLASHONLY|Rotation=0.000|XOffset=0mil|YOffset=0mil|HoleType=Round|Shape=RoundedRectangle|*
%AMROUNDEDRECTD279*
21,1,0.05512,0.02756,0,0,0.0*
21,1,0.02756,0.05512,0,0,0.0*
1,1,0.02756,0.01378,-0.01378*
1,1,0.02756,-0.01378,-0.01378*
1,1,0.02756,-0.01378,0.01378*
1,1,0.02756,0.01378,0.01378*
%
%ADD279ROUNDEDRECTD279*%
%ADD280R,0.07284X0.07284*%
%ADD283C,0.01600*%
%ADD284C,0.03200*%
%ADD285C,0.00800*%
%ADD290C,0.06000*%
G36*
X0586589Y0960145D02*
X0591089Y0955645D01*
Y0944845D01*
X0583989Y0937745D01*
X0540489Y0937745D01*
X0535989Y0942245D01*
Y0948545D01*
X0533189Y0951345D01*
X0392889D01*
X0382889Y0941345D01*
X0356495Y0914951D01*
X0326489Y0884945D01*
X0326489Y0874787D01*
X0324144Y0872045D01*
X0311689D01*
X0309589Y0874145D01*
Y0901845D01*
X0295489Y0915945D01*
Y0919981D01*
X0307997Y0929845D01*
X0355089Y0929845D01*
X0360089Y0934845D01*
Y0954745D01*
X0365589Y0960245D01*
X0586589D01*
Y0960145D01*
D02*
G37*
G36*
X0778189Y0901345D02*
Y0864745D01*
Y0858629D01*
X0777834Y0858583D01*
X0776851Y0858175D01*
X0776006Y0857528D01*
X0775358Y0856683D01*
X0774951Y0855700D01*
X0774812Y0854645D01*
X0774951Y0853590D01*
X0775358Y0852607D01*
X0776006Y0851762D01*
X0776851Y0851114D01*
X0777834Y0850707D01*
X0778189Y0850660D01*
Y0829159D01*
X0774847D01*
Y0821076D01*
X0778189D01*
X0778189Y0547902D01*
X0772552D01*
Y0541787D01*
X0778189D01*
Y0498246D01*
X0777843Y0498015D01*
X0777400Y0497353D01*
X0777245Y0496573D01*
X0777400Y0495792D01*
X0777843Y0495131D01*
X0778189Y0494899D01*
Y0470345D01*
X0714611Y0406767D01*
X0714832Y0353597D01*
X0714451Y0353393D01*
X0714332Y0353381D01*
X0713592Y0353528D01*
X0712812Y0353373D01*
X0712151Y0352931D01*
X0711708Y0352270D01*
X0711553Y0351489D01*
X0711708Y0350709D01*
X0712151Y0350047D01*
X0712812Y0349605D01*
X0713592Y0349450D01*
X0714348Y0349600D01*
X0714436Y0349605D01*
X0714849Y0349348D01*
X0714859Y0346874D01*
X0726989Y0334745D01*
X0756389Y0334745D01*
X0763189Y0327945D01*
Y0322645D01*
X0763389Y0322445D01*
X0761606Y0320662D01*
X0761606Y0320662D01*
X0716152D01*
X0705539Y0320695D01*
X0686339Y0320695D01*
X0675289Y0331745D01*
X0660089D01*
X0658811Y0334110D01*
X0658831Y0336510D01*
X0660335Y0338345D01*
X0683189D01*
X0693817Y0348973D01*
X0693815Y0352263D01*
X0693989Y0352406D01*
X0694769Y0352561D01*
X0695431Y0353003D01*
X0695436Y0353010D01*
X0695990Y0352940D01*
X0696334Y0352425D01*
X0696995Y0351983D01*
X0697776Y0351828D01*
X0698556Y0351983D01*
X0699218Y0352425D01*
X0699660Y0353086D01*
X0699815Y0353867D01*
X0699660Y0354647D01*
X0699218Y0355309D01*
X0698556Y0355751D01*
X0697776Y0355906D01*
X0696995Y0355751D01*
X0696334Y0355309D01*
X0696329Y0355301D01*
X0695775Y0355372D01*
X0695431Y0355887D01*
X0694769Y0356329D01*
X0693989Y0356484D01*
X0693813Y0356629D01*
X0693789Y0401445D01*
X0721774Y0429430D01*
X0756789Y0464445D01*
Y0674045D01*
Y0786003D01*
X0757289Y0786245D01*
X0757989Y0786106D01*
X0758769Y0786261D01*
X0759431Y0786703D01*
X0759873Y0787364D01*
X0760028Y0788145D01*
X0759873Y0788925D01*
X0759431Y0789587D01*
X0758769Y0790029D01*
X0757989Y0790184D01*
X0757289Y0790045D01*
X0756789Y0790287D01*
Y0900145D01*
X0691789Y0900145D01*
X0690089Y0901845D01*
Y0904517D01*
X0691817Y0906245D01*
X0699489D01*
X0711718Y0918474D01*
X0712195Y0918244D01*
X0712324Y0917593D01*
X0712767Y0916931D01*
X0713428Y0916489D01*
X0714208Y0916334D01*
X0714989Y0916489D01*
X0715650Y0916931D01*
X0716092Y0917593D01*
X0716248Y0918373D01*
X0716174Y0918745D01*
X0716584Y0919245D01*
X0727034D01*
X0727351Y0918858D01*
X0727319Y0918698D01*
X0727474Y0917918D01*
X0727916Y0917256D01*
X0728578Y0916814D01*
X0729358Y0916659D01*
X0730138Y0916814D01*
X0730800Y0917256D01*
X0731242Y0917918D01*
X0731397Y0918698D01*
X0731365Y0918858D01*
X0731683Y0919245D01*
X0751768D01*
X0751817Y0918745D01*
X0751456Y0918673D01*
X0750794Y0918231D01*
X0750352Y0917569D01*
X0750197Y0916789D01*
X0750352Y0916009D01*
X0750794Y0915347D01*
X0751456Y0914905D01*
X0752236Y0914750D01*
X0753016Y0914905D01*
X0753678Y0915347D01*
X0754120Y0916009D01*
X0754275Y0916789D01*
X0754120Y0917569D01*
X0753678Y0918231D01*
X0753016Y0918673D01*
X0752655Y0918745D01*
X0752704Y0919245D01*
X0760289D01*
X0778189Y0901345D01*
D02*
G37*
G36*
X0288889Y0897245D02*
Y0891845D01*
X0284689Y0887645D01*
X0267489D01*
X0265689Y0889445D01*
Y0894623D01*
X0270662Y0898645D01*
X0287489D01*
X0288889Y0897245D01*
D02*
G37*
G36*
X0323889Y0958561D02*
Y0955645D01*
X0322989Y0954745D01*
X0311089D01*
X0288989Y0932645D01*
Y0916245D01*
X0307389Y0897845D01*
X0307389Y0880819D01*
X0306889Y0880668D01*
X0306612Y0881083D01*
X0305950Y0881525D01*
X0305170Y0881680D01*
X0304389Y0881525D01*
X0303728Y0881083D01*
X0303286Y0880421D01*
X0303131Y0879641D01*
X0303286Y0878860D01*
X0303728Y0878199D01*
X0304389Y0877757D01*
X0305170Y0877602D01*
X0305950Y0877757D01*
X0306612Y0878199D01*
X0306889Y0878614D01*
X0307389Y0878462D01*
Y0873165D01*
X0309821Y0871045D01*
X0325475D01*
X0340978Y0888938D01*
X0340915Y0898218D01*
X0346143Y0903445D01*
X0364189Y0903445D01*
X0451589D01*
X0496589Y0948445D01*
X0531489D01*
X0533789Y0946145D01*
X0533789Y0890845D01*
X0523789Y0880845D01*
X0481818Y0838874D01*
X0481356Y0839119D01*
X0481220Y0839799D01*
X0480778Y0840461D01*
X0480117Y0840903D01*
X0479336Y0841058D01*
X0478556Y0840903D01*
X0477894Y0840461D01*
X0477452Y0839799D01*
X0477297Y0839019D01*
X0477452Y0838239D01*
X0477894Y0837577D01*
X0478556Y0837135D01*
X0479237Y0837000D01*
X0479482Y0836538D01*
X0426189Y0783245D01*
Y0676445D01*
X0439259Y0663375D01*
X0589082Y0662652D01*
X0616535Y0662519D01*
X0616947Y0661903D01*
X0617609Y0661461D01*
X0618389Y0661306D01*
X0619169Y0661461D01*
X0619831Y0661903D01*
X0620273Y0662565D01*
X0620339Y0662894D01*
X0623989Y0666545D01*
X0630289D01*
X0633021Y0663813D01*
X0660789Y0636045D01*
Y0631284D01*
X0660684Y0630755D01*
X0660789Y0630225D01*
Y0629378D01*
X0659689D01*
X0659383Y0629251D01*
X0659256Y0628945D01*
Y0626745D01*
X0659383Y0626439D01*
X0659689Y0626312D01*
X0660789D01*
X0660789Y0595445D01*
X0659389Y0594045D01*
X0656822D01*
X0651489Y0600045D01*
Y0632102D01*
X0630846Y0652745D01*
X0529047D01*
X0528625Y0653376D01*
X0527964Y0653818D01*
X0527183Y0653973D01*
X0526403Y0653818D01*
X0525741Y0653376D01*
X0525320Y0652745D01*
X0441789D01*
X0418389Y0629345D01*
Y0475759D01*
X0434501Y0462345D01*
X0498389D01*
X0546268Y0414466D01*
X0546139Y0413888D01*
X0545351Y0413283D01*
X0544646Y0412364D01*
X0544202Y0411294D01*
X0544051Y0410145D01*
X0544202Y0408996D01*
X0544646Y0407926D01*
X0545351Y0407007D01*
X0546270Y0406301D01*
X0547340Y0405858D01*
X0548489Y0405707D01*
X0549638Y0405858D01*
X0550708Y0406301D01*
X0551627Y0407007D01*
X0552232Y0407795D01*
X0552810Y0407924D01*
X0640887Y0319847D01*
X0761606D01*
X0761606Y0319847D01*
X0761606Y0319847D01*
X0763523D01*
X0845089Y0401412D01*
Y0416738D01*
X0845551Y0416929D01*
X0846895Y0415586D01*
X0846895Y0415586D01*
X0847159Y0415409D01*
X0847472Y0415347D01*
X0847472Y0415347D01*
X0852557D01*
X0852594Y0415330D01*
X0852745Y0415324D01*
X0852794Y0415319D01*
X0852837Y0415311D01*
X0852871Y0415304D01*
X0852896Y0415296D01*
X0852910Y0415290D01*
X0852913Y0415289D01*
X0852925Y0415278D01*
X0852933Y0415276D01*
X0852934Y0415275D01*
X0852938Y0415274D01*
X0852969Y0415263D01*
X0853315Y0415032D01*
X0853783Y0414939D01*
X0854251Y0415032D01*
X0854648Y0415297D01*
X0854914Y0415694D01*
X0855007Y0416162D01*
X0854914Y0416631D01*
X0854648Y0417027D01*
X0854251Y0417293D01*
X0853783Y0417386D01*
X0853315Y0417293D01*
X0852969Y0417062D01*
X0852938Y0417051D01*
X0852934Y0417050D01*
X0852933Y0417049D01*
X0852925Y0417046D01*
X0852913Y0417035D01*
X0852910Y0417034D01*
X0852896Y0417028D01*
X0852871Y0417021D01*
X0852837Y0417013D01*
X0852799Y0417007D01*
X0852675Y0416996D01*
X0852602Y0416995D01*
X0852563Y0416978D01*
X0847810D01*
X0845089Y0419698D01*
Y0462959D01*
X0845589Y0462991D01*
X0845607Y0462853D01*
X0845874Y0462208D01*
X0846299Y0461655D01*
X0846852Y0461230D01*
X0847497Y0460963D01*
X0848189Y0460872D01*
X0848881Y0460963D01*
X0849525Y0461230D01*
X0850079Y0461655D01*
X0850504Y0462208D01*
X0850771Y0462853D01*
X0850862Y0463545D01*
X0850771Y0464237D01*
X0850504Y0464881D01*
X0850079Y0465435D01*
X0849525Y0465860D01*
X0848881Y0466127D01*
X0848189Y0466218D01*
X0847497Y0466127D01*
X0846852Y0465860D01*
X0846299Y0465435D01*
X0845874Y0464881D01*
X0845607Y0464237D01*
X0845589Y0464098D01*
X0845089Y0464131D01*
Y0475395D01*
X0845232Y0475512D01*
X0845700Y0475605D01*
X0846097Y0475871D01*
X0846362Y0476268D01*
X0846455Y0476736D01*
X0846362Y0477204D01*
X0846097Y0477601D01*
X0845700Y0477866D01*
X0845232Y0477959D01*
X0845089Y0478077D01*
Y0492469D01*
X0845366Y0492524D01*
X0845763Y0492789D01*
X0846028Y0493186D01*
X0846121Y0493654D01*
X0846028Y0494123D01*
X0845960Y0494224D01*
X0846235Y0494712D01*
X0847589D01*
X0847895Y0494839D01*
X0848022Y0495145D01*
Y0497345D01*
X0847895Y0497651D01*
X0847589Y0497778D01*
X0845989D01*
X0845683Y0497651D01*
X0845556Y0497345D01*
X0845089Y0497425D01*
Y0516951D01*
X0845288Y0516991D01*
X0845684Y0517256D01*
X0845950Y0517653D01*
X0846043Y0518121D01*
X0845950Y0518589D01*
X0845684Y0518986D01*
X0845288Y0519251D01*
X0845089Y0519291D01*
Y0530510D01*
X0853727Y0538945D01*
X0858206D01*
X0858282Y0538832D01*
X0858679Y0538566D01*
X0859147Y0538473D01*
X0859615Y0538566D01*
X0860012Y0538832D01*
X0860088Y0538945D01*
X0883737D01*
X0884283Y0538586D01*
X0884294Y0535215D01*
X0883924Y0534968D01*
X0883659Y0534571D01*
X0883566Y0534102D01*
X0883659Y0533634D01*
X0883924Y0533237D01*
X0884301Y0532985D01*
X0884373Y0510430D01*
Y0502839D01*
X0884214Y0502708D01*
X0883873Y0502527D01*
X0883501Y0502601D01*
X0883033Y0502508D01*
X0882636Y0502243D01*
X0882371Y0501846D01*
X0882277Y0501377D01*
X0882371Y0500909D01*
X0882636Y0500512D01*
X0882893Y0500340D01*
X0883025Y0499778D01*
X0880303Y0497219D01*
X0857751Y0497109D01*
X0855703Y0495042D01*
X0855878Y0491591D01*
X0858126Y0489464D01*
X0863137Y0489544D01*
X0866372Y0489596D01*
X0868754Y0487287D01*
X0868768Y0476238D01*
X0868517Y0476188D01*
X0868120Y0475923D01*
X0867855Y0475526D01*
X0867761Y0475058D01*
X0867855Y0474590D01*
X0868120Y0474193D01*
X0868517Y0473928D01*
X0868771Y0473877D01*
X0868773Y0472100D01*
X0868731Y0471888D01*
X0868774Y0471673D01*
X0868777Y0469137D01*
X0868316Y0468725D01*
X0867965Y0468655D01*
X0867667Y0468456D01*
X0867468Y0468158D01*
X0867398Y0467807D01*
X0867468Y0467456D01*
X0867667Y0467158D01*
X0867965Y0466959D01*
X0868316Y0466890D01*
X0868664Y0466582D01*
X0868588Y0466057D01*
X0868567Y0466053D01*
X0868236Y0465832D01*
X0868015Y0465501D01*
X0867937Y0465111D01*
X0868015Y0464721D01*
X0868236Y0464390D01*
Y0464059D01*
X0868211Y0464043D01*
X0867990Y0463712D01*
X0867913Y0463322D01*
X0867990Y0462932D01*
X0868211Y0462601D01*
X0868542Y0462380D01*
X0868786Y0462331D01*
X0868803Y0449036D01*
X0868794Y0448991D01*
X0868803Y0448946D01*
X0868891Y0379536D01*
X0841457Y0353173D01*
X0827615Y0353254D01*
X0804319Y0332355D01*
X0798441Y0326815D01*
X0797850Y0326945D01*
X0797718Y0327142D01*
X0797321Y0327408D01*
X0796853Y0327501D01*
X0796385Y0327408D01*
X0795988Y0327142D01*
X0795723Y0326745D01*
X0795630Y0326277D01*
X0795723Y0325809D01*
X0795988Y0325412D01*
X0796126Y0325320D01*
X0796408Y0324898D01*
X0796088Y0318045D01*
X0788623Y0308245D01*
X0687185Y0308245D01*
X0687034Y0308745D01*
X0687274Y0308906D01*
X0687716Y0309567D01*
X0687871Y0310347D01*
X0687716Y0311128D01*
X0687274Y0311789D01*
X0686613Y0312231D01*
X0685832Y0312387D01*
X0685052Y0312231D01*
X0684390Y0311789D01*
X0683948Y0311128D01*
X0683793Y0310347D01*
X0683948Y0309567D01*
X0684390Y0308906D01*
X0684631Y0308745D01*
X0684479Y0308245D01*
X0626289D01*
X0557906Y0376605D01*
X0424392Y0377572D01*
X0384689Y0337870D01*
Y0327065D01*
X0390364Y0322845D01*
X0425459D01*
X0465509Y0360645D01*
X0551889D01*
X0572809Y0339725D01*
X0572387Y0339093D01*
X0572231Y0338313D01*
X0572387Y0337533D01*
X0572829Y0336871D01*
X0573490Y0336429D01*
X0574271Y0336274D01*
X0575051Y0336429D01*
X0575683Y0336851D01*
X0581524Y0331010D01*
X0581519Y0330957D01*
X0581254Y0330560D01*
X0581161Y0330092D01*
X0581254Y0329623D01*
X0581519Y0329226D01*
X0581916Y0328961D01*
X0582384Y0328868D01*
X0582852Y0328961D01*
X0583249Y0329226D01*
X0583302Y0329232D01*
X0588589Y0323945D01*
Y0301824D01*
X0583510Y0296745D01*
X0574589D01*
X0570152Y0301182D01*
X0570152Y0320603D01*
X0570578Y0321241D01*
X0570733Y0322022D01*
X0570578Y0322802D01*
X0570152Y0323441D01*
Y0331482D01*
X0569427Y0332207D01*
X0569572Y0332685D01*
X0569664Y0332703D01*
X0570325Y0333145D01*
X0570767Y0333807D01*
X0570922Y0334587D01*
X0570767Y0335367D01*
X0570325Y0336029D01*
X0569664Y0336471D01*
X0568883Y0336626D01*
X0568103Y0336471D01*
X0567441Y0336029D01*
X0566999Y0335367D01*
X0566981Y0335276D01*
X0566503Y0335131D01*
X0548789Y0352845D01*
X0514489D01*
X0502889Y0341245D01*
X0502889Y0311845D01*
X0500901Y0309857D01*
X0495448Y0310104D01*
X0493475Y0313045D01*
X0488687Y0313065D01*
X0457709Y0313191D01*
X0426512Y0313045D01*
X0422489Y0310204D01*
Y0304949D01*
X0420808Y0303513D01*
X0416230Y0303530D01*
X0414171Y0305140D01*
X0414058Y0308660D01*
X0411545Y0310675D01*
X0409282Y0312489D01*
X0379945Y0312489D01*
X0369189Y0323245D01*
Y0339845D01*
X0407889Y0378545D01*
Y0441845D01*
X0389889Y0459845D01*
Y0654245D01*
X0366289Y0677845D01*
Y0728899D01*
X0366615Y0728964D01*
X0367007Y0729227D01*
X0367270Y0729619D01*
X0367362Y0730083D01*
Y0734807D01*
X0367270Y0735270D01*
X0367007Y0735663D01*
X0366615Y0735926D01*
X0366289Y0735990D01*
Y0739889D01*
X0366321Y0739913D01*
X0366890Y0740655D01*
X0367247Y0741518D01*
X0367369Y0742445D01*
X0367247Y0743371D01*
X0366890Y0744235D01*
X0366321Y0744977D01*
X0366289Y0745001D01*
Y0749889D01*
X0366321Y0749913D01*
X0366890Y0750655D01*
X0367247Y0751518D01*
X0367369Y0752445D01*
X0367247Y0753371D01*
X0366890Y0754235D01*
X0366321Y0754977D01*
X0366289Y0755001D01*
Y0847945D01*
X0358789Y0855445D01*
X0312089D01*
X0292089Y0875445D01*
Y0885150D01*
X0292589Y0885417D01*
X0292864Y0885234D01*
X0293644Y0885079D01*
X0294424Y0885234D01*
X0295086Y0885676D01*
X0295528Y0886337D01*
X0295683Y0887118D01*
X0295528Y0887898D01*
X0295086Y0888560D01*
X0294424Y0889002D01*
X0293644Y0889157D01*
X0292864Y0889002D01*
X0292589Y0888818D01*
X0292089Y0889085D01*
Y0899645D01*
X0288218Y0903515D01*
X0288126Y0903980D01*
X0287684Y0904642D01*
X0287022Y0905084D01*
X0286558Y0905176D01*
X0279289Y0912445D01*
Y0912764D01*
X0279723Y0913413D01*
X0279878Y0914193D01*
X0279723Y0914973D01*
X0279289Y0915622D01*
Y0939445D01*
X0299389Y0959545D01*
X0322905D01*
X0323889Y0958561D01*
D02*
G37*
G36*
X0706589Y0848445D02*
X0713189Y0841845D01*
Y0835245D01*
X0710389Y0832445D01*
X0555089D01*
X0551289Y0836245D01*
Y0844241D01*
X0555632Y0848445D01*
X0706589Y0848445D01*
D02*
G37*
G36*
X0592089Y0790795D02*
X0591589Y0790295D01*
X0582589D01*
X0582089Y0790795D01*
Y0820045D01*
X0592089D01*
Y0790795D01*
D02*
G37*
G36*
X0614439Y0787045D02*
Y0780045D01*
X0613439Y0779045D01*
X0561939D01*
X0561439Y0779545D01*
Y0787045D01*
X0562439Y0788045D01*
X0613439D01*
X0614439Y0787045D01*
D02*
G37*
G36*
X0241489Y0813145D02*
X0242889D01*
Y0735687D01*
X0242389Y0735407D01*
X0241907Y0735686D01*
X0241105Y0735901D01*
X0240273D01*
X0239471Y0735686D01*
X0238751Y0735270D01*
X0238164Y0734683D01*
X0237748Y0733963D01*
X0237533Y0733160D01*
Y0732329D01*
X0237748Y0731527D01*
X0238164Y0730807D01*
X0238751Y0730220D01*
X0239471Y0729804D01*
X0240273Y0729589D01*
X0241105D01*
X0241907Y0729804D01*
X0242389Y0730082D01*
X0242889Y0729803D01*
Y0557836D01*
X0242113Y0557628D01*
X0241394Y0557213D01*
X0240806Y0556625D01*
X0240391Y0555905D01*
X0240176Y0555103D01*
Y0554272D01*
X0240391Y0553469D01*
X0240806Y0552750D01*
X0241394Y0552162D01*
X0242113Y0551747D01*
X0242889Y0551539D01*
Y0377045D01*
X0273889Y0346045D01*
X0333874Y0346045D01*
X0337971Y0343290D01*
X0337954Y0341925D01*
X0376631Y0302862D01*
X0416227Y0302715D01*
X0419645Y0302702D01*
X0499776Y0302403D01*
X0512447Y0315820D01*
X0512284Y0346085D01*
X0516222Y0351145D01*
X0547889Y0351145D01*
X0565089Y0333945D01*
Y0296245D01*
X0561389Y0292545D01*
X0540505D01*
X0540425Y0293045D01*
X0542688Y0293780D01*
X0544952Y0294934D01*
X0547009Y0296428D01*
X0548806Y0298225D01*
X0550300Y0300282D01*
X0551454Y0302546D01*
X0552239Y0304963D01*
X0552637Y0307474D01*
Y0310016D01*
X0552239Y0312526D01*
X0551454Y0314944D01*
X0550300Y0317208D01*
X0548806Y0319265D01*
X0547009Y0321062D01*
X0544952Y0322556D01*
X0542688Y0323710D01*
X0540270Y0324495D01*
X0537760Y0324893D01*
X0535218D01*
X0532708Y0324495D01*
X0530290Y0323710D01*
X0528026Y0322556D01*
X0525969Y0321062D01*
X0524172Y0319265D01*
X0522678Y0317208D01*
X0521524Y0314944D01*
X0520739Y0312526D01*
X0520341Y0310016D01*
Y0307474D01*
X0520739Y0304963D01*
X0521524Y0302546D01*
X0522678Y0300282D01*
X0524172Y0298225D01*
X0525969Y0296428D01*
X0528026Y0294934D01*
X0530290Y0293780D01*
X0532552Y0293045D01*
X0532473Y0292545D01*
X0299589D01*
X0277285Y0314849D01*
X0277254Y0314944D01*
X0276100Y0317208D01*
X0274606Y0319265D01*
X0272809Y0321062D01*
X0270752Y0322556D01*
X0268488Y0323710D01*
X0268393Y0323741D01*
X0203137Y0388996D01*
X0208689Y0818345D01*
X0236289D01*
X0241489Y0813145D01*
D02*
G37*
G36*
X0614339Y0707345D02*
Y0700345D01*
X0613339Y0699345D01*
X0561839D01*
X0561339Y0699845D01*
Y0707345D01*
X0562339Y0708345D01*
X0613339D01*
X0614339Y0707345D01*
D02*
G37*
G36*
X0650889Y0789145D02*
X0657789Y0782245D01*
X0657789Y0715745D01*
X0640310Y0698266D01*
X0625489Y0698266D01*
X0623989Y0699766D01*
Y0710895D01*
X0630489Y0717395D01*
Y0771395D01*
X0624489Y0777395D01*
X0624489Y0786845D01*
X0626789Y0789145D01*
X0650889Y0789145D01*
D02*
G37*
G36*
X0592989Y0665145D02*
X0591989Y0664145D01*
X0583989D01*
X0582989Y0665145D01*
Y0689345D01*
X0592989D01*
Y0665145D01*
D02*
G37*
G36*
X0868514Y0662316D02*
X0868565Y0662313D01*
X0868583Y0661513D01*
X0868531Y0661510D01*
X0868546Y0660803D01*
X0868401Y0660938D01*
X0868116Y0661165D01*
X0867976Y0661257D01*
X0867880Y0661311D01*
X0867776Y0661250D01*
X0867641Y0661156D01*
X0867504Y0661046D01*
X0867368Y0660922D01*
X0867231Y0660784D01*
X0867216Y0661510D01*
X0867164Y0661513D01*
X0867147Y0662313D01*
X0867199Y0662316D01*
X0867184Y0663023D01*
X0867329Y0662888D01*
X0867613Y0662661D01*
X0867754Y0662569D01*
X0867850Y0662514D01*
X0867953Y0662575D01*
X0868089Y0662670D01*
X0868225Y0662780D01*
X0868362Y0662904D01*
X0868499Y0663042D01*
X0868514Y0662316D01*
D02*
G37*
G36*
X0873428Y0661037D02*
X0873269Y0661164D01*
X0872962Y0661378D01*
X0872814Y0661465D01*
X0872669Y0661539D01*
X0872527Y0661599D01*
X0872389Y0661646D01*
X0872254Y0661679D01*
X0872122Y0661699D01*
X0872104Y0661700D01*
X0872070Y0661698D01*
X0871936Y0661675D01*
X0871803Y0661637D01*
X0871671Y0661584D01*
X0871541Y0661516D01*
X0871412Y0661432D01*
X0871285Y0661333D01*
X0871160Y0661219D01*
X0871036Y0661090D01*
X0870913Y0660946D01*
X0870690Y0663175D01*
X0870848Y0663048D01*
X0871155Y0662833D01*
X0871304Y0662747D01*
X0871449Y0662673D01*
X0871591Y0662613D01*
X0871729Y0662566D01*
X0871864Y0662533D01*
X0871995Y0662512D01*
X0872014Y0662511D01*
X0872048Y0662513D01*
X0872182Y0662536D01*
X0872315Y0662574D01*
X0872447Y0662627D01*
X0872577Y0662696D01*
X0872705Y0662779D01*
X0872832Y0662878D01*
X0872958Y0662992D01*
X0873082Y0663121D01*
X0873205Y0663266D01*
X0873428Y0661037D01*
D02*
G37*
G36*
X0864923Y0660759D02*
X0864782Y0660896D01*
X0864503Y0661127D01*
X0864365Y0661220D01*
X0864228Y0661299D01*
X0864092Y0661364D01*
X0863957Y0661415D01*
X0863822Y0661451D01*
X0863689Y0661472D01*
X0863556Y0661479D01*
Y0662279D01*
X0863689Y0662287D01*
X0863822Y0662308D01*
X0863957Y0662344D01*
X0864092Y0662395D01*
X0864228Y0662460D01*
X0864365Y0662539D01*
X0864503Y0662632D01*
X0864642Y0662740D01*
X0864782Y0662863D01*
X0864923Y0662999D01*
Y0660759D01*
D02*
G37*
G36*
X0597589Y0649845D02*
Y0625645D01*
X0595789Y0623845D01*
X0588489D01*
X0587589Y0624745D01*
Y0649845D01*
X0588589Y0650845D01*
X0596589D01*
X0597589Y0649845D01*
D02*
G37*
G36*
X0615439Y0610945D02*
Y0603945D01*
X0613539Y0602045D01*
X0562289D01*
X0559389Y0604945D01*
X0559389Y0612445D01*
X0562189Y0615245D01*
X0611139D01*
X0615439Y0610945D01*
D02*
G37*
G36*
X0892489Y0601945D02*
X0899089Y0595345D01*
Y0553758D01*
X0898937Y0553639D01*
X0898589Y0553490D01*
X0898251Y0553630D01*
X0897774D01*
X0897333Y0553448D01*
X0896995Y0553110D01*
X0896812Y0552669D01*
Y0552192D01*
X0896995Y0551751D01*
X0897333Y0551413D01*
X0897774Y0551230D01*
X0898251D01*
X0898589Y0551370D01*
X0898937Y0551222D01*
X0899089Y0551103D01*
Y0540806D01*
X0898794Y0540648D01*
X0898589Y0540576D01*
X0898187Y0540742D01*
X0897710D01*
X0897269Y0540559D01*
X0896931Y0540222D01*
X0896749Y0539781D01*
Y0539303D01*
X0896834Y0539097D01*
X0896451Y0538714D01*
X0896378Y0538745D01*
X0895900D01*
X0895459Y0538562D01*
X0895122Y0538225D01*
X0894939Y0537784D01*
Y0537306D01*
X0895122Y0536865D01*
X0895459Y0536528D01*
X0895900Y0536345D01*
X0896378D01*
X0896819Y0536528D01*
X0897156Y0536865D01*
X0897339Y0537306D01*
Y0537784D01*
X0897254Y0537990D01*
X0897636Y0538373D01*
X0897710Y0538342D01*
X0898187D01*
X0898589Y0538508D01*
X0898794Y0538436D01*
X0899089Y0538278D01*
Y0521332D01*
X0898589Y0521125D01*
X0898584Y0521130D01*
X0898143Y0521312D01*
X0897666D01*
X0897225Y0521130D01*
X0896887Y0520792D01*
X0896705Y0520351D01*
Y0519874D01*
X0896887Y0519433D01*
X0897225Y0519095D01*
X0897666Y0518912D01*
X0898143D01*
X0898584Y0519095D01*
X0898589Y0519100D01*
X0899089Y0518892D01*
Y0512271D01*
X0898945Y0512154D01*
X0898589Y0512000D01*
X0898256Y0512138D01*
X0897779D01*
X0897338Y0511955D01*
X0897001Y0511618D01*
X0896818Y0511177D01*
Y0510699D01*
X0897001Y0510258D01*
X0897338Y0509921D01*
X0897779Y0509738D01*
X0898256D01*
X0898589Y0509876D01*
X0898945Y0509721D01*
X0899089Y0509605D01*
Y0508832D01*
X0898831Y0508660D01*
X0898354D01*
X0897913Y0508477D01*
X0897575Y0508140D01*
X0897393Y0507699D01*
Y0507221D01*
X0897575Y0506780D01*
X0897913Y0506443D01*
X0898354Y0506260D01*
X0898831D01*
X0899089Y0506088D01*
Y0501178D01*
X0898809Y0501062D01*
X0898472Y0500725D01*
X0898289Y0500284D01*
Y0499806D01*
X0898472Y0499365D01*
X0898809Y0499028D01*
X0899089Y0498912D01*
Y0489132D01*
X0898627Y0488941D01*
X0898575Y0488993D01*
X0897763Y0489462D01*
X0896858Y0489704D01*
X0895920D01*
X0895015Y0489462D01*
X0894203Y0488993D01*
X0893541Y0488330D01*
X0893072Y0487519D01*
X0892830Y0486614D01*
Y0485676D01*
X0893072Y0484771D01*
X0893541Y0483959D01*
X0894203Y0483297D01*
X0895015Y0482828D01*
X0895920Y0482585D01*
X0896858D01*
X0897763Y0482828D01*
X0898575Y0483297D01*
X0898627Y0483349D01*
X0899089Y0483158D01*
Y0450198D01*
X0898615Y0450135D01*
X0898555Y0450279D01*
X0898493Y0450429D01*
X0898268Y0450654D01*
X0897974Y0450776D01*
X0897656D01*
X0897362Y0450654D01*
X0897137Y0450429D01*
X0897015Y0450135D01*
Y0449817D01*
X0897137Y0449522D01*
X0897362Y0449298D01*
X0897656Y0449176D01*
X0897974D01*
X0898268Y0449298D01*
X0898493Y0449522D01*
X0898555Y0449673D01*
X0898615Y0449817D01*
X0899089Y0449754D01*
Y0332545D01*
X0865289Y0298745D01*
X0780180D01*
X0779993Y0299025D01*
Y0299502D01*
X0779810Y0299943D01*
X0779472Y0300281D01*
X0779031Y0300464D01*
X0778554D01*
X0778113Y0300281D01*
X0777775Y0299943D01*
X0777593Y0299502D01*
Y0299025D01*
X0777405Y0298745D01*
X0756864D01*
X0756689Y0299006D01*
Y0299484D01*
X0756506Y0299925D01*
X0756169Y0300262D01*
X0755728Y0300445D01*
X0755250D01*
X0754809Y0300262D01*
X0754472Y0299925D01*
X0754289Y0299484D01*
Y0299006D01*
X0754114Y0298745D01*
X0653589D01*
X0652389Y0299945D01*
X0652189D01*
Y0305945D01*
X0652196Y0306137D01*
X0653243Y0307045D01*
X0807789D01*
X0839620Y0338876D01*
X0839672Y0338865D01*
X0840009Y0338528D01*
X0840450Y0338345D01*
X0840928D01*
X0841369Y0338528D01*
X0841706Y0338865D01*
X0841889Y0339306D01*
Y0339784D01*
X0841706Y0340225D01*
X0841691Y0340240D01*
X0841678Y0340934D01*
X0873079Y0372335D01*
X0873541Y0372144D01*
Y0372065D01*
X0873790Y0371137D01*
X0874270Y0370305D01*
X0874949Y0369626D01*
X0875781Y0369145D01*
X0876709Y0368897D01*
X0877669D01*
X0878597Y0369145D01*
X0879429Y0369626D01*
X0880108Y0370305D01*
X0880588Y0371137D01*
X0880837Y0372065D01*
Y0373025D01*
X0880588Y0373953D01*
X0880108Y0374785D01*
X0879429Y0375464D01*
X0878597Y0375944D01*
X0877669Y0376193D01*
X0877590D01*
X0877399Y0376655D01*
X0885189Y0384445D01*
Y0437891D01*
X0885431D01*
X0885725Y0438013D01*
X0885950Y0438238D01*
X0886072Y0438532D01*
Y0438850D01*
X0885950Y0439144D01*
X0885725Y0439369D01*
X0885431Y0439491D01*
X0885189D01*
Y0471394D01*
X0885348Y0471500D01*
X0885666D01*
X0885960Y0471622D01*
X0886186Y0471847D01*
X0886307Y0472141D01*
Y0472460D01*
X0886186Y0472753D01*
X0885960Y0472979D01*
X0885666Y0473100D01*
X0885189Y0473534D01*
Y0475865D01*
X0885294D01*
X0885588Y0475986D01*
X0885813Y0476211D01*
X0885935Y0476505D01*
Y0476824D01*
X0885813Y0477118D01*
X0885588Y0477343D01*
X0885294Y0477464D01*
X0885189D01*
Y0482371D01*
X0885586Y0482675D01*
X0885920Y0482585D01*
X0886858D01*
X0887763Y0482828D01*
X0888575Y0483297D01*
X0889237Y0483959D01*
X0889706Y0484771D01*
X0889948Y0485676D01*
Y0486614D01*
X0889706Y0487519D01*
X0889237Y0488330D01*
X0888575Y0488993D01*
X0887763Y0489462D01*
X0886858Y0489704D01*
X0885920D01*
X0885586Y0489615D01*
X0885189Y0489919D01*
Y0502839D01*
Y0510430D01*
Y0532969D01*
X0885469Y0533085D01*
X0885806Y0533423D01*
X0885989Y0533864D01*
Y0534341D01*
X0885806Y0534782D01*
X0885469Y0535120D01*
X0885189Y0535236D01*
Y0567737D01*
X0885366Y0567825D01*
X0885689Y0567871D01*
X0886053Y0567397D01*
X0886609Y0566970D01*
X0887257Y0566702D01*
X0887953Y0566610D01*
X0888937D01*
X0889632Y0566702D01*
X0890280Y0566970D01*
X0890837Y0567397D01*
X0891264Y0567953D01*
X0891532Y0568602D01*
X0891624Y0569297D01*
X0891532Y0569992D01*
X0891264Y0570640D01*
X0890837Y0571197D01*
X0890280Y0571624D01*
X0889632Y0571892D01*
X0888937Y0571984D01*
X0887953D01*
X0887257Y0571892D01*
X0886609Y0571624D01*
X0886053Y0571197D01*
X0885689Y0570722D01*
X0885366Y0570769D01*
X0885189Y0570857D01*
Y0577362D01*
X0885539D01*
X0885845Y0577489D01*
X0885972Y0577795D01*
Y0580695D01*
X0885845Y0581001D01*
X0885539Y0581128D01*
X0885189D01*
Y0584666D01*
X0885366Y0584754D01*
X0885689Y0584800D01*
X0886053Y0584326D01*
X0886609Y0583899D01*
X0887257Y0583631D01*
X0887953Y0583539D01*
X0888937D01*
X0889632Y0583631D01*
X0890280Y0583899D01*
X0890837Y0584326D01*
X0891264Y0584883D01*
X0891532Y0585531D01*
X0891624Y0586226D01*
X0891532Y0586922D01*
X0891264Y0587570D01*
X0890837Y0588126D01*
X0890280Y0588553D01*
X0889632Y0588821D01*
X0888937Y0588913D01*
X0887953D01*
X0887257Y0588821D01*
X0886609Y0588553D01*
X0886053Y0588126D01*
X0885689Y0587652D01*
X0885366Y0587698D01*
X0885189Y0587786D01*
Y0591527D01*
X0881956Y0594145D01*
X0859689D01*
X0858389Y0595445D01*
Y0597445D01*
X0862889Y0601945D01*
X0892489Y0601945D01*
D02*
G37*
G36*
X0633290Y0613745D02*
X0657989Y0589044D01*
X0657989Y0542795D01*
X0653439Y0538245D01*
X0628389D01*
X0624189Y0542445D01*
X0624189Y0550745D01*
X0630689Y0557245D01*
X0630689Y0598445D01*
X0624689Y0604445D01*
X0624689Y0609627D01*
X0628807Y0613745D01*
X0633290Y0613745D01*
D02*
G37*
G36*
X0616389Y0551645D02*
X0619189Y0548845D01*
X0619089Y0548745D01*
Y0533545D01*
X0610189Y0524645D01*
X0558689D01*
X0558189Y0525145D01*
Y0532645D01*
X0559189Y0533645D01*
X0588833D01*
X0591589Y0536945D01*
Y0545945D01*
X0594789Y0551745D01*
X0616389D01*
Y0551645D01*
D02*
G37*
G36*
X0602189Y0493420D02*
X0601189Y0492420D01*
X0593189D01*
X0592189Y0493420D01*
Y0518670D01*
X0602189D01*
Y0493420D01*
D02*
G37*
G36*
X0875489Y0495945D02*
X0883373Y0488061D01*
X0883280Y0487940D01*
X0882921Y0487074D01*
X0882799Y0486145D01*
X0882921Y0485216D01*
X0883280Y0484350D01*
X0883589Y0483947D01*
Y0458707D01*
X0883089Y0458439D01*
X0883082Y0458444D01*
X0882770Y0458506D01*
X0882458Y0458444D01*
X0882193Y0458267D01*
X0882016Y0458003D01*
X0881954Y0457690D01*
X0882016Y0457378D01*
X0882193Y0457114D01*
X0882458Y0456937D01*
X0882770Y0456875D01*
X0882905Y0456572D01*
X0883082Y0456308D01*
X0883347Y0456131D01*
X0883589Y0456082D01*
Y0440773D01*
X0883089Y0440505D01*
X0883079Y0440512D01*
X0882767Y0440574D01*
X0882454Y0440512D01*
X0882190Y0440335D01*
X0882013Y0440071D01*
X0881951Y0439759D01*
X0882013Y0439446D01*
X0882190Y0439182D01*
X0882454Y0439005D01*
X0882767Y0438943D01*
X0883079Y0439005D01*
X0883089Y0439012D01*
X0883589Y0438745D01*
Y0430823D01*
X0883406Y0430786D01*
X0883142Y0430610D01*
X0882965Y0430345D01*
X0882903Y0430033D01*
X0882965Y0429721D01*
X0883142Y0429456D01*
X0883406Y0429279D01*
X0883589Y0429243D01*
Y0393105D01*
X0883582Y0393095D01*
X0883520Y0392783D01*
X0883582Y0392471D01*
X0883589Y0392461D01*
Y0388276D01*
X0883418Y0388162D01*
X0883241Y0387897D01*
X0883179Y0387585D01*
X0883241Y0387273D01*
X0883418Y0387009D01*
X0883589Y0386894D01*
Y0384645D01*
X0826689Y0327745D01*
X0810389D01*
X0807589Y0330545D01*
X0807589Y0333235D01*
X0813781Y0338745D01*
X0827544Y0351257D01*
X0841155Y0351184D01*
X0869889Y0378472D01*
X0869889Y0447662D01*
X0870017Y0447768D01*
X0870486Y0447861D01*
X0870883Y0448126D01*
X0871148Y0448523D01*
X0871241Y0448991D01*
X0871148Y0449460D01*
X0870883Y0449856D01*
X0870486Y0450122D01*
X0870017Y0450215D01*
X0869889Y0450320D01*
Y0462280D01*
X0870389Y0462502D01*
X0870553Y0462393D01*
X0870683Y0462367D01*
X0870866Y0462092D01*
X0870928Y0461780D01*
X0871105Y0461516D01*
X0871171Y0461471D01*
X0871329Y0461130D01*
X0871274Y0460848D01*
X0871207Y0460747D01*
X0871145Y0460435D01*
X0871207Y0460123D01*
X0871384Y0459858D01*
X0871649Y0459682D01*
X0871961Y0459620D01*
X0872273Y0459682D01*
X0872538Y0459858D01*
X0872715Y0460123D01*
X0872777Y0460435D01*
X0872715Y0460747D01*
X0872538Y0461012D01*
X0872471Y0461056D01*
X0872313Y0461397D01*
X0872368Y0461680D01*
X0872435Y0461780D01*
X0872497Y0462092D01*
X0872435Y0462404D01*
X0872258Y0462669D01*
X0871885Y0462945D01*
X0871962Y0463335D01*
X0871885Y0463725D01*
X0871664Y0464056D01*
X0871547Y0464134D01*
X0871496Y0464691D01*
X0871506Y0464717D01*
X0871672Y0464965D01*
X0871722Y0465217D01*
X0871905Y0465376D01*
X0872191Y0465542D01*
X0872425Y0465495D01*
X0872738Y0465557D01*
X0873002Y0465734D01*
X0873179Y0465999D01*
X0873241Y0466311D01*
X0873179Y0466623D01*
X0873002Y0466888D01*
X0872738Y0467064D01*
X0872425Y0467126D01*
X0872113Y0467064D01*
X0871849Y0466888D01*
X0871672Y0466623D01*
X0871622Y0466371D01*
X0871439Y0466212D01*
X0871153Y0466046D01*
X0870918Y0466093D01*
X0870606Y0466031D01*
X0870389Y0465886D01*
X0870167Y0465940D01*
X0869889Y0466076D01*
Y0466903D01*
X0870209Y0467165D01*
X0870560Y0467235D01*
X0870857Y0467434D01*
X0871056Y0467732D01*
X0871126Y0468083D01*
X0871056Y0468434D01*
X0870857Y0468732D01*
X0870847Y0469240D01*
X0870940Y0469303D01*
X0871237Y0469104D01*
X0871588Y0469034D01*
X0871939Y0469104D01*
X0872237Y0469303D01*
X0872436Y0469600D01*
X0872503Y0469938D01*
X0872507Y0469953D01*
X0872886Y0470372D01*
X0872930Y0470381D01*
X0873198Y0470434D01*
X0873462Y0470611D01*
X0873592Y0470804D01*
X0873640Y0470876D01*
X0874135Y0471042D01*
X0874181Y0471033D01*
X0874447Y0470980D01*
X0874759Y0471042D01*
X0875000Y0471203D01*
X0875358Y0471426D01*
X0875646Y0471319D01*
X0875689Y0471291D01*
X0876001Y0471229D01*
X0876313Y0471291D01*
X0876578Y0471467D01*
X0876755Y0471732D01*
X0876817Y0472044D01*
X0876755Y0472356D01*
X0876578Y0472621D01*
X0876505Y0472670D01*
X0876464Y0473219D01*
X0876474Y0473246D01*
X0876535Y0473286D01*
X0876551Y0473277D01*
X0876863Y0473215D01*
X0877175Y0473277D01*
X0877440Y0473454D01*
X0877657Y0473704D01*
X0877977Y0473591D01*
X0878289Y0473529D01*
X0878601Y0473591D01*
X0878866Y0473768D01*
X0879312D01*
X0879577Y0473591D01*
X0879889Y0473529D01*
X0880201Y0473591D01*
X0880466Y0473768D01*
X0880643Y0474033D01*
X0880705Y0474345D01*
X0880643Y0474657D01*
X0880466Y0474922D01*
X0880201Y0475099D01*
X0879889Y0475161D01*
X0879577Y0475099D01*
X0879312Y0474922D01*
X0878866D01*
X0878601Y0475099D01*
X0878289Y0475161D01*
X0877977Y0475099D01*
X0877712Y0474922D01*
X0877495Y0474671D01*
X0877175Y0474785D01*
X0876863Y0474847D01*
X0876551Y0474785D01*
X0876286Y0474608D01*
X0876233D01*
X0876224Y0474621D01*
X0875959Y0474798D01*
X0875647Y0474860D01*
X0875335Y0474798D01*
X0875070Y0474621D01*
X0874893Y0474356D01*
X0874831Y0474044D01*
X0874893Y0473732D01*
X0875070Y0473467D01*
X0875335Y0473291D01*
X0875535Y0473251D01*
X0875581Y0473116D01*
X0875584Y0473094D01*
X0875583D01*
X0875621Y0472752D01*
X0875448Y0472637D01*
X0875091Y0472414D01*
X0874802Y0472521D01*
X0874759Y0472549D01*
X0874447Y0472611D01*
X0874135Y0472549D01*
X0873870Y0472372D01*
X0873741Y0472179D01*
X0873693Y0472108D01*
X0873198Y0471941D01*
X0873152Y0471950D01*
X0872886Y0472003D01*
X0872574Y0471941D01*
X0872309Y0471764D01*
X0872132Y0471500D01*
X0872084Y0471258D01*
X0872059Y0471180D01*
X0871625Y0470862D01*
X0871588Y0470869D01*
X0871237Y0470799D01*
X0871008Y0470646D01*
X0870901Y0470608D01*
X0870411Y0470709D01*
X0870360Y0470784D01*
X0870298Y0471239D01*
X0870497Y0471536D01*
X0870566Y0471888D01*
X0870497Y0472239D01*
X0870298Y0472536D01*
X0870000Y0472735D01*
X0869889Y0472757D01*
Y0474251D01*
X0870115Y0474590D01*
X0870208Y0475058D01*
X0870115Y0475526D01*
X0869889Y0475865D01*
Y0488645D01*
X0867389Y0491145D01*
X0858207D01*
X0857389Y0491963D01*
X0857389Y0494445D01*
X0858889Y0495945D01*
X0875489Y0495945D01*
D02*
G37*
G36*
X0853212Y0415602D02*
X0853178Y0415633D01*
X0853138Y0415660D01*
X0853092Y0415684D01*
X0853041Y0415705D01*
X0852983Y0415722D01*
X0852920Y0415737D01*
X0852851Y0415748D01*
X0852777Y0415756D01*
X0852610Y0415762D01*
Y0416562D01*
X0852697Y0416564D01*
X0852851Y0416577D01*
X0852920Y0416588D01*
X0852983Y0416602D01*
X0853041Y0416620D01*
X0853092Y0416641D01*
X0853138Y0416665D01*
X0853178Y0416692D01*
X0853212Y0416722D01*
Y0415602D01*
D02*
G37*
G36*
X0359289Y0456045D02*
Y0453045D01*
X0357648Y0451404D01*
X0330148D01*
X0292089Y0413345D01*
X0274789D01*
X0272189Y0415945D01*
Y0420607D01*
X0273779Y0422045D01*
X0288589D01*
X0323489Y0456945D01*
X0358389D01*
X0359289Y0456045D01*
D02*
G37*
G36*
X0706989Y0487945D02*
Y0475145D01*
X0704089Y0472245D01*
X0625489D01*
X0616189Y0462945D01*
Y0444745D01*
X0657889Y0403045D01*
X0657889Y0395302D01*
X0656134Y0393145D01*
X0608789D01*
X0602889Y0399045D01*
Y0472245D01*
X0622089Y0491445D01*
X0703489D01*
X0706989Y0487945D01*
D02*
G37*
G36*
X0405289Y0440602D02*
Y0433145D01*
X0402489Y0430345D01*
Y0378745D01*
X0376222Y0352478D01*
X0376189Y0352484D01*
X0375409Y0352329D01*
X0374747Y0351887D01*
X0374305Y0351225D01*
X0374150Y0350445D01*
X0374156Y0350412D01*
X0371389Y0347645D01*
X0364989Y0347645D01*
X0363389Y0349245D01*
Y0353445D01*
X0366489Y0356545D01*
X0388889Y0378945D01*
Y0433903D01*
X0398631Y0443645D01*
X0402246Y0443645D01*
X0405289Y0440602D01*
D02*
G37*
G36*
X0359862Y0349445D02*
X0347654D01*
X0343389Y0352877D01*
Y0366145D01*
X0346223Y0368979D01*
X0359862D01*
Y0349445D01*
D02*
G37*
G36*
X0612044Y0318390D02*
X0611828Y0317899D01*
X0611162Y0317623D01*
X0610600Y0317061D01*
X0610295Y0316326D01*
Y0315530D01*
X0610600Y0314795D01*
X0611162Y0314232D01*
X0611897Y0313928D01*
X0612693D01*
X0613428Y0314232D01*
X0613991Y0314795D01*
X0614266Y0315461D01*
X0614757Y0315677D01*
X0632589Y0297845D01*
X0645982D01*
X0646316Y0297345D01*
X0646197Y0297056D01*
Y0296261D01*
X0646501Y0295526D01*
X0647064Y0294963D01*
X0647799Y0294658D01*
X0648595D01*
X0649330Y0294963D01*
X0649892Y0295526D01*
X0650197Y0296261D01*
Y0297056D01*
X0650077Y0297345D01*
X0650411Y0297845D01*
X0693989D01*
X0695289Y0296545D01*
X0695541Y0291000D01*
X0692787Y0287745D01*
X0629489D01*
X0603483Y0313751D01*
X0603621Y0314078D01*
X0603730Y0314211D01*
X0604473D01*
X0605208Y0314516D01*
X0605771Y0315078D01*
X0606076Y0315813D01*
Y0316609D01*
X0605771Y0317344D01*
X0605208Y0317907D01*
X0604473Y0318211D01*
X0603678D01*
X0602943Y0317907D01*
X0602380Y0317344D01*
X0602076Y0316609D01*
Y0315865D01*
X0601942Y0315757D01*
X0601615Y0315619D01*
X0595071Y0322163D01*
X0594953Y0322446D01*
X0594391Y0323009D01*
X0594108Y0323126D01*
X0589630Y0327604D01*
X0589667Y0327790D01*
X0590230Y0328352D01*
X0590534Y0329087D01*
Y0329883D01*
X0590230Y0330618D01*
X0589667Y0331181D01*
X0588932Y0331485D01*
X0588136D01*
X0587401Y0331181D01*
X0587081Y0330860D01*
X0586420Y0330814D01*
X0575678Y0341555D01*
X0575695Y0341639D01*
X0575822Y0341945D01*
Y0343545D01*
X0575695Y0343851D01*
X0575389Y0343978D01*
X0573256D01*
X0552989Y0364245D01*
X0445889D01*
X0406017Y0324373D01*
X0392374D01*
X0388089Y0327841D01*
Y0337045D01*
X0423489Y0372445D01*
X0557989D01*
X0612044Y0318390D01*
D02*
G37*
%LPC*%
G36*
X0547409Y0942570D02*
X0546629Y0942415D01*
X0545968Y0941973D01*
X0545526Y0941311D01*
X0545370Y0940531D01*
X0545526Y0939751D01*
X0545968Y0939089D01*
X0546629Y0938647D01*
X0547409Y0938492D01*
X0548190Y0938647D01*
X0548851Y0939089D01*
X0549294Y0939751D01*
X0549449Y0940531D01*
X0549294Y0941311D01*
X0548851Y0941973D01*
X0548190Y0942415D01*
X0547409Y0942570D01*
D02*
G37*
G36*
X0323634Y0925215D02*
X0316744D01*
X0316438Y0925088D01*
X0316311Y0924782D01*
Y0917308D01*
X0316438Y0917002D01*
X0316744Y0916875D01*
X0323634D01*
X0323940Y0917002D01*
X0324067Y0917308D01*
Y0924782D01*
X0323940Y0925088D01*
X0323634Y0925215D01*
D02*
G37*
G36*
X0715258Y0915912D02*
X0714478Y0915757D01*
X0713816Y0915315D01*
X0713374Y0914653D01*
X0713219Y0913873D01*
X0713374Y0913092D01*
X0713816Y0912431D01*
X0714478Y0911989D01*
X0715258Y0911834D01*
X0716038Y0911989D01*
X0716700Y0912431D01*
X0717142Y0913092D01*
X0717297Y0913873D01*
X0717142Y0914653D01*
X0716700Y0915315D01*
X0716038Y0915757D01*
X0715258Y0915912D01*
D02*
G37*
G36*
X0734304Y0915369D02*
X0733524Y0915214D01*
X0732862Y0914772D01*
X0732420Y0914110D01*
X0732265Y0913330D01*
X0732420Y0912549D01*
X0732862Y0911888D01*
X0733524Y0911446D01*
X0734304Y0911291D01*
X0735084Y0911446D01*
X0735746Y0911888D01*
X0736188Y0912549D01*
X0736343Y0913330D01*
X0736188Y0914110D01*
X0735746Y0914772D01*
X0735084Y0915214D01*
X0734304Y0915369D01*
D02*
G37*
G36*
X0755717Y0912585D02*
X0754936Y0912430D01*
X0754275Y0911988D01*
X0753833Y0911326D01*
X0753678Y0910546D01*
X0753833Y0909765D01*
X0754275Y0909104D01*
X0754936Y0908662D01*
X0755717Y0908506D01*
X0756497Y0908662D01*
X0757159Y0909104D01*
X0757601Y0909765D01*
X0757756Y0910546D01*
X0757601Y0911326D01*
X0757159Y0911988D01*
X0756497Y0912430D01*
X0755717Y0912585D01*
D02*
G37*
G36*
X0732619Y0908820D02*
X0731839Y0908665D01*
X0731177Y0908223D01*
X0730735Y0907561D01*
X0730580Y0906781D01*
X0730735Y0906001D01*
X0731177Y0905339D01*
X0731839Y0904897D01*
X0732619Y0904742D01*
X0733400Y0904897D01*
X0734061Y0905339D01*
X0734503Y0906001D01*
X0734658Y0906781D01*
X0734503Y0907561D01*
X0734061Y0908223D01*
X0733400Y0908665D01*
X0732619Y0908820D01*
D02*
G37*
G36*
X0776175Y0801348D02*
X0774803D01*
X0774497Y0801221D01*
X0774370Y0800915D01*
Y0797175D01*
X0774497Y0796869D01*
X0774803Y0796742D01*
X0776175D01*
X0776481Y0796869D01*
X0776608Y0797175D01*
Y0800915D01*
X0776481Y0801221D01*
X0776175Y0801348D01*
D02*
G37*
G36*
X0761444Y0752213D02*
X0760664Y0752058D01*
X0760003Y0751615D01*
X0759560Y0750954D01*
X0759405Y0750174D01*
X0759560Y0749393D01*
X0760003Y0748732D01*
X0760664Y0748290D01*
X0761444Y0748134D01*
X0762225Y0748290D01*
X0762886Y0748732D01*
X0763328Y0749393D01*
X0763484Y0750174D01*
X0763328Y0750954D01*
X0762886Y0751615D01*
X0762225Y0752058D01*
X0761444Y0752213D01*
D02*
G37*
G36*
X0771989Y0491484D02*
X0771209Y0491329D01*
X0770547Y0490887D01*
X0770105Y0490225D01*
X0769950Y0489445D01*
X0770105Y0488664D01*
X0770547Y0488003D01*
X0771209Y0487561D01*
X0771989Y0487406D01*
X0772769Y0487561D01*
X0773431Y0488003D01*
X0773873Y0488664D01*
X0774028Y0489445D01*
X0773873Y0490225D01*
X0773431Y0490887D01*
X0772769Y0491329D01*
X0771989Y0491484D01*
D02*
G37*
G36*
X0718352Y0340531D02*
X0717572Y0340376D01*
X0716910Y0339934D01*
X0716468Y0339272D01*
X0716313Y0338492D01*
X0716468Y0337711D01*
X0716910Y0337050D01*
X0717572Y0336608D01*
X0718352Y0336453D01*
X0719132Y0336608D01*
X0719794Y0337050D01*
X0720236Y0337711D01*
X0720391Y0338492D01*
X0720236Y0339272D01*
X0719794Y0339934D01*
X0719132Y0340376D01*
X0718352Y0340531D01*
D02*
G37*
G36*
X0685757Y0335791D02*
X0684976Y0335636D01*
X0684315Y0335194D01*
X0683873Y0334532D01*
X0683717Y0333752D01*
X0683873Y0332971D01*
X0684315Y0332310D01*
X0684976Y0331868D01*
X0685757Y0331713D01*
X0686537Y0331868D01*
X0687199Y0332310D01*
X0687641Y0332971D01*
X0687796Y0333752D01*
X0687641Y0334532D01*
X0687199Y0335194D01*
X0686537Y0335636D01*
X0685757Y0335791D01*
D02*
G37*
G36*
X0696584Y0335580D02*
X0695804Y0335424D01*
X0695142Y0334982D01*
X0694700Y0334321D01*
X0694545Y0333540D01*
X0694700Y0332760D01*
X0695142Y0332099D01*
X0695804Y0331656D01*
X0696584Y0331501D01*
X0697365Y0331656D01*
X0698026Y0332099D01*
X0698468Y0332760D01*
X0698623Y0333540D01*
X0698468Y0334321D01*
X0698026Y0334982D01*
X0697365Y0335424D01*
X0696584Y0335580D01*
D02*
G37*
G36*
X0383347Y0894319D02*
X0382567Y0894164D01*
X0381905Y0893721D01*
X0381463Y0893060D01*
X0381308Y0892280D01*
X0381463Y0891499D01*
X0381905Y0890838D01*
X0382567Y0890396D01*
X0383347Y0890240D01*
X0384127Y0890396D01*
X0384789Y0890838D01*
X0385231Y0891499D01*
X0385386Y0892280D01*
X0385231Y0893060D01*
X0384789Y0893721D01*
X0384127Y0894164D01*
X0383347Y0894319D01*
D02*
G37*
G36*
X0354589Y0894084D02*
X0353809Y0893929D01*
X0353147Y0893487D01*
X0352705Y0892825D01*
X0352550Y0892045D01*
X0352705Y0891265D01*
X0353147Y0890603D01*
X0353809Y0890161D01*
X0354589Y0890006D01*
X0355369Y0890161D01*
X0356031Y0890603D01*
X0356473Y0891265D01*
X0356628Y0892045D01*
X0356473Y0892825D01*
X0356031Y0893487D01*
X0355369Y0893929D01*
X0354589Y0894084D01*
D02*
G37*
G36*
X0297766Y0887088D02*
X0296986Y0886932D01*
X0296324Y0886491D01*
X0295882Y0885829D01*
X0295727Y0885049D01*
X0295882Y0884268D01*
X0296324Y0883607D01*
X0296986Y0883165D01*
X0297766Y0883009D01*
X0298546Y0883165D01*
X0299208Y0883607D01*
X0299650Y0884268D01*
X0299805Y0885049D01*
X0299650Y0885829D01*
X0299208Y0886491D01*
X0298546Y0886932D01*
X0297766Y0887088D01*
D02*
G37*
G36*
X0361112Y0882878D02*
X0360332Y0882723D01*
X0359670Y0882281D01*
X0359228Y0881619D01*
X0359073Y0880839D01*
X0359228Y0880059D01*
X0359670Y0879397D01*
X0360332Y0878955D01*
X0361112Y0878800D01*
X0361892Y0878955D01*
X0362554Y0879397D01*
X0362996Y0880059D01*
X0363151Y0880839D01*
X0362996Y0881619D01*
X0362554Y0882281D01*
X0361892Y0882723D01*
X0361112Y0882878D01*
D02*
G37*
G36*
X0349970Y0882878D02*
X0349190Y0882722D01*
X0348528Y0882280D01*
X0348086Y0881619D01*
X0347931Y0880838D01*
X0348086Y0880058D01*
X0348528Y0879397D01*
X0349190Y0878954D01*
X0349970Y0878799D01*
X0350750Y0878954D01*
X0351412Y0879397D01*
X0351854Y0880058D01*
X0352009Y0880838D01*
X0351854Y0881619D01*
X0351412Y0882280D01*
X0350750Y0882722D01*
X0349970Y0882878D01*
D02*
G37*
G36*
X0373048Y0880364D02*
X0372267Y0880209D01*
X0371606Y0879767D01*
X0371164Y0879105D01*
X0371008Y0878325D01*
X0371164Y0877544D01*
X0371606Y0876883D01*
X0372267Y0876441D01*
X0373048Y0876286D01*
X0373828Y0876441D01*
X0374490Y0876883D01*
X0374932Y0877544D01*
X0375087Y0878325D01*
X0374932Y0879105D01*
X0374490Y0879767D01*
X0373828Y0880209D01*
X0373048Y0880364D01*
D02*
G37*
G36*
X0368407Y0880131D02*
X0367626Y0879976D01*
X0366965Y0879534D01*
X0366523Y0878872D01*
X0366368Y0878092D01*
X0366523Y0877312D01*
X0366965Y0876650D01*
X0367626Y0876208D01*
X0368407Y0876053D01*
X0369187Y0876208D01*
X0369849Y0876650D01*
X0370291Y0877312D01*
X0370446Y0878092D01*
X0370291Y0878872D01*
X0369849Y0879534D01*
X0369187Y0879976D01*
X0368407Y0880131D01*
D02*
G37*
G36*
X0464489Y0860014D02*
X0463709Y0859859D01*
X0463047Y0859416D01*
X0462605Y0858755D01*
X0462450Y0857975D01*
X0462605Y0857194D01*
X0463047Y0856533D01*
X0463709Y0856091D01*
X0464489Y0855935D01*
X0465269Y0856091D01*
X0465931Y0856533D01*
X0466373Y0857194D01*
X0466528Y0857975D01*
X0466373Y0858755D01*
X0465931Y0859416D01*
X0465269Y0859859D01*
X0464489Y0860014D01*
D02*
G37*
G36*
X0478989Y0861828D02*
X0470989D01*
X0470683Y0861701D01*
X0470556Y0861395D01*
Y0854695D01*
X0470683Y0854389D01*
X0470989Y0854262D01*
X0478989D01*
X0479295Y0854389D01*
X0479422Y0854695D01*
Y0861395D01*
X0479295Y0861701D01*
X0478989Y0861828D01*
D02*
G37*
G36*
X0409218Y0684008D02*
X0408437Y0683853D01*
X0407775Y0683411D01*
X0407334Y0682749D01*
X0407178Y0681969D01*
X0407334Y0681189D01*
X0407775Y0680527D01*
X0408437Y0680085D01*
X0409218Y0679930D01*
X0409998Y0680085D01*
X0410659Y0680527D01*
X0411101Y0681189D01*
X0411257Y0681969D01*
X0411101Y0682749D01*
X0410659Y0683411D01*
X0409998Y0683853D01*
X0409218Y0684008D01*
D02*
G37*
G36*
X0398655Y0680815D02*
X0397874Y0680660D01*
X0397213Y0680218D01*
X0396771Y0679556D01*
X0396615Y0678776D01*
X0396771Y0677995D01*
X0397213Y0677334D01*
X0397874Y0676892D01*
X0398655Y0676736D01*
X0399435Y0676892D01*
X0400096Y0677334D01*
X0400538Y0677995D01*
X0400694Y0678776D01*
X0400538Y0679556D01*
X0400096Y0680218D01*
X0399435Y0680660D01*
X0398655Y0680815D01*
D02*
G37*
G36*
X0391702Y0670268D02*
X0390922Y0670113D01*
X0390261Y0669671D01*
X0389818Y0669009D01*
X0389663Y0668229D01*
X0389818Y0667448D01*
X0390261Y0666787D01*
X0390922Y0666345D01*
X0391702Y0666189D01*
X0392483Y0666345D01*
X0393144Y0666787D01*
X0393586Y0667448D01*
X0393742Y0668229D01*
X0393586Y0669009D01*
X0393144Y0669671D01*
X0392483Y0670113D01*
X0391702Y0670268D01*
D02*
G37*
G36*
X0877815Y0537872D02*
X0877347Y0537778D01*
X0876950Y0537513D01*
X0876685Y0537116D01*
X0876592Y0536648D01*
X0876685Y0536180D01*
X0876950Y0535783D01*
X0877347Y0535518D01*
X0877815Y0535424D01*
X0878284Y0535518D01*
X0878680Y0535783D01*
X0879143Y0535575D01*
X0879346Y0535439D01*
X0879814Y0535346D01*
X0880282Y0535439D01*
X0880679Y0535705D01*
X0880944Y0536102D01*
X0881037Y0536570D01*
X0880944Y0537038D01*
X0880679Y0537435D01*
X0880282Y0537700D01*
X0879814Y0537793D01*
X0879346Y0537700D01*
X0878949Y0537435D01*
X0878486Y0537643D01*
X0878284Y0537778D01*
X0877815Y0537872D01*
D02*
G37*
G36*
X0872094Y0535677D02*
X0871626Y0535583D01*
X0871229Y0535318D01*
X0870964Y0534921D01*
X0870871Y0534453D01*
X0870964Y0533985D01*
X0871229Y0533588D01*
X0871626Y0533323D01*
X0872094Y0533229D01*
X0872562Y0533323D01*
X0872959Y0533588D01*
X0873225Y0533985D01*
X0873318Y0534453D01*
X0873225Y0534921D01*
X0872959Y0535318D01*
X0872562Y0535583D01*
X0872094Y0535677D01*
D02*
G37*
G36*
X0859147Y0535405D02*
X0858679Y0535311D01*
X0858282Y0535046D01*
X0858017Y0534649D01*
X0857924Y0534181D01*
X0858017Y0533713D01*
X0858282Y0533316D01*
X0858679Y0533051D01*
X0859147Y0532958D01*
X0859615Y0533051D01*
X0860012Y0533316D01*
X0860277Y0533713D01*
X0860371Y0534181D01*
X0860277Y0534649D01*
X0860012Y0535046D01*
X0859615Y0535311D01*
X0859147Y0535405D01*
D02*
G37*
G36*
X0880329Y0528806D02*
X0879789Y0528698D01*
X0879331Y0528392D01*
X0879025Y0527934D01*
X0878918Y0527394D01*
X0879025Y0526854D01*
X0879331Y0526396D01*
X0879789Y0526090D01*
X0880329Y0525983D01*
X0880869Y0526090D01*
X0881327Y0526396D01*
X0881633Y0526854D01*
X0881740Y0527394D01*
X0881633Y0527934D01*
X0881327Y0528392D01*
X0880869Y0528698D01*
X0880329Y0528806D01*
D02*
G37*
G36*
X0875998D02*
X0875458Y0528698D01*
X0875000Y0528392D01*
X0874694Y0527934D01*
X0874587Y0527394D01*
X0874694Y0526854D01*
X0875000Y0526396D01*
X0875458Y0526090D01*
X0875998Y0525983D01*
X0876538Y0526090D01*
X0876996Y0526396D01*
X0877302Y0526854D01*
X0877410Y0527394D01*
X0877302Y0527934D01*
X0876996Y0528392D01*
X0876538Y0528698D01*
X0875998Y0528806D01*
D02*
G37*
G36*
X0871668D02*
X0871127Y0528698D01*
X0870670Y0528392D01*
X0870364Y0527934D01*
X0870256Y0527394D01*
X0870364Y0526854D01*
X0870670Y0526396D01*
X0871127Y0526090D01*
X0871668Y0525983D01*
X0872208Y0526090D01*
X0872666Y0526396D01*
X0872972Y0526854D01*
X0873079Y0527394D01*
X0872972Y0527934D01*
X0872666Y0528392D01*
X0872208Y0528698D01*
X0871668Y0528806D01*
D02*
G37*
G36*
X0880329Y0524475D02*
X0879789Y0524367D01*
X0879331Y0524061D01*
X0879025Y0523604D01*
X0878918Y0523064D01*
X0879025Y0522523D01*
X0879331Y0522065D01*
X0879789Y0521760D01*
X0880329Y0521652D01*
X0880869Y0521760D01*
X0881327Y0522065D01*
X0881633Y0522523D01*
X0881740Y0523064D01*
X0881633Y0523604D01*
X0881327Y0524061D01*
X0880869Y0524367D01*
X0880329Y0524475D01*
D02*
G37*
G36*
X0875998D02*
X0875458Y0524367D01*
X0875000Y0524061D01*
X0874694Y0523604D01*
X0874587Y0523064D01*
X0874694Y0522523D01*
X0875000Y0522065D01*
X0875458Y0521760D01*
X0875998Y0521652D01*
X0876538Y0521760D01*
X0876996Y0522065D01*
X0877302Y0522523D01*
X0877410Y0523064D01*
X0877302Y0523604D01*
X0876996Y0524061D01*
X0876538Y0524367D01*
X0875998Y0524475D01*
D02*
G37*
G36*
X0871668D02*
X0871127Y0524367D01*
X0870670Y0524061D01*
X0870364Y0523604D01*
X0870256Y0523064D01*
X0870364Y0522523D01*
X0870670Y0522065D01*
X0871127Y0521760D01*
X0871668Y0521652D01*
X0872208Y0521760D01*
X0872666Y0522065D01*
X0872972Y0522523D01*
X0873079Y0523064D01*
X0872972Y0523604D01*
X0872666Y0524061D01*
X0872208Y0524367D01*
X0871668Y0524475D01*
D02*
G37*
G36*
X0880329Y0520144D02*
X0879789Y0520037D01*
X0879331Y0519731D01*
X0879025Y0519273D01*
X0878918Y0518733D01*
X0879025Y0518193D01*
X0879331Y0517735D01*
X0879789Y0517429D01*
X0880329Y0517321D01*
X0880869Y0517429D01*
X0881327Y0517735D01*
X0881633Y0518193D01*
X0881740Y0518733D01*
X0881633Y0519273D01*
X0881327Y0519731D01*
X0880869Y0520037D01*
X0880329Y0520144D01*
D02*
G37*
G36*
X0875998D02*
X0875458Y0520037D01*
X0875000Y0519731D01*
X0874694Y0519273D01*
X0874587Y0518733D01*
X0874694Y0518193D01*
X0875000Y0517735D01*
X0875458Y0517429D01*
X0875998Y0517321D01*
X0876538Y0517429D01*
X0876996Y0517735D01*
X0877302Y0518193D01*
X0877410Y0518733D01*
X0877302Y0519273D01*
X0876996Y0519731D01*
X0876538Y0520037D01*
X0875998Y0520144D01*
D02*
G37*
G36*
X0871668D02*
X0871127Y0520037D01*
X0870670Y0519731D01*
X0870364Y0519273D01*
X0870256Y0518733D01*
X0870364Y0518193D01*
X0870670Y0517735D01*
X0871127Y0517429D01*
X0871668Y0517321D01*
X0872208Y0517429D01*
X0872666Y0517735D01*
X0872972Y0518193D01*
X0873079Y0518733D01*
X0872972Y0519273D01*
X0872666Y0519731D01*
X0872208Y0520037D01*
X0871668Y0520144D01*
D02*
G37*
G36*
X0862429Y0522107D02*
X0861960Y0522014D01*
X0861563Y0521748D01*
X0861298Y0521351D01*
X0861205Y0520883D01*
X0861298Y0520415D01*
X0861480Y0520144D01*
X0861499Y0519697D01*
X0861457Y0519488D01*
X0861240Y0519162D01*
X0861147Y0518694D01*
X0861240Y0518226D01*
X0861388Y0518005D01*
X0861449Y0517520D01*
X0861184Y0517123D01*
X0861091Y0516654D01*
X0861184Y0516186D01*
X0861449Y0515789D01*
X0861374Y0515238D01*
X0861367Y0515234D01*
X0861102Y0514837D01*
X0861009Y0514368D01*
X0861102Y0513900D01*
X0861367Y0513503D01*
X0861764Y0513238D01*
X0862233Y0513145D01*
X0862701Y0513238D01*
X0863098Y0513503D01*
X0863363Y0513900D01*
X0863456Y0514368D01*
X0863363Y0514837D01*
X0863098Y0515234D01*
X0863173Y0515785D01*
X0863179Y0515789D01*
X0863445Y0516186D01*
X0863538Y0516654D01*
X0863445Y0517123D01*
X0863297Y0517344D01*
X0863235Y0517829D01*
X0863501Y0518226D01*
X0863594Y0518694D01*
X0863501Y0519162D01*
X0863319Y0519434D01*
X0863300Y0519880D01*
X0863342Y0520090D01*
X0863559Y0520415D01*
X0863652Y0520883D01*
X0863559Y0521351D01*
X0863294Y0521748D01*
X0862897Y0522014D01*
X0862429Y0522107D01*
D02*
G37*
G36*
X0875773Y0510780D02*
X0875305Y0510687D01*
X0874908Y0510422D01*
X0874642Y0510025D01*
X0874549Y0509557D01*
X0874642Y0509089D01*
X0874908Y0508692D01*
X0875305Y0508427D01*
X0875773Y0508333D01*
X0876241Y0508427D01*
X0876638Y0508692D01*
X0876903Y0509089D01*
X0876996Y0509557D01*
X0876903Y0510025D01*
X0876638Y0510422D01*
X0876241Y0510687D01*
X0875773Y0510780D01*
D02*
G37*
G36*
X0869331Y0504081D02*
X0868863Y0503988D01*
X0868466Y0503722D01*
X0868201Y0503326D01*
X0868108Y0502857D01*
X0868201Y0502389D01*
X0868466Y0501992D01*
X0868863Y0501727D01*
X0869331Y0501634D01*
X0869800Y0501727D01*
X0870196Y0501992D01*
X0870462Y0502389D01*
X0870555Y0502857D01*
X0870462Y0503326D01*
X0870196Y0503722D01*
X0869800Y0503988D01*
X0869331Y0504081D01*
D02*
G37*
G36*
X0867289Y0501468D02*
X0866821Y0501375D01*
X0866424Y0501110D01*
X0866159Y0500713D01*
X0866066Y0500245D01*
X0866159Y0499777D01*
X0866424Y0499380D01*
X0866821Y0499115D01*
X0867289Y0499021D01*
X0867757Y0499115D01*
X0868154Y0499380D01*
X0868419Y0499777D01*
X0868513Y0500245D01*
X0868419Y0500713D01*
X0868154Y0501110D01*
X0867757Y0501375D01*
X0867289Y0501468D01*
D02*
G37*
G36*
X0847974Y0486957D02*
X0847506Y0486864D01*
X0847109Y0486599D01*
X0846844Y0486202D01*
X0846751Y0485733D01*
X0846844Y0485265D01*
X0847109Y0484868D01*
X0847506Y0484603D01*
X0847974Y0484510D01*
X0848442Y0484603D01*
X0848839Y0484868D01*
X0849104Y0485265D01*
X0849198Y0485733D01*
X0849104Y0486202D01*
X0848839Y0486599D01*
X0848442Y0486864D01*
X0847974Y0486957D01*
D02*
G37*
G36*
X0865889Y0485368D02*
X0865421Y0485275D01*
X0865024Y0485010D01*
X0864759Y0484613D01*
X0864666Y0484145D01*
X0864759Y0483677D01*
X0865024Y0483280D01*
X0865421Y0483014D01*
X0865889Y0482921D01*
X0866357Y0483014D01*
X0866754Y0483280D01*
X0867019Y0483677D01*
X0867113Y0484145D01*
X0867019Y0484613D01*
X0866754Y0485010D01*
X0866357Y0485275D01*
X0865889Y0485368D01*
D02*
G37*
G36*
X0859789Y0485268D02*
X0859321Y0485175D01*
X0858924Y0484910D01*
X0858659Y0484513D01*
X0858566Y0484045D01*
X0858659Y0483577D01*
X0858924Y0483180D01*
X0859321Y0482914D01*
X0859789Y0482821D01*
X0860257Y0482914D01*
X0860654Y0483180D01*
X0860919Y0483577D01*
X0861012Y0484045D01*
X0860919Y0484513D01*
X0860654Y0484910D01*
X0860257Y0485175D01*
X0859789Y0485268D01*
D02*
G37*
G36*
X0858989Y0479218D02*
X0858297Y0479127D01*
X0857652Y0478860D01*
X0857099Y0478435D01*
X0856674Y0477881D01*
X0856407Y0477237D01*
X0856316Y0476545D01*
X0856407Y0475853D01*
X0856674Y0475208D01*
X0857099Y0474655D01*
X0857652Y0474230D01*
X0858297Y0473963D01*
X0858989Y0473872D01*
X0859681Y0473963D01*
X0860325Y0474230D01*
X0860879Y0474655D01*
X0861304Y0475208D01*
X0861571Y0475853D01*
X0861662Y0476545D01*
X0861571Y0477237D01*
X0861304Y0477881D01*
X0860879Y0478435D01*
X0860325Y0478860D01*
X0859681Y0479127D01*
X0858989Y0479218D01*
D02*
G37*
G36*
X0865931Y0470094D02*
X0865619Y0470032D01*
X0865355Y0469855D01*
X0865178Y0469591D01*
X0865116Y0469279D01*
X0865178Y0468967D01*
X0865355Y0468702D01*
X0865619Y0468525D01*
X0865931Y0468463D01*
X0866243Y0468525D01*
X0866508Y0468702D01*
X0866685Y0468967D01*
X0866747Y0469279D01*
X0866685Y0469591D01*
X0866508Y0469855D01*
X0866243Y0470032D01*
X0865931Y0470094D01*
D02*
G37*
G36*
X0858989Y0473218D02*
X0858297Y0473127D01*
X0857652Y0472860D01*
X0857099Y0472435D01*
X0856674Y0471881D01*
X0856407Y0471237D01*
X0856316Y0470545D01*
X0856407Y0469853D01*
X0856674Y0469208D01*
X0857099Y0468655D01*
X0857652Y0468230D01*
X0858297Y0467963D01*
X0858989Y0467872D01*
X0859681Y0467963D01*
X0860325Y0468230D01*
X0860879Y0468655D01*
X0861304Y0469208D01*
X0861571Y0469853D01*
X0861662Y0470545D01*
X0861571Y0471237D01*
X0861304Y0471881D01*
X0860879Y0472435D01*
X0860325Y0472860D01*
X0859681Y0473127D01*
X0858989Y0473218D01*
D02*
G37*
G36*
X0410389Y0476583D02*
X0409240Y0476432D01*
X0408170Y0475988D01*
X0407251Y0475283D01*
X0406546Y0474364D01*
X0406102Y0473293D01*
X0405951Y0472145D01*
X0406102Y0470996D01*
X0406546Y0469926D01*
X0407251Y0469007D01*
X0408170Y0468301D01*
X0409240Y0467858D01*
X0410389Y0467707D01*
X0411538Y0467858D01*
X0412608Y0468301D01*
X0413527Y0469007D01*
X0414232Y0469926D01*
X0414676Y0470996D01*
X0414827Y0472145D01*
X0414676Y0473293D01*
X0414232Y0474364D01*
X0413527Y0475283D01*
X0412608Y0475988D01*
X0411538Y0476432D01*
X0410389Y0476583D01*
D02*
G37*
G36*
X0866128Y0467847D02*
X0865816Y0467785D01*
X0865551Y0467608D01*
X0865375Y0467343D01*
X0865313Y0467031D01*
X0865375Y0466719D01*
X0865551Y0466454D01*
X0865816Y0466278D01*
X0866128Y0466215D01*
X0866440Y0466278D01*
X0866705Y0466454D01*
X0866882Y0466719D01*
X0866944Y0467031D01*
X0866882Y0467343D01*
X0866705Y0467608D01*
X0866440Y0467785D01*
X0866128Y0467847D01*
D02*
G37*
G36*
X0860739Y0466044D02*
X0860349Y0465966D01*
X0860018Y0465745D01*
X0859797Y0465414D01*
X0859720Y0465024D01*
X0859797Y0464634D01*
X0860018Y0464303D01*
X0860349Y0464082D01*
X0860739Y0464005D01*
X0861129Y0464082D01*
X0861460Y0464303D01*
X0861681Y0464634D01*
X0861759Y0465024D01*
X0861681Y0465414D01*
X0861460Y0465745D01*
X0861129Y0465966D01*
X0860739Y0466044D01*
D02*
G37*
G36*
X0862589Y0463568D02*
X0862121Y0463475D01*
X0861724Y0463210D01*
X0861459Y0462813D01*
X0861366Y0462345D01*
X0861459Y0461877D01*
X0861724Y0461480D01*
X0862121Y0461214D01*
X0862589Y0461121D01*
X0863057Y0461214D01*
X0863454Y0461480D01*
X0863719Y0461877D01*
X0863813Y0462345D01*
X0863719Y0462813D01*
X0863454Y0463210D01*
X0863057Y0463475D01*
X0862589Y0463568D01*
D02*
G37*
G36*
X0866222Y0461427D02*
X0865910Y0461365D01*
X0865646Y0461188D01*
X0865469Y0460924D01*
X0865407Y0460612D01*
X0865469Y0460299D01*
X0865646Y0460035D01*
X0865910Y0459858D01*
X0866222Y0459796D01*
X0866534Y0459858D01*
X0866799Y0460035D01*
X0866976Y0460299D01*
X0867038Y0460612D01*
X0866976Y0460924D01*
X0866799Y0461188D01*
X0866534Y0461365D01*
X0866222Y0461427D01*
D02*
G37*
G36*
X0860089Y0462068D02*
X0859621Y0461975D01*
X0859224Y0461710D01*
X0858959Y0461313D01*
X0858866Y0460845D01*
X0858959Y0460377D01*
X0859224Y0459980D01*
X0859621Y0459715D01*
X0860089Y0459621D01*
X0860557Y0459715D01*
X0860954Y0459980D01*
X0861219Y0460377D01*
X0861312Y0460845D01*
X0861219Y0461313D01*
X0860954Y0461710D01*
X0860557Y0461975D01*
X0860089Y0462068D01*
D02*
G37*
G36*
X0862557Y0459593D02*
X0862245Y0459531D01*
X0861981Y0459354D01*
X0861804Y0459089D01*
X0861742Y0458777D01*
X0861804Y0458465D01*
X0861981Y0458200D01*
X0862245Y0458024D01*
X0862557Y0457961D01*
X0862870Y0458024D01*
X0863134Y0458200D01*
X0863311Y0458465D01*
X0863373Y0458777D01*
X0863311Y0459089D01*
X0863134Y0459354D01*
X0862870Y0459531D01*
X0862557Y0459593D01*
D02*
G37*
G36*
X0853161Y0460177D02*
X0852693Y0460084D01*
X0852296Y0459819D01*
X0852030Y0459422D01*
X0851937Y0458954D01*
X0852030Y0458486D01*
X0852296Y0458089D01*
X0852693Y0457823D01*
X0853161Y0457730D01*
X0853629Y0457823D01*
X0854026Y0458089D01*
X0854291Y0458486D01*
X0854384Y0458954D01*
X0854291Y0459422D01*
X0854026Y0459819D01*
X0853629Y0460084D01*
X0853161Y0460177D01*
D02*
G37*
G36*
X0866457Y0459193D02*
X0866145Y0459131D01*
X0865881Y0458954D01*
X0865704Y0458689D01*
X0865642Y0458377D01*
X0865704Y0458065D01*
X0865881Y0457800D01*
X0866145Y0457623D01*
X0866457Y0457561D01*
X0866770Y0457623D01*
X0867034Y0457800D01*
X0867211Y0458065D01*
X0867273Y0458377D01*
X0867211Y0458689D01*
X0867034Y0458954D01*
X0866770Y0459131D01*
X0866457Y0459193D01*
D02*
G37*
G36*
X0434689Y0451276D02*
X0434065Y0451152D01*
X0433535Y0450798D01*
X0433182Y0450269D01*
X0433058Y0449645D01*
X0433182Y0449021D01*
X0433535Y0448491D01*
X0434065Y0448138D01*
X0434689Y0448013D01*
X0435313Y0448138D01*
X0435843Y0448491D01*
X0436196Y0449021D01*
X0436320Y0449645D01*
X0436196Y0450269D01*
X0435843Y0450798D01*
X0435313Y0451152D01*
X0434689Y0451276D01*
D02*
G37*
G36*
X0462824Y0448496D02*
X0462200Y0448372D01*
X0461671Y0448018D01*
X0461317Y0447489D01*
X0461193Y0446865D01*
X0461317Y0446241D01*
X0461671Y0445711D01*
X0462200Y0445358D01*
X0462824Y0445233D01*
X0463449Y0445358D01*
X0463978Y0445711D01*
X0464332Y0446241D01*
X0464456Y0446865D01*
X0464332Y0447489D01*
X0463978Y0448018D01*
X0463449Y0448372D01*
X0462824Y0448496D01*
D02*
G37*
G36*
X0480289Y0447576D02*
X0479665Y0447452D01*
X0479135Y0447098D01*
X0478782Y0446569D01*
X0478658Y0445945D01*
X0478782Y0445321D01*
X0479135Y0444791D01*
X0479665Y0444438D01*
X0480289Y0444313D01*
X0480913Y0444438D01*
X0481442Y0444791D01*
X0481796Y0445321D01*
X0481920Y0445945D01*
X0481796Y0446569D01*
X0481442Y0447098D01*
X0480913Y0447452D01*
X0480289Y0447576D01*
D02*
G37*
G36*
X0438579Y0444840D02*
X0437955Y0444716D01*
X0437426Y0444363D01*
X0437072Y0443833D01*
X0436948Y0443209D01*
X0437072Y0442585D01*
X0437426Y0442056D01*
X0437955Y0441702D01*
X0438579Y0441578D01*
X0439204Y0441702D01*
X0439733Y0442056D01*
X0440086Y0442585D01*
X0440210Y0443209D01*
X0440086Y0443833D01*
X0439733Y0444363D01*
X0439204Y0444716D01*
X0438579Y0444840D01*
D02*
G37*
G36*
X0462388Y0443291D02*
X0461608Y0443136D01*
X0460946Y0442694D01*
X0460504Y0442032D01*
X0460349Y0441252D01*
X0460504Y0440472D01*
X0460946Y0439810D01*
X0461608Y0439368D01*
X0462388Y0439213D01*
X0463168Y0439368D01*
X0463830Y0439810D01*
X0464272Y0440472D01*
X0464427Y0441252D01*
X0464272Y0442032D01*
X0463830Y0442694D01*
X0463168Y0443136D01*
X0462388Y0443291D01*
D02*
G37*
G36*
X0466489Y0437176D02*
X0465865Y0437052D01*
X0465335Y0436698D01*
X0464982Y0436169D01*
X0464858Y0435545D01*
X0464982Y0434921D01*
X0465335Y0434391D01*
X0465865Y0434038D01*
X0466489Y0433914D01*
X0467113Y0434038D01*
X0467642Y0434391D01*
X0467996Y0434921D01*
X0468120Y0435545D01*
X0467996Y0436169D01*
X0467642Y0436698D01*
X0467113Y0437052D01*
X0466489Y0437176D01*
D02*
G37*
G36*
X0479901Y0437098D02*
X0479277Y0436973D01*
X0478747Y0436620D01*
X0478394Y0436091D01*
X0478269Y0435466D01*
X0478394Y0434842D01*
X0478747Y0434313D01*
X0479277Y0433959D01*
X0479901Y0433835D01*
X0480525Y0433959D01*
X0481054Y0434313D01*
X0481408Y0434842D01*
X0481532Y0435466D01*
X0481408Y0436091D01*
X0481054Y0436620D01*
X0480525Y0436973D01*
X0479901Y0437098D01*
D02*
G37*
G36*
X0414664Y0436787D02*
X0413883Y0436632D01*
X0413222Y0436190D01*
X0412780Y0435528D01*
X0412625Y0434748D01*
X0412780Y0433967D01*
X0413222Y0433306D01*
X0413883Y0432864D01*
X0414664Y0432709D01*
X0415444Y0432864D01*
X0416106Y0433306D01*
X0416548Y0433967D01*
X0416703Y0434748D01*
X0416548Y0435528D01*
X0416106Y0436190D01*
X0415444Y0436632D01*
X0414664Y0436787D01*
D02*
G37*
G36*
X0521702Y0435433D02*
X0520922Y0435278D01*
X0520260Y0434836D01*
X0519818Y0434175D01*
X0519663Y0433394D01*
X0519818Y0432614D01*
X0520260Y0431952D01*
X0520922Y0431510D01*
X0521702Y0431355D01*
X0522482Y0431510D01*
X0523144Y0431952D01*
X0523586Y0432614D01*
X0523741Y0433394D01*
X0523586Y0434175D01*
X0523144Y0434836D01*
X0522482Y0435278D01*
X0521702Y0435433D01*
D02*
G37*
G36*
X0462217Y0435513D02*
X0461593Y0435389D01*
X0461064Y0435036D01*
X0460710Y0434506D01*
X0460586Y0433882D01*
X0460710Y0433258D01*
X0461064Y0432728D01*
X0461541Y0432410D01*
X0461555Y0432201D01*
X0461488Y0431890D01*
X0461326Y0431857D01*
X0460797Y0431504D01*
X0460443Y0430974D01*
X0460319Y0430350D01*
X0460443Y0429726D01*
X0460797Y0429197D01*
X0461326Y0428843D01*
X0461950Y0428719D01*
X0462574Y0428843D01*
X0463104Y0429197D01*
X0463457Y0429726D01*
X0463582Y0430350D01*
X0463457Y0430974D01*
X0463104Y0431504D01*
X0462627Y0431822D01*
X0462612Y0432031D01*
X0462680Y0432343D01*
X0462842Y0432375D01*
X0463371Y0432728D01*
X0463725Y0433258D01*
X0463849Y0433882D01*
X0463725Y0434506D01*
X0463371Y0435036D01*
X0462842Y0435389D01*
X0462217Y0435513D01*
D02*
G37*
G36*
X0514561Y0430290D02*
X0514093Y0430197D01*
X0513696Y0429932D01*
X0513431Y0429535D01*
X0513338Y0429067D01*
X0513431Y0428598D01*
X0513696Y0428202D01*
X0514093Y0427936D01*
X0514561Y0427843D01*
X0515029Y0427936D01*
X0515426Y0428202D01*
X0515691Y0428598D01*
X0515785Y0429067D01*
X0515691Y0429535D01*
X0515426Y0429932D01*
X0515029Y0430197D01*
X0514561Y0430290D01*
D02*
G37*
G36*
X0847688Y0429006D02*
X0847220Y0428913D01*
X0846823Y0428648D01*
X0846558Y0428251D01*
X0846465Y0427783D01*
X0846558Y0427315D01*
X0846823Y0426918D01*
X0847220Y0426652D01*
X0847688Y0426559D01*
X0848157Y0426652D01*
X0848553Y0426918D01*
X0848819Y0427315D01*
X0848912Y0427783D01*
X0848819Y0428251D01*
X0848553Y0428648D01*
X0848157Y0428913D01*
X0847688Y0429006D01*
D02*
G37*
G36*
X0414604Y0430509D02*
X0413823Y0430354D01*
X0413162Y0429912D01*
X0412720Y0429250D01*
X0412564Y0428470D01*
X0412720Y0427689D01*
X0413162Y0427028D01*
X0413823Y0426586D01*
X0414604Y0426431D01*
X0415384Y0426586D01*
X0416046Y0427028D01*
X0416488Y0427689D01*
X0416643Y0428470D01*
X0416488Y0429250D01*
X0416046Y0429912D01*
X0415384Y0430354D01*
X0414604Y0430509D01*
D02*
G37*
G36*
X0434403Y0429643D02*
X0433623Y0429488D01*
X0432961Y0429046D01*
X0432519Y0428384D01*
X0432364Y0427604D01*
X0432519Y0426824D01*
X0432961Y0426162D01*
X0433623Y0425720D01*
X0434403Y0425565D01*
X0435183Y0425720D01*
X0435845Y0426162D01*
X0436287Y0426824D01*
X0436442Y0427604D01*
X0436287Y0428384D01*
X0435845Y0429046D01*
X0435183Y0429488D01*
X0434403Y0429643D01*
D02*
G37*
G36*
X0847688Y0423427D02*
X0847220Y0423334D01*
X0846823Y0423069D01*
X0846558Y0422672D01*
X0846465Y0422204D01*
X0846558Y0421736D01*
X0846823Y0421339D01*
X0847220Y0421074D01*
X0847688Y0420981D01*
X0848157Y0421074D01*
X0848553Y0421339D01*
X0848819Y0421736D01*
X0848912Y0422204D01*
X0848819Y0422672D01*
X0848553Y0423069D01*
X0848157Y0423334D01*
X0847688Y0423427D01*
D02*
G37*
G36*
X0415204Y0424032D02*
X0414424Y0423877D01*
X0413762Y0423435D01*
X0413320Y0422773D01*
X0413165Y0421993D01*
X0413320Y0421213D01*
X0413762Y0420551D01*
X0414424Y0420109D01*
X0415204Y0419954D01*
X0415984Y0420109D01*
X0416646Y0420551D01*
X0417088Y0421213D01*
X0417243Y0421993D01*
X0417088Y0422773D01*
X0416646Y0423435D01*
X0415984Y0423877D01*
X0415204Y0424032D01*
D02*
G37*
G36*
X0523764Y0413613D02*
X0515764D01*
X0515457Y0413486D01*
X0515331Y0413180D01*
Y0406480D01*
X0515457Y0406174D01*
X0515764Y0406047D01*
X0523764D01*
X0524070Y0406174D01*
X0524196Y0406480D01*
Y0413180D01*
X0524070Y0413486D01*
X0523764Y0413613D01*
D02*
G37*
G36*
X0858739Y0406001D02*
X0858271Y0405908D01*
X0857874Y0405643D01*
X0857609Y0405246D01*
X0857516Y0404778D01*
X0857609Y0404310D01*
X0857874Y0403913D01*
X0858271Y0403648D01*
X0858739Y0403554D01*
X0859207Y0403648D01*
X0859604Y0403913D01*
X0859869Y0404310D01*
X0859962Y0404778D01*
X0859869Y0405246D01*
X0859604Y0405643D01*
X0859207Y0405908D01*
X0858739Y0406001D01*
D02*
G37*
G36*
X0511952Y0406014D02*
X0511172Y0405858D01*
X0510510Y0405416D01*
X0510068Y0404755D01*
X0509913Y0403974D01*
X0510068Y0403194D01*
X0510510Y0402533D01*
X0511172Y0402091D01*
X0511952Y0401935D01*
X0512732Y0402091D01*
X0513394Y0402533D01*
X0513836Y0403194D01*
X0513991Y0403974D01*
X0513836Y0404755D01*
X0513394Y0405416D01*
X0512732Y0405858D01*
X0511952Y0406014D01*
D02*
G37*
G36*
X0425185Y0405892D02*
X0424405Y0405737D01*
X0423743Y0405295D01*
X0423301Y0404634D01*
X0423146Y0403853D01*
X0423301Y0403073D01*
X0423743Y0402411D01*
X0424405Y0401969D01*
X0425185Y0401814D01*
X0425965Y0401969D01*
X0426627Y0402411D01*
X0427069Y0403073D01*
X0427224Y0403853D01*
X0427069Y0404634D01*
X0426627Y0405295D01*
X0425965Y0405737D01*
X0425185Y0405892D01*
D02*
G37*
G36*
X0437719Y0407014D02*
X0436571Y0406862D01*
X0435500Y0406419D01*
X0434581Y0405714D01*
X0433876Y0404795D01*
X0433432Y0403724D01*
X0433281Y0402576D01*
X0433432Y0401427D01*
X0433876Y0400357D01*
X0434581Y0399437D01*
X0435500Y0398732D01*
X0436571Y0398289D01*
X0437719Y0398138D01*
X0438868Y0398289D01*
X0439938Y0398732D01*
X0440857Y0399437D01*
X0441563Y0400357D01*
X0442006Y0401427D01*
X0442157Y0402576D01*
X0442006Y0403724D01*
X0441563Y0404795D01*
X0440857Y0405714D01*
X0439938Y0406419D01*
X0438868Y0406862D01*
X0437719Y0407014D01*
D02*
G37*
G36*
X0508611Y0401819D02*
X0507831Y0401664D01*
X0507170Y0401222D01*
X0506728Y0400560D01*
X0506572Y0399780D01*
X0506728Y0398999D01*
X0507170Y0398338D01*
X0507831Y0397896D01*
X0508611Y0397741D01*
X0509392Y0397896D01*
X0510053Y0398338D01*
X0510495Y0398999D01*
X0510651Y0399780D01*
X0510495Y0400560D01*
X0510053Y0401222D01*
X0509392Y0401664D01*
X0508611Y0401819D01*
D02*
G37*
G36*
X0538292Y0400886D02*
X0537512Y0400731D01*
X0536850Y0400289D01*
X0536408Y0399627D01*
X0536253Y0398847D01*
X0536408Y0398067D01*
X0536850Y0397405D01*
X0537512Y0396963D01*
X0538292Y0396808D01*
X0539072Y0396963D01*
X0539734Y0397405D01*
X0540176Y0398067D01*
X0540331Y0398847D01*
X0540176Y0399627D01*
X0539734Y0400289D01*
X0539072Y0400731D01*
X0538292Y0400886D01*
D02*
G37*
G36*
X0519352Y0393414D02*
X0518572Y0393258D01*
X0517910Y0392816D01*
X0517468Y0392155D01*
X0517313Y0391374D01*
X0517468Y0390594D01*
X0517910Y0389933D01*
X0518572Y0389491D01*
X0519352Y0389335D01*
X0520132Y0389491D01*
X0520794Y0389933D01*
X0521236Y0390594D01*
X0521391Y0391374D01*
X0521236Y0392155D01*
X0520794Y0392816D01*
X0520132Y0393258D01*
X0519352Y0393414D01*
D02*
G37*
G36*
X0534344Y0390832D02*
X0533564Y0390677D01*
X0532902Y0390235D01*
X0532460Y0389573D01*
X0532305Y0388793D01*
X0532460Y0388012D01*
X0532902Y0387351D01*
X0533564Y0386909D01*
X0534344Y0386754D01*
X0535125Y0386909D01*
X0535786Y0387351D01*
X0536228Y0388012D01*
X0536384Y0388793D01*
X0536228Y0389573D01*
X0535786Y0390235D01*
X0535125Y0390677D01*
X0534344Y0390832D01*
D02*
G37*
G36*
X0532848Y0385593D02*
X0532068Y0385438D01*
X0531406Y0384996D01*
X0530964Y0384335D01*
X0530809Y0383554D01*
X0530964Y0382774D01*
X0531406Y0382112D01*
X0532068Y0381670D01*
X0532848Y0381515D01*
X0533629Y0381670D01*
X0534290Y0382112D01*
X0534732Y0382774D01*
X0534887Y0383554D01*
X0534732Y0384335D01*
X0534290Y0384996D01*
X0533629Y0385438D01*
X0532848Y0385593D01*
D02*
G37*
G36*
X0837847Y0358471D02*
X0837379Y0358377D01*
X0836982Y0358112D01*
X0836717Y0357715D01*
X0836624Y0357247D01*
X0836717Y0356779D01*
X0836982Y0356382D01*
X0837379Y0356117D01*
X0837847Y0356024D01*
X0838316Y0356117D01*
X0838713Y0356382D01*
X0838978Y0356779D01*
X0839071Y0357247D01*
X0838978Y0357715D01*
X0838713Y0358112D01*
X0838316Y0358377D01*
X0837847Y0358471D01*
D02*
G37*
G36*
X0816512Y0358446D02*
X0816043Y0358352D01*
X0815647Y0358087D01*
X0815381Y0357690D01*
X0815288Y0357222D01*
X0815381Y0356754D01*
X0815647Y0356357D01*
X0816043Y0356092D01*
X0816512Y0355999D01*
X0816980Y0356092D01*
X0817377Y0356357D01*
X0817642Y0356754D01*
X0817735Y0357222D01*
X0817642Y0357690D01*
X0817377Y0358087D01*
X0816980Y0358352D01*
X0816512Y0358446D01*
D02*
G37*
G36*
X0389889Y0352084D02*
X0389109Y0351929D01*
X0388447Y0351487D01*
X0388005Y0350825D01*
X0387850Y0350045D01*
X0388005Y0349265D01*
X0388447Y0348603D01*
X0389109Y0348161D01*
X0389889Y0348006D01*
X0390669Y0348161D01*
X0391331Y0348603D01*
X0391773Y0349265D01*
X0391928Y0350045D01*
X0391773Y0350825D01*
X0391331Y0351487D01*
X0390669Y0351929D01*
X0389889Y0352084D01*
D02*
G37*
G36*
X0802768Y0349793D02*
X0802299Y0349700D01*
X0801902Y0349434D01*
X0801637Y0349037D01*
X0801544Y0348569D01*
X0801637Y0348101D01*
X0801902Y0347704D01*
X0802299Y0347439D01*
X0802768Y0347346D01*
X0803236Y0347439D01*
X0803633Y0347704D01*
X0803898Y0348101D01*
X0803991Y0348569D01*
X0803898Y0349037D01*
X0803633Y0349434D01*
X0803236Y0349700D01*
X0802768Y0349793D01*
D02*
G37*
G36*
X0806289Y0348168D02*
X0805821Y0348075D01*
X0805424Y0347810D01*
X0805159Y0347413D01*
X0805066Y0346945D01*
X0805159Y0346477D01*
X0805424Y0346080D01*
X0805821Y0345814D01*
X0806289Y0345721D01*
X0806757Y0345814D01*
X0807154Y0346080D01*
X0807419Y0346477D01*
X0807512Y0346945D01*
X0807419Y0347413D01*
X0807154Y0347810D01*
X0806757Y0348075D01*
X0806289Y0348168D01*
D02*
G37*
G36*
X0484878Y0348017D02*
X0484098Y0347862D01*
X0483436Y0347420D01*
X0482994Y0346758D01*
X0482839Y0345978D01*
X0482994Y0345198D01*
X0483436Y0344536D01*
X0484098Y0344094D01*
X0484878Y0343939D01*
X0485659Y0344094D01*
X0486320Y0344536D01*
X0486762Y0345198D01*
X0486849Y0345635D01*
X0486870Y0345740D01*
X0487380D01*
X0487404Y0345620D01*
X0487507Y0345100D01*
X0487949Y0344438D01*
X0488611Y0343996D01*
X0489391Y0343841D01*
X0490172Y0343996D01*
X0490833Y0344438D01*
X0491275Y0345100D01*
X0491430Y0345880D01*
X0491275Y0346661D01*
X0490833Y0347322D01*
X0490172Y0347764D01*
X0489391Y0347920D01*
X0488611Y0347764D01*
X0487949Y0347322D01*
X0487507Y0346661D01*
X0487420Y0346224D01*
X0487399Y0346118D01*
X0486890D01*
X0486866Y0346238D01*
X0486762Y0346758D01*
X0486320Y0347420D01*
X0485659Y0347862D01*
X0484878Y0348017D01*
D02*
G37*
G36*
X0611823Y0344515D02*
X0611042Y0344360D01*
X0610381Y0343918D01*
X0609939Y0343256D01*
X0609784Y0342476D01*
X0609939Y0341695D01*
X0610381Y0341034D01*
X0611042Y0340592D01*
X0611823Y0340437D01*
X0612603Y0340592D01*
X0613265Y0341034D01*
X0613707Y0341695D01*
X0613862Y0342476D01*
X0613707Y0343256D01*
X0613265Y0343918D01*
X0612603Y0344360D01*
X0611823Y0344515D01*
D02*
G37*
G36*
X0793389Y0342768D02*
X0792921Y0342675D01*
X0792524Y0342410D01*
X0792259Y0342013D01*
X0792166Y0341545D01*
X0792259Y0341077D01*
X0792524Y0340680D01*
X0792921Y0340415D01*
X0793389Y0340321D01*
X0793857Y0340415D01*
X0794254Y0340680D01*
X0794519Y0341077D01*
X0794613Y0341545D01*
X0794519Y0342013D01*
X0794254Y0342410D01*
X0793857Y0342675D01*
X0793389Y0342768D01*
D02*
G37*
G36*
X0604261Y0342116D02*
X0603481Y0341961D01*
X0602819Y0341519D01*
X0602377Y0340857D01*
X0602222Y0340077D01*
X0602359Y0339387D01*
X0602140Y0339162D01*
X0601954Y0339057D01*
X0601539Y0339334D01*
X0600758Y0339489D01*
X0599978Y0339334D01*
X0599316Y0338892D01*
X0598874Y0338230D01*
X0598719Y0337450D01*
X0598874Y0336670D01*
X0599316Y0336008D01*
X0599978Y0335566D01*
X0600758Y0335411D01*
X0601539Y0335566D01*
X0602200Y0336008D01*
X0602642Y0336670D01*
X0602798Y0337450D01*
X0602660Y0338140D01*
X0602879Y0338365D01*
X0603065Y0338471D01*
X0603481Y0338193D01*
X0604261Y0338038D01*
X0605041Y0338193D01*
X0605703Y0338635D01*
X0606145Y0339297D01*
X0606300Y0340077D01*
X0606145Y0340857D01*
X0605703Y0341519D01*
X0605041Y0341961D01*
X0604261Y0342116D01*
D02*
G37*
G36*
X0467960Y0342394D02*
X0467179Y0342239D01*
X0466518Y0341797D01*
X0466076Y0341136D01*
X0465920Y0340355D01*
X0466076Y0339575D01*
X0466518Y0338913D01*
X0467179Y0338471D01*
X0467960Y0338316D01*
X0468740Y0338471D01*
X0469402Y0338913D01*
X0469843Y0339575D01*
X0469999Y0340355D01*
X0469843Y0341136D01*
X0469402Y0341797D01*
X0468740Y0342239D01*
X0467960Y0342394D01*
D02*
G37*
G36*
X0789715Y0338832D02*
X0789246Y0338739D01*
X0788849Y0338474D01*
X0788584Y0338077D01*
X0788491Y0337609D01*
X0788584Y0337140D01*
X0788849Y0336744D01*
X0789246Y0336478D01*
X0789715Y0336385D01*
X0790183Y0336478D01*
X0790580Y0336744D01*
X0790845Y0337140D01*
X0790938Y0337609D01*
X0790845Y0338077D01*
X0790580Y0338474D01*
X0790183Y0338739D01*
X0789715Y0338832D01*
D02*
G37*
G36*
X0376882Y0335910D02*
X0376414Y0335817D01*
X0376017Y0335552D01*
X0375752Y0335155D01*
X0375658Y0334686D01*
X0375752Y0334218D01*
X0376017Y0333821D01*
X0376414Y0333556D01*
X0376882Y0333463D01*
X0377350Y0333556D01*
X0377747Y0333821D01*
X0378012Y0334218D01*
X0378105Y0334686D01*
X0378012Y0335155D01*
X0377747Y0335552D01*
X0377350Y0335817D01*
X0376882Y0335910D01*
D02*
G37*
G36*
X0463989Y0337484D02*
X0463209Y0337329D01*
X0462547Y0336887D01*
X0462105Y0336225D01*
X0461950Y0335445D01*
X0462105Y0334665D01*
X0462547Y0334003D01*
X0463209Y0333561D01*
X0463989Y0333406D01*
X0464769Y0333561D01*
X0465431Y0334003D01*
X0465873Y0334665D01*
X0466028Y0335445D01*
X0465873Y0336225D01*
X0465431Y0336887D01*
X0464769Y0337329D01*
X0463989Y0337484D01*
D02*
G37*
G36*
X0372390Y0336801D02*
X0371609Y0336646D01*
X0370948Y0336204D01*
X0370506Y0335542D01*
X0370351Y0334762D01*
X0370506Y0333981D01*
X0370948Y0333320D01*
X0371609Y0332878D01*
X0372390Y0332723D01*
X0373170Y0332878D01*
X0373832Y0333320D01*
X0374274Y0333981D01*
X0374429Y0334762D01*
X0374274Y0335542D01*
X0373832Y0336204D01*
X0373170Y0336646D01*
X0372390Y0336801D01*
D02*
G37*
G36*
X0792380Y0334314D02*
X0791912Y0334221D01*
X0791515Y0333956D01*
X0791250Y0333559D01*
X0791157Y0333090D01*
X0791250Y0332622D01*
X0791515Y0332225D01*
X0791912Y0331960D01*
X0792380Y0331867D01*
X0792848Y0331960D01*
X0793245Y0332225D01*
X0793511Y0332622D01*
X0793604Y0333090D01*
X0793511Y0333559D01*
X0793245Y0333956D01*
X0792848Y0334221D01*
X0792380Y0334314D01*
D02*
G37*
G36*
X0448609Y0336623D02*
X0441135D01*
X0440829Y0336496D01*
X0440702Y0336190D01*
Y0329300D01*
X0440829Y0328994D01*
X0441135Y0328867D01*
X0448609D01*
X0448916Y0328994D01*
X0449042Y0329300D01*
Y0336190D01*
X0448916Y0336496D01*
X0448609Y0336623D01*
D02*
G37*
G36*
X0490561Y0331014D02*
X0489781Y0330859D01*
X0489119Y0330417D01*
X0488677Y0329755D01*
X0488522Y0328975D01*
X0488677Y0328194D01*
X0489119Y0327533D01*
X0489781Y0327091D01*
X0490561Y0326936D01*
X0491342Y0327091D01*
X0492003Y0327533D01*
X0492445Y0328194D01*
X0492600Y0328975D01*
X0492445Y0329755D01*
X0492003Y0330417D01*
X0491342Y0330859D01*
X0490561Y0331014D01*
D02*
G37*
G36*
X0792789Y0328068D02*
X0792321Y0327975D01*
X0791924Y0327710D01*
X0791659Y0327313D01*
X0791566Y0326845D01*
X0791659Y0326377D01*
X0791924Y0325980D01*
X0792321Y0325714D01*
X0792789Y0325621D01*
X0793257Y0325714D01*
X0793654Y0325980D01*
X0793919Y0326377D01*
X0794012Y0326845D01*
X0793919Y0327313D01*
X0793654Y0327710D01*
X0793257Y0327975D01*
X0792789Y0328068D01*
D02*
G37*
G36*
X0480929Y0327577D02*
X0480148Y0327422D01*
X0479487Y0326980D01*
X0479045Y0326318D01*
X0478890Y0325538D01*
X0479045Y0324757D01*
X0479487Y0324096D01*
X0480148Y0323654D01*
X0480929Y0323499D01*
X0481709Y0323654D01*
X0482371Y0324096D01*
X0482813Y0324757D01*
X0482968Y0325538D01*
X0482813Y0326318D01*
X0482371Y0326980D01*
X0481709Y0327422D01*
X0480929Y0327577D01*
D02*
G37*
G36*
X0492855Y0323971D02*
X0492075Y0323816D01*
X0491413Y0323374D01*
X0490971Y0322713D01*
X0490816Y0321932D01*
X0490971Y0321152D01*
X0491413Y0320490D01*
X0492075Y0320048D01*
X0492855Y0319893D01*
X0493636Y0320048D01*
X0494297Y0320490D01*
X0494739Y0321152D01*
X0494895Y0321932D01*
X0494739Y0322713D01*
X0494297Y0323374D01*
X0493636Y0323816D01*
X0492855Y0323971D01*
D02*
G37*
G36*
X0582355Y0322296D02*
X0581575Y0322141D01*
X0580913Y0321699D01*
X0580472Y0321038D01*
X0580316Y0320257D01*
X0580472Y0319477D01*
X0580913Y0318815D01*
X0581575Y0318373D01*
X0582355Y0318218D01*
X0583136Y0318373D01*
X0583797Y0318815D01*
X0584239Y0319477D01*
X0584395Y0320257D01*
X0584239Y0321038D01*
X0583797Y0321699D01*
X0583136Y0322141D01*
X0582355Y0322296D01*
D02*
G37*
G36*
X0776324Y0321679D02*
X0775543Y0321524D01*
X0774882Y0321082D01*
X0774440Y0320421D01*
X0774285Y0319640D01*
X0774440Y0318860D01*
X0774882Y0318198D01*
X0775543Y0317756D01*
X0776324Y0317601D01*
X0777104Y0317756D01*
X0777766Y0318198D01*
X0778208Y0318860D01*
X0778363Y0319640D01*
X0778208Y0320421D01*
X0777766Y0321082D01*
X0777104Y0321524D01*
X0776324Y0321679D01*
D02*
G37*
G36*
X0788989Y0319668D02*
X0788521Y0319575D01*
X0788124Y0319310D01*
X0787859Y0318913D01*
X0787766Y0318445D01*
X0787859Y0317977D01*
X0788124Y0317580D01*
X0788521Y0317315D01*
X0788989Y0317221D01*
X0789457Y0317315D01*
X0789854Y0317580D01*
X0790119Y0317977D01*
X0790212Y0318445D01*
X0790119Y0318913D01*
X0789854Y0319310D01*
X0789457Y0319575D01*
X0788989Y0319668D01*
D02*
G37*
G36*
X0671189Y0319284D02*
X0670409Y0319129D01*
X0669747Y0318687D01*
X0669305Y0318025D01*
X0669150Y0317245D01*
X0669305Y0316464D01*
X0669747Y0315803D01*
X0670409Y0315361D01*
X0671189Y0315206D01*
X0671969Y0315361D01*
X0672631Y0315803D01*
X0673073Y0316464D01*
X0673228Y0317245D01*
X0673073Y0318025D01*
X0672631Y0318687D01*
X0671969Y0319129D01*
X0671189Y0319284D01*
D02*
G37*
G36*
X0630718Y0317164D02*
X0629938Y0317009D01*
X0629276Y0316567D01*
X0628834Y0315905D01*
X0628679Y0315125D01*
X0628834Y0314345D01*
X0629276Y0313683D01*
X0629938Y0313241D01*
X0630718Y0313086D01*
X0631498Y0313241D01*
X0632160Y0313683D01*
X0632602Y0314345D01*
X0632757Y0315125D01*
X0632602Y0315905D01*
X0632160Y0316567D01*
X0631498Y0317009D01*
X0630718Y0317164D01*
D02*
G37*
G36*
X0721862Y0315932D02*
X0721081Y0315777D01*
X0720420Y0315335D01*
X0719978Y0314673D01*
X0719822Y0313893D01*
X0719978Y0313112D01*
X0720420Y0312451D01*
X0721081Y0312009D01*
X0721862Y0311854D01*
X0722642Y0312009D01*
X0723304Y0312451D01*
X0723746Y0313112D01*
X0723901Y0313893D01*
X0723746Y0314673D01*
X0723304Y0315335D01*
X0722642Y0315777D01*
X0721862Y0315932D01*
D02*
G37*
G36*
X0761489Y0314268D02*
X0761021Y0314175D01*
X0760624Y0313910D01*
X0760359Y0313513D01*
X0760265Y0313045D01*
X0760359Y0312577D01*
X0760624Y0312180D01*
X0761021Y0311914D01*
X0761489Y0311821D01*
X0761957Y0311914D01*
X0762354Y0312180D01*
X0762619Y0312577D01*
X0762712Y0313045D01*
X0762619Y0313513D01*
X0762354Y0313910D01*
X0761957Y0314175D01*
X0761489Y0314268D01*
D02*
G37*
G36*
X0757289D02*
X0756821Y0314175D01*
X0756424Y0313910D01*
X0756159Y0313513D01*
X0756066Y0313045D01*
X0756159Y0312577D01*
X0756424Y0312180D01*
X0756821Y0311914D01*
X0757289Y0311821D01*
X0757757Y0311914D01*
X0758154Y0312180D01*
X0758419Y0312577D01*
X0758512Y0313045D01*
X0758419Y0313513D01*
X0758154Y0313910D01*
X0757757Y0314175D01*
X0757289Y0314268D01*
D02*
G37*
G36*
X0769283Y0314130D02*
X0768815Y0314037D01*
X0768418Y0313772D01*
X0768153Y0313375D01*
X0768059Y0312906D01*
X0768153Y0312438D01*
X0768418Y0312041D01*
X0768815Y0311776D01*
X0769283Y0311683D01*
X0769751Y0311776D01*
X0770148Y0312041D01*
X0770413Y0312438D01*
X0770506Y0312906D01*
X0770413Y0313375D01*
X0770148Y0313772D01*
X0769751Y0314037D01*
X0769283Y0314130D01*
D02*
G37*
G36*
X0765346Y0314115D02*
X0764878Y0314022D01*
X0764481Y0313756D01*
X0764216Y0313359D01*
X0764123Y0312891D01*
X0764216Y0312423D01*
X0764481Y0312026D01*
X0764878Y0311761D01*
X0765346Y0311668D01*
X0765814Y0311761D01*
X0766211Y0312026D01*
X0766477Y0312423D01*
X0766570Y0312891D01*
X0766477Y0313359D01*
X0766211Y0313756D01*
X0765814Y0314022D01*
X0765346Y0314115D01*
D02*
G37*
G36*
X0578745Y0308931D02*
X0578277Y0308838D01*
X0577880Y0308572D01*
X0577615Y0308175D01*
X0577522Y0307707D01*
X0577615Y0307239D01*
X0577880Y0306842D01*
X0578277Y0306577D01*
X0578745Y0306484D01*
X0579213Y0306577D01*
X0579610Y0306842D01*
X0579876Y0307239D01*
X0579969Y0307707D01*
X0579876Y0308175D01*
X0579610Y0308572D01*
X0579213Y0308838D01*
X0578745Y0308931D01*
D02*
G37*
G36*
X0578589Y0305178D02*
X0576989D01*
X0576683Y0305051D01*
X0576556Y0304745D01*
Y0302545D01*
X0576683Y0302239D01*
X0576989Y0302112D01*
X0578589D01*
X0578895Y0302239D01*
X0579022Y0302545D01*
Y0304745D01*
X0578895Y0305051D01*
X0578589Y0305178D01*
D02*
G37*
G36*
X0582481Y0302512D02*
X0582013Y0302419D01*
X0581616Y0302153D01*
X0581351Y0301756D01*
X0581258Y0301288D01*
X0581351Y0300820D01*
X0581616Y0300423D01*
X0582013Y0300158D01*
X0582481Y0300065D01*
X0582950Y0300158D01*
X0583347Y0300423D01*
X0583612Y0300820D01*
X0583705Y0301288D01*
X0583612Y0301756D01*
X0583347Y0302153D01*
X0582950Y0302419D01*
X0582481Y0302512D01*
D02*
G37*
G36*
X0212207Y0784145D02*
X0211571D01*
X0210983Y0783901D01*
X0210533Y0783451D01*
X0210289Y0782863D01*
Y0782227D01*
X0210533Y0781639D01*
X0210983Y0781188D01*
X0211571Y0780945D01*
X0212207D01*
X0212795Y0781188D01*
X0213245Y0781639D01*
X0213489Y0782227D01*
Y0782863D01*
X0213245Y0783451D01*
X0212795Y0783901D01*
X0212207Y0784145D01*
D02*
G37*
G36*
X0223789Y0780578D02*
X0217789D01*
X0217483Y0780451D01*
X0217356Y0780145D01*
Y0774945D01*
X0217483Y0774639D01*
X0217789Y0774512D01*
X0223789D01*
X0224095Y0774639D01*
X0224222Y0774945D01*
Y0780145D01*
X0224095Y0780451D01*
X0223789Y0780578D01*
D02*
G37*
G36*
X0211907Y0775645D02*
X0211271D01*
X0210683Y0775401D01*
X0210233Y0774951D01*
X0209989Y0774363D01*
Y0773727D01*
X0210233Y0773139D01*
X0210683Y0772688D01*
X0211271Y0772445D01*
X0211907D01*
X0212495Y0772688D01*
X0212945Y0773139D01*
X0213189Y0773727D01*
Y0774363D01*
X0212945Y0774951D01*
X0212495Y0775401D01*
X0211907Y0775645D01*
D02*
G37*
G36*
X0229305Y0666101D02*
X0228473D01*
X0227671Y0665886D01*
X0226951Y0665470D01*
X0226364Y0664883D01*
X0225948Y0664163D01*
X0225733Y0663360D01*
Y0662529D01*
X0225948Y0661727D01*
X0226364Y0661007D01*
X0226951Y0660420D01*
X0227671Y0660004D01*
X0228473Y0659789D01*
X0229305D01*
X0230107Y0660004D01*
X0230827Y0660420D01*
X0231414Y0661007D01*
X0231830Y0661727D01*
X0232045Y0662529D01*
Y0663360D01*
X0231830Y0664163D01*
X0231414Y0664883D01*
X0230827Y0665470D01*
X0230107Y0665886D01*
X0229305Y0666101D01*
D02*
G37*
G36*
X0229104Y0609758D02*
X0228274D01*
X0227471Y0609543D01*
X0226751Y0609128D01*
X0226164Y0608540D01*
X0225748Y0607821D01*
X0225533Y0607018D01*
Y0606187D01*
X0225748Y0605384D01*
X0226164Y0604665D01*
X0226751Y0604077D01*
X0227471Y0603661D01*
X0228274Y0603446D01*
X0229104D01*
X0229907Y0603661D01*
X0230627Y0604077D01*
X0231214Y0604665D01*
X0231630Y0605384D01*
X0231845Y0606187D01*
Y0607018D01*
X0231630Y0607821D01*
X0231214Y0608540D01*
X0230627Y0609128D01*
X0229907Y0609543D01*
X0229104Y0609758D01*
D02*
G37*
G36*
X0235823Y0586929D02*
X0235186D01*
X0234598Y0586686D01*
X0234148Y0586236D01*
X0233904Y0585648D01*
Y0585011D01*
X0234148Y0584423D01*
X0234598Y0583973D01*
X0235186Y0583729D01*
X0235823D01*
X0236411Y0583973D01*
X0236861Y0584423D01*
X0237104Y0585011D01*
Y0585648D01*
X0236861Y0586236D01*
X0236411Y0586686D01*
X0235823Y0586929D01*
D02*
G37*
G36*
X0235407Y0524745D02*
X0234771D01*
X0234183Y0524501D01*
X0233733Y0524051D01*
X0233489Y0523463D01*
Y0522827D01*
X0233733Y0522239D01*
X0234183Y0521789D01*
X0234771Y0521545D01*
X0235407D01*
X0235995Y0521789D01*
X0236445Y0522239D01*
X0236689Y0522827D01*
Y0523463D01*
X0236445Y0524051D01*
X0235995Y0524501D01*
X0235407Y0524745D01*
D02*
G37*
G36*
X0238507Y0507945D02*
X0237871D01*
X0237283Y0507701D01*
X0236833Y0507251D01*
X0236589Y0506663D01*
Y0506027D01*
X0236833Y0505439D01*
X0237283Y0504988D01*
X0237871Y0504745D01*
X0238507D01*
X0239095Y0504988D01*
X0239545Y0505439D01*
X0239789Y0506027D01*
Y0506663D01*
X0239545Y0507251D01*
X0239095Y0507701D01*
X0238507Y0507945D01*
D02*
G37*
G36*
X0229780Y0448015D02*
X0228985D01*
X0228250Y0447710D01*
X0227687Y0447148D01*
X0227382Y0446413D01*
Y0445617D01*
X0227687Y0444882D01*
X0228250Y0444319D01*
X0228219Y0443791D01*
X0227856Y0443640D01*
X0227293Y0443078D01*
X0226989Y0442343D01*
Y0441547D01*
X0227293Y0440812D01*
X0227856Y0440249D01*
X0228591Y0439945D01*
X0229387D01*
X0230122Y0440249D01*
X0230684Y0440812D01*
X0230989Y0441547D01*
Y0442343D01*
X0230684Y0443078D01*
X0230122Y0443640D01*
X0230152Y0444169D01*
X0230515Y0444319D01*
X0231078Y0444882D01*
X0231382Y0445617D01*
Y0446413D01*
X0231078Y0447148D01*
X0230515Y0447710D01*
X0229780Y0448015D01*
D02*
G37*
G36*
X0217180Y0447915D02*
X0216385D01*
X0215650Y0447610D01*
X0215087Y0447048D01*
X0214782Y0446313D01*
Y0445517D01*
X0215087Y0444782D01*
X0215619Y0444249D01*
X0215631Y0444033D01*
X0215598Y0443699D01*
X0215456Y0443640D01*
X0214894Y0443078D01*
X0214589Y0442343D01*
Y0441547D01*
X0214894Y0440812D01*
X0215456Y0440249D01*
X0216191Y0439945D01*
X0216987D01*
X0217722Y0440249D01*
X0218285Y0440812D01*
X0218589Y0441547D01*
Y0442343D01*
X0218285Y0443078D01*
X0217752Y0443610D01*
X0217740Y0443827D01*
X0217773Y0444160D01*
X0217915Y0444219D01*
X0218478Y0444782D01*
X0218782Y0445517D01*
Y0446313D01*
X0218478Y0447048D01*
X0217915Y0447610D01*
X0217180Y0447915D01*
D02*
G37*
G36*
X0316089Y0331678D02*
X0310889D01*
X0310583Y0331551D01*
X0310456Y0331245D01*
Y0325245D01*
X0310583Y0324939D01*
X0310889Y0324812D01*
X0316089D01*
X0316395Y0324939D01*
X0316522Y0325245D01*
Y0331245D01*
X0316395Y0331551D01*
X0316089Y0331678D01*
D02*
G37*
G36*
X0344889Y0331378D02*
X0339689D01*
X0339383Y0331251D01*
X0339256Y0330945D01*
Y0324945D01*
X0339383Y0324639D01*
X0339689Y0324512D01*
X0344889D01*
X0345195Y0324639D01*
X0345322Y0324945D01*
Y0330945D01*
X0345195Y0331251D01*
X0344889Y0331378D01*
D02*
G37*
G36*
X0320587Y0321245D02*
X0319791D01*
X0319056Y0320940D01*
X0318494Y0320378D01*
X0318189Y0319643D01*
Y0318847D01*
X0318494Y0318112D01*
X0319056Y0317549D01*
X0319791Y0317245D01*
X0320587D01*
X0321322Y0317549D01*
X0321884Y0318112D01*
X0322189Y0318847D01*
Y0319643D01*
X0321884Y0320378D01*
X0321322Y0320940D01*
X0320587Y0321245D01*
D02*
G37*
G36*
X0338225Y0320311D02*
X0337429D01*
X0336694Y0320006D01*
X0336131Y0319444D01*
X0335827Y0318708D01*
Y0317913D01*
X0336131Y0317178D01*
X0336694Y0316615D01*
X0337429Y0316311D01*
X0338225D01*
X0338960Y0316615D01*
X0339522Y0317178D01*
X0339827Y0317913D01*
Y0318708D01*
X0339522Y0319444D01*
X0338960Y0320006D01*
X0338225Y0320311D01*
D02*
G37*
G36*
X0347987Y0320045D02*
X0347191D01*
X0346456Y0319740D01*
X0345894Y0319178D01*
X0345589Y0318443D01*
Y0317647D01*
X0345894Y0316912D01*
X0346456Y0316349D01*
X0347191Y0316045D01*
X0347987D01*
X0348722Y0316349D01*
X0349285Y0316912D01*
X0349589Y0317647D01*
Y0318443D01*
X0349285Y0319178D01*
X0348722Y0319740D01*
X0347987Y0320045D01*
D02*
G37*
G36*
X0320787Y0314445D02*
X0319991D01*
X0319256Y0314140D01*
X0318693Y0313578D01*
X0318389Y0312843D01*
Y0312047D01*
X0318693Y0311312D01*
X0319256Y0310749D01*
X0319991Y0310445D01*
X0320787D01*
X0321522Y0310749D01*
X0322084Y0311312D01*
X0322389Y0312047D01*
Y0312843D01*
X0322084Y0313578D01*
X0321522Y0314140D01*
X0320787Y0314445D01*
D02*
G37*
G36*
X0315105Y0312249D02*
X0314309D01*
X0313574Y0311944D01*
X0313012Y0311382D01*
X0312707Y0310646D01*
Y0309851D01*
X0313012Y0309116D01*
X0313574Y0308553D01*
X0314309Y0308249D01*
X0315105D01*
X0315840Y0308553D01*
X0316403Y0309116D01*
X0316707Y0309851D01*
Y0310646D01*
X0316403Y0311382D01*
X0315840Y0311944D01*
X0315105Y0312249D01*
D02*
G37*
G36*
X0342387Y0311645D02*
X0341591D01*
X0340856Y0311340D01*
X0340294Y0310778D01*
X0339989Y0310043D01*
Y0309247D01*
X0340294Y0308512D01*
X0340856Y0307949D01*
X0341591Y0307645D01*
X0342387D01*
X0343122Y0307949D01*
X0343685Y0308512D01*
X0343989Y0309247D01*
Y0310043D01*
X0343685Y0310778D01*
X0343122Y0311340D01*
X0342387Y0311645D01*
D02*
G37*
G36*
X0364757Y0302801D02*
X0363962D01*
X0363227Y0302497D01*
X0362664Y0301934D01*
X0362360Y0301199D01*
Y0300403D01*
X0362664Y0299668D01*
X0363227Y0299106D01*
X0363962Y0298801D01*
X0364757D01*
X0365493Y0299106D01*
X0366055Y0299668D01*
X0366360Y0300403D01*
Y0301199D01*
X0366055Y0301934D01*
X0365493Y0302497D01*
X0364757Y0302801D01*
D02*
G37*
G36*
X0894063Y0579284D02*
X0893457D01*
X0892898Y0579052D01*
X0892470Y0578624D01*
X0892238Y0578064D01*
Y0577459D01*
X0892470Y0576899D01*
X0892898Y0576471D01*
X0893457Y0576239D01*
X0894063D01*
X0894622Y0576471D01*
X0895050Y0576899D01*
X0895282Y0577459D01*
Y0578064D01*
X0895050Y0578624D01*
X0894622Y0579052D01*
X0894063Y0579284D01*
D02*
G37*
G36*
X0888555Y0575459D02*
X0888078D01*
X0887636Y0575276D01*
X0887299Y0574938D01*
X0887116Y0574497D01*
Y0574020D01*
X0887299Y0573579D01*
X0887636Y0573241D01*
X0888078Y0573059D01*
X0888555D01*
X0888996Y0573241D01*
X0889334Y0573579D01*
X0889516Y0574020D01*
Y0574497D01*
X0889334Y0574938D01*
X0888996Y0575276D01*
X0888555Y0575459D01*
D02*
G37*
G36*
X0893792Y0552951D02*
X0893315D01*
X0892874Y0552768D01*
X0892536Y0552430D01*
X0892354Y0551989D01*
Y0551512D01*
X0892536Y0551071D01*
X0892874Y0550733D01*
X0893315Y0550551D01*
X0893792D01*
X0894233Y0550733D01*
X0894571Y0551071D01*
X0894754Y0551512D01*
Y0551989D01*
X0894571Y0552430D01*
X0894233Y0552768D01*
X0893792Y0552951D01*
D02*
G37*
G36*
X0896142Y0546424D02*
X0895664D01*
X0895223Y0546241D01*
X0894886Y0545903D01*
X0894703Y0545462D01*
Y0544985D01*
X0894886Y0544544D01*
X0895223Y0544206D01*
X0895664Y0544024D01*
X0896142D01*
X0896583Y0544206D01*
X0896920Y0544544D01*
X0897103Y0544985D01*
Y0545462D01*
X0896920Y0545903D01*
X0896583Y0546241D01*
X0896142Y0546424D01*
D02*
G37*
G36*
X0896175Y0542857D02*
X0895698D01*
X0895257Y0542674D01*
X0894919Y0542337D01*
X0894736Y0541895D01*
Y0541418D01*
X0894919Y0540977D01*
X0895257Y0540639D01*
X0895698Y0540457D01*
X0896175D01*
X0896616Y0540639D01*
X0896953Y0540977D01*
X0897136Y0541418D01*
Y0541895D01*
X0896953Y0542337D01*
X0896616Y0542674D01*
X0896175Y0542857D01*
D02*
G37*
G36*
X0890199Y0530092D02*
X0889721D01*
X0889280Y0529910D01*
X0888943Y0529572D01*
X0888760Y0529131D01*
Y0528654D01*
X0888943Y0528213D01*
X0888908Y0527540D01*
X0888887Y0527519D01*
X0888704Y0527078D01*
Y0526600D01*
X0888887Y0526159D01*
X0888684Y0525655D01*
X0888483Y0525454D01*
X0888300Y0525013D01*
Y0524536D01*
X0888483Y0524095D01*
X0888433Y0523845D01*
X0888408Y0523835D01*
X0888071Y0523497D01*
X0887888Y0523056D01*
Y0522579D01*
X0888071Y0522137D01*
X0888283Y0521925D01*
X0888408Y0521800D01*
X0888336Y0521325D01*
X0888154Y0520884D01*
Y0520406D01*
X0888336Y0519965D01*
X0888674Y0519628D01*
X0889115Y0519445D01*
X0889592D01*
X0890034Y0519628D01*
X0890371Y0519965D01*
X0890554Y0520406D01*
Y0520884D01*
X0890371Y0521325D01*
X0890159Y0521537D01*
X0890034Y0521663D01*
X0890105Y0522138D01*
X0890288Y0522579D01*
Y0523056D01*
X0890216Y0523231D01*
X0890180Y0523757D01*
X0890517Y0524095D01*
X0890700Y0524536D01*
Y0525013D01*
X0890517Y0525454D01*
X0890720Y0525958D01*
X0890921Y0526159D01*
X0891104Y0526600D01*
Y0527078D01*
X0890921Y0527519D01*
X0890956Y0528191D01*
X0890977Y0528213D01*
X0891160Y0528654D01*
Y0529131D01*
X0890977Y0529572D01*
X0890640Y0529910D01*
X0890199Y0530092D01*
D02*
G37*
G36*
X0893365Y0518937D02*
X0892887D01*
X0892446Y0518755D01*
X0892109Y0518417D01*
X0891926Y0517976D01*
Y0517498D01*
X0892109Y0517058D01*
X0892446Y0516720D01*
X0892887Y0516537D01*
X0893365D01*
X0893806Y0516720D01*
X0894143Y0517058D01*
X0894326Y0517498D01*
Y0517976D01*
X0894143Y0518417D01*
X0893806Y0518755D01*
X0893365Y0518937D01*
D02*
G37*
G36*
X0888226Y0506680D02*
X0887749D01*
X0887307Y0506498D01*
X0886970Y0506160D01*
X0886787Y0505719D01*
Y0505242D01*
X0886970Y0504801D01*
X0887307Y0504463D01*
X0887749Y0504280D01*
X0888226D01*
X0888667Y0504463D01*
X0889005Y0504801D01*
X0889187Y0505242D01*
Y0505719D01*
X0889005Y0506160D01*
X0888667Y0506498D01*
X0888226Y0506680D01*
D02*
G37*
G36*
X0887148Y0470697D02*
X0886830D01*
X0886536Y0470575D01*
X0886311Y0470350D01*
X0886189Y0470056D01*
Y0469738D01*
X0886311Y0469444D01*
X0886536Y0469219D01*
X0886830Y0469097D01*
X0887148D01*
X0887442Y0469219D01*
X0887667Y0469444D01*
X0887789Y0469738D01*
Y0470056D01*
X0887667Y0470350D01*
X0887442Y0470575D01*
X0887148Y0470697D01*
D02*
G37*
G36*
X0887318Y0465152D02*
X0887000D01*
X0886706Y0465030D01*
X0886481Y0464805D01*
X0886359Y0464511D01*
Y0464193D01*
X0886481Y0463899D01*
X0886706Y0463674D01*
X0887000Y0463552D01*
X0887318D01*
X0887612Y0463674D01*
X0887837Y0463899D01*
X0887959Y0464193D01*
Y0464511D01*
X0887837Y0464805D01*
X0887612Y0465030D01*
X0887318Y0465152D01*
D02*
G37*
G36*
X0889596Y0464498D02*
X0889198D01*
X0888831Y0464346D01*
X0888549Y0464064D01*
X0888397Y0463697D01*
Y0463299D01*
X0888549Y0462931D01*
X0888831Y0462650D01*
X0889198Y0462498D01*
X0889596D01*
X0889964Y0462650D01*
X0890245Y0462931D01*
X0890397Y0463299D01*
Y0463697D01*
X0890245Y0464064D01*
X0889964Y0464346D01*
X0889596Y0464498D01*
D02*
G37*
G36*
X0889832Y0460290D02*
X0889513D01*
X0889219Y0460168D01*
X0888994Y0459943D01*
X0888872Y0459649D01*
Y0459331D01*
X0888885Y0459301D01*
X0888496Y0458933D01*
X0888378Y0458982D01*
X0888060D01*
X0887766Y0458860D01*
X0887541Y0458635D01*
X0887419Y0458341D01*
Y0458022D01*
X0887541Y0457728D01*
X0887766Y0457504D01*
X0888060Y0457382D01*
X0888378D01*
X0888672Y0457504D01*
X0888897Y0457728D01*
X0889019Y0458022D01*
Y0458341D01*
X0889007Y0458371D01*
X0889396Y0458739D01*
X0889513Y0458690D01*
X0889832D01*
X0890126Y0458812D01*
X0890351Y0459037D01*
X0890472Y0459331D01*
Y0459649D01*
X0890351Y0459943D01*
X0890126Y0460168D01*
X0889832Y0460290D01*
D02*
G37*
G36*
X0896117Y0455819D02*
X0895798D01*
X0895504Y0455697D01*
X0895279Y0455472D01*
X0895158Y0455178D01*
Y0454860D01*
X0895279Y0454566D01*
X0895504Y0454341D01*
X0895798Y0454219D01*
X0896117D01*
X0896411Y0454341D01*
X0896636Y0454566D01*
X0896758Y0454860D01*
Y0455178D01*
X0896636Y0455472D01*
X0896411Y0455697D01*
X0896117Y0455819D01*
D02*
G37*
G36*
X0892210Y0455007D02*
X0891891D01*
X0891597Y0454885D01*
X0891372Y0454660D01*
X0891251Y0454366D01*
Y0454047D01*
X0891372Y0453754D01*
X0891597Y0453528D01*
X0891891Y0453407D01*
X0892210D01*
X0892504Y0453528D01*
X0892729Y0453754D01*
X0892850Y0454047D01*
Y0454366D01*
X0892729Y0454660D01*
X0892504Y0454885D01*
X0892210Y0455007D01*
D02*
G37*
G36*
X0897658Y0444916D02*
X0897340D01*
X0897046Y0444794D01*
X0896821Y0444569D01*
X0896699Y0444275D01*
Y0443957D01*
X0896821Y0443663D01*
X0897046Y0443438D01*
X0897340Y0443316D01*
X0897658D01*
X0897952Y0443438D01*
X0898177Y0443663D01*
X0898299Y0443957D01*
Y0444275D01*
X0898177Y0444569D01*
X0897952Y0444794D01*
X0897658Y0444916D01*
D02*
G37*
G36*
X0890549Y0444771D02*
X0890231D01*
X0889937Y0444650D01*
X0889712Y0444424D01*
X0889590Y0444131D01*
Y0443812D01*
X0889712Y0443518D01*
X0889937Y0443293D01*
X0890231Y0443171D01*
X0890549D01*
X0890843Y0443293D01*
X0891068Y0443518D01*
X0891190Y0443812D01*
Y0444131D01*
X0891068Y0444424D01*
X0890843Y0444650D01*
X0890549Y0444771D01*
D02*
G37*
G36*
X0890448Y0442445D02*
X0890130D01*
X0889836Y0442323D01*
X0889611Y0442098D01*
X0889489Y0441804D01*
Y0441486D01*
X0889611Y0441192D01*
X0889836Y0440967D01*
X0890130Y0440845D01*
X0890448D01*
X0890742Y0440967D01*
X0890967Y0441192D01*
X0891089Y0441486D01*
Y0441804D01*
X0890967Y0442098D01*
X0890742Y0442323D01*
X0890448Y0442445D01*
D02*
G37*
G36*
X0896802Y0438301D02*
X0896484D01*
X0896190Y0438179D01*
X0895965Y0437954D01*
X0895843Y0437660D01*
Y0437342D01*
X0895965Y0437048D01*
X0896190Y0436823D01*
X0896484Y0436701D01*
X0896802D01*
X0897096Y0436823D01*
X0897321Y0437048D01*
X0897443Y0437342D01*
Y0437660D01*
X0897321Y0437954D01*
X0897096Y0438179D01*
X0896802Y0438301D01*
D02*
G37*
G36*
X0888446Y0435003D02*
X0888128D01*
X0887834Y0434881D01*
X0887609Y0434656D01*
X0887487Y0434362D01*
Y0434044D01*
X0887609Y0433750D01*
X0887834Y0433525D01*
X0888128Y0433403D01*
X0888446D01*
X0888740Y0433525D01*
X0888965Y0433750D01*
X0889087Y0434044D01*
Y0434362D01*
X0888965Y0434656D01*
X0888740Y0434881D01*
X0888446Y0435003D01*
D02*
G37*
G36*
X0896962Y0432633D02*
X0896644D01*
X0896350Y0432511D01*
X0896125Y0432286D01*
X0896003Y0431992D01*
Y0431674D01*
X0896125Y0431380D01*
X0896350Y0431155D01*
X0896644Y0431033D01*
X0896962D01*
X0897256Y0431155D01*
X0897481Y0431380D01*
X0897603Y0431674D01*
Y0431992D01*
X0897481Y0432286D01*
X0897256Y0432511D01*
X0896962Y0432633D01*
D02*
G37*
G36*
X0892148Y0396769D02*
X0891830D01*
X0891536Y0396647D01*
X0891311Y0396422D01*
X0891189Y0396128D01*
Y0395810D01*
X0891311Y0395516D01*
X0891536Y0395291D01*
X0891830Y0395169D01*
X0892148D01*
X0892442Y0395291D01*
X0892667Y0395516D01*
X0892789Y0395810D01*
Y0396128D01*
X0892667Y0396422D01*
X0892442Y0396647D01*
X0892148Y0396769D01*
D02*
G37*
G36*
Y0389299D02*
X0891830D01*
X0891536Y0389177D01*
X0891311Y0388952D01*
X0891189Y0388658D01*
Y0388340D01*
X0891311Y0388046D01*
X0891536Y0387821D01*
X0891830Y0387699D01*
X0892148D01*
X0892442Y0387821D01*
X0892667Y0388046D01*
X0892789Y0388340D01*
Y0388658D01*
X0892667Y0388952D01*
X0892442Y0389177D01*
X0892148Y0389299D01*
D02*
G37*
G36*
X0891625Y0383053D02*
X0891307D01*
X0891013Y0382931D01*
X0890788Y0382706D01*
X0890666Y0382412D01*
Y0382094D01*
X0890788Y0381800D01*
X0891013Y0381575D01*
X0891307Y0381453D01*
X0891625D01*
X0891920Y0381575D01*
X0892144Y0381800D01*
X0892266Y0382094D01*
Y0382412D01*
X0892144Y0382706D01*
X0891920Y0382931D01*
X0891625Y0383053D01*
D02*
G37*
G36*
X0893958Y0370004D02*
X0893020D01*
X0892115Y0369762D01*
X0891303Y0369293D01*
X0890641Y0368630D01*
X0890172Y0367819D01*
X0889929Y0366914D01*
Y0365976D01*
X0890172Y0365071D01*
X0890641Y0364259D01*
X0891303Y0363597D01*
X0892115Y0363128D01*
X0893020Y0362885D01*
X0893958D01*
X0894863Y0363128D01*
X0895675Y0363597D01*
X0896337Y0364259D01*
X0896806Y0365071D01*
X0897048Y0365976D01*
Y0366914D01*
X0896806Y0367819D01*
X0896337Y0368630D01*
X0895675Y0369293D01*
X0894863Y0369762D01*
X0893958Y0370004D01*
D02*
G37*
G36*
X0877669Y0366193D02*
X0876709D01*
X0875781Y0365944D01*
X0874949Y0365464D01*
X0874270Y0364785D01*
X0873790Y0363953D01*
X0873541Y0363025D01*
Y0362065D01*
X0873790Y0361137D01*
X0874270Y0360305D01*
X0874949Y0359626D01*
X0875781Y0359145D01*
X0876709Y0358897D01*
X0877669D01*
X0878597Y0359145D01*
X0879429Y0359626D01*
X0880108Y0360305D01*
X0880588Y0361137D01*
X0880837Y0362065D01*
Y0363025D01*
X0880588Y0363953D01*
X0880108Y0364785D01*
X0879429Y0365464D01*
X0878597Y0365944D01*
X0877669Y0366193D01*
D02*
G37*
G36*
X0893958Y0360004D02*
X0893020D01*
X0892115Y0359762D01*
X0891303Y0359293D01*
X0890641Y0358630D01*
X0890172Y0357819D01*
X0889929Y0356913D01*
Y0355976D01*
X0890172Y0355071D01*
X0890641Y0354259D01*
X0891303Y0353597D01*
X0892115Y0353128D01*
X0893020Y0352885D01*
X0893958D01*
X0894863Y0353128D01*
X0895675Y0353597D01*
X0896337Y0354259D01*
X0896806Y0355071D01*
X0897048Y0355976D01*
Y0356913D01*
X0896806Y0357819D01*
X0896337Y0358630D01*
X0895675Y0359293D01*
X0894863Y0359762D01*
X0893958Y0360004D01*
D02*
G37*
G36*
X0877669Y0356193D02*
X0876709D01*
X0875781Y0355944D01*
X0874949Y0355464D01*
X0874270Y0354785D01*
X0873790Y0353953D01*
X0873541Y0353025D01*
Y0352065D01*
X0873790Y0351137D01*
X0874270Y0350305D01*
X0874949Y0349626D01*
X0875781Y0349146D01*
X0876709Y0348897D01*
X0877669D01*
X0878597Y0349146D01*
X0879429Y0349626D01*
X0880108Y0350305D01*
X0880588Y0351137D01*
X0880837Y0352065D01*
Y0353025D01*
X0880588Y0353953D01*
X0880108Y0354785D01*
X0879429Y0355464D01*
X0878597Y0355944D01*
X0877669Y0356193D01*
D02*
G37*
G36*
X0867967Y0349330D02*
X0867490D01*
X0867049Y0349148D01*
X0866711Y0348810D01*
X0866528Y0348369D01*
Y0347892D01*
X0866711Y0347451D01*
X0867049Y0347113D01*
X0867490Y0346930D01*
X0867967D01*
X0868408Y0347113D01*
X0868746Y0347451D01*
X0868928Y0347892D01*
Y0348369D01*
X0868746Y0348810D01*
X0868408Y0349148D01*
X0867967Y0349330D01*
D02*
G37*
G36*
X0856394Y0345341D02*
X0855916D01*
X0855475Y0345158D01*
X0855138Y0344821D01*
X0854955Y0344379D01*
Y0343902D01*
X0855138Y0343461D01*
X0855475Y0343124D01*
X0855916Y0342941D01*
X0856394D01*
X0856835Y0343124D01*
X0857172Y0343461D01*
X0857355Y0343902D01*
Y0344379D01*
X0857172Y0344821D01*
X0856835Y0345158D01*
X0856394Y0345341D01*
D02*
G37*
G36*
X0877669Y0346193D02*
X0876709D01*
X0875781Y0345944D01*
X0874949Y0345464D01*
X0874270Y0344785D01*
X0873790Y0343953D01*
X0873541Y0343025D01*
Y0342065D01*
X0873790Y0341137D01*
X0874270Y0340305D01*
X0874949Y0339626D01*
X0875781Y0339145D01*
X0876709Y0338897D01*
X0877669D01*
X0878597Y0339145D01*
X0879429Y0339626D01*
X0880108Y0340305D01*
X0880588Y0341137D01*
X0880837Y0342065D01*
Y0343025D01*
X0880588Y0343953D01*
X0880108Y0344785D01*
X0879429Y0345464D01*
X0878597Y0345944D01*
X0877669Y0346193D01*
D02*
G37*
G36*
X0858360Y0336293D02*
X0855818D01*
X0853308Y0335895D01*
X0850890Y0335110D01*
X0848626Y0333956D01*
X0846569Y0332462D01*
X0844772Y0330665D01*
X0843278Y0328608D01*
X0842124Y0326344D01*
X0841339Y0323926D01*
X0840941Y0321416D01*
Y0318874D01*
X0841339Y0316364D01*
X0842124Y0313946D01*
X0843278Y0311682D01*
X0844772Y0309625D01*
X0846569Y0307828D01*
X0848626Y0306334D01*
X0850890Y0305180D01*
X0853308Y0304395D01*
X0855818Y0303997D01*
X0858360D01*
X0860870Y0304395D01*
X0863288Y0305180D01*
X0865552Y0306334D01*
X0867609Y0307828D01*
X0869406Y0309625D01*
X0870900Y0311682D01*
X0872054Y0313946D01*
X0872839Y0316364D01*
X0873237Y0318874D01*
Y0321416D01*
X0872839Y0323926D01*
X0872054Y0326344D01*
X0870900Y0328608D01*
X0869406Y0330665D01*
X0867609Y0332462D01*
X0865552Y0333956D01*
X0863288Y0335110D01*
X0860870Y0335895D01*
X0858360Y0336293D01*
D02*
G37*
G36*
X0773363Y0306265D02*
X0772886D01*
X0772445Y0306083D01*
X0772108Y0305745D01*
X0771925Y0305304D01*
Y0304827D01*
X0772108Y0304386D01*
X0772445Y0304048D01*
X0772886Y0303865D01*
X0773363D01*
X0773805Y0304048D01*
X0774142Y0304386D01*
X0774325Y0304827D01*
Y0305304D01*
X0774142Y0305745D01*
X0773805Y0306083D01*
X0773363Y0306265D01*
D02*
G37*
G36*
X0670668Y0305651D02*
X0669873D01*
X0669137Y0305346D01*
X0668575Y0304784D01*
X0668270Y0304049D01*
Y0303253D01*
X0668575Y0302518D01*
X0669137Y0301956D01*
X0669873Y0301651D01*
X0670668D01*
X0671403Y0301956D01*
X0671966Y0302518D01*
X0672270Y0303253D01*
Y0304049D01*
X0671966Y0304784D01*
X0671403Y0305346D01*
X0670668Y0305651D01*
D02*
G37*
G36*
X0872847Y0477521D02*
X0872379Y0477428D01*
X0871982Y0477163D01*
X0871716Y0476766D01*
X0871623Y0476298D01*
X0871716Y0475829D01*
X0871982Y0475432D01*
X0872042Y0475392D01*
X0872171Y0474876D01*
X0871994Y0474612D01*
X0871932Y0474299D01*
X0871994Y0473987D01*
X0872171Y0473723D01*
X0872435Y0473546D01*
X0872747Y0473484D01*
X0873059Y0473546D01*
X0873324Y0473723D01*
X0873501Y0473987D01*
X0873563Y0474299D01*
X0873501Y0474612D01*
X0873444Y0474697D01*
X0873370Y0474967D01*
X0873552Y0475325D01*
X0873712Y0475432D01*
X0873977Y0475829D01*
X0874070Y0476298D01*
X0873977Y0476766D01*
X0873712Y0477163D01*
X0873315Y0477428D01*
X0872847Y0477521D01*
D02*
G37*
G36*
X0879689Y0472961D02*
X0879377Y0472898D01*
X0879112Y0472722D01*
X0878935Y0472457D01*
X0878873Y0472145D01*
X0878935Y0471833D01*
X0879112Y0471568D01*
X0879377Y0471391D01*
X0879689Y0471329D01*
X0880001Y0471391D01*
X0880266Y0471568D01*
X0880396Y0471763D01*
X0880681Y0471796D01*
X0880937Y0471757D01*
X0881071Y0471556D01*
X0881336Y0471380D01*
X0881648Y0471317D01*
X0881960Y0471380D01*
X0882225Y0471556D01*
X0882402Y0471821D01*
X0882464Y0472133D01*
X0882402Y0472445D01*
X0882225Y0472710D01*
X0881960Y0472887D01*
X0881648Y0472949D01*
X0881336Y0472887D01*
X0881071Y0472710D01*
X0880941Y0472515D01*
X0880656Y0472482D01*
X0880400Y0472521D01*
X0880266Y0472722D01*
X0880001Y0472898D01*
X0879689Y0472961D01*
D02*
G37*
G36*
X0877486Y0470753D02*
X0877174Y0470691D01*
X0876910Y0470514D01*
X0876746Y0470269D01*
X0876616Y0470249D01*
X0876357Y0470249D01*
X0876227Y0470269D01*
X0876063Y0470514D01*
X0875799Y0470690D01*
X0875486Y0470752D01*
X0875174Y0470690D01*
X0874910Y0470514D01*
X0874733Y0470249D01*
X0874671Y0469937D01*
X0874733Y0469625D01*
X0874910Y0469360D01*
X0875174Y0469183D01*
X0875486Y0469121D01*
X0875799Y0469183D01*
X0876063Y0469360D01*
X0876227Y0469605D01*
X0876357Y0469625D01*
X0876616Y0469625D01*
X0876746Y0469605D01*
X0876910Y0469360D01*
X0877174Y0469183D01*
X0877486Y0469122D01*
X0877798Y0469183D01*
X0878063Y0469360D01*
X0878127Y0469457D01*
X0878549Y0469313D01*
X0878609Y0469277D01*
X0878667Y0468982D01*
X0878844Y0468718D01*
X0879109Y0468541D01*
X0879421Y0468479D01*
X0879733Y0468541D01*
X0879997Y0468718D01*
X0880174Y0468982D01*
X0880220Y0469211D01*
X0880483Y0469328D01*
X0880721Y0469361D01*
X0880724Y0469356D01*
X0880988Y0469179D01*
X0881300Y0469117D01*
X0881613Y0469179D01*
X0881877Y0469356D01*
X0882054Y0469621D01*
X0882116Y0469933D01*
X0882054Y0470245D01*
X0881877Y0470510D01*
X0881613Y0470687D01*
X0881300Y0470749D01*
X0880988Y0470687D01*
X0880724Y0470510D01*
X0880547Y0470245D01*
X0880501Y0470017D01*
X0880238Y0469899D01*
X0880000Y0469867D01*
X0879997Y0469871D01*
X0879733Y0470048D01*
X0879421Y0470110D01*
X0879109Y0470048D01*
X0878844Y0469871D01*
X0878780Y0469775D01*
X0878358Y0469918D01*
X0878298Y0469955D01*
X0878240Y0470249D01*
X0878063Y0470514D01*
X0877798Y0470691D01*
X0877486Y0470753D01*
D02*
G37*
G36*
X0878804Y0468057D02*
X0878492Y0467995D01*
X0878227Y0467818D01*
X0878050Y0467553D01*
X0877584Y0467388D01*
X0877272Y0467326D01*
X0877007Y0467149D01*
X0876830Y0466885D01*
X0876306Y0466812D01*
X0876276Y0466818D01*
X0875963Y0466756D01*
X0875699Y0466579D01*
X0875522Y0466315D01*
X0875460Y0466003D01*
X0875522Y0465691D01*
X0875699Y0465426D01*
X0875963Y0465249D01*
X0876276Y0465187D01*
X0876588Y0465249D01*
X0876852Y0465426D01*
X0877029Y0465691D01*
X0877553Y0465763D01*
X0877584Y0465757D01*
X0877896Y0465819D01*
X0878161Y0465996D01*
X0878338Y0466260D01*
X0878804Y0466426D01*
X0879116Y0466488D01*
X0879381Y0466664D01*
X0879558Y0466929D01*
X0879620Y0467241D01*
X0879558Y0467553D01*
X0879381Y0467818D01*
X0879116Y0467995D01*
X0878804Y0468057D01*
D02*
G37*
G36*
X0881691Y0468336D02*
X0881379Y0468274D01*
X0881115Y0468097D01*
X0880938Y0467832D01*
X0880876Y0467520D01*
X0880938Y0467208D01*
X0881115Y0466943D01*
X0881287Y0466622D01*
X0881224Y0466310D01*
X0881287Y0465998D01*
X0881463Y0465734D01*
X0881728Y0465557D01*
X0882040Y0465495D01*
X0882352Y0465557D01*
X0882617Y0465734D01*
X0882794Y0465998D01*
X0882856Y0466310D01*
X0882794Y0466622D01*
X0882617Y0466887D01*
X0882445Y0467208D01*
X0882507Y0467520D01*
X0882445Y0467832D01*
X0882268Y0468097D01*
X0882004Y0468274D01*
X0881691Y0468336D01*
D02*
G37*
G36*
X0877895Y0465126D02*
X0877583Y0465064D01*
X0877318Y0464887D01*
X0877141Y0464622D01*
X0877079Y0464310D01*
X0877141Y0463998D01*
X0877318Y0463734D01*
X0877408Y0463673D01*
X0877437Y0463488D01*
X0877400Y0463122D01*
X0877220Y0463002D01*
X0877044Y0462738D01*
X0876981Y0462425D01*
X0877044Y0462113D01*
X0877220Y0461849D01*
X0877485Y0461672D01*
X0877779Y0461337D01*
X0877857Y0460947D01*
X0878078Y0460616D01*
X0878408Y0460395D01*
X0878798Y0460318D01*
X0879189Y0460395D01*
X0879519Y0460616D01*
X0879740Y0460947D01*
X0879818Y0461337D01*
X0879740Y0461727D01*
X0879519Y0462058D01*
X0879189Y0462279D01*
X0879097Y0462297D01*
X0878613Y0462426D01*
X0878551Y0462738D01*
X0878434Y0462912D01*
X0878479Y0463423D01*
X0878496Y0463491D01*
X0878763Y0463650D01*
X0878977Y0463589D01*
X0879034Y0463504D01*
X0879299Y0463327D01*
X0879611Y0463265D01*
X0879923Y0463327D01*
X0880188Y0463504D01*
X0880433Y0463703D01*
X0880746Y0463670D01*
X0880871Y0463483D01*
X0881048Y0463218D01*
X0881312Y0463041D01*
X0881625Y0462979D01*
X0881937Y0463041D01*
X0882201Y0463218D01*
X0882378Y0463483D01*
X0882440Y0463795D01*
X0882378Y0464107D01*
X0882201Y0464372D01*
X0881937Y0464549D01*
X0881625Y0464611D01*
X0881312Y0464549D01*
X0881048Y0464372D01*
X0880802Y0464172D01*
X0880489Y0464205D01*
X0880364Y0464392D01*
X0880188Y0464657D01*
X0879923Y0464834D01*
X0879611Y0464896D01*
X0879299Y0464834D01*
X0879136Y0464725D01*
X0878940Y0464684D01*
X0878529Y0464801D01*
X0878472Y0464887D01*
X0878207Y0465064D01*
X0877895Y0465126D01*
D02*
G37*
G36*
X0874261Y0464893D02*
X0873949Y0464831D01*
X0873684Y0464654D01*
X0873507Y0464390D01*
X0873445Y0464077D01*
X0873507Y0463765D01*
X0873684Y0463501D01*
X0873855Y0463386D01*
X0873866Y0463004D01*
X0873826Y0462851D01*
X0873604Y0462703D01*
X0873427Y0462438D01*
X0873365Y0462126D01*
X0873427Y0461814D01*
X0873604Y0461549D01*
X0873869Y0461372D01*
X0874181Y0461310D01*
X0874493Y0461372D01*
X0874758Y0461549D01*
X0874935Y0461814D01*
X0874997Y0462126D01*
X0874935Y0462438D01*
X0874758Y0462703D01*
X0874587Y0462817D01*
X0874576Y0463199D01*
X0874616Y0463353D01*
X0874838Y0463501D01*
X0875014Y0463765D01*
X0875076Y0464077D01*
X0875014Y0464390D01*
X0874838Y0464654D01*
X0874573Y0464831D01*
X0874261Y0464893D01*
D02*
G37*
G36*
X0878189Y0454718D02*
X0877497Y0454627D01*
X0876853Y0454360D01*
X0876299Y0453935D01*
X0875874Y0453381D01*
X0875607Y0452737D01*
X0875516Y0452045D01*
X0875607Y0451353D01*
X0875874Y0450708D01*
X0876299Y0450155D01*
X0876853Y0449730D01*
X0877497Y0449463D01*
X0878189Y0449372D01*
X0878881Y0449463D01*
X0879525Y0449730D01*
X0880079Y0450155D01*
X0880504Y0450708D01*
X0880771Y0451353D01*
X0880862Y0452045D01*
X0880771Y0452737D01*
X0880504Y0453381D01*
X0880079Y0453935D01*
X0879525Y0454360D01*
X0878881Y0454627D01*
X0878189Y0454718D01*
D02*
G37*
G36*
X0855895Y0361579D02*
X0855427Y0361486D01*
X0855030Y0361220D01*
X0854765Y0360823D01*
X0854672Y0360355D01*
X0854765Y0359887D01*
X0855030Y0359490D01*
X0855427Y0359225D01*
X0855895Y0359132D01*
X0856363Y0359225D01*
X0856760Y0359490D01*
X0857026Y0359887D01*
X0857119Y0360355D01*
X0857026Y0360823D01*
X0856760Y0361220D01*
X0856363Y0361486D01*
X0855895Y0361579D01*
D02*
G37*
G36*
X0831864Y0346598D02*
X0831396Y0346505D01*
X0830999Y0346240D01*
X0830733Y0345843D01*
X0830640Y0345374D01*
X0830733Y0344906D01*
X0830999Y0344509D01*
X0831396Y0344244D01*
X0831864Y0344151D01*
X0832332Y0344244D01*
X0832729Y0344509D01*
X0832994Y0344906D01*
X0833087Y0345374D01*
X0832994Y0345843D01*
X0832729Y0346240D01*
X0832332Y0346505D01*
X0831864Y0346598D01*
D02*
G37*
G36*
X0824315Y0341164D02*
X0823847Y0341071D01*
X0823450Y0340806D01*
X0823185Y0340409D01*
X0823092Y0339940D01*
X0823185Y0339472D01*
X0823450Y0339075D01*
X0823847Y0338810D01*
X0824315Y0338717D01*
X0824783Y0338810D01*
X0825180Y0339075D01*
X0825445Y0339472D01*
X0825539Y0339940D01*
X0825445Y0340409D01*
X0825180Y0340806D01*
X0824783Y0341071D01*
X0824315Y0341164D01*
D02*
G37*
G36*
X0824561Y0335106D02*
X0824092Y0335013D01*
X0823695Y0334748D01*
X0823430Y0334351D01*
X0823337Y0333883D01*
X0823430Y0333414D01*
X0823695Y0333017D01*
X0824092Y0332752D01*
X0824561Y0332659D01*
X0825029Y0332752D01*
X0825426Y0333017D01*
X0825691Y0333414D01*
X0825784Y0333883D01*
X0825691Y0334351D01*
X0825426Y0334748D01*
X0825029Y0335013D01*
X0824561Y0335106D01*
D02*
G37*
G36*
X0626590Y0301456D02*
X0625795D01*
X0625060Y0301152D01*
X0624497Y0300589D01*
X0624192Y0299854D01*
Y0299058D01*
X0624497Y0298323D01*
X0625060Y0297761D01*
X0625795Y0297456D01*
X0626590D01*
X0627325Y0297761D01*
X0627888Y0298323D01*
X0628192Y0299058D01*
Y0299854D01*
X0627888Y0300589D01*
X0627325Y0301152D01*
X0626590Y0301456D01*
D02*
G37*
%LPD*%
G54D13*
X0559400Y0039400D02*
Y0059683D01*
X0440500Y0040050D02*
X0700200D01*
Y0101050D01*
X0286500Y0040050D02*
Y0101050D01*
X0040000Y0040050D02*
Y0101050D01*
X0040050Y0040050D02*
X0197600D01*
X0040050D02*
Y0101050D01*
Y0101050D02*
X0700200D01*
X0040000Y0040050D02*
X0440500D01*
X0040000Y0060383D02*
X0700000D01*
G54D16*
X0830589Y0640246D02*
X0852222Y0661879D01*
X0866065D01*
X0830589Y0619498D02*
X0838789Y0611298D01*
Y0424845D02*
X0847472Y0416162D01*
X0838789Y0424845D02*
Y0611298D01*
X0869750Y0662106D02*
X0874294D01*
X0869589Y0661945D02*
X0869750Y0662106D01*
X0874294D02*
X0874453Y0662265D01*
X0869631Y0661913D02*
X0869665Y0661946D01*
X0866289Y0661845D02*
X0866357Y0661913D01*
X0869631D01*
X0830589Y0619498D02*
Y0640246D01*
X0847472Y0416162D02*
X0853783D01*
X0040000Y0080717D02*
X0700200D01*
G54D18*
X0046350Y0071049D02*
Y0067551D01*
X0048683D01*
X0049849D02*
Y0069883D01*
X0051015Y0071049D01*
X0052181Y0069883D01*
Y0067551D01*
Y0069300D01*
X0049849D01*
X0053348Y0071049D02*
Y0070466D01*
X0054514Y0069300D01*
X0055680Y0070466D01*
Y0071049D01*
X0054514Y0069300D02*
Y0067551D01*
X0059179Y0071049D02*
X0056847D01*
Y0067551D01*
X0059179D01*
X0056847Y0069300D02*
X0058013D01*
X0060346Y0067551D02*
Y0071049D01*
X0062095D01*
X0062678Y0070466D01*
Y0069300D01*
X0062095Y0068717D01*
X0060346D01*
X0061512D02*
X0062678Y0067551D01*
X0067343D02*
Y0071049D01*
X0069676Y0067551D01*
Y0071049D01*
X0070842Y0067551D02*
Y0069883D01*
X0072008Y0071049D01*
X0073175Y0069883D01*
Y0067551D01*
Y0069300D01*
X0070842D01*
X0074341Y0067551D02*
Y0071049D01*
X0075507Y0069883D01*
X0076674Y0071049D01*
Y0067551D01*
X0080172Y0071049D02*
X0077840D01*
Y0067551D01*
X0080172D01*
X0077840Y0069300D02*
X0079006D01*
X0084838Y0068717D02*
X0087170D01*
X0084838Y0069883D02*
X0087170D01*
X0046350Y0046966D02*
Y0050465D01*
X0048099D01*
X0048683Y0049882D01*
Y0048716D01*
X0048099Y0048133D01*
X0046350D01*
X0049849Y0050465D02*
Y0046966D01*
X0052181D01*
X0055097Y0050465D02*
X0053931D01*
X0053348Y0049882D01*
Y0047550D01*
X0053931Y0046966D01*
X0055097D01*
X0055680Y0047550D01*
Y0049882D01*
X0055097Y0050465D01*
X0056847D02*
X0059179D01*
X0058013D01*
Y0046966D01*
X0063844D02*
Y0050465D01*
X0066177Y0046966D01*
Y0050465D01*
X0067343Y0046966D02*
Y0049299D01*
X0068510Y0050465D01*
X0069676Y0049299D01*
Y0046966D01*
Y0048716D01*
X0067343D01*
X0070842Y0046966D02*
Y0050465D01*
X0072008Y0049299D01*
X0073175Y0050465D01*
Y0046966D01*
X0076674Y0050465D02*
X0074341D01*
Y0046966D01*
X0076674D01*
X0074341Y0048716D02*
X0075507D01*
X0081339Y0048133D02*
X0083671D01*
X0081339Y0049299D02*
X0083671D01*
X0046350Y0087833D02*
Y0090166D01*
X0047516Y0091332D01*
X0048683Y0090166D01*
Y0087833D01*
Y0089583D01*
X0046350D01*
X0049849Y0091332D02*
Y0087833D01*
X0052181D01*
X0053348Y0091332D02*
Y0087833D01*
X0055680D01*
X0060346D02*
Y0090166D01*
X0061512Y0091332D01*
X0062678Y0090166D01*
Y0087833D01*
Y0089583D01*
X0060346D01*
X0063844Y0087833D02*
Y0091332D01*
X0065594D01*
X0066177Y0090749D01*
Y0089583D01*
X0065594Y0089000D01*
X0063844D01*
X0065011D02*
X0066177Y0087833D01*
X0067343Y0091332D02*
X0069676D01*
X0068510D01*
Y0087833D01*
X0070842Y0091332D02*
Y0087833D01*
X0072008Y0089000D01*
X0073175Y0087833D01*
Y0091332D01*
X0076090D02*
X0074924D01*
X0074341Y0090749D01*
Y0088416D01*
X0074924Y0087833D01*
X0076090D01*
X0076674Y0088416D01*
Y0090749D01*
X0076090Y0091332D01*
X0077840Y0087833D02*
Y0091332D01*
X0079589D01*
X0080172Y0090749D01*
Y0089583D01*
X0079589Y0089000D01*
X0077840D01*
X0079006D02*
X0080172Y0087833D01*
X0081339Y0091332D02*
Y0087833D01*
Y0089000D01*
X0083671Y0091332D01*
X0081922Y0089583D01*
X0083671Y0087833D01*
X0088336Y0091332D02*
Y0089000D01*
X0089503Y0087833D01*
X0090669Y0089000D01*
Y0091332D01*
X0091835D02*
X0093002D01*
X0092418D01*
Y0087833D01*
X0091835D01*
X0093002D01*
X0097084Y0091332D02*
X0094751D01*
Y0087833D01*
X0097084D01*
X0094751Y0089583D02*
X0095917D01*
X0098250Y0091332D02*
Y0087833D01*
X0099416Y0089000D01*
X0100583Y0087833D01*
Y0091332D01*
X0104081D02*
X0101749D01*
Y0087833D01*
X0104081D01*
X0101749Y0089583D02*
X0102915D01*
X0105248Y0091332D02*
Y0087833D01*
X0106997D01*
X0107580Y0088416D01*
Y0090749D01*
X0106997Y0091332D01*
X0105248D01*
X0114578D02*
X0112245D01*
Y0089583D01*
X0113412D01*
X0112245D01*
Y0087833D01*
X0115744D02*
Y0091332D01*
X0117494D01*
X0118077Y0090749D01*
Y0089583D01*
X0117494Y0089000D01*
X0115744D01*
X0116911D02*
X0118077Y0087833D01*
X0120993Y0091332D02*
X0119826D01*
X0119243Y0090749D01*
Y0088416D01*
X0119826Y0087833D01*
X0120993D01*
X0121576Y0088416D01*
Y0090749D01*
X0120993Y0091332D01*
X0122742Y0087833D02*
Y0091332D01*
X0123908Y0090166D01*
X0125075Y0091332D01*
Y0087833D01*
X0129740Y0091332D02*
X0132072D01*
X0130906D01*
Y0087833D01*
X0134988Y0091332D02*
X0133822D01*
X0133239Y0090749D01*
Y0088416D01*
X0133822Y0087833D01*
X0134988D01*
X0135571Y0088416D01*
Y0090749D01*
X0134988Y0091332D01*
X0136738Y0087833D02*
Y0091332D01*
X0138487D01*
X0139070Y0090749D01*
Y0089583D01*
X0138487Y0089000D01*
X0136738D01*
X0146068Y0090749D02*
X0145485Y0091332D01*
X0144318D01*
X0143735Y0090749D01*
Y0090166D01*
X0144318Y0089583D01*
X0145485D01*
X0146068Y0089000D01*
Y0088416D01*
X0145485Y0087833D01*
X0144318D01*
X0143735Y0088416D01*
X0147234Y0091332D02*
X0148400D01*
X0147817D01*
Y0087833D01*
X0147234D01*
X0148400D01*
X0150150Y0091332D02*
Y0087833D01*
X0151899D01*
X0152482Y0088416D01*
Y0090749D01*
X0151899Y0091332D01*
X0150150D01*
X0155981D02*
X0153649D01*
Y0087833D01*
X0155981D01*
X0153649Y0089583D02*
X0154815D01*
G54D240*
X0225669Y0944645D02*
X0255789D01*
X0261929Y0938504D01*
X0206389Y0925365D02*
X0225669Y0944645D01*
X0206389Y0887845D02*
Y0925365D01*
Y0887845D02*
X0215278Y0878956D01*
G54D254*
X0565289Y0703345D02*
D03*
Y0783345D02*
D03*
X0563089Y0609145D02*
D03*
Y0529145D02*
D03*
G54D256*
X0228689Y0626287D02*
D03*
X0228889Y0682630D02*
D03*
G54D258*
X0611789Y0544445D02*
D03*
X0630389Y0703845D02*
D03*
Y0783345D02*
D03*
X0611189Y0606745D02*
D03*
G54D259*
X0631789Y0544445D02*
D03*
X0610389Y0703845D02*
D03*
Y0783345D02*
D03*
X0631189Y0606745D02*
D03*
G54D262*
X0595235Y0508194D02*
D03*
X0587935Y0679145D02*
D03*
Y0667645D02*
D03*
X0587735Y0805245D02*
D03*
X0587635Y0816345D02*
D03*
X0592435Y0646594D02*
D03*
Y0634594D02*
D03*
X0595235Y0496695D02*
D03*
G54D263*
X0351489Y0356145D02*
D03*
G54D272*
X0626789Y0483945D02*
D03*
X0652861Y0399445D02*
D03*
X0701189Y0485773D02*
D03*
X0609453Y0402745D02*
D03*
G54D279*
X0221004Y0732745D02*
D03*
X0223646Y0554687D02*
D03*
G54D280*
X0705889Y0837781D02*
D03*
X0631889Y0839681D02*
D03*
X0557389Y0843545D02*
D03*
G54D283*
X0847730Y0471463D02*
D03*
X0883394Y0537916D02*
D03*
X0862589Y0599645D02*
D03*
X0777126Y0313103D02*
D03*
X0853989Y0374645D02*
D03*
X0863720Y0375769D02*
D03*
X0852389Y0367045D02*
D03*
X0855223Y0452388D02*
D03*
X0862737Y0523004D02*
D03*
X0860405Y0595362D02*
D03*
X0863075Y0598032D02*
D03*
X0855698Y0527049D02*
D03*
X0866948Y0534481D02*
D03*
X0867319Y0508069D02*
D03*
X0877965Y0509613D02*
D03*
X0853783Y0416162D02*
D03*
X0848713Y0498366D02*
D03*
X0858778Y0491639D02*
D03*
X0794185Y0319666D02*
D03*
X0577522Y0332560D02*
D03*
X0577745Y0300897D02*
D03*
X0809135Y0331135D02*
D03*
X0813799Y0335746D02*
D03*
X0844792Y0362448D02*
D03*
X0865389Y0406945D02*
D03*
X0849436Y0532891D02*
D03*
X0856852Y0454315D02*
D03*
G54D284*
X0262215Y0938403D02*
D03*
X0321879Y0956528D02*
D03*
X0483174Y0844956D02*
D03*
X0315810Y0876822D02*
D03*
X0312689Y0874698D02*
D03*
X0756806Y0322652D02*
D03*
X0658289Y0596545D02*
D03*
X0530906Y0943058D02*
D03*
X0874453Y0662265D02*
D03*
X0869665Y0661946D02*
D03*
X0866065Y0661879D02*
D03*
X0662332Y0333894D02*
D03*
X0737041Y0309960D02*
D03*
X0692682Y0902436D02*
D03*
X0659263Y0302779D02*
D03*
X0656723Y0305766D02*
D03*
X0654748Y0301285D02*
D03*
X0693468Y0295618D02*
D03*
X0599939Y0516955D02*
D03*
X0594878Y0516835D02*
D03*
X0600489Y0613145D02*
D03*
X0600789Y0607945D02*
D03*
X0627521Y0663430D02*
D03*
X0347989Y0901245D02*
D03*
X0402789Y0667845D02*
D03*
X0499387Y0312072D02*
D03*
X0561589Y0308545D02*
D03*
X0582254Y0954934D02*
D03*
X0268378Y0891414D02*
D03*
X0277310D02*
D03*
X0286242Y0895854D02*
D03*
X0377039Y0870589D02*
D03*
X0358699Y0868583D02*
D03*
X0379608Y0881948D02*
D03*
X0360517Y0922020D02*
D03*
X0372589Y0948945D02*
D03*
X0298467Y0918287D02*
D03*
X0418236Y0306541D02*
D03*
X0372896Y0328476D02*
D03*
X0394371Y0326370D02*
D03*
X0394508Y0330393D02*
D03*
X0470000Y0355846D02*
D03*
X0462928Y0349463D02*
D03*
X0495761Y0339040D02*
D03*
X0370392Y0350978D02*
D03*
X0560789Y0312445D02*
D03*
X0544721Y0344932D02*
D03*
X0542315Y0348569D02*
D03*
X0334867Y0341797D02*
D03*
X0400589Y0440745D02*
D03*
X0403189Y0436545D02*
D03*
X0346389Y0364545D02*
D03*
X0366513Y0350835D02*
D03*
X0356889Y0360345D02*
D03*
X0356422Y0454485D02*
D03*
X0275041Y0419029D02*
D03*
X0285638Y0416684D02*
D03*
X0589989Y0628745D02*
D03*
X0594289Y0628645D02*
D03*
X0599389Y0547444D02*
D03*
Y0542444D02*
D03*
X0596589Y0701194D02*
D03*
Y0706194D02*
D03*
X0585289Y0685495D02*
D03*
X0590289D02*
D03*
X0589589Y0792595D02*
D03*
X0584589D02*
D03*
X0596589Y0780595D02*
D03*
Y0785595D02*
D03*
G54D285*
X0868032Y0460517D02*
D03*
X0883783Y0383012D02*
D03*
G54D290*
X0215278Y0878956D02*
D03*
M02*
