M48
;Layer_Color=9474304
;FILE_FORMAT=2:5
INCH,LZ
;TYPE=PLATED
T01F00S00C0.01500
T02F00S00C0.11417
;TYPE=NON_PLATED
T03F00S00C0.02756
T04F00S00C0.03543
%
T01
X0228659Y0044932
X0227561Y0048532
X0230151Y0051182
X022773Y0053758
X0230269Y0056167
X0209366Y0056279
X0189256Y0056503
X0169556
X0149856
X0130156
X0110456
X0090856
X0071156
Y0036803
X0090856
X0110456
X0130156
X0149856
X0169556
X0189256
Y0017104
X0169556
X0150317Y0016958
X0147963Y0002715
X0142796Y000262
X0153367Y0002715
X0130217Y0016958
X0110456Y0017104
X0091817Y0017358
X0092438Y0002678
X0087004Y0002762
X0098251Y0002635
X0071716Y0016858
X0051416
X0051456Y0036803
Y0056503
X0051319Y0076375
X0051419Y0095975
X0051218Y0115475
X0051556Y0135204
X0051456Y0154903
X0071156
X0090856
X0092519Y0168207
X0087503Y0168293
X0098054Y016825
X0110456Y0154903
X0110819Y0135475
X0130256Y0135303
Y0155003
X0150056
X0147781Y0168163
X0142592Y0168207
X0153272Y016825
X0169556Y0154804
X0169756Y0135404
X0150119Y0135375
X0149856Y0115504
X0169556
X018849Y0115482
X0189256Y0096358
X0169818Y0095575
X0169556Y0076204
X0150218Y0076275
X0150119Y0095675
X0130419Y0095775
X0130119Y0076475
X0110618Y0076175
X0110719Y0095675
X0091018Y0095775
X0091119Y0076475
X0071219Y0076375
Y0095875
X0071156Y0115504
X0090856
X0110456
X0130156
X0091256Y0135204
X0071618Y0135275
X0189256Y0135204
X0189656Y0154403
X0209498Y0113839
X0209093Y0108767
X0212689Y0111188
X0212794Y0106355
X0226824Y0108673
X0226554Y0103564
X0226706Y0098668
X0226833Y0093798
X0226921Y0088649
X021228Y0063729
X0212267Y0058935
X0209366Y0061293
X0189819Y0075775
X0227725Y0073659
X0227787Y0068725
X0227787Y006389
X0230524Y0066156
X0230426Y0061426
X0227787Y0058696
X0230465Y0071278
X0230347Y0076126
X0230465Y008113
X0227701Y0078765
X0227527Y0083504
X0230289Y0086154
X0230347Y0091139
X0230367Y0096419
X0230465Y0101188
X0230544Y0105957
X0230667Y0111238
X0227823Y0113757
X0228411Y0118531
X0231219Y0116075
X0231015Y0121201
X0228589Y0123888
T02
X0227575Y0013739
X0013021
Y0156639
X0227575
T03
X0212025Y0036388
T04
X0212025Y0131269
M30
