G04*
G04 #@! TF.GenerationSoftware,Altium Limited,Altium Designer,24.3.1 (35)*
G04*
G04 Layer_Physical_Order=2*
G04 Layer_Color=8388736*
%FSAX25Y25*%
%MOIN*%
G70*
G04*
G04 #@! TF.SameCoordinates,FD1E8778-55F6-401F-AF26-4ACC28CE7946*
G04*
G04*
G04 #@! TF.FilePolarity,Positive*
G04*
G01*
G75*
%ADD11C,0.01000*%
%ADD14C,0.00800*%
%ADD28C,0.03000*%
G36*
X0139183Y0292296D02*
X0139100Y0292288D01*
X0139004Y0292264D01*
X0138893Y0292224D01*
X0138769Y0292168D01*
X0138632Y0292096D01*
X0138315Y0291904D01*
X0137944Y0291649D01*
X0137738Y0291497D01*
Y0293896D01*
X0137944Y0293744D01*
X0138632Y0293296D01*
X0138769Y0293224D01*
X0138893Y0293168D01*
X0139004Y0293128D01*
X0139100Y0293104D01*
X0139183Y0293096D01*
Y0292296D01*
D02*
G37*
G36*
X0158579Y0333572D02*
X0158525Y0333507D01*
X0158471Y0333421D01*
X0158418Y0333315D01*
X0158366Y0333189D01*
X0158316Y0333043D01*
X0158217Y0332690D01*
X0158123Y0332256D01*
X0158077Y0332009D01*
X0156437Y0333758D01*
X0156695Y0333789D01*
X0157511Y0333934D01*
X0157661Y0333977D01*
X0157789Y0334021D01*
X0157896Y0334068D01*
X0157981Y0334117D01*
X0158044Y0334168D01*
X0158579Y0333572D01*
D02*
G37*
G36*
X0178583Y0292296D02*
X0178500Y0292288D01*
X0178404Y0292264D01*
X0178294Y0292224D01*
X0178170Y0292168D01*
X0178032Y0292096D01*
X0177716Y0291904D01*
X0177344Y0291649D01*
X0177138Y0291497D01*
Y0293896D01*
X0177344Y0293744D01*
X0178032Y0293296D01*
X0178170Y0293224D01*
X0178294Y0293168D01*
X0178404Y0293128D01*
X0178500Y0293104D01*
X0178583Y0293096D01*
Y0292296D01*
D02*
G37*
G36*
X0197868Y0333560D02*
X0197818Y0333498D01*
X0197770Y0333413D01*
X0197726Y0333307D01*
X0197685Y0333178D01*
X0197646Y0333027D01*
X0197577Y0332659D01*
X0197519Y0332202D01*
X0197494Y0331940D01*
X0195705Y0333538D01*
X0195948Y0333589D01*
X0196722Y0333798D01*
X0196866Y0333852D01*
X0196991Y0333906D01*
X0197097Y0333961D01*
X0197183Y0334017D01*
X0197249Y0334073D01*
X0197868Y0333560D01*
D02*
G37*
G36*
X0158545Y0353137D02*
X0158492Y0353073D01*
X0158440Y0352988D01*
X0158390Y0352882D01*
X0158342Y0352754D01*
X0158295Y0352606D01*
X0158206Y0352247D01*
X0158123Y0351805D01*
X0158084Y0351552D01*
X0156393Y0353253D01*
X0156646Y0353291D01*
X0157450Y0353458D01*
X0157598Y0353504D01*
X0157726Y0353552D01*
X0157832Y0353602D01*
X0157917Y0353653D01*
X0157982Y0353706D01*
X0158545Y0353137D01*
D02*
G37*
G36*
X0138842Y0392534D02*
X0138790Y0392471D01*
X0138741Y0392386D01*
X0138694Y0392280D01*
X0138649Y0392151D01*
X0138607Y0392002D01*
X0138529Y0391637D01*
X0138460Y0391186D01*
X0138428Y0390929D01*
X0136683Y0392574D01*
X0136931Y0392619D01*
X0137719Y0392810D01*
X0137865Y0392860D01*
X0137991Y0392912D01*
X0138097Y0392964D01*
X0138183Y0393018D01*
X0138248Y0393072D01*
X0138842Y0392534D01*
D02*
G37*
G36*
X0197881Y0353173D02*
X0197834Y0353113D01*
X0197791Y0353029D01*
X0197752Y0352922D01*
X0197718Y0352792D01*
X0197687Y0352639D01*
X0197640Y0352265D01*
X0197609Y0351798D01*
X0197599Y0351530D01*
X0195719Y0353018D01*
X0195947Y0353080D01*
X0196684Y0353327D01*
X0196824Y0353388D01*
X0197050Y0353509D01*
X0197136Y0353569D01*
X0197205Y0353629D01*
X0197881Y0353173D01*
D02*
G37*
G36*
X0178414Y0392707D02*
X0178367Y0392646D01*
X0178325Y0392563D01*
X0178286Y0392456D01*
X0178252Y0392326D01*
X0178222Y0392173D01*
X0178175Y0391798D01*
X0178146Y0391331D01*
X0178137Y0391062D01*
X0176252Y0392546D01*
X0176480Y0392608D01*
X0177215Y0392857D01*
X0177355Y0392918D01*
X0177580Y0393039D01*
X0177667Y0393100D01*
X0177735Y0393160D01*
X0178414Y0392707D01*
D02*
G37*
G36*
X0217479Y0294072D02*
X0217426Y0294007D01*
X0217375Y0293922D01*
X0217325Y0293816D01*
X0217277Y0293689D01*
X0217231Y0293541D01*
X0217143Y0293181D01*
X0217061Y0292738D01*
X0217023Y0292485D01*
X0215326Y0294181D01*
X0215580Y0294219D01*
X0216382Y0294389D01*
X0216530Y0294435D01*
X0216658Y0294483D01*
X0216764Y0294533D01*
X0216849Y0294584D01*
X0216913Y0294637D01*
X0217479Y0294072D01*
D02*
G37*
G36*
X0237425Y0333718D02*
X0237377Y0333657D01*
X0237332Y0333572D01*
X0237290Y0333466D01*
X0237252Y0333336D01*
X0237218Y0333184D01*
X0237159Y0332812D01*
X0237115Y0332350D01*
X0237098Y0332085D01*
X0235262Y0333629D01*
X0235498Y0333686D01*
X0236254Y0333914D01*
X0236397Y0333971D01*
X0236625Y0334087D01*
X0236711Y0334144D01*
X0236778Y0334202D01*
X0237425Y0333718D01*
D02*
G37*
G36*
X0257283Y0292296D02*
X0257200Y0292288D01*
X0257104Y0292264D01*
X0256994Y0292224D01*
X0256870Y0292168D01*
X0256732Y0292096D01*
X0256416Y0291904D01*
X0256044Y0291649D01*
X0255838Y0291497D01*
Y0293896D01*
X0256044Y0293744D01*
X0256732Y0293296D01*
X0256870Y0293224D01*
X0256994Y0293168D01*
X0257104Y0293128D01*
X0257200Y0293104D01*
X0257283Y0293096D01*
Y0292296D01*
D02*
G37*
G36*
X0277599Y0331618D02*
X0277524Y0331608D01*
X0277437Y0331578D01*
X0277336Y0331528D01*
X0277223Y0331458D01*
X0277096Y0331367D01*
X0276804Y0331126D01*
X0276459Y0330805D01*
X0276268Y0330614D01*
X0275915Y0332986D01*
X0276118Y0332878D01*
X0276809Y0332560D01*
X0276952Y0332509D01*
X0277200Y0332441D01*
X0277305Y0332424D01*
X0277398Y0332418D01*
X0277599Y0331618D01*
D02*
G37*
G36*
X0237281Y0353173D02*
X0237234Y0353113D01*
X0237191Y0353029D01*
X0237152Y0352922D01*
X0237118Y0352792D01*
X0237087Y0352639D01*
X0237039Y0352265D01*
X0237009Y0351798D01*
X0236999Y0351530D01*
X0235119Y0353018D01*
X0235347Y0353080D01*
X0236084Y0353327D01*
X0236224Y0353388D01*
X0236450Y0353509D01*
X0236536Y0353569D01*
X0236605Y0353629D01*
X0237281Y0353173D01*
D02*
G37*
G36*
X0217579Y0392572D02*
X0217526Y0392508D01*
X0217475Y0392422D01*
X0217425Y0392316D01*
X0217377Y0392189D01*
X0217331Y0392041D01*
X0217243Y0391681D01*
X0217161Y0391238D01*
X0217123Y0390985D01*
X0215426Y0392681D01*
X0215680Y0392719D01*
X0216482Y0392889D01*
X0216630Y0392935D01*
X0216758Y0392984D01*
X0216864Y0393033D01*
X0216949Y0393085D01*
X0217013Y0393138D01*
X0217579Y0392572D01*
D02*
G37*
G36*
X0275614Y0350154D02*
X0275543Y0350217D01*
X0275457Y0350281D01*
X0275354Y0350346D01*
X0275235Y0350411D01*
X0274949Y0350545D01*
X0274599Y0350681D01*
X0274185Y0350821D01*
X0276137Y0352214D01*
X0276133Y0351942D01*
X0276170Y0351092D01*
X0276193Y0350938D01*
X0276222Y0350808D01*
X0276256Y0350701D01*
X0276295Y0350619D01*
X0276340Y0350559D01*
X0275614Y0350154D01*
D02*
G37*
G36*
X0257412Y0390696D02*
X0257324Y0390689D01*
X0257222Y0390669D01*
X0257107Y0390636D01*
X0256980Y0390589D01*
X0256838Y0390528D01*
X0256517Y0390368D01*
X0256142Y0390153D01*
X0255935Y0390026D01*
X0256135Y0392416D01*
X0256335Y0392241D01*
X0256999Y0391726D01*
X0257131Y0391643D01*
X0257250Y0391579D01*
X0257355Y0391533D01*
X0257446Y0391505D01*
X0257524Y0391496D01*
X0257412Y0390696D01*
D02*
G37*
G36*
X0292472Y0312772D02*
X0292561Y0312778D01*
X0292662Y0312799D01*
X0292777Y0312832D01*
X0292905Y0312879D01*
X0293046Y0312939D01*
X0293368Y0313100D01*
X0293742Y0313315D01*
X0293949Y0313442D01*
X0293749Y0311052D01*
X0293549Y0311227D01*
X0292886Y0311742D01*
X0292754Y0311824D01*
X0292635Y0311889D01*
X0292530Y0311935D01*
X0292438Y0311963D01*
X0292360Y0311972D01*
X0292472Y0312772D01*
D02*
G37*
G36*
X0295303Y0315228D02*
X0295386Y0315236D01*
X0295482Y0315260D01*
X0295592Y0315300D01*
X0295716Y0315356D01*
X0295854Y0315428D01*
X0296170Y0315620D01*
X0296541Y0315876D01*
X0296747Y0316027D01*
Y0313629D01*
X0296541Y0313780D01*
X0295854Y0314228D01*
X0295716Y0314300D01*
X0295592Y0314356D01*
X0295482Y0314396D01*
X0295386Y0314420D01*
X0295303Y0314428D01*
Y0315228D01*
D02*
G37*
G36*
X0292472Y0317786D02*
X0292561Y0317793D01*
X0292662Y0317813D01*
X0292777Y0317846D01*
X0292905Y0317893D01*
X0293046Y0317953D01*
X0293368Y0318114D01*
X0293742Y0318329D01*
X0293949Y0318456D01*
X0293749Y0316066D01*
X0293549Y0316241D01*
X0292886Y0316756D01*
X0292754Y0316839D01*
X0292635Y0316903D01*
X0292530Y0316949D01*
X0292438Y0316977D01*
X0292360Y0316986D01*
X0292472Y0317786D01*
D02*
G37*
G36*
X0295411Y0320274D02*
X0295501Y0320281D01*
X0295604Y0320300D01*
X0295720Y0320332D01*
X0295849Y0320376D01*
X0296145Y0320503D01*
X0296313Y0320585D01*
X0296892Y0320909D01*
X0296639Y0318524D01*
X0296442Y0318705D01*
X0295786Y0319237D01*
X0295656Y0319322D01*
X0295539Y0319389D01*
X0295436Y0319436D01*
X0295345Y0319465D01*
X0295269Y0319474D01*
X0295411Y0320274D01*
D02*
G37*
G36*
X0311910Y0338276D02*
X0311711Y0338451D01*
X0311047Y0338966D01*
X0310915Y0339049D01*
X0310796Y0339113D01*
X0310691Y0339159D01*
X0310599Y0339187D01*
X0310522Y0339196D01*
X0310633Y0339996D01*
X0310722Y0340003D01*
X0310823Y0340023D01*
X0310938Y0340056D01*
X0311066Y0340103D01*
X0311207Y0340164D01*
X0311529Y0340324D01*
X0311904Y0340539D01*
X0312111Y0340667D01*
X0311910Y0338276D01*
D02*
G37*
G36*
X0314950Y0335820D02*
X0314744Y0335971D01*
X0314056Y0336415D01*
X0313918Y0336487D01*
X0313794Y0336542D01*
X0313684Y0336582D01*
X0313587Y0336606D01*
X0313504Y0336614D01*
X0313498Y0337414D01*
X0313581Y0337422D01*
X0313678Y0337446D01*
X0313788Y0337486D01*
X0313911Y0337543D01*
X0314049Y0337615D01*
X0314365Y0337808D01*
X0314736Y0338066D01*
X0314941Y0338219D01*
X0314950Y0335820D01*
D02*
G37*
G36*
X0312084Y0333538D02*
X0311884Y0333712D01*
X0311221Y0334227D01*
X0311089Y0334310D01*
X0310970Y0334375D01*
X0310865Y0334421D01*
X0310773Y0334448D01*
X0310695Y0334457D01*
X0310807Y0335258D01*
X0310896Y0335264D01*
X0310997Y0335284D01*
X0311112Y0335318D01*
X0311240Y0335365D01*
X0311381Y0335425D01*
X0311703Y0335586D01*
X0312077Y0335801D01*
X0312284Y0335928D01*
X0312084Y0333538D01*
D02*
G37*
G36*
X0314828Y0330819D02*
X0314622Y0330971D01*
X0313935Y0331418D01*
X0313797Y0331490D01*
X0313673Y0331546D01*
X0313563Y0331586D01*
X0313466Y0331610D01*
X0313383Y0331618D01*
Y0332418D01*
X0313466Y0332426D01*
X0313563Y0332450D01*
X0313673Y0332490D01*
X0313797Y0332546D01*
X0313935Y0332618D01*
X0314251Y0332810D01*
X0314622Y0333066D01*
X0314828Y0333218D01*
Y0330819D01*
D02*
G37*
G36*
X0313325Y0342450D02*
X0313408Y0342458D01*
X0313505Y0342482D01*
X0313615Y0342522D01*
X0313739Y0342577D01*
X0313877Y0342649D01*
X0314193Y0342841D01*
X0314565Y0343096D01*
X0314771Y0343248D01*
X0314768Y0340849D01*
X0314562Y0341001D01*
X0313875Y0341449D01*
X0313737Y0341522D01*
X0313613Y0341578D01*
X0313503Y0341618D01*
X0313406Y0341642D01*
X0313324Y0341650D01*
X0313325Y0342450D01*
D02*
G37*
G36*
X0309957Y0344942D02*
X0310040Y0344950D01*
X0310136Y0344974D01*
X0310247Y0345014D01*
X0310371Y0345070D01*
X0310508Y0345142D01*
X0310825Y0345334D01*
X0311196Y0345589D01*
X0311402Y0345741D01*
Y0343343D01*
X0311196Y0343495D01*
X0310508Y0343942D01*
X0310371Y0344014D01*
X0310247Y0344070D01*
X0310136Y0344110D01*
X0310040Y0344134D01*
X0309957Y0344142D01*
Y0344942D01*
D02*
G37*
G36*
X0313383Y0347432D02*
X0313466Y0347440D01*
X0313563Y0347464D01*
X0313673Y0347504D01*
X0313797Y0347560D01*
X0313935Y0347632D01*
X0314251Y0347824D01*
X0314622Y0348079D01*
X0314828Y0348231D01*
Y0345832D01*
X0314622Y0345984D01*
X0313935Y0346432D01*
X0313797Y0346504D01*
X0313673Y0346560D01*
X0313563Y0346600D01*
X0313466Y0346624D01*
X0313383Y0346632D01*
Y0347432D01*
D02*
G37*
G36*
X0309910Y0350219D02*
X0309997Y0350226D01*
X0310097Y0350248D01*
X0310210Y0350284D01*
X0310336Y0350334D01*
X0310477Y0350399D01*
X0310797Y0350571D01*
X0311172Y0350800D01*
X0311379Y0350937D01*
X0311250Y0348541D01*
X0311047Y0348708D01*
X0310374Y0349200D01*
X0310239Y0349279D01*
X0310119Y0349340D01*
X0310012Y0349384D01*
X0309918Y0349411D01*
X0309839Y0349419D01*
X0309910Y0350219D01*
D02*
G37*
G36*
X0295790Y0362454D02*
X0295868Y0362463D01*
X0295960Y0362490D01*
X0296065Y0362536D01*
X0296184Y0362600D01*
X0296316Y0362683D01*
X0296621Y0362903D01*
X0296981Y0363196D01*
X0297181Y0363370D01*
X0297375Y0360979D01*
X0297168Y0361107D01*
X0296471Y0361485D01*
X0296330Y0361546D01*
X0296202Y0361593D01*
X0296088Y0361627D01*
X0295986Y0361647D01*
X0295898Y0361654D01*
X0295790Y0362454D01*
D02*
G37*
G36*
X0292701Y0365184D02*
X0292696Y0365191D01*
X0292712Y0365212D01*
X0292750Y0365247D01*
X0292809Y0365296D01*
X0293419Y0365750D01*
X0293605Y0365882D01*
X0293443Y0363571D01*
X0293281Y0363725D01*
X0292693Y0364352D01*
X0292687Y0364376D01*
X0292701Y0364384D01*
Y0365184D01*
D02*
G37*
G36*
X0295748Y0367556D02*
X0295833Y0367564D01*
X0295932Y0367586D01*
X0296044Y0367624D01*
X0296169Y0367676D01*
X0296309Y0367744D01*
X0296628Y0367924D01*
X0297001Y0368165D01*
X0297208Y0368308D01*
X0297133Y0365910D01*
X0296929Y0366071D01*
X0296248Y0366545D01*
X0296113Y0366621D01*
X0295990Y0366680D01*
X0295882Y0366722D01*
X0295787Y0366748D01*
X0295706Y0366756D01*
X0295748Y0367556D01*
D02*
G37*
G36*
X0295147Y0372108D02*
X0295156Y0372028D01*
X0295182Y0371935D01*
X0295226Y0371828D01*
X0295288Y0371707D01*
X0295367Y0371573D01*
X0295578Y0371264D01*
X0295860Y0370900D01*
X0296027Y0370697D01*
X0293632Y0370565D01*
X0293768Y0370772D01*
X0294168Y0371467D01*
X0294233Y0371607D01*
X0294283Y0371734D01*
X0294318Y0371847D01*
X0294340Y0371947D01*
X0294347Y0372034D01*
X0295147Y0372108D01*
D02*
G37*
G54D11*
X0497200Y0080717D02*
Y0101050D01*
X0413200Y0080717D02*
Y0101050D01*
X0040000Y0080717D02*
X0700200D01*
X0040000Y0060383D02*
X0700000D01*
X0040000Y0040050D02*
X0440500D01*
X0040050Y0101050D02*
X0700200D01*
X0040050Y0040050D02*
Y0101050D01*
Y0040050D02*
X0197600D01*
X0040000D02*
Y0101050D01*
X0286500Y0040050D02*
Y0101050D01*
X0700200Y0040050D02*
Y0101050D01*
X0440500Y0040050D02*
X0700200D01*
X0559400Y0039400D02*
Y0059683D01*
G54D14*
X0277041Y0356132D02*
X0288630Y0344542D01*
X0312302D01*
X0292701Y0364784D02*
X0294350D01*
X0294474Y0364660D01*
X0293655Y0367156D02*
X0297995D01*
X0298071Y0367081D01*
X0284899Y0375912D02*
X0293655Y0367156D01*
X0261179Y0399632D02*
X0284899Y0375912D01*
X0291957Y0362054D02*
X0297982D01*
X0298176Y0362248D01*
X0284399Y0314828D02*
X0297648D01*
X0284249D02*
X0284399D01*
X0274953Y0305532D02*
X0284249Y0314828D01*
X0297409Y0319874D02*
X0297661Y0319621D01*
X0284399Y0319874D02*
X0297409D01*
X0203399D02*
X0284399D01*
Y0332018D02*
X0315729D01*
X0275824D02*
X0284399D01*
X0275038Y0331231D02*
X0275824Y0332018D01*
X0284399Y0337014D02*
X0315838D01*
X0203399D02*
X0284399D01*
X0315838D02*
X0315847Y0337023D01*
X0315667Y0342050D02*
X0315670Y0342047D01*
X0284399Y0342050D02*
X0315667D01*
X0284284D02*
X0284399D01*
X0278194Y0358432D02*
X0289593Y0347032D01*
X0315729D01*
X0200755Y0337014D02*
X0203399D01*
X0195838Y0332096D02*
X0200755Y0337014D01*
X0274638Y0351696D02*
X0284284Y0342050D01*
X0290329Y0367156D02*
X0292701Y0364784D01*
X0244884Y0397078D02*
X0260407D01*
X0284899Y0372586D01*
X0290329Y0367156D01*
X0286855D02*
X0291957Y0362054D01*
X0284899Y0387312D02*
X0294747Y0377464D01*
Y0368662D02*
Y0377464D01*
X0235238Y0351696D02*
X0239673Y0356132D01*
X0156538Y0351696D02*
X0165873Y0361032D01*
X0164038Y0339596D02*
X0312908D01*
X0156538Y0332096D02*
X0164038Y0339596D01*
X0312882Y0334858D02*
X0313082Y0334658D01*
X0237999Y0334858D02*
X0312882D01*
X0274638Y0351696D02*
Y0352251D01*
X0266512Y0292696D02*
X0284399Y0310583D01*
X0286188Y0312372D01*
X0254938Y0292696D02*
X0266512D01*
X0286188Y0312372D02*
X0294747D01*
X0244799Y0305532D02*
X0274953D01*
X0228373D02*
X0244799D01*
X0215538Y0292696D02*
X0228373Y0305532D01*
X0136838Y0292696D02*
X0145629D01*
X0172808Y0319874D02*
X0203399D01*
X0145629Y0292696D02*
X0172808Y0319874D01*
X0244799Y0317386D02*
X0284399D01*
X0209834D02*
X0244799D01*
X0284399D02*
X0294747D01*
X0185144Y0292696D02*
X0203399Y0310951D01*
X0209834Y0317386D01*
X0176238Y0292696D02*
X0185144D01*
X0235238Y0332096D02*
X0237999Y0334858D01*
X0239673Y0356132D02*
X0277041D01*
X0195838Y0351696D02*
X0202573Y0358432D01*
X0278194D01*
X0165873Y0361032D02*
X0278780D01*
X0289992Y0349819D01*
X0311779D01*
X0221520Y0397078D02*
X0244884D01*
X0215538Y0391096D02*
X0221520Y0397078D01*
X0244884Y0399632D02*
X0261179D01*
X0262915Y0391096D02*
X0284899Y0369112D01*
X0286855Y0367156D01*
X0254938Y0391096D02*
X0262915D01*
X0244884Y0401831D02*
X0270379D01*
X0284899Y0387312D01*
X0147573Y0401831D02*
X0203629D01*
X0244884D01*
X0184773Y0399632D02*
X0203629D01*
X0244884D01*
X0176238Y0391096D02*
X0184773Y0399632D01*
X0136838Y0391096D02*
X0147573Y0401831D01*
X0173078Y0168930D02*
X0172079Y0169930D01*
X0170079D01*
X0169079Y0168930D01*
Y0167930D01*
X0170079Y0166930D01*
X0172079D01*
X0173078Y0165931D01*
Y0164931D01*
X0172079Y0163932D01*
X0170079D01*
X0169079Y0164931D01*
X0175077Y0163932D02*
X0177077D01*
X0176077D01*
Y0167930D01*
X0175077D01*
X0182075Y0161932D02*
X0183075D01*
X0184075Y0162932D01*
Y0167930D01*
X0181076D01*
X0180076Y0166930D01*
Y0164931D01*
X0181076Y0163932D01*
X0184075D01*
X0186074D02*
Y0167930D01*
X0189073D01*
X0190073Y0166930D01*
Y0163932D01*
X0193072Y0167930D02*
X0195071D01*
X0196071Y0166930D01*
Y0163932D01*
X0193072D01*
X0192072Y0164931D01*
X0193072Y0165931D01*
X0196071D01*
X0198070Y0163932D02*
X0200069D01*
X0199070D01*
Y0169930D01*
X0198070D01*
X0209067D02*
Y0163932D01*
X0213065D01*
X0216064Y0167930D02*
X0218064D01*
X0219063Y0166930D01*
Y0163932D01*
X0216064D01*
X0215065Y0164931D01*
X0216064Y0165931D01*
X0219063D01*
X0221063Y0167930D02*
Y0164931D01*
X0222062Y0163932D01*
X0225061D01*
Y0162932D01*
X0224062Y0161932D01*
X0223062D01*
X0225061Y0163932D02*
Y0167930D01*
X0230060Y0163932D02*
X0228060D01*
X0227061Y0164931D01*
Y0166930D01*
X0228060Y0167930D01*
X0230060D01*
X0231059Y0166930D01*
Y0165931D01*
X0227061D01*
X0233059Y0167930D02*
Y0163932D01*
Y0165931D01*
X0234058Y0166930D01*
X0235058Y0167930D01*
X0236058D01*
X0245055Y0168930D02*
X0246055Y0169930D01*
X0248054D01*
X0249054Y0168930D01*
Y0167930D01*
X0248054Y0166930D01*
X0247054D01*
X0248054D01*
X0249054Y0165931D01*
Y0164931D01*
X0248054Y0163932D01*
X0246055D01*
X0245055Y0164931D01*
X0567400Y0087833D02*
Y0093831D01*
X0571399Y0087833D01*
Y0093831D01*
X0574398Y0087833D02*
X0576397D01*
X0577397Y0088833D01*
Y0090832D01*
X0576397Y0091832D01*
X0574398D01*
X0573398Y0090832D01*
Y0088833D01*
X0574398Y0087833D01*
X0580396Y0092832D02*
Y0091832D01*
X0579396D01*
X0581395D01*
X0580396D01*
Y0088833D01*
X0581395Y0087833D01*
X0590393D02*
X0592392D01*
X0591392D01*
Y0091832D01*
X0590393D01*
X0595391Y0087833D02*
Y0091832D01*
X0598390D01*
X0599390Y0090832D01*
Y0087833D01*
X0607387Y0091832D02*
X0609386Y0087833D01*
X0611386Y0091832D01*
X0616384Y0087833D02*
X0614385D01*
X0613385Y0088833D01*
Y0090832D01*
X0614385Y0091832D01*
X0616384D01*
X0617384Y0090832D01*
Y0089833D01*
X0613385D01*
X0619383Y0091832D02*
Y0087833D01*
Y0089833D01*
X0620383Y0090832D01*
X0621383Y0091832D01*
X0622382D01*
X0625381Y0087833D02*
X0628380D01*
X0629380Y0088833D01*
X0628380Y0089833D01*
X0626381D01*
X0625381Y0090832D01*
X0626381Y0091832D01*
X0629380D01*
X0631379Y0087833D02*
X0633379D01*
X0632379D01*
Y0091832D01*
X0631379D01*
X0637377Y0087833D02*
X0639377D01*
X0640376Y0088833D01*
Y0090832D01*
X0639377Y0091832D01*
X0637377D01*
X0636378Y0090832D01*
Y0088833D01*
X0637377Y0087833D01*
X0642376D02*
Y0091832D01*
X0645375D01*
X0646374Y0090832D01*
Y0087833D01*
X0658371Y0091832D02*
X0655372D01*
X0654372Y0090832D01*
Y0088833D01*
X0655372Y0087833D01*
X0658371D01*
X0661370D02*
X0663369D01*
X0664369Y0088833D01*
Y0090832D01*
X0663369Y0091832D01*
X0661370D01*
X0660370Y0090832D01*
Y0088833D01*
X0661370Y0087833D01*
X0666368D02*
Y0091832D01*
X0669367D01*
X0670367Y0090832D01*
Y0087833D01*
X0673366Y0092832D02*
Y0091832D01*
X0672366D01*
X0674365D01*
X0673366D01*
Y0088833D01*
X0674365Y0087833D01*
X0677364Y0091832D02*
Y0087833D01*
Y0089833D01*
X0678364Y0090832D01*
X0679364Y0091832D01*
X0680364D01*
X0684362Y0087833D02*
X0686362D01*
X0687361Y0088833D01*
Y0090832D01*
X0686362Y0091832D01*
X0684362D01*
X0683362Y0090832D01*
Y0088833D01*
X0684362Y0087833D01*
X0689361D02*
X0691360D01*
X0690360D01*
Y0093831D01*
X0689361D01*
X0520799Y0092832D02*
X0519799Y0093831D01*
X0517800D01*
X0516800Y0092832D01*
Y0091832D01*
X0517800Y0090832D01*
X0519799D01*
X0520799Y0089833D01*
Y0088833D01*
X0519799Y0087833D01*
X0517800D01*
X0516800Y0088833D01*
X0522798Y0093831D02*
Y0089833D01*
X0524797Y0087833D01*
X0526797Y0089833D01*
Y0093831D01*
X0528796Y0087833D02*
Y0093831D01*
X0532795Y0087833D01*
Y0093831D01*
X0540792Y0087833D02*
Y0093831D01*
X0543791D01*
X0544791Y0092832D01*
Y0090832D01*
X0543791Y0089833D01*
X0540792D01*
X0542792D02*
X0544791Y0087833D01*
X0550789Y0093831D02*
X0546790D01*
Y0087833D01*
X0550789D01*
X0546790Y0090832D02*
X0548790D01*
X0552788Y0093831D02*
Y0089833D01*
X0554788Y0087833D01*
X0556787Y0089833D01*
Y0093831D01*
X0558786Y0091832D02*
X0559786D01*
Y0090832D01*
X0558786D01*
Y0091832D01*
Y0088833D02*
X0559786D01*
Y0087833D01*
X0558786D01*
Y0088833D01*
X0433000Y0087833D02*
Y0093831D01*
X0435999D01*
X0436999Y0092832D01*
Y0090832D01*
X0435999Y0089833D01*
X0433000D01*
X0434999D02*
X0436999Y0087833D01*
X0442997Y0093831D02*
X0438998D01*
Y0087833D01*
X0442997D01*
X0438998Y0090832D02*
X0440997D01*
X0444996Y0093831D02*
Y0089833D01*
X0446995Y0087833D01*
X0448995Y0089833D01*
Y0093831D01*
X0450994Y0091832D02*
X0451994D01*
Y0090832D01*
X0450994D01*
Y0091832D01*
Y0088833D02*
X0451994D01*
Y0087833D01*
X0450994D01*
Y0088833D01*
X0126900Y0052965D02*
X0130899D01*
Y0051965D01*
X0126900Y0047966D01*
Y0046966D01*
X0132898D02*
X0134897D01*
X0133898D01*
Y0052965D01*
X0132898Y0051965D01*
X0137896D02*
X0138896Y0052965D01*
X0140895D01*
X0141895Y0051965D01*
Y0047966D01*
X0140895Y0046966D01*
X0138896D01*
X0137896Y0047966D01*
Y0051965D01*
X0143895D02*
X0144894Y0052965D01*
X0146894D01*
X0147893Y0051965D01*
Y0047966D01*
X0146894Y0046966D01*
X0144894D01*
X0143895Y0047966D01*
Y0051965D01*
X0149893Y0049966D02*
X0153891D01*
X0155891Y0051965D02*
X0156890Y0052965D01*
X0158890D01*
X0159889Y0051965D01*
Y0047966D01*
X0158890Y0046966D01*
X0156890D01*
X0155891Y0047966D01*
Y0051965D01*
X0161889D02*
X0162888Y0052965D01*
X0164888D01*
X0165887Y0051965D01*
Y0047966D01*
X0164888Y0046966D01*
X0162888D01*
X0161889Y0047966D01*
Y0051965D01*
X0167887D02*
X0168886Y0052965D01*
X0170886D01*
X0171885Y0051965D01*
Y0047966D01*
X0170886Y0046966D01*
X0168886D01*
X0167887Y0047966D01*
Y0051965D01*
X0173885D02*
X0174884Y0052965D01*
X0176884D01*
X0177884Y0051965D01*
Y0047966D01*
X0176884Y0046966D01*
X0174884D01*
X0173885Y0047966D01*
Y0051965D01*
X0179883Y0046966D02*
X0181882D01*
X0180883D01*
Y0052965D01*
X0179883Y0051965D01*
X0194878Y0052965D02*
X0192879Y0051965D01*
X0190879Y0049966D01*
Y0047966D01*
X0191879Y0046966D01*
X0193878D01*
X0194878Y0047966D01*
Y0048966D01*
X0193878Y0049966D01*
X0190879D01*
X0199876Y0046966D02*
Y0052965D01*
X0196877Y0049966D01*
X0200876D01*
X0208874Y0046966D02*
Y0050965D01*
X0210873Y0052965D01*
X0212872Y0050965D01*
Y0046966D01*
Y0049966D01*
X0208874D01*
X0214872Y0050965D02*
Y0046966D01*
Y0048966D01*
X0215871Y0049966D01*
X0216871Y0050965D01*
X0217871D01*
X0220870D02*
Y0046966D01*
Y0048966D01*
X0221869Y0049966D01*
X0222869Y0050965D01*
X0223869D01*
X0227867D02*
X0229867D01*
X0230866Y0049966D01*
Y0046966D01*
X0227867D01*
X0226868Y0047966D01*
X0227867Y0048966D01*
X0230866D01*
X0232866Y0050965D02*
Y0047966D01*
X0233865Y0046966D01*
X0236864D01*
Y0045967D01*
X0235865Y0044967D01*
X0234865D01*
X0236864Y0046966D02*
Y0050965D01*
X0238864Y0046966D02*
X0241863D01*
X0242863Y0047966D01*
X0241863Y0048966D01*
X0239863D01*
X0238864Y0049966D01*
X0239863Y0050965D01*
X0242863D01*
X0254859Y0052965D02*
X0250860D01*
Y0049966D01*
X0252859D01*
X0250860D01*
Y0046966D01*
X0256858D02*
X0258857D01*
X0257858D01*
Y0052965D01*
X0256858D01*
X0264855Y0046966D02*
X0262856D01*
X0261856Y0047966D01*
Y0049966D01*
X0262856Y0050965D01*
X0264855D01*
X0265855Y0049966D01*
Y0048966D01*
X0261856D01*
X0267854Y0050965D02*
X0271853Y0046966D01*
X0269854Y0048966D01*
X0271853Y0050965D01*
X0267854Y0046966D01*
X0279851Y0052965D02*
Y0046966D01*
X0282850D01*
X0283849Y0047966D01*
Y0048966D01*
X0282850Y0049966D01*
X0279851D01*
X0282850D01*
X0283849Y0050965D01*
Y0051965D01*
X0282850Y0052965D01*
X0279851D01*
X0286848Y0046966D02*
X0288848D01*
X0289847Y0047966D01*
Y0049966D01*
X0288848Y0050965D01*
X0286848D01*
X0285849Y0049966D01*
Y0047966D01*
X0286848Y0046966D01*
X0292846Y0050965D02*
X0294846D01*
X0295845Y0049966D01*
Y0046966D01*
X0292846D01*
X0291847Y0047966D01*
X0292846Y0048966D01*
X0295845D01*
X0297845Y0050965D02*
Y0046966D01*
Y0048966D01*
X0298844Y0049966D01*
X0299844Y0050965D01*
X0300844D01*
X0307841Y0052965D02*
Y0046966D01*
X0304842D01*
X0303843Y0047966D01*
Y0049966D01*
X0304842Y0050965D01*
X0307841D01*
X0309841Y0046966D02*
Y0047966D01*
X0310841D01*
Y0046966D01*
X0309841D01*
X0318838Y0051965D02*
X0317838Y0052965D01*
X0315839D01*
X0314839Y0051965D01*
Y0047966D01*
X0315839Y0046966D01*
X0317838D01*
X0318838Y0047966D01*
Y0049966D01*
X0316839D01*
X0320837Y0046966D02*
X0322837D01*
X0321837D01*
Y0052965D01*
X0320837Y0051965D01*
X0381150Y0046966D02*
X0383149D01*
X0382150D01*
Y0052965D01*
X0381150Y0051965D01*
X0390147Y0046966D02*
X0386148D01*
X0390147Y0050965D01*
Y0051965D01*
X0389147Y0052965D01*
X0387148D01*
X0386148Y0051965D01*
X0392146Y0046966D02*
X0396145Y0050965D01*
X0402143Y0046966D02*
X0398145D01*
X0402143Y0050965D01*
Y0051965D01*
X0401144Y0052965D01*
X0399144D01*
X0398145Y0051965D01*
X0404143D02*
X0405142Y0052965D01*
X0407142D01*
X0408141Y0051965D01*
Y0047966D01*
X0407142Y0046966D01*
X0405142D01*
X0404143Y0047966D01*
Y0051965D01*
X0410141Y0046966D02*
X0414139Y0050965D01*
X0420137Y0046966D02*
X0416139D01*
X0420137Y0050965D01*
Y0051965D01*
X0419138Y0052965D01*
X0417138D01*
X0416139Y0051965D01*
X0422137D02*
X0423136Y0052965D01*
X0425136D01*
X0426135Y0051965D01*
Y0047966D01*
X0425136Y0046966D01*
X0423136D01*
X0422137Y0047966D01*
Y0051965D01*
X0432133Y0046966D02*
X0428135D01*
X0432133Y0050965D01*
Y0051965D01*
X0431134Y0052965D01*
X0429135D01*
X0428135Y0051965D01*
X0437132Y0046966D02*
Y0052965D01*
X0434133Y0049966D01*
X0438132D01*
X0298199Y0051965D02*
X0297199Y0052965D01*
X0295200D01*
X0294200Y0051965D01*
Y0047966D01*
X0295200Y0046966D01*
X0297199D01*
X0298199Y0047966D01*
Y0049966D01*
X0296199D01*
X0304197Y0052965D02*
X0300198D01*
Y0046966D01*
X0304197D01*
X0300198Y0049966D02*
X0302197D01*
X0306196Y0046966D02*
Y0052965D01*
X0310195Y0046966D01*
Y0052965D01*
X0316193D02*
X0312194D01*
Y0046966D01*
X0316193D01*
X0312194Y0049966D02*
X0314194D01*
X0318192Y0046966D02*
Y0052965D01*
X0321191D01*
X0322191Y0051965D01*
Y0049966D01*
X0321191Y0048966D01*
X0318192D01*
X0320192D02*
X0322191Y0046966D01*
X0324190D02*
Y0050965D01*
X0326190Y0052965D01*
X0328189Y0050965D01*
Y0046966D01*
Y0049966D01*
X0324190D01*
X0330188Y0052965D02*
X0334187D01*
X0332188D01*
Y0046966D01*
X0340185Y0052965D02*
X0336186D01*
Y0046966D01*
X0340185D01*
X0336186Y0049966D02*
X0338186D01*
X0342184Y0052965D02*
Y0046966D01*
X0345183D01*
X0346183Y0047966D01*
Y0051965D01*
X0345183Y0052965D01*
X0342184D01*
X0372175Y0050965D02*
X0373175D01*
Y0049966D01*
X0372175D01*
Y0050965D01*
Y0047966D02*
X0373175D01*
Y0046966D01*
X0372175D01*
Y0047966D01*
X0046350Y0087833D02*
Y0091832D01*
X0048349Y0093831D01*
X0050349Y0091832D01*
Y0087833D01*
Y0090832D01*
X0046350D01*
X0052348Y0093831D02*
Y0087833D01*
X0056347D01*
X0058346Y0093831D02*
Y0087833D01*
X0062345D01*
X0070342D02*
Y0091832D01*
X0072342Y0093831D01*
X0074341Y0091832D01*
Y0087833D01*
Y0090832D01*
X0070342D01*
X0076340Y0087833D02*
Y0093831D01*
X0079339D01*
X0080339Y0092832D01*
Y0090832D01*
X0079339Y0089833D01*
X0076340D01*
X0078340D02*
X0080339Y0087833D01*
X0082338Y0093831D02*
X0086337D01*
X0084338D01*
Y0087833D01*
X0088336Y0093831D02*
Y0087833D01*
X0090336Y0089833D01*
X0092335Y0087833D01*
Y0093831D01*
X0097334D02*
X0095334D01*
X0094335Y0092832D01*
Y0088833D01*
X0095334Y0087833D01*
X0097334D01*
X0098333Y0088833D01*
Y0092832D01*
X0097334Y0093831D01*
X0100332Y0087833D02*
Y0093831D01*
X0103332D01*
X0104331Y0092832D01*
Y0090832D01*
X0103332Y0089833D01*
X0100332D01*
X0102332D02*
X0104331Y0087833D01*
X0106331Y0093831D02*
Y0087833D01*
Y0089833D01*
X0110329Y0093831D01*
X0107330Y0090832D01*
X0110329Y0087833D01*
X0118327Y0093831D02*
Y0089833D01*
X0120326Y0087833D01*
X0122325Y0089833D01*
Y0093831D01*
X0124325D02*
X0126324D01*
X0125324D01*
Y0087833D01*
X0124325D01*
X0126324D01*
X0133322Y0093831D02*
X0129323D01*
Y0087833D01*
X0133322D01*
X0129323Y0090832D02*
X0131323D01*
X0135321Y0093831D02*
Y0087833D01*
X0137321Y0089833D01*
X0139320Y0087833D01*
Y0093831D01*
X0145318D02*
X0141319D01*
Y0087833D01*
X0145318D01*
X0141319Y0090832D02*
X0143319D01*
X0147317Y0093831D02*
Y0087833D01*
X0150316D01*
X0151316Y0088833D01*
Y0092832D01*
X0150316Y0093831D01*
X0147317D01*
X0163312D02*
X0159313D01*
Y0090832D01*
X0161313D01*
X0159313D01*
Y0087833D01*
X0165312D02*
Y0093831D01*
X0168310D01*
X0169310Y0092832D01*
Y0090832D01*
X0168310Y0089833D01*
X0165312D01*
X0167311D02*
X0169310Y0087833D01*
X0174309Y0093831D02*
X0172309D01*
X0171310Y0092832D01*
Y0088833D01*
X0172309Y0087833D01*
X0174309D01*
X0175308Y0088833D01*
Y0092832D01*
X0174309Y0093831D01*
X0177308Y0087833D02*
Y0093831D01*
X0179307Y0091832D01*
X0181306Y0093831D01*
Y0087833D01*
X0189304Y0093831D02*
X0193303D01*
X0191303D01*
Y0087833D01*
X0198301Y0093831D02*
X0196301D01*
X0195302Y0092832D01*
Y0088833D01*
X0196301Y0087833D01*
X0198301D01*
X0199301Y0088833D01*
Y0092832D01*
X0198301Y0093831D01*
X0201300Y0087833D02*
Y0093831D01*
X0204299D01*
X0205299Y0092832D01*
Y0090832D01*
X0204299Y0089833D01*
X0201300D01*
X0217295Y0092832D02*
X0216295Y0093831D01*
X0214296D01*
X0213296Y0092832D01*
Y0091832D01*
X0214296Y0090832D01*
X0216295D01*
X0217295Y0089833D01*
Y0088833D01*
X0216295Y0087833D01*
X0214296D01*
X0213296Y0088833D01*
X0219294Y0093831D02*
X0221293D01*
X0220294D01*
Y0087833D01*
X0219294D01*
X0221293D01*
X0224292Y0093831D02*
Y0087833D01*
X0227291D01*
X0228291Y0088833D01*
Y0092832D01*
X0227291Y0093831D01*
X0224292D01*
X0234289D02*
X0230291D01*
Y0087833D01*
X0234289D01*
X0230291Y0090832D02*
X0232290D01*
X0462150Y0092832D02*
X0463150Y0093831D01*
X0465149D01*
X0466149Y0092832D01*
Y0088833D01*
X0465149Y0087833D01*
X0463150D01*
X0462150Y0088833D01*
Y0092832D01*
X0348550Y0093831D02*
X0352549D01*
Y0092832D01*
X0348550Y0088833D01*
Y0087833D01*
X0354548D02*
X0356547D01*
X0355548D01*
Y0093831D01*
X0354548Y0092832D01*
X0359546D02*
X0360546Y0093831D01*
X0362545D01*
X0363545Y0092832D01*
Y0088833D01*
X0362545Y0087833D01*
X0360546D01*
X0359546Y0088833D01*
Y0092832D01*
X0365545Y0090832D02*
X0369543D01*
X0371543Y0092832D02*
X0372542Y0093831D01*
X0374542D01*
X0375541Y0092832D01*
Y0088833D01*
X0374542Y0087833D01*
X0372542D01*
X0371543Y0088833D01*
Y0092832D01*
X0377541D02*
X0378540Y0093831D01*
X0380540D01*
X0381539Y0092832D01*
Y0088833D01*
X0380540Y0087833D01*
X0378540D01*
X0377541Y0088833D01*
Y0092832D01*
X0383539D02*
X0384538Y0093831D01*
X0386538D01*
X0387537Y0092832D01*
Y0088833D01*
X0386538Y0087833D01*
X0384538D01*
X0383539Y0088833D01*
Y0092832D01*
X0389537D02*
X0390536Y0093831D01*
X0392536D01*
X0393535Y0092832D01*
Y0088833D01*
X0392536Y0087833D01*
X0390536D01*
X0389537Y0088833D01*
Y0092832D01*
X0395535Y0087833D02*
X0397534D01*
X0396534D01*
Y0093831D01*
X0395535Y0092832D01*
X0294000Y0093831D02*
Y0087833D01*
X0296999D01*
X0297999Y0088833D01*
Y0089833D01*
X0296999Y0090832D01*
X0294000D01*
X0296999D01*
X0297999Y0091832D01*
Y0092832D01*
X0296999Y0093831D01*
X0294000D01*
X0302997D02*
X0300998D01*
X0299998Y0092832D01*
Y0088833D01*
X0300998Y0087833D01*
X0302997D01*
X0303997Y0088833D01*
Y0092832D01*
X0302997Y0093831D01*
X0305996Y0087833D02*
Y0091832D01*
X0307996Y0093831D01*
X0309995Y0091832D01*
Y0087833D01*
Y0090832D01*
X0305996D01*
X0311994Y0087833D02*
Y0093831D01*
X0314993D01*
X0315993Y0092832D01*
Y0090832D01*
X0314993Y0089833D01*
X0311994D01*
X0313994D02*
X0315993Y0087833D01*
X0317992Y0093831D02*
Y0087833D01*
X0320991D01*
X0321991Y0088833D01*
Y0092832D01*
X0320991Y0093831D01*
X0317992D01*
X0330988Y0087833D02*
Y0093831D01*
X0332987D02*
Y0087833D01*
X0329988Y0091832D02*
X0332987D01*
X0333987D01*
X0329988Y0089833D02*
X0333987D01*
X0335986Y0091832D02*
X0336986D01*
Y0090832D01*
X0335986D01*
Y0091832D01*
Y0088833D02*
X0336986D01*
Y0087833D01*
X0335986D01*
Y0088833D01*
X0046350Y0073549D02*
Y0067551D01*
X0050349D01*
X0052348D02*
Y0071549D01*
X0054347Y0073549D01*
X0056347Y0071549D01*
Y0067551D01*
Y0070550D01*
X0052348D01*
X0058346Y0073549D02*
Y0072549D01*
X0060346Y0070550D01*
X0062345Y0072549D01*
Y0073549D01*
X0060346Y0070550D02*
Y0067551D01*
X0068343Y0073549D02*
X0064344D01*
Y0067551D01*
X0068343D01*
X0064344Y0070550D02*
X0066343D01*
X0070342Y0067551D02*
Y0073549D01*
X0073341D01*
X0074341Y0072549D01*
Y0070550D01*
X0073341Y0069550D01*
X0070342D01*
X0072342D02*
X0074341Y0067551D01*
X0082338D02*
Y0073549D01*
X0086337Y0067551D01*
Y0073549D01*
X0088336Y0067551D02*
Y0071549D01*
X0090336Y0073549D01*
X0092335Y0071549D01*
Y0067551D01*
Y0070550D01*
X0088336D01*
X0094335Y0067551D02*
Y0073549D01*
X0096334Y0071549D01*
X0098333Y0073549D01*
Y0067551D01*
X0104331Y0073549D02*
X0100332D01*
Y0067551D01*
X0104331D01*
X0100332Y0070550D02*
X0102332D01*
X0112329Y0069550D02*
X0116327D01*
X0112329Y0071549D02*
X0116327D01*
X0046350Y0046966D02*
Y0052965D01*
X0049349D01*
X0050349Y0051965D01*
Y0049966D01*
X0049349Y0048966D01*
X0046350D01*
X0052348Y0052965D02*
Y0046966D01*
X0056347D01*
X0061345Y0052965D02*
X0059346D01*
X0058346Y0051965D01*
Y0047966D01*
X0059346Y0046966D01*
X0061345D01*
X0062345Y0047966D01*
Y0051965D01*
X0061345Y0052965D01*
X0064344D02*
X0068343D01*
X0066343D01*
Y0046966D01*
X0076340D02*
Y0052965D01*
X0080339Y0046966D01*
Y0052965D01*
X0082338Y0046966D02*
Y0050965D01*
X0084338Y0052965D01*
X0086337Y0050965D01*
Y0046966D01*
Y0049966D01*
X0082338D01*
X0088336Y0046966D02*
Y0052965D01*
X0090336Y0050965D01*
X0092335Y0052965D01*
Y0046966D01*
X0098333Y0052965D02*
X0094335D01*
Y0046966D01*
X0098333D01*
X0094335Y0049966D02*
X0096334D01*
X0106331Y0048966D02*
X0110329D01*
X0106331Y0050965D02*
X0110329D01*
X0454050Y0051965D02*
X0455050Y0052965D01*
X0457049D01*
X0458049Y0051965D01*
Y0050965D01*
X0457049Y0049966D01*
X0458049Y0048966D01*
Y0047966D01*
X0457049Y0046966D01*
X0455050D01*
X0454050Y0047966D01*
Y0048966D01*
X0455050Y0049966D01*
X0454050Y0050965D01*
Y0051965D01*
X0455050Y0049966D02*
X0457049D01*
X0460048Y0050965D02*
X0461048D01*
Y0049966D01*
X0460048D01*
Y0050965D01*
Y0047966D02*
X0461048D01*
Y0046966D01*
X0460048D01*
Y0047966D01*
X0465046Y0051965D02*
X0466046Y0052965D01*
X0468046D01*
X0469045Y0051965D01*
Y0047966D01*
X0468046Y0046966D01*
X0466046D01*
X0465046Y0047966D01*
Y0051965D01*
X0475043Y0052965D02*
X0473044Y0051965D01*
X0471044Y0049966D01*
Y0047966D01*
X0472044Y0046966D01*
X0474044D01*
X0475043Y0047966D01*
Y0048966D01*
X0474044Y0049966D01*
X0471044D01*
X0477043Y0050965D02*
X0478042D01*
Y0049966D01*
X0477043D01*
Y0050965D01*
Y0047966D02*
X0478042D01*
Y0046966D01*
X0477043D01*
Y0047966D01*
X0482041Y0051965D02*
X0483041Y0052965D01*
X0485040D01*
X0486040Y0051965D01*
Y0047966D01*
X0485040Y0046966D01*
X0483041D01*
X0482041Y0047966D01*
Y0051965D01*
X0491038Y0046966D02*
Y0052965D01*
X0488039Y0049966D01*
X0492038D01*
X0500035Y0046966D02*
Y0050965D01*
X0502035Y0052965D01*
X0504034Y0050965D01*
Y0046966D01*
Y0049966D01*
X0500035D01*
X0506033Y0046966D02*
Y0052965D01*
X0508033Y0050965D01*
X0510032Y0052965D01*
Y0046966D01*
X0604409Y0053922D02*
X0602409D01*
X0601409Y0052922D01*
Y0048923D01*
X0602409Y0047924D01*
X0604409D01*
X0605408Y0048923D01*
Y0052922D01*
X0604409Y0053922D01*
X0607408Y0045924D02*
Y0051922D01*
X0610407D01*
X0611406Y0050923D01*
Y0048923D01*
X0610407Y0047924D01*
X0607408D01*
X0616405D02*
X0614405D01*
X0613406Y0048923D01*
Y0050923D01*
X0614405Y0051922D01*
X0616405D01*
X0617404Y0050923D01*
Y0049923D01*
X0613406D01*
X0619404Y0047924D02*
Y0051922D01*
X0622403D01*
X0623402Y0050923D01*
Y0047924D01*
X0625402Y0053922D02*
Y0047924D01*
X0627401Y0049923D01*
X0629400Y0047924D01*
Y0053922D01*
X0632400Y0051922D02*
X0634399D01*
X0635398Y0050923D01*
Y0047924D01*
X0632400D01*
X0631400Y0048923D01*
X0632400Y0049923D01*
X0635398D01*
X0638398Y0052922D02*
Y0051922D01*
X0637398D01*
X0639397D01*
X0638398D01*
Y0048923D01*
X0639397Y0047924D01*
X0645395D02*
X0643396D01*
X0642396Y0048923D01*
Y0050923D01*
X0643396Y0051922D01*
X0645395D01*
X0646395Y0050923D01*
Y0049923D01*
X0642396D01*
X0648394Y0051922D02*
Y0047924D01*
Y0049923D01*
X0649394Y0050923D01*
X0650394Y0051922D01*
X0651393D01*
X0294000Y0073498D02*
X0297999D01*
X0295999D01*
Y0067500D01*
X0299998Y0073498D02*
X0301997D01*
X0300998D01*
Y0067500D01*
X0299998D01*
X0301997D01*
X0304996Y0073498D02*
Y0067500D01*
X0307996D01*
X0308995Y0068500D01*
Y0072498D01*
X0307996Y0073498D01*
X0304996D01*
X0317992Y0067500D02*
Y0073498D01*
X0319992D02*
Y0067500D01*
X0316993Y0071499D02*
X0319992D01*
X0320991D01*
X0316993Y0069499D02*
X0320991D01*
X0322991Y0071499D02*
X0323990D01*
Y0070499D01*
X0322991D01*
Y0071499D01*
Y0068500D02*
X0323990D01*
Y0067500D01*
X0322991D01*
Y0068500D01*
X0348550Y0067500D02*
Y0073498D01*
X0352549Y0067500D01*
Y0073498D01*
X0354548Y0067500D02*
X0358547Y0071499D01*
X0360546Y0067500D02*
Y0071499D01*
X0362545Y0073498D01*
X0364545Y0071499D01*
Y0067500D01*
Y0070499D01*
X0360546D01*
G54D28*
X0312302Y0344542D02*
D03*
X0312214Y0349691D02*
D03*
X0294474Y0364660D02*
D03*
X0298071Y0367081D02*
D03*
X0298176Y0362248D02*
D03*
X0297648Y0314828D02*
D03*
X0297661Y0319621D02*
D03*
X0315729Y0332018D02*
D03*
X0315847Y0337023D02*
D03*
X0315670Y0342047D02*
D03*
X0315729Y0347032D02*
D03*
X0274638Y0352251D02*
D03*
X0136838Y0292696D02*
D03*
X0176238D02*
D03*
X0215538D02*
D03*
X0254938D02*
D03*
X0294747Y0317186D02*
D03*
Y0312172D02*
D03*
X0156600Y0332267D02*
D03*
X0196000Y0332067D02*
D03*
X0235600Y0332167D02*
D03*
X0275200Y0331667D02*
D03*
X0313082Y0334658D02*
D03*
X0312908Y0339396D02*
D03*
X0235500Y0351567D02*
D03*
X0196100D02*
D03*
X0156600Y0351767D02*
D03*
X0294880Y0369731D02*
D03*
X0136938Y0391096D02*
D03*
X0176638D02*
D03*
X0215638Y0391196D02*
D03*
X0255138Y0391296D02*
D03*
M02*
